<?xml version="1.0" encoding="UTF-8"?><svg xmlns="http://www.w3.org/2000/svg" width="1920" height="1080" xmlns:xlink="http://www.w3.org/1999/xlink" viewBox="0 0 1920 1080"><defs><style>.cls-1{fill:none;}.cls-2{fill:#563300;}.cls-3{mix-blend-mode:multiply;opacity:.57;}.cls-4{fill:#231f20;}.cls-5{fill:#e2d9dc;}.cls-6{isolation:isolate;}.cls-7{fill:#ffc556;}.cls-8{fill:#efdfc7;}.cls-9{fill:#93613d;}.cls-10{fill:#fff;}.cls-11{fill:#f7931e;}.cls-12{fill:#f7931e;}.cls-13{fill:#ffd956;}.cls-14{fill:#cc001c;}.cls-15{fill:#f2f2f2;}.cls-16{fill:#e6e7e8;}.cls-17{clip-path:url(#clippath);}.cls-18{fill:#443200;}</style><clipPath id="clippath"><rect class="cls-1" x="4" y="434.33" width="1911" height="638.67"/></clipPath></defs><g class="cls-6"><g id="Layer_1"><rect class="cls-10" y="2" width="1920" height="1080"/><g class="cls-17"><g id="_Grid_Repeat_"><rect class="cls-5" x="4" y="434.33" width="50.92" height="61.46"/><rect class="cls-5" x="54.92" y="495.79" width="50.92" height="61.46"/></g><g id="_Grid_Repeat_-2"><rect class="cls-5" x="110.93" y="434.33" width="50.92" height="61.46"/><rect class="cls-5" x="161.85" y="495.79" width="50.92" height="61.46"/></g><g id="_Grid_Repeat_-3"><rect class="cls-5" x="217.86" y="434.33" width="50.92" height="61.46"/><rect class="cls-5" x="268.78" y="495.79" width="50.92" height="61.46"/></g><g id="_Grid_Repeat_-4"><rect class="cls-5" x="324.79" y="434.33" width="50.92" height="61.46"/><rect class="cls-5" x="375.71" y="495.79" width="50.92" height="61.46"/></g><g id="_Grid_Repeat_-5"><rect class="cls-5" x="431.72" y="434.33" width="50.92" height="61.46"/><rect class="cls-5" x="482.64" y="495.79" width="50.92" height="61.46"/></g><g id="_Grid_Repeat_-6"><rect class="cls-5" x="538.65" y="434.33" width="50.92" height="61.46"/><rect class="cls-5" x="589.57" y="495.79" width="50.92" height="61.46"/></g><g id="_Grid_Repeat_-7"><rect class="cls-5" x="645.58" y="434.33" width="50.92" height="61.46"/><rect class="cls-5" x="696.5" y="495.79" width="50.92" height="61.46"/></g><g id="_Grid_Repeat_-8"><rect class="cls-5" x="752.51" y="434.33" width="50.92" height="61.46"/><rect class="cls-5" x="803.42" y="495.79" width="50.92" height="61.46"/></g><g id="_Grid_Repeat_-9"><rect class="cls-5" x="859.44" y="434.33" width="50.92" height="61.46"/><rect class="cls-5" x="910.35" y="495.79" width="50.92" height="61.46"/></g><g id="_Grid_Repeat_-10"><rect class="cls-5" x="966.36" y="434.33" width="50.92" height="61.46"/><rect class="cls-5" x="1017.28" y="495.79" width="50.92" height="61.46"/></g><g id="_Grid_Repeat_-11"><rect class="cls-5" x="1073.29" y="434.33" width="50.92" height="61.46"/><rect class="cls-5" x="1124.21" y="495.79" width="50.92" height="61.46"/></g><g id="_Grid_Repeat_-12"><rect class="cls-5" x="1180.22" y="434.33" width="50.92" height="61.46"/><rect class="cls-5" x="1231.14" y="495.79" width="50.92" height="61.46"/></g><g id="_Grid_Repeat_-13"><rect class="cls-5" x="1287.15" y="434.33" width="50.92" height="61.46"/><rect class="cls-5" x="1338.07" y="495.79" width="50.92" height="61.46"/></g><g id="_Grid_Repeat_-14"><rect class="cls-5" x="1394.08" y="434.33" width="50.92" height="61.46"/><rect class="cls-5" x="1445" y="495.79" width="50.92" height="61.46"/></g><g id="_Grid_Repeat_-15"><rect class="cls-5" x="1501.01" y="434.33" width="50.92" height="61.46"/><rect class="cls-5" x="1551.93" y="495.79" width="50.92" height="61.46"/></g><g id="_Grid_Repeat_-16"><rect class="cls-5" x="1607.94" y="434.33" width="50.92" height="61.46"/><rect class="cls-5" x="1658.86" y="495.79" width="50.92" height="61.46"/></g><g id="_Grid_Repeat_-17"><rect class="cls-5" x="1714.87" y="434.33" width="50.92" height="61.46"/><rect class="cls-5" x="1765.79" y="495.79" width="50.92" height="61.46"/></g><g id="_Grid_Repeat_-18"><rect class="cls-5" x="1821.8" y="434.33" width="50.92" height="61.46"/><rect class="cls-5" x="1872.72" y="495.79" width="50.92" height="61.46"/></g><g id="_Grid_Repeat_-19"><rect class="cls-5" x="4" y="563.39" width="50.92" height="61.46"/><rect class="cls-5" x="54.92" y="624.84" width="50.92" height="61.46"/></g><g id="_Grid_Repeat_-20"><rect class="cls-5" x="110.93" y="563.39" width="50.92" height="61.46"/><rect class="cls-5" x="161.85" y="624.84" width="50.92" height="61.46"/></g><g id="_Grid_Repeat_-21"><rect class="cls-5" x="217.86" y="563.39" width="50.92" height="61.46"/><rect class="cls-5" x="268.78" y="624.84" width="50.92" height="61.46"/></g><g id="_Grid_Repeat_-22"><rect class="cls-5" x="324.79" y="563.39" width="50.92" height="61.46"/><rect class="cls-5" x="375.71" y="624.84" width="50.92" height="61.46"/></g><g id="_Grid_Repeat_-23"><rect class="cls-5" x="431.72" y="563.39" width="50.92" height="61.46"/><rect class="cls-5" x="482.64" y="624.84" width="50.92" height="61.46"/></g><g id="_Grid_Repeat_-24"><rect class="cls-5" x="538.65" y="563.39" width="50.92" height="61.46"/><rect class="cls-5" x="589.57" y="624.84" width="50.92" height="61.46"/></g><g id="_Grid_Repeat_-25"><rect class="cls-5" x="645.58" y="563.39" width="50.92" height="61.46"/><rect class="cls-5" x="696.5" y="624.84" width="50.92" height="61.46"/></g><g id="_Grid_Repeat_-26"><rect class="cls-5" x="752.51" y="563.39" width="50.92" height="61.46"/><rect class="cls-5" x="803.42" y="624.84" width="50.92" height="61.46"/></g><g id="_Grid_Repeat_-27"><rect class="cls-5" x="859.44" y="563.39" width="50.92" height="61.46"/><rect class="cls-5" x="910.35" y="624.84" width="50.92" height="61.46"/></g><g id="_Grid_Repeat_-28"><rect class="cls-5" x="966.36" y="563.39" width="50.92" height="61.46"/><rect class="cls-5" x="1017.28" y="624.84" width="50.92" height="61.46"/></g><g id="_Grid_Repeat_-29"><rect class="cls-5" x="1073.29" y="563.39" width="50.92" height="61.46"/><rect class="cls-5" x="1124.21" y="624.84" width="50.92" height="61.46"/></g><g id="_Grid_Repeat_-30"><rect class="cls-5" x="1180.22" y="563.39" width="50.92" height="61.46"/><rect class="cls-5" x="1231.14" y="624.84" width="50.92" height="61.46"/></g><g id="_Grid_Repeat_-31"><rect class="cls-5" x="1287.15" y="563.39" width="50.92" height="61.46"/><rect class="cls-5" x="1338.07" y="624.84" width="50.92" height="61.46"/></g><g id="_Grid_Repeat_-32"><rect class="cls-5" x="1394.08" y="563.39" width="50.92" height="61.46"/><rect class="cls-5" x="1445" y="624.84" width="50.92" height="61.46"/></g><g id="_Grid_Repeat_-33"><rect class="cls-5" x="1501.01" y="563.39" width="50.92" height="61.46"/><rect class="cls-5" x="1551.93" y="624.84" width="50.92" height="61.46"/></g><g id="_Grid_Repeat_-34"><rect class="cls-5" x="1607.94" y="563.39" width="50.92" height="61.46"/><rect class="cls-5" x="1658.86" y="624.84" width="50.92" height="61.46"/></g><g id="_Grid_Repeat_-35"><rect class="cls-5" x="1714.87" y="563.39" width="50.92" height="61.46"/><rect class="cls-5" x="1765.79" y="624.84" width="50.92" height="61.46"/></g><g id="_Grid_Repeat_-36"><rect class="cls-5" x="1821.8" y="563.39" width="50.92" height="61.46"/><rect class="cls-5" x="1872.72" y="624.84" width="50.92" height="61.46"/></g><g id="_Grid_Repeat_-37"><rect class="cls-5" x="4" y="692.44" width="50.92" height="61.46"/><rect class="cls-5" x="54.92" y="753.9" width="50.92" height="61.46"/></g><g id="_Grid_Repeat_-38"><rect class="cls-5" x="110.93" y="692.44" width="50.92" height="61.46"/><rect class="cls-5" x="161.85" y="753.9" width="50.92" height="61.46"/></g><g id="_Grid_Repeat_-39"><rect class="cls-5" x="217.86" y="692.44" width="50.92" height="61.46"/><rect class="cls-5" x="268.78" y="753.9" width="50.92" height="61.46"/></g><g id="_Grid_Repeat_-40"><rect class="cls-5" x="324.79" y="692.44" width="50.92" height="61.46"/><rect class="cls-5" x="375.71" y="753.9" width="50.92" height="61.46"/></g><g id="_Grid_Repeat_-41"><rect class="cls-5" x="431.72" y="692.44" width="50.92" height="61.46"/><rect class="cls-5" x="482.64" y="753.9" width="50.92" height="61.46"/></g><g id="_Grid_Repeat_-42"><rect class="cls-5" x="538.65" y="692.44" width="50.92" height="61.46"/><rect class="cls-5" x="589.57" y="753.9" width="50.92" height="61.46"/></g><g id="_Grid_Repeat_-43"><rect class="cls-5" x="645.58" y="692.44" width="50.92" height="61.46"/><rect class="cls-5" x="696.5" y="753.9" width="50.92" height="61.46"/></g><g id="_Grid_Repeat_-44"><rect class="cls-5" x="752.51" y="692.44" width="50.92" height="61.46"/><rect class="cls-5" x="803.42" y="753.9" width="50.92" height="61.46"/></g><g id="_Grid_Repeat_-45"><rect class="cls-5" x="859.44" y="692.44" width="50.92" height="61.46"/><rect class="cls-5" x="910.35" y="753.9" width="50.92" height="61.46"/></g><g id="_Grid_Repeat_-46"><rect class="cls-5" x="966.36" y="692.44" width="50.92" height="61.46"/><rect class="cls-5" x="1017.28" y="753.9" width="50.92" height="61.46"/></g><g id="_Grid_Repeat_-47"><rect class="cls-5" x="1073.29" y="692.44" width="50.92" height="61.46"/><rect class="cls-5" x="1124.21" y="753.9" width="50.92" height="61.46"/></g><g id="_Grid_Repeat_-48"><rect class="cls-5" x="1180.22" y="692.44" width="50.92" height="61.46"/><rect class="cls-5" x="1231.14" y="753.9" width="50.92" height="61.46"/></g><g id="_Grid_Repeat_-49"><rect class="cls-5" x="1287.15" y="692.44" width="50.92" height="61.46"/><rect class="cls-5" x="1338.07" y="753.9" width="50.92" height="61.46"/></g><g id="_Grid_Repeat_-50"><rect class="cls-5" x="1394.08" y="692.44" width="50.92" height="61.46"/><rect class="cls-5" x="1445" y="753.9" width="50.92" height="61.46"/></g><g id="_Grid_Repeat_-51"><rect class="cls-5" x="1501.01" y="692.44" width="50.92" height="61.46"/><rect class="cls-5" x="1551.93" y="753.9" width="50.92" height="61.46"/></g><g id="_Grid_Repeat_-52"><rect class="cls-5" x="1607.94" y="692.44" width="50.92" height="61.46"/><rect class="cls-5" x="1658.86" y="753.9" width="50.92" height="61.46"/></g><g id="_Grid_Repeat_-53"><rect class="cls-5" x="1714.87" y="692.44" width="50.92" height="61.46"/><rect class="cls-5" x="1765.79" y="753.9" width="50.92" height="61.46"/></g><g id="_Grid_Repeat_-54"><rect class="cls-5" x="1821.8" y="692.44" width="50.92" height="61.46"/><rect class="cls-5" x="1872.72" y="753.9" width="50.92" height="61.46"/></g><g id="_Grid_Repeat_-55"><rect class="cls-5" x="4" y="821.5" width="50.92" height="61.46"/><rect class="cls-5" x="54.92" y="882.95" width="50.92" height="61.46"/></g><g id="_Grid_Repeat_-56"><rect class="cls-5" x="110.93" y="821.5" width="50.92" height="61.46"/><rect class="cls-5" x="161.85" y="882.95" width="50.92" height="61.46"/></g><g id="_Grid_Repeat_-57"><rect class="cls-5" x="217.86" y="821.5" width="50.92" height="61.46"/><rect class="cls-5" x="268.78" y="882.95" width="50.92" height="61.46"/></g><g id="_Grid_Repeat_-58"><rect class="cls-5" x="324.79" y="821.5" width="50.92" height="61.46"/><rect class="cls-5" x="375.71" y="882.95" width="50.92" height="61.46"/></g><g id="_Grid_Repeat_-59"><rect class="cls-5" x="431.72" y="821.5" width="50.92" height="61.46"/><rect class="cls-5" x="482.64" y="882.95" width="50.92" height="61.46"/></g><g id="_Grid_Repeat_-60"><rect class="cls-5" x="538.65" y="821.5" width="50.92" height="61.46"/><rect class="cls-5" x="589.57" y="882.95" width="50.92" height="61.46"/></g><g id="_Grid_Repeat_-61"><rect class="cls-5" x="645.58" y="821.5" width="50.92" height="61.46"/><rect class="cls-5" x="696.5" y="882.95" width="50.92" height="61.46"/></g><g id="_Grid_Repeat_-62"><rect class="cls-5" x="752.51" y="821.5" width="50.92" height="61.46"/><rect class="cls-5" x="803.42" y="882.95" width="50.92" height="61.46"/></g><g id="_Grid_Repeat_-63"><rect class="cls-5" x="859.44" y="821.5" width="50.92" height="61.46"/><rect class="cls-5" x="910.35" y="882.95" width="50.92" height="61.46"/></g><g id="_Grid_Repeat_-64"><rect class="cls-5" x="966.36" y="821.5" width="50.92" height="61.46"/><rect class="cls-5" x="1017.28" y="882.95" width="50.92" height="61.46"/></g><g id="_Grid_Repeat_-65"><rect class="cls-5" x="1073.29" y="821.5" width="50.92" height="61.46"/><rect class="cls-5" x="1124.21" y="882.95" width="50.92" height="61.46"/></g><g id="_Grid_Repeat_-66"><rect class="cls-5" x="1180.22" y="821.5" width="50.92" height="61.46"/><rect class="cls-5" x="1231.14" y="882.95" width="50.92" height="61.46"/></g><g id="_Grid_Repeat_-67"><rect class="cls-5" x="1287.15" y="821.5" width="50.92" height="61.46"/><rect class="cls-5" x="1338.07" y="882.95" width="50.92" height="61.46"/></g><g id="_Grid_Repeat_-68"><rect class="cls-5" x="1394.08" y="821.5" width="50.92" height="61.46"/><rect class="cls-5" x="1445" y="882.95" width="50.92" height="61.46"/></g><g id="_Grid_Repeat_-69"><rect class="cls-5" x="1501.01" y="821.5" width="50.92" height="61.46"/><rect class="cls-5" x="1551.93" y="882.95" width="50.92" height="61.46"/></g><g id="_Grid_Repeat_-70"><rect class="cls-5" x="1607.94" y="821.5" width="50.92" height="61.46"/><rect class="cls-5" x="1658.86" y="882.95" width="50.92" height="61.46"/></g><g id="_Grid_Repeat_-71"><rect class="cls-5" x="1714.87" y="821.5" width="50.92" height="61.46"/><rect class="cls-5" x="1765.79" y="882.95" width="50.92" height="61.46"/></g><g id="_Grid_Repeat_-72"><rect class="cls-5" x="1821.8" y="821.5" width="50.92" height="61.46"/><rect class="cls-5" x="1872.72" y="882.95" width="50.92" height="61.46"/></g><g id="_Grid_Repeat_-73"><rect class="cls-5" x="4" y="950.56" width="50.92" height="61.46"/><rect class="cls-5" x="54.92" y="1012.01" width="50.92" height="61.46"/></g><g id="_Grid_Repeat_-74"><rect class="cls-5" x="110.93" y="950.56" width="50.92" height="61.46"/><rect class="cls-5" x="161.85" y="1012.01" width="50.92" height="61.46"/></g><g id="_Grid_Repeat_-75"><rect class="cls-5" x="217.86" y="950.56" width="50.92" height="61.46"/><rect class="cls-5" x="268.78" y="1012.01" width="50.92" height="61.46"/></g><g id="_Grid_Repeat_-76"><rect class="cls-5" x="324.79" y="950.56" width="50.92" height="61.46"/><rect class="cls-5" x="375.71" y="1012.01" width="50.92" height="61.46"/></g><g id="_Grid_Repeat_-77"><rect class="cls-5" x="431.72" y="950.56" width="50.92" height="61.46"/><rect class="cls-5" x="482.64" y="1012.01" width="50.92" height="61.46"/></g><g id="_Grid_Repeat_-78"><rect class="cls-5" x="538.65" y="950.56" width="50.92" height="61.46"/><rect class="cls-5" x="589.57" y="1012.01" width="50.92" height="61.46"/></g><g id="_Grid_Repeat_-79"><rect class="cls-5" x="645.58" y="950.56" width="50.92" height="61.46"/><rect class="cls-5" x="696.5" y="1012.01" width="50.92" height="61.46"/></g><g id="_Grid_Repeat_-80"><rect class="cls-5" x="752.51" y="950.56" width="50.92" height="61.46"/><rect class="cls-5" x="803.42" y="1012.01" width="50.92" height="61.46"/></g><g id="_Grid_Repeat_-81"><rect class="cls-5" x="859.44" y="950.56" width="50.92" height="61.46"/><rect class="cls-5" x="910.35" y="1012.01" width="50.92" height="61.46"/></g><g id="_Grid_Repeat_-82"><rect class="cls-5" x="966.36" y="950.56" width="50.92" height="61.46"/><rect class="cls-5" x="1017.28" y="1012.01" width="50.92" height="61.46"/></g><g id="_Grid_Repeat_-83"><rect class="cls-5" x="1073.29" y="950.56" width="50.92" height="61.46"/><rect class="cls-5" x="1124.21" y="1012.01" width="50.92" height="61.46"/></g><g id="_Grid_Repeat_-84"><rect class="cls-5" x="1180.22" y="950.56" width="50.92" height="61.46"/><rect class="cls-5" x="1231.14" y="1012.01" width="50.92" height="61.46"/></g><g id="_Grid_Repeat_-85"><rect class="cls-5" x="1287.15" y="950.56" width="50.92" height="61.46"/><rect class="cls-5" x="1338.07" y="1012.01" width="50.92" height="61.46"/></g><g id="_Grid_Repeat_-86"><rect class="cls-5" x="1394.08" y="950.56" width="50.92" height="61.46"/><rect class="cls-5" x="1445" y="1012.01" width="50.92" height="61.46"/></g><g id="_Grid_Repeat_-87"><rect class="cls-5" x="1501.01" y="950.56" width="50.92" height="61.46"/><rect class="cls-5" x="1551.93" y="1012.01" width="50.92" height="61.46"/></g><g id="_Grid_Repeat_-88"><rect class="cls-5" x="1607.94" y="950.56" width="50.92" height="61.46"/><rect class="cls-5" x="1658.86" y="1012.01" width="50.92" height="61.46"/></g><g id="_Grid_Repeat_-89"><rect class="cls-5" x="1714.87" y="950.56" width="50.92" height="61.46"/><rect class="cls-5" x="1765.79" y="1012.01" width="50.92" height="61.46"/></g><g id="_Grid_Repeat_-90"><rect class="cls-5" x="1821.8" y="950.56" width="50.92" height="61.46"/><rect class="cls-5" x="1872.72" y="1012.01" width="50.92" height="61.46"/></g></g><ellipse class="cls-16" cx="957.98" cy="442.4" rx="275.15" ry="308.4" transform="translate(469.95 1377.96) rotate(-87.24)"/><path class="cls-4" d="M944.62,719.4c-171.12-8.25-304.34-139.22-296.98-291.96,7.36-152.74,152.57-270.29,323.69-262.04,171.12,8.25,304.34,139.22,296.98,291.96-7.36,152.74-152.57,270.28-323.69,262.03ZM971.12,169.74c-168.59-8.13-311.65,107.57-318.89,257.92-7.25,150.35,124.01,279.27,292.6,287.4,168.59,8.13,311.65-107.57,318.9-257.92,7.25-150.35-124.01-279.28-292.6-287.41Z"/><path class="cls-4" d="M948.47,634.47c-118.61-5.72-210.98-96.05-205.9-201.37,5.08-105.32,105.71-186.35,224.32-180.63,118.61,5.72,210.98,96.06,205.9,201.37s-105.71,186.34-224.32,180.63ZM966.68,256.81c-116.08-5.6-214.56,73.59-219.53,176.52-4.96,102.93,85.44,191.22,201.53,196.81,116.08,5.6,214.57-73.59,219.53-176.51,4.96-102.93-85.44-191.22-201.53-196.82Z"/><path class="cls-11" d="M1360.12,919.99c-17.27,9.19-38.18,13.41-56.91,6.27-18.72-7.14-33.66-27.83-30.33-47.86.66-3.97,1.97-8.06.73-11.95-2.19-6.9-11.13-8.96-17.67-6.84-6.54,2.12-11.86,6.97-18.23,9.54-12.58,5.08-28.64-.34-36.44-12.3-3.76-5.77-5.74-12.76-10.38-17.8-12.74-13.83-34.42-4.58-49.06,5.9-14.64,10.48-34.77,21.5-49.22,9.63-9.66-7.94-11.78-23.23-22.01-30.36-18.5-12.89-42.19,11.88-63.29,4.94-16.29-5.36-21.06-32-7.51-41.98,22.97-16.92,62.43,18.29,82.1-2.59,10.93-11.6,5.53-31.16,7.73-47.44,2.36-17.45,15.12-32.54,31.44-37.16,27.61-7.82,61.54,12.02,84.74-4.95,20.05-14.67,17.42-45.75,21.18-71.21,1.82-12.34,5.87-24.71,14.26-33.43,8.39-8.73,21.82-12.98,33.07-7.88,17.27,7.84,20.99,31.34,20.79,50.62s-.35,41.79,14.35,54.19c18.78,15.85,47.38,1.58,59.42-19.21,12.04-20.79,14.76-46.44,26.13-67.65,11.72-21.87,33.73-38.26,58.2-38.96s50.05,16.51,56.52,41.27c6.43,24.62-5.8,49.39-19.37,69.85-13.58,20.46-29.48,41.06-31.52,66.16-1.91,23.57,9.24,47.24,25.2,64.87,7.4,8.18,16.58,17.18,15.6,28.1-.62,6.91-5.33,12.48-10.22,17.06-11.17,10.45-25.28,18.59-40.61,18.46-13.44-.11-23.01-9.77-34.35-13.76-12.5,27.82-27.11,51.96-54.35,66.46Z"/><path class="cls-11" d="M1257.8,579.53c5.88-1.23,11.91-.75,17.18,1.64,18.26,8.28,21.85,32.83,21.66,51.97-.19,18.28-.42,41.04,13.83,53.06,6.44,5.43,14.57,7.47,23.5,5.89,13.07-2.31,26.26-12,33.62-24.7,6.17-10.65,9.94-22.88,13.6-34.71,3.43-11.1,6.97-22.58,12.51-32.9,12.78-23.84,35.58-39.08,59.51-39.77,26.13-.75,51.61,17.86,58.01,42.38,6.98,26.72-7.83,53.34-19.57,71.03-1.58,2.38-3.2,4.77-4.82,7.16-12.14,17.95-24.69,36.51-26.46,58.3-1.72,21.2,7.33,44.44,24.83,63.78.59.65,1.18,1.3,1.79,1.96,7.1,7.76,15.14,16.55,14.18,27.25-.7,7.75-6.08,13.7-10.69,18.02-9.29,8.69-24.06,19.02-41.68,18.88-8.97-.07-16.19-4.16-23.18-8.11-3.51-1.98-6.84-3.87-10.34-5.24-11.53,25.43-26.22,50.85-54.43,65.87-11.66,6.21-34.73,15.29-58.18,6.35-20.47-7.8-34.5-30-31.26-49.47.13-.8.29-1.62.45-2.43.62-3.13,1.2-6.08.33-8.84-.89-2.81-3.01-4.37-4.64-5.18-3.23-1.61-7.49-1.88-11.12-.71-3.38,1.09-6.41,2.95-9.62,4.92-2.7,1.65-5.49,3.36-8.51,4.58-13.27,5.36-30.09-.29-38.28-12.86-1.54-2.36-2.79-4.92-4-7.4-1.84-3.77-3.58-7.32-6.24-10.21-3.59-3.9-17.6-14.99-47.04,6.1-22.56,16.16-39.27,19.29-51.08,9.58-4.86-3.99-7.87-9.7-10.79-15.22-3.14-5.94-6.1-11.56-11.13-15.06-9.31-6.49-20.22-2.72-31.77,1.28-10.27,3.55-20.89,7.23-31.13,3.86-8.3-2.73-14.45-10.81-16.06-21.09-1.51-9.68,1.61-18.68,8.14-23.49,11.73-8.64,27.21-4.47,42.18-.44,15.53,4.18,30.2,8.13,39.71-1.97,7.04-7.48,6.9-18.54,6.76-30.26-.07-5.45-.14-11.09.58-16.37,2.45-18.15,15.53-33.59,32.53-38.4,12.21-3.47,25.58-1.65,38.5.1,17,2.3,33.06,4.48,45.75-4.81,15.04-11.01,16.9-32.14,18.69-52.57.52-5.87,1.05-11.95,1.89-17.65,2.2-14.89,7.14-26.42,14.67-34.25,4.94-5.14,11.2-8.52,17.63-9.86ZM1335.67,694.79c-.4.08-.8.16-1.2.23-9.86,1.74-18.84-.53-25.99-6.56-15.3-12.91-15.06-36.43-14.87-55.32.19-18.27-3.12-41.64-19.93-49.27-9.87-4.48-22.75-1.38-31.32,7.54-7.09,7.37-11.75,18.35-13.86,32.62-.83,5.61-1.36,11.64-1.87,17.47-1.85,21.1-3.76,42.91-19.92,54.73-13.7,10.03-31.14,7.67-47.99,5.38-12.61-1.71-25.65-3.47-37.24-.19-15.85,4.49-28.04,18.92-30.34,35.91-.68,5.07-.62,10.59-.55,15.94.15,11.79.3,23.97-7.58,32.33-10.77,11.44-27.03,7.06-42.76,2.83-14.27-3.84-29.02-7.81-39.54-.06-5.63,4.15-8.29,12.05-6.95,20.64,1.41,9.04,6.93,16.4,14.05,18.75,9.26,3.05,19.37-.46,29.16-3.84,11.77-4.07,23.94-8.28,34.52-.9,5.62,3.92,8.89,10.11,12.05,16.1,2.78,5.26,5.65,10.71,10.05,14.33,10.6,8.71,26.09,5.54,47.35-9.69,7.96-5.7,35.18-22.97,51.07-5.71,2.95,3.2,4.86,7.12,6.71,10.91,1.17,2.4,2.38,4.87,3.82,7.08,7.44,11.41,22.63,16.57,34.59,11.73,2.79-1.13,5.34-2.69,8.05-4.35,3.22-1.97,6.55-4.02,10.28-5.22,4.38-1.42,9.53-1.08,13.45.88,3.06,1.53,5.18,3.92,6.13,6.92,1.1,3.47.42,6.94-.24,10.29-.15.78-.31,1.56-.44,2.34-3.02,18.17,10.17,38.92,29.4,46.25,22.31,8.51,44.43-.23,55.63-6.19h0c27.88-14.84,42.28-40.37,53.67-65.74l.58-1.28,1.34.47c4.24,1.49,8.26,3.76,12.14,5.96,6.65,3.76,13.54,7.65,21.71,7.72,16.6.14,30.66-9.74,39.54-18.04,4.22-3.95,9.15-9.35,9.75-16.1.85-9.42-6.41-17.35-13.43-25.02-.61-.66-1.21-1.32-1.8-1.97-18.03-19.93-27.36-43.97-25.57-65.97,1.83-22.56,14.61-41.45,26.96-59.72,1.61-2.39,3.22-4.77,4.8-7.14,11.43-17.22,25.85-43.07,19.17-68.66-6.07-23.24-30.24-40.89-55.02-40.17-22.48.65-44.81,15.62-56.88,38.15-5.4,10.07-8.9,21.41-12.29,32.38-3.7,11.98-7.53,24.38-13.87,35.32-7.56,13.05-21.01,23.12-34.54,25.95Z"/><path class="cls-11" d="M540.14,363.81c3,2.92,4.16,7.14,3.55,12.62-.61,5.49-3.08,11.47-7.39,18.13-1.11,1.67-2.44,3.32-3.98,4.97-2.84,3.04-4.31,4.68-4.41,4.83-1.4,1.68-2.83,3.38-4.27,5.11-1.44,1.73-2.96,3-4.57,3.83-2.34,1.3-5.11,1.65-8.21,1.22-3.66-.51-6.21-.48-7.43-.11-.74.39-2.13,1.03-3.21.95-.63-.04-1.29-.97-1.5-2.17-.2-1.19-.09-2.37.33-3.5.21-.57.72-1.52,1.52-2.85,1.75-2.91,4.08-6.31,7-10.13,2.92-3.82,4.69-5.81,5.29-6.05.6-.23,2.55.4,5.77,1.97,2.97,1.44,5.05,1.63,6.26.48.29-.24.56-.55.81-.94.96-1.48,1.13-3.32.52-5.54-.62-2.22-1.75-4.08-3.41-5.56-3.62-3.23-7.45-3.24-11.47.07-9.25,7.59-16.34,12.83-21.34,15.19-5.8,2.74-10.52,2.51-14.15-.91-3.02-2.86-4.94-7.7-5.69-14.59s.09-13.04,2.49-18.34c1.02-2.2,5.75-7.72,14.25-15.97,2.06-2.08,4.16-4.14,6.3-6.19,2.14-2.04,4.19-3.38,6.16-4.01,3.02-1.02,6.32.09,9.9,3.33.67.6,1.62,1.53,2.84,2.77,1.06,1.09,1.84,1.96,2.28,2.27.28.2,1.06.4,2,.47.69.06,1.29.32,1.69.78,1.58,1.83,1.71,4.22.03,7.17-.96,1.69-3.29,4.33-6.89,8-4,4.09-6.87,6.51-8.65,7.04-.23.06-.71-.22-1.43-.83-.63-.54-1.98-1.89-4.04-4.07-2.06-2.17-3.6-3.68-4.62-4.53-1.82-1.52-2.99-1.83-3.49-.95-1.59,2.71-2.02,5.68-1.29,8.9.73,3.22,2.26,5.75,4.57,7.62,3.85,3.12,8.12,3.15,12.34.14,4.72-3.38,9.52-7.03,14.27-10.31,4.53-3.12,8.2-4.75,10.88-4.99,3.43-.31,6.93,1.28,10.42,4.67Z"/><path class="cls-11" d="M552.48,263.87c-.36-.55,3.36,3.7,11.06,12.56,10.66,12.26,31.51,37.91,19.86,55.33-1.42,1.97-3.45,3.97-6.1,6.05-2.65,2.08-5.4,4.12-7.8,6.18-2.08,1.79-4.22,3.85-6.39,5.79-2.17,1.94-4.17,3.16-6.02,3.64-3.97,1.05-9.69-.56-17.05-4.76-6.77-3.86-13.66-9.11-20.59-15.66-5.33-5.03-9.65-10.05-12.96-14.88-1.03-1.5-1.06-3.45,0-5.81.47-1.04,2.95-3.89,7.47-8.37,4.53-4.48,7.39-6.81,8.55-7.14.53-.15,1-.02,1.41.39.52.53.95,1.63,1.27,3.31.33,1.68,1.03,2.76,1.36,3.19.56.74,2.55,3.56,6.2,7.27,7.05,7.17,13.87,13.15,20.36,17.99,8.35,6.23,13.4,8.15,15.33,5.37,2.43-3.51,1.03-9.77-4.14-18.79-4-6.97-9.42-14.35-16.38-21.94-4.58-4.99-8.32-7.74-9.28-8.57-.56-.49-1.34-1.44-2.31-1.63-1.36-.28-2.14-.41-2.23-.5-1.7-.97-2.07-2.86-1.07-5.68.18-.5.63-1.2,1.35-2.1,1.8-2.25,4.62-5.07,8.47-8.37,3.85-3.3,6.26-5.02,7.18-5.22.62-.13,1.45.66,2.44,2.35Z"/><path class="cls-11" d="M634.67,255.6c2.5,3.78,3.06,8.23,1.76,13.35-1.3,5.12-4.45,10.11-9.44,15.16-1.28,1.25-2.77,2.42-4.46,3.52-3.12,2.02-4.73,3.12-4.85,3.24-1.56,1.16-3.15,2.35-4.75,3.54-1.6,1.2-3.22,1.93-4.87,2.21-2.41.49-5.1-.07-8.02-1.5-3.44-1.68-5.88-2.49-7.1-2.53-.76.14-2.19.27-3.2-.13-.64-.26-1.11-1.36-1.16-2.58-.04-1.22.21-2.31.77-3.26.28-.48.88-1.23,1.82-2.25,2.05-2.23,4.72-4.74,8-7.48,3.29-2.74,5.25-4.08,5.85-4.11.61-.03,2.39,1.21,5.27,3.76,2.66,2.36,4.63,3.21,5.94,2.49.3-.14.6-.35.9-.65,1.11-1.12,1.52-2.84,1.22-5.18-.3-2.34-1.15-4.5-2.56-6.47-3.05-4.28-6.73-5.52-11.01-3.63-9.84,4.33-17.3,7.07-22.4,7.71-5.9.74-10.39-1.03-13.42-5.51-2.52-3.73-3.74-9.02-3.58-15.89.17-6.87,1.76-12.51,4.73-16.83,1.26-1.79,6.49-5.56,15.71-10.77,2.24-1.34,4.52-2.66,6.83-3.94,2.31-1.28,4.46-1.91,6.42-1.9,3.03-.02,6.05,2.12,9.06,6.39.56.79,1.36,1.99,2.37,3.59.88,1.39,1.5,2.47,1.89,2.93.25.29.95.72,1.86,1.1.65.27,1.19.72,1.52,1.3,1.29,2.29,1.09,4.63-.91,6.94-1.14,1.33-3.72,3.13-7.65,5.52-4.36,2.66-7.43,4.07-9.2,4.01-.23-.02-.65-.44-1.26-1.26-.54-.72-1.65-2.47-3.35-5.23-1.69-2.76-2.98-4.72-3.84-5.86-1.56-2.06-2.63-2.73-3.22-2.04-1.87,2.09-2.67,4.83-2.38,8.16.28,3.34,1.42,6.27,3.39,8.82,3.28,4.25,7.37,5.67,11.8,4.13,4.93-1.72,10.04-3.72,15.01-5.35,4.74-1.56,8.49-1.97,11.09-1.35,3.34.8,6.49,3.45,9.39,7.84Z"/><path class="cls-11" d="M703.74,212.36c.19.56.66,1.92,1.47,3.94.42,1.06.59,2.01.41,2.82-.23.38-.72.83-1.47,1.33-2.07,1.4-4.97,2.63-8.44,3.86-3.74,1.33-6.59,1.99-8.44,1.63-.77-.14-2.17-1.47-4.22-3.9-2.69-3.2-5.2-5.69-7.44-7.44-2.26,2.09-5.35,5.5-9.21,10.32-3.86,4.82-6.87,8.66-7.09,10.15-.31,2.19.91,6.9,1.41,11.52.27.9.49,1.77.68,2.61.19.84-.02,1.83-.6,2.96-.12.26-.36.54-.72.84-1.45,1.21-4.28,2.59-8.49,4.22-4.22,1.64-6.52,2.35-6.9,2.06-.68-.51-1.26-2.84-1.72-6.89-.67-5.82-1.21-9.41-1.5-10.61-1.99.04-3.34-.46-4.04-1.55-.17-.26-.32-.57-.46-.93-.28-.73.88-3.52,3.53-8.33-3.26-15.02-6.44-30.04-9.54-45.1-.2-.79-.9-1.99-2.1-3.52-1.01-1.29-1.37-2.36-1.1-3.16.18-.52.88-1.35,2.15-2.41,3.14-2.63,8.03-5.72,14.67-9.07,6.64-3.35,10.85-4.8,12.6-4.64,5.96,8.56,13.08,16.55,19.94,24.17,7.99,8.88,16.34,18.48,26.63,25.1ZM665.05,204.91c-2.81-2.78-4.64-4.62-5.46-5.55-2.83-3.07-5.53-6.42-8.1-10.08.26,3.67.93,8.55,1.95,14.59,1.07,6.34,1.89,10.21,2.5,11.55.95-1.4,3.96-4.96,9.11-10.5Z"/><path class="cls-11" d="M739.32,109.81c.3.63.41,1.38.38,2.12-.06,1.27-.04,2.26.08,2.93,8.45,20.05,16.65,40.18,24.63,60.42-.07-.19.54.89,1.83,3.18,1.48,2.64,1.81,4.69.97,6.11-.84,1.42-3.42,2.9-7.63,4.59-2.41.96-5.39,1.73-8.79,2.39-4.39.85-7.48.84-8.05-.14-.37-.64-.95-2.11-1.96-3.71-8.25-7.65-17.06-14.58-25.95-21.46,4.1,8.66,8.14,17.36,12.12,26.08.22.47.73.96,1.53,1.46,1.04.66,1.57,1.03,1.6,1.09.72.7,1.29,1.5,1.68,2.38,1.06,2.37.44,4.22-1.87,5.58-2.24,1.32-5.7,2.66-10.3,3.97-4.33,1.23-6.98,1.71-7.79,1.41-1.2-.44-1.79-1.61-1.73-3.55.06-1.94.01-3.08-.16-3.43-8.82-18.04-17.88-35.95-27.24-53.72-.18-.34-.55-.78-1.11-1.32-.56-.54-.88-1.05-.95-1.54-.33-2.37.34-4.59,2-6.61.29-.34,1.02-.91,2.21-1.69,2.72-1.78,5.69-3.29,8.82-4.54,4.04-1.61,7.16-2.26,9.23-1.86,2.8.53,7.98,4.33,15.25,11.55,8.93,8.88,15.16,14.91,18.97,17.75-5.11-11.76-10.32-23.48-15.63-35.16-.22-.47-.66-1.06-1.34-1.76-.67-.7-1.12-1.29-1.34-1.76-.16-.36-.22-.74-.24-1.1-.04-1.14.94-2.7,3.04-4.47,1.66-1.4,3.38-2.55,5.15-3.34,1.69-.76,3.81-1.47,6.34-2.11,3.66-.86,5.8-.74,6.25.23Z"/><path class="cls-11" d="M810.79,80.69c.24.68.3,1.44.21,2.17-.16,1.25-.22,2.24-.16,2.93,6.75,21.34,13.26,42.74,19.55,64.22-.06-.2.46.97,1.56,3.47,1.26,2.88,1.42,4.96.47,6.23-.95,1.27-3.62,2.29-7.93,3.24-2.46.54-5.48.79-8.9.86-4.41.09-7.47-.43-7.96-1.52-.32-.7-.77-2.26-1.64-4.02-7.55-9.02-15.71-17.42-23.96-25.8,3.36,9.3,6.66,18.64,9.9,27.99.18.51.65,1.08,1.39,1.71.97.83,1.47,1.29,1.49,1.36.66.82,1.15,1.71,1.47,2.66.86,2.54.1,4.26-2.29,5.21-2.32.92-5.86,1.65-10.51,2.15-4.38.47-7.04.47-7.82.04-1.15-.65-1.65-1.91-1.43-3.83.22-1.91.26-3.05.12-3.43-7.33-19.44-14.87-38.78-22.63-58.06-.15-.37-.48-.87-.99-1.5-.51-.63-.79-1.2-.82-1.69-.14-2.41.7-4.49,2.51-6.2.31-.29,1.08-.72,2.32-1.29,2.83-1.29,5.88-2.27,9.08-2.96,4.12-.89,7.25-.99,9.28-.24,2.72,1.01,7.54,5.68,14.16,14.12,8.13,10.36,13.8,17.43,17.35,20.9-4.11-12.57-8.33-25.1-12.65-37.6-.17-.51-.57-1.17-1.18-1.98-.61-.81-1.01-1.47-1.18-1.98-.13-.38-.16-.77-.15-1.13.05-1.15,1.15-2.52,3.36-3.91,1.75-1.1,3.55-1.95,5.37-2.43,1.74-.46,3.89-.8,6.44-1,3.69-.22,5.8.26,6.17,1.31Z"/><path class="cls-11" d="M885.84,132.74c.04,1.17-.31,2.5-1.02,3.97-.72,1.47-1.43,2.4-2.12,2.79-.19.1-.6.04-1.22-.17-.62-.21-1.1-.29-1.44-.24-.14.02-.27.08-.39.17-2,.96-3.95,2.14-5.85,3.53-4.56,3.2-8.5,7.04-11.83,11.47-7.44-1.29-11.54-1.83-12.22-1.94-4.67-.76-7.14-1.5-7.38-2.36-6.8-24.69-13.9-49.27-21.32-73.77-.14-.45.53-1.36,2.02-2.7,1.49-1.34,2.66-2.09,3.5-2.25.91-.18,2.85-.17,5.81.07,2.96.25,5.29.17,7-.25,2.24-.55,4.95-2.13,8-4.74,2.82-2.41,4.71-3.64,5.61-3.55,1.94.15,5.1,1.33,9.41,3.61,4.3,2.28,6.74,4.1,7.35,5.31.29.58-.15,1.74-1.3,3.48-1.16,1.75-2.22,2.71-3.18,2.89-.82.15-1.43.17-1.85.04-.42-.13-.7-.14-.83-.05-2.53,1.05-4.84,2.19-6.93,3.4-5.02,2.81-8.5,5.67-10.45,8.46,1.76,6.46,2.63,9.69,4.35,16.16,2.19-1.77,5.14-3.74,8.85-5.85,1.12-.37,3.94.59,8.4,3,4.46,2.41,6.8,4.27,7.08,5.48.17.74-.13,1.7-.89,2.88-.76,1.18-1.57,1.99-2.43,2.43-.71.13-1.94.42-3.68.9-2.58.99-6.82,4.05-12.58,9.35,1.08,4.18,1.61,6.27,2.67,10.46,1.77-1.66,4.25-3.68,7.45-6.04,3.19-2.36,5.23-3.59,6.07-3.74.98-.18,3.81.81,8.41,3.09,4.6,2.28,6.9,3.9,6.93,4.72Z"/><path class="cls-11" d="M962.28,128.63c-.06,1.17-.53,2.43-1.37,3.75-.85,1.32-1.63,2.11-2.36,2.36-.2.06-.6-.07-1.19-.4-.6-.33-1.07-.5-1.41-.51-.14,0-.27.03-.41.09-2.08.57-4.12,1.37-6.13,2.4-4.81,2.32-9.08,5.38-12.79,9.14-7.27-2.68-11.29-3.99-11.96-4.23-4.57-1.63-6.96-2.84-7.11-3.73-4.53-25.79-9.38-51.5-14.54-77.17-.1-.48.65-1.25,2.25-2.3,1.6-1.05,2.83-1.57,3.67-1.57.92,0,2.85.37,5.76,1.17,2.91.8,5.23,1.17,6.97,1.07,2.27-.13,5.11-1.18,8.37-3.19,3.02-1.86,5-2.72,5.88-2.46,1.92.51,4.94,2.28,9.02,5.35,4.07,3.08,6.32,5.33,6.82,6.65.24.63-.3,1.69-1.61,3.21-1.31,1.51-2.45,2.27-3.42,2.27-.82,0-1.43-.11-1.84-.31-.41-.21-.68-.27-.82-.21-2.6.57-5,1.26-7.19,2.07-5.24,1.84-8.94,4.02-11.14,6.41,1.17,6.73,1.74,10.1,2.87,16.85,2.33-1.34,5.43-2.74,9.31-4.13,1.15-.16,3.86,1.33,8.07,4.56,4.21,3.23,6.37,5.52,6.54,6.77.1.77-.28,1.66-1.14,2.69s-1.74,1.68-2.63,1.95c-.72,0-1.96.06-3.73.2-2.65.49-7.14,2.73-13.33,6.9.7,4.35,1.04,6.52,1.72,10.87,1.91-1.31,4.55-2.85,7.94-4.59,3.38-1.74,5.52-2.57,6.37-2.57.99,0,3.71,1.52,8.08,4.65,4.37,3.12,6.51,5.16,6.46,5.99Z"/><path class="cls-11" d="M1028.19,135.87c.75,1-.44,4.02-3.31,8.11-2.87,4.09-5.3,5.92-7.36,5.48-2.2-.47-4.01-1.97-5.46-4.51-.25-.74-.82-1.85-1.73-3.32-7.81-8.06-15.7-15.91-23.8-23.68.74,7.79,1.09,11.69,1.77,19.48.07.77.45,1.79,1.14,3.04.69,1.26,1.06,2.17,1.1,2.73.18,2.11-1.1,3.08-3.73,3.04-2.02-.03-5.15-.74-9.28-2-4.45-1.36-6.82-2.5-6.94-3.62-.04-.35,0-.82.11-1.4.11-.58.11-1.33.02-2.24-2.7-24.41-5.66-48.78-8.9-73.12-.06-.49-.24-.93-.52-1.32-.28-.39-.43-.69-.46-.9-.18-1.88,1.18-2.95,4.09-3.17.89-.1,3,.32,6.32,1.31,3.31.99,5.65,1.53,7,1.56,1.27.03,3.79-.74,7.56-2.24,3.77-1.5,7.16-2.06,10.12-1.73,1.14.13,2.33.37,3.56.73,2.17.68,4.19,1.85,6.05,3.5,1.87,1.65,3.65,3.3,5.34,4.95,4.44,4.29,6.7,6.61,6.86,6.84,2.09,2.44,3.4,5.08,3.62,7.64,1.04,12.03-11.09,20.93-19.38,28.17,7.33,7.26,14.24,14.95,20.94,22.79.64.33,1.57.93,2.79,1.8.71.49,1.83,1.21,2.48,2.08ZM1000.29,72.72c-3.51-.44-9.43,2.25-17.49,8.37.69,6.44,1.03,9.66,1.69,16.1,3-.9,6.74-4.11,11.33-9.56,4.59-5.45,6.82-9.59,6.56-12.55-.12-1.41-.82-2.2-2.09-2.36Z"/><path class="cls-11" d="M1105.57,157.69c-.25,5.23-2.14,8.83-5.61,10.86s-8.11,1.98-13.99,0c-1.49-.54-3.07-1.36-4.74-2.44-3.09-2.01-4.71-3.01-4.85-3.05-1.62-.9-3.27-1.82-4.93-2.74-1.66-.93-3.1-2.18-4.32-3.76-1.83-2.27-3.31-5.52-4.51-9.65-1.41-4.86-2.6-8.01-3.38-9.36-.56-.72-1.52-2.03-2.02-3.53-.32-.95-.04-2.11.54-2.98.59-.86,1.3-1.32,2.14-1.36.42-.02,1.2.13,2.32.45,2.46.71,5.48,1.9,9.02,3.61,3.54,1.71,5.52,2.91,5.93,3.55.42.63.96,3.38,1.58,8.21.57,4.45,1.44,7.15,2.67,8.07.27.24.58.41.92.53,1.3.45,2.44-.27,3.43-2.17.99-1.9,1.52-4.26,1.58-7.1.15-6.16-1.66-10.96-5.45-14.3-8.69-7.7-14.95-13.91-18.6-18.97-4.23-5.87-6.27-11.89-5.99-18.16.23-5.23,2.09-10.09,5.65-14.52,3.56-4.43,7.44-6.5,11.56-6.19,1.72.16,7.04,3.26,15.75,9.7,2.16,1.52,4.33,3.09,6.51,4.72,2.18,1.63,3.92,3.52,5.21,5.65,2.02,3.25,2.94,7.95,2.78,14.06-.03,1.14-.11,2.8-.25,4.96-.12,1.88-.25,3.28-.23,4,.02.49.26,1.49.68,2.74.3.9.43,1.77.35,2.51-.31,2.99-1.62,4.28-4.12,3.68-1.43-.33-4.05-1.91-7.88-4.54-4.22-2.9-6.98-5.27-8.11-7.22-.14-.26-.21-1-.2-2.2.01-1.06.16-3.44.44-7.12.28-3.68.42-6.37.43-8.08.01-3.05-.36-4.67-1.09-4.84-2.29-.61-4.19.37-5.69,2.91-1.5,2.55-2.23,5.74-2.22,9.58.01,6.39,1.92,11.69,5.69,15.49,4.09,4.13,8.52,8.33,12.65,12.59,3.96,4.08,6.64,7.83,8.06,11.05,1.83,4.15,2.58,9.31,2.29,15.39Z"/><path class="cls-11" d="M1169.95,122.26c.15-.74-.3,6.18-1.87,20.24-1.18,10.54-3.21,56.94-22.64,53-1.87-.78-4.05-2.31-6.58-4.56-2.53-2.26-5.04-4.62-7.47-6.62-2.02-1.66-4.33-3.33-6.52-5.05-2.19-1.72-3.88-3.61-5.06-5.67-2.55-4.43-4.34-12.32-5.5-23.74-1.14-11.23-1.14-22.55-.82-33.7.26-9.13,1.2-17.19,2.4-23.77.38-2.07,1.49-3.08,3.36-2.96.83.05,3.65,1.7,8.44,5.07,4.78,3.37,7.53,5.76,8.28,7.05.34.59.49,1.25.46,1.95-.05.92-.49,2.01-1.31,3.28s-1.07,2.56-1.19,3.33c-.17,1.01-.88,5.04-1.22,11.45-.6,11.46-.96,23.09-.56,34.61.47,13.59,1.81,20.91,4.39,21.91,3.26,1.26,6.22-3.67,8.96-14.74,2.57-10.37,3.81-21.12,4.77-31.65.75-8.17.4-13.98.45-15.96.03-.95.19-2.39-.18-3.72-.51-1.87-.81-2.89-.8-3.03-.27-2.62.66-4.04,2.79-4.22.38-.03,1.01.17,1.89.62,2.2,1.1,5.23,3.19,9.08,6.33,3.84,3.14,6.05,5.28,6.63,6.34.39.72.33,2.15-.17,4.25Z"/><path class="cls-11" d="M1216.41,223.47c-1.4,2.56-2.97,3.66-4.76,3.11-.55-.18-1.25-.65-2.09-1.43-.84-.78-1.48-1.2-1.9-1.28-6.17-1.62-9.25-2.36-15.39-3.71-.48-.1-1.05.17-1.69.8-.64.64-1.19.87-1.67.71-1.5-.4-4.4-2.94-8.76-7.5-4.36-4.56-7.01-7.79-7.77-9.77-.58-1.53-.57-3.45.01-5.64.27-1.03.46-1.86.54-2.49,3.06-23.5,5.86-47.02,8.41-70.58-.07-.79-.29-1.55-.67-2.3-.38-.74-.57-1.31-.52-1.64.2-1.19,1.65-1.52,4.1-.76,1.55.54,4.81,2.98,9.65,7.48,5.48,5.08,8.1,8.89,7.86,11.06-.06.55-.57,1.15-1.5,1.77-.93.62-1.42,1.21-1.5,1.77-2.49,19.28-5.21,38.54-8.13,57.76,4.4.86,6.6,1.32,11.02,2.31.68-.14,1.91.02,3.67.49.95.51,3.18,3.72,6.62,9.69,3.43,5.97,4.86,9.38,4.44,10.14Z"/><path class="cls-11" d="M1265.36,199.49c-.54-.46-1.23-1.32-2.07-2.57-.85-1.25-1.59-2.06-2.22-2.44-4.4-2.38-6.61-3.54-11.01-5.78-3.59,17.93-7.33,35.82-11.22,53.69-.43,1.96-.46,4.46-.1,7.5.1.89-.28,2.13-1.05,3.68-.86,1.74-1.73,2.58-2.66,2.45-.14-.04-.46-.27-.96-.68-2.05-1.72-4.83-4.55-8.33-8.41-3.93-4.34-6.23-7.26-6.77-8.79-.66-1.88-.29-3.53,1.07-4.83,1.18-1.13,1.85-2.1,2.01-2.92,3.31-16.95,6.48-33.92,9.53-50.92-3.04-1.44-4.55-2.15-7.59-3.53-.36-.18-.97-.3-1.84-.35-.87-.05-1.57-.34-2.1-.87-1.5-1.54-3.32-5.14-5.51-10.78-2.19-5.64-3.08-9.08-2.51-10.07.68-1.19,2.62-1.33,5.48-.27.73.28,1.65.88,2.75,1.8,1.1.92,1.97,1.54,2.62,1.85,12.9,5.66,25.41,11.99,37.84,18.58.36.22,1.44.63,3.24,1.26,1.2.44,2.23,1.11,3.09,2,1.86,1.9,3,3.78,3.43,5.59.29,1.22.47,3.22.54,5.92.08,3.22-.07,5.85-.5,7.82-.33,1.49-.77,2.47-1.31,2.92-.54.46-1.82-.16-3.84-1.83Z"/><path class="cls-11" d="M1303.16,304.51c-.52.9-1.42,1.5-2.68,1.8-1.26.31-2.25.23-2.98-.23-.2-.13-.49-.6-.87-1.41-.38-.81-.72-1.38-1.02-1.7-.12-.13-.25-.23-.39-.29-2.02-1.42-4.1-2.62-6.24-3.61-5.07-2.48-9.97-3.83-14.66-4.1-5.19-8.72-8.12-13.37-8.6-14.16-3.28-5.41-4.84-8.51-4.62-9.38,6.44-25.16,12.55-50.39,18.35-75.71.11-.47,1.06-.44,2.84.12,1.79.56,3.05,1.22,3.77,1.97.79.81,2.29,2.82,4.47,6.06,2.18,3.24,4.02,5.6,5.55,7.08,1.99,1.92,4.84,3.58,8.45,4.87,3.31,1.18,5.38,2.27,6.04,3.27,1.44,2.14,3.34,6.29,5.62,12.47,2.28,6.18,3.32,10.06,3.22,11.58-.05.73-.93,1.11-2.66,1.16-1.73.05-3.01-.36-3.85-1.24-.71-.74-1.19-1.38-1.46-1.91-.27-.54-.47-.84-.62-.91-2.47-1.89-4.81-3.48-7.01-4.79-5.24-3.2-9.29-4.74-12.13-4.76-1.68,6.53-2.54,9.78-4.26,16.28,2.54.99,5.76,2.64,9.66,4.99,1.05.9,2.79,4.55,5.13,10.99,2.34,6.44,3.29,10.26,2.94,11.43-.22.72-.9,1.1-2.05,1.16-1.15.06-2.17-.21-3.04-.79-.62-.65-1.71-1.73-3.3-3.22-2.48-2-7.24-4.22-14.23-6.38-1.14,4.16-1.71,6.24-2.86,10.39,2.17.65,5.05,1.77,8.66,3.4,3.61,1.64,5.78,2.89,6.51,3.66.85.9,2.59,4.59,5.12,11.11,2.53,6.52,3.56,10.13,3.19,10.77Z"/><path class="cls-11" d="M1381.6,311.63c-.23.67-.64,1.18-1.12,1.47-.82.49-1.42.96-1.78,1.42-7.93,20.41-16.09,40.72-24.5,60.93.08-.18-.26,1.14-1.01,3.95-.86,3.24-1.95,4.6-3.28,4.06-1.33-.54-3.6-3.43-6.89-8.51-1.87-2.89-3.91-6.62-6.13-11.03-2.85-5.66-4.54-9.7-4.15-11.08.2-.7.81-2.24,1.27-4.34.37-14.98.15-29.93-.24-44.9-3.22,9.41-6.51,18.8-9.86,28.16-.18.51-.21,1.42-.11,2.73.14,1.71.18,2.59.16,2.66-.06,1.3-.26,2.42-.6,3.36-.91,2.51-2.39,2.49-4.43-.02-1.99-2.44-4.62-6.52-7.82-12.13-3.03-5.31-4.67-8.62-4.91-9.85-.35-1.82.07-3.14,1.3-3.94,1.23-.8,1.91-1.38,2.04-1.77,6.63-20.23,13.03-40.52,19.22-60.89.12-.39.2-1.09.24-2.09.04-1,.2-1.66.46-1.97,1.29-1.51,3.01-1.64,5.11-.33.36.23,1.09.96,2.18,2.19,2.5,2.83,4.95,6.1,7.35,9.77,3.08,4.69,5.09,8.59,5.93,11.58,1.12,4.02,1.47,12.73.76,25.84-.61,11.22-1.36,22.55-1.08,33.81,4.65-12.33,9.19-24.7,13.63-37.1.18-.51.31-1.38.4-2.61.08-1.23.21-2.1.39-2.61.14-.38.36-.65.56-.81.68-.56,2.15.05,4.35,2.12,1.73,1.62,3.35,3.47,4.77,5.53,1.36,1.97,2.91,4.55,4.64,7.73,2.46,4.63,3.52,7.6,3.15,8.69Z"/><path class="cls-11" d="M1385.69,388.84c-1,2-2.18,2.44-3.2,1.26-.3-.36-.58-.75-.85-1.17-1.57-2.43-3.24-6.14-5.05-11.15-1.81-5.01-3.09-9.6-3.83-13.82-.34-1.76.28-3.23,1.85-4.38,1.57-1.15,2.37-1.75,2.4-1.81,4.86-11.55,9.62-23.14,14.28-34.77.64-1.61,1.98-1.45,4.01.49.41.39.93,1.05,1.59,2,1.66,2.4,3.4,5.53,5.2,9.4,1.8,3.87,2.77,6.64,2.93,8.28.04.35-.61,2.09-1.94,5.18-5.3,12.31-10.71,24.57-16.24,36.77-.16.36-.34.96-.54,1.82-.2.85-.39,1.51-.59,1.9ZM1379.76,401.72c-.08.77-.76,2.23-2.02,4.33-1.63,2.73-2.63,4.45-2.96,5.15-1.1,2.35-2.07,4-2.88,4.96-.82.96-1.82.7-3.02-.77-.71-.8-2.23-4.21-4.58-10.13-2.49-6.27-3.83-10.42-4-12.45-.08-1.21.57-2.19,1.82-2.64.57-.2,1.45-1.08,2.03-2.49.54-1.33,1.49-4.29,3.3-7.57,1-1.8,2.47-1.69,3.83.48,1.48,2.36,3.3,6.25,5.44,11.61,2.14,5.35,3.14,8.55,3.04,9.52Z"/><path class="cls-8" d="M675.83,842.12h10.02c1.35,0,2.45.99,2.45,2.21v52.78c0,1.22-1.1,2.21-2.45,2.21h-10.02c-1.35,0-2.45-.99-2.45-2.21v-52.78c0-1.22,1.1-2.21,2.45-2.21Z"/><path d="M685.85,899.53h-10.02c-1.48,0-2.6-1.07-2.6-2.35v-52.78c0-1.34,1.19-2.35,2.6-2.35h10.02c1.48,0,2.6,1.07,2.6,2.35v52.78c0,1.34-1.19,2.35-2.6,2.35ZM675.83,842.32c-1.26,0-2.23.94-2.23,2.01v52.78c0,1.14,1.04,2.01,2.23,2.01h10.02c1.26,0,2.23-.94,2.23-2.01v-52.78c0-1.14-1.04-2.01-2.23-2.01h-10.02Z"/><path class="cls-8" d="M635.3,841.78h9.28c1.35,0,2.45.99,2.45,2.21v52.78c0,1.22-1.1,2.21-2.45,2.21h-9.28c-1.35,0-2.45-.99-2.45-2.21v-52.78c0-1.22,1.1-2.21,2.45-2.21Z"/><path d="M644.58,899.12h-9.28c-1.48,0-2.6-1.07-2.6-2.35v-52.78c0-1.34,1.19-2.35,2.6-2.35h9.28c1.48,0,2.6,1.07,2.6,2.35v52.78c0,1.34-1.19,2.35-2.6,2.35ZM635.3,841.92c-1.26,0-2.23.94-2.23,2.01v52.78c0,1.14,1.04,2.01,2.23,2.01h9.28c1.26,0,2.23-.94,2.23-2.01v-52.78c0-1.14-1.04-2.01-2.23-2.01h-9.28Z"/><path class="cls-8" d="M658.39,635.49c-34.07,0-61.76-22.33-61.76-49.9v-8.25c0-27.56-.37-82.83,33.7-82.83l49.66-2.08c34.07,0,40.08,57.34,40.08,84.9v8.25c0,27.56-27.61,49.9-61.76,49.9h.07Z"/><path d="M667,559.91c4.01-6.77,15.22-7.85,19.82-2.41,3.93,4.69,2.38,13.35-3.04,17.44-3.41,2.62-8.91,3.89-13.21,1.21-5.42-3.29-6.61-11.2-3.64-16.23h.07Z"/><path class="cls-10" d="M666.85,563.87c4.08-6.1,15.37-7.04,19.97-2.15,4.01,4.23,2.38,12-3.04,15.76-3.41,2.35-8.91,3.49-13.29,1.07-5.42-2.95-6.68-10.06-3.64-14.62h0v-.07Z"/><path class="cls-2" d="M671.38,566.88c3.04-4.96,11.51-5.77,14.99-1.74,2.97,3.42,1.78,9.79-2.3,12.81-2.52,1.88-6.68,2.82-9.95.87-4.08-2.41-4.97-8.18-2.75-11.94h0Z"/><path d="M674.72,568.36c1.63-4.09,6.09-4.76,7.94-1.48,1.56,2.82.97,8.05-1.19,10.6-1.34,1.54-3.56,2.35-5.27.74-2.15-2.01-2.67-6.77-1.41-9.86h-.07Z"/><path d="M687.93,559.57l-.3-.6h0c.97-.47,3.93-3.55,4.23-4.43h0l.74.13h0c-.45,2.01-2.08,3.76-4.6,4.9h-.07Z"/><path d="M684.81,559.37l-.3-.6h0c.97-.54,3.93-3.55,4.23-4.43h0l.74.13h0c-.52,2.01-2.08,3.76-4.6,4.9h-.07Z"/><path d="M621.79,559.78c4.01-6.77,15.22-7.85,19.82-2.41,3.93,4.69,2.38,13.35-3.04,17.44-3.41,2.62-8.91,3.89-13.21,1.21-5.42-3.29-6.61-11.2-3.64-16.23h.07Z"/><path class="cls-10" d="M621.72,563.8c4.08-6.1,15.37-7.04,19.97-2.15,4.01,4.23,2.38,12-3.04,15.76-3.41,2.35-8.91,3.49-13.29,1.07-5.42-2.95-6.68-10.06-3.64-14.62h0v-.07Z"/><path class="cls-2" d="M626.17,566.75c3.04-4.96,11.51-5.77,14.99-1.74,2.97,3.42,1.78,9.79-2.3,12.81-2.52,1.88-6.68,2.82-9.95.87-4.08-2.41-4.97-8.18-2.75-11.94h0Z"/><path d="M629.59,568.29c1.63-4.09,6.09-4.76,7.94-1.48,1.56,2.82.97,8.05-1.19,10.6-1.34,1.54-3.56,2.35-5.27.74-2.15-2.01-2.67-6.77-1.41-9.86h-.07Z"/><path d="M627.29,557.96h0c-2.08-1.21-4.6-3.15-4.97-5.97h0l.74-.07h0c.15,1.01,3.49,4.83,4.6,5.5h0l-.37.6h0v-.07Z"/><path d="M624.61,560.25h0c-2.52-1.54-4.08-3.49-4.31-5.5h0l.74-.07h0c.15.94,2.97,4.43,3.93,5.03h0l-.37.54h0Z"/><path d="M656.83,588.68c-2.23,0-3.79-.8-4.31-2.15-.59-1.68.52-3.76,2.89-5.5l.45.54c-2.15,1.54-3.19,3.35-2.67,4.69.37,1.07,1.71,1.68,3.56,1.74v.67h.07Z"/><path d="M691.12,549.98c-1.56-3.22-4.9-4.63-7.5-4.83-3.12-.27-6.09.74-9.06,1.68l-.52-1.27c2.97-.94,6.31-2.01,9.72-1.74,3.86.34,7.2,2.48,8.76,5.57l-1.34.54h0l-.07.07Z"/><path d="M644.88,549.85c-1.11-2.82-3.12-4.63-5.79-5.23-2.89-.67-6.16.27-8.98,2.62l-.97-1.01c3.19-2.62,6.98-3.69,10.39-2.95,3.12.74,5.57,2.88,6.83,6.1l-1.41.47h-.07Z"/><polygon class="cls-14" points="644.21 646.76 542.81 844 774.41 844 672.64 646.76 644.21 646.76"/><path d="M775,844.33h-232.78l.22-.47,101.47-197.44h28.95l102.14,197.91h0ZM543.41,843.66h230.41l-101.4-196.57h-27.98l-101.02,196.57h0Z"/><path class="cls-8" d="M673.38,746.55l-4.23,3.02c-1.26.87-2.97.6-3.86-.54l-9.28-12c-.89-1.21-.67-2.82.59-3.69l4.23-3.02c1.26-.87,2.97-.6,3.86.54l9.28,12c.89,1.21.67,2.82-.59,3.69Z"/><path d="M667.44,750.24h-.45c-.82-.13-1.48-.54-1.93-1.14l-9.28-12c-.97-1.21-.67-3.02.59-3.89l4.23-3.02c.59-.47,1.41-.6,2.15-.54.82.13,1.48.54,1.93,1.14l9.28,12c.97,1.21.67,3.02-.59,3.89l-4.23,3.02c-.52.34-1.11.54-1.71.54h0ZM662.47,729.92c-.52,0-1.04.13-1.48.47l-4.23,3.02c-1.11.8-1.41,2.35-.52,3.49l9.28,12c.45.54,1.04.87,1.71,1.01.67.07,1.34,0,1.86-.47l4.23-3.02c1.11-.8,1.41-2.35.52-3.49l-9.28-12c-.45-.54-1.04-.87-1.71-1.01h-.37Z"/><polyline class="cls-14" points="714.06 725.09 694.02 761.98 663.81 748.9 674.35 741.79 687.93 748.5 709.75 718.38"/><polygon points="694.17 762.45 663.06 748.97 674.35 741.39 687.86 748.03 709.46 718.18 710.05 718.59 688.08 748.97 674.42 742.19 664.55 748.83 693.79 761.51 713.69 724.96 714.36 725.22 694.17 762.45"/><path class="cls-8" d="M643.84,752.18l-3.93-3.49c-1.11-1.01-1.19-2.68-.15-3.69l10.54-11c1.04-1.07,2.75-1.14,3.86-.13l3.93,3.49c1.11,1.01,1.19,2.68.15,3.69l-10.54,11c-1.04,1.07-2.75,1.14-3.86.13Z"/><path d="M645.69,753.06c-.74,0-1.41-.27-2-.74l-3.93-3.49c-1.19-1.01-1.26-2.82-.15-3.96l10.54-11c.52-.54,1.26-.87,2.08-.94.82,0,1.56.2,2.08.74l3.93,3.49c1.19,1.01,1.26,2.82.15,3.96l-10.54,11c-.52.54-1.26.87-2.08.94h-.15.07ZM643.99,752.05c.52.47,1.19.67,1.86.67s1.34-.34,1.78-.8l10.54-11c.97-1.01.89-2.55-.15-3.49l-3.93-3.49c-.52-.47-1.19-.67-1.86-.67s-1.34.34-1.78.8l-10.54,11c-.97,1.01-.89,2.55.15,3.49l3.93,3.49h0Z"/><polyline class="cls-14" points="602.72 728.38 621.35 765.26 649.41 752.25 639.53 745.08 626.91 751.85 606.65 721.67"/><polygon points="621.12 765.73 602.34 728.58 603.09 728.24 621.5 764.79 648.66 752.18 639.53 745.48 626.84 752.25 606.35 721.87 607.02 721.54 627.06 751.38 639.61 744.67 650.07 752.25 621.12 765.73"/><polygon class="cls-8" points="643.17 631.74 672.86 631.74 684.66 667.88 632.04 667.88 643.17 631.74"/><path class="cls-14" d="M695.13,897.72l-7.5-.2-.3-8.72h.07c0,1.88-5.57,3.62-8.02,3.62s-6.83-1.81-6.9-3.62h0v17.91c0,1.54,1.34,2.82,2.97,2.82h22.57c1.34,0,2.38-1.07,2.38-2.28l-.15-4.63c-.07-2.62-2.3-4.76-5.05-4.83h0l-.07-.07Z"/><path d="M698.1,909.85h-22.57c-1.86,0-3.34-1.41-3.34-3.15v-17.91h.74c0,1.48,4.01,3.35,6.53,3.35s6.98-1.61,7.57-3.02v-.6h.82v.34c0,.13,0,.27-.07.4l.22,7.98,7.13.2c2.97.07,5.34,2.35,5.42,5.16l.15,4.63c0,.74-.3,1.41-.82,1.94-.52.47-1.19.74-1.93.74h0l.15-.07ZM672.94,890.27v16.36c0,1.41,1.19,2.48,2.6,2.48h22.57c.52,0,.97-.2,1.34-.54.37-.4.59-.87.59-1.41l-.15-4.63c-.07-2.48-2.15-4.43-4.75-4.49l-7.79-.2-.22-7.65c-1.71,1.54-5.79,2.62-7.65,2.62s-5.05-1.07-6.53-2.55h0Z"/><path class="cls-14" d="M623.57,899.86l8.09-.2.3-8.72h-.07c0,1.88,6.01,3.62,8.68,3.62s7.42-1.81,7.42-3.62h0v17.91c0,1.54-1.41,2.82-3.19,2.82h-24.42c-1.41,0-2.6-1.07-2.52-2.28l.15-4.63c.07-2.62,2.52-4.76,5.49-4.83h0l.07-.07Z"/><path d="M644.8,912h-24.42c-.82,0-1.56-.27-2.08-.8-.52-.54-.82-1.14-.82-1.88l.15-4.63c.07-2.82,2.67-5.1,5.86-5.16l7.72-.2.3-7.98c0-.13,0-.27-.07-.4v-.34h.82v.6c.67,1.41,5.72,3.02,8.24,3.02s7.05-1.81,7.05-3.35h.74v17.91c0,1.74-1.63,3.15-3.56,3.15h0l.07.07ZM623.57,900.2c-2.82,0-5.05,2.08-5.12,4.49l-.15,4.63c0,.54.22,1.01.59,1.34.37.4.96.6,1.56.6h24.42c1.56,0,2.82-1.14,2.82-2.48v-16.43c-1.56,1.48-5.05,2.55-7.05,2.55s-6.46-1.14-8.31-2.68l-.3,7.71-8.46.2h0v.07Z"/><path class="cls-18" d="M680.66,537.91c9.43,12,18.11,24.75,24.12,38.7,7.05,16.43-.52,21.39-13.95,32.39-5.05,4.16-18.33,10.06-20.64,15.83-1.71,4.29,10.91,52.51,13.88,52.78,19.82,1.88,39.79,3.02,59.75,3.35-17.74-17.44-19.67-44.13-20.56-68.47-.67-17.37-1.34-34.74-2-52.04-.74-18.98-1.78-39.17-12.99-54.86s-36.3-23.88-51.37-11.4c1.11,16.43,13.51,30.51,23.75,43.66h0v.07Z"/><path d="M744.64,681.36h-.89c-19.89-.34-40.01-1.48-59.75-3.42-.3,0-.59-.27-.89-.74-4.08-5.83-14.85-48.49-13.21-52.51,1.56-3.96,8.02-7.91,13.73-11.4,2.75-1.68,5.27-3.22,6.9-4.56.67-.6,1.41-1.14,2.08-1.68,12.32-9.99,18.41-15.02,11.88-30.38-5.2-12-12.62-23.94-24.12-38.63-.97-1.21-1.93-2.41-2.89-3.62-9.8-12.41-19.97-25.22-20.93-40.24v-.13l.15-.13c5.86-4.9,13.58-6.91,22.19-5.9,11.51,1.34,23.16,8.18,29.69,17.37,11.58,16.3,12.4,37.76,13.06,54.99l2,52.04c.97,26.29,3.34,51.3,20.49,68.2l.59.6h0l-.07.13ZM657.27,494.32c1.04,14.75,11.06,27.43,20.78,39.7.97,1.21,1.93,2.41,2.89,3.62,11.58,14.75,19,26.69,24.2,38.76,6.83,15.76.07,21.26-12.02,31.12-.67.54-1.34,1.07-2.08,1.68-1.71,1.41-4.31,2.95-7.05,4.63-5.64,3.42-12.02,7.31-13.51,11.07-1.56,3.89,10.76,51.37,13.58,52.31,19.45,1.88,39.27,3.02,58.79,3.35-16.85-17.03-19.08-41.92-20.12-68.07l-2-52.04c-.67-17.17-1.48-38.56-12.92-54.66-6.46-9.05-17.89-15.76-29.17-17.1-8.39-1.01-15.81.94-21.53,5.63h.15Z"/><path class="cls-18" d="M634.04,540.26c-9.8,12-18.85,24.75-25.09,38.7-7.35,16.43.59,21.39,14.55,32.39,5.27,4.16,19.08,10.06,21.45,15.83,1.78,4.29-11.36,52.51-14.4,52.78-20.64,1.88-41.35,3.02-62.13,3.35,18.41-17.44,20.41-44.13,21.38-68.47.67-17.37,1.34-34.74,2.08-52.04.74-18.98,1.86-39.17,13.51-54.86,11.65-15.69,37.78-23.88,53.44-11.4-1.11,16.43-14.03,30.51-24.72,43.66h0l-.07.07Z"/><path d="M567.46,683.71l.59-.6c17.81-16.9,20.26-41.92,21.3-68.2l2.08-52.04c.67-17.24,1.56-38.76,13.58-54.99,6.9-9.32,18.63-15.96,30.66-17.37,9.06-1.07,17.15.94,23.31,5.83l.15.13v.13c-1.04,15.02-11.58,27.83-21.82,40.24-1.04,1.21-2,2.41-2.97,3.62-11.95,14.69-19.67,26.62-25.09,38.63-6.83,15.36-.45,20.39,12.32,30.31.67.54,1.41,1.07,2.15,1.68,1.71,1.34,4.38,2.88,7.2,4.56,5.94,3.49,12.69,7.44,14.33,11.4,1.63,4.02-9.35,46.14-13.73,52.44-.37.54-.67.8-1.04.8-20.56,1.88-41.49,3.02-62.13,3.35h-.89v.07ZM640.35,490.83c-1.48,0-2.97.07-4.53.27-11.8,1.41-23.38,7.91-30.14,17.1-11.95,16.1-12.77,37.49-13.44,54.66l-2.08,52.04c-1.04,26.16-3.41,51.04-20.93,68.07,20.34-.34,40.97-1.48,61.16-3.35,0,0,.3-.13.97-1.27,4.53-8.45,14.62-47.55,13.14-51.04-1.56-3.76-8.17-7.65-14.03-11.07-2.82-1.68-5.57-3.22-7.27-4.63-.74-.54-1.41-1.14-2.15-1.68-12.62-9.86-19.6-15.29-12.54-31.12,5.42-12.07,13.14-24.01,25.16-38.76l.3.2-.3-.2c.97-1.21,2-2.41,2.97-3.62,10.1-12.27,20.56-24.95,21.67-39.7-4.97-3.89-11.13-5.9-18.04-5.9h.07Z"/><path class="cls-15" d="M651.41,607.79c1.34-5.83,7.2-7.85,10.24-4.09,2.67,3.29,2.82,10.26.45,14.15-1.48,2.41-4.23,4.02-6.9,2.41-3.27-2.01-4.82-8.11-3.86-12.47h.07Z"/><path d="M657.42,621.54c-.89,0-1.78-.27-2.67-.8-3.71-2.28-5.12-8.79-4.16-13.14h0c.74-3.35,3.12-5.83,5.94-6.44,2.15-.4,4.23.34,5.64,2.08,2.75,3.42,3.04,10.73.52,14.82-1.04,1.74-2.67,2.95-4.31,3.29-.37.07-.67.13-1.04.13h0l.07.07ZM652.15,607.93h0c-.97,4.29.74,9.99,3.49,11.74.82.47,1.63.67,2.45.47,1.26-.27,2.45-1.27,3.34-2.62,2.23-3.62,2-10.4-.37-13.41-1.04-1.34-2.52-1.88-4.16-1.54-2.3.47-4.16,2.55-4.82,5.37h.07Z"/><path class="cls-13" d="M793.01,424.94c2.67,12.03,5.34,24.06,8.02,36.09.92-.51,2.04-.75,3.36-.61,9.39,1.03,18.38,7.43,18.11,18.22-.07,2.64-.69,5.06-1.72,7.22-.1.59-.23,1.16-.39,1.73-1.3,4.47-4.65,8.2-8.68,9.15-.85.42-1.69.71-2.55.85,3.46,15.56,6.91,31.12,10.37,46.67l102.67-16.59c-1.04-3.26-1.17-6.71.15-10.11,1.84-4.72,5.93-7.89,10.47-9.44,1.26-.64,2.66-1.16,4.23-1.54,5.52-1.32,11.63.07,16.26,3.78,3.68,2.95,5.89,6.85,7.14,11.13,49.88-8.06,99.76-16.12,149.64-24.17l-21.66-119.63-295.41,47.23Z"/><path d="M817.54,547l-11.4-51.31,2.56-.43c.59-.1,1.18-.3,1.8-.61l.27-.14.3-.07c3.01-.71,5.77-3.71,6.86-7.47.12-.43.23-.92.34-1.49l.05-.3.13-.28c.94-1.97,1.45-4.1,1.5-6.31.24-9.64-8.06-14.95-15.87-15.81-.69-.07-1.28.02-1.78.3l-3.04,1.67-9.27-41.74,300.49-48.05,22.51,124.3-154.4,24.94-.61-2.08c-1.23-4.22-3.36-7.57-6.34-9.95-3.99-3.2-9.22-4.42-13.99-3.28-1.3.31-2.53.76-3.65,1.33l-.34.14c-2.51.86-7.01,3.03-8.96,8.02-1.04,2.67-1.08,5.57-.1,8.61l.82,2.57-107.9,17.43ZM812.09,499.21l9.4,42.34,97.63-15.77c-.55-3.12-.27-6.14.85-9.01,1.92-4.91,6.21-8.84,11.81-10.8,1.44-.71,3-1.28,4.64-1.67,6.36-1.52,13.29.08,18.53,4.27,3.25,2.6,5.68,6.04,7.25,10.24l144.97-23.42-20.82-114.95-290.32,46.42,6.92,31.17c.56-.05,1.14-.04,1.73.03,10.02,1.1,20.66,8.03,20.34,20.64-.07,2.74-.68,5.38-1.81,7.85-.12.61-.24,1.16-.39,1.66-1.55,5.33-5.53,9.52-10.2,10.75-.17.08-.35.16-.53.23Z"/><path class="cls-7" d="M793.01,424.94l202.39-125.16c-10.79-1.29,92.41-4,93.01,77.93"/><path d="M794.41,426.92l-2.79-3.96,200.55-124.02c.52-2.11,3.32-2.01,6.8-1.88,4.75.17,29.63,1.64,52.62,14.28,25.9,14.23,39.14,36.56,39.36,66.36l-5.06.03c-.17-23.21-8.81-41.7-25.68-54.95-23.15-18.18-55.17-21.02-63.21-21.02-.06,0-.12,0-.18,0h-.01s-202.39,125.17-202.39,125.17Z"/><path class="cls-12" d="M841.59,446.03c4.96-11.44,23.63-16.08,32.94-9.05,8,6.04,7.66,19.65-.28,27.38-5.02,4.88-13.97,8.29-22.07,5.43-10.07-3.56-14.29-15.21-10.59-23.75Z"/><path d="M858.38,472.01c-2.21,0-4.45-.34-6.65-1.12-4.81-1.7-8.67-5.24-10.87-9.96-2.3-4.94-2.47-10.68-.44-15.35h0c2.53-5.84,8.62-10.44,16.27-12.3,7.09-1.72,14.05-.68,18.63,2.77,3.69,2.79,5.92,7.16,6.27,12.3.42,6.21-1.99,12.5-6.43,16.82-3.82,3.71-10.12,6.83-16.77,6.83ZM842.76,446.48h0c-1.77,4.09-1.62,9.14.42,13.51,1.92,4.13,5.28,7.21,9.44,8.69,7.78,2.75,16.19-.74,20.71-5.14,3.96-3.85,6.1-9.47,5.73-15.02-.3-4.47-2.19-8.24-5.33-10.6-3.96-2.99-10.09-3.86-16.41-2.32-6.88,1.67-12.33,5.75-14.56,10.9Z"/><path class="cls-12" d="M1034.31,408.8c3.61-10.19,18.04-13.98,25.44-7.48,6.37,5.59,6.4,17.82.4,24.61-3.8,4.29-10.69,7.17-17.06,4.44-7.92-3.4-11.47-13.96-8.78-21.56Z"/><path d="M1048.29,433.21c-1.97,0-3.99-.38-6-1.24-7.47-3.21-13.32-13.75-9.79-23.74h0c1.98-5.59,6.98-9.84,13.39-11.36,5.7-1.36,11.36-.19,15.15,3.14,6.95,6.11,7.23,19.5.56,27.04-2.98,3.37-7.95,6.15-13.31,6.15ZM1050.53,399.88c-1.21,0-2.45.15-3.7.44-5.07,1.21-9.18,4.67-10.72,9.03h0c-2.82,7.97,1.77,16.81,7.76,19.38,5.63,2.42,11.62-.35,14.81-3.96,5.42-6.12,5.3-17.31-.23-22.17-2.03-1.79-4.85-2.73-7.91-2.73Z"/><path class="cls-12" d="M999.29,477.7c4.96-11.44,23.63-16.08,32.94-9.05,8,6.04,7.66,19.65-.28,27.38-5.02,4.88-13.97,8.29-22.07,5.43-10.07-3.56-14.29-15.21-10.59-23.75Z"/><path d="M1016.07,504.27c-2.28,0-4.59-.35-6.87-1.16-4.97-1.76-8.96-5.41-11.22-10.27-2.37-5.09-2.54-11-.45-15.81h0c2.61-6.02,8.85-10.74,16.7-12.65,7.28-1.77,14.45-.69,19.18,2.88,3.83,2.9,6.14,7.42,6.5,12.73.43,6.37-2.04,12.83-6.6,17.27-3.92,3.81-10.4,7.01-17.24,7.01ZM1001.05,478.37h0c-1.71,3.94-1.56,8.82.41,13.04,1.85,3.98,5.08,6.95,9.09,8.37,7.51,2.65,15.65-.73,20.03-5,3.84-3.73,5.91-9.18,5.55-14.57-.29-4.3-2.1-7.92-5.09-10.18-3.8-2.87-9.73-3.69-15.85-2.21-6.69,1.62-11.97,5.57-14.13,10.55Z"/><g class="cls-3"><path class="cls-9" d="M918.9,452.56c3.78.83,6.36,3.3,7.75,7.39,1.01,2.97,1.09,7.05.26,12.23-.92,5.78-2.75,9.03-5.5,9.76-.54.14-1.22.04-2.04-.3-.82-.34-1.64-.67-2.44-1l2.85,8.41c.14.43.39.9.75,1.42.5.73.84,1.23,1,1.51.17.28.22.85.17,1.71-.06.86-.37,1.4-.95,1.63-.58.22-2.02.16-4.33-.2-2.42-.37-4-.85-4.75-1.44-.46-.38-.69-1.08-.7-2.08,0-.75-.07-1.33-.2-1.73l-10.35-30.59c-.07-.2-.31-.53-.72-1-.41-.46-.64-.82-.69-1.06-.34-1.64,0-2.59,1-2.85.17-.04.91-.03,2.23.03,1.31.06,2.33.02,3.04-.13,1.02-.23,2.21-.84,3.57-1.81,1.37-.97,2.4-1.55,3.1-1.74.4-.11.82-.16,1.25-.17.84,0,1.81.28,2.91.85,1.32.66,2.25,1.04,2.79,1.15ZM916.03,457.47c-.77.2-1.7.9-2.79,2.09-1.09,1.19-1.84,2.37-2.24,3.56l4.04,11.93c1.62-1.04,2.64-3.52,3.06-7.44.4-3.56.22-6.44-.52-8.65-.39-1.16-.9-1.65-1.54-1.48Z"/><path class="cls-9" d="M960.22,476.14c.12,1.66-.19,2.77-.95,3.33-.23.17-.59.28-1.06.33-.47.05-.79.16-.96.31l-6.39,5.03c-.2.16-.35.51-.44,1.03-.09.53-.25.86-.46.98-.65.46-2.29.62-4.92.49-2.63-.13-4.31-.46-5.03-.99-.55-.43-.94-1.22-1.19-2.38-.11-.54-.22-.97-.32-1.26l-11.26-33.26c-.18-.31-.41-.56-.69-.73-.28-.18-.45-.35-.5-.51-.15-.64.28-1.26,1.29-1.85.65-.35,2.25-.51,4.82-.47,2.9.06,4.54.6,4.92,1.61.09.27.04.71-.15,1.33-.19.63-.24,1.07-.15,1.33l9.26,27.37,4.46-3.61c.21-.34.68-.79,1.4-1.34.45-.19,1.94.18,4.47,1.11s3.82,1.64,3.84,2.14Z"/><path class="cls-9" d="M994.31,471.22c.07.31.24,1.03.52,2.18.17.6.18,1.08.05,1.44-.13.14-.4.27-.8.37-1.1.29-2.57.37-4.4.25-1.95-.06-3.37-.37-4.25-.93-.37-.22-.97-1.14-1.81-2.76-1.12-2.11-2.15-3.83-3.11-5.16-1.22.5-2.92,1.45-5.11,2.83-2.19,1.39-3.57,2.43-4.14,3.12-.02,1.55-.1,3.48-.23,5.78.06.49.1.96.12,1.4.02.44-.16.86-.53,1.25-.08.09-.22.16-.42.22-.8.21-2.29.16-4.46-.17-2.17-.33-3.33-.61-3.49-.86-.29-.43-.36-1.65-.2-3.67.18-2.92.25-4.7.21-5.34-.94-.51-1.52-1.11-1.76-1.8-.06-.16-.1-.35-.13-.56-.07-.41.71-1.39,2.34-2.94l-.92-23.54c-.03-.42-.26-1.15-.69-2.19-.37-.87-.46-1.46-.27-1.76.11-.21.48-.4,1.12-.57,1.57-.42,3.95-.61,7.12-.59s5.16.27,5.94.75c1.44,3.61,4.05,8.9,7.84,15.88,4.73,8.6,8.55,14.39,11.45,17.36ZM976.12,459.63c-1.14-1.97-1.87-3.26-2.19-3.9-1.12-2.11-2.14-4.34-3.08-6.68-.12,1.8-.15,4.25-.08,7.36.05,3.26.16,5.28.36,6.05.55-.43,2.21-1.37,5-2.83Z"/><path class="cls-9" d="M1011.78,429c.78,1.66.75,2.86-.1,3.59-.48.41-.7.62-.67.61-.95,3.45-1.76,9.29-2.43,17.52-.61,7.78-.74,12.4-.39,13.86.06.27.28.72.67,1.33.39.62.64,1.14.75,1.58.56,2.3.4,3.65-.48,4.06-.45.19-1.69.25-3.74.18-2.05-.07-3.45-.22-4.22-.45-1.4-.49-2.24-1.13-2.51-1.92-.13-.4-.17-.87-.1-1.43.03-1.41.13-4.31.28-8.7-4.69-4.91-7.88-8.3-9.57-10.19-3.39-3.78-5.95-6.93-7.68-9.45-.12-.15-.4-.34-.83-.59-.43-.25-.69-.5-.78-.76-.17-.49.23-1.41,1.2-2.75,2.06-2.84,3.63-4.34,4.71-4.48.56-.07,1.16.14,1.81.65.53.4.9.79,1.1,1.16.21.63.65,1.61,1.32,2.94,2.15,3.89,5.26,7.9,9.32,12.04.34-5.02.55-7.79.63-8.31.32-3.14.87-6.15,1.65-9.01-.05-.56-.04-1.3.02-2.22.41-.94,1.21-1.49,2.39-1.66.84-.11,2.26.14,4.27.76,2.01.62,3.14,1.16,3.37,1.64Z"/></g><path class="cls-10" d="M910.05,440.69c3.78.83,6.36,3.3,7.75,7.39,1.01,2.97,1.09,7.05.26,12.23-.92,5.78-2.75,9.03-5.5,9.76-.54.14-1.22.04-2.04-.3-.82-.34-1.64-.67-2.44-1l2.85,8.41c.14.43.39.9.75,1.42.5.73.84,1.23,1,1.51.17.28.22.85.17,1.71-.06.86-.37,1.4-.95,1.63-.58.22-2.02.16-4.33-.2-2.42-.37-4-.85-4.75-1.44-.46-.38-.69-1.08-.7-2.08,0-.75-.07-1.33-.2-1.73l-10.35-30.59c-.07-.2-.31-.53-.72-1-.41-.46-.64-.82-.69-1.06-.34-1.64,0-2.59,1-2.85.17-.04.91-.03,2.23.03,1.31.06,2.33.02,3.04-.13,1.02-.23,2.21-.84,3.57-1.81,1.37-.97,2.4-1.55,3.1-1.74.4-.11.82-.16,1.25-.17.84,0,1.81.28,2.91.85,1.32.66,2.25,1.04,2.79,1.15ZM907.17,445.61c-.77.2-1.7.9-2.79,2.09-1.09,1.19-1.84,2.37-2.24,3.56l4.04,11.93c1.62-1.04,2.64-3.52,3.06-7.44.4-3.56.22-6.44-.52-8.65-.39-1.16-.9-1.65-1.54-1.48Z"/><path class="cls-10" d="M951.37,464.27c.12,1.66-.19,2.77-.95,3.33-.23.17-.59.28-1.06.33-.47.05-.79.16-.96.31l-6.39,5.03c-.2.16-.35.51-.44,1.03-.09.53-.25.86-.46.98-.65.46-2.29.62-4.92.49-2.63-.13-4.31-.46-5.03-.99-.55-.43-.94-1.22-1.19-2.38-.11-.54-.22-.97-.32-1.26l-11.26-33.26c-.18-.31-.41-.56-.69-.73-.28-.18-.45-.35-.5-.51-.15-.64.28-1.26,1.29-1.85.65-.35,2.25-.51,4.82-.47,2.9.06,4.54.6,4.92,1.61.09.27.04.71-.15,1.33-.19.63-.24,1.07-.15,1.33l9.26,27.37,4.46-3.61c.21-.34.68-.79,1.4-1.34.45-.19,1.94.18,4.47,1.11s3.82,1.64,3.84,2.14Z"/><path class="cls-10" d="M985.45,459.35c.07.31.24,1.03.52,2.18.17.6.18,1.08.05,1.44-.13.14-.4.27-.8.37-1.1.29-2.57.37-4.4.25-1.95-.06-3.37-.37-4.25-.93-.37-.22-.97-1.14-1.81-2.76-1.12-2.11-2.15-3.83-3.11-5.16-1.22.5-2.92,1.45-5.11,2.83-2.19,1.39-3.57,2.43-4.14,3.12-.02,1.55-.1,3.48-.23,5.78.06.49.1.96.12,1.4.02.44-.16.86-.53,1.25-.08.09-.22.16-.42.22-.8.21-2.29.16-4.46-.17-2.17-.33-3.33-.61-3.49-.86-.29-.43-.36-1.65-.2-3.67.18-2.92.25-4.7.21-5.34-.94-.51-1.52-1.11-1.76-1.8-.06-.16-.1-.35-.13-.56-.07-.41.71-1.39,2.34-2.94l-.92-23.54c-.03-.42-.26-1.15-.69-2.19-.37-.87-.46-1.46-.27-1.76.11-.21.48-.4,1.12-.57,1.57-.42,3.95-.61,7.12-.59s5.16.27,5.94.75c1.44,3.61,4.05,8.9,7.84,15.88,4.73,8.6,8.55,14.39,11.45,17.36ZM967.26,447.77c-1.14-1.97-1.87-3.26-2.19-3.9-1.12-2.11-2.14-4.34-3.08-6.68-.12,1.8-.15,4.25-.08,7.36.05,3.26.16,5.28.36,6.05.55-.43,2.21-1.37,5-2.83Z"/><path class="cls-10" d="M1002.92,417.14c.78,1.66.75,2.86-.1,3.59-.48.41-.7.62-.67.61-.95,3.45-1.76,9.29-2.43,17.52-.61,7.78-.74,12.4-.39,13.86.06.27.28.72.67,1.33.39.62.64,1.14.75,1.58.56,2.3.4,3.65-.48,4.06-.45.19-1.69.25-3.74.18-2.05-.07-3.45-.22-4.22-.45-1.4-.49-2.24-1.13-2.51-1.92-.13-.4-.17-.87-.1-1.43.03-1.41.13-4.31.28-8.7-4.69-4.91-7.88-8.3-9.57-10.19-3.39-3.78-5.95-6.93-7.68-9.45-.12-.15-.4-.34-.83-.59-.43-.25-.69-.5-.78-.76-.17-.49.23-1.41,1.2-2.75,2.06-2.84,3.63-4.34,4.71-4.48.56-.07,1.16.14,1.81.65.53.4.9.79,1.1,1.16.21.63.65,1.61,1.32,2.94,2.15,3.89,5.26,7.9,9.32,12.04.34-5.02.55-7.79.63-8.31.32-3.14.87-6.15,1.65-9.01-.05-.56-.04-1.3.02-2.22.41-.94,1.21-1.49,2.39-1.66.84-.11,2.26.14,4.27.76,2.01.62,3.14,1.16,3.37,1.64Z"/><path class="cls-10" d="M1133.06,733.48c-.02.26-.28.57-.77.94s-.85.56-1.07.56c-.31,0-.49,0-.56.03v6.9c0-.05.11.28.33,1.01.2,1.17.03,1.85-.49,2.05-.11.04-.27.05-.49.05-.77,0-1.75-.23-2.96-.68-1.29-.48-2.08-.95-2.37-1.42-.02-.16-.05-.41-.1-.74-.04-.13.03-.3.23-.52.2-.22.3-.36.3-.41v-5.53c-.42.04-1.24.17-2.47.41s-2.04.42-2.43.55v5.56c0,.13.07.28.21.45s.22.31.25.4c-.09.29-.17.58-.23.85-.07.2-.19.33-.36.38-.35.11-1.33-.06-2.94-.51-1.61-.45-2.46-.81-2.55-1.08-.07-.2-.09-.42-.07-.66.07-.36.1-.62.1-.77v-17.52c0-.29.1-.79.3-1.5.04-.18.42-.44,1.12-.77.04-.02.17-.03.36-.03.81,0,1.67.11,2.56.33,1.16.29,1.78.68,1.84,1.15.02.17-.07.48-.28.93-.21.46-.31.77-.31.93v6.68c1.49-.31,3.12-.63,4.9-.96v-7.64s-.05-.17-.15-.41-.13-.43-.08-.58c.11-.33.47-.54,1.08-.63.46-.05.92-.1,1.38-.14.48-.05,1.19.06,2.12.36.93.29,1.45.6,1.56.93.04.15,0,.34-.13.58-.15.31-.23.57-.23.77v7.56c.11.11.62.5,1.55,1.18.59.44.88.76.85.96Z"/><path class="cls-10" d="M1141.02,729.18c.07.07.1.16.1.27,0,.15-.13.42-.38.82-.25.4-.38.7-.38.9v13.39s.01.14.03.36v.6c0,1.71-.57,2.86-1.71,3.45-.31.16-.84.25-1.61.25-1.6,0-3.08-.18-4.44-.55-.64-.16-1.45-.55-2.43-1.15-1.14-.69-1.71-1.25-1.71-1.67,0-.26.21-.49.62-.71.07-.04.22-.05.46-.05,1.32,0,2.41.18,3.29.55.22.22.42.44.59.66.35.35.82.52,1.41.52.31,0,.46-1.12.46-3.37v-13.91c-.26-.69-.4-1.16-.4-1.4s.41-.36,1.22-.36c.68,0,1.6.17,2.76.51,1.16.34,1.86.63,2.1.89ZM1141.25,724.55c.07.13.1.32.1.58,0,.46-.09.92-.26,1.4-.2.53-.44.85-.72.96-.22.07-1.16-.12-2.81-.59-1.66-.47-2.55-.8-2.68-1-.07-.09-.1-.23-.1-.41,0-.49.15-1.01.46-1.56.35-.62.75-.97,1.18-1.04.5-.07,1.39.09,2.65.48,1.26.39,1.99.79,2.19,1.19Z"/><path class="cls-10" d="M1166.14,739.22c.2.27-.23,1.09-1.28,2.44-1.14,1.44-2.26,2.42-3.35,2.93-.13.05-.33.08-.59.08-.86,0-1.97-.22-3.35-.66-1.47-.44-2.43-.91-2.89-1.42-.66-.71-1.15-1.61-1.48-2.68-.77.95-1.52,1.91-2.27,2.87-1.16,1.33-2.32,2-3.49,2-.53,0-1.04-.17-1.55-.52-.24-.16-.67-.52-1.28-1.07-1.05-.99-1.62-1.52-1.71-1.61-.46-.51-.69-1-.69-1.45,0-.15.02-.29.07-.44.42-1.61,1.71-3.13,3.88-4.57,1.58-1.04,3.82-2.14,6.71-3.31,0-.58-.18-.96-.53-1.12-.22-.11-.99.1-2.3.62-1.32.52-2.24.96-2.76,1.33-.18.15-.46.35-.85.6-.37.18-.71.24-1.02.16-.24-.05-.76-.38-1.55-.99-.79-.6-1.22-1-1.28-1.21-.18-.49.01-.88.56-1.15.02-.02.46-.13,1.32-.33.81-.37,1.62-.73,2.43-1.09,1.71-.68,3.16-1.04,4.34-1.1.5-.02,1.07.2,1.71.66.57.42,1.13.85,1.68,1.29.13.09.32.21.56.36,1.1-1.26,2.39-1.91,3.88-1.94.66-.02,1.47.13,2.43.44,1.21.38,2.19.9,2.96,1.56.17.16.36.66.56,1.48.22.88.33,1.73.33,2.57,0,1.24-.24,2.1-.72,2.57-2.28.6-4.58.94-6.91,1.01-.07.89.06,1.83.38,2.82.32.99.64,1.49.97,1.51.42.02.94-.28,1.58-.9.55-.53.89-.98,1.02-1.34.15-.55.36-1.11.62-1.7.33-.04,1.01.11,2.06.44,1.04.33,1.65.62,1.83.88ZM1152.53,735.42c-1.07.35-2,.88-2.76,1.59-.57.58-1.14,1.16-1.71,1.72-.46.38-.89.88-1.3,1.49s-.61,1.06-.61,1.36c0,.15.07.22.2.22.46,0,1.49-.83,3.09-2.48,1.6-1.65,2.63-2.95,3.09-3.9ZM1160.29,730.85c-.39-.04-.92.46-1.58,1.48-.66,1.02-1.04,2-1.15,2.93.99-.04,1.78-.24,2.37-.6.35-.22.53-1.13.53-2.74,0-.67-.05-1.03-.16-1.07Z"/><path class="cls-10" d="M1173.38,722.72c0,.13-.05.3-.15.52s-.16.36-.18.41c-.13.37-.26.93-.39,1.7v16.81c0,.22.07.42.2.59s.2.31.2.42c0,1.17-.26,1.8-.79,1.89-.2.04-.89-.09-2.09-.37-1.2-.28-1.91-.51-2.15-.67-.48-.35-.72-.67-.72-.96,0-.07.04-.15.13-.25.09-.09.13-.25.13-.47v-19.3c0-.11-.04-.22-.12-.34-.08-.12-.11-.23-.11-.34.04-.44.45-.73,1.22-.88.22-.04.68-.04,1.38,0,.81.05,1.51.16,2.1.3.9.22,1.35.53,1.35.93Z"/><path class="cls-10" d="M1184.36,744.37c-.22.09-.43.14-.62.14-.57,0-1.52-.56-2.86-1.67v5.28c.02.15.12.41.3.78.17.37.26.65.26.83,0,.38-.31.58-.92.58-.55,0-1.35-.13-2.4-.38-.64-.17-1.27-.34-1.91-.52-.55-.13-.87-.41-.95-.85-.04-.18.04-.54.25-1.07.21-.53.31-.83.31-.9v-17.82c0-.6-.05-.99-.16-1.15-.33-.46-.43-.78-.3-.96.09-.15.37-.22.86-.22s1.26.08,2.27.25c1.16.2,1.79.3,1.88.3.37.04.66.26.85.66.02.05.03.18.03.38,0,.75-.13,1.86-.39,3.34.53-.88,1.05-1.74,1.58-2.6.7-1.11,1.35-1.62,1.94-1.53,4.3.75,6.45,2.97,6.45,6.68,0,2.1-.67,4.21-2.02,6.34-1.35,2.13-2.82,3.5-4.42,4.12ZM1183.64,731.64c-.79-.07-1.68,3.22-2.66,9.88,1.23-.46,2.34-1.46,3.34-3.01,1-1.55,1.5-2.99,1.5-4.32,0-1.55-.72-2.4-2.17-2.55Z"/><path class="cls-10" d="M1215.64,740.1c0,1.35-.54,2.46-1.61,3.33-1.08.87-2.57,1.32-4.47,1.35-.48,0-1-.06-1.55-.19-1.01-.24-1.54-.36-1.58-.36-.53-.09-1.06-.19-1.6-.29s-1-.31-1.4-.62c-.59-.44-1.07-1.15-1.45-2.13-.46-1.15-.81-1.87-1.05-2.16-.18-.15-.38-.4-.62-.77-.07-.27,0-.54.18-.81s.41-.43.67-.51c.13-.04.37-.05.72-.05.77,0,1.71.08,2.81.23,1.11.16,1.73.3,1.86.42.13.13.31.79.53,1.97.2,1.1.49,1.71.89,1.83.09.04.19.05.3.05.42,0,.77-.29,1.07-.86.3-.57.44-1.23.44-1.96,0-1.59-.59-2.65-1.78-3.17-2.72-1.22-4.63-2.35-5.72-3.39-1.27-1.2-1.84-2.63-1.71-4.27.11-1.37.71-2.75,1.79-4.15,1.08-1.4,2.23-2.21,3.44-2.45.5-.09,2.04.31,4.6,1.21.64.2,1.28.41,1.92.63.65.22,1.17.54,1.56.96.61.64.92,1.74.92,3.31,0,.29-.01.72-.03,1.29-.02.49-.03.84-.03,1.04.02.13.1.34.23.63.11.2.15.4.13.6-.04.8-.45,1.25-1.22,1.34-.44.05-1.25-.08-2.43-.41-1.32-.35-2.15-.72-2.5-1.12-.04-.05-.07-.24-.07-.55,0-.27.04-.89.12-1.86.08-.97.12-1.67.12-2.11,0-.78-.11-1.17-.33-1.15-.68.04-1.24.44-1.69,1.22-.45.78-.67,1.66-.67,2.64,0,1.64.58,2.81,1.74,3.5l3.95,2.08c1.25.67,2.12,1.35,2.6,2.03.61.88.92,2.1.92,3.67Z"/><path class="cls-10" d="M1233.3,728.38c.15.18.23.37.23.55s-.13.4-.38.66-.38.42-.38.49v12.73c0,.11.07.3.21.58.14.27.21.47.21.6,0,.33-.34.57-1.02.71-.35.07-1.17-.03-2.47-.3-1.4-.29-2.17-.58-2.3-.88-.11-.24-.08-.56.1-.96.22-.47.33-.8.33-.99s-.03-.42-.1-.71c-.33.91-.79,1.72-1.38,2.44-.72.84-1.45,1.26-2.17,1.26s-1.71-.21-2.89-.63-1.86-.8-2.04-1.15c-.61-1.17-.92-5.48-.92-12.95-.18-.35-.26-.69-.26-1.04,0-.57.25-.95.76-1.15.15-.06.43-.08.82-.08.75,0,1.63.1,2.66.29,1.03.19,1.66.39,1.87.59.11.11.17.23.17.36,0,.2-.17.52-.49.97-.33.45-.49.77-.49.97-.04,7.19.02,10.81.2,10.87.31.09,1.08-.75,2.32-2.53,1.24-1.78,1.86-3.13,1.86-4.07v-5.12c-.29-.24-.43-.53-.43-.88,0-.71.37-1.2,1.12-1.45.09-.04.22-.05.39-.05.59,0,1.46.11,2.6.34s1.76.41,1.88.53Z"/><path class="cls-10" d="M1247.87,741.3c0,1-.4,1.81-1.2,2.41-.8.6-1.92.91-3.37.93-.35,0-.74-.05-1.15-.14-.75-.16-1.14-.26-1.18-.27-.39-.07-.79-.15-1.2-.23-.41-.08-.75-.22-1.04-.42-.48-.37-.95-.87-1.41-1.51-.37-.51-.73-1.03-1.08-1.56-.35-.53-.53-.85-.53-.96,0-.25.22-.45.66-.57.11-.04.31-.05.59-.05.66,0,1.48.06,2.48.18,1,.12,1.54.22,1.63.3.09.08.21.61.36,1.57.13.84.36,1.26.69,1.26.5,0,.76-.57.76-1.7,0-1.44-.46-2.34-1.38-2.71-2.1-.82-3.49-1.55-4.14-2.19-.81-.78-1.22-1.97-1.22-3.56,0-1.04.33-2.02.99-2.94.66-.92,1.44-1.47,2.33-1.66.39-.07,1.67.27,3.81,1.04.2.06.78.16,1.74.3.68.11,1.16.3,1.45.57.42.42.66,1.09.72,2,.02.67.03,1.35.03,2.03.15.62.23.99.23,1.09,0,.51-.3.8-.89.88-.31.04-.91-.06-1.81-.3-.99-.27-1.61-.56-1.88-.85-.07-.07-.13-.76-.2-2.05-.07-1.22-.22-1.83-.46-1.83-.33,0-.64.36-.92,1.07-.29.71-.43,1.45-.43,2.22,0,.97.25,1.58.76,1.83,1.07.49,2.14.99,3.21,1.49s1.8,1.02,2.22,1.55c.55.69.82,1.62.82,2.79Z"/><path class="cls-10" d="M1265.99,743.41c-.02.25-.15.47-.39.66s-.51.26-.82.22c-2.72-.31-4.23-.74-4.54-1.29-.04-.07-.07-.15-.07-.22,0-.09.05-.19.15-.3.1-.11.16-.21.18-.29.02-.08.07-.16.13-.23.04-.15.05-.47.03-.96-.26.16-.66.6-1.18,1.31-.55.79-1.03,1.33-1.45,1.64-.7.55-1.5.82-2.4.82-.53,0-1.04-.17-1.55-.52-.24-.16-.67-.52-1.28-1.07-1.05-.99-1.62-1.52-1.71-1.61-.46-.51-.69-1-.69-1.45,0-.15.02-.29.07-.44.42-1.61,1.71-3.13,3.88-4.57,1.58-1.04,3.82-2.14,6.71-3.31,0-.58-.18-.96-.53-1.12-.22-.11-.99.1-2.3.62-1.32.52-2.24.96-2.76,1.33-.18.15-.46.35-.85.6-.37.18-.71.24-1.02.16-.24-.05-.76-.38-1.55-.99-.79-.6-1.22-1-1.28-1.21-.18-.49.01-.88.56-1.15.02-.02.46-.13,1.32-.33.81-.37,1.62-.73,2.43-1.09,1.71-.68,3.16-1.04,4.34-1.1.5-.02,1.07.2,1.71.66.57.42,1.15.83,1.73,1.25.58.41,1.18.81,1.79,1.19.7.51,1.05,1,1.05,1.48v10.35c.22.47.32.79.3.96ZM1260.72,735.42c-1.07.35-2,.88-2.76,1.59-.57.58-1.14,1.16-1.71,1.72-.46.38-.89.88-1.3,1.49s-.61,1.06-.61,1.36c0,.15.07.22.2.22.46,0,1.49-.83,3.09-2.48,1.6-1.65,2.63-2.95,3.09-3.9Z"/><path class="cls-10" d="M1284.14,742.26c.17.35.26.69.26,1.04,0,.55-.25.92-.76,1.12-.15.05-.43.08-.82.08-.75,0-1.63-.1-2.66-.29-1.03-.19-1.66-.38-1.87-.56-.11-.11-.17-.23-.17-.36,0-.2.17-.52.49-.97.33-.45.49-.77.49-.97.04-7.19-.02-10.81-.2-10.87-.31-.09-1.06.73-2.27,2.46-1.27,1.83-1.91,3.2-1.91,4.13v5.12c.28.24.43.53.43.88,0,.69-.37,1.17-1.12,1.42-.09.04-.22.05-.39.05-.59,0-1.46-.11-2.6-.34-1.14-.23-1.78-.41-1.91-.56s-.2-.31-.2-.49.13-.4.38-.66c.25-.26.38-.42.38-.49v-12.73c0-.15-.09-.34-.26-.57-.18-.24-.23-.44-.16-.6.13-.38.47-.63,1.02-.74.35-.07,1.17.03,2.47.3,1.4.29,2.17.59,2.3.9.09.2.05.5-.1.9-.24.64-.36,1-.36,1.1,0,.2.04.42.13.66.33-.91.79-1.72,1.38-2.44.72-.86,1.45-1.29,2.17-1.29s1.71.21,2.89.64,1.86.82,2.04,1.16c.61,1.17.92,5.48.92,12.95Z"/><path class="cls-10" d="M1302.62,742.26c.17.35.26.69.26,1.04,0,.55-.25.92-.76,1.12-.15.05-.43.08-.82.08-.75,0-1.63-.1-2.66-.29-1.03-.19-1.66-.38-1.87-.56-.11-.11-.17-.23-.17-.36,0-.2.17-.52.49-.97.33-.45.49-.77.49-.97.04-7.19-.02-10.81-.2-10.87-.31-.09-1.06.73-2.27,2.46-1.27,1.83-1.91,3.2-1.91,4.13v5.12c.28.24.43.53.43.88,0,.69-.37,1.17-1.12,1.42-.09.04-.22.05-.39.05-.59,0-1.46-.11-2.6-.34-1.14-.23-1.78-.41-1.91-.56s-.2-.31-.2-.49.13-.4.38-.66c.25-.26.38-.42.38-.49v-12.73c0-.15-.09-.34-.26-.57-.18-.24-.23-.44-.16-.6.13-.38.47-.63,1.02-.74.35-.07,1.17.03,2.47.3,1.4.29,2.17.59,2.3.9.09.2.05.5-.1.9-.24.64-.36,1-.36,1.1,0,.2.04.42.13.66.33-.91.79-1.72,1.38-2.44.72-.86,1.45-1.29,2.17-1.29s1.71.21,2.89.64,1.86.82,2.04,1.16c.61,1.17.92,5.48.92,12.95Z"/><path class="cls-10" d="M1318.93,739.22c.2.27-.23,1.09-1.28,2.44-1.14,1.44-2.26,2.42-3.35,2.93-.13.05-.33.08-.59.08-.85,0-1.97-.22-3.35-.66-1.47-.44-2.43-.91-2.89-1.42-1.27-1.37-1.91-3.27-1.91-5.69,0-2.3.56-4.33,1.68-6.08,1.21-1.92,2.74-2.89,4.6-2.93.68-.02,1.5.13,2.47.44,1.18.38,2.16.9,2.93,1.56.2.16.38.66.56,1.48.22.88.33,1.73.33,2.57,0,1.24-.24,2.1-.72,2.57-2.26.6-4.56.94-6.91,1.01-.04.89.09,1.83.39,2.82s.62,1.49.95,1.51c.44.02.96-.28,1.58-.9.55-.53.89-.98,1.02-1.34.15-.55.36-1.11.62-1.7.35-.04,1.04.11,2.07.44,1.03.33,1.63.62,1.81.88ZM1313.08,730.85c-.37-.04-.89.46-1.56,1.48-.67,1.02-1.06,2-1.17,2.93.99-.04,1.78-.24,2.37-.6.35-.22.53-1.13.53-2.74,0-.67-.05-1.03-.16-1.07Z"/><path class="cls-10" d="M1352.64,742.26c.18.35.26.69.26,1.04,0,.55-.25.92-.76,1.12-.15.05-.43.08-.82.08-.75,0-1.63-.1-2.66-.29-1.03-.19-1.66-.38-1.88-.56-.11-.11-.16-.23-.16-.36,0-.2.16-.52.49-.97.33-.45.49-.77.49-.97.04-7.19-.02-10.81-.2-10.87-.35-.09-1.06.63-2.14,2.16-1.18,1.68-1.78,3.14-1.78,4.38v5.36c.15.42.23.75.23.99,0,.46-.29.8-.85,1.04-.15.05-.43.08-.82.08-.75,0-1.63-.1-2.66-.29-1.03-.19-1.66-.38-1.87-.56-.09-.07-.13-.16-.13-.27,0-.18.16-.51.48-.99.32-.47.48-.82.48-1.04.04-7.19-.02-10.81-.2-10.87-.31-.09-1.06.73-2.27,2.46-1.27,1.83-1.91,3.2-1.91,4.13v5.12c.28.24.43.53.43.88,0,.69-.37,1.17-1.12,1.42-.09.04-.22.05-.39.05-.59,0-1.46-.11-2.6-.34-1.14-.23-1.78-.41-1.91-.56s-.2-.31-.2-.49.13-.4.38-.66c.25-.26.38-.42.38-.49v-12.73c0-.15-.09-.34-.26-.57-.18-.24-.23-.44-.16-.6.13-.38.47-.63,1.02-.74.35-.07,1.17.03,2.47.3,1.4.29,2.17.59,2.3.9.09.2.05.5-.1.9-.24.64-.36,1-.36,1.1,0,.2.04.42.13.66.33-.91.79-1.72,1.38-2.44.72-.86,1.45-1.29,2.17-1.29s1.65.23,2.86.68c1.12.44,1.81.81,2.07,1.12.2.22.42.88.66,1.97.9-1.39,1.41-2.18,1.54-2.38.75-.93,1.46-1.4,2.14-1.4.75,0,1.71.21,2.89.64,1.18.43,1.86.82,2.04,1.16.61,1.17.92,5.48.92,12.95Z"/><path class="cls-10" d="M1368.95,739.22c.2.27-.23,1.09-1.28,2.44-1.14,1.44-2.26,2.42-3.35,2.93-.13.05-.33.08-.59.08-.85,0-1.97-.22-3.35-.66-1.47-.44-2.43-.91-2.89-1.42-1.27-1.37-1.91-3.27-1.91-5.69,0-2.3.56-4.33,1.68-6.08,1.21-1.92,2.74-2.89,4.6-2.93.68-.02,1.5.13,2.47.44,1.18.38,2.16.9,2.93,1.56.2.16.38.66.56,1.48.22.88.33,1.73.33,2.57,0,1.24-.24,2.1-.72,2.57-2.26.6-4.56.94-6.91,1.01-.04.89.09,1.83.39,2.82s.62,1.49.95,1.51c.44.02.96-.28,1.58-.9.55-.53.89-.98,1.02-1.34.15-.55.36-1.11.62-1.7.35-.04,1.04.11,2.07.44,1.03.33,1.63.62,1.81.88ZM1363.1,730.85c-.37-.04-.89.46-1.56,1.48-.67,1.02-1.06,2-1.17,2.93.99-.04,1.78-.24,2.37-.6.35-.22.53-1.13.53-2.74,0-.67-.05-1.03-.16-1.07Z"/><path class="cls-10" d="M1386.97,722.96c.04.18-.04.54-.25,1.07-.21.53-.31.83-.31.9v17.85c0,.6.05.98.16,1.12.33.47.43.79.3.96-.11.15-.39.22-.85.22-.5,0-1.27-.08-2.3-.25-1.16-.2-1.78-.3-1.84-.3-.39-.04-.68-.26-.86-.66-.02-.04-.03-.15-.03-.36,0-.75.12-1.86.36-3.34-.53.88-1.04,1.75-1.55,2.63-.72,1.08-1.37,1.57-1.94,1.48-4.32-.73-6.48-2.94-6.48-6.62,0-2.1.69-4.23,2.07-6.41,1.34-2.1,2.81-3.47,4.41-4.11.22-.09.43-.14.62-.14.55,0,1.5.57,2.86,1.7v-5.31c-.02-.15-.12-.41-.3-.78-.18-.37-.26-.65-.26-.83,0-.38.31-.57.92-.57.55,0,1.34.13,2.37.38.66.18,1.3.36,1.94.52.55.13.87.41.95.85ZM1381.25,730.03c-1.23.46-2.34,1.46-3.34,3.01-1,1.55-1.5,2.99-1.5,4.33,0,1.55.72,2.4,2.17,2.55.77.07,1.66-3.22,2.66-9.88Z"/><path class="cls-10" d="M1412.33,743.41c-.02.25-.15.47-.39.66s-.51.26-.82.22c-2.72-.31-4.23-.74-4.54-1.29-.04-.07-.07-.15-.07-.22,0-.09.05-.19.15-.3.1-.11.16-.21.18-.29.02-.08.07-.16.13-.23.04-.15.05-.47.03-.96-.26.16-.66.6-1.18,1.31-.55.79-1.03,1.33-1.45,1.64-.7.55-1.5.82-2.4.82-.53,0-1.04-.17-1.55-.52-.24-.16-.67-.52-1.28-1.07-1.05-.99-1.62-1.52-1.71-1.61-.46-.51-.69-1-.69-1.45,0-.15.02-.29.07-.44.42-1.61,1.71-3.13,3.88-4.57,1.58-1.04,3.82-2.14,6.71-3.31,0-.58-.18-.96-.53-1.12-.22-.11-.99.1-2.3.62-1.32.52-2.24.96-2.76,1.33-.18.15-.46.35-.85.6-.37.18-.71.24-1.02.16-.24-.05-.76-.38-1.55-.99-.79-.6-1.22-1-1.28-1.21-.18-.49.01-.88.56-1.15.02-.02.46-.13,1.32-.33.81-.37,1.62-.73,2.43-1.09,1.71-.68,3.16-1.04,4.34-1.1.5-.02,1.07.2,1.71.66.57.42,1.15.83,1.73,1.25.58.41,1.18.81,1.79,1.19.7.51,1.05,1,1.05,1.48v10.35c.22.47.32.79.3.96ZM1407.07,735.42c-1.07.35-2,.88-2.76,1.59-.57.58-1.14,1.16-1.71,1.72-.46.38-.89.88-1.3,1.49s-.61,1.06-.61,1.36c0,.15.07.22.2.22.46,0,1.49-.83,3.09-2.48,1.6-1.65,2.63-2.95,3.09-3.9Z"/><path class="cls-10" d="M1425.75,730.6c-.02.33-.15.62-.39.88s-.5.38-.79.38c-.09,0-.16,0-.23-.03-.31-.09-1-.14-2.07-.14v10.81s.07.13.21.44c.14.31.21.58.21.82,0,.53-.44.81-1.32.85-.46.02-1.3-.15-2.53-.49-1.34-.36-2.05-.7-2.14-1.01-.04-.13.03-.4.23-.81.2-.41.3-.72.3-.94v-9.69h-1.12c-.42,0-.93-.31-1.54-.92-.61-.61-.92-1.1-.92-1.46,0-.27.13-.52.38-.74.25-.22.53-.33.84-.33h2.37v-2.46c-.33-.36-.49-.76-.49-1.18,0-.38.2-.62.59-.71.2-.04.47-.05.82-.05.81,0,1.76.11,2.84.32,1.09.21,1.79.42,2.12.64.15.11.23.24.23.38,0,.18-.18.46-.53.82s-.54.62-.56.77v1.48h1.05c.22,0,.68.33,1.38.99.7.66,1.05,1.12,1.05,1.4Z"/><path class="cls-10" d="M1125.86,756.3c.04.27-.05.58-.3.93s-.49.51-.76.49c-.15,0-.36-.1-.62-.29s-.49-.3-.69-.31c-1.01-.15-1.51.63-1.51,2.33v.85c.02.37.03.62.03.77h1.05c.24,0,.71.33,1.41.99.7.66,1.04,1.12,1.02,1.4-.02.33-.15.62-.39.88s-.5.38-.79.38c-.09,0-.17,0-.23-.03-.29-.09-.98-.14-2.07-.14v10.81c0,.15.09.33.28.56.19.23.26.42.21.59-.13.6-.59.92-1.38.96-.44.02-1.28-.15-2.53-.49-1.34-.36-2.05-.7-2.14-1.01-.04-.13.03-.4.23-.81.2-.41.3-.72.3-.94v-9.69h-1.12c-.42,0-.93-.31-1.53-.92-.6-.61-.9-1.1-.9-1.46,0-.27.12-.52.36-.74.24-.22.52-.33.82-.33h2.37c0-2.01.14-3.4.43-4.19.66-1.72,2.07-2.57,4.24-2.57.28,0,.57,0,.85.03.7.07,1.45.37,2.24.9.7.46,1.07.81,1.12,1.07Z"/><path class="cls-10" d="M1142.27,776.26c-.02.25-.15.47-.39.66-.24.18-.52.26-.82.22-2.72-.31-4.23-.74-4.54-1.29-.04-.07-.07-.15-.07-.22,0-.09.05-.19.15-.3.1-.11.16-.21.18-.29.02-.08.07-.16.13-.23.04-.15.05-.47.03-.96-.26.16-.66.6-1.18,1.31-.55.79-1.03,1.33-1.45,1.64-.7.55-1.5.82-2.4.82-.53,0-1.04-.17-1.55-.52-.24-.16-.67-.52-1.28-1.07-1.05-.99-1.62-1.52-1.71-1.61-.46-.51-.69-1-.69-1.45,0-.15.02-.29.07-.44.42-1.61,1.71-3.13,3.88-4.57,1.58-1.04,3.81-2.14,6.71-3.31,0-.58-.18-.96-.53-1.12-.22-.11-.99.1-2.3.62-1.32.52-2.24.96-2.76,1.33-.18.15-.46.35-.86.6-.37.18-.71.24-1.02.16-.24-.05-.76-.38-1.55-.99-.79-.6-1.22-1-1.28-1.21-.18-.49.01-.88.56-1.15.02-.02.46-.13,1.32-.33.81-.37,1.62-.73,2.43-1.09,1.71-.68,3.16-1.04,4.34-1.1.5-.02,1.07.2,1.71.66.57.42,1.15.83,1.73,1.25.58.41,1.18.81,1.79,1.19.7.51,1.05,1,1.05,1.48v10.35c.22.47.32.79.3.96ZM1137.01,768.27c-1.08.35-2,.88-2.76,1.59-.57.58-1.14,1.16-1.71,1.72-.46.38-.89.88-1.3,1.49-.41.61-.61,1.06-.61,1.36,0,.15.07.22.2.22.46,0,1.49-.83,3.09-2.48,1.6-1.65,2.63-2.95,3.09-3.9ZM1138.32,758.28c-.83.99-1.97,1.48-3.42,1.48-.9,0-1.66-.23-2.27-.68-.79-.58-1.18-1.32-1.18-2.22,0-.77.3-1.48.89-2.14.88-.97,2.02-1.45,3.42-1.45.86,0,1.59.22,2.2.66.81.58,1.22,1.32,1.22,2.22,0,.77-.29,1.48-.85,2.13ZM1135.79,755.35c-.48,0-.92.16-1.32.49-.39.33-.59.69-.59,1.1,0,.6.36.9,1.09.9.46,0,.89-.17,1.3-.52.41-.35.61-.71.61-1.09,0-.58-.36-.88-1.08-.88Z"/><path class="cls-10" d="M1166.54,775.11c.17.35.26.69.26,1.04,0,.55-.25.92-.76,1.12-.15.05-.43.08-.82.08-.75,0-1.63-.1-2.66-.29-1.03-.19-1.66-.38-1.87-.56-.11-.11-.17-.23-.17-.36,0-.2.17-.52.49-.97.33-.45.49-.77.49-.97.04-7.19-.02-10.81-.2-10.87-.31-.09-1.06.73-2.27,2.46-1.27,1.83-1.91,3.2-1.91,4.13v5.12c.28.24.43.53.43.88,0,.69-.37,1.17-1.12,1.42-.09.04-.22.05-.39.05-.59,0-1.46-.11-2.6-.34-1.14-.23-1.78-.41-1.91-.56s-.2-.31-.2-.49.13-.4.38-.66c.25-.26.38-.42.38-.49v-12.73c0-.15-.09-.34-.26-.57-.18-.24-.23-.44-.16-.6.13-.38.47-.63,1.02-.74.35-.07,1.17.03,2.47.3,1.4.29,2.17.59,2.3.9.09.2.05.5-.1.9-.24.64-.36,1-.36,1.1,0,.2.04.42.13.66.33-.91.79-1.72,1.38-2.44.72-.86,1.45-1.29,2.17-1.29s1.71.21,2.89.64,1.86.82,2.04,1.16c.61,1.17.92,5.48.92,12.95Z"/><path class="cls-10" d="M1180.75,761.18c1.21.47,2.14,1.43,2.8,2.87.59,1.31.89,2.87.89,4.65,0,2.46-.5,4.6-1.51,6.41-1.12,1.93-2.51,2.81-4.18,2.63-.61-.13-1.54-.28-2.76-.46-.9-.09-1.71-.23-2.43-.41-1.25-.27-2.25-1.16-2.99-2.66-.68-1.39-1.02-3.01-1.02-4.87s.35-3.59,1.05-5.12c.79-1.68,1.9-2.86,3.32-3.53.24-.11.57-.16.99-.16.44,0,1.3.12,2.6.36.83,0,1.92.1,3.26.3ZM1177.06,763.64c-.59,0-1.14.6-1.64,1.79-.5,1.2-.76,2.34-.76,3.44,0,1.31.19,2.61.56,3.89.42,1.39.9,2.13,1.45,2.24.7.13,1.33-.53,1.88-1.97.53-1.39.79-2.92.79-4.6,0-.93-.14-1.85-.43-2.76-.39-1.35-1.01-2.03-1.84-2.03Z"/><path class="cls-10" d="M1201.37,762.38s-.12.2-.36.55c-.15.26-.23.46-.23.6v11.99c0,3.03-1.35,4.97-4.05,5.83-1.25.4-2.39.6-3.42.6-1.49,0-2.78-.42-3.88-1.26-.31-.22-.83-.69-1.58-1.42-.04-.04-.25-.21-.62-.52-.22-.2-.34-.41-.36-.63-.02-.27.31-.49.99-.66.09-.02.22-.03.39-.03.48,0,1.06.08,1.73.25s1.15.37,1.43.6c.35.36.71.74,1.08,1.12s.81.59,1.32.63c.9.07,1.48-.44,1.74-1.53.13-.53.2-1.47.2-2.82-.07.07-.27.31-.62.71-.26.29-.49.5-.69.63-.24.18-.49.27-.76.27-1.16,0-2.14-.26-2.93-.79-2.35-1.64-3.52-4.06-3.52-7.25,0-2.03.51-3.84,1.55-5.45,1.07-1.71,2.48-2.79,4.21-3.23.13-.04.25-.05.36-.05.35,0,.75.14,1.18.41.37.24.75.48,1.12.74.13-.31.27-.62.41-.92.14-.3.37-.47.67-.51.46-.05,1.28.07,2.45.37,1.17.3,1.84.56,1.99.78.26.37.33.69.2.99ZM1195.54,769.12c.18-1.26.26-2.29.26-3.09,0-1.48-.29-2.31-.85-2.49-.46-.15-1.02.5-1.68,1.94-.66,1.44-.99,2.76-.99,3.94,0,2.15.3,3.86.89,5.12,1.32-1.7,2.11-3.5,2.37-5.42Z"/><path class="cls-10" d="M1217.12,772.07c.2.27-.23,1.09-1.28,2.44-1.14,1.44-2.26,2.42-3.35,2.93-.13.05-.33.08-.59.08-.85,0-1.97-.22-3.35-.66-1.47-.44-2.43-.91-2.89-1.42-1.27-1.37-1.91-3.27-1.91-5.69,0-2.3.56-4.33,1.68-6.08,1.21-1.92,2.74-2.89,4.6-2.93.68-.02,1.5.13,2.47.44,1.18.38,2.16.9,2.93,1.56.2.16.38.66.56,1.48.22.88.33,1.73.33,2.57,0,1.24-.24,2.1-.72,2.57-2.26.6-4.56.94-6.91,1.01-.04.89.09,1.83.39,2.82s.62,1.49.95,1.51c.44.02.96-.28,1.58-.9.55-.53.89-.98,1.02-1.34.15-.55.36-1.11.62-1.7.35-.04,1.04.11,2.07.44,1.03.33,1.63.62,1.81.88ZM1211.26,763.7c-.37-.04-.89.46-1.56,1.48-.67,1.02-1.06,2-1.17,2.93.99-.04,1.78-.24,2.37-.6.35-.22.53-1.13.53-2.74,0-.67-.05-1.03-.16-1.07Z"/><path class="cls-10" d="M1230.44,763.45c-.02.33-.15.62-.39.88s-.5.38-.79.38c-.09,0-.16,0-.23-.03-.31-.09-1-.14-2.07-.14v10.81s.07.13.21.44c.14.31.21.58.21.82,0,.53-.44.81-1.32.85-.46.02-1.3-.15-2.53-.49-1.34-.36-2.05-.7-2.14-1.01-.04-.13.03-.4.23-.81.2-.41.3-.72.3-.94v-9.69h-1.12c-.42,0-.93-.31-1.54-.92-.61-.61-.92-1.1-.92-1.46,0-.27.13-.52.38-.74.25-.22.53-.33.84-.33h2.37v-2.46c-.33-.36-.49-.76-.49-1.18,0-.38.2-.62.59-.71.2-.04.47-.05.82-.05.81,0,1.76.11,2.84.32,1.09.21,1.79.42,2.12.64.15.11.23.24.23.38,0,.18-.18.46-.53.82s-.54.62-.56.77v1.48h1.05c.22,0,.68.33,1.38.99.7.66,1.05,1.12,1.05,1.4Z"/><path class="cls-10" d="M1263.98,775.11c.18.35.26.69.26,1.04,0,.55-.25.92-.76,1.12-.15.05-.43.08-.82.08-.75,0-1.63-.1-2.66-.29-1.03-.19-1.66-.38-1.88-.56-.11-.11-.16-.23-.16-.36,0-.2.16-.52.49-.97.33-.45.49-.77.49-.97.04-7.19-.02-10.81-.2-10.87-.35-.09-1.06.63-2.14,2.16-1.18,1.68-1.78,3.14-1.78,4.38v5.36c.15.42.23.75.23.99,0,.46-.29.8-.85,1.04-.15.05-.43.08-.82.08-.75,0-1.63-.1-2.66-.29-1.03-.19-1.66-.38-1.87-.56-.09-.07-.13-.16-.13-.27,0-.18.16-.51.48-.99.32-.47.48-.82.48-1.04.04-7.19-.02-10.81-.2-10.87-.31-.09-1.06.73-2.27,2.46-1.27,1.83-1.91,3.2-1.91,4.13v5.12c.28.24.43.53.43.88,0,.69-.37,1.17-1.12,1.42-.09.04-.22.05-.39.05-.59,0-1.46-.11-2.6-.34-1.14-.23-1.78-.41-1.91-.56s-.2-.31-.2-.49.13-.4.38-.66c.25-.26.38-.42.38-.49v-12.73c0-.15-.09-.34-.26-.57-.18-.24-.23-.44-.16-.6.13-.38.47-.63,1.02-.74.35-.07,1.17.03,2.47.3,1.4.29,2.17.59,2.3.9.09.2.05.5-.1.9-.24.64-.36,1-.36,1.1,0,.2.04.42.13.66.33-.91.79-1.72,1.38-2.44.72-.86,1.45-1.29,2.17-1.29s1.65.23,2.86.68c1.12.44,1.81.81,2.07,1.12.2.22.42.88.66,1.97.9-1.39,1.41-2.18,1.54-2.38.75-.93,1.46-1.4,2.14-1.4.75,0,1.71.21,2.89.64,1.18.43,1.86.82,2.04,1.16.61,1.17.92,5.48.92,12.95Z"/><path class="cls-10" d="M1282.33,776.26c-.02.25-.15.47-.39.66s-.51.26-.82.22c-2.72-.31-4.23-.74-4.54-1.29-.04-.07-.07-.15-.07-.22,0-.09.05-.19.15-.3.1-.11.16-.21.18-.29.02-.08.07-.16.13-.23.04-.15.05-.47.03-.96-.26.16-.66.6-1.18,1.31-.55.79-1.03,1.33-1.45,1.64-.7.55-1.5.82-2.4.82-.53,0-1.04-.17-1.55-.52-.24-.16-.67-.52-1.28-1.07-1.05-.99-1.62-1.52-1.71-1.61-.46-.51-.69-1-.69-1.45,0-.15.02-.29.07-.44.42-1.61,1.71-3.13,3.88-4.57,1.58-1.04,3.82-2.14,6.71-3.31,0-.58-.18-.96-.53-1.12-.22-.11-.99.1-2.3.62-1.32.52-2.24.96-2.76,1.33-.18.15-.46.35-.85.6-.37.18-.71.24-1.02.16-.24-.05-.76-.38-1.55-.99-.79-.6-1.22-1-1.28-1.21-.18-.49.01-.88.56-1.15.02-.02.46-.13,1.32-.33.81-.37,1.62-.73,2.43-1.09,1.71-.68,3.16-1.04,4.34-1.1.5-.02,1.07.2,1.71.66.57.42,1.15.83,1.73,1.25.58.41,1.18.81,1.79,1.19.7.51,1.05,1,1.05,1.48v10.35c.22.47.32.79.3.96ZM1277.07,768.27c-1.07.35-2,.88-2.76,1.59-.57.58-1.14,1.16-1.71,1.72-.46.38-.89.88-1.3,1.49s-.61,1.06-.61,1.36c0,.15.07.22.2.22.46,0,1.49-.83,3.09-2.48,1.6-1.65,2.63-2.95,3.09-3.9Z"/><path class="cls-10" d="M1300.32,755.81c.04.18-.04.54-.25,1.07-.21.53-.31.83-.31.9v17.85c0,.6.05.98.16,1.12.33.47.43.79.3.96-.11.15-.39.22-.85.22-.5,0-1.27-.08-2.3-.25-1.16-.2-1.78-.3-1.84-.3-.39-.04-.68-.26-.86-.66-.02-.04-.03-.15-.03-.36,0-.75.12-1.86.36-3.34-.53.88-1.04,1.75-1.55,2.63-.72,1.08-1.37,1.57-1.94,1.48-4.32-.73-6.48-2.94-6.48-6.62,0-2.1.69-4.23,2.07-6.41,1.34-2.1,2.81-3.47,4.41-4.11.22-.09.43-.14.62-.14.55,0,1.5.57,2.86,1.7v-5.31c-.02-.15-.12-.41-.3-.78-.18-.37-.26-.65-.26-.83,0-.38.31-.57.92-.57.55,0,1.34.13,2.37.38.66.18,1.3.36,1.94.52.55.13.87.41.95.85ZM1294.6,762.87c-1.23.46-2.34,1.46-3.34,3.01-1,1.55-1.5,2.99-1.5,4.33,0,1.55.72,2.4,2.17,2.55.77.07,1.66-3.22,2.66-9.88Z"/><path class="cls-10" d="M1316.76,776.31c.09.66-.19,1.07-.82,1.23-.11.02-.26.03-.46.03-.79,0-1.77-.14-2.93-.41-1.25-.29-1.98-.6-2.2-.93-.11-.15-.01-.43.3-.85.2-.27.3-.78.3-1.51v-11.5c-.26-.69-.39-1.16-.39-1.4s.41-.36,1.22-.36c.66,0,1.57.17,2.75.51,1.17.34,1.88.63,2.12.89.07.07.1.16.1.27,0,.15-.13.42-.38.82-.25.4-.38.7-.38.9v11c0,.18.13.41.38.68s.39.47.41.6ZM1316.86,757.4s.03.11.03.22c0,.4-.1.92-.3,1.56-.22.69-.43,1.08-.62,1.15-.22.07-1.16-.12-2.83-.59-1.67-.47-2.55-.8-2.66-1-.07-.09-.1-.23-.1-.41,0-.49.15-1.01.46-1.56.35-.62.75-.97,1.18-1.04.5-.07,1.38.09,2.63.48s1.98.79,2.2,1.19Z"/><path class="cls-10" d="M1334.91,775.11c.17.35.26.69.26,1.04,0,.55-.25.92-.76,1.12-.15.05-.43.08-.82.08-.75,0-1.63-.1-2.66-.29-1.03-.19-1.66-.38-1.87-.56-.11-.11-.17-.23-.17-.36,0-.2.17-.52.49-.97.33-.45.49-.77.49-.97.04-7.19-.02-10.81-.2-10.87-.31-.09-1.06.73-2.27,2.46-1.27,1.83-1.91,3.2-1.91,4.13v5.12c.28.24.43.53.43.88,0,.69-.37,1.17-1.12,1.42-.09.04-.22.05-.39.05-.59,0-1.46-.11-2.6-.34-1.14-.23-1.78-.41-1.91-.56s-.2-.31-.2-.49.13-.4.38-.66c.25-.26.38-.42.38-.49v-12.73c0-.15-.09-.34-.26-.57-.18-.24-.23-.44-.16-.6.13-.38.47-.63,1.02-.74.35-.07,1.17.03,2.47.3,1.4.29,2.17.59,2.3.9.09.2.05.5-.1.9-.24.64-.36,1-.36,1.1,0,.2.04.42.13.66.33-.91.79-1.72,1.38-2.44.72-.86,1.45-1.29,2.17-1.29s1.71.21,2.89.64,1.86.82,2.04,1.16c.61,1.17.92,5.48.92,12.95Z"/><path class="cls-10" d="M1353.33,755.81c.04.18-.04.54-.25,1.07-.21.53-.31.83-.31.9v17.85c0,.6.05.98.16,1.12.33.47.43.79.3.96-.11.15-.39.22-.85.22-.5,0-1.27-.08-2.3-.25-1.16-.2-1.78-.3-1.84-.3-.39-.04-.68-.26-.86-.66-.02-.04-.03-.15-.03-.36,0-.75.12-1.86.36-3.34-.53.88-1.04,1.75-1.55,2.63-.72,1.08-1.37,1.57-1.94,1.48-4.32-.73-6.48-2.94-6.48-6.62,0-2.1.69-4.23,2.07-6.41,1.34-2.1,2.81-3.47,4.41-4.11.22-.09.43-.14.62-.14.55,0,1.5.57,2.86,1.7v-5.31c-.02-.15-.12-.41-.3-.78-.18-.37-.26-.65-.26-.83,0-.38.31-.57.92-.57.55,0,1.34.13,2.37.38.66.18,1.3.36,1.94.52.55.13.87.41.95.85ZM1347.61,762.87c-1.23.46-2.34,1.46-3.34,3.01-1,1.55-1.5,2.99-1.5,4.33,0,1.55.72,2.4,2.17,2.55.77.07,1.66-3.22,2.66-9.88Z"/><path class="cls-10" d="M1368.59,772.07c.2.27-.23,1.09-1.28,2.44-1.14,1.44-2.26,2.42-3.35,2.93-.13.05-.33.08-.59.08-.85,0-1.97-.22-3.35-.66-1.47-.44-2.43-.91-2.89-1.42-1.27-1.37-1.91-3.27-1.91-5.69,0-2.3.56-4.33,1.68-6.08,1.21-1.92,2.74-2.89,4.6-2.93.68-.02,1.5.13,2.47.44,1.18.38,2.16.9,2.93,1.56.2.16.38.66.56,1.48.22.88.33,1.73.33,2.57,0,1.24-.24,2.1-.72,2.57-2.26.6-4.56.94-6.91,1.01-.04.89.09,1.83.39,2.82s.62,1.49.95,1.51c.44.02.96-.28,1.58-.9.55-.53.89-.98,1.02-1.34.15-.55.36-1.11.62-1.7.35-.04,1.04.11,2.07.44,1.03.33,1.63.62,1.81.88ZM1362.74,763.7c-.37-.04-.89.46-1.56,1.48-.67,1.02-1.06,2-1.17,2.93.99-.04,1.78-.24,2.37-.6.35-.22.53-1.13.53-2.74,0-.67-.05-1.03-.16-1.07Z"/><path class="cls-10" d="M1385.99,775.11c.17.35.26.69.26,1.04,0,.55-.25.92-.76,1.12-.15.05-.43.08-.82.08-.75,0-1.63-.1-2.66-.29-1.03-.19-1.66-.38-1.87-.56-.11-.11-.17-.23-.17-.36,0-.2.17-.52.49-.97.33-.45.49-.77.49-.97.04-7.19-.02-10.81-.2-10.87-.31-.09-1.06.73-2.27,2.46-1.27,1.83-1.91,3.2-1.91,4.13v5.12c.28.24.43.53.43.88,0,.69-.37,1.17-1.12,1.42-.09.04-.22.05-.39.05-.59,0-1.46-.11-2.6-.34-1.14-.23-1.78-.41-1.91-.56s-.2-.31-.2-.49.13-.4.38-.66c.25-.26.38-.42.38-.49v-12.73c0-.15-.09-.34-.26-.57-.18-.24-.23-.44-.16-.6.13-.38.47-.63,1.02-.74.35-.07,1.17.03,2.47.3,1.4.29,2.17.59,2.3.9.09.2.05.5-.1.9-.24.64-.36,1-.36,1.1,0,.2.04.42.13.66.33-.91.79-1.72,1.38-2.44.72-.86,1.45-1.29,2.17-1.29s1.71.21,2.89.64,1.86.82,2.04,1.16c.61,1.17.92,5.48.92,12.95Z"/><path class="cls-10" d="M1410.88,776.26c-.11.53-.35.87-.72,1.01-.15.05-.43.08-.82.08-.75,0-1.63-.1-2.66-.29-1.03-.19-1.66-.38-1.87-.56-.09-.09-.13-.2-.13-.33,0-.15.1-.42.3-.82.13-.15.27-.31.43-.48.15-.17.23-.4.23-.67.04-7.19-.02-10.81-.2-10.87-.33-.09-1.08.57-2.27,2-1.27,1.51-1.91,2.73-1.91,3.64v6.08c.35.29.47.68.36,1.15-.13.57-.48.95-1.05,1.15-.09.04-.22.05-.39.05-.59,0-1.46-.11-2.6-.34-1.14-.23-1.76-.4-1.88-.51-.24-.29-.26-.63-.07-1.01.02-.05.13-.15.31-.29.19-.14.28-.27.28-.4v-19.35c0-.15-.09-.34-.26-.58-.18-.24-.23-.44-.16-.6.13-.38.47-.63,1.02-.74.35-.07,1.17.03,2.47.3,1.4.29,2.17.59,2.3.9.09.2.05.5-.1.9-.15.4-.23.89-.23,1.48v5.12c1.23-1.29,2.41-1.94,3.55-1.94.75,0,1.71.21,2.89.64s1.86.82,2.04,1.16c.61,1.17.92,5.48.92,12.95.22.44.3.82.23,1.15Z"/><path class="cls-10" d="M1428.71,761.23c.15.18.23.37.23.55s-.13.4-.38.66-.38.42-.38.49v12.73c0,.11.07.3.21.58.14.27.21.47.21.6,0,.33-.34.57-1.02.71-.35.07-1.17-.03-2.47-.3-1.4-.29-2.17-.58-2.3-.88-.11-.24-.08-.56.1-.96.22-.47.33-.8.33-.99s-.03-.42-.1-.71c-.33.91-.79,1.72-1.38,2.44-.72.84-1.45,1.26-2.17,1.26s-1.71-.21-2.89-.63-1.86-.8-2.04-1.15c-.61-1.17-.92-5.48-.92-12.95-.18-.35-.26-.69-.26-1.04,0-.57.25-.95.76-1.15.15-.06.43-.08.82-.08.75,0,1.63.1,2.66.29,1.03.19,1.66.39,1.87.59.11.11.17.23.17.36,0,.2-.17.52-.49.97-.33.45-.49.77-.49.97-.04,7.19.02,10.81.2,10.87.31.09,1.08-.75,2.32-2.53,1.24-1.78,1.86-3.13,1.86-4.07v-5.12c-.29-.24-.43-.53-.43-.88,0-.71.37-1.2,1.12-1.45.09-.04.22-.05.39-.05.59,0,1.46.11,2.6.34s1.76.41,1.88.53Z"/><path class="cls-10" d="M1446.86,775.11c.17.35.26.69.26,1.04,0,.55-.25.92-.76,1.12-.15.05-.43.08-.82.08-.75,0-1.63-.1-2.66-.29-1.03-.19-1.66-.38-1.87-.56-.11-.11-.17-.23-.17-.36,0-.2.17-.52.49-.97.33-.45.49-.77.49-.97.04-7.19-.02-10.81-.2-10.87-.31-.09-1.06.73-2.27,2.46-1.27,1.83-1.91,3.2-1.91,4.13v5.12c.28.24.43.53.43.88,0,.69-.37,1.17-1.12,1.42-.09.04-.22.05-.39.05-.59,0-1.46-.11-2.6-.34-1.14-.23-1.78-.41-1.91-.56s-.2-.31-.2-.49.13-.4.38-.66c.25-.26.38-.42.38-.49v-12.73c0-.15-.09-.34-.26-.57-.18-.24-.23-.44-.16-.6.13-.38.47-.63,1.02-.74.35-.07,1.17.03,2.47.3,1.4.29,2.17.59,2.3.9.09.2.05.5-.1.9-.24.64-.36,1-.36,1.1,0,.2.04.42.13.66.33-.91.79-1.72,1.38-2.44.72-.86,1.45-1.29,2.17-1.29s1.71.21,2.89.64,1.86.82,2.04,1.16c.61,1.17.92,5.48.92,12.95Z"/><path class="cls-10" d="M1126.32,807c0,1-.4,1.81-1.2,2.41-.8.6-1.92.91-3.37.93-.35,0-.74-.05-1.15-.14-.75-.16-1.14-.26-1.18-.27-.39-.07-.79-.15-1.2-.23-.41-.08-.75-.22-1.04-.42-.48-.37-.95-.87-1.41-1.51-.37-.51-.73-1.03-1.08-1.56-.35-.53-.53-.85-.53-.96,0-.25.22-.45.66-.57.11-.04.31-.05.59-.05.66,0,1.48.06,2.48.18,1,.12,1.54.22,1.63.3.09.08.21.61.36,1.57.13.84.36,1.26.69,1.26.5,0,.76-.57.76-1.7,0-1.44-.46-2.34-1.38-2.71-2.1-.82-3.49-1.55-4.14-2.19-.81-.78-1.22-1.97-1.22-3.56,0-1.04.33-2.02.99-2.94.66-.92,1.44-1.47,2.33-1.66.39-.07,1.67.27,3.81,1.04.2.06.78.16,1.74.3.68.11,1.16.3,1.45.57.42.42.66,1.09.72,2,.02.67.03,1.35.03,2.03.15.62.23.99.23,1.09,0,.51-.3.8-.89.88-.31.04-.91-.06-1.81-.3-.99-.27-1.61-.56-1.88-.85-.07-.07-.13-.76-.2-2.05-.07-1.22-.22-1.83-.46-1.83-.33,0-.64.36-.92,1.07-.29.71-.43,1.45-.43,2.22,0,.97.25,1.58.76,1.83,1.07.49,2.14.99,3.21,1.49s1.8,1.02,2.22,1.55c.55.69.82,1.62.82,2.79Z"/><path class="cls-10" d="M1144.74,807.03c.04.35-.37.98-1.25,1.89-.88.91-1.56,1.34-2.04,1.29-.94-.11-2.94-2.23-5.99-6.35-.22.2-.59.52-1.12.96v3.23c0,.09.03.26.08.49.05.24.09.41.11.52.07.62-.09,1.02-.46,1.21-.2.09-.52.14-.95.14-.83,0-1.64-.13-2.43-.38-.92-.29-1.38-.64-1.38-1.04v-20.31c0-.29.11-.61.33-.96.22-.35.47-.57.76-.66.07-.02.15-.03.26-.03.57,0,1.36.16,2.38.48s1.58.6,1.69.83c.07.13.1.24.1.33,0,.15-.09.33-.26.56-.18.23-.26.44-.26.64v9.5l4.87-5.56c.28-.33.65-.5,1.08-.52.42-.02,1,.2,1.74.66.83.51,1.26,1.01,1.28,1.51.02.2-.49.91-1.55,2.13-1.62,1.93-2.58,3.08-2.86,3.45l4.27,4.9c.15.18.47.37.95.58.39.16.6.34.62.52Z"/><path class="cls-10" d="M1162.39,809.11c-.02.25-.15.47-.39.66s-.51.26-.82.22c-2.72-.31-4.23-.74-4.54-1.29-.04-.07-.07-.15-.07-.22,0-.09.05-.19.15-.3.1-.11.16-.21.18-.29.02-.08.07-.16.13-.23.04-.15.05-.47.03-.96-.26.16-.66.6-1.18,1.31-.55.79-1.03,1.33-1.45,1.64-.7.55-1.5.82-2.4.82-.53,0-1.04-.17-1.55-.52-.24-.16-.67-.52-1.28-1.07-1.05-.99-1.62-1.52-1.71-1.61-.46-.51-.69-1-.69-1.45,0-.15.02-.29.07-.44.42-1.61,1.71-3.13,3.88-4.57,1.58-1.04,3.82-2.14,6.71-3.31,0-.58-.18-.96-.53-1.12-.22-.11-.99.1-2.3.62-1.32.52-2.24.96-2.76,1.33-.18.15-.46.35-.85.6-.37.18-.71.24-1.02.16-.24-.05-.76-.38-1.55-.99-.79-.6-1.22-1-1.28-1.21-.18-.49.01-.88.56-1.15.02-.02.46-.13,1.32-.33.81-.37,1.62-.73,2.43-1.09,1.71-.68,3.16-1.04,4.34-1.1.5-.02,1.07.2,1.71.66.57.42,1.15.83,1.73,1.25.58.41,1.18.81,1.79,1.19.7.51,1.05,1,1.05,1.48v10.35c.22.47.32.79.3.96ZM1157.13,801.11c-1.07.35-2,.88-2.76,1.59-.57.58-1.14,1.16-1.71,1.72-.46.38-.89.88-1.3,1.49s-.61,1.06-.61,1.36c0,.15.07.22.2.22.46,0,1.49-.83,3.09-2.48,1.6-1.65,2.63-2.95,3.09-3.9Z"/><path class="cls-10" d="M1171.47,788.41c0,.13-.05.3-.15.52s-.16.36-.18.41c-.13.37-.26.93-.39,1.7v16.81c0,.22.07.42.2.59s.2.31.2.42c0,1.17-.26,1.8-.79,1.89-.2.04-.89-.09-2.09-.37-1.2-.28-1.91-.51-2.15-.67-.48-.35-.72-.67-.72-.96,0-.07.04-.15.13-.25.09-.09.13-.25.13-.47v-19.3c0-.11-.04-.22-.12-.34-.08-.12-.11-.23-.11-.34.04-.44.45-.73,1.22-.88.22-.04.68-.04,1.38,0,.81.05,1.51.16,2.1.3.9.22,1.35.53,1.35.93Z"/><path class="cls-10" d="M1187.42,809.16c.09.66-.19,1.07-.82,1.23-.11.02-.26.03-.46.03-.79,0-1.77-.14-2.93-.41-1.25-.29-1.98-.6-2.2-.93-.11-.15-.01-.43.3-.85.2-.27.3-.78.3-1.51v-11.5c-.26-.69-.39-1.16-.39-1.4s.41-.36,1.22-.36c.66,0,1.57.17,2.75.51,1.17.34,1.88.63,2.12.89.07.07.1.16.1.27,0,.15-.13.42-.38.82-.25.4-.38.7-.38.9v11c0,.18.13.41.38.68s.39.47.41.6ZM1187.52,790.25s.03.11.03.22c0,.4-.1.92-.3,1.56-.22.69-.43,1.08-.62,1.15-.22.07-1.16-.12-2.83-.59-1.67-.47-2.55-.8-2.66-1-.07-.09-.1-.23-.1-.41,0-.49.15-1.01.46-1.56.35-.62.75-.97,1.18-1.04.5-.07,1.38.09,2.63.48s1.98.79,2.2,1.19Z"/><path class="cls-10" d="M1209.26,807c0,1-.4,1.81-1.2,2.41-.8.6-1.92.91-3.37.93-.35,0-.74-.05-1.15-.14-.75-.16-1.14-.26-1.18-.27-.39-.07-.79-.15-1.2-.23-.41-.08-.75-.22-1.04-.42-.48-.37-.95-.87-1.41-1.51-.37-.51-.73-1.03-1.08-1.56-.35-.53-.53-.85-.53-.96,0-.25.22-.45.66-.57.11-.04.31-.05.59-.05.66,0,1.48.06,2.48.18,1,.12,1.54.22,1.63.3.09.08.21.61.36,1.57.13.84.36,1.26.69,1.26.5,0,.76-.57.76-1.7,0-1.44-.46-2.34-1.38-2.71-2.1-.82-3.49-1.55-4.14-2.19-.81-.78-1.22-1.97-1.22-3.56,0-1.04.33-2.02.99-2.94.66-.92,1.44-1.47,2.33-1.66.39-.07,1.67.27,3.81,1.04.2.06.78.16,1.74.3.68.11,1.16.3,1.45.57.42.42.66,1.09.72,2,.02.67.03,1.35.03,2.03.15.62.23.99.23,1.09,0,.51-.3.8-.89.88-.31.04-.91-.06-1.81-.3-.99-.27-1.61-.56-1.88-.85-.07-.07-.13-.76-.2-2.05-.07-1.22-.22-1.83-.46-1.83-.33,0-.64.36-.92,1.07-.29.71-.43,1.45-.43,2.22,0,.97.25,1.58.76,1.83,1.07.49,2.14.99,3.21,1.49s1.8,1.02,2.22,1.55c.55.69.82,1.62.82,2.79Z"/><path class="cls-10" d="M1227.67,807.03c.04.35-.37.98-1.25,1.89-.88.91-1.56,1.34-2.04,1.29-.94-.11-2.94-2.23-5.99-6.35-.22.2-.59.52-1.12.96v3.23c0,.09.03.26.08.49.05.24.09.41.11.52.07.62-.09,1.02-.46,1.21-.2.09-.52.14-.95.14-.83,0-1.64-.13-2.43-.38-.92-.29-1.38-.64-1.38-1.04v-20.31c0-.29.11-.61.33-.96.22-.35.47-.57.76-.66.07-.02.15-.03.26-.03.57,0,1.36.16,2.38.48s1.58.6,1.69.83c.07.13.1.24.1.33,0,.15-.09.33-.26.56-.18.23-.26.44-.26.64v9.5l4.87-5.56c.28-.33.65-.5,1.08-.52.42-.02,1,.2,1.74.66.83.51,1.26,1.01,1.28,1.51.02.2-.49.91-1.55,2.13-1.62,1.93-2.58,3.08-2.86,3.45l4.27,4.9c.15.18.47.37.95.58.39.16.6.34.62.52Z"/><path class="cls-10" d="M1240.66,794.02c1.21.47,2.14,1.43,2.8,2.87.59,1.31.89,2.87.89,4.65,0,2.46-.5,4.6-1.51,6.41-1.12,1.93-2.51,2.81-4.18,2.63-.61-.13-1.54-.28-2.76-.46-.9-.09-1.71-.23-2.43-.41-1.25-.27-2.25-1.16-2.99-2.66-.68-1.39-1.02-3.01-1.02-4.87s.35-3.59,1.05-5.12c.79-1.68,1.9-2.86,3.32-3.53.24-.11.57-.16.99-.16.44,0,1.3.12,2.6.36.83,0,1.92.1,3.26.3ZM1236.98,796.49c-.59,0-1.14.6-1.64,1.79-.5,1.2-.76,2.34-.76,3.44,0,1.31.19,2.61.56,3.89.42,1.39.9,2.13,1.45,2.24.7.13,1.33-.53,1.88-1.97.53-1.39.79-2.92.79-4.6,0-.93-.14-1.85-.43-2.76-.39-1.35-1.01-2.03-1.84-2.03Z"/><path class="cls-10" d="M1253.19,788.41c0,.13-.05.3-.15.52s-.16.36-.18.41c-.13.37-.26.93-.39,1.7v16.81c0,.22.07.42.2.59s.2.31.2.42c0,1.17-.26,1.8-.79,1.89-.2.04-.89-.09-2.09-.37-1.2-.28-1.91-.51-2.15-.67-.48-.35-.72-.67-.72-.96,0-.07.04-.15.13-.25.09-.09.13-.25.13-.47v-19.3c0-.11-.04-.22-.12-.34-.08-.12-.11-.23-.11-.34.04-.44.45-.73,1.22-.88.22-.04.68-.04,1.38,0,.81.05,1.51.16,2.1.3.9.22,1.35.53,1.35.93Z"/><path class="cls-10" d="M1268.81,804.92c.2.27-.23,1.09-1.28,2.44-1.14,1.44-2.26,2.42-3.35,2.93-.13.05-.33.08-.59.08-.85,0-1.97-.22-3.35-.66-1.47-.44-2.43-.91-2.89-1.42-1.27-1.37-1.91-3.27-1.91-5.69,0-2.3.56-4.33,1.68-6.08,1.21-1.92,2.74-2.89,4.6-2.93.68-.02,1.5.13,2.47.44,1.18.38,2.16.9,2.93,1.56.2.16.38.66.56,1.48.22.88.33,1.73.33,2.57,0,1.24-.24,2.1-.72,2.57-2.26.6-4.56.94-6.91,1.01-.04.89.09,1.83.39,2.82s.62,1.49.95,1.51c.44.02.96-.28,1.58-.9.55-.53.89-.98,1.02-1.34.15-.55.36-1.11.62-1.7.35-.04,1.04.11,2.07.44,1.03.33,1.63.62,1.81.88ZM1262.96,796.54c-.37-.04-.89.46-1.56,1.48-.67,1.02-1.06,2-1.17,2.93.99-.04,1.78-.24,2.37-.6.35-.22.53-1.13.53-2.74,0-.67-.05-1.03-.16-1.07Z"/><path class="cls-10" d="M1277,801.63c-.04.68-.25,1.05-.62,1.12-.11.02-.22.03-.33.03-.64,0-1.44-.21-2.4-.63s-1.75-.92-2.37-1.51c-.26-.24-.26-.67,0-1.31.26-.64.39-.97.39-.99v-10.35c0-.47.33-.8.99-.99.13-.04.32-.05.56-.05.61,0,1.32.11,2.1.33.79.22,1.28.46,1.48.71.04.05.07.55.07,1.48v11.17c0,.11.02.27.07.48s.07.38.07.51ZM1277,805.6c.07.16.07.61,0,1.34-.09.95-.13,1.53-.13,1.75,0,.73-.04,1.3-.13,1.7s-.36.64-.82.71c-.26.05-1.02-.13-2.27-.55-1.32-.46-2.1-.85-2.37-1.18-.15-.2-.1-.53.17-.99.13-.2.21-.54.23-1.01-.04-.4-.04-1.17,0-2.3.09-.66.42-.98.99-.96.61.04,1.47.24,2.56.62s1.69.66,1.78.86Z"/></g></g></svg>