<?xml version="1.0" encoding="UTF-8"?><svg id="Layer_1" xmlns="http://www.w3.org/2000/svg" width="240" height="200" viewBox="0 0 240 200"><defs><style>.cls-1{fill:#ffc556;}.cls-2{fill:#f7931e;}.cls-3{fill:#ffd956;}</style></defs><path class="cls-3" d="M4.94,100.09c1.85,8.95,3.71,17.9,5.56,26.85.64-.38,1.41-.56,2.33-.45,6.51.77,12.75,5.53,12.56,13.56-.05,1.97-.48,3.76-1.19,5.37-.07.44-.16.87-.27,1.28-.9,3.33-3.22,6.1-6.02,6.81-.59.32-1.17.53-1.77.64,2.4,11.57,4.79,23.15,7.19,34.72l71.2-12.34c-.72-2.43-.81-4.99.11-7.52,1.28-3.52,4.11-5.87,7.26-7.02.88-.48,1.85-.87,2.93-1.14,3.83-.98,8.07.05,11.27,2.81,2.55,2.19,4.09,5.09,4.95,8.28,34.59-6,69.19-11.99,103.78-17.99l-15.02-89L4.94,100.09Z"/><path d="M21.95,190.9l-7.9-38.17,1.78-.32c.41-.07.82-.22,1.25-.45l.19-.1.21-.05c2.09-.53,4-2.76,4.76-5.56.09-.32.16-.68.23-1.11l.04-.22.09-.21c.65-1.47,1-3.05,1.04-4.69.17-7.17-5.59-11.12-11.01-11.76-.48-.05-.89.02-1.24.22l-2.11,1.24-6.43-31.05,208.39-35.75,15.61,92.48-107.07,18.56-.42-1.55c-.85-3.14-2.33-5.63-4.4-7.41-2.77-2.38-6.39-3.29-9.7-2.44-.9.23-1.75.56-2.53.99l-.24.11c-1.74.64-4.86,2.26-6.21,5.97-.72,1.99-.75,4.14-.07,6.41l.57,1.91-74.83,12.97ZM18.17,155.34l6.52,31.5,67.7-11.73c-.38-2.32-.19-4.57.59-6.7,1.33-3.66,4.31-6.58,8.19-8.03,1-.53,2.08-.95,3.22-1.24,4.41-1.13,9.22.06,12.85,3.18,2.25,1.94,3.94,4.49,5.03,7.62l100.54-17.42-14.44-85.52L7.03,101.52l4.8,23.19c.39-.03.79-.03,1.2.02,6.95.82,14.33,5.98,14.11,15.35-.05,2.04-.47,4-1.26,5.84-.08.46-.17.86-.27,1.24-1.07,3.97-3.84,7.08-7.08,8-.12.06-.24.12-.36.17Z"/><path class="cls-1" d="M4.94,100.09L145.3,6.97c-7.48-.96,64.09-2.97,64.5,57.98"/><path d="M5.9,101.57l-1.93-2.95L143.05,6.35c.36-1.57,2.3-1.49,4.72-1.4,3.3.12,20.55,1.22,36.49,10.62,17.96,10.59,27.14,27.2,27.3,49.37l-3.51.02c-.12-17.27-6.11-31.02-17.81-40.88-16.05-13.52-38.26-15.64-43.84-15.64-.04,0-.08,0-.13,0h0S5.9,101.57,5.9,101.57Z"/><path class="cls-2" d="M38.63,115.78c3.44-8.51,16.39-11.96,22.84-6.74,5.55,4.5,5.31,14.62-.19,20.37-3.48,3.63-9.69,6.17-15.3,4.04-6.99-2.65-9.91-11.32-7.34-17.67Z"/><path d="M50.27,135.11c-1.53,0-3.09-.26-4.61-.84-3.34-1.26-6.01-3.9-7.54-7.41-1.6-3.68-1.71-7.95-.31-11.42h0c1.76-4.35,5.98-7.77,11.28-9.15,4.92-1.28,9.75-.51,12.92,2.06,2.56,2.08,4.11,5.33,4.35,9.15.29,4.62-1.38,9.3-4.46,12.52-2.65,2.76-7.02,5.08-11.63,5.08ZM39.44,116.11h0c-1.23,3.04-1.12,6.8.29,10.05,1.33,3.07,3.66,5.37,6.55,6.46,5.39,2.04,11.23-.55,14.36-3.82,2.75-2.87,4.23-7.05,3.97-11.18-.21-3.33-1.52-6.13-3.69-7.89-2.74-2.22-7-2.87-11.38-1.73-4.77,1.24-8.55,4.27-10.1,8.11Z"/><path class="cls-2" d="M172.27,88.08c2.5-7.58,12.51-10.4,17.64-5.57,4.42,4.16,4.44,13.26.28,18.31-2.63,3.19-7.41,5.34-11.83,3.3-5.49-2.53-7.95-10.39-6.09-16.04Z"/><path d="M181.97,106.25c-1.37,0-2.77-.28-4.16-.92-5.18-2.39-9.24-10.23-6.79-17.66h0c1.37-4.16,4.84-7.32,9.29-8.45,3.95-1.01,7.88-.14,10.5,2.34,4.82,4.54,5.02,14.51.39,20.12-2.07,2.51-5.51,4.58-9.23,4.58ZM183.53,81.45c-.84,0-1.7.11-2.57.33-3.52.9-6.36,3.47-7.43,6.72h0c-1.96,5.93,1.23,12.5,5.38,14.42,3.9,1.8,8.06-.26,10.27-2.94,3.76-4.55,3.67-12.88-.16-16.5-1.41-1.33-3.36-2.03-5.49-2.03Z"/><path class="cls-2" d="M147.99,139.34c3.44-8.51,16.39-11.96,22.84-6.74,5.55,4.5,5.31,14.62-.19,20.37-3.48,3.63-9.69,6.17-15.3,4.04-6.99-2.65-9.91-11.32-7.34-17.67Z"/><path d="M159.63,159.11c-1.58,0-3.18-.26-4.76-.86-3.45-1.31-6.21-4.02-7.78-7.64-1.64-3.78-1.76-8.18-.31-11.76h0c1.81-4.48,6.14-7.99,11.58-9.41,5.05-1.31,10.02-.51,13.3,2.14,2.66,2.16,4.26,5.52,4.51,9.47.3,4.74-1.41,9.54-4.58,12.85-2.72,2.84-7.21,5.22-11.95,5.22ZM149.21,139.84h0c-1.19,2.93-1.08,6.56.29,9.7,1.29,2.96,3.52,5.17,6.3,6.23,5.21,1.97,10.85-.54,13.89-3.72,2.66-2.78,4.1-6.83,3.85-10.84-.2-3.2-1.46-5.89-3.53-7.58-2.64-2.13-6.75-2.75-10.99-1.64-4.64,1.21-8.3,4.14-9.8,7.85Z"/><path d="M75.83,126.09c1.22.4,1.95,1.32,2.2,2.76.18,1.05,0,2.44-.56,4.18-.61,1.95-1.4,3-2.35,3.16-.19.03-.41-.02-.67-.16-.26-.14-.51-.28-.76-.42l.51,2.96c.03.15.08.32.18.51.13.27.21.45.26.55.04.1.03.3-.03.59-.06.29-.2.47-.4.53-.21.06-.69,0-1.44-.2-.79-.2-1.29-.41-1.51-.64-.13-.14-.17-.39-.13-.73.04-.26.05-.46.02-.6l-1.85-10.76c-.01-.07-.07-.19-.19-.36-.11-.17-.17-.3-.17-.38-.03-.57.14-.88.49-.94.06,0,.31.02.74.08.44.06.78.08,1.02.05.35-.05.78-.22,1.29-.51.51-.29.88-.46,1.13-.5.14-.02.28-.03.43-.02.28.02.59.15.93.38.4.27.7.43.87.48ZM74.6,127.68c-.27.05-.62.25-1.04.63-.43.37-.74.75-.94,1.14l.72,4.2c.6-.3,1.07-1.12,1.42-2.44.32-1.2.42-2.19.28-2.97-.07-.41-.22-.59-.44-.55Z"/><path d="M90.42,135.04c.14.18.01.7-.37,1.56-.39.86-.76,1.31-1.11,1.36-.37.05-.71-.1-.99-.44-.05-.11-.17-.26-.35-.46l-4.28-2.8.55,3.22c.02.13.1.28.23.46.13.18.21.32.22.41.06.35-.13.58-.58.69-.34.1-.87.12-1.59.07-.77-.04-1.18-.15-1.21-.33-.01-.06,0-.14,0-.24.01-.1,0-.23-.02-.38l-2.08-12.16c-.01-.08-.04-.15-.09-.21s-.07-.1-.08-.14c-.04-.32.16-.54.6-.68.14-.05.46-.05.98,0,.52.05.88.05,1.09,0,.2-.05.57-.28,1.13-.69.56-.41,1.07-.66,1.52-.73.18-.03.36-.04.55-.04.34.01.66.11.97.3.31.19.6.38.89.57.74.49,1.13.76,1.16.79.36.3.59.66.69,1.08.3,1.34-.56,3.26-2.57,5.78.57.36,1.83,1.25,3.79,2.67.11.02.27.06.49.13.13.04.28.1.45.19ZM84.89,125.96c-.55.09-1.42.83-2.61,2.2l.46,2.66c.47-.28,1.02-.99,1.67-2.13.64-1.14.93-1.95.84-2.44-.04-.23-.16-.33-.36-.3Z"/><path d="M99.82,122.74c-.26.28-.63.89-1.09,1.82.69,1.18,1.18,2.55,1.44,4.11.32,1.86.27,3.51-.16,4.96-.45,1.57-1.26,2.53-2.44,2.87-.24.07-.52.08-.84.04-.32-.04-.63-.07-.94-.12-.35-.02-.9-.09-1.64-.2.02.26,0,.51-.09.75-.09.29-.27.44-.52.45-.2,0-.58-.13-1.13-.41s-.88-.52-.98-.73-.13-.37-.09-.49c.05-.15.2-.56.46-1.23-.74-1.03-1.26-2.41-1.55-4.13-.21-1.22-.24-2.68-.1-4.37.2-2.28.75-3.5,1.66-3.65.08-.01.2-.01.35,0,.15.02.27.02.35.02.82-.39,1.35-.61,1.6-.65.93-.16,1.84.06,2.72.65.07-.14.13-.27.19-.39.1-.54.32-.84.67-.9.07-.01.14-.02.21-.02.13.01.48.24,1.04.67.56.44.85.74.88.9,0,.02,0,.04,0,.06ZM95.87,124.54c-.26-.48-.53-.73-.8-.76-.27-.03-.46.36-.58,1.16-.12.8-.31,1.22-.57,1.26-.06,0-.15,0-.27-.05-.12-.05-.22-.07-.29-.07-.28,1.04-.24,2.45.11,4.23.94-2.35,1.74-4.27,2.39-5.77ZM96.96,128.52c-.78,1.84-1.48,3.63-2.1,5.38.34.43.69.65,1.05.66.6,0,.99-.63,1.16-1.92.14-1.15.1-2.52-.11-4.12Z"/><path d="M109.98,120.38c-.34,1.65-.63,4.11-.86,7.39-.21,2.97-.28,4.64-.2,5.02,0,.04.05.3.17.79.07.26.07.51,0,.75-.07.3-.2.48-.39.55-.33.13-1.03.11-2.1-.04-1.08-.15-1.71-.34-1.9-.55-.09-.1-.16-.25-.2-.43-.05-.23-.1-.39-.13-.46-2.05-3.97-3.49-7.59-4.33-10.86,0-.06-.06-.17-.15-.35-.06-.13-.09-.25-.1-.36-.01-.42.11-.69.38-.83.13-.07.64-.04,1.53.08.93.13,1.46.28,1.59.46.07.11.11.35.13.73,0,.07-.02.18-.07.33-.05.14-.06.26-.03.35.38,1.19.73,2.24,1.04,3.14.75,2.17,1.27,3.44,1.55,3.82.01-1.11.13-2.55.34-4.32.21-1.77.32-3.23.33-4.39-.03-.22-.02-.53,0-.91.08-.3.24-.51.48-.64.18-.09.63-.07,1.36.07.8.16,1.31.39,1.55.67Z"/><path d="M124.72,128.9c.15.86-.02,1.61-.49,2.26-.48.65-1.22,1.07-2.23,1.27-.26.04-.54.05-.84.02-.56-.06-.85-.09-.88-.08-.29-.01-.58-.02-.88-.04-.3-.02-.57-.1-.81-.27-.36-.23-.7-.63-1-1.23-.37-.69-.64-1.12-.8-1.28-.11-.08-.25-.22-.42-.43-.06-.17-.06-.34,0-.53.07-.18.17-.31.3-.38.07-.03.19-.07.38-.1.41-.07.92-.11,1.52-.11.61,0,.95.03,1.03.1.08.07.25.47.49,1.21.23.68.45,1.04.67,1.09.05.01.1.02.16,0,.22-.04.38-.25.47-.65.09-.39.1-.82.02-1.29-.17-1.01-.6-1.63-1.29-1.86-1.58-.53-2.72-1.08-3.41-1.64-.81-.65-1.27-1.5-1.37-2.56-.09-.88.07-1.81.5-2.8.42-.99.94-1.61,1.56-1.87.26-.1,1.12.01,2.58.35.36.07.72.14,1.09.23.37.08.68.24.94.47.4.35.68,1.03.85,2.02.03.19.07.46.12.82.04.32.07.54.1.66.02.08.09.21.19.38.08.12.12.24.14.37.06.51-.1.84-.5.96-.23.08-.67.06-1.34-.04-.74-.1-1.22-.26-1.45-.49-.03-.03-.06-.15-.09-.34-.03-.17-.08-.57-.14-1.19-.06-.62-.12-1.07-.17-1.35-.09-.5-.19-.73-.3-.7-.36.09-.61.39-.77.93-.15.53-.18,1.11-.07,1.74.18,1.04.62,1.74,1.31,2.07.78.32,1.55.64,2.33.97.74.32,1.27.67,1.6,1.05.42.5.72,1.25.89,2.25Z"/><path d="M131.06,116.69c1.22.4,1.95,1.32,2.2,2.76.18,1.05,0,2.44-.56,4.18-.61,1.95-1.4,3-2.35,3.16-.19.03-.41-.02-.67-.16-.26-.14-.51-.28-.76-.42l.51,2.96c.03.15.08.32.18.51.13.26.22.45.26.55.04.1.03.3-.03.59-.06.29-.2.47-.4.53-.21.06-.69,0-1.44-.2-.79-.2-1.29-.41-1.51-.64-.13-.14-.17-.39-.13-.73.04-.26.05-.46.02-.6l-1.85-10.76c-.01-.07-.07-.19-.19-.36-.11-.17-.17-.3-.17-.38-.03-.57.14-.88.49-.94.06,0,.31.02.74.08.44.06.78.08,1.03.05.35-.05.78-.22,1.29-.51.51-.29.88-.46,1.13-.5.14-.02.28-.03.43-.02.28.02.59.15.93.38.4.27.7.42.87.48ZM129.84,118.28c-.27.05-.62.25-1.04.62-.43.37-.74.75-.94,1.15l.72,4.2c.6-.3,1.07-1.12,1.42-2.44.32-1.2.42-2.19.28-2.97-.07-.41-.22-.59-.44-.55Z"/><path d="M137.35,115.37c.01.08,0,.2-.02.34-.03.15-.05.24-.05.28-.03.25-.04.62-.02,1.12l1.83,10.69c.02.14.08.26.17.36.09.1.14.18.15.25.13.74.06,1.17-.21,1.27-.1.04-.52.03-1.26-.02-.78-.06-1.23-.13-1.37-.22-.29-.18-.46-.36-.49-.54,0-.05,0-.1.04-.17.04-.07.04-.17.02-.31l-2.11-12.28c-.01-.07-.05-.14-.1-.21-.05-.07-.09-.14-.1-.21-.03-.28.16-.5.55-.67.12-.04.39-.09.8-.14.51-.05.94-.06,1.29-.02.54.05.83.21.87.46Z"/><path d="M148.83,125.14c-.05.57-.21.94-.49,1.11-.09.05-.21.08-.37.08-.16,0-.27.03-.34.08l-2.4,1.52c-.08.05-.14.16-.2.34-.06.18-.13.29-.21.32-.24.14-.8.14-1.67.02-.87-.13-1.42-.29-1.63-.49-.16-.16-.25-.45-.27-.85,0-.19-.02-.34-.04-.44l-2.01-11.7c-.04-.11-.11-.2-.19-.27s-.13-.13-.14-.19c-.01-.23.16-.42.53-.59.24-.1.78-.1,1.64,0,.97.11,1.49.34,1.56.7.02.09-.02.24-.12.45-.1.21-.14.36-.12.45l1.65,9.63,1.68-1.09c.09-.11.27-.25.54-.41.16-.05.64.12,1.44.52.8.4,1.19.68,1.17.85Z"/><path d="M157.22,123.71c-.05.57-.21.94-.49,1.11-.09.05-.21.08-.37.08-.16,0-.27.03-.34.08l-2.4,1.52c-.08.05-.14.16-.2.34-.06.18-.13.29-.21.32-.24.14-.8.14-1.67.02-.87-.13-1.42-.29-1.63-.49-.16-.16-.25-.45-.27-.85,0-.19-.02-.34-.04-.44l-2.01-11.7c-.04-.11-.11-.2-.19-.27s-.13-.13-.14-.19c-.01-.23.16-.42.53-.59.23-.1.78-.1,1.64,0,.97.11,1.49.34,1.56.7.02.09-.02.24-.12.45-.1.21-.14.36-.12.45l1.65,9.63,1.68-1.09c.09-.11.27-.25.54-.41.16-.05.64.12,1.44.52.8.4,1.19.68,1.17.85Z"/><path d="M165.62,122.38c0,.2-.07.43-.2.69-.13.25-.26.42-.38.48-.03.02-.1,0-.2-.03-.1-.04-.18-.05-.24-.04-.02,0-.05.01-.07.03-.34.17-.68.37-1.01.6-.79.54-1.5,1.18-2.12,1.92-1.25-.28-1.93-.43-2.04-.46-.78-.19-1.18-.36-1.2-.51l-2.25-13.1c-.01-.08.1-.22.35-.42.25-.2.44-.3.57-.31.14-.01.44.03.89.13.45.1.81.12,1.08.08.35-.06.78-.29,1.28-.7.46-.39.76-.57.9-.55.3.04.76.28,1.41.7.64.42,1.01.74,1.09.95.04.1-.03.3-.23.59-.2.3-.37.46-.52.48-.13.02-.22.02-.29,0-.06-.03-.11-.03-.13-.01-.4.17-.78.34-1.11.53-.81.44-1.39.88-1.73,1.33l.49,2.84c.37-.28.86-.58,1.48-.91.18-.06.62.14,1.31.57.69.44,1.06.76,1.09.97.02.13-.03.29-.17.49-.13.2-.27.34-.42.41-.12.02-.32.07-.61.14-.43.16-1.14.66-2.15,1.51l.31,1.83c.31-.27.75-.59,1.3-.98.55-.39.9-.59,1.04-.62.16-.03.62.15,1.36.55.75.39,1.12.66,1.12.8Z"/><path d="M173.33,111.39c-.09.02-.23,0-.4-.05-.18-.05-.32-.05-.42,0l-1.72.79,1.57,9.16c.06.34.2.69.43,1.05.07.11.09.33.08.67,0,.37-.08.62-.22.74-.02.01-.08.03-.17.05-.38.07-.93.08-1.65.05-.8-.04-1.28-.13-1.45-.27-.2-.18-.24-.46-.13-.84.1-.33.14-.56.11-.7l-1.48-8.62-1.19.52c-.06.02-.14.09-.26.2-.12.11-.23.16-.32.15-.28-.02-.71-.31-1.28-.85-.57-.54-.85-.93-.83-1.16.05-.28.29-.53.72-.75.11-.05.26-.09.45-.09.19,0,.34-.03.44-.07l5.82-2.59c.06-.02.21-.12.47-.29.17-.11.34-.17.49-.17.33,0,.58.08.73.27.11.13.24.37.4.74.19.43.32.82.38,1.16.04.26.04.46,0,.6-.04.14-.24.25-.58.32Z"/><path d="M179.17,116.91c.05.43-.02.69-.21.77-.06.02-.11.04-.17.05-.34.06-.79,0-1.34-.18-.56-.18-1.03-.43-1.42-.74-.17-.13-.21-.41-.14-.84.07-.43.1-.65.1-.66l-1.13-6.58c-.05-.3.09-.54.42-.72.07-.03.16-.06.29-.09.33-.06.71-.05,1.15.02.44.07.73.17.86.32.03.03.09.34.2.93l1.22,7.11c.01.07.04.17.09.3.05.13.08.24.09.32ZM179.6,119.43c.05.1.1.38.15.85.06.61.1.99.12,1.13.08.46.12.83.12,1.09,0,.26-.12.44-.36.53-.13.06-.56.01-1.27-.14-.75-.17-1.21-.35-1.39-.53-.1-.11-.11-.33-.02-.64.05-.14.05-.36.01-.67-.07-.25-.15-.74-.25-1.46-.03-.43.11-.66.42-.7.33-.03.81.02,1.43.16.62.14.97.27,1.04.39Z"/></svg>