<?xml version="1.0" encoding="UTF-8"?>
<svg id="Layer_1" xmlns="http://www.w3.org/2000/svg" xmlns:xlink="http://www.w3.org/1999/xlink" version="1.1" viewBox="0 0 1920 1080">
  <!-- Generator: Adobe Illustrator 29.0.1, SVG Export Plug-In . SVG Version: 2.1.0 Build 192)  -->
  <defs>
    <style>
      .st0 {
        fill: none;
      }

      .st1 {
        fill: #563300;
      }

      .st2 {
        fill: #231f20;
      }

      .st3 {
        fill: #e2d9dc;
      }

      .st4 {
        isolation: isolate;
      }

      .st5 {
        fill: #efdfc7;
      }

      .st6 {
        fill: #fff;
      }

      .st7 {
        fill: #f7931e;
      }

      .st8 {
        fill: #ffd956;
      }

      .st9 {
        fill: #cc001c;
      }

      .st10 {
        fill: #f2f2f2;
      }

      .st11 {
        fill: #e6e7e8;
      }

      .st12 {
        clip-path: url(#clippath);
      }

      .st13 {
        fill: #443200;
      }
    </style>
    <clipPath id="clippath">
      <rect class="st0" x="4.5" y="466.2" width="1911" height="633.7"/>
    </clipPath>
  </defs>
  <g class="st4">
    <g id="Layer_11">
      <rect class="st8" x="3.3" y="-5.4" width="1913.3" height="471.7"/>
      <g class="st12">
        <g>
          <g id="_Grid_Repeat_">
            <rect class="st3" x="4.5" y="466.2" width="50.9" height="61"/>
            <rect class="st3" x="55.4" y="527.3" width="50.9" height="61"/>
          </g>
          <g id="_Grid_Repeat_-2">
            <rect class="st3" x="111.4" y="466.2" width="50.9" height="61"/>
            <rect class="st3" x="162.4" y="527.3" width="50.9" height="61"/>
          </g>
          <g id="_Grid_Repeat_-3">
            <rect class="st3" x="218.4" y="466.2" width="50.9" height="61"/>
            <rect class="st3" x="269.3" y="527.3" width="50.9" height="61"/>
          </g>
          <g id="_Grid_Repeat_-4">
            <rect class="st3" x="325.3" y="466.2" width="50.9" height="61"/>
            <rect class="st3" x="376.2" y="527.3" width="50.9" height="61"/>
          </g>
          <g id="_Grid_Repeat_-5">
            <rect class="st3" x="432.2" y="466.2" width="50.9" height="61"/>
            <rect class="st3" x="483.1" y="527.3" width="50.9" height="61"/>
          </g>
          <g id="_Grid_Repeat_-6">
            <rect class="st3" x="539.2" y="466.2" width="50.9" height="61"/>
            <rect class="st3" x="590.1" y="527.3" width="50.9" height="61"/>
          </g>
          <g id="_Grid_Repeat_-7">
            <rect class="st3" x="646.1" y="466.2" width="50.9" height="61"/>
            <rect class="st3" x="697" y="527.3" width="50.9" height="61"/>
          </g>
          <g id="_Grid_Repeat_-8">
            <rect class="st3" x="753" y="466.2" width="50.9" height="61"/>
            <rect class="st3" x="803.9" y="527.3" width="50.9" height="61"/>
          </g>
          <g id="_Grid_Repeat_-9">
            <rect class="st3" x="859.9" y="466.2" width="50.9" height="61"/>
            <rect class="st3" x="910.8" y="527.3" width="50.9" height="61"/>
          </g>
          <g id="_Grid_Repeat_-10">
            <rect class="st3" x="966.9" y="466.2" width="50.9" height="61"/>
            <rect class="st3" x="1017.8" y="527.3" width="50.9" height="61"/>
          </g>
          <g id="_Grid_Repeat_-11">
            <rect class="st3" x="1073.8" y="466.2" width="50.9" height="61"/>
            <rect class="st3" x="1124.7" y="527.3" width="50.9" height="61"/>
          </g>
          <g id="_Grid_Repeat_-12">
            <rect class="st3" x="1180.7" y="466.2" width="50.9" height="61"/>
            <rect class="st3" x="1231.6" y="527.3" width="50.9" height="61"/>
          </g>
          <g id="_Grid_Repeat_-13">
            <rect class="st3" x="1287.7" y="466.2" width="50.9" height="61"/>
            <rect class="st3" x="1338.6" y="527.3" width="50.9" height="61"/>
          </g>
          <g id="_Grid_Repeat_-14">
            <rect class="st3" x="1394.6" y="466.2" width="50.9" height="61"/>
            <rect class="st3" x="1445.5" y="527.3" width="50.9" height="61"/>
          </g>
          <g id="_Grid_Repeat_-15">
            <rect class="st3" x="1501.5" y="466.2" width="50.9" height="61"/>
            <rect class="st3" x="1552.4" y="527.3" width="50.9" height="61"/>
          </g>
          <g id="_Grid_Repeat_-16">
            <rect class="st3" x="1608.4" y="466.2" width="50.9" height="61"/>
            <rect class="st3" x="1659.4" y="527.3" width="50.9" height="61"/>
          </g>
          <g id="_Grid_Repeat_-17">
            <rect class="st3" x="1715.4" y="466.2" width="50.9" height="61"/>
            <rect class="st3" x="1766.3" y="527.3" width="50.9" height="61"/>
          </g>
          <g id="_Grid_Repeat_-18">
            <rect class="st3" x="1822.3" y="466.2" width="50.9" height="61"/>
            <rect class="st3" x="1873.2" y="527.3" width="50.9" height="61"/>
          </g>
          <g id="_Grid_Repeat_-19">
            <rect class="st3" x="4.5" y="594.3" width="50.9" height="61"/>
            <rect class="st3" x="55.4" y="655.2" width="50.9" height="61"/>
          </g>
          <g id="_Grid_Repeat_-20">
            <rect class="st3" x="111.4" y="594.3" width="50.9" height="61"/>
            <rect class="st3" x="162.4" y="655.2" width="50.9" height="61"/>
          </g>
          <g id="_Grid_Repeat_-21">
            <rect class="st3" x="218.4" y="594.3" width="50.9" height="61"/>
            <rect class="st3" x="269.3" y="655.2" width="50.9" height="61"/>
          </g>
          <g id="_Grid_Repeat_-22">
            <rect class="st3" x="325.3" y="594.3" width="50.9" height="61"/>
            <rect class="st3" x="376.2" y="655.2" width="50.9" height="61"/>
          </g>
          <g id="_Grid_Repeat_-23">
            <rect class="st3" x="432.2" y="594.3" width="50.9" height="61"/>
            <rect class="st3" x="483.1" y="655.2" width="50.9" height="61"/>
          </g>
          <g id="_Grid_Repeat_-24">
            <rect class="st3" x="539.2" y="594.3" width="50.9" height="61"/>
            <rect class="st3" x="590.1" y="655.2" width="50.9" height="61"/>
          </g>
          <g id="_Grid_Repeat_-25">
            <rect class="st3" x="646.1" y="594.3" width="50.9" height="61"/>
            <rect class="st3" x="697" y="655.2" width="50.9" height="61"/>
          </g>
          <g id="_Grid_Repeat_-26">
            <rect class="st3" x="753" y="594.3" width="50.9" height="61"/>
            <rect class="st3" x="803.9" y="655.2" width="50.9" height="61"/>
          </g>
          <g id="_Grid_Repeat_-27">
            <rect class="st3" x="859.9" y="594.3" width="50.9" height="61"/>
            <rect class="st3" x="910.8" y="655.2" width="50.9" height="61"/>
          </g>
          <g id="_Grid_Repeat_-28">
            <rect class="st3" x="966.9" y="594.3" width="50.9" height="61"/>
            <rect class="st3" x="1017.8" y="655.2" width="50.9" height="61"/>
          </g>
          <g id="_Grid_Repeat_-29">
            <rect class="st3" x="1073.8" y="594.3" width="50.9" height="61"/>
            <rect class="st3" x="1124.7" y="655.2" width="50.9" height="61"/>
          </g>
          <g id="_Grid_Repeat_-30">
            <rect class="st3" x="1180.7" y="594.3" width="50.9" height="61"/>
            <rect class="st3" x="1231.6" y="655.2" width="50.9" height="61"/>
          </g>
          <g id="_Grid_Repeat_-31">
            <rect class="st3" x="1287.7" y="594.3" width="50.9" height="61"/>
            <rect class="st3" x="1338.6" y="655.2" width="50.9" height="61"/>
          </g>
          <g id="_Grid_Repeat_-32">
            <rect class="st3" x="1394.6" y="594.3" width="50.9" height="61"/>
            <rect class="st3" x="1445.5" y="655.2" width="50.9" height="61"/>
          </g>
          <g id="_Grid_Repeat_-33">
            <rect class="st3" x="1501.5" y="594.3" width="50.9" height="61"/>
            <rect class="st3" x="1552.4" y="655.2" width="50.9" height="61"/>
          </g>
          <g id="_Grid_Repeat_-34">
            <rect class="st3" x="1608.4" y="594.3" width="50.9" height="61"/>
            <rect class="st3" x="1659.4" y="655.2" width="50.9" height="61"/>
          </g>
          <g id="_Grid_Repeat_-35">
            <rect class="st3" x="1715.4" y="594.3" width="50.9" height="61"/>
            <rect class="st3" x="1766.3" y="655.2" width="50.9" height="61"/>
          </g>
          <g id="_Grid_Repeat_-36">
            <rect class="st3" x="1822.3" y="594.3" width="50.9" height="61"/>
            <rect class="st3" x="1873.2" y="655.2" width="50.9" height="61"/>
          </g>
          <g id="_Grid_Repeat_-37">
            <rect class="st3" x="4.5" y="722.3" width="50.9" height="61"/>
            <rect class="st3" x="55.4" y="783.3" width="50.9" height="61"/>
          </g>
          <g id="_Grid_Repeat_-38">
            <rect class="st3" x="111.4" y="722.3" width="50.9" height="61"/>
            <rect class="st3" x="162.4" y="783.3" width="50.9" height="61"/>
          </g>
          <g id="_Grid_Repeat_-39">
            <rect class="st3" x="218.4" y="722.3" width="50.9" height="61"/>
            <rect class="st3" x="269.3" y="783.3" width="50.9" height="61"/>
          </g>
          <g id="_Grid_Repeat_-40">
            <rect class="st3" x="325.3" y="722.3" width="50.9" height="61"/>
            <rect class="st3" x="376.2" y="783.3" width="50.9" height="61"/>
          </g>
          <g id="_Grid_Repeat_-41">
            <rect class="st3" x="432.2" y="722.3" width="50.9" height="61"/>
            <rect class="st3" x="483.1" y="783.3" width="50.9" height="61"/>
          </g>
          <g id="_Grid_Repeat_-42">
            <rect class="st3" x="539.2" y="722.3" width="50.9" height="61"/>
            <rect class="st3" x="590.1" y="783.3" width="50.9" height="61"/>
          </g>
          <g id="_Grid_Repeat_-43">
            <rect class="st3" x="646.1" y="722.3" width="50.9" height="61"/>
            <rect class="st3" x="697" y="783.3" width="50.9" height="61"/>
          </g>
          <g id="_Grid_Repeat_-44">
            <rect class="st3" x="753" y="722.3" width="50.9" height="61"/>
            <rect class="st3" x="803.9" y="783.3" width="50.9" height="61"/>
          </g>
          <g id="_Grid_Repeat_-45">
            <rect class="st3" x="859.9" y="722.3" width="50.9" height="61"/>
            <rect class="st3" x="910.8" y="783.3" width="50.9" height="61"/>
          </g>
          <g id="_Grid_Repeat_-46">
            <rect class="st3" x="966.9" y="722.3" width="50.9" height="61"/>
            <rect class="st3" x="1017.8" y="783.3" width="50.9" height="61"/>
          </g>
          <g id="_Grid_Repeat_-47">
            <rect class="st3" x="1073.8" y="722.3" width="50.9" height="61"/>
            <rect class="st3" x="1124.7" y="783.3" width="50.9" height="61"/>
          </g>
          <g id="_Grid_Repeat_-48">
            <rect class="st3" x="1180.7" y="722.3" width="50.9" height="61"/>
            <rect class="st3" x="1231.6" y="783.3" width="50.9" height="61"/>
          </g>
          <g id="_Grid_Repeat_-49">
            <rect class="st3" x="1287.7" y="722.3" width="50.9" height="61"/>
            <rect class="st3" x="1338.6" y="783.3" width="50.9" height="61"/>
          </g>
          <g id="_Grid_Repeat_-50">
            <rect class="st3" x="1394.6" y="722.3" width="50.9" height="61"/>
            <rect class="st3" x="1445.5" y="783.3" width="50.9" height="61"/>
          </g>
          <g id="_Grid_Repeat_-51">
            <rect class="st3" x="1501.5" y="722.3" width="50.9" height="61"/>
            <rect class="st3" x="1552.4" y="783.3" width="50.9" height="61"/>
          </g>
          <g id="_Grid_Repeat_-52">
            <rect class="st3" x="1608.4" y="722.3" width="50.9" height="61"/>
            <rect class="st3" x="1659.4" y="783.3" width="50.9" height="61"/>
          </g>
          <g id="_Grid_Repeat_-53">
            <rect class="st3" x="1715.4" y="722.3" width="50.9" height="61"/>
            <rect class="st3" x="1766.3" y="783.3" width="50.9" height="61"/>
          </g>
          <g id="_Grid_Repeat_-54">
            <rect class="st3" x="1822.3" y="722.3" width="50.9" height="61"/>
            <rect class="st3" x="1873.2" y="783.3" width="50.9" height="61"/>
          </g>
          <g id="_Grid_Repeat_-55">
            <rect class="st3" x="4.5" y="850.4" width="50.9" height="61"/>
            <rect class="st3" x="55.4" y="911.4" width="50.9" height="61"/>
          </g>
          <g id="_Grid_Repeat_-56">
            <rect class="st3" x="111.4" y="850.4" width="50.9" height="61"/>
            <rect class="st3" x="162.4" y="911.4" width="50.9" height="61"/>
          </g>
          <g id="_Grid_Repeat_-57">
            <rect class="st3" x="218.4" y="850.4" width="50.9" height="61"/>
            <rect class="st3" x="269.3" y="911.4" width="50.9" height="61"/>
          </g>
          <g id="_Grid_Repeat_-58">
            <rect class="st3" x="325.3" y="850.4" width="50.9" height="61"/>
            <rect class="st3" x="376.2" y="911.4" width="50.9" height="61"/>
          </g>
          <g id="_Grid_Repeat_-59">
            <rect class="st3" x="432.2" y="850.4" width="50.9" height="61"/>
            <rect class="st3" x="483.1" y="911.4" width="50.9" height="61"/>
          </g>
          <g id="_Grid_Repeat_-60">
            <rect class="st3" x="539.2" y="850.4" width="50.9" height="61"/>
            <rect class="st3" x="590.1" y="911.4" width="50.9" height="61"/>
          </g>
          <g id="_Grid_Repeat_-61">
            <rect class="st3" x="646.1" y="850.4" width="50.9" height="61"/>
            <rect class="st3" x="697" y="911.4" width="50.9" height="61"/>
          </g>
          <g id="_Grid_Repeat_-62">
            <rect class="st3" x="753" y="850.4" width="50.9" height="61"/>
            <rect class="st3" x="803.9" y="911.4" width="50.9" height="61"/>
          </g>
          <g id="_Grid_Repeat_-63">
            <rect class="st3" x="859.9" y="850.4" width="50.9" height="61"/>
            <rect class="st3" x="910.8" y="911.4" width="50.9" height="61"/>
          </g>
          <g id="_Grid_Repeat_-64">
            <rect class="st3" x="966.9" y="850.4" width="50.9" height="61"/>
            <rect class="st3" x="1017.8" y="911.4" width="50.9" height="61"/>
          </g>
          <g id="_Grid_Repeat_-65">
            <rect class="st3" x="1073.8" y="850.4" width="50.9" height="61"/>
            <rect class="st3" x="1124.7" y="911.4" width="50.9" height="61"/>
          </g>
          <g id="_Grid_Repeat_-66">
            <rect class="st3" x="1180.7" y="850.4" width="50.9" height="61"/>
            <rect class="st3" x="1231.6" y="911.4" width="50.9" height="61"/>
          </g>
          <g id="_Grid_Repeat_-67">
            <rect class="st3" x="1287.7" y="850.4" width="50.9" height="61"/>
            <rect class="st3" x="1338.6" y="911.4" width="50.9" height="61"/>
          </g>
          <g id="_Grid_Repeat_-68">
            <rect class="st3" x="1394.6" y="850.4" width="50.9" height="61"/>
            <rect class="st3" x="1445.5" y="911.4" width="50.9" height="61"/>
          </g>
          <g id="_Grid_Repeat_-69">
            <rect class="st3" x="1501.5" y="850.4" width="50.9" height="61"/>
            <rect class="st3" x="1552.4" y="911.4" width="50.9" height="61"/>
          </g>
          <g id="_Grid_Repeat_-70">
            <rect class="st3" x="1608.4" y="850.4" width="50.9" height="61"/>
            <rect class="st3" x="1659.4" y="911.4" width="50.9" height="61"/>
          </g>
          <g id="_Grid_Repeat_-71">
            <rect class="st3" x="1715.4" y="850.4" width="50.9" height="61"/>
            <rect class="st3" x="1766.3" y="911.4" width="50.9" height="61"/>
          </g>
          <g id="_Grid_Repeat_-72">
            <rect class="st3" x="1822.3" y="850.4" width="50.9" height="61"/>
            <rect class="st3" x="1873.2" y="911.4" width="50.9" height="61"/>
          </g>
          <g id="_Grid_Repeat_-73">
            <rect class="st3" x="4.5" y="978.5" width="50.9" height="61"/>
            <rect class="st3" x="55.4" y="1039.4" width="50.9" height="61"/>
          </g>
          <g id="_Grid_Repeat_-74">
            <rect class="st3" x="111.4" y="978.5" width="50.9" height="61"/>
            <rect class="st3" x="162.4" y="1039.4" width="50.9" height="61"/>
          </g>
          <g id="_Grid_Repeat_-75">
            <rect class="st3" x="218.4" y="978.5" width="50.9" height="61"/>
            <rect class="st3" x="269.3" y="1039.4" width="50.9" height="61"/>
          </g>
          <g id="_Grid_Repeat_-76">
            <rect class="st3" x="325.3" y="978.5" width="50.9" height="61"/>
            <rect class="st3" x="376.2" y="1039.4" width="50.9" height="61"/>
          </g>
          <g id="_Grid_Repeat_-77">
            <rect class="st3" x="432.2" y="978.5" width="50.9" height="61"/>
            <rect class="st3" x="483.1" y="1039.4" width="50.9" height="61"/>
          </g>
          <g id="_Grid_Repeat_-78">
            <rect class="st3" x="539.2" y="978.5" width="50.9" height="61"/>
            <rect class="st3" x="590.1" y="1039.4" width="50.9" height="61"/>
          </g>
          <g id="_Grid_Repeat_-79">
            <rect class="st3" x="646.1" y="978.5" width="50.9" height="61"/>
            <rect class="st3" x="697" y="1039.4" width="50.9" height="61"/>
          </g>
          <g id="_Grid_Repeat_-80">
            <rect class="st3" x="753" y="978.5" width="50.9" height="61"/>
            <rect class="st3" x="803.9" y="1039.4" width="50.9" height="61"/>
          </g>
          <g id="_Grid_Repeat_-81">
            <rect class="st3" x="859.9" y="978.5" width="50.9" height="61"/>
            <rect class="st3" x="910.8" y="1039.4" width="50.9" height="61"/>
          </g>
          <g id="_Grid_Repeat_-82">
            <rect class="st3" x="966.9" y="978.5" width="50.9" height="61"/>
            <rect class="st3" x="1017.8" y="1039.4" width="50.9" height="61"/>
          </g>
          <g id="_Grid_Repeat_-83">
            <rect class="st3" x="1073.8" y="978.5" width="50.9" height="61"/>
            <rect class="st3" x="1124.7" y="1039.4" width="50.9" height="61"/>
          </g>
          <g id="_Grid_Repeat_-84">
            <rect class="st3" x="1180.7" y="978.5" width="50.9" height="61"/>
            <rect class="st3" x="1231.6" y="1039.4" width="50.9" height="61"/>
          </g>
          <g id="_Grid_Repeat_-85">
            <rect class="st3" x="1287.7" y="978.5" width="50.9" height="61"/>
            <rect class="st3" x="1338.6" y="1039.4" width="50.9" height="61"/>
          </g>
          <g id="_Grid_Repeat_-86">
            <rect class="st3" x="1394.6" y="978.5" width="50.9" height="61"/>
            <rect class="st3" x="1445.5" y="1039.4" width="50.9" height="61"/>
          </g>
          <g id="_Grid_Repeat_-87">
            <rect class="st3" x="1501.5" y="978.5" width="50.9" height="61"/>
            <rect class="st3" x="1552.4" y="1039.4" width="50.9" height="61"/>
          </g>
          <g id="_Grid_Repeat_-88">
            <rect class="st3" x="1608.4" y="978.5" width="50.9" height="61"/>
            <rect class="st3" x="1659.4" y="1039.4" width="50.9" height="61"/>
          </g>
          <g id="_Grid_Repeat_-89">
            <rect class="st3" x="1715.4" y="978.5" width="50.9" height="61"/>
            <rect class="st3" x="1766.3" y="1039.4" width="50.9" height="61"/>
          </g>
          <g id="_Grid_Repeat_-90">
            <rect class="st3" x="1822.3" y="978.5" width="50.9" height="61"/>
            <rect class="st3" x="1873.2" y="1039.4" width="50.9" height="61"/>
          </g>
        </g>
      </g>
      <ellipse class="st11" cx="965.4" cy="441.4" rx="273" ry="308.4" transform="translate(480.3 1385.6) rotate(-87.4)"/>
      <path class="st2" d="M951.3,716c-171.1-8.1-304.3-138.1-297-289.7s152.6-268.2,323.7-259.9c171.1,8.1,304.3,138.1,297,289.7-7.4,151.5-152.6,268.2-323.7,259.9h0ZM977.8,170.6c-168.6-8-311.7,106.8-318.9,255.9s124,277.1,292.6,285.1c168.6,8,311.7-106.8,318.9-255.9,7.2-149.1-124-277.1-292.6-285.1h0Z"/>
      <path class="st2" d="M955.2,631.8c-118.6-5.7-211-95.2-205.9-199.8,5.1-104.5,105.7-184.9,224.3-179.2,118.6,5.7,211,95.3,205.9,199.8-5.1,104.5-105.7,184.8-224.3,179.2h0ZM973.4,257c-116.1-5.6-214.6,73-219.5,175.1-5,102.1,85.4,189.7,201.5,195.3,116.1,5.6,214.6-73,219.5-175.1,5-102.1-85.4-189.7-201.5-195.3h0Z"/>
      <path class="st7" d="M1366.8,915c-17.3,9.1-38.2,13.3-56.9,6.3-18.7-7-33.7-27.6-30.3-47.5.7-4,2-8,.7-11.9-2.2-6.8-11.1-8.9-17.7-6.7s-11.9,6.9-18.2,9.4c-12.6,5.1-28.6-.3-36.4-12.2-3.8-5.8-5.7-12.7-10.4-17.7-12.7-13.7-34.4-4.6-49.1,5.9-14.6,10.4-34.8,21.3-49.2,9.5-9.7-7.8-11.8-23-22-30.2-18.5-12.8-42.2,11.8-63.3,4.9-16.3-5.4-21.1-31.7-7.5-41.7,23-16.8,62.4,18.2,82.1-2.6,10.9-11.5,5.5-31,7.7-47,2.4-17.4,15.1-32.2,31.4-36.9,27.6-7.7,61.5,11.9,84.7-5,20.1-14.6,17.4-45.4,21.2-70.6,1.8-12.2,5.9-24.5,14.3-33.1s21.8-12.9,33.1-7.8c17.3,7.7,21,31.1,20.8,50.2s-.3,41.5,14.3,53.8c18.8,15.7,47.4,1.6,59.4-19s14.8-46,26.1-67.2c11.7-21.7,33.7-38,58.2-38.7s50.1,16.4,56.5,41c6.4,24.4-5.8,49-19.4,69.3-13.6,20.3-29.5,40.8-31.5,65.7-1.9,23.4,9.2,46.8,25.2,64.4,7.4,8.1,16.6,17.1,15.6,27.9-.6,6.8-5.3,12.4-10.2,17-11.2,10.4-25.3,18.5-40.6,18.4-13.4,0-23-9.7-34.3-13.7-12.5,27.6-27.1,51.6-54.3,66h0v.2Z"/>
      <path class="st7" d="M1264.5,577.2c5.9-1.2,11.9-.8,17.2,1.6,18.3,8.2,21.8,32.5,21.7,51.6-.2,18.2-.4,40.7,13.8,52.7,6.4,5.4,14.6,7.4,23.5,5.9,13.1-2.3,26.3-11.9,33.6-24.5,6.2-10.6,9.9-22.7,13.6-34.4,3.4-11,7-22.4,12.5-32.6,12.8-23.6,35.6-38.8,59.5-39.5,26.1-.8,51.6,17.8,58,42.1,7,26.5-7.8,52.9-19.6,70.4-1.6,2.4-3.2,4.8-4.8,7.1-12.1,17.9-24.7,36.2-26.5,57.8-1.7,21,7.3,44.1,24.8,63.3.6.7,1.2,1.3,1.8,2,7.1,7.7,15.1,16.4,14.2,27-.7,7.7-6.1,13.6-10.7,17.9-9.3,8.6-24.1,18.9-41.7,18.8-9,0-16.2-4.2-23.2-8-3.5-2-6.8-3.9-10.3-5.2-11.5,25.2-26.2,50.4-54.4,65.4-11.7,6.2-34.7,15.2-58.2,6.3-20.5-7.7-34.5-29.8-31.3-49.1,0-.8.3-1.6.4-2.4.6-3.1,1.2-6.1.3-8.7-.9-2.8-3-4.4-4.6-5.2-3.2-1.6-7.5-1.9-11.1-.7-3.4,1.1-6.4,3-9.6,4.9-2.7,1.7-5.5,3.4-8.5,4.6-13.3,5.4-30.1-.3-38.3-12.8-1.5-2.4-2.8-4.9-4-7.3-1.8-3.8-3.6-7.2-6.2-10.1-3.6-3.9-17.6-14.9-47,6.1-22.6,16.1-39.3,19.1-51.1,9.5-4.9-4-7.9-9.6-10.8-15.1-3.1-5.9-6.1-11.5-11.1-15-9.3-6.4-20.2-2.7-31.8,1.3-10.3,3.5-20.9,7.1-31.1,3.9-8.3-2.7-14.5-10.7-16.1-20.9-1.5-9.6,1.6-18.6,8.1-23.3,11.7-8.5,27.2-4.5,42.2-.4,15.5,4.2,30.2,8,39.7-2,7-7.4,6.9-18.4,6.8-30.1,0-5.5,0-11,.6-16.3,2.4-18.1,15.5-33.3,32.5-38.1,12.2-3.5,25.6-1.7,38.5,0,17,2.3,33.1,4.5,45.8-4.8,15-10.9,16.9-31.8,18.7-52.2.5-5.9,1.1-11.9,1.9-17.6,2.2-14.8,7.1-26.2,14.7-33.9,4.9-5.1,11.2-8.4,17.6-9.8h0ZM1342.4,691.6c-.4,0-.8.2-1.2.2-9.9,1.7-18.8-.5-26-6.5-15.3-12.8-15.1-36.1-14.9-54.9.2-18.2-3.1-41.3-19.9-48.9-9.9-4.5-22.8-1.4-31.3,7.4-7.1,7.3-11.8,18.2-13.9,32.3-.8,5.6-1.4,11.5-1.9,17.4-1.8,20.9-3.8,42.6-19.9,54.3-13.7,9.9-31.1,7.6-48,5.4-12.6-1.7-25.7-3.5-37.2-.2-15.8,4.5-28,18.8-30.3,35.6-.7,5.1-.6,10.5-.6,15.8.2,11.7.3,23.8-7.6,32-10.8,11.3-27,7-42.8,2.8-14.3-3.8-29-7.7-39.5,0-5.6,4.2-8.3,11.9-7,20.4,1.4,8.9,6.9,16.3,14,18.7,9.3,3,19.4-.5,29.2-3.8,11.8-4.1,23.9-8.2,34.5-.9,5.6,3.9,8.9,10,12.1,16,2.8,5.3,5.7,10.6,10.1,14.2,10.6,8.6,26.1,5.5,47.3-9.6,8-5.7,35.2-22.8,51.1-5.7,2.9,3.2,4.9,7,6.7,10.8,1.2,2.4,2.4,4.9,3.8,7,7.4,11.3,22.6,16.5,34.6,11.6,2.8-1.1,5.3-2.7,8.1-4.3,3.2-2,6.6-4,10.3-5.2,4.4-1.4,9.5-1.1,13.4.9,3.1,1.5,5.2,3.9,6.1,6.8,1.1,3.5.4,6.8-.2,10.2-.2.8-.3,1.6-.4,2.3-3,18.1,10.2,38.6,29.4,45.8,22.3,8.4,44.4-.2,55.6-6.2h0c27.9-14.7,42.3-40.1,53.7-65.2l.6-1.3,1.3.5c4.2,1.5,8.3,3.8,12.1,6,6.7,3.8,13.5,7.6,21.7,7.6,16.6,0,30.7-9.6,39.5-17.9,4.2-4,9.2-9.2,9.8-16,.8-9.3-6.4-17.2-13.4-24.8-.6-.7-1.2-1.3-1.8-2-18-19.7-27.4-43.7-25.6-65.5,1.8-22.4,14.6-41.2,27-59.2,1.6-2.4,3.2-4.8,4.8-7,11.4-17.1,25.8-42.8,19.2-68.2-6.1-23-30.2-40.6-55-39.9-22.5.7-44.8,15.5-56.9,37.9-5.4,10-8.9,21.2-12.3,32.1-3.7,11.9-7.5,24.2-13.9,35-7.6,12.9-21,22.9-34.5,25.8h0Z"/>
      <path class="st7" d="M546.8,363.2c3,2.9,4.2,7,3.5,12.5-.6,5.5-3.1,11.4-7.4,18-1.1,1.7-2.4,3.3-4,5-2.8,3-4.3,4.7-4.4,4.8-1.4,1.7-2.8,3.4-4.3,5.1-1.4,1.7-3,3-4.6,3.8-2.3,1.3-5.1,1.6-8.2,1.2-3.7-.5-6.2-.5-7.4,0-.7.4-2.1,1-3.2,1s-1.3-1-1.5-2.2,0-2.4.3-3.5c.2-.6.7-1.5,1.5-2.9,1.8-2.9,4.1-6.3,7-10s4.7-5.8,5.3-6c.6-.2,2.5.4,5.8,2,3,1.4,5,1.6,6.3.5.3-.2.6-.5.8-.9,1-1.5,1.1-3.3.5-5.5s-1.8-4.1-3.4-5.6c-3.6-3.2-7.5-3.2-11.5,0-9.2,7.5-16.3,12.7-21.3,15.1-5.8,2.7-10.5,2.5-14.1-.9-3-2.9-4.9-7.6-5.7-14.5s0-12.9,2.5-18.2c1-2.2,5.8-7.6,14.2-15.9,2.1-2.1,4.2-4.1,6.3-6.2,2.1-2,4.2-3.4,6.2-4,3-1,6.3,0,9.9,3.3.7.6,1.6,1.5,2.8,2.8,1.1,1.1,1.8,2,2.3,2.3.3.2,1.1.4,2,.5.7,0,1.3.3,1.7.8,1.6,1.8,1.7,4.2,0,7.1-1,1.7-3.3,4.3-6.9,7.9-4,4.1-6.9,6.4-8.6,6.9-.2,0-.7-.2-1.4-.8-.6-.5-2-1.9-4-4.1-2.1-2.2-3.6-3.7-4.6-4.5-1.8-1.5-3-1.8-3.5-1-1.6,2.7-2,5.7-1.3,8.8.7,3.2,2.3,5.8,4.6,7.5,3.9,3.1,8.1,3.1,12.3,0,4.7-3.4,9.5-6.9,14.3-10.2,4.5-3.1,8.2-4.8,10.9-5,3.4-.3,6.9,1.3,10.4,4.7h0Z"/>
      <path class="st7" d="M559.2,264.1c-.4-.5,3.4,3.7,11.1,12.5,10.7,12.2,31.5,37.6,19.9,54.9-1.4,2-3.5,4-6.1,6-2.7,2.1-5.4,4.1-7.8,6.2-2.1,1.8-4.2,3.9-6.4,5.8s-4.2,3.2-6,3.6c-4,1-9.7-.6-17-4.8-6.8-3.9-13.7-9-20.6-15.6-5.3-5-9.6-9.9-13-14.8-1-1.5-1.1-3.5,0-5.8.5-1,3-3.9,7.5-8.3s7.4-6.7,8.5-7c.5,0,1,0,1.4.4.5.5,1,1.6,1.3,3.3.3,1.7,1,2.8,1.4,3.2.6.7,2.5,3.6,6.2,7.2,7,7.1,13.9,13,20.4,17.9,8.3,6.2,13.4,8,15.3,5.4,2.4-3.5,1-9.7-4.1-18.7-4-6.9-9.4-14.3-16.4-21.7-4.6-5-8.3-7.6-9.3-8.5-.6-.5-1.3-1.4-2.3-1.6-1.4-.3-2.1-.4-2.2-.5-1.7-1-2.1-2.9-1.1-5.7.2-.5.6-1.2,1.3-2.1,1.8-2.2,4.6-5.1,8.5-8.3s6.3-5,7.2-5.2c.6,0,1.5.7,2.4,2.4h-.1Z"/>
      <path class="st7" d="M641.4,255.9c2.5,3.8,3.1,8.1,1.8,13.3s-4.5,10-9.4,15.1c-1.3,1.2-2.8,2.4-4.5,3.5-3.1,2-4.7,3.1-4.8,3.2-1.6,1.2-3.2,2.4-4.8,3.5-1.6,1.2-3.2,1.9-4.9,2.2-2.4.5-5.1,0-8-1.5-3.4-1.7-5.9-2.5-7.1-2.5-.8,0-2.2.3-3.2,0-.6-.3-1.1-1.4-1.2-2.6,0-1.2.2-2.3.8-3.3s.9-1.2,1.8-2.2c2-2.2,4.7-4.7,8-7.4,3.3-2.7,5.2-4.1,5.8-4.1s2.4,1.2,5.3,3.8c2.7,2.4,4.6,3.2,5.9,2.5.3,0,.6-.4.9-.6,1.1-1.1,1.5-2.8,1.2-5.2-.3-2.3-1.2-4.5-2.6-6.4-3-4.3-6.7-5.5-11-3.6-9.8,4.3-17.3,7-22.4,7.6-5.9.7-10.4-1-13.4-5.5-2.5-3.7-3.7-8.9-3.6-15.8.2-6.8,1.8-12.4,4.7-16.7,1.3-1.8,6.5-5.6,15.7-10.7,2.2-1.3,4.5-2.7,6.8-3.9s4.5-1.9,6.4-1.9c3,0,6,2.1,9.1,6.3.6.8,1.4,2,2.4,3.6.9,1.4,1.5,2.5,1.9,2.9.2.3,1,.7,1.9,1.1.7.3,1.2.7,1.5,1.3,1.3,2.3,1.1,4.6-.9,6.8-1.1,1.3-3.7,3.1-7.7,5.5-4.4,2.7-7.4,4.1-9.2,4-.2,0-.7-.4-1.3-1.3-.5-.7-1.7-2.5-3.3-5.2-1.7-2.8-3-4.7-3.8-5.9-1.6-2.1-2.6-2.7-3.2-2-1.9,2.1-2.7,4.8-2.4,8.1.3,3.3,1.4,6.3,3.4,8.7,3.3,4.2,7.4,5.7,11.8,4.1,4.9-1.7,10-3.7,15-5.4,4.7-1.6,8.5-2,11.1-1.4,3.3.8,6.5,3.4,9.4,7.7h0Z"/>
      <path class="st7" d="M710.4,213c.2.6.7,1.9,1.5,3.9.4,1.1.6,2,.4,2.8-.2.4-.7.8-1.5,1.3-2.1,1.4-5,2.6-8.4,3.9-3.7,1.3-6.6,2-8.4,1.6-.8,0-2.2-1.5-4.2-3.9-2.7-3.2-5.2-5.7-7.4-7.3-2.3,2.1-5.3,5.5-9.2,10.2s-6.9,8.6-7.1,10c-.3,2.2.9,6.8,1.4,11.4.3.9.5,1.8.7,2.6s0,1.8-.6,3c0,.3-.4.5-.7.8-1.5,1.2-4.3,2.6-8.5,4.2s-6.5,2.4-6.9,2.1c-.7-.5-1.3-2.8-1.7-6.8-.7-5.8-1.2-9.3-1.5-10.5-2,0-3.3-.5-4-1.6-.2-.3-.3-.6-.5-.9-.3-.7.9-3.5,3.5-8.2-3.3-14.9-6.4-29.8-9.5-44.7-.2-.8-.9-2-2.1-3.5-1-1.3-1.4-2.4-1.1-3.2.2-.5.9-1.4,2.2-2.4,3.1-2.6,8-5.7,14.7-9,6.6-3.4,10.8-4.8,12.6-4.6,6,8.5,13.1,16.5,19.9,24,8,8.8,16.3,18.4,26.6,24.9h-.2ZM671.7,205.6c-2.8-2.8-4.6-4.6-5.5-5.6-2.8-3.1-5.5-6.3-8.1-10,.3,3.7.9,8.5,2,14.5,1.1,6.3,1.9,10.1,2.5,11.5,1-1.4,4-5,9.1-10.4h0Z"/>
      <path class="st7" d="M746,111.2c.3.6.4,1.4.4,2.1v2.9c8.5,19.9,16.7,39.9,24.6,59.9,0-.2.5.9,1.8,3.2,1.5,2.6,1.8,4.7,1,6.1s-3.4,2.9-7.6,4.6c-2.4,1-5.4,1.7-8.8,2.4-4.4.9-7.5.8-8,0-.4-.6-1-2.1-2-3.7-8.2-7.5-17.1-14.5-26-21.3,4.1,8.6,8.1,17.3,12.1,25.9.2.5.7,1,1.5,1.5,1,.7,1.6,1,1.6,1.1.7.7,1.3,1.5,1.7,2.4,1.1,2.4.4,4.2-1.9,5.6-2.2,1.3-5.7,2.7-10.3,4-4.3,1.2-7,1.7-7.8,1.4-1.2-.4-1.8-1.6-1.7-3.6s0-3.1-.2-3.4c-8.8-17.9-17.9-35.6-27.2-53.3-.2-.3-.5-.8-1.1-1.3s-.9-1.1-1-1.5c-.3-2.4.3-4.6,2-6.5.3-.3,1-.9,2.2-1.7,2.7-1.8,5.7-3.3,8.8-4.5,4-1.6,7.2-2.3,9.2-1.9,2.8.5,8,4.3,15.2,11.5,8.9,8.8,15.2,14.8,19,17.7-5.1-11.7-10.3-23.3-15.6-34.9-.2-.5-.7-1.1-1.3-1.8-.7-.7-1.1-1.3-1.3-1.8-.2-.4-.2-.7-.2-1.1,0-1.1.9-2.7,3-4.5,1.7-1.4,3.4-2.6,5.2-3.3,1.7-.8,3.8-1.5,6.3-2.1,3.7-.9,5.8-.7,6.2.2h.2Z"/>
      <path class="st7" d="M817.5,82.3c.2.7.3,1.4.2,2.2-.2,1.2-.2,2.2-.2,2.9,6.8,21.1,13.3,42.4,19.5,63.7,0-.2.5,1,1.6,3.5,1.3,2.9,1.4,5,.5,6.2-1,1.3-3.6,2.3-7.9,3.2-2.5.5-5.5.8-8.9.9-4.4,0-7.5-.4-8-1.5-.3-.7-.8-2.3-1.6-4-7.5-8.9-15.7-17.3-24-25.6,3.4,9.2,6.7,18.5,9.9,27.8.2.5.7,1.1,1.4,1.7,1,.8,1.5,1.3,1.5,1.4.7.8,1.2,1.7,1.5,2.7.9,2.5,0,4.3-2.3,5.2s-5.9,1.6-10.5,2.1c-4.4.5-7,.5-7.8,0-1.2-.6-1.7-1.9-1.4-3.8.2-1.9.3-3.1,0-3.4-7.3-19.2-14.9-38.5-22.6-57.6-.2-.4-.5-.9-1-1.5s-.8-1.2-.8-1.7c0-2.4.7-4.5,2.5-6.2.3-.3,1.1-.7,2.3-1.3,2.8-1.3,5.9-2.3,9.1-3,4.1-.9,7.2-1,9.3-.2,2.7,1,7.5,5.7,14.2,14,8.1,10.3,13.8,17.3,17.3,20.7-4.1-12.5-8.3-24.9-12.7-37.3-.2-.5-.6-1.2-1.2-2-.6-.8-1-1.5-1.2-2,0-.4-.2-.8-.2-1.1,0-1.2,1.2-2.5,3.4-3.9,1.8-1.1,3.5-1.9,5.4-2.4,1.7-.5,3.9-.8,6.4-1,3.7-.2,5.8.3,6.2,1.3h0Z"/>
      <path class="st7" d="M892.5,133.9c0,1.2-.3,2.5-1,4s-1.4,2.4-2.1,2.8c-.2,0-.6,0-1.2-.2-.6-.2-1.1-.3-1.4-.2,0,0-.3,0-.4.2-2,1-4,2.1-5.8,3.5-4.6,3.2-8.5,6.9-11.8,11.4-7.4-1.3-11.5-1.8-12.2-1.9-4.7-.8-7.1-1.5-7.4-2.4-6.8-24.5-13.9-48.9-21.3-73.2,0-.4.5-1.4,2-2.7s2.7-2.1,3.5-2.2c.9-.2,2.8-.2,5.8,0s5.3.2,7-.2c2.2-.6,5-2.1,8-4.7,2.8-2.4,4.7-3.6,5.6-3.5,1.9.2,5.1,1.3,9.4,3.6,4.3,2.3,6.7,4.1,7.3,5.3.3.6-.2,1.7-1.3,3.5-1.2,1.8-2.2,2.7-3.2,2.9-.8.2-1.4.2-1.8,0s-.7,0-.8,0c-2.5,1.1-4.8,2.2-6.9,3.4-5,2.8-8.5,5.7-10.5,8.4,1.8,6.4,2.6,9.6,4.3,16.1,2.2-1.8,5.1-3.7,8.8-5.8,1.1-.4,3.9.6,8.4,3s6.8,4.3,7.1,5.5c.2.7,0,1.7-.9,2.9s-1.6,2-2.4,2.4c-.7,0-1.9.4-3.7.9-2.6,1-6.8,4.1-12.6,9.2,1.1,4.2,1.6,6.3,2.7,10.4,1.8-1.7,4.2-3.7,7.5-6,3.2-2.4,5.2-3.6,6.1-3.7,1-.2,3.8.8,8.4,3.1,4.6,2.3,6.9,3.9,6.9,4.7h0v-.4Z"/>
      <path class="st7" d="M969,129.9c0,1.2-.5,2.4-1.4,3.8-.8,1.3-1.6,2.1-2.4,2.4-.2,0-.6,0-1.2-.4-.6-.3-1.1-.5-1.4-.5h-.4c-2.1.6-4.1,1.4-6.1,2.4-4.8,2.3-9.1,5.4-12.8,9-7.3-2.7-11.3-4-12-4.2-4.6-1.6-7-2.8-7.1-3.7-4.5-25.6-9.4-51.1-14.5-76.6,0-.5.7-1.2,2.2-2.3s2.8-1.6,3.7-1.6,2.8.4,5.8,1.2c2.9.8,5.2,1.2,7,1.1,2.3,0,5.1-1.2,8.4-3.2,3-1.9,5-2.7,5.9-2.5,1.9.5,4.9,2.3,9,5.3,4.1,3.1,6.3,5.3,6.8,6.6.2.6-.3,1.7-1.6,3.2s-2.5,2.3-3.4,2.3-1.4,0-1.8-.3c-.4-.2-.7-.3-.8-.2-2.6.6-5,1.3-7.2,2.1-5.2,1.8-8.9,4-11.1,6.3,1.2,6.6,1.7,10,2.9,16.7,2.3-1.3,5.4-2.7,9.3-4.1,1.2-.2,3.9,1.3,8.1,4.6,4.2,3.2,6.4,5.5,6.5,6.7,0,.8-.3,1.7-1.1,2.7s-1.7,1.7-2.6,1.9c-.7,0-2,0-3.7.2-2.7.5-7.1,2.7-13.3,6.8.7,4.3,1,6.4,1.7,10.8,1.9-1.3,4.5-2.8,7.9-4.6,3.4-1.7,5.5-2.6,6.4-2.6s3.7,1.5,8.1,4.7c4.4,3.1,6.5,5.2,6.5,6h-.3Z"/>
      <path class="st7" d="M1034.9,137.1c.8,1-.4,4-3.3,8s-5.3,5.9-7.4,5.5c-2.2-.5-4-2-5.5-4.5-.2-.7-.8-1.9-1.7-3.3-7.8-8-15.7-15.8-23.8-23.5.7,7.7,1.1,11.6,1.8,19.3,0,.8.5,1.8,1.1,3,.7,1.3,1.1,2.2,1.1,2.7.2,2.1-1.1,3.1-3.7,3-2,0-5.2-.7-9.3-2-4.5-1.4-6.8-2.5-6.9-3.6,0-.4,0-.8,0-1.4,0-.6,0-1.3,0-2.2-2.7-24.2-5.7-48.4-8.9-72.5,0-.5-.2-.9-.5-1.3s-.4-.7-.5-.9c-.2-1.9,1.2-3,4.1-3.2.9,0,3,.3,6.3,1.3s5.7,1.5,7,1.6c1.3,0,3.8-.7,7.6-2.2,3.8-1.5,7.2-2.1,10.1-1.7,1.1,0,2.3.4,3.6.7,2.2.7,4.2,1.8,6,3.5,1.9,1.7,3.7,3.3,5.3,5,4.4,4.3,6.7,6.5,6.9,6.7,2.1,2.4,3.4,5.1,3.6,7.5,1,11.9-11.1,20.7-19.4,28,7.3,7.2,14.2,14.8,20.9,22.6.6.3,1.6.9,2.8,1.8.7.5,1.8,1.2,2.5,2.1h.1ZM1007,74.4c-3.5-.4-9.4,2.2-17.5,8.3.7,6.3,1,9.6,1.7,16,3-.9,6.7-4.1,11.3-9.5s6.8-9.5,6.6-12.5c0-1.4-.8-2.2-2.1-2.4h0Z"/>
      <path class="st7" d="M1112.3,158.7c-.2,5.2-2.1,8.7-5.6,10.8s-8.1,2-14,0c-1.5-.5-3.1-1.4-4.7-2.4-3.1-2-4.7-3-4.8-3.1-1.6-.9-3.3-1.8-4.9-2.7-1.7-.9-3.1-2.2-4.3-3.8-1.8-2.3-3.3-5.5-4.5-9.5-1.4-4.9-2.6-7.9-3.4-9.3-.6-.7-1.5-2-2-3.5-.3-.9,0-2.1.5-3,.6-.9,1.3-1.3,2.1-1.4.4,0,1.2,0,2.3.4,2.5.7,5.5,1.9,9,3.6s5.5,2.9,5.9,3.6c.4.6,1,3.4,1.6,8.1.6,4.4,1.4,7,2.7,8,.3.2.6.4.9.5,1.3.4,2.4-.3,3.4-2.2s1.5-4.3,1.6-7c.2-6.2-1.7-10.9-5.4-14.2-8.7-7.6-14.9-13.8-18.6-18.9-4.2-5.9-6.3-11.8-6-18.1.2-5.2,2.1-10,5.7-14.4s7.4-6.4,11.6-6.2c1.7.2,7,3.3,15.8,9.6,2.2,1.5,4.3,3.1,6.5,4.7s3.9,3.5,5.2,5.7c2,3.2,2.9,7.8,2.8,14,0,1.1,0,2.8-.2,5,0,1.9-.2,3.3-.2,4s.3,1.5.7,2.7c.3.9.4,1.8.3,2.5-.3,3-1.6,4.3-4.1,3.7-1.4-.3-4.1-1.9-7.9-4.5-4.2-2.9-7-5.3-8.1-7.1,0-.3-.2-1-.2-2.2s.2-3.4.4-7c.3-3.7.4-6.3.4-8,0-3.1-.4-4.7-1.1-4.8-2.3-.6-4.2.4-5.7,2.9-1.5,2.6-2.2,5.7-2.2,9.5,0,6.3,1.9,11.6,5.7,15.4,4.1,4.1,8.5,8.2,12.7,12.5,4,4.1,6.6,7.7,8.1,11,1.8,4.1,2.6,9.2,2.3,15.3h0l-.3-.2Z"/>
      <path class="st7" d="M1176.6,123.6c.2-.7-.3,6.2-1.9,20-1.2,10.4-3.2,56.5-22.6,52.6-1.9-.8-4.1-2.3-6.6-4.6s-5-4.6-7.5-6.5c-2-1.7-4.3-3.3-6.5-5.1-2.2-1.7-3.9-3.6-5.1-5.7-2.6-4.4-4.3-12.2-5.5-23.5-1.1-11.1-1.1-22.4-.8-33.4.3-9,1.2-17.1,2.4-23.6.4-2.1,1.5-3.1,3.4-3,.8,0,3.7,1.7,8.4,5.1,4.8,3.4,7.5,5.8,8.3,7,.3.6.5,1.2.5,1.9s-.5,2-1.3,3.3-1.1,2.6-1.2,3.3c-.2,1-.9,5-1.2,11.3-.6,11.4-1,22.9-.6,34.3.5,13.5,1.8,20.7,4.4,21.7,3.3,1.3,6.2-3.7,9-14.6,2.6-10.3,3.8-20.9,4.8-31.4.8-8.1.4-13.9.4-15.9s.2-2.4-.2-3.7c-.5-1.9-.8-2.9-.8-3-.3-2.6.7-4,2.8-4.2.4,0,1,.2,1.9.6,2.2,1.1,5.2,3.2,9.1,6.3,3.8,3.1,6.1,5.3,6.6,6.3.4.7.3,2.2-.2,4.2h0v.2Z"/>
      <path class="st7" d="M1223.1,224c-1.4,2.6-3,3.7-4.8,3.1-.6-.2-1.2-.6-2.1-1.4s-1.5-1.2-1.9-1.3c-6.2-1.6-9.2-2.4-15.4-3.7-.5,0-1.1.2-1.7.8s-1.2.9-1.7.7c-1.5-.4-4.4-2.9-8.8-7.4s-7-7.7-7.8-9.7c-.6-1.5-.6-3.4,0-5.6.3-1,.5-1.9.5-2.5,3.1-23.3,5.9-46.6,8.4-70,0-.8-.3-1.6-.7-2.3-.4-.7-.6-1.3-.5-1.6.2-1.2,1.7-1.5,4.1-.8,1.6.5,4.8,3,9.7,7.4,5.5,5.1,8.1,8.8,7.9,11,0,.6-.6,1.1-1.5,1.8-.9.6-1.4,1.2-1.5,1.8-2.5,19.1-5.2,38.2-8.1,57.3,4.4.9,6.6,1.3,11,2.3.7,0,1.9,0,3.7.5.9.5,3.2,3.7,6.6,9.6s4.9,9.3,4.4,10h.2Z"/>
      <path class="st7" d="M1272.1,200.2c-.5-.5-1.2-1.3-2.1-2.6-.8-1.2-1.6-2.1-2.2-2.4-4.4-2.4-6.6-3.5-11-5.8-3.6,17.8-7.3,35.5-11.2,53.3-.4,2-.5,4.5,0,7.4,0,.9-.3,2.1-1.1,3.7-.9,1.7-1.7,2.6-2.7,2.4,0,0-.5-.3-1-.7-2.1-1.7-4.8-4.6-8.3-8.3-3.9-4.3-6.2-7.2-6.8-8.7-.7-1.9-.3-3.5,1.1-4.8,1.2-1.1,1.8-2.1,2-2.9,3.3-16.8,6.5-33.6,9.5-50.5-3-1.4-4.6-2.1-7.6-3.5-.4-.2-1-.3-1.8-.4s-1.6-.3-2.1-.9c-1.5-1.5-3.3-5.1-5.5-10.7-2.2-5.6-3.1-9-2.5-10,.7-1.2,2.6-1.3,5.5-.3.7.3,1.7.9,2.8,1.8s2,1.5,2.6,1.9c12.9,5.7,25.4,11.9,37.8,18.5.4.2,1.4.6,3.2,1.3,1.2.4,2.2,1.1,3.1,2,1.9,1.9,3,3.8,3.4,5.6.3,1.2.5,3.2.5,5.9s0,5.9-.5,7.7c-.3,1.5-.8,2.5-1.3,2.9-.5.5-1.8-.2-3.8-1.8h0Z"/>
      <path class="st7" d="M1309.9,304.4c-.5.9-1.4,1.5-2.7,1.8-1.3.3-2.2.2-3-.2-.2,0-.5-.6-.9-1.4s-.7-1.4-1-1.7c0,0-.2-.2-.4-.3-2-1.4-4.1-2.6-6.2-3.6-5.1-2.5-10-3.8-14.7-4.1-5.2-8.6-8.1-13.3-8.6-14.1-3.3-5.4-4.8-8.4-4.6-9.3,6.4-25,12.6-50,18.3-75.1,0-.5,1.1-.4,2.8,0,1.8.6,3.1,1.2,3.8,2,.8.8,2.3,2.8,4.5,6.1,2.2,3.2,4,5.6,5.6,7,2,1.9,4.8,3.6,8.4,4.9,3.3,1.2,5.4,2.3,6,3.3,1.4,2.1,3.3,6.3,5.6,12.4,2.3,6.2,3.3,10,3.2,11.5,0,.7-.9,1.1-2.7,1.2s-3-.4-3.8-1.2c-.7-.7-1.2-1.4-1.5-1.9s-.5-.8-.6-.9c-2.5-1.9-4.8-3.5-7-4.8-5.2-3.2-9.3-4.7-12.1-4.8-1.7,6.4-2.5,9.7-4.3,16.2,2.5,1,5.8,2.6,9.7,5,1.1.9,2.8,4.6,5.1,10.9s3.3,10.2,2.9,11.3c-.2.7-.9,1.1-2.1,1.2s-2.2-.2-3-.8c-.6-.6-1.7-1.7-3.3-3.2-2.5-2-7.2-4.2-14.2-6.3-1.1,4.2-1.7,6.2-2.9,10.3,2.2.6,5.1,1.8,8.7,3.4s5.8,2.9,6.5,3.7c.8.9,2.6,4.6,5.1,11s3.6,10,3.2,10.7h0l.2-.3Z"/>
      <path class="st7" d="M1388.3,311.4c-.2.7-.6,1.2-1.1,1.5-.8.5-1.4,1-1.8,1.4-7.9,20.2-16.1,40.4-24.5,60.4,0-.2-.3,1.1-1,4-.9,3.2-1.9,4.6-3.3,4.1-1.3-.5-3.6-3.4-6.9-8.4-1.9-2.9-3.9-6.5-6.1-10.9-2.8-5.7-4.5-9.6-4.2-11,.2-.7.8-2.2,1.3-4.3.4-14.9.2-29.7-.2-44.5-3.2,9.3-6.5,18.7-9.9,28-.2.5-.2,1.4,0,2.7,0,1.7.2,2.6.2,2.7,0,1.3-.3,2.4-.6,3.4-.9,2.5-2.4,2.5-4.4,0-2-2.4-4.6-6.4-7.8-12-3-5.3-4.7-8.5-4.9-9.8-.3-1.8,0-3.1,1.3-3.9,1.2-.8,1.9-1.4,2-1.8,6.6-20,13-40.2,19.2-60.4,0-.4.2-1.1.2-2.1s.2-1.7.5-2c1.3-1.5,3-1.6,5.1-.3.4.2,1.1,1,2.2,2.2,2.5,2.8,4.9,6.1,7.3,9.7,3.1,4.7,5.1,8.5,5.9,11.5,1.1,4,1.5,12.6.8,25.6-.6,11.1-1.4,22.3-1.1,33.5,4.7-12.2,9.2-24.5,13.6-36.8.2-.5.3-1.4.4-2.6,0-1.2.2-2.1.4-2.6,0-.4.4-.6.6-.8.7-.6,2.2,0,4.3,2.1,1.7,1.6,3.3,3.5,4.8,5.5,1.4,2,2.9,4.5,4.6,7.6,2.5,4.6,3.5,7.5,3.2,8.6h0v-.2Z"/>
      <path class="st7" d="M1392.4,388c-1,2-2.2,2.4-3.2,1.3-.3-.4-.6-.8-.8-1.2-1.6-2.4-3.2-6.1-5.1-11-1.8-5-3.1-9.5-3.8-13.7-.3-1.8.3-3.2,1.8-4.4s2.4-1.8,2.4-1.8c4.9-11.4,9.6-22.9,14.3-34.5.6-1.6,2-1.5,4,.5.4.4.9,1,1.6,2,1.7,2.4,3.4,5.5,5.2,9.3,1.8,3.9,2.8,6.5,2.9,8.2,0,.4-.6,2.1-1.9,5.2-5.3,12.2-10.7,24.4-16.2,36.5-.2.4-.3,1-.5,1.8-.2.9-.4,1.5-.6,1.9h-.1ZM1386.5,400.8c0,.8-.8,2.2-2,4.3-1.6,2.7-2.6,4.5-3,5.1-1.1,2.4-2.1,4-2.9,5s-1.8.7-3-.8c-.7-.8-2.2-4.2-4.6-10-2.5-6.3-3.8-10.3-4-12.4,0-1.2.6-2.2,1.8-2.6.6-.2,1.4-1.1,2-2.5.5-1.3,1.5-4.3,3.3-7.5,1-1.8,2.5-1.7,3.8.5,1.5,2.4,3.3,6.2,5.4,11.5s3.1,8.4,3,9.4h.2Z"/>
      <path class="st5" d="M682.5,837.7h10c1.3,0,2.5,1,2.5,2.2v52.4c0,1.2-1.1,2.2-2.5,2.2h-10c-1.3,0-2.5-1-2.5-2.2v-52.4c0-1.2,1.1-2.2,2.5-2.2h0Z"/>
      <path d="M692.5,894.7h-10c-1.5,0-2.6-1.1-2.6-2.3v-52.4c0-1.3,1.2-2.3,2.6-2.3h10c1.5,0,2.6,1.1,2.6,2.3v52.4c0,1.3-1.2,2.3-2.6,2.3ZM682.5,837.9c-1.3,0-2.2.9-2.2,2v52.4c0,1.1,1,2,2.2,2h10c1.3,0,2.2-.9,2.2-2v-52.4c0-1.1-1-2-2.2-2h-10Z"/>
      <path class="st5" d="M642,837.4h9.3c1.3,0,2.5,1,2.5,2.2v52.4c0,1.2-1.1,2.2-2.5,2.2h-9.3c-1.3,0-2.5-1-2.5-2.2v-52.4c0-1.2,1.1-2.2,2.5-2.2h0Z"/>
      <path d="M651.3,894.3h-9.3c-1.5,0-2.6-1.1-2.6-2.3v-52.4c0-1.3,1.2-2.3,2.6-2.3h9.3c1.5,0,2.6,1.1,2.6,2.3v52.4c0,1.3-1.2,2.3-2.6,2.3ZM642,837.5c-1.3,0-2.2.9-2.2,2v52.4c0,1.1,1,2,2.2,2h9.3c1.3,0,2.2-.9,2.2-2v-52.4c0-1.1-1-2-2.2-2h-9.3Z"/>
      <path class="st5" d="M665.1,632.8c-34.1,0-61.8-22.1-61.8-49.5v-8.1c0-27.4-.4-82.1,33.7-82.1l49.7-2.1c34.1,0,40.1,56.8,40.1,84.2v8.1c0,27.4-27.6,49.5-61.8,49.5h0Z"/>
      <path d="M673.7,557.8c4-6.7,15.2-7.7,19.8-2.4,3.9,4.7,2.4,13.2-3,17.3-3.4,2.6-8.9,3.9-13.2,1.2-5.4-3.3-6.6-11.1-3.6-16.1h0Z"/>
      <path class="st6" d="M673.5,561.7c4.1-6.1,15.4-6.9,20-2.2,4,4.2,2.4,11.9-3,15.7-3.4,2.3-8.9,3.5-13.3,1.1-5.4-3-6.7-10-3.6-14.5h-.1Z"/>
      <path class="st1" d="M678.1,564.7c3-5,11.5-5.8,15-1.7,3,3.4,1.8,9.7-2.3,12.7-2.5,1.9-6.7,2.8-10,.9-4.1-2.4-5-8.1-2.8-11.8h0Z"/>
      <path d="M681.4,566.2c1.6-4.1,6.1-4.8,7.9-1.5,1.6,2.8,1,7.9-1.2,10.5-1.3,1.5-3.6,2.3-5.3.7-2.2-2-2.7-6.7-1.4-9.8h0Z"/>
      <path d="M694.6,557.5l-.3-.6h0c1-.5,3.9-3.5,4.2-4.4h.7c-.5,2.1-2.1,3.9-4.6,5h0Z"/>
      <path d="M691.5,557.3l-.3-.6h0c1-.5,3.9-3.5,4.2-4.4h.7c-.5,2.1-2.1,3.9-4.6,5h0Z"/>
      <path d="M628.5,557.7c4-6.7,15.2-7.7,19.8-2.4,3.9,4.7,2.4,13.2-3,17.3-3.4,2.6-8.9,3.9-13.2,1.2-5.4-3.3-6.6-11.1-3.6-16.1h0Z"/>
      <path class="st6" d="M628.4,561.6c4.1-6.1,15.4-6.9,20-2.2,4,4.2,2.4,11.9-3,15.7-3.4,2.3-8.9,3.5-13.3,1.1-5.4-3-6.7-10-3.6-14.5h-.1Z"/>
      <path class="st1" d="M632.9,564.6c3-5,11.5-5.8,15-1.7,3,3.4,1.8,9.7-2.3,12.7-2.5,1.9-6.7,2.8-10,.9-4.1-2.4-5-8.1-2.8-11.8h0Z"/>
      <path d="M636.3,566.1c1.6-4.1,6.1-4.8,7.9-1.5,1.6,2.8,1,7.9-1.2,10.5-1.3,1.5-3.6,2.3-5.3.7-2.2-2-2.7-6.7-1.4-9.8h0Z"/>
      <path d="M634,555.9h0c-2.1-1.2-4.6-3.2-5-6h.7c.2.9,3.5,4.8,4.6,5.4h0l-.4.6h.1Z"/>
      <path d="M631.3,558.1h0c-2.5-1.5-4.1-3.5-4.3-5.5h.7c.2.9,3,4.4,3.9,5h0l-.4.5h0Z"/>
      <path d="M663.5,586.3c-2.2,0-3.8-.8-4.3-2.2-.6-1.7.5-3.8,2.9-5.5l.5.5c-2.2,1.5-3.2,3.3-2.7,4.7.4,1.1,1.7,1.7,3.6,1.7v.7h0Z"/>
      <path d="M697.8,547.9c-1.6-3.2-4.9-4.6-7.5-4.8-3.1-.3-6.1.7-9.1,1.7l-.5-1.3c3-.9,6.3-2,9.7-1.7,3.9.3,7.2,2.5,8.8,5.6l-1.3.5h-.1Z"/>
      <path d="M651.6,547.7c-1.1-2.8-3.1-4.6-5.8-5.2-2.9-.7-6.2.3-9,2.6l-1-1c3.2-2.6,7-3.7,10.4-3,3.1.7,5.6,2.9,6.8,6.1l-1.4.5h0Z"/>
      <polygon class="st9" points="650.9 644 549.5 839.6 781.1 839.6 679.3 644 650.9 644"/>
      <path d="M781.7,839.9h-232.8l.2-.5,101.5-195.8h29l102.1,196.3h0ZM550.1,839.3h230.4l-101.4-195.1h-28l-101,195.1h0Z"/>
      <path class="st5" d="M680.1,742.9l-4.2,3c-1.3.9-3,.6-3.9-.5l-9.3-11.9c-.9-1.2-.7-2.8.6-3.7l4.2-3c1.3-.9,3-.6,3.9.5l9.3,11.9c.9,1.2.7,2.8-.6,3.7Z"/>
      <path d="M674.1,746.6h-.5c-.8,0-1.5-.5-1.9-1.1l-9.3-11.9c-1-1.2-.7-3,.6-3.9l4.2-3c.6-.5,1.4-.6,2.2-.5s1.5.5,1.9,1.1l9.3,11.9c1,1.2.7,3-.6,3.9l-4.2,3c-.5.3-1.1.5-1.7.5h0ZM669.2,726.4c-.5,0-1,0-1.5.5l-4.2,3c-1.1.8-1.4,2.3-.5,3.5l9.3,11.9c.5.5,1,.9,1.7,1,.7,0,1.3,0,1.9-.5l4.2-3c1.1-.8,1.4-2.3.5-3.5l-9.3-11.9c-.5-.5-1-.9-1.7-1h-.4Z"/>
      <polyline class="st9" points="720.8 721.7 700.7 758.3 670.5 745.3 681 738.2 694.6 744.9 716.5 715"/>
      <polygon points="700.9 758.8 669.8 745.4 681 737.8 694.6 744.4 716.2 714.8 716.7 715.2 694.8 745.4 681.1 738.6 671.2 745.2 700.5 757.8 720.4 721.6 721.1 721.8 700.9 758.8"/>
      <path class="st5" d="M650.5,748.5l-3.9-3.5c-1.1-1-1.2-2.7-.2-3.7l10.5-10.9c1-1.1,2.8-1.1,3.9,0l3.9,3.5c1.1,1,1.2,2.7.2,3.7l-10.5,10.9c-1,1.1-2.8,1.1-3.9,0Z"/>
      <path d="M652.4,749.4c-.7,0-1.4-.3-2-.7l-3.9-3.5c-1.2-1-1.3-2.8-.2-4l10.5-10.9c.5-.5,1.3-.9,2.1-.9s1.6.2,2.1.7l3.9,3.5c1.2,1,1.3,2.8.2,4l-10.5,10.9c-.5.5-1.3.9-2.1.9h-.2.1ZM650.7,748.3c.5.5,1.2.7,1.9.7s1.3-.3,1.8-.8l10.5-10.9c1-1,.9-2.5-.2-3.5l-3.9-3.5c-.5-.5-1.2-.7-1.9-.7s-1.3.3-1.8.8l-10.5,10.9c-1,1-.9,2.5.2,3.5l3.9,3.5h0Z"/>
      <polyline class="st9" points="609.4 724.9 628 761.5 656.1 748.5 646.2 741.5 633.6 748.1 613.4 718.3"/>
      <polygon points="627.8 761.9 609 725.1 609.8 724.7 628.2 761 655.4 748.5 646.2 741.9 633.5 748.5 613 718.5 613.7 718.1 633.8 747.8 646.3 741.1 656.8 748.5 627.8 761.9"/>
      <polygon class="st5" points="649.9 629 679.6 629 691.4 664.9 638.7 664.9 649.9 629"/>
      <path class="st9" d="M701.8,892.9l-7.5-.2-.3-8.6h0c0,1.9-5.6,3.6-8,3.6s-6.8-1.8-6.9-3.6h0v17.8c0,1.5,1.3,2.8,3,2.8h22.6c1.3,0,2.4-1.1,2.4-2.3l-.2-4.6c0-2.6-2.3-4.8-5-4.8h0Z"/>
      <path d="M704.8,904.9h-22.6c-1.9,0-3.3-1.4-3.3-3.2v-17.8h.7c0,1.5,4,3.3,6.5,3.3s7-1.6,7.6-3v-.6h.8v.7l.2,7.9,7.1.2c3,0,5.3,2.3,5.4,5.2l.2,4.6c0,.7-.3,1.4-.8,1.9s-1.2.7-1.9.7h.2-.1ZM679.6,885.6v16.3c0,1.4,1.2,2.5,2.6,2.5h22.6c.5,0,1-.2,1.3-.5s.6-.9.6-1.4l-.2-4.6c0-2.5-2.2-4.4-4.8-4.5l-7.8-.2-.2-7.6c-1.7,1.5-5.8,2.6-7.7,2.6s-5-1.1-6.5-2.5h.1Z"/>
      <path class="st9" d="M630.3,895.1l8.1-.2.3-8.6h0c0,1.9,6,3.6,8.7,3.6s7.4-1.8,7.4-3.6h0v17.8c0,1.5-1.4,2.8-3.2,2.8h-24.4c-1.4,0-2.6-1.1-2.5-2.3l.2-4.6c0-2.6,2.5-4.8,5.5-4.8h0Z"/>
      <path d="M651.5,907.1h-24.4c-.8,0-1.6-.3-2.1-.8s-.8-1.1-.8-1.9l.2-4.6c0-2.8,2.7-5.1,5.9-5.2l7.7-.2.3-7.9v-.7h.8v.6c.7,1.4,5.7,3,8.2,3s7-1.8,7-3.3h.7v17.8c0,1.7-1.6,3.2-3.6,3.2h0ZM630.3,895.4c-2.8,0-5,2.1-5.1,4.5l-.2,4.6c0,.5.2,1,.6,1.3.4.4,1,.6,1.6.6h24.4c1.6,0,2.8-1.1,2.8-2.5v-16.3c-1.6,1.5-5,2.5-7,2.5s-6.5-1.1-8.3-2.7l-.3,7.6-8.5.2h0v.2Z"/>
      <path class="st13" d="M687.4,535.9c9.4,11.9,18.1,24.6,24.1,38.4,7,16.3-.5,21.2-14,32.1-5,4.2-18.3,10-20.6,15.7-1.7,4.3,10.9,52.1,13.9,52.4,19.8,1.9,39.8,3,59.8,3.3-17.7-17.3-19.7-43.8-20.6-68-.7-17.3-1.3-34.4-2-51.6-.7-18.9-1.8-38.9-13-54.5-11.2-15.6-36.3-23.7-51.4-11.3,1.1,16.3,13.5,30.3,23.8,43.4h0Z"/>
      <path d="M751.3,678.3h-.9c-19.9-.3-40-1.5-59.8-3.4-.3,0-.6-.3-.9-.7-4.1-5.8-14.8-48.1-13.2-52.1s8-7.8,13.7-11.3c2.8-1.7,5.3-3.2,6.9-4.6.7-.6,1.4-1.1,2.1-1.7,12.3-9.9,18.4-14.9,11.9-30.2-5.2-11.9-12.6-23.7-24.1-38.3-1-1.2-1.9-2.4-2.9-3.6-9.8-12.3-20-25-20.9-39.9h0c0,0,.2-.3.2-.3,5.9-4.9,13.6-6.8,22.2-5.9,11.5,1.3,23.2,8.1,29.7,17.3,11.6,16.2,12.4,37.5,13.1,54.6l2,51.6c1,26.1,3.3,50.9,20.5,67.7l.6.6h0c0,0-.2,0-.2,0ZM664,492.7c1,14.7,11.1,27.2,20.8,39.4,1,1.2,1.9,2.4,2.9,3.6,11.6,14.7,19,26.5,24.2,38.5,6.8,15.7,0,21.1-12,30.9-.7.5-1.3,1.1-2.1,1.7-1.7,1.4-4.3,3-7,4.6-5.6,3.4-12,7.2-13.5,11-1.6,3.9,10.8,51,13.6,51.9,19.5,1.9,39.3,3,58.8,3.3-16.8-16.9-19.1-41.6-20.1-67.6l-2-51.6c-.7-17.1-1.5-38.3-12.9-54.3-6.5-8.9-17.9-15.7-29.2-17-8.4-1-15.8.9-21.5,5.6h.2-.2Z"/>
      <path class="st13" d="M640.7,538.3c-9.8,11.9-18.8,24.6-25.1,38.4-7.3,16.3.6,21.2,14.5,32.1,5.3,4.2,19.1,10,21.5,15.7,1.8,4.3-11.4,52.1-14.4,52.4-20.6,1.9-41.3,3-62.1,3.3,18.4-17.3,20.4-43.8,21.4-68,.7-17.3,1.3-34.4,2.1-51.6.7-18.9,1.9-38.9,13.5-54.5,11.6-15.6,37.8-23.7,53.4-11.3-1.1,16.3-14,30.3-24.7,43.4h-.1Z"/>
      <path d="M574.2,680.6l.6-.6c17.8-16.8,20.3-41.6,21.3-67.7l2.1-51.6c.7-17.1,1.6-38.5,13.6-54.6,6.9-9.2,18.6-15.9,30.7-17.3,9.1-1.1,17.2.9,23.3,5.8h.2v.3c-1,14.9-11.6,27.6-21.8,39.9-1,1.2-2,2.4-3,3.6-12,14.6-19.7,26.4-25.1,38.3-6.8,15.3-.5,20.2,12.3,30.1.7.5,1.4,1.1,2.2,1.7,1.7,1.3,4.4,2.9,7.2,4.6,5.9,3.5,12.7,7.3,14.3,11.3s-9.3,45.7-13.7,52c-.4.5-.7.8-1,.8-20.6,1.9-41.5,3-62.1,3.3h-.9l-.2.2ZM647,489.2c-1.5,0-3,0-4.5.3-11.8,1.4-23.4,7.8-30.1,17-12,16-12.8,37.2-13.4,54.3l-2.1,51.6c-1,26-3.4,50.6-20.9,67.6,20.3-.3,41-1.5,61.2-3.3,0,0,.3,0,1-1.3,4.5-8.4,14.6-47.1,13.1-50.6-1.6-3.8-8.2-7.6-14-11-2.8-1.7-5.6-3.2-7.3-4.6-.7-.5-1.4-1.1-2.2-1.7-12.6-9.8-19.6-15.2-12.5-30.9,5.4-12,13.1-23.8,25.2-38.5l.3.2-.3-.2c1-1.2,2-2.4,3-3.6,10.1-12.2,20.6-24.8,21.7-39.4-5-3.9-11.1-5.9-18-5.9h-.2Z"/>
      <path class="st10" d="M658.1,605.3c1.3-5.8,7.2-7.7,10.2-4.1,2.7,3.3,2.8,10.2.5,14.1-1.5,2.4-4.2,4-6.9,2.4-3.3-2-4.8-8-3.9-12.4h.1Z"/>
      <path d="M664.1,618.9c-.9,0-1.8-.3-2.7-.8-3.7-2.3-5.1-8.7-4.2-13h0c.7-3.3,3.1-5.8,5.9-6.3,2.2-.4,4.2.3,5.6,2.1,2.8,3.4,3,10.6.5,14.7-1,1.7-2.7,3-4.3,3.3-.4,0-.7,0-1,0h.2ZM658.9,605.4h0c-1,4.3.7,9.9,3.5,11.6.8.5,1.6.7,2.5.5,1.3-.3,2.5-1.3,3.3-2.6,2.2-3.6,2-10.3-.4-13.3-1-1.3-2.5-1.9-4.2-1.5-2.3.5-4.2,2.5-4.8,5.4h.1Z"/>
      <path class="st6" d="M1139.8,730c0,.3-.3.6-.8.9s-.8.6-1.1.6h-.6v6.8s0,.3.3,1c.2,1.2,0,1.8-.5,2h-.5c-.8,0-1.8-.2-3-.7-1.3-.5-2.1-1-2.4-1.4v-.7c0,0,0-.3.2-.5s.3-.4.3-.4v-5.5c-.4,0-1.2.2-2.5.4s-2,.4-2.4.5v5.6c0,0,0,.3.2.5s.2.3.2.4c0,.3-.2.6-.2.8s-.2.3-.4.4c-.3,0-1.3,0-2.9-.5s-2.5-.8-2.6-1.1v-18.9c0-.3,0-.8.3-1.5,0-.2.4-.4,1.1-.8h.4c.8,0,1.7,0,2.6.3,1.2.3,1.8.7,1.8,1.2s0,.5-.3.9c-.2.5-.3.8-.3.9v6.6c1.5-.3,3.1-.6,4.9-1v-7.5s0-.2-.2-.4,0-.4,0-.6c0-.3.5-.5,1.1-.6.5,0,.9,0,1.4,0,.5,0,1.2,0,2.1.4.9.3,1.4.6,1.6.9,0,.2,0,.3,0,.6-.2.3-.2.6-.2.8v7.5c0,0,.6.5,1.6,1.2.6.4.9.8.8,1h0Z"/>
      <path class="st6" d="M1147.7,725.7v.3c0,0,0,.4-.4.8s-.4.7-.4.9v14.3c0,1.7-.6,2.9-1.7,3.5-.3.2-.8.2-1.6.2-1.6,0-3.1-.2-4.4-.5-.6-.2-1.4-.5-2.4-1.2-1.1-.7-1.7-1.2-1.7-1.7s.2-.5.6-.7h.5c1.3,0,2.4.2,3.3.5.2.2.4.4.6.7.3.3.8.5,1.4.5s.5-1.1.5-3.4v-13.8c-.3-.7-.4-1.2-.4-1.4s.4-.4,1.2-.4,1.6.2,2.8.5,1.9.6,2.1.9h0ZM1147.9,721.1v.6c0,.5,0,.9-.3,1.4-.2.5-.4.8-.7,1-.2,0-1.2,0-2.8-.6-1.7-.5-2.6-.8-2.7-1v-.4c0-.5.2-1,.5-1.6s.8-1,1.2-1,1.4,0,2.7.5c1.3.4,2,.8,2.2,1.2h0Z"/>
      <path class="st6" d="M1172.8,735.6c.2.3-.2,1.1-1.3,2.4-1.1,1.4-2.3,2.4-3.3,2.9h-.6c-.9,0-2-.2-3.3-.7-1.5-.4-2.4-.9-2.9-1.4-.7-.7-1.2-1.6-1.5-2.7-.8,1-1.5,1.9-2.3,2.9-1.2,1.3-2.3,2-3.5,2s-1-.2-1.6-.5c-.2-.2-.7-.5-1.3-1.1-1.1-1-1.6-1.5-1.7-1.6-.5-.5-.7-1-.7-1.5s0-.3,0-.4c.4-1.6,1.7-3.1,3.9-4.6,1.6-1,3.8-2.1,6.7-3.3,0-.6-.2-1-.5-1.1-.2,0-1,0-2.3.6-1.3.5-2.2,1-2.8,1.3-.2.2-.5.3-.8.6-.4.2-.7.2-1,.2s-.8-.4-1.6-1c-.8-.6-1.2-1-1.3-1.2-.2-.5,0-.9.6-1.2,0,0,.5,0,1.3-.3.8-.4,1.6-.7,2.4-1.1,1.7-.7,3.2-1,4.3-1.1.5,0,1.1.2,1.7.7.6.4,1.1.8,1.7,1.3,0,0,.3.2.6.4,1.1-1.3,2.4-1.9,3.9-1.9s1.5,0,2.4.4c1.2.4,2.2.9,3,1.6.2.2.4.7.6,1.5.2.9.3,1.7.3,2.6s-.2,2.1-.7,2.6c-2.3.6-4.6.9-6.9,1,0,.9,0,1.8.4,2.8s.6,1.5,1,1.5.9-.3,1.6-.9c.6-.5.9-1,1-1.3.2-.5.4-1.1.6-1.7.3,0,1,0,2.1.4,1,.3,1.7.6,1.8.9h0ZM1159.2,731.9c-1.1.3-2,.9-2.8,1.6-.6.6-1.1,1.2-1.7,1.7-.5.4-.9.9-1.3,1.5s-.6,1.1-.6,1.4,0,.2.2.2c.5,0,1.5-.8,3.1-2.5s2.6-3,3.1-3.9h0ZM1167,727.3c-.4,0-.9.5-1.6,1.5s-1,2-1.2,2.9c1,0,1.8-.2,2.4-.6.3-.2.5-1.1.5-2.7s0-1-.2-1.1h0Z"/>
      <path class="st6" d="M1180.1,719.3c0,0,0,.3-.2.5s-.2.4-.2.4c0,.4-.3.9-.4,1.7v16.7c0,.2,0,.4.2.6s.2.3.2.4c0,1.2-.3,1.8-.8,1.9-.2,0-.9,0-2.1-.4-1.2-.3-1.9-.5-2.2-.7-.5-.3-.7-.7-.7-1s0-.2,0-.2c0,0,0-.2,0-.5v-19.1c0,0,0-.2,0-.3,0,0,0-.2,0-.3,0-.4.4-.7,1.2-.9h1.4c.8,0,1.5.2,2.1.3.9.2,1.3.5,1.3.9h.2Z"/>
      <path class="st6" d="M1191.1,740.8c-.2,0-.4,0-.6,0-.6,0-1.5-.6-2.9-1.7v5.3c0,.2,0,.4.3.8.2.4.3.7.3.8,0,.4-.3.6-.9.6s-1.3,0-2.4-.4c-.6-.2-1.3-.3-1.9-.5-.6,0-.9-.4-.9-.8s0-.5.2-1.1.3-.8.3-.9v-17.7c0-.6,0-1-.2-1.2-.3-.5-.4-.8-.3-1,0-.2.4-.2.9-.2s1.3,0,2.3.2c1.2.2,1.8.3,1.9.3.4,0,.7.3.8.7v.4c0,.8,0,1.9-.4,3.3.5-.9,1.1-1.7,1.6-2.6.7-1.1,1.3-1.6,1.9-1.5,4.3.8,6.4,3,6.4,6.6s-.7,4.2-2,6.3-2.8,3.5-4.4,4.1h0ZM1190.3,728.1c-.8,0-1.7,3.2-2.7,9.8,1.2-.5,2.3-1.5,3.3-3s1.5-3,1.5-4.3-.7-2.4-2.2-2.5h0Z"/>
      <path class="st6" d="M1222.3,736.5c0,1.3-.5,2.5-1.6,3.3-1.1.9-2.6,1.3-4.5,1.3s-1,0-1.6-.2c-1-.2-1.5-.4-1.6-.4-.5,0-1.1-.2-1.6-.3s-1-.3-1.4-.6c-.6-.4-1.1-1.2-1.4-2.1-.5-1.2-.8-1.9-1.1-2.2-.2-.2-.4-.4-.6-.8,0-.3,0-.5.2-.8s.4-.4.7-.5h.7c.8,0,1.7,0,2.8.2,1.1.2,1.7.3,1.9.4,0,0,.3.8.5,2,.2,1.1.5,1.7.9,1.8h.3c.4,0,.8-.3,1.1-.9.3-.6.4-1.2.4-2,0-1.6-.6-2.7-1.8-3.2-2.7-1.2-4.6-2.3-5.7-3.4-1.3-1.2-1.8-2.6-1.7-4.3,0-1.4.7-2.8,1.8-4.2,1.1-1.4,2.2-2.2,3.4-2.5.5,0,2,.3,4.6,1.2.6.2,1.3.4,1.9.6.7.2,1.2.5,1.6,1,.6.6.9,1.7.9,3.3s0,.7,0,1.3v1c0,0,0,.3.2.6,0,.2.2.4,0,.6,0,.8-.4,1.2-1.2,1.3-.4,0-1.2,0-2.4-.4-1.3-.3-2.2-.7-2.5-1.1v-.5c0-.3,0-.9,0-1.9s0-1.7,0-2.1c0-.8,0-1.2-.3-1.2-.7,0-1.2.4-1.7,1.2-.4.8-.7,1.7-.7,2.6,0,1.6.6,2.8,1.7,3.5l3.9,2.1c1.2.7,2.1,1.3,2.6,2,.6.9.9,2.1.9,3.7h0v.6Z"/>
      <path class="st6" d="M1240,724.9c.2.2.2.4.2.5s0,.4-.4.7-.4.4-.4.5v12.6c0,0,0,.3.2.6,0,.3.2.5.2.6,0,.3-.3.6-1,.7-.3,0-1.2,0-2.5-.3-1.4-.3-2.2-.6-2.3-.9,0-.2,0-.6,0-1,.2-.5.3-.8.3-1v-.7c-.3.9-.8,1.7-1.4,2.4-.7.8-1.4,1.3-2.2,1.3s-1.7-.2-2.9-.6-1.9-.8-2-1.2c-.6-1.2-.9-5.5-.9-12.9-.2-.3-.3-.7-.3-1,0-.6.2-1,.8-1.2h.8c.8,0,1.6,0,2.7.3s1.7.4,1.9.6c0,0,.2.2.2.4s-.2.5-.5,1-.5.8-.5,1c0,7.1,0,10.7.2,10.8.3,0,1.1-.8,2.3-2.5s1.9-3.1,1.9-4.1v-5.1c-.3-.2-.4-.5-.4-.9,0-.7.4-1.2,1.1-1.5h.4c.6,0,1.5,0,2.6.3s1.8.4,1.9.5h0Z"/>
      <path class="st6" d="M1254.6,737.7c0,1-.4,1.8-1.2,2.4-.8.6-1.9.9-3.4.9s-.7,0-1.2,0c-.8-.2-1.1-.3-1.2-.3-.4,0-.8-.2-1.2-.2s-.8-.2-1-.4c-.5-.4-.9-.9-1.4-1.5-.4-.5-.7-1-1.1-1.6-.3-.5-.5-.8-.5-1s.2-.5.7-.6h.6c.7,0,1.5,0,2.5.2s1.5.2,1.6.3.2.6.4,1.6c0,.8.4,1.3.7,1.3.5,0,.8-.6.8-1.7s-.5-2.3-1.4-2.7c-2.1-.8-3.5-1.5-4.1-2.2-.8-.8-1.2-2-1.2-3.6s.3-2,1-2.9,1.4-1.5,2.3-1.7c.4,0,1.7.3,3.8,1,.2,0,.8.2,1.7.3.7,0,1.2.3,1.4.6.4.4.7,1.1.7,2v2c.2.6.2,1,.2,1.1,0,.5-.3.8-.9.9-.3,0-.9,0-1.8-.3-1-.3-1.6-.6-1.9-.8,0,0,0-.8-.2-2,0-1.2-.2-1.8-.5-1.8s-.6.4-.9,1.1c-.3.7-.4,1.5-.4,2.2s.2,1.6.8,1.8c1.1.5,2.1,1,3.2,1.5s1.8,1,2.2,1.5c.6.7.8,1.6.8,2.8h0Z"/>
      <path class="st6" d="M1272.7,739.8c0,.2-.2.5-.4.7s-.5.3-.8.2c-2.7-.3-4.2-.7-4.5-1.3v-.2s0-.2.2-.3.2-.2.2-.3c0,0,0-.2,0-.2v-1c-.3.2-.7.6-1.2,1.3-.6.8-1,1.3-1.4,1.6-.7.5-1.5.8-2.4.8s-1-.2-1.6-.5c-.2-.2-.7-.5-1.3-1.1-1.1-1-1.6-1.5-1.7-1.6-.5-.5-.7-1-.7-1.5s0-.3,0-.4c.4-1.6,1.7-3.1,3.9-4.6,1.6-1,3.8-2.1,6.7-3.3,0-.6-.2-1-.5-1.1-.2,0-1,0-2.3.6-1.3.5-2.2,1-2.8,1.3-.2.2-.5.3-.8.6-.4.2-.7.2-1,.2s-.8-.4-1.6-1c-.8-.6-1.2-1-1.3-1.2-.2-.5,0-.9.6-1.2,0,0,.5,0,1.3-.3.8-.4,1.6-.7,2.4-1.1,1.7-.7,3.2-1,4.3-1.1.5,0,1.1.2,1.7.7.6.4,1.2.8,1.7,1.2.6.4,1.2.8,1.8,1.2.7.5,1.1,1,1.1,1.5v10.2c.2.5.3.8.3,1h0ZM1267.4,731.9c-1.1.3-2,.9-2.8,1.6-.6.6-1.1,1.2-1.7,1.7-.5.4-.9.9-1.3,1.5s-.6,1.1-.6,1.4,0,.2.2.2c.5,0,1.5-.8,3.1-2.5s2.6-3,3.1-3.9h0Z"/>
      <path class="st6" d="M1290.8,738.7c.2.3.3.7.3,1,0,.5-.2.9-.8,1.1h-.8c-.8,0-1.6,0-2.7-.3s-1.7-.4-1.9-.6c0,0-.2-.2-.2-.4s.2-.5.5-1,.5-.8.5-1c0-7.1,0-10.7-.2-10.8-.3,0-1.1.7-2.3,2.5-1.3,1.8-1.9,3.2-1.9,4.1v5.1c.3.2.4.5.4.9,0,.7-.4,1.2-1.1,1.4h-.4c-.6,0-1.5,0-2.6-.3s-1.8-.4-1.9-.6-.2-.3-.2-.5,0-.4.4-.7c.2-.3.4-.4.4-.5v-12.6c0-.2,0-.3-.3-.6-.2-.2-.2-.4-.2-.6,0-.4.5-.6,1-.7.3,0,1.2,0,2.5.3,1.4.3,2.2.6,2.3.9v.9c-.2.6-.4,1-.4,1.1,0,.2,0,.4,0,.7.3-.9.8-1.7,1.4-2.4.7-.9,1.4-1.3,2.2-1.3s1.7.2,2.9.6,1.9.8,2,1.2c.6,1.2.9,5.5.9,12.9h0v.3Z"/>
      <path class="st6" d="M1309.3,738.7c.2.3.3.7.3,1,0,.5-.2.9-.8,1.1h-.8c-.8,0-1.6,0-2.7-.3s-1.7-.4-1.9-.6c0,0-.2-.2-.2-.4s.2-.5.5-1,.5-.8.5-1c0-7.1,0-10.7-.2-10.8-.3,0-1.1.7-2.3,2.5-1.3,1.8-1.9,3.2-1.9,4.1v5.1c.3.2.4.5.4.9,0,.7-.4,1.2-1.1,1.4h-.4c-.6,0-1.5,0-2.6-.3s-1.8-.4-1.9-.6-.2-.3-.2-.5,0-.4.4-.7c.2-.3.4-.4.4-.5v-12.6c0-.2,0-.3-.3-.6-.2-.2-.2-.4-.2-.6,0-.4.5-.6,1-.7.3,0,1.2,0,2.5.3,1.4.3,2.2.6,2.3.9v.9c-.2.6-.4,1-.4,1.1,0,.2,0,.4,0,.7.3-.9.8-1.7,1.4-2.4.7-.9,1.4-1.3,2.2-1.3s1.7.2,2.9.6,1.9.8,2,1.2c.6,1.2.9,5.5.9,12.9h0v.3Z"/>
      <path class="st6" d="M1325.6,735.6c.2.3-.2,1.1-1.3,2.4-1.1,1.4-2.3,2.4-3.3,2.9h-.6c-.8,0-2-.2-3.3-.7-1.5-.4-2.4-.9-2.9-1.4-1.3-1.4-1.9-3.3-1.9-5.7s.6-4.3,1.7-6.1c1.2-1.9,2.7-2.9,4.6-2.9s1.5,0,2.5.4c1.2.4,2.2.9,2.9,1.6.2.2.4.7.6,1.5.2.9.3,1.7.3,2.6s-.2,2.1-.7,2.6c-2.3.6-4.6.9-6.9,1,0,.9,0,1.8.4,2.8s.6,1.5.9,1.5,1-.3,1.6-.9c.6-.5.9-1,1-1.3.2-.5.4-1.1.6-1.7.3,0,1,0,2.1.4,1,.3,1.6.6,1.8.9h0ZM1319.8,727.3c-.4,0-.9.5-1.6,1.5s-1.1,2-1.2,2.9c1,0,1.8-.2,2.4-.6.3-.2.5-1.1.5-2.7s0-1-.2-1.1h0Z"/>
      <path class="st6" d="M1359.3,738.7c.2.3.3.7.3,1,0,.5-.2.9-.8,1.1h-.8c-.8,0-1.6,0-2.7-.3s-1.7-.4-1.9-.6c0,0-.2-.2-.2-.4s.2-.5.5-1,.5-.8.5-1c0-7.1,0-10.7-.2-10.8-.3,0-1.1.6-2.1,2.2-1.2,1.7-1.8,3.1-1.8,4.4v5.4c.2.4.2.8.2,1,0,.5-.3.8-.8,1h-.8c-.8,0-1.6,0-2.7-.3s-1.7-.4-1.9-.6c0,0,0-.2,0-.3,0-.2.2-.5.5-1s.5-.8.5-1c0-7.1,0-10.7-.2-10.8-.3,0-1.1.7-2.3,2.5-1.3,1.8-1.9,3.2-1.9,4.1v5.1c.3.2.4.5.4.9,0,.7-.4,1.2-1.1,1.4h-.4c-.6,0-1.5,0-2.6-.3s-1.8-.4-1.9-.6-.2-.3-.2-.5,0-.4.4-.7c.2-.3.4-.4.4-.5v-12.6c0-.2,0-.3-.3-.6-.2-.2-.2-.4-.2-.6,0-.4.5-.6,1-.7.3,0,1.2,0,2.5.3,1.4.3,2.2.6,2.3.9v.9c-.2.6-.4,1-.4,1.1,0,.2,0,.4,0,.7.3-.9.8-1.7,1.4-2.4.7-.9,1.4-1.3,2.2-1.3s1.7.2,2.9.7c1.1.4,1.8.8,2.1,1.1.2.2.4.9.7,2,.9-1.4,1.4-2.2,1.5-2.4.8-.9,1.5-1.4,2.1-1.4s1.7.2,2.9.6,1.9.8,2,1.2c.6,1.2.9,5.5.9,12.9h0v.4Z"/>
      <path class="st6" d="M1375.6,735.6c.2.3-.2,1.1-1.3,2.4-1.1,1.4-2.3,2.4-3.3,2.9h-.6c-.8,0-2-.2-3.3-.7-1.5-.4-2.4-.9-2.9-1.4-1.3-1.4-1.9-3.3-1.9-5.7s.6-4.3,1.7-6.1c1.2-1.9,2.7-2.9,4.6-2.9s1.5,0,2.5.4c1.2.4,2.2.9,2.9,1.6.2.2.4.7.6,1.5.2.9.3,1.7.3,2.6s-.2,2.1-.7,2.6c-2.3.6-4.6.9-6.9,1,0,.9,0,1.8.4,2.8s.6,1.5.9,1.5,1-.3,1.6-.9c.6-.5.9-1,1-1.3.2-.5.4-1.1.6-1.7.3,0,1,0,2.1.4,1,.3,1.6.6,1.8.9h0ZM1369.8,727.3c-.4,0-.9.5-1.6,1.5s-1.1,2-1.2,2.9c1,0,1.8-.2,2.4-.6.3-.2.5-1.1.5-2.7s0-1-.2-1.1h0Z"/>
      <path class="st6" d="M1393.7,719.6c0,.2,0,.5-.2,1.1s-.3.8-.3.9v17.7c0,.6,0,1,.2,1.1.3.5.4.8.3,1s-.4.2-.8.2-1.3,0-2.3-.2c-1.2-.2-1.8-.3-1.8-.3-.4,0-.7-.3-.9-.7v-.4c0-.8,0-1.9.4-3.3-.5.9-1,1.8-1.6,2.6-.7,1.1-1.4,1.6-1.9,1.5-4.3-.7-6.5-2.9-6.5-6.5s.7-4.2,2.1-6.3c1.3-2.1,2.8-3.5,4.4-4.1.2,0,.4,0,.6,0,.6,0,1.5.6,2.9,1.7v-5.3c0-.2,0-.4-.3-.8-.2-.4-.3-.7-.3-.8,0-.4.3-.6.9-.6s1.3,0,2.4.4c.7.2,1.3.4,1.9.5s.9.4.9.8h0ZM1387.9,726.5c-1.2.5-2.3,1.5-3.3,3s-1.5,3-1.5,4.3.7,2.4,2.2,2.5c.8,0,1.7-3.2,2.7-9.8h0Z"/>
      <path class="st6" d="M1419,739.8c0,.2-.2.5-.4.7s-.5.3-.8.2c-2.7-.3-4.2-.7-4.5-1.3v-.2s0-.2.2-.3.2-.2.2-.3c0,0,0-.2,0-.2v-1c-.3.2-.7.6-1.2,1.3-.6.8-1,1.3-1.4,1.6-.7.5-1.5.8-2.4.8s-1-.2-1.6-.5c-.2-.2-.7-.5-1.3-1.1-1.1-1-1.6-1.5-1.7-1.6-.5-.5-.7-1-.7-1.5s0-.3,0-.4c.4-1.6,1.7-3.1,3.9-4.6,1.6-1,3.8-2.1,6.7-3.3,0-.6-.2-1-.5-1.1-.2,0-1,0-2.3.6-1.3.5-2.2,1-2.8,1.3-.2.2-.5.3-.8.6-.4.2-.7.2-1,.2s-.8-.4-1.6-1c-.8-.6-1.2-1-1.3-1.2-.2-.5,0-.9.6-1.2,0,0,.5,0,1.3-.3.8-.4,1.6-.7,2.4-1.1,1.7-.7,3.2-1,4.3-1.1.5,0,1.1.2,1.7.7.6.4,1.2.8,1.7,1.2.6.4,1.2.8,1.8,1.2.7.5,1.1,1,1.1,1.5v10.2c.2.5.3.8.3,1h0ZM1413.8,731.9c-1.1.3-2,.9-2.8,1.6-.6.6-1.1,1.2-1.7,1.7-.5.4-.9.9-1.3,1.5s-.6,1.1-.6,1.4,0,.2.2.2c.5,0,1.5-.8,3.1-2.5s2.6-3,3.1-3.9h0Z"/>
      <path class="st6" d="M1432.5,727.1c0,.3-.2.6-.4.9s-.5.4-.8.4-.2,0-.2,0c-.3,0-1,0-2.1,0v10.7s0,0,.2.4.2.6.2.8c0,.5-.4.8-1.3.8s-1.3-.2-2.5-.5c-1.3-.4-2.1-.7-2.1-1s0-.4.2-.8.3-.7.3-.9v-9.6h-1.1c-.4,0-.9-.3-1.5-.9s-.9-1.1-.9-1.5,0-.5.4-.7.5-.3.8-.3h2.4v-2.5c-.3-.4-.5-.8-.5-1.2s.2-.6.6-.7h.8c.8,0,1.8,0,2.8.3,1.1.2,1.8.4,2.1.6.2,0,.2.2.2.4s-.2.5-.5.8-.5.6-.6.8v1.5h1.1c.2,0,.7.3,1.4,1s1.1,1.1,1.1,1.4h0Z"/>
      <path class="st6" d="M1132.6,752.6c0,.3,0,.6-.3.9s-.5.5-.8.5-.4,0-.6-.3-.5-.3-.7-.3c-1-.2-1.5.6-1.5,2.3v1.6h1.1c.2,0,.7.3,1.4,1,.7.7,1,1.1,1,1.4s-.2.6-.4.9-.5.4-.8.4-.2,0-.2,0c-.3,0-1,0-2.1,0v10.7c0,.2,0,.3.3.6.2.2.3.4.2.6,0,.6-.6.9-1.4,1-.4,0-1.3-.2-2.5-.5-1.3-.4-2.1-.7-2.1-1s0-.4.2-.8.3-.7.3-.9v-9.6h-1.1c-.4,0-.9-.3-1.5-.9s-.9-1.1-.9-1.5,0-.5.4-.7.5-.3.8-.3h2.4c0-2,0-3.4.4-4.2.7-1.7,2.1-2.6,4.2-2.6s.6,0,.8,0c.7,0,1.4.4,2.2.9.7.5,1.1.8,1.1,1.1h0v-.2Z"/>
      <path class="st6" d="M1149,772.5c0,.2-.2.5-.4.7-.2.2-.5.3-.8.2-2.7-.3-4.2-.7-4.5-1.3v-.2s0-.2.2-.3.2-.2.2-.3c0,0,0-.2,0-.2v-1c-.3.2-.7.6-1.2,1.3-.6.8-1,1.3-1.4,1.6-.7.5-1.5.8-2.4.8s-1-.2-1.6-.5c-.2-.2-.7-.5-1.3-1.1-1.1-1-1.6-1.5-1.7-1.6-.5-.5-.7-1-.7-1.5s0-.3,0-.4c.4-1.6,1.7-3.1,3.9-4.6,1.6-1,3.8-2.1,6.7-3.3,0-.6-.2-1-.5-1.1-.2,0-1,0-2.3.6-1.3.5-2.2,1-2.8,1.3-.2.2-.5.3-.9.6-.4.2-.7.2-1,.2s-.8-.4-1.6-1c-.8-.6-1.2-1-1.3-1.2-.2-.5,0-.9.6-1.2,0,0,.5,0,1.3-.3.8-.4,1.6-.7,2.4-1.1,1.7-.7,3.2-1,4.3-1.1.5,0,1.1.2,1.7.7.6.4,1.2.8,1.7,1.2.6.4,1.2.8,1.8,1.2.7.5,1.1,1,1.1,1.5v10.2c.2.5.3.8.3,1h.1ZM1143.7,764.5c-1.1.3-2,.9-2.8,1.6-.6.6-1.1,1.2-1.7,1.7-.5.4-.9.9-1.3,1.5s-.6,1.1-.6,1.4,0,.2.2.2c.5,0,1.5-.8,3.1-2.5s2.6-3,3.1-3.9h0ZM1145,754.6c-.8,1-2,1.5-3.4,1.5s-1.7-.2-2.3-.7c-.8-.6-1.2-1.3-1.2-2.2s.3-1.5.9-2.1c.9-1,2-1.5,3.4-1.5s1.6.2,2.2.7c.8.6,1.2,1.3,1.2,2.2s-.3,1.5-.8,2.1h0ZM1142.5,751.6c-.5,0-.9.2-1.3.5s-.6.7-.6,1.1c0,.6.4.9,1.1.9s.9-.2,1.3-.5.6-.7.6-1.1c0-.6-.4-.9-1.1-.9h0Z"/>
      <path class="st6" d="M1173.2,771.3c.2.3.3.7.3,1,0,.5-.2.9-.8,1.1h-.8c-.8,0-1.6,0-2.7-.3s-1.7-.4-1.9-.6c0,0-.2-.2-.2-.4s.2-.5.5-1,.5-.8.5-1c0-7.1,0-10.7-.2-10.8-.3,0-1.1.7-2.3,2.5-1.3,1.8-1.9,3.2-1.9,4.1v5.1c.3.2.4.5.4.9,0,.7-.4,1.2-1.1,1.4h-.4c-.6,0-1.5,0-2.6-.3s-1.8-.4-1.9-.6-.2-.3-.2-.5,0-.4.4-.7c.2-.3.4-.4.4-.5v-12.6c0-.2,0-.3-.3-.6-.2-.2-.2-.4-.2-.6,0-.4.5-.6,1-.7.3,0,1.2,0,2.5.3,1.4.3,2.2.6,2.3.9v.9c-.2.6-.4,1-.4,1.1,0,.2,0,.4,0,.7.3-.9.8-1.7,1.4-2.4.7-.9,1.4-1.3,2.2-1.3s1.7.2,2.9.6,1.9.8,2,1.2c.6,1.2.9,5.5.9,12.9h0v.3Z"/>
      <path class="st6" d="M1187.5,757.5c1.2.5,2.1,1.4,2.8,2.9.6,1.3.9,2.9.9,4.7s-.5,4.6-1.5,6.3c-1.1,1.9-2.5,2.8-4.2,2.6-.6,0-1.5-.3-2.8-.5-.9,0-1.7-.2-2.4-.4-1.2-.3-2.2-1.2-3-2.7-.7-1.4-1-3-1-4.9s.3-3.6,1.1-5.1c.8-1.7,1.9-2.9,3.3-3.5.2,0,.6-.2,1-.2s1.3,0,2.6.4c.8,0,1.9,0,3.3.3h-.1ZM1183.8,759.9c-.6,0-1.1.6-1.6,1.8s-.8,2.3-.8,3.4.2,2.6.6,3.9c.4,1.4.9,2.1,1.4,2.2.7,0,1.3-.5,1.9-2,.5-1.4.8-2.9.8-4.6s0-1.8-.4-2.8c-.4-1.3-1-2-1.8-2h0Z"/>
      <path class="st6" d="M1208.1,758.7s0,.2-.4.5c-.2.3-.2.5-.2.6v11.9c0,3-1.3,5-4.1,5.8-1.2.4-2.4.6-3.4.6-1.5,0-2.8-.4-3.9-1.3-.3-.2-.8-.7-1.6-1.4,0,0-.2-.2-.6-.5-.2-.2-.3-.4-.4-.6,0-.3.3-.5,1-.7h.4c.5,0,1.1,0,1.7.2s1.2.4,1.4.6c.3.4.7.7,1.1,1.1s.8.6,1.3.6c.9,0,1.5-.4,1.7-1.5,0-.5.2-1.5.2-2.8,0,0-.3.3-.6.7-.3.3-.5.5-.7.6-.2.2-.5.3-.8.3-1.2,0-2.1-.3-2.9-.8-2.3-1.6-3.5-4.1-3.5-7.1s.5-3.8,1.6-5.5,2.5-2.8,4.2-3.2h.4c.3,0,.8,0,1.2.4.4.2.8.5,1.1.7,0-.3.3-.6.4-.9s.4-.5.7-.5c.5,0,1.3,0,2.4.4,1.2.3,1.8.6,2,.8.3.4.3.7.2,1h.1ZM1202.2,765.3c.2-1.3.3-2.3.3-3.1,0-1.5-.3-2.3-.8-2.5s-1,.5-1.7,1.9-1,2.8-1,3.9c0,2.2.3,3.9.9,5.1,1.3-1.7,2.1-3.5,2.4-5.4h-.1Z"/>
      <path class="st6" d="M1223.8,768.3c.2.3-.2,1.1-1.3,2.4-1.1,1.4-2.3,2.4-3.3,2.9h-.6c-.8,0-2-.2-3.3-.7-1.5-.4-2.4-.9-2.9-1.4-1.3-1.4-1.9-3.3-1.9-5.7s.6-4.3,1.7-6.1c1.2-1.9,2.7-2.9,4.6-2.9s1.5,0,2.5.4c1.2.4,2.2.9,2.9,1.6.2.2.4.7.6,1.5.2.9.3,1.7.3,2.6s-.2,2.1-.7,2.6c-2.3.6-4.6.9-6.9,1,0,.9,0,1.8.4,2.8s.6,1.5.9,1.5,1-.3,1.6-.9c.6-.5.9-1,1-1.3.2-.5.4-1.1.6-1.7.3,0,1,0,2.1.4,1,.3,1.6.6,1.8.9h0ZM1218,760c-.4,0-.9.5-1.6,1.5s-1.1,2-1.2,2.9c1,0,1.8-.2,2.4-.6.3-.2.5-1.1.5-2.7s0-1-.2-1.1h0Z"/>
      <path class="st6" d="M1237.1,759.8c0,.3-.2.6-.4.9s-.5.4-.8.4-.2,0-.2,0c-.3,0-1,0-2.1,0v10.7s0,0,.2.4.2.6.2.8c0,.5-.4.8-1.3.8s-1.3-.2-2.5-.5c-1.3-.4-2.1-.7-2.1-1s0-.4.2-.8.3-.7.3-.9v-9.6h-1.1c-.4,0-.9-.3-1.5-.9s-.9-1.1-.9-1.5,0-.5.4-.7.5-.3.8-.3h2.4v-2.5c-.3-.4-.5-.8-.5-1.2s.2-.6.6-.7h.8c.8,0,1.8,0,2.8.3,1.1.2,1.8.4,2.1.6.2,0,.2.2.2.4s-.2.5-.5.8-.5.6-.6.8v1.5h1.1c.2,0,.7.3,1.4,1s1.1,1.1,1.1,1.4h0Z"/>
      <path class="st6" d="M1270.7,771.3c.2.3.3.7.3,1,0,.5-.2.9-.8,1.1h-.8c-.8,0-1.6,0-2.7-.3s-1.7-.4-1.9-.6c0,0-.2-.2-.2-.4s.2-.5.5-1,.5-.8.5-1c0-7.1,0-10.7-.2-10.8-.3,0-1.1.6-2.1,2.2-1.2,1.7-1.8,3.1-1.8,4.4v5.4c.2.4.2.8.2,1,0,.5-.3.8-.8,1h-.8c-.8,0-1.6,0-2.7-.3s-1.7-.4-1.9-.6c0,0,0-.2,0-.3,0-.2.2-.5.5-1s.5-.8.5-1c0-7.1,0-10.7-.2-10.8-.3,0-1.1.7-2.3,2.5-1.3,1.8-1.9,3.2-1.9,4.1v5.1c.3.2.4.5.4.9,0,.7-.4,1.2-1.1,1.4h-.4c-.6,0-1.5,0-2.6-.3s-1.8-.4-1.9-.6-.2-.3-.2-.5,0-.4.4-.7c.2-.3.4-.4.4-.5v-12.6c0-.2,0-.3-.3-.6-.2-.2-.2-.4-.2-.6,0-.4.5-.6,1-.7.3,0,1.2,0,2.5.3,1.4.3,2.2.6,2.3.9v.9c-.2.6-.4,1-.4,1.1,0,.2,0,.4,0,.7.3-.9.8-1.7,1.4-2.4.7-.9,1.4-1.3,2.2-1.3s1.7.2,2.9.7c1.1.4,1.8.8,2.1,1.1.2.2.4.9.7,2,.9-1.4,1.4-2.2,1.5-2.4.8-.9,1.5-1.4,2.1-1.4s1.7.2,2.9.6,1.9.8,2,1.2c.6,1.2.9,5.5.9,12.9h0v.4Z"/>
      <path class="st6" d="M1289,772.5c0,.2-.2.5-.4.7s-.5.3-.8.2c-2.7-.3-4.2-.7-4.5-1.3v-.2s0-.2.2-.3.2-.2.2-.3c0,0,0-.2,0-.2v-1c-.3.2-.7.6-1.2,1.3-.6.8-1,1.3-1.4,1.6-.7.5-1.5.8-2.4.8s-1-.2-1.6-.5c-.2-.2-.7-.5-1.3-1.1-1.1-1-1.6-1.5-1.7-1.6-.5-.5-.7-1-.7-1.5s0-.3,0-.4c.4-1.6,1.7-3.1,3.9-4.6,1.6-1,3.8-2.1,6.7-3.3,0-.6-.2-1-.5-1.1-.2,0-1,0-2.3.6-1.3.5-2.2,1-2.8,1.3-.2.2-.5.3-.8.6-.4.2-.7.2-1,.2s-.8-.4-1.6-1c-.8-.6-1.2-1-1.3-1.2-.2-.5,0-.9.6-1.2,0,0,.5,0,1.3-.3.8-.4,1.6-.7,2.4-1.1,1.7-.7,3.2-1,4.3-1.1.5,0,1.1.2,1.7.7.6.4,1.2.8,1.7,1.2.6.4,1.2.8,1.8,1.2.7.5,1.1,1,1.1,1.5v10.2c.2.5.3.8.3,1h0ZM1283.8,764.5c-1.1.3-2,.9-2.8,1.6-.6.6-1.1,1.2-1.7,1.7-.5.4-.9.9-1.3,1.5s-.6,1.1-.6,1.4,0,.2.2.2c.5,0,1.5-.8,3.1-2.5s2.6-3,3.1-3.9h0Z"/>
      <path class="st6" d="M1307,752.1c0,.2,0,.5-.2,1.1s-.3.8-.3.9v17.7c0,.6,0,1,.2,1.1.3.5.4.8.3,1s-.4.2-.8.2-1.3,0-2.3-.2c-1.2-.2-1.8-.3-1.8-.3-.4,0-.7-.3-.9-.7v-.4c0-.8,0-1.9.4-3.3-.5.9-1,1.8-1.6,2.6-.7,1.1-1.4,1.6-1.9,1.5-4.3-.7-6.5-2.9-6.5-6.5s.7-4.2,2.1-6.3c1.3-2.1,2.8-3.5,4.4-4.1.2,0,.4,0,.6,0,.6,0,1.5.6,2.9,1.7v-5.3c0-.2,0-.4-.3-.8-.2-.4-.3-.7-.3-.8,0-.4.3-.6.9-.6s1.3,0,2.4.4c.7.2,1.3.4,1.9.5s.9.4.9.8h0ZM1301.3,759.2c-1.2.5-2.3,1.5-3.3,3s-1.5,3-1.5,4.3.7,2.4,2.2,2.5c.8,0,1.7-3.2,2.7-9.8h0Z"/>
      <path class="st6" d="M1323.5,772.5c0,.7-.2,1.1-.8,1.2h-.5c-.8,0-1.8,0-2.9-.4-1.2-.3-2-.6-2.2-.9,0-.2,0-.4.3-.8.2-.3.3-.8.3-1.5v-11.4c-.3-.7-.4-1.2-.4-1.4s.4-.4,1.2-.4,1.6.2,2.8.5c1.2.3,1.9.6,2.1.9v.3c0,0,0,.4-.4.8s-.4.7-.4.9v10.9c0,.2,0,.4.4.7s.4.5.4.6h0ZM1323.6,753.7v.2c0,.4,0,.9-.3,1.6-.2.7-.4,1.1-.6,1.2-.2,0-1.2,0-2.8-.6-1.7-.5-2.6-.8-2.7-1v-.4c0-.5.2-1,.5-1.6s.8-1,1.2-1,1.4,0,2.6.5,2,.8,2.2,1.2h0Z"/>
      <path class="st6" d="M1341.6,771.3c.2.3.3.7.3,1,0,.5-.2.9-.8,1.1h-.8c-.8,0-1.6,0-2.7-.3s-1.7-.4-1.9-.6c0,0-.2-.2-.2-.4s.2-.5.5-1,.5-.8.5-1c0-7.1,0-10.7-.2-10.8-.3,0-1.1.7-2.3,2.5-1.3,1.8-1.9,3.2-1.9,4.1v5.1c.3.2.4.5.4.9,0,.7-.4,1.2-1.1,1.4h-.4c-.6,0-1.5,0-2.6-.3s-1.8-.4-1.9-.6-.2-.3-.2-.5,0-.4.4-.7c.2-.3.4-.4.4-.5v-12.6c0-.2,0-.3-.3-.6-.2-.2-.2-.4-.2-.6,0-.4.5-.6,1-.7.3,0,1.2,0,2.5.3,1.4.3,2.2.6,2.3.9v.9c-.2.6-.4,1-.4,1.1,0,.2,0,.4,0,.7.3-.9.8-1.7,1.4-2.4.7-.9,1.4-1.3,2.2-1.3s1.7.2,2.9.6,1.9.8,2,1.2c.6,1.2.9,5.5.9,12.9h0v.3Z"/>
      <path class="st6" d="M1360,752.1c0,.2,0,.5-.2,1.1s-.3.8-.3.9v17.7c0,.6,0,1,.2,1.1.3.5.4.8.3,1s-.4.2-.8.2-1.3,0-2.3-.2c-1.2-.2-1.8-.3-1.8-.3-.4,0-.7-.3-.9-.7v-.4c0-.8,0-1.9.4-3.3-.5.9-1,1.8-1.6,2.6-.7,1.1-1.4,1.6-1.9,1.5-4.3-.7-6.5-2.9-6.5-6.5s.7-4.2,2.1-6.3c1.3-2.1,2.8-3.5,4.4-4.1.2,0,.4,0,.6,0,.6,0,1.5.6,2.9,1.7v-5.3c0-.2,0-.4-.3-.8-.2-.4-.3-.7-.3-.8,0-.4.3-.6.9-.6s1.3,0,2.4.4c.7.2,1.3.4,1.9.5s.9.4.9.8h0ZM1354.3,759.2c-1.2.5-2.3,1.5-3.3,3s-1.5,3-1.5,4.3.7,2.4,2.2,2.5c.8,0,1.7-3.2,2.7-9.8h0Z"/>
      <path class="st6" d="M1375.3,768.3c.2.3-.2,1.1-1.3,2.4-1.1,1.4-2.3,2.4-3.3,2.9h-.6c-.8,0-2-.2-3.3-.7-1.5-.4-2.4-.9-2.9-1.4-1.3-1.4-1.9-3.3-1.9-5.7s.6-4.3,1.7-6.1c1.2-1.9,2.7-2.9,4.6-2.9s1.5,0,2.5.4c1.2.4,2.2.9,2.9,1.6.2.2.4.7.6,1.5.2.9.3,1.7.3,2.6s-.2,2.1-.7,2.6c-2.3.6-4.6.9-6.9,1,0,.9,0,1.8.4,2.8s.6,1.5.9,1.5,1-.3,1.6-.9c.6-.5.9-1,1-1.3.2-.5.4-1.1.6-1.7.3,0,1,0,2.1.4,1,.3,1.6.6,1.8.9h0ZM1369.4,760c-.4,0-.9.5-1.6,1.5s-1.1,2-1.2,2.9c1,0,1.8-.2,2.4-.6.3-.2.5-1.1.5-2.7s0-1-.2-1.1h0Z"/>
      <path class="st6" d="M1392.7,771.3c.2.3.3.7.3,1,0,.5-.2.9-.8,1.1h-.8c-.8,0-1.6,0-2.7-.3s-1.7-.4-1.9-.6c0,0-.2-.2-.2-.4s.2-.5.5-1,.5-.8.5-1c0-7.1,0-10.7-.2-10.8-.3,0-1.1.7-2.3,2.5-1.3,1.8-1.9,3.2-1.9,4.1v5.1c.3.2.4.5.4.9,0,.7-.4,1.2-1.1,1.4h-.4c-.6,0-1.5,0-2.6-.3s-1.8-.4-1.9-.6-.2-.3-.2-.5,0-.4.4-.7c.2-.3.4-.4.4-.5v-12.6c0-.2,0-.3-.3-.6-.2-.2-.2-.4-.2-.6,0-.4.5-.6,1-.7.3,0,1.2,0,2.5.3,1.4.3,2.2.6,2.3.9v.9c-.2.6-.4,1-.4,1.1,0,.2,0,.4,0,.7.3-.9.8-1.7,1.4-2.4.7-.9,1.4-1.3,2.2-1.3s1.7.2,2.9.6,1.9.8,2,1.2c.6,1.2.9,5.5.9,12.9h0v.3Z"/>
      <path class="st6" d="M1417.6,772.5c0,.5-.3.9-.7,1h-.8c-.8,0-1.6,0-2.7-.3s-1.7-.4-1.9-.6c0,0,0-.2,0-.3s0-.4.3-.8c0-.2.3-.3.4-.5.2-.2.2-.4.2-.7,0-7.1,0-10.7-.2-10.8-.3,0-1.1.6-2.3,2-1.3,1.5-1.9,2.7-1.9,3.6v6.1c.3.3.5.7.4,1.2,0,.6-.5,1-1.1,1.2h-.4c-.6,0-1.5,0-2.6-.3s-1.8-.4-1.9-.5c-.2-.3-.3-.6,0-1,0,0,0-.2.3-.3.2,0,.3-.3.3-.4v-19.1c0-.2,0-.3-.3-.6-.2-.2-.2-.4-.2-.6,0-.4.5-.6,1-.7.3,0,1.2,0,2.5.3,1.4.3,2.2.6,2.3.9v.9c0,.4-.2.9-.2,1.5v5.1c1.2-1.3,2.4-1.9,3.6-1.9s1.7.2,2.9.6,1.9.8,2,1.2c.6,1.2.9,5.5.9,12.9.2.4.3.8.2,1.2h0Z"/>
      <path class="st6" d="M1435.4,757.5c.2.2.2.4.2.5s0,.4-.4.7-.4.4-.4.5v12.6c0,0,0,.3.2.6,0,.3.2.5.2.6,0,.3-.3.6-1,.7-.3,0-1.2,0-2.5-.3-1.4-.3-2.2-.6-2.3-.9,0-.2,0-.6,0-1,.2-.5.3-.8.3-1v-.7c-.3.9-.8,1.7-1.4,2.4-.7.8-1.4,1.3-2.2,1.3s-1.7-.2-2.9-.6-1.9-.8-2-1.2c-.6-1.2-.9-5.5-.9-12.9-.2-.3-.3-.7-.3-1,0-.6.2-1,.8-1.2h.8c.8,0,1.6,0,2.7.3s1.7.4,1.9.6c0,0,.2.2.2.4s-.2.5-.5,1-.5.8-.5,1c0,7.1,0,10.7.2,10.8.3,0,1.1-.8,2.3-2.5s1.9-3.1,1.9-4.1v-5.1c-.3-.2-.4-.5-.4-.9,0-.7.4-1.2,1.1-1.5h.4c.6,0,1.5,0,2.6.3s1.8.4,1.9.5h0Z"/>
      <path class="st6" d="M1453.6,771.3c.2.3.3.7.3,1,0,.5-.2.9-.8,1.1h-.8c-.8,0-1.6,0-2.7-.3s-1.7-.4-1.9-.6c0,0-.2-.2-.2-.4s.2-.5.5-1,.5-.8.5-1c0-7.1,0-10.7-.2-10.8-.3,0-1.1.7-2.3,2.5-1.3,1.8-1.9,3.2-1.9,4.1v5.1c.3.2.4.5.4.9,0,.7-.4,1.2-1.1,1.4h-.4c-.6,0-1.5,0-2.6-.3s-1.8-.4-1.9-.6-.2-.3-.2-.5,0-.4.4-.7c.2-.3.4-.4.4-.5v-12.6c0-.2,0-.3-.3-.6-.2-.2-.2-.4-.2-.6,0-.4.5-.6,1-.7.3,0,1.2,0,2.5.3,1.4.3,2.2.6,2.3.9v.9c-.2.6-.4,1-.4,1.1,0,.2,0,.4,0,.7.3-.9.8-1.7,1.4-2.4.7-.9,1.4-1.3,2.2-1.3s1.7.2,2.9.6,1.9.8,2,1.2c.6,1.2.9,5.5.9,12.9h0v.3Z"/>
      <path class="st6" d="M1133,802.9c0,1-.4,1.8-1.2,2.4-.8.6-1.9.9-3.4.9s-.7,0-1.2,0c-.8-.2-1.1-.3-1.2-.3-.4,0-.8-.2-1.2-.2s-.8-.2-1-.4c-.5-.4-.9-.9-1.4-1.5-.4-.5-.7-1-1.1-1.6-.3-.5-.5-.8-.5-1s.2-.5.7-.6h.6c.7,0,1.5,0,2.5.2s1.5.2,1.6.3.2.6.4,1.6c0,.8.4,1.3.7,1.3.5,0,.8-.6.8-1.7s-.5-2.3-1.4-2.7c-2.1-.8-3.5-1.5-4.1-2.2-.8-.8-1.2-2-1.2-3.6s.3-2,1-2.9,1.4-1.5,2.3-1.7c.4,0,1.7.3,3.8,1,.2,0,.8.2,1.7.3.7,0,1.2.3,1.4.6.4.4.7,1.1.7,2v2c.2.6.2,1,.2,1.1,0,.5-.3.8-.9.9-.3,0-.9,0-1.8-.3-1-.3-1.6-.6-1.9-.8,0,0,0-.8-.2-2,0-1.2-.2-1.8-.5-1.8s-.6.4-.9,1.1c-.3.7-.4,1.5-.4,2.2s.2,1.6.8,1.8c1.1.5,2.1,1,3.2,1.5s1.8,1,2.2,1.5c.6.7.8,1.6.8,2.8h0Z"/>
      <path class="st6" d="M1151.4,802.9c0,.3-.4,1-1.2,1.9-.9.9-1.6,1.3-2,1.3-.9,0-2.9-2.2-6-6.3-.2.2-.6.5-1.1,1v3.7c0,.2,0,.4,0,.5,0,.6,0,1-.5,1.2-.2,0-.5,0-.9,0-.8,0-1.6,0-2.4-.4-.9-.3-1.4-.6-1.4-1v-20.1c0-.3,0-.6.3-1,.2-.3.5-.6.8-.7h.3c.6,0,1.4.2,2.4.5s1.6.6,1.7.8v.3c0,.2,0,.3-.3.6-.2.2-.3.4-.3.6v9.4l4.9-5.6c.3-.3.7-.5,1.1-.5s1,.2,1.7.7c.8.5,1.3,1,1.3,1.5s-.5.9-1.6,2.1c-1.6,1.9-2.6,3.1-2.9,3.5l4.3,4.9c.2.2.5.4.9.6.4.2.6.3.6.5h.2Z"/>
      <path class="st6" d="M1169.1,805c0,.2-.2.5-.4.7s-.5.3-.8.2c-2.7-.3-4.2-.7-4.5-1.3v-.2s0-.2.2-.3.2-.2.2-.3c0,0,0-.2,0-.2v-1c-.3.2-.7.6-1.2,1.3-.6.8-1,1.3-1.4,1.6-.7.5-1.5.8-2.4.8s-1-.2-1.6-.5c-.2-.2-.7-.5-1.3-1.1-1.1-1-1.6-1.5-1.7-1.6-.5-.5-.7-1-.7-1.5s0-.3,0-.4c.4-1.6,1.7-3.1,3.9-4.6,1.6-1,3.8-2.1,6.7-3.3,0-.6-.2-1-.5-1.1-.2,0-1,0-2.3.6-1.3.5-2.2,1-2.8,1.3-.2.2-.5.3-.8.6-.4.2-.7.2-1,.2s-.8-.4-1.6-1c-.8-.6-1.2-1-1.3-1.2-.2-.5,0-.9.6-1.2,0,0,.5,0,1.3-.3.8-.4,1.6-.7,2.4-1.1,1.7-.7,3.2-1,4.3-1.1.5,0,1.1.2,1.7.7.6.4,1.2.8,1.7,1.2.6.4,1.2.8,1.8,1.2.7.5,1.1,1,1.1,1.5v10.2c.2.5.3.8.3,1h0ZM1163.8,797.1c-1.1.3-2,.9-2.8,1.6-.6.6-1.1,1.2-1.7,1.7-.5.4-.9.9-1.3,1.5s-.6,1.1-.6,1.4,0,.2.2.2c.5,0,1.5-.8,3.1-2.5s2.6-3,3.1-3.9h0Z"/>
      <path class="st6" d="M1178.2,784.5c0,0,0,.3-.2.5s-.2.4-.2.4c0,.4-.3.9-.4,1.7v16.7c0,.2,0,.4.2.6s.2.3.2.4c0,1.2-.3,1.8-.8,1.9-.2,0-.9,0-2.1-.4-1.2-.3-1.9-.5-2.2-.7-.5-.3-.7-.7-.7-1s0-.2,0-.2c0,0,0-.2,0-.5v-19.1c0,0,0-.2,0-.3,0,0,0-.2,0-.3,0-.4.4-.7,1.2-.9h1.4c.8,0,1.5.2,2.1.3.9.2,1.3.5,1.3.9h.2Z"/>
      <path class="st6" d="M1194.1,805.1c0,.7-.2,1.1-.8,1.2h-.5c-.8,0-1.8,0-2.9-.4-1.2-.3-2-.6-2.2-.9,0-.2,0-.4.3-.8.2-.3.3-.8.3-1.5v-11.4c-.3-.7-.4-1.2-.4-1.4s.4-.4,1.2-.4,1.6.2,2.8.5c1.2.3,1.9.6,2.1.9v.3c0,0,0,.4-.4.8s-.4.7-.4.9v10.9c0,.2,0,.4.4.7s.4.5.4.6h0ZM1194.2,786.2v.2c0,.4,0,.9-.3,1.6-.2.7-.4,1.1-.6,1.2-.2,0-1.2,0-2.8-.6-1.7-.5-2.6-.8-2.7-1v-.4c0-.5.2-1,.5-1.6s.8-1,1.2-1,1.4,0,2.6.5,2,.8,2.2,1.2h0Z"/>
      <path class="st6" d="M1216,802.9c0,1-.4,1.8-1.2,2.4-.8.6-1.9.9-3.4.9s-.7,0-1.2,0c-.8-.2-1.1-.3-1.2-.3-.4,0-.8-.2-1.2-.2s-.8-.2-1-.4c-.5-.4-.9-.9-1.4-1.5-.4-.5-.7-1-1.1-1.6-.3-.5-.5-.8-.5-1s.2-.5.7-.6h.6c.7,0,1.5,0,2.5.2s1.5.2,1.6.3.2.6.4,1.6c0,.8.4,1.3.7,1.3.5,0,.8-.6.8-1.7s-.5-2.3-1.4-2.7c-2.1-.8-3.5-1.5-4.1-2.2-.8-.8-1.2-2-1.2-3.6s.3-2,1-2.9,1.4-1.5,2.3-1.7c.4,0,1.7.3,3.8,1,.2,0,.8.2,1.7.3.7,0,1.2.3,1.4.6.4.4.7,1.1.7,2v2c.2.6.2,1,.2,1.1,0,.5-.3.8-.9.9-.3,0-.9,0-1.8-.3-1-.3-1.6-.6-1.9-.8,0,0,0-.8-.2-2,0-1.2-.2-1.8-.5-1.8s-.6.4-.9,1.1c-.3.7-.4,1.5-.4,2.2s.2,1.6.8,1.8c1.1.5,2.1,1,3.2,1.5s1.8,1,2.2,1.5c.6.7.8,1.6.8,2.8h0Z"/>
      <path class="st6" d="M1234.4,802.9c0,.3-.4,1-1.2,1.9-.9.9-1.6,1.3-2,1.3-.9,0-2.9-2.2-6-6.3-.2.2-.6.5-1.1,1v3.7c0,.2,0,.4,0,.5,0,.6,0,1-.5,1.2-.2,0-.5,0-.9,0-.8,0-1.6,0-2.4-.4-.9-.3-1.4-.6-1.4-1v-20.1c0-.3,0-.6.3-1,.2-.3.5-.6.8-.7h.3c.6,0,1.4.2,2.4.5s1.6.6,1.7.8v.3c0,.2,0,.3-.3.6-.2.2-.3.4-.3.6v9.4l4.9-5.6c.3-.3.7-.5,1.1-.5s1,.2,1.7.7c.8.5,1.3,1,1.3,1.5s-.5.9-1.6,2.1c-1.6,1.9-2.6,3.1-2.9,3.5l4.3,4.9c.2.2.5.4.9.6.4.2.6.3.6.5h.2Z"/>
      <path class="st6" d="M1247.4,790c1.2.5,2.1,1.4,2.8,2.9.6,1.3.9,2.9.9,4.7s-.5,4.6-1.5,6.3c-1.1,1.9-2.5,2.8-4.2,2.6-.6,0-1.5-.3-2.8-.5-.9,0-1.7-.2-2.4-.4-1.2-.3-2.2-1.2-3-2.7-.7-1.4-1-3-1-4.9s.3-3.6,1.1-5.1c.8-1.7,1.9-2.9,3.3-3.5.2,0,.6-.2,1-.2s1.3,0,2.6.4c.8,0,1.9,0,3.3.3h-.1ZM1243.7,792.5c-.6,0-1.1.6-1.6,1.8s-.8,2.3-.8,3.4.2,2.6.6,3.9c.4,1.4.9,2.1,1.4,2.2.7,0,1.3-.5,1.9-2,.5-1.4.8-2.9.8-4.6s0-1.8-.4-2.8c-.4-1.3-1-2-1.8-2h0Z"/>
      <path class="st6" d="M1259.9,784.5c0,0,0,.3-.2.5s-.2.4-.2.4c0,.4-.3.9-.4,1.7v16.7c0,.2,0,.4.2.6s.2.3.2.4c0,1.2-.3,1.8-.8,1.9-.2,0-.9,0-2.1-.4-1.2-.3-1.9-.5-2.2-.7-.5-.3-.7-.7-.7-1s0-.2,0-.2c0,0,0-.2,0-.5v-19.1c0,0,0-.2,0-.3,0,0,0-.2,0-.3,0-.4.4-.7,1.2-.9h1.4c.8,0,1.5.2,2.1.3.9.2,1.3.5,1.3.9h.2Z"/>
      <path class="st6" d="M1275.5,800.8c.2.3-.2,1.1-1.3,2.4-1.1,1.4-2.3,2.4-3.3,2.9h-.6c-.8,0-2-.2-3.3-.7-1.5-.4-2.4-.9-2.9-1.4-1.3-1.4-1.9-3.3-1.9-5.7s.6-4.3,1.7-6.1c1.2-1.9,2.7-2.9,4.6-2.9s1.5,0,2.5.4c1.2.4,2.2.9,2.9,1.6.2.2.4.7.6,1.5.2.9.3,1.7.3,2.6s-.2,2.1-.7,2.6c-2.3.6-4.6.9-6.9,1,0,.9,0,1.8.4,2.8s.6,1.5.9,1.5,1-.3,1.6-.9c.6-.5.9-1,1-1.3.2-.5.4-1.1.6-1.7.3,0,1,0,2.1.4,1,.3,1.6.6,1.8.9h0ZM1269.7,792.5c-.4,0-.9.5-1.6,1.5s-1.1,2-1.2,2.9c1,0,1.8-.2,2.4-.6.3-.2.5-1.1.5-2.7s0-1-.2-1.1h0Z"/>
      <path class="st6" d="M1283.7,797.6c0,.7-.2,1-.6,1.1h-.3c-.6,0-1.4-.2-2.4-.6s-1.8-.9-2.4-1.5c-.3-.2-.3-.7,0-1.3s.4-1,.4-1v-10.2c0-.5.3-.8,1-1h.6c.6,0,1.3,0,2.1.3.8.2,1.3.5,1.5.7v13.6h.1ZM1283.7,801.5v1.3c0,1,0,1.5,0,1.8,0,.7,0,1.3,0,1.7s-.4.6-.8.7c-.3,0-1,0-2.3-.5-1.3-.5-2.1-.8-2.4-1.2-.2-.2,0-.5.2-1,0-.2.2-.5.2-1v-2.3c0-.7.4-1,1-1s1.5.2,2.6.6,1.7.7,1.8.9h0Z"/>
    </g>
  </g>
</svg>