<?xml version="1.0" encoding="UTF-8"?><svg id="Layer_1" xmlns="http://www.w3.org/2000/svg" width="1920" height="1080" xmlns:xlink="http://www.w3.org/1999/xlink" viewBox="0 0 1920 1080"><defs><style>.cls-1{fill:none;}.cls-2{fill:#563300;}.cls-3{fill:#231f20;}.cls-4{fill:#e2d9dc;}.cls-5{isolation:isolate;}.cls-6{fill:#efdfc7;}.cls-7{fill:#fff;}.cls-8{fill:#f7931e;}.cls-9{fill:#ffd956;}.cls-10{fill:#cc001c;}.cls-11{fill:#f2f2f2;}.cls-12{fill:#e6e7e8;}.cls-13{clip-path:url(#clippath);}.cls-14{fill:#443200;}</style><clipPath id="clippath"><rect class="cls-1" x="4.5" y="466.24" width="1911" height="633.67"/></clipPath></defs><g class="cls-5"><g id="Layer_11"><rect class="cls-9" x="3.35" y="-5.44" width="1913.31" height="471.67"/><g class="cls-13"><g id="_Grid_Repeat_"><rect class="cls-4" x="4.5" y="466.24" width="50.9" height="61.02"/><rect class="cls-4" x="55.4" y="527.25" width="50.9" height="61.02"/></g><g id="_Grid_Repeat_-2"><rect class="cls-4" x="111.4" y="466.24" width="50.9" height="61.02"/><rect class="cls-4" x="162.4" y="527.25" width="50.9" height="61.02"/></g><g id="_Grid_Repeat_-3"><rect class="cls-4" x="218.4" y="466.24" width="50.9" height="61.02"/><rect class="cls-4" x="269.3" y="527.25" width="50.9" height="61.02"/></g><g id="_Grid_Repeat_-4"><rect class="cls-4" x="325.3" y="466.24" width="50.9" height="61.02"/><rect class="cls-4" x="376.2" y="527.25" width="50.9" height="61.02"/></g><g id="_Grid_Repeat_-5"><rect class="cls-4" x="432.2" y="466.24" width="50.9" height="61.02"/><rect class="cls-4" x="483.1" y="527.25" width="50.9" height="61.02"/></g><g id="_Grid_Repeat_-6"><rect class="cls-4" x="539.2" y="466.24" width="50.9" height="61.02"/><rect class="cls-4" x="590.1" y="527.25" width="50.9" height="61.02"/></g><g id="_Grid_Repeat_-7"><rect class="cls-4" x="646.1" y="466.24" width="50.9" height="61.02"/><rect class="cls-4" x="697" y="527.25" width="50.9" height="61.02"/></g><g id="_Grid_Repeat_-8"><rect class="cls-4" x="753" y="466.24" width="50.9" height="61.02"/><rect class="cls-4" x="803.9" y="527.25" width="50.9" height="61.02"/></g><g id="_Grid_Repeat_-9"><rect class="cls-4" x="859.9" y="466.24" width="50.9" height="61.02"/><rect class="cls-4" x="910.8" y="527.25" width="50.9" height="61.02"/></g><g id="_Grid_Repeat_-10"><rect class="cls-4" x="966.9" y="466.24" width="50.9" height="61.02"/><rect class="cls-4" x="1017.8" y="527.25" width="50.9" height="61.02"/></g><g id="_Grid_Repeat_-11"><rect class="cls-4" x="1073.8" y="466.24" width="50.9" height="61.02"/><rect class="cls-4" x="1124.7" y="527.25" width="50.9" height="61.02"/></g><g id="_Grid_Repeat_-12"><rect class="cls-4" x="1180.7" y="466.24" width="50.9" height="61.02"/><rect class="cls-4" x="1231.6" y="527.25" width="50.9" height="61.02"/></g><g id="_Grid_Repeat_-13"><rect class="cls-4" x="1287.7" y="466.24" width="50.9" height="61.02"/><rect class="cls-4" x="1338.6" y="527.25" width="50.9" height="61.02"/></g><g id="_Grid_Repeat_-14"><rect class="cls-4" x="1394.6" y="466.24" width="50.9" height="61.02"/><rect class="cls-4" x="1445.5" y="527.25" width="50.9" height="61.02"/></g><g id="_Grid_Repeat_-15"><rect class="cls-4" x="1501.5" y="466.24" width="50.9" height="61.02"/><rect class="cls-4" x="1552.4" y="527.25" width="50.9" height="61.02"/></g><g id="_Grid_Repeat_-16"><rect class="cls-4" x="1608.4" y="466.24" width="50.9" height="61.02"/><rect class="cls-4" x="1659.4" y="527.25" width="50.9" height="61.02"/></g><g id="_Grid_Repeat_-17"><rect class="cls-4" x="1715.4" y="466.24" width="50.9" height="61.02"/><rect class="cls-4" x="1766.3" y="527.25" width="50.9" height="61.02"/></g><g id="_Grid_Repeat_-18"><rect class="cls-4" x="1822.3" y="466.24" width="50.9" height="61.02"/><rect class="cls-4" x="1873.2" y="527.25" width="50.9" height="61.02"/></g><g id="_Grid_Repeat_-19"><rect class="cls-4" x="4.5" y="594.32" width="50.9" height="61.02"/><rect class="cls-4" x="55.4" y="655.24" width="50.9" height="61.02"/></g><g id="_Grid_Repeat_-20"><rect class="cls-4" x="111.4" y="594.32" width="50.9" height="61.02"/><rect class="cls-4" x="162.4" y="655.24" width="50.9" height="61.02"/></g><g id="_Grid_Repeat_-21"><rect class="cls-4" x="218.4" y="594.32" width="50.9" height="61.02"/><rect class="cls-4" x="269.3" y="655.24" width="50.9" height="61.02"/></g><g id="_Grid_Repeat_-22"><rect class="cls-4" x="325.3" y="594.32" width="50.9" height="61.02"/><rect class="cls-4" x="376.2" y="655.24" width="50.9" height="61.02"/></g><g id="_Grid_Repeat_-23"><rect class="cls-4" x="432.2" y="594.32" width="50.9" height="61.02"/><rect class="cls-4" x="483.1" y="655.24" width="50.9" height="61.02"/></g><g id="_Grid_Repeat_-24"><rect class="cls-4" x="539.2" y="594.32" width="50.9" height="61.02"/><rect class="cls-4" x="590.1" y="655.24" width="50.9" height="61.02"/></g><g id="_Grid_Repeat_-25"><rect class="cls-4" x="646.1" y="594.32" width="50.9" height="61.02"/><rect class="cls-4" x="697" y="655.24" width="50.9" height="61.02"/></g><g id="_Grid_Repeat_-26"><rect class="cls-4" x="753" y="594.32" width="50.9" height="61.02"/><rect class="cls-4" x="803.9" y="655.24" width="50.9" height="61.02"/></g><g id="_Grid_Repeat_-27"><rect class="cls-4" x="859.9" y="594.32" width="50.9" height="61.02"/><rect class="cls-4" x="910.8" y="655.24" width="50.9" height="61.02"/></g><g id="_Grid_Repeat_-28"><rect class="cls-4" x="966.9" y="594.32" width="50.9" height="61.02"/><rect class="cls-4" x="1017.8" y="655.24" width="50.9" height="61.02"/></g><g id="_Grid_Repeat_-29"><rect class="cls-4" x="1073.8" y="594.32" width="50.9" height="61.02"/><rect class="cls-4" x="1124.7" y="655.24" width="50.9" height="61.02"/></g><g id="_Grid_Repeat_-30"><rect class="cls-4" x="1180.7" y="594.32" width="50.9" height="61.02"/><rect class="cls-4" x="1231.6" y="655.24" width="50.9" height="61.02"/></g><g id="_Grid_Repeat_-31"><rect class="cls-4" x="1287.7" y="594.32" width="50.9" height="61.02"/><rect class="cls-4" x="1338.6" y="655.24" width="50.9" height="61.02"/></g><g id="_Grid_Repeat_-32"><rect class="cls-4" x="1394.6" y="594.32" width="50.9" height="61.02"/><rect class="cls-4" x="1445.5" y="655.24" width="50.9" height="61.02"/></g><g id="_Grid_Repeat_-33"><rect class="cls-4" x="1501.5" y="594.32" width="50.9" height="61.02"/><rect class="cls-4" x="1552.4" y="655.24" width="50.9" height="61.02"/></g><g id="_Grid_Repeat_-34"><rect class="cls-4" x="1608.4" y="594.32" width="50.9" height="61.02"/><rect class="cls-4" x="1659.4" y="655.24" width="50.9" height="61.02"/></g><g id="_Grid_Repeat_-35"><rect class="cls-4" x="1715.4" y="594.32" width="50.9" height="61.02"/><rect class="cls-4" x="1766.3" y="655.24" width="50.9" height="61.02"/></g><g id="_Grid_Repeat_-36"><rect class="cls-4" x="1822.3" y="594.32" width="50.9" height="61.02"/><rect class="cls-4" x="1873.2" y="655.24" width="50.9" height="61.02"/></g><g id="_Grid_Repeat_-37"><rect class="cls-4" x="4.5" y="722.3" width="50.9" height="61.02"/><rect class="cls-4" x="55.4" y="783.32" width="50.9" height="61.02"/></g><g id="_Grid_Repeat_-38"><rect class="cls-4" x="111.4" y="722.3" width="50.9" height="61.02"/><rect class="cls-4" x="162.4" y="783.32" width="50.9" height="61.02"/></g><g id="_Grid_Repeat_-39"><rect class="cls-4" x="218.4" y="722.3" width="50.9" height="61.02"/><rect class="cls-4" x="269.3" y="783.32" width="50.9" height="61.02"/></g><g id="_Grid_Repeat_-40"><rect class="cls-4" x="325.3" y="722.3" width="50.9" height="61.02"/><rect class="cls-4" x="376.2" y="783.32" width="50.9" height="61.02"/></g><g id="_Grid_Repeat_-41"><rect class="cls-4" x="432.2" y="722.3" width="50.9" height="61.02"/><rect class="cls-4" x="483.1" y="783.32" width="50.9" height="61.02"/></g><g id="_Grid_Repeat_-42"><rect class="cls-4" x="539.2" y="722.3" width="50.9" height="61.02"/><rect class="cls-4" x="590.1" y="783.32" width="50.9" height="61.02"/></g><g id="_Grid_Repeat_-43"><rect class="cls-4" x="646.1" y="722.3" width="50.9" height="61.02"/><rect class="cls-4" x="697" y="783.32" width="50.9" height="61.02"/></g><g id="_Grid_Repeat_-44"><rect class="cls-4" x="753" y="722.3" width="50.9" height="61.02"/><rect class="cls-4" x="803.9" y="783.32" width="50.9" height="61.02"/></g><g id="_Grid_Repeat_-45"><rect class="cls-4" x="859.9" y="722.3" width="50.9" height="61.02"/><rect class="cls-4" x="910.8" y="783.32" width="50.9" height="61.02"/></g><g id="_Grid_Repeat_-46"><rect class="cls-4" x="966.9" y="722.3" width="50.9" height="61.02"/><rect class="cls-4" x="1017.8" y="783.32" width="50.9" height="61.02"/></g><g id="_Grid_Repeat_-47"><rect class="cls-4" x="1073.8" y="722.3" width="50.9" height="61.02"/><rect class="cls-4" x="1124.7" y="783.32" width="50.9" height="61.02"/></g><g id="_Grid_Repeat_-48"><rect class="cls-4" x="1180.7" y="722.3" width="50.9" height="61.02"/><rect class="cls-4" x="1231.6" y="783.32" width="50.9" height="61.02"/></g><g id="_Grid_Repeat_-49"><rect class="cls-4" x="1287.7" y="722.3" width="50.9" height="61.02"/><rect class="cls-4" x="1338.6" y="783.32" width="50.9" height="61.02"/></g><g id="_Grid_Repeat_-50"><rect class="cls-4" x="1394.6" y="722.3" width="50.9" height="61.02"/><rect class="cls-4" x="1445.5" y="783.32" width="50.9" height="61.02"/></g><g id="_Grid_Repeat_-51"><rect class="cls-4" x="1501.5" y="722.3" width="50.9" height="61.02"/><rect class="cls-4" x="1552.4" y="783.32" width="50.9" height="61.02"/></g><g id="_Grid_Repeat_-52"><rect class="cls-4" x="1608.4" y="722.3" width="50.9" height="61.02"/><rect class="cls-4" x="1659.4" y="783.32" width="50.9" height="61.02"/></g><g id="_Grid_Repeat_-53"><rect class="cls-4" x="1715.4" y="722.3" width="50.9" height="61.02"/><rect class="cls-4" x="1766.3" y="783.32" width="50.9" height="61.02"/></g><g id="_Grid_Repeat_-54"><rect class="cls-4" x="1822.3" y="722.3" width="50.9" height="61.02"/><rect class="cls-4" x="1873.2" y="783.32" width="50.9" height="61.02"/></g><g id="_Grid_Repeat_-55"><rect class="cls-4" x="4.5" y="850.39" width="50.9" height="61.02"/><rect class="cls-4" x="55.4" y="911.4" width="50.9" height="61.02"/></g><g id="_Grid_Repeat_-56"><rect class="cls-4" x="111.4" y="850.39" width="50.9" height="61.02"/><rect class="cls-4" x="162.4" y="911.4" width="50.9" height="61.02"/></g><g id="_Grid_Repeat_-57"><rect class="cls-4" x="218.4" y="850.39" width="50.9" height="61.02"/><rect class="cls-4" x="269.3" y="911.4" width="50.9" height="61.02"/></g><g id="_Grid_Repeat_-58"><rect class="cls-4" x="325.3" y="850.39" width="50.9" height="61.02"/><rect class="cls-4" x="376.2" y="911.4" width="50.9" height="61.02"/></g><g id="_Grid_Repeat_-59"><rect class="cls-4" x="432.2" y="850.39" width="50.9" height="61.02"/><rect class="cls-4" x="483.1" y="911.4" width="50.9" height="61.02"/></g><g id="_Grid_Repeat_-60"><rect class="cls-4" x="539.2" y="850.39" width="50.9" height="61.02"/><rect class="cls-4" x="590.1" y="911.4" width="50.9" height="61.02"/></g><g id="_Grid_Repeat_-61"><rect class="cls-4" x="646.1" y="850.39" width="50.9" height="61.02"/><rect class="cls-4" x="697" y="911.4" width="50.9" height="61.02"/></g><g id="_Grid_Repeat_-62"><rect class="cls-4" x="753" y="850.39" width="50.9" height="61.02"/><rect class="cls-4" x="803.9" y="911.4" width="50.9" height="61.02"/></g><g id="_Grid_Repeat_-63"><rect class="cls-4" x="859.9" y="850.39" width="50.9" height="61.02"/><rect class="cls-4" x="910.8" y="911.4" width="50.9" height="61.02"/></g><g id="_Grid_Repeat_-64"><rect class="cls-4" x="966.9" y="850.39" width="50.9" height="61.02"/><rect class="cls-4" x="1017.8" y="911.4" width="50.9" height="61.02"/></g><g id="_Grid_Repeat_-65"><rect class="cls-4" x="1073.8" y="850.39" width="50.9" height="61.02"/><rect class="cls-4" x="1124.7" y="911.4" width="50.9" height="61.02"/></g><g id="_Grid_Repeat_-66"><rect class="cls-4" x="1180.7" y="850.39" width="50.9" height="61.02"/><rect class="cls-4" x="1231.6" y="911.4" width="50.9" height="61.02"/></g><g id="_Grid_Repeat_-67"><rect class="cls-4" x="1287.7" y="850.39" width="50.9" height="61.02"/><rect class="cls-4" x="1338.6" y="911.4" width="50.9" height="61.02"/></g><g id="_Grid_Repeat_-68"><rect class="cls-4" x="1394.6" y="850.39" width="50.9" height="61.02"/><rect class="cls-4" x="1445.5" y="911.4" width="50.9" height="61.02"/></g><g id="_Grid_Repeat_-69"><rect class="cls-4" x="1501.5" y="850.39" width="50.9" height="61.02"/><rect class="cls-4" x="1552.4" y="911.4" width="50.9" height="61.02"/></g><g id="_Grid_Repeat_-70"><rect class="cls-4" x="1608.4" y="850.39" width="50.9" height="61.02"/><rect class="cls-4" x="1659.4" y="911.4" width="50.9" height="61.02"/></g><g id="_Grid_Repeat_-71"><rect class="cls-4" x="1715.4" y="850.39" width="50.9" height="61.02"/><rect class="cls-4" x="1766.3" y="911.4" width="50.9" height="61.02"/></g><g id="_Grid_Repeat_-72"><rect class="cls-4" x="1822.3" y="850.39" width="50.9" height="61.02"/><rect class="cls-4" x="1873.2" y="911.4" width="50.9" height="61.02"/></g><g id="_Grid_Repeat_-73"><rect class="cls-4" x="4.5" y="978.47" width="50.9" height="61.02"/><rect class="cls-4" x="55.4" y="1039.39" width="50.9" height="61.02"/></g><g id="_Grid_Repeat_-74"><rect class="cls-4" x="111.4" y="978.47" width="50.9" height="61.02"/><rect class="cls-4" x="162.4" y="1039.39" width="50.9" height="61.02"/></g><g id="_Grid_Repeat_-75"><rect class="cls-4" x="218.4" y="978.47" width="50.9" height="61.02"/><rect class="cls-4" x="269.3" y="1039.39" width="50.9" height="61.02"/></g><g id="_Grid_Repeat_-76"><rect class="cls-4" x="325.3" y="978.47" width="50.9" height="61.02"/><rect class="cls-4" x="376.2" y="1039.39" width="50.9" height="61.02"/></g><g id="_Grid_Repeat_-77"><rect class="cls-4" x="432.2" y="978.47" width="50.9" height="61.02"/><rect class="cls-4" x="483.1" y="1039.39" width="50.9" height="61.02"/></g><g id="_Grid_Repeat_-78"><rect class="cls-4" x="539.2" y="978.47" width="50.9" height="61.02"/><rect class="cls-4" x="590.1" y="1039.39" width="50.9" height="61.02"/></g><g id="_Grid_Repeat_-79"><rect class="cls-4" x="646.1" y="978.47" width="50.9" height="61.02"/><rect class="cls-4" x="697" y="1039.39" width="50.9" height="61.02"/></g><g id="_Grid_Repeat_-80"><rect class="cls-4" x="753" y="978.47" width="50.9" height="61.02"/><rect class="cls-4" x="803.9" y="1039.39" width="50.9" height="61.02"/></g><g id="_Grid_Repeat_-81"><rect class="cls-4" x="859.9" y="978.47" width="50.9" height="61.02"/><rect class="cls-4" x="910.8" y="1039.39" width="50.9" height="61.02"/></g><g id="_Grid_Repeat_-82"><rect class="cls-4" x="966.9" y="978.47" width="50.9" height="61.02"/><rect class="cls-4" x="1017.8" y="1039.39" width="50.9" height="61.02"/></g><g id="_Grid_Repeat_-83"><rect class="cls-4" x="1073.8" y="978.47" width="50.9" height="61.02"/><rect class="cls-4" x="1124.7" y="1039.39" width="50.9" height="61.02"/></g><g id="_Grid_Repeat_-84"><rect class="cls-4" x="1180.7" y="978.47" width="50.9" height="61.02"/><rect class="cls-4" x="1231.6" y="1039.39" width="50.9" height="61.02"/></g><g id="_Grid_Repeat_-85"><rect class="cls-4" x="1287.7" y="978.47" width="50.9" height="61.02"/><rect class="cls-4" x="1338.6" y="1039.39" width="50.9" height="61.02"/></g><g id="_Grid_Repeat_-86"><rect class="cls-4" x="1394.6" y="978.47" width="50.9" height="61.02"/><rect class="cls-4" x="1445.5" y="1039.39" width="50.9" height="61.02"/></g><g id="_Grid_Repeat_-87"><rect class="cls-4" x="1501.5" y="978.47" width="50.9" height="61.02"/><rect class="cls-4" x="1552.4" y="1039.39" width="50.9" height="61.02"/></g><g id="_Grid_Repeat_-88"><rect class="cls-4" x="1608.4" y="978.47" width="50.9" height="61.02"/><rect class="cls-4" x="1659.4" y="1039.39" width="50.9" height="61.02"/></g><g id="_Grid_Repeat_-89"><rect class="cls-4" x="1715.4" y="978.47" width="50.9" height="61.02"/><rect class="cls-4" x="1766.3" y="1039.39" width="50.9" height="61.02"/></g><g id="_Grid_Repeat_-90"><rect class="cls-4" x="1822.3" y="978.47" width="50.9" height="61.02"/><rect class="cls-4" x="1873.2" y="1039.39" width="50.9" height="61.02"/></g></g><ellipse class="cls-12" cx="965.36" cy="441.44" rx="273.04" ry="308.39" transform="translate(480.29 1385.63) rotate(-87.38)"/><path class="cls-3" d="M951.29,716c-171.1-8.14-304.3-138.1-297-289.7s152.6-268.17,323.7-259.94c171.1,8.14,304.3,138.1,297,289.7-7.4,151.5-152.6,268.17-323.7,259.94h0ZM977.79,170.63c-168.6-8.04-311.7,106.75-318.9,255.87s124,277.1,292.6,285.14c168.6,8.04,311.7-106.75,318.9-255.87,7.2-149.12-124-277.1-292.6-285.14h0Z"/><path class="cls-3" d="M955.19,631.77c-118.6-5.66-211-95.24-205.9-199.81,5.1-104.47,105.7-184.93,224.3-179.18,118.6,5.66,211,95.34,205.9,199.81-5.1,104.47-105.7,184.83-224.3,179.18h0ZM973.39,257.04c-116.1-5.56-214.6,73.02-219.5,175.11-5,102.09,85.4,189.7,201.5,195.25,116.1,5.56,214.6-73.02,219.5-175.11,5-102.09-85.4-189.7-201.5-195.25h0Z"/><path class="cls-8" d="M1366.79,915.02c-17.3,9.13-38.2,13.29-56.9,6.25-18.7-7.04-33.7-27.58-30.3-47.52.7-3.97,2-8.04.7-11.91-2.2-6.85-11.1-8.93-17.7-6.75s-11.9,6.94-18.2,9.43c-12.6,5.06-28.6-.3-36.4-12.2-3.8-5.75-5.7-12.7-10.4-17.66-12.7-13.69-34.4-4.56-49.1,5.85-14.6,10.42-34.8,21.33-49.2,9.52-9.7-7.84-11.8-23.02-22-30.16-18.5-12.8-42.2,11.81-63.3,4.86-16.3-5.36-21.1-31.75-7.5-41.67,23-16.77,62.4,18.16,82.1-2.58,10.9-11.51,5.5-30.95,7.7-47.03,2.4-17.36,15.1-32.24,31.4-36.91,27.6-7.74,61.5,11.91,84.7-4.96,20.1-14.58,17.4-45.44,21.2-70.64,1.8-12.2,5.9-24.51,14.3-33.14s21.8-12.9,33.1-7.84c17.3,7.74,21,31.05,20.8,50.2s-.3,41.47,14.3,53.77c18.8,15.68,47.4,1.59,59.4-19.05s14.8-46.03,26.1-67.17c11.7-21.73,33.7-38,58.2-38.69s50.1,16.37,56.5,40.97c6.4,24.41-5.8,49.01-19.4,69.25-13.6,20.34-29.5,40.78-31.5,65.68-1.9,23.41,9.2,46.83,25.2,64.39,7.4,8.14,16.6,17.06,15.6,27.88-.6,6.85-5.3,12.4-10.2,16.97-11.2,10.42-25.3,18.45-40.6,18.35-13.4-.1-23-9.72-34.3-13.69-12.5,27.58-27.1,51.59-54.3,65.98h0v.2Z"/><path class="cls-8" d="M1264.49,577.2c5.9-1.19,11.9-.79,17.2,1.59,18.3,8.23,21.8,32.54,21.7,51.59-.2,18.16-.4,40.68,13.8,52.68,6.4,5.36,14.6,7.44,23.5,5.85,13.1-2.28,26.3-11.91,33.6-24.51,6.2-10.62,9.9-22.72,13.6-34.43,3.4-11.01,7-22.42,12.5-32.64,12.8-23.61,35.6-38.79,59.5-39.49,26.1-.79,51.6,17.76,58,42.07,7,26.49-7.8,52.88-19.6,70.44-1.6,2.38-3.2,4.76-4.8,7.14-12.1,17.86-24.7,36.21-26.5,57.84-1.7,21.03,7.3,44.05,24.8,63.3.6.69,1.2,1.29,1.8,1.98,7.1,7.74,15.1,16.37,14.2,26.99-.7,7.74-6.1,13.59-10.7,17.86-9.3,8.63-24.1,18.85-41.7,18.75-9,0-16.2-4.17-23.2-8.04-3.5-1.98-6.8-3.87-10.3-5.16-11.5,25.2-26.2,50.4-54.4,65.38-11.7,6.15-34.7,15.18-58.2,6.25-20.5-7.74-34.5-29.76-31.3-49.11.1-.79.3-1.59.4-2.38.6-3.08,1.2-6.05.3-8.73-.9-2.78-3-4.37-4.6-5.16-3.2-1.59-7.5-1.89-11.1-.69-3.4,1.09-6.4,2.98-9.6,4.86-2.7,1.69-5.5,3.37-8.5,4.56-13.3,5.36-30.1-.3-38.3-12.8-1.5-2.38-2.8-4.86-4-7.34-1.8-3.77-3.6-7.24-6.2-10.12-3.6-3.87-17.6-14.88-47,6.05-22.6,16.07-39.3,19.15-51.1,9.52-4.9-3.97-7.9-9.62-10.8-15.08-3.1-5.85-6.1-11.51-11.1-14.98-9.3-6.45-20.2-2.68-31.8,1.29-10.3,3.47-20.9,7.14-31.1,3.87-8.3-2.68-14.5-10.71-16.1-20.93-1.5-9.62,1.6-18.55,8.1-23.32,11.7-8.53,27.2-4.46,42.2-.4,15.5,4.17,30.2,8.04,39.7-1.98,7-7.44,6.9-18.35,6.8-30.06,0-5.46-.1-11.01.6-16.27,2.4-18.06,15.5-33.34,32.5-38.1,12.2-3.47,25.6-1.69,38.5,0,17,2.28,33.1,4.46,45.8-4.76,15-10.91,16.9-31.85,18.7-52.19.5-5.85,1.1-11.91,1.9-17.56,2.2-14.78,7.1-26.19,14.7-33.93,4.9-5.06,11.2-8.43,17.6-9.82h0v.1ZM1342.39,691.6c-.4,0-.8.2-1.2.2-9.9,1.69-18.8-.5-26-6.55-15.3-12.8-15.1-36.11-14.9-54.86.2-18.16-3.1-41.27-19.9-48.91-9.9-4.46-22.8-1.39-31.3,7.44-7.1,7.34-11.8,18.16-13.9,32.34-.8,5.56-1.4,11.51-1.9,17.36-1.8,20.93-3.8,42.56-19.9,54.27-13.7,9.92-31.1,7.64-48,5.36-12.6-1.69-25.7-3.47-37.2-.2-15.8,4.46-28,18.75-30.3,35.62-.7,5.06-.6,10.52-.6,15.77.2,11.71.3,23.81-7.6,32.05-10.8,11.31-27,7.04-42.8,2.78-14.3-3.77-29-7.74-39.5,0-5.6,4.17-8.3,11.91-7,20.44,1.4,8.93,6.9,16.27,14,18.65,9.3,2.98,19.4-.5,29.2-3.77,11.8-4.07,23.9-8.23,34.5-.89,5.6,3.87,8.9,10.02,12.1,15.97,2.8,5.26,5.7,10.62,10.1,14.19,10.6,8.63,26.1,5.46,47.3-9.62,8-5.66,35.2-22.82,51.1-5.66,2.9,3.17,4.9,7.04,6.7,10.81,1.2,2.38,2.4,4.86,3.8,7.04,7.4,11.31,22.6,16.47,34.6,11.61,2.8-1.09,5.3-2.68,8.1-4.27,3.2-1.98,6.6-3.97,10.3-5.16,4.4-1.39,9.5-1.09,13.4.89,3.1,1.49,5.2,3.87,6.1,6.85,1.1,3.47.4,6.85-.2,10.22-.2.79-.3,1.59-.4,2.28-3,18.06,10.2,38.59,29.4,45.84,22.3,8.43,44.4-.2,55.6-6.15h0c27.9-14.68,42.3-40.08,53.7-65.18l.6-1.29,1.3.5c4.2,1.49,8.3,3.77,12.1,5.95,6.7,3.77,13.5,7.64,21.7,7.64,16.6.1,30.7-9.62,39.5-17.86,4.2-3.97,9.2-9.23,9.8-15.97.8-9.33-6.4-17.16-13.4-24.8-.6-.69-1.2-1.29-1.8-1.98-18-19.74-27.4-43.65-25.6-65.48,1.8-22.42,14.6-41.17,27-59.23,1.6-2.38,3.2-4.76,4.8-7.04,11.4-17.06,25.8-42.76,19.2-68.16-6.1-23.02-30.2-40.58-55-39.88-22.5.69-44.8,15.48-56.9,37.9-5.4,10.02-8.9,21.23-12.3,32.15-3.7,11.91-7.5,24.21-13.9,35.02-7.6,12.9-21,22.92-34.5,25.8h0Z"/><path class="cls-8" d="M546.79,363.2c3,2.88,4.2,7.04,3.5,12.5-.6,5.46-3.1,11.41-7.4,17.96-1.1,1.69-2.4,3.27-4,4.96-2.8,2.98-4.3,4.66-4.4,4.76-1.4,1.69-2.8,3.37-4.3,5.06-1.4,1.69-3,2.98-4.6,3.77-2.3,1.29-5.1,1.59-8.2,1.19-3.7-.5-6.2-.5-7.4-.1-.7.4-2.1.99-3.2.99-.6,0-1.3-.99-1.5-2.18s0-2.38.3-3.47c.2-.6.7-1.49,1.5-2.88,1.8-2.88,4.1-6.25,7-10.02s4.7-5.75,5.3-5.95c.6-.2,2.5.4,5.8,1.98,3,1.39,5,1.59,6.3.5.3-.2.6-.5.8-.89,1-1.49,1.1-3.27.5-5.46s-1.8-4.07-3.4-5.56c-3.6-3.17-7.5-3.17-11.5,0-9.2,7.54-16.3,12.7-21.3,15.08-5.8,2.68-10.5,2.48-14.1-.89-3-2.88-4.9-7.64-5.7-14.49s0-12.9,2.5-18.16c1-2.18,5.8-7.64,14.2-15.87,2.1-2.08,4.2-4.07,6.3-6.15,2.1-1.98,4.2-3.37,6.2-3.97,3-.99,6.3,0,9.9,3.27.7.6,1.6,1.49,2.8,2.78,1.1,1.09,1.8,1.98,2.3,2.28.3.2,1.1.4,2,.5.7,0,1.3.3,1.7.79,1.6,1.79,1.7,4.17,0,7.14-1,1.69-3.3,4.27-6.9,7.94-4,4.07-6.9,6.45-8.6,6.94-.2,0-.7-.2-1.4-.79-.6-.5-2-1.89-4-4.07-2.1-2.18-3.6-3.67-4.6-4.46-1.8-1.49-3-1.79-3.5-.99-1.6,2.68-2,5.66-1.3,8.83.7,3.17,2.3,5.75,4.6,7.54,3.9,3.08,8.1,3.08,12.3.1,4.7-3.37,9.5-6.94,14.3-10.22,4.5-3.08,8.2-4.76,10.9-4.96,3.4-.3,6.9,1.29,10.4,4.66h-.1Z"/><path class="cls-8" d="M559.19,264.09c-.4-.5,3.4,3.67,11.1,12.5,10.7,12.2,31.5,37.6,19.9,54.86-1.4,1.98-3.5,3.97-6.1,5.95-2.7,2.08-5.4,4.07-7.8,6.15-2.1,1.79-4.2,3.87-6.4,5.75s-4.2,3.17-6,3.57c-4,.99-9.7-.6-17-4.76-6.8-3.87-13.7-9.03-20.6-15.58-5.3-4.96-9.6-9.92-13-14.78-1-1.49-1.1-3.47,0-5.75.5-.99,3-3.87,7.5-8.33s7.4-6.75,8.5-7.04c.5-.1,1,0,1.4.4.5.5,1,1.59,1.3,3.27.3,1.69,1,2.78,1.4,3.17.6.69,2.5,3.57,6.2,7.24,7,7.14,13.9,13,20.4,17.86,8.3,6.15,13.4,8.04,15.3,5.36,2.4-3.47,1-9.72-4.1-18.65-4-6.94-9.4-14.29-16.4-21.73-4.6-4.96-8.3-7.64-9.3-8.53-.6-.5-1.3-1.39-2.3-1.59-1.4-.3-2.1-.4-2.2-.5-1.7-.99-2.1-2.88-1.1-5.66.2-.5.6-1.19,1.3-2.08,1.8-2.18,4.6-5.06,8.5-8.33s6.3-4.96,7.2-5.16c.6-.1,1.5.69,2.4,2.38h-.1Z"/><path class="cls-8" d="M641.39,255.85c2.5,3.77,3.1,8.14,1.8,13.29s-4.5,10.02-9.4,15.08c-1.3,1.19-2.8,2.38-4.5,3.47-3.1,1.98-4.7,3.08-4.8,3.17-1.6,1.19-3.2,2.38-4.8,3.47-1.6,1.19-3.2,1.89-4.9,2.18-2.4.5-5.1,0-8-1.49-3.4-1.69-5.9-2.48-7.1-2.48-.8.1-2.2.3-3.2-.1-.6-.3-1.1-1.39-1.2-2.58,0-1.19.2-2.28.8-3.27.3-.5.9-1.19,1.8-2.18,2-2.18,4.7-4.66,8-7.44,3.3-2.68,5.2-4.07,5.8-4.07s2.4,1.19,5.3,3.77c2.7,2.38,4.6,3.17,5.9,2.48.3-.1.6-.4.9-.6,1.1-1.09,1.5-2.78,1.2-5.16-.3-2.28-1.2-4.46-2.6-6.45-3-4.27-6.7-5.46-11-3.57-9.8,4.27-17.3,7.04-22.4,7.64-5.9.69-10.4-.99-13.4-5.46-2.5-3.67-3.7-8.93-3.6-15.77.2-6.85,1.8-12.4,4.7-16.67,1.3-1.79,6.5-5.56,15.7-10.72,2.2-1.29,4.5-2.68,6.8-3.87s4.5-1.89,6.4-1.89c3,0,6,2.08,9.1,6.35.6.79,1.4,1.98,2.4,3.57.9,1.39,1.5,2.48,1.9,2.88.2.3,1,.69,1.9,1.09.7.3,1.2.69,1.5,1.29,1.3,2.28,1.1,4.56-.9,6.85-1.1,1.29-3.7,3.08-7.7,5.46-4.4,2.68-7.4,4.07-9.2,3.97-.2,0-.7-.4-1.3-1.29-.5-.69-1.7-2.48-3.3-5.16-1.7-2.78-3-4.66-3.8-5.85-1.6-2.08-2.6-2.68-3.2-1.98-1.9,2.08-2.7,4.76-2.4,8.14.3,3.27,1.4,6.25,3.4,8.73,3.3,4.17,7.4,5.66,11.8,4.07,4.9-1.69,10-3.67,15-5.36,4.7-1.59,8.5-1.98,11.1-1.39,3.3.79,6.5,3.37,9.4,7.74h0l.1.1Z"/><path class="cls-8" d="M710.39,212.99c.2.6.7,1.89,1.5,3.87.4,1.09.6,1.98.4,2.78-.2.4-.7.79-1.5,1.29-2.1,1.39-5,2.58-8.4,3.87-3.7,1.29-6.6,1.98-8.4,1.59-.8-.1-2.2-1.49-4.2-3.87-2.7-3.17-5.2-5.66-7.4-7.34-2.3,2.08-5.3,5.46-9.2,10.22s-6.9,8.63-7.1,10.02c-.3,2.18.9,6.85,1.4,11.41.3.89.5,1.79.7,2.58s0,1.79-.6,2.98c-.1.3-.4.5-.7.79-1.5,1.19-4.3,2.58-8.5,4.17s-6.5,2.38-6.9,2.08c-.7-.5-1.3-2.78-1.7-6.85-.7-5.75-1.2-9.33-1.5-10.52-2,0-3.3-.5-4-1.59-.2-.3-.3-.6-.5-.89-.3-.69.9-3.47,3.5-8.23-3.3-14.88-6.4-29.76-9.5-44.75-.2-.79-.9-1.98-2.1-3.47-1-1.29-1.4-2.38-1.1-3.17.2-.5.9-1.39,2.2-2.38,3.1-2.58,8-5.66,14.7-9.03,6.6-3.37,10.8-4.76,12.6-4.56,6,8.53,13.1,16.47,19.9,24.01,8,8.83,16.3,18.35,26.6,24.9h0l-.2.1ZM671.69,205.55c-2.8-2.78-4.6-4.56-5.5-5.56-2.8-3.08-5.5-6.35-8.1-10.02.3,3.67.9,8.53,2,14.49,1.1,6.25,1.9,10.12,2.5,11.51,1-1.39,4-4.96,9.1-10.42h0Z"/><path class="cls-8" d="M745.99,111.2c.3.6.4,1.39.4,2.08v2.88c8.5,19.94,16.7,39.88,24.6,59.92,0-.2.5.89,1.8,3.17,1.5,2.58,1.8,4.66,1,6.05s-3.4,2.88-7.6,4.56c-2.4.99-5.4,1.69-8.8,2.38-4.4.89-7.5.79-8-.1-.4-.6-1-2.08-2-3.67-8.2-7.54-17.1-14.49-26-21.33,4.1,8.63,8.1,17.26,12.1,25.89.2.5.7.99,1.5,1.49,1,.69,1.6.99,1.6,1.09.7.69,1.3,1.49,1.7,2.38,1.1,2.38.4,4.17-1.9,5.56-2.2,1.29-5.7,2.68-10.3,3.97-4.3,1.19-7,1.69-7.8,1.39-1.2-.4-1.8-1.59-1.7-3.57s0-3.08-.2-3.37c-8.8-17.86-17.9-35.62-27.2-53.28-.2-.3-.5-.79-1.1-1.29s-.9-1.09-1-1.49c-.3-2.38.3-4.56,2-6.55.3-.3,1-.89,2.2-1.69,2.7-1.79,5.7-3.27,8.8-4.46,4-1.59,7.2-2.28,9.2-1.89,2.8.5,8,4.27,15.2,11.51,8.9,8.83,15.2,14.78,19,17.66-5.1-11.71-10.3-23.32-15.6-34.92-.2-.5-.7-1.09-1.3-1.79-.7-.69-1.1-1.29-1.3-1.79-.2-.4-.2-.69-.2-1.09,0-1.09.9-2.68,3-4.46,1.7-1.39,3.4-2.58,5.2-3.27,1.7-.79,3.8-1.49,6.3-2.08,3.7-.89,5.8-.69,6.2.2h0l.2-.1Z"/><path class="cls-8" d="M817.49,82.33c.2.69.3,1.39.2,2.18-.2,1.19-.2,2.18-.2,2.88,6.8,21.13,13.3,42.36,19.5,63.69,0-.2.5.99,1.6,3.47,1.3,2.88,1.4,4.96.5,6.15-1,1.29-3.6,2.28-7.9,3.17-2.5.5-5.5.79-8.9.89-4.4,0-7.5-.4-8-1.49-.3-.69-.8-2.28-1.6-3.97-7.5-8.93-15.7-17.26-24-25.6,3.4,9.23,6.7,18.45,9.9,27.78.2.5.7,1.09,1.4,1.69,1,.79,1.5,1.29,1.5,1.39.7.79,1.2,1.69,1.5,2.68.9,2.48,0,4.27-2.3,5.16s-5.9,1.59-10.5,2.08c-4.4.5-7,.5-7.8,0-1.2-.6-1.7-1.89-1.4-3.77.2-1.89.3-3.08.1-3.37-7.3-19.25-14.9-38.49-22.6-57.64-.2-.4-.5-.89-1-1.49s-.8-1.19-.8-1.69c-.1-2.38.7-4.46,2.5-6.15.3-.3,1.1-.69,2.3-1.29,2.8-1.29,5.9-2.28,9.1-2.98,4.1-.89,7.2-.99,9.3-.2,2.7.99,7.5,5.66,14.2,13.99,8.1,10.32,13.8,17.26,17.3,20.74-4.1-12.5-8.3-24.9-12.7-37.3-.2-.5-.6-1.19-1.2-1.98-.6-.79-1-1.49-1.2-1.98-.1-.4-.2-.79-.2-1.09,0-1.19,1.2-2.48,3.4-3.87,1.8-1.09,3.5-1.89,5.4-2.38,1.7-.5,3.9-.79,6.4-.99,3.7-.2,5.8.3,6.2,1.29h0Z"/><path class="cls-8" d="M892.49,133.92c0,1.19-.3,2.48-1,3.97s-1.4,2.38-2.1,2.78c-.2.1-.6,0-1.2-.2-.6-.2-1.1-.3-1.4-.2-.1,0-.3,0-.4.2-2,.99-4,2.08-5.8,3.47-4.6,3.17-8.5,6.94-11.8,11.41-7.4-1.29-11.5-1.79-12.2-1.89-4.7-.79-7.1-1.49-7.4-2.38-6.8-24.51-13.9-48.91-21.3-73.22-.1-.4.5-1.39,2-2.68s2.7-2.08,3.5-2.18c.9-.2,2.8-.2,5.8,0s5.3.2,7-.2c2.2-.6,5-2.08,8-4.66,2.8-2.38,4.7-3.57,5.6-3.47,1.9.2,5.1,1.29,9.4,3.57,4.3,2.28,6.7,4.07,7.3,5.26.3.6-.2,1.69-1.3,3.47-1.2,1.79-2.2,2.68-3.2,2.88-.8.2-1.4.2-1.8,0s-.7-.1-.8,0c-2.5,1.09-4.8,2.18-6.9,3.37-5,2.78-8.5,5.66-10.5,8.43,1.8,6.45,2.6,9.62,4.3,16.07,2.2-1.79,5.1-3.67,8.8-5.75,1.1-.4,3.9.6,8.4,2.98s6.8,4.27,7.1,5.46c.2.69-.1,1.69-.9,2.88s-1.6,1.98-2.4,2.38c-.7.1-1.9.4-3.7.89-2.6.99-6.8,4.07-12.6,9.23,1.1,4.17,1.6,6.25,2.7,10.42,1.8-1.69,4.2-3.67,7.5-5.95,3.2-2.38,5.2-3.57,6.1-3.67,1-.2,3.8.79,8.4,3.08,4.6,2.28,6.9,3.87,6.9,4.66h0l-.1-.4Z"/><path class="cls-8" d="M968.99,129.85c0,1.19-.5,2.38-1.4,3.77-.8,1.29-1.6,2.08-2.4,2.38-.2,0-.6,0-1.2-.4-.6-.3-1.1-.5-1.4-.5h-.4c-2.1.6-4.1,1.39-6.1,2.38-4.8,2.28-9.1,5.36-12.8,9.03-7.3-2.68-11.3-3.97-12-4.17-4.6-1.59-7-2.78-7.1-3.67-4.5-25.6-9.4-51.09-14.5-76.59,0-.5.7-1.19,2.2-2.28s2.8-1.59,3.7-1.59,2.8.4,5.8,1.19c2.9.79,5.2,1.19,7,1.09,2.3-.1,5.1-1.19,8.4-3.17,3-1.89,5-2.68,5.9-2.48,1.9.5,4.9,2.28,9,5.26,4.1,3.08,6.3,5.26,6.8,6.65.2.6-.3,1.69-1.6,3.17s-2.5,2.28-3.4,2.28-1.4-.1-1.8-.3c-.4-.2-.7-.3-.8-.2-2.6.6-5,1.29-7.2,2.08-5.2,1.79-8.9,3.97-11.1,6.35,1.2,6.65,1.7,10.02,2.9,16.67,2.3-1.29,5.4-2.68,9.3-4.07,1.2-.2,3.9,1.29,8.1,4.56,4.2,3.17,6.4,5.46,6.5,6.75,0,.79-.3,1.69-1.1,2.68s-1.7,1.69-2.6,1.89c-.7,0-2,0-3.7.2-2.7.5-7.1,2.68-13.3,6.85.7,4.27,1,6.45,1.7,10.81,1.9-1.29,4.5-2.78,7.9-4.56,3.4-1.69,5.5-2.58,6.4-2.58s3.7,1.49,8.1,4.66c4.4,3.08,6.5,5.16,6.5,5.95h0l-.3-.1Z"/><path class="cls-8" d="M1034.89,137.1c.8.99-.4,3.97-3.3,8.04s-5.3,5.85-7.4,5.46c-2.2-.5-4-1.98-5.5-4.46-.2-.69-.8-1.89-1.7-3.27-7.8-8.04-15.7-15.77-23.8-23.51.7,7.74,1.1,11.61,1.8,19.35,0,.79.5,1.79,1.1,2.98.7,1.29,1.1,2.18,1.1,2.68.2,2.08-1.1,3.08-3.7,2.98-2,0-5.2-.69-9.3-1.98-4.5-1.39-6.8-2.48-6.9-3.57,0-.4,0-.79.1-1.39.1-.6.1-1.29,0-2.18-2.7-24.21-5.7-48.42-8.9-72.52,0-.5-.2-.89-.5-1.29s-.4-.69-.5-.89c-.2-1.89,1.2-2.98,4.1-3.17.9,0,3,.3,6.3,1.29s5.7,1.49,7,1.59c1.3,0,3.8-.69,7.6-2.18,3.8-1.49,7.2-2.08,10.1-1.69,1.1.1,2.3.4,3.6.69,2.2.69,4.2,1.79,6,3.47,1.9,1.69,3.7,3.27,5.3,4.96,4.4,4.27,6.7,6.55,6.9,6.75,2.1,2.38,3.4,5.06,3.6,7.54,1,11.91-11.1,20.74-19.4,27.98,7.3,7.24,14.2,14.78,20.9,22.62.6.3,1.6.89,2.8,1.79.7.5,1.8,1.19,2.5,2.08h0l.1-.1ZM1006.99,74.39c-3.5-.4-9.4,2.18-17.5,8.33.7,6.35,1,9.62,1.7,15.97,3-.89,6.7-4.07,11.3-9.52s6.8-9.52,6.6-12.5c-.1-1.39-.8-2.18-2.1-2.38v.1Z"/><path class="cls-8" d="M1112.29,158.72c-.2,5.16-2.1,8.73-5.6,10.81s-8.1,1.98-14,0c-1.5-.5-3.1-1.39-4.7-2.38-3.1-1.98-4.7-2.98-4.8-3.08-1.6-.89-3.3-1.79-4.9-2.68-1.7-.89-3.1-2.18-4.3-3.77-1.8-2.28-3.3-5.46-4.5-9.52-1.4-4.86-2.6-7.94-3.4-9.33-.6-.69-1.5-1.98-2-3.47-.3-.89,0-2.08.5-2.98.6-.89,1.3-1.29,2.1-1.39.4,0,1.2.1,2.3.4,2.5.69,5.5,1.89,9,3.57s5.5,2.88,5.9,3.57c.4.6,1,3.37,1.6,8.14.6,4.37,1.4,7.04,2.7,8.04.3.2.6.4.9.5,1.3.4,2.4-.3,3.4-2.18s1.5-4.27,1.6-7.04c.2-6.15-1.7-10.91-5.4-14.19-8.7-7.64-14.9-13.79-18.6-18.85-4.2-5.85-6.3-11.81-6-18.06.2-5.16,2.1-10.02,5.7-14.39s7.4-6.45,11.6-6.15c1.7.2,7,3.27,15.8,9.62,2.2,1.49,4.3,3.08,6.5,4.66s3.9,3.47,5.2,5.66c2,3.17,2.9,7.84,2.8,13.99,0,1.09-.1,2.78-.2,4.96-.1,1.89-.2,3.27-.2,3.97,0,.5.3,1.49.7,2.68.3.89.4,1.79.3,2.48-.3,2.98-1.6,4.27-4.1,3.67-1.4-.3-4.1-1.89-7.9-4.46-4.2-2.88-7-5.26-8.1-7.14-.1-.3-.2-.99-.2-2.18,0-1.09.2-3.37.4-7.04.3-3.67.4-6.35.4-8.04,0-3.08-.4-4.66-1.1-4.76-2.3-.6-4.2.4-5.7,2.88-1.5,2.58-2.2,5.66-2.2,9.52,0,6.35,1.9,11.61,5.7,15.38,4.1,4.07,8.5,8.23,12.7,12.5,4,4.07,6.6,7.74,8.1,11.01,1.8,4.07,2.6,9.23,2.3,15.28h0l-.3-.2Z"/><path class="cls-8" d="M1176.59,123.6c.2-.69-.3,6.15-1.9,20.04-1.2,10.42-3.2,56.45-22.6,52.58-1.9-.79-4.1-2.28-6.6-4.56s-5-4.56-7.5-6.55c-2-1.69-4.3-3.27-6.5-5.06-2.2-1.69-3.9-3.57-5.1-5.66-2.6-4.37-4.3-12.2-5.5-23.51-1.1-11.11-1.1-22.42-.8-33.43.3-9.03,1.2-17.06,2.4-23.61.4-2.08,1.5-3.08,3.4-2.98.8,0,3.7,1.69,8.4,5.06,4.8,3.37,7.5,5.75,8.3,7.04.3.6.5,1.19.5,1.89,0,.89-.5,1.98-1.3,3.27s-1.1,2.58-1.2,3.27c-.2.99-.9,4.96-1.2,11.31-.6,11.41-1,22.92-.6,34.33.5,13.49,1.8,20.74,4.4,21.73,3.3,1.29,6.2-3.67,9-14.58,2.6-10.32,3.8-20.93,4.8-31.35.8-8.14.4-13.89.4-15.87,0-.89.2-2.38-.2-3.67-.5-1.89-.8-2.88-.8-2.98-.3-2.58.7-3.97,2.8-4.17.4,0,1,.2,1.9.6,2.2,1.09,5.2,3.17,9.1,6.25,3.8,3.08,6.1,5.26,6.6,6.25.4.69.3,2.18-.2,4.17h0v.2Z"/><path class="cls-8" d="M1223.09,224.01c-1.4,2.58-3,3.67-4.8,3.08-.6-.2-1.2-.6-2.1-1.39s-1.5-1.19-1.9-1.29c-6.2-1.59-9.2-2.38-15.4-3.67-.5-.1-1.1.2-1.7.79s-1.2.89-1.7.69c-1.5-.4-4.4-2.88-8.8-7.44s-7-7.74-7.8-9.72c-.6-1.49-.6-3.37,0-5.56.3-.99.5-1.89.5-2.48,3.1-23.32,5.9-46.63,8.4-70.04,0-.79-.3-1.59-.7-2.28-.4-.69-.6-1.29-.5-1.59.2-1.19,1.7-1.49,4.1-.79,1.6.5,4.8,2.98,9.7,7.44,5.5,5.06,8.1,8.83,7.9,11.01,0,.6-.6,1.09-1.5,1.79-.9.6-1.4,1.19-1.5,1.79-2.5,19.15-5.2,38.2-8.1,57.35,4.4.89,6.6,1.29,11,2.28.7-.1,1.9,0,3.7.5.9.5,3.2,3.67,6.6,9.62s4.9,9.33,4.4,10.02h0l.2-.1Z"/><path class="cls-8" d="M1272.09,200.2c-.5-.5-1.2-1.29-2.1-2.58-.8-1.19-1.6-2.08-2.2-2.38-4.4-2.38-6.6-3.47-11-5.75-3.6,17.76-7.3,35.52-11.2,53.28-.4,1.98-.5,4.46,0,7.44,0,.89-.3,2.08-1.1,3.67-.9,1.69-1.7,2.58-2.7,2.38-.1,0-.5-.3-1-.69-2.1-1.69-4.8-4.56-8.3-8.33-3.9-4.27-6.2-7.24-6.8-8.73-.7-1.89-.3-3.47,1.1-4.76,1.2-1.09,1.8-2.08,2-2.88,3.3-16.77,6.5-33.63,9.5-50.5-3-1.39-4.6-2.08-7.6-3.47-.4-.2-1-.3-1.8-.4s-1.6-.3-2.1-.89c-1.5-1.49-3.3-5.06-5.5-10.72-2.2-5.56-3.1-9.03-2.5-10.02.7-1.19,2.6-1.29,5.5-.3.7.3,1.7.89,2.8,1.79s2,1.49,2.6,1.89c12.9,5.66,25.4,11.91,37.8,18.45.4.2,1.4.6,3.2,1.29,1.2.4,2.2,1.09,3.1,1.98,1.9,1.89,3,3.77,3.4,5.56.3,1.19.5,3.17.5,5.85,0,3.17,0,5.85-.5,7.74-.3,1.49-.8,2.48-1.3,2.88-.5.5-1.8-.2-3.8-1.79h0Z"/><path class="cls-8" d="M1309.89,304.37c-.5.89-1.4,1.49-2.7,1.79-1.3.3-2.2.2-3-.2-.2-.1-.5-.6-.9-1.39s-.7-1.39-1-1.69c-.1-.1-.2-.2-.4-.3-2-1.39-4.1-2.58-6.2-3.57-5.1-2.48-10-3.77-14.7-4.07-5.2-8.63-8.1-13.29-8.6-14.09-3.3-5.36-4.8-8.43-4.6-9.33,6.4-25,12.6-50,18.3-75.1.1-.5,1.1-.4,2.8.1,1.8.6,3.1,1.19,3.8,1.98.8.79,2.3,2.78,4.5,6.05,2.2,3.17,4,5.56,5.6,7.04,2,1.89,4.8,3.57,8.4,4.86,3.3,1.19,5.4,2.28,6,3.27,1.4,2.08,3.3,6.25,5.6,12.4,2.3,6.15,3.3,10.02,3.2,11.51,0,.69-.9,1.09-2.7,1.19s-3-.4-3.8-1.19c-.7-.69-1.2-1.39-1.5-1.89s-.5-.79-.6-.89c-2.5-1.89-4.8-3.47-7-4.76-5.2-3.17-9.3-4.66-12.1-4.76-1.7,6.45-2.5,9.72-4.3,16.17,2.5.99,5.8,2.58,9.7,4.96,1.1.89,2.8,4.56,5.1,10.91s3.3,10.22,2.9,11.31c-.2.69-.9,1.09-2.1,1.19s-2.2-.2-3-.79c-.6-.6-1.7-1.69-3.3-3.17-2.5-1.98-7.2-4.17-14.2-6.35-1.1,4.17-1.7,6.15-2.9,10.32,2.2.6,5.1,1.79,8.7,3.37s5.8,2.88,6.5,3.67c.8.89,2.6,4.56,5.1,11.01s3.6,10.02,3.2,10.71h0l.2-.3Z"/><path class="cls-8" d="M1388.29,311.41c-.2.69-.6,1.19-1.1,1.49-.8.5-1.4.99-1.8,1.39-7.9,20.24-16.1,40.38-24.5,60.42,0-.2-.3,1.09-1,3.97-.9,3.17-1.9,4.56-3.3,4.07-1.3-.5-3.6-3.37-6.9-8.43-1.9-2.88-3.9-6.55-6.1-10.91-2.8-5.66-4.5-9.62-4.2-11.01.2-.69.8-2.18,1.3-4.27.4-14.88.2-29.66-.2-44.55-3.2,9.33-6.5,18.65-9.9,27.98-.2.5-.2,1.39-.1,2.68.1,1.69.2,2.58.2,2.68,0,1.29-.3,2.38-.6,3.37-.9,2.48-2.4,2.48-4.4,0-2-2.38-4.6-6.45-7.8-12-3-5.26-4.7-8.53-4.9-9.82-.3-1.79,0-3.08,1.3-3.87,1.2-.79,1.9-1.39,2-1.79,6.6-20.04,13-40.18,19.2-60.42.1-.4.2-1.09.2-2.08s.2-1.69.5-1.98c1.3-1.49,3-1.59,5.1-.3.4.2,1.1.99,2.2,2.18,2.5,2.78,4.9,6.05,7.3,9.72,3.1,4.66,5.1,8.53,5.9,11.51,1.1,3.97,1.5,12.6.8,25.6-.6,11.11-1.4,22.32-1.1,33.53,4.7-12.2,9.2-24.51,13.6-36.81.2-.5.3-1.39.4-2.58,0-1.19.2-2.08.4-2.58.1-.4.4-.6.6-.79.7-.6,2.2,0,4.3,2.08,1.7,1.59,3.3,3.47,4.8,5.46,1.4,1.98,2.9,4.46,4.6,7.64,2.5,4.56,3.5,7.54,3.2,8.63h0v-.2Z"/><path class="cls-8" d="M1392.39,388.01c-1,1.98-2.2,2.38-3.2,1.29-.3-.4-.6-.79-.8-1.19-1.6-2.38-3.2-6.05-5.1-11.01-1.8-4.96-3.1-9.52-3.8-13.69-.3-1.79.3-3.17,1.8-4.37s2.4-1.79,2.4-1.79c4.9-11.41,9.6-22.92,14.3-34.53.6-1.59,2-1.49,4,.5.4.4.9.99,1.6,1.98,1.7,2.38,3.4,5.46,5.2,9.33,1.8,3.87,2.8,6.55,2.9,8.23,0,.4-.6,2.08-1.9,5.16-5.3,12.2-10.7,24.41-16.2,36.51-.2.4-.3.99-.5,1.79-.2.89-.4,1.49-.6,1.89h0l-.1-.1ZM1386.49,400.8c0,.79-.8,2.18-2,4.27-1.6,2.68-2.6,4.46-3,5.06-1.1,2.38-2.1,3.97-2.9,4.96s-1.8.69-3-.79c-.7-.79-2.2-4.17-4.6-10.02-2.5-6.25-3.8-10.32-4-12.4,0-1.19.6-2.18,1.8-2.58.6-.2,1.4-1.09,2-2.48.5-1.29,1.5-4.27,3.3-7.54,1-1.79,2.5-1.69,3.8.5,1.5,2.38,3.3,6.15,5.4,11.51s3.1,8.43,3,9.43h0l.2.1Z"/><path class="cls-6" d="M682.49,837.74h10c1.3,0,2.5.99,2.5,2.18v52.38c0,1.19-1.1,2.18-2.5,2.18h-10c-1.3,0-2.5-.99-2.5-2.18v-52.38c0-1.19,1.1-2.18,2.5-2.18h0Z"/><path d="M692.49,894.69h-10c-1.5,0-2.6-1.09-2.6-2.28v-52.38c0-1.29,1.2-2.28,2.6-2.28h10c1.5,0,2.6,1.09,2.6,2.28v52.38c0,1.29-1.2,2.28-2.6,2.28ZM682.49,837.94c-1.3,0-2.2.89-2.2,1.98v52.38c0,1.09,1,1.98,2.2,1.98h10c1.3,0,2.2-.89,2.2-1.98v-52.38c0-1.09-1-1.98-2.2-1.98h-10Z"/><path class="cls-6" d="M641.99,837.44h9.3c1.3,0,2.5.99,2.5,2.18v52.38c0,1.19-1.1,2.18-2.5,2.18h-9.3c-1.3,0-2.5-.99-2.5-2.18v-52.38c0-1.19,1.1-2.18,2.5-2.18h0Z"/><path d="M651.29,894.29h-9.3c-1.5,0-2.6-1.09-2.6-2.28v-52.38c0-1.29,1.2-2.28,2.6-2.28h9.3c1.5,0,2.6,1.09,2.6,2.28v52.38c0,1.29-1.2,2.28-2.6,2.28ZM641.99,837.54c-1.3,0-2.2.89-2.2,1.98v52.38c0,1.09,1,1.98,2.2,1.98h9.3c1.3,0,2.2-.89,2.2-1.98v-52.38c0-1.09-1-1.98-2.2-1.98h-9.3Z"/><path class="cls-6" d="M665.09,632.76c-34.1,0-61.8-22.12-61.8-49.51v-8.14c0-27.38-.4-82.15,33.7-82.15l49.7-2.08c34.1,0,40.1,56.85,40.1,84.23v8.14c0,27.38-27.6,49.51-61.8,49.51h.1Z"/><path d="M673.69,557.76c4-6.75,15.2-7.74,19.8-2.38,3.9,4.66,2.4,13.2-3,17.26-3.4,2.58-8.9,3.87-13.2,1.19-5.4-3.27-6.6-11.11-3.6-16.07h0Z"/><path class="cls-7" d="M673.49,561.73c4.1-6.05,15.4-6.94,20-2.18,4,4.17,2.4,11.91-3,15.68-3.4,2.28-8.9,3.47-13.3,1.09-5.4-2.98-6.7-10.02-3.6-14.49h0l-.1-.1Z"/><path class="cls-2" d="M678.09,564.7c3-4.96,11.5-5.75,15-1.69,3,3.37,1.8,9.72-2.3,12.7-2.5,1.89-6.7,2.78-10,.89-4.1-2.38-5-8.14-2.8-11.81h0l.1-.1Z"/><path d="M681.39,566.19c1.6-4.07,6.1-4.76,7.9-1.49,1.6,2.78,1,7.94-1.2,10.52-1.3,1.49-3.6,2.28-5.3.69-2.2-1.98-2.7-6.75-1.4-9.82h0v.1Z"/><path d="M694.59,557.46l-.3-.6h0c1-.5,3.9-3.47,4.2-4.37h.7c-.5,2.08-2.1,3.87-4.6,4.96h0Z"/><path d="M691.49,557.26l-.3-.6h0c1-.5,3.9-3.47,4.2-4.37h.7c-.5,2.08-2.1,3.87-4.6,4.96h0Z"/><path d="M628.49,557.66c4-6.75,15.2-7.74,19.8-2.38,3.9,4.66,2.4,13.2-3,17.26-3.4,2.58-8.9,3.87-13.2,1.19-5.4-3.27-6.6-11.11-3.6-16.07h0Z"/><path class="cls-7" d="M628.39,561.63c4.1-6.05,15.4-6.94,20-2.18,4,4.17,2.4,11.91-3,15.68-3.4,2.28-8.9,3.47-13.3,1.09-5.4-2.98-6.7-10.02-3.6-14.49h0l-.1-.1Z"/><path class="cls-2" d="M632.89,564.6c3-4.96,11.5-5.75,15-1.69,3,3.37,1.8,9.72-2.3,12.7-2.5,1.89-6.7,2.78-10,.89-4.1-2.38-5-8.14-2.8-11.81h0l.1-.1Z"/><path d="M636.29,566.09c1.6-4.07,6.1-4.76,7.9-1.49,1.6,2.78,1,7.94-1.2,10.52-1.3,1.49-3.6,2.28-5.3.69-2.2-1.98-2.7-6.75-1.4-9.82h0v.1Z"/><path d="M633.99,555.87h0c-2.1-1.19-4.6-3.17-5-5.95h.7c.2.89,3.5,4.76,4.6,5.36h0l-.4.6h.1Z"/><path d="M631.29,558.06h0c-2.5-1.49-4.1-3.47-4.3-5.46h.7c.2.89,3,4.37,3.9,4.96h0l-.4.5h.1Z"/><path d="M663.49,586.33c-2.2,0-3.8-.79-4.3-2.18-.6-1.69.5-3.77,2.9-5.46l.5.5c-2.2,1.49-3.2,3.27-2.7,4.66.4,1.09,1.7,1.69,3.6,1.69v.69h0v.1Z"/><path d="M697.79,547.94c-1.6-3.17-4.9-4.56-7.5-4.76-3.1-.3-6.1.69-9.1,1.69l-.5-1.29c3-.89,6.3-1.98,9.7-1.69,3.9.3,7.2,2.48,8.8,5.56l-1.3.5h-.1Z"/><path d="M651.59,547.74c-1.1-2.78-3.1-4.56-5.8-5.16-2.9-.69-6.2.3-9,2.58l-1-.99c3.2-2.58,7-3.67,10.4-2.98,3.1.69,5.6,2.88,6.8,6.05l-1.4.5h0Z"/><polygon class="cls-10" points="650.89 643.98 549.49 839.62 781.09 839.62 679.29 643.98 650.89 643.98"/><path d="M781.69,839.92h-232.8l.2-.5,101.5-195.85h29l102.1,196.34h0ZM550.09,839.33h230.4l-101.4-195.05h-28l-101,195.05h0Z"/><path class="cls-6" d="M680.09,742.89l-4.2,2.98c-1.3.89-3,.6-3.9-.5l-9.3-11.91c-.9-1.19-.7-2.78.6-3.67l4.2-2.98c1.3-.89,3-.6,3.9.5l9.3,11.91c.9,1.19.7,2.78-.6,3.67Z"/><path d="M674.09,746.56h-.5c-.8-.1-1.5-.5-1.9-1.09l-9.3-11.91c-1-1.19-.7-2.98.6-3.87l4.2-2.98c.6-.5,1.4-.6,2.2-.5s1.5.5,1.9,1.09l9.3,11.91c1,1.19.7,2.98-.6,3.87l-4.2,2.98c-.5.3-1.1.5-1.7.5h0ZM669.19,726.42c-.5,0-1,.1-1.5.5l-4.2,2.98c-1.1.79-1.4,2.28-.5,3.47l9.3,11.91c.5.5,1,.89,1.7.99.7,0,1.3,0,1.9-.5l4.2-2.98c1.1-.79,1.4-2.28.5-3.47l-9.3-11.91c-.5-.5-1-.89-1.7-.99h-.4Z"/><polyline class="cls-10" points="720.79 721.66 700.69 758.27 670.49 745.27 680.99 738.23 694.59 744.87 716.49 715.01"/><polygon points="700.89 758.76 669.79 745.37 680.99 737.83 694.59 744.38 716.19 714.81 716.69 715.21 694.79 745.37 681.09 738.62 671.19 745.17 700.49 757.77 720.39 721.56 721.09 721.76 700.89 758.76"/><path class="cls-6" d="M650.49,748.55l-3.9-3.47c-1.1-.99-1.2-2.68-.2-3.67l10.5-10.91c1-1.09,2.8-1.09,3.9-.1l3.9,3.47c1.1.99,1.2,2.68.2,3.67l-10.5,10.91c-1,1.09-2.8,1.09-3.9.1Z"/><path d="M652.39,749.44c-.7,0-1.4-.3-2-.69l-3.9-3.47c-1.2-.99-1.3-2.78-.2-3.97l10.5-10.91c.5-.5,1.3-.89,2.1-.89s1.6.2,2.1.69l3.9,3.47c1.2.99,1.3,2.78.2,3.97l-10.5,10.91c-.5.5-1.3.89-2.1.89h-.2.1ZM650.69,748.35c.5.5,1.2.69,1.9.69s1.3-.3,1.8-.79l10.5-10.91c1-.99.9-2.48-.2-3.47l-3.9-3.47c-.5-.5-1.2-.69-1.9-.69s-1.3.3-1.8.79l-10.5,10.91c-1,.99-.9,2.48.2,3.47l3.9,3.47h0Z"/><polyline class="cls-10" points="609.39 724.93 627.99 761.54 656.09 748.55 646.19 741.5 633.59 748.15 613.39 718.29"/><polygon points="627.79 761.94 608.99 725.13 609.79 724.73 628.19 761.05 655.39 748.55 646.19 741.9 633.49 748.55 612.99 718.48 613.69 718.09 633.79 747.75 646.29 741.1 656.79 748.55 627.79 761.94"/><polygon class="cls-6" points="649.89 628.99 679.59 628.99 691.39 664.91 638.69 664.91 649.89 628.99"/><path class="cls-10" d="M701.79,892.9l-7.5-.2-.3-8.63h0c0,1.89-5.6,3.57-8,3.57s-6.8-1.79-6.9-3.57h0v17.76c0,1.49,1.3,2.78,3,2.78h22.6c1.3,0,2.4-1.09,2.4-2.28l-.2-4.56c0-2.58-2.3-4.76-5-4.76h0l-.1-.1Z"/><path d="M704.79,904.91h-22.6c-1.9,0-3.3-1.39-3.3-3.17v-17.76h.7c0,1.49,4,3.27,6.5,3.27s7-1.59,7.6-2.98v-.6h.8v.69l.2,7.94,7.1.2c3,0,5.3,2.28,5.4,5.16l.2,4.56c0,.69-.3,1.39-.8,1.89s-1.2.69-1.9.69h.2l-.1.1ZM679.59,885.56v16.27c0,1.39,1.2,2.48,2.6,2.48h22.6c.5,0,1-.2,1.3-.5.4-.4.6-.89.6-1.39l-.2-4.56c0-2.48-2.2-4.37-4.8-4.46l-7.8-.2-.2-7.64c-1.7,1.49-5.8,2.58-7.7,2.58s-5-1.09-6.5-2.48h0l.1-.1Z"/><path class="cls-10" d="M630.29,895.08l8.1-.2.3-8.63h0c0,1.89,6,3.57,8.7,3.57s7.4-1.79,7.4-3.57h0v17.76c0,1.49-1.4,2.78-3.2,2.78h-24.4c-1.4,0-2.6-1.09-2.5-2.28l.2-4.56c0-2.58,2.5-4.76,5.5-4.76h0l-.1-.1Z"/><path d="M651.49,907.09h-24.4c-.8,0-1.6-.3-2.1-.79s-.8-1.09-.8-1.89l.2-4.56c0-2.78,2.7-5.06,5.9-5.16l7.7-.2.3-7.94v-.69h.8v.6c.7,1.39,5.7,2.98,8.2,2.98s7-1.79,7-3.27h.7v17.76c0,1.69-1.6,3.17-3.6,3.17h.1ZM630.29,895.38c-2.8,0-5,2.08-5.1,4.46l-.2,4.56c0,.5.2.99.6,1.29.4.4,1,.6,1.6.6h24.4c1.6,0,2.8-1.09,2.8-2.48v-16.27c-1.6,1.49-5,2.48-7,2.48s-6.5-1.09-8.3-2.68l-.3,7.64-8.5.2h0v.2Z"/><path class="cls-14" d="M687.39,535.93c9.4,11.91,18.1,24.6,24.1,38.4,7,16.27-.5,21.23-14,32.15-5,4.17-18.3,10.02-20.6,15.68-1.7,4.27,10.9,52.09,13.9,52.38,19.8,1.89,39.8,2.98,59.8,3.27-17.7-17.26-19.7-43.75-20.6-67.96-.7-17.26-1.3-34.43-2-51.59-.7-18.85-1.8-38.89-13-54.47-11.2-15.58-36.3-23.71-51.4-11.31,1.1,16.27,13.5,30.26,23.8,43.36h0v.1Z"/><path d="M751.29,678.3h-.9c-19.9-.3-40-1.49-59.8-3.37-.3,0-.6-.3-.9-.69-4.1-5.75-14.8-48.12-13.2-52.09s8-7.84,13.7-11.31c2.8-1.69,5.3-3.17,6.9-4.56.7-.6,1.4-1.09,2.1-1.69,12.3-9.92,18.4-14.88,11.9-30.16-5.2-11.91-12.6-23.71-24.1-38.3-1-1.19-1.9-2.38-2.9-3.57-9.8-12.3-20-25-20.9-39.88h0c0-.1.2-.3.2-.3,5.9-4.86,13.6-6.85,22.2-5.85,11.5,1.29,23.2,8.14,29.7,17.26,11.6,16.17,12.4,37.5,13.1,54.57l2,51.59c1,26.09,3.3,50.9,20.5,67.66l.6.6h0v.1h-.2ZM663.99,492.68c1,14.68,11.1,27.18,20.8,39.39,1,1.19,1.9,2.38,2.9,3.57,11.6,14.68,19,26.49,24.2,38.49,6.8,15.68,0,21.13-12,30.86-.7.5-1.3,1.09-2.1,1.69-1.7,1.39-4.3,2.98-7,4.56-5.6,3.37-12,7.24-13.5,11.01-1.6,3.87,10.8,51,13.6,51.89,19.5,1.89,39.3,2.98,58.8,3.27-16.8-16.87-19.1-41.57-20.1-67.56l-2-51.59c-.7-17.06-1.5-38.3-12.9-54.27-6.5-8.93-17.9-15.68-29.2-16.97-8.4-.99-15.8.89-21.5,5.56h.2l-.2.1Z"/><path class="cls-14" d="M640.69,538.31c-9.8,11.91-18.8,24.6-25.1,38.4-7.3,16.27.6,21.23,14.5,32.15,5.3,4.17,19.1,10.02,21.5,15.68,1.8,4.27-11.4,52.09-14.4,52.38-20.6,1.89-41.3,2.98-62.1,3.27,18.4-17.26,20.4-43.75,21.4-67.96.7-17.26,1.3-34.43,2.1-51.59.7-18.85,1.9-38.89,13.5-54.47,11.6-15.58,37.8-23.71,53.4-11.31-1.1,16.27-14,30.26-24.7,43.36h0l-.1.1Z"/><path d="M574.19,680.58l.6-.6c17.8-16.77,20.3-41.57,21.3-67.66l2.1-51.59c.7-17.06,1.6-38.49,13.6-54.57,6.9-9.23,18.6-15.87,30.7-17.26,9.1-1.09,17.2.89,23.3,5.75h.2v.3c-1,14.88-11.6,27.58-21.8,39.88-1,1.19-2,2.38-3,3.57-12,14.58-19.7,26.39-25.1,38.3-6.8,15.28-.5,20.24,12.3,30.06.7.5,1.4,1.09,2.2,1.69,1.7,1.29,4.4,2.88,7.2,4.56,5.9,3.47,12.7,7.34,14.3,11.31s-9.3,45.74-13.7,51.99c-.4.5-.7.79-1,.79-20.6,1.89-41.5,2.98-62.1,3.27h-.9l-.2.2ZM646.99,489.2c-1.5,0-3,0-4.5.3-11.8,1.39-23.4,7.84-30.1,16.97-12,15.97-12.8,37.2-13.4,54.27l-2.1,51.59c-1,25.99-3.4,50.6-20.9,67.56,20.3-.3,41-1.49,61.2-3.27,0,0,.3-.1,1-1.29,4.5-8.43,14.6-47.13,13.1-50.6-1.6-3.77-8.2-7.64-14-11.01-2.8-1.69-5.6-3.17-7.3-4.56-.7-.5-1.4-1.09-2.2-1.69-12.6-9.82-19.6-15.18-12.5-30.86,5.4-12,13.1-23.81,25.2-38.49l.3.2-.3-.2c1-1.19,2-2.38,3-3.57,10.1-12.2,20.6-24.8,21.7-39.39-5-3.87-11.1-5.85-18-5.85h0l-.2-.1Z"/><path class="cls-11" d="M658.09,605.28c1.3-5.75,7.2-7.74,10.2-4.07,2.7,3.27,2.8,10.22.5,14.09-1.5,2.38-4.2,3.97-6.9,2.38-3.3-1.98-4.8-8.04-3.9-12.4h.1Z"/><path d="M664.09,618.87c-.9,0-1.8-.3-2.7-.79-3.7-2.28-5.1-8.73-4.2-13h0c.7-3.27,3.1-5.75,5.9-6.35,2.2-.4,4.2.3,5.6,2.08,2.8,3.37,3,10.62.5,14.68-1,1.69-2.7,2.98-4.3,3.27-.4,0-.7.1-1,.1h.2ZM658.89,605.38h0c-1,4.27.7,9.92,3.5,11.61.8.5,1.6.69,2.5.5,1.3-.3,2.5-1.29,3.3-2.58,2.2-3.57,2-10.32-.4-13.29-1-1.29-2.5-1.89-4.2-1.49-2.3.5-4.2,2.48-4.8,5.36h0l.1-.1Z"/><path class="cls-7" d="M1139.79,729.99c0,.3-.3.6-.8.89s-.8.6-1.1.6h-.6v6.85s.1.3.3.99c.2,1.19,0,1.79-.5,1.98h-.5c-.8,0-1.8-.2-3-.69-1.3-.5-2.1-.99-2.4-1.39v-.69c0-.1,0-.3.2-.5s.3-.4.3-.4v-5.46c-.4,0-1.2.2-2.5.4s-2,.4-2.4.5v5.56c0,.1,0,.3.2.5s.2.3.2.4c0,.3-.2.6-.2.79s-.2.3-.4.4c-.3.1-1.3,0-2.9-.5s-2.5-.79-2.6-1.09v-18.85c0-.3,0-.79.3-1.49,0-.2.4-.4,1.1-.79h.4c.8,0,1.7.1,2.6.3,1.2.3,1.8.69,1.8,1.19,0,.2,0,.5-.3.89-.2.5-.3.79-.3.89v6.65c1.5-.3,3.1-.6,4.9-.99v-7.54s0-.2-.2-.4-.1-.4,0-.6c.1-.3.5-.5,1.1-.6.5,0,.9,0,1.4-.1.5,0,1.2,0,2.1.4.9.3,1.4.6,1.6.89,0,.2,0,.3-.1.6-.2.3-.2.6-.2.79v7.54c.1.1.6.5,1.6,1.19.6.4.9.79.8.99h0l.1-.1Z"/><path class="cls-7" d="M1147.69,725.73v.3c0,.1-.1.4-.4.79s-.4.69-.4.89v14.29c0,1.69-.6,2.88-1.7,3.47-.3.2-.8.2-1.6.2-1.6,0-3.1-.2-4.4-.5-.6-.2-1.4-.5-2.4-1.19-1.1-.69-1.7-1.19-1.7-1.69s.2-.5.6-.69h.5c1.3,0,2.4.2,3.3.5.2.2.4.4.6.69.3.3.8.5,1.4.5s.5-1.09.5-3.37v-13.79c-.3-.69-.4-1.19-.4-1.39s.4-.4,1.2-.4,1.6.2,2.8.5,1.9.6,2.1.89h0ZM1147.89,721.06v.6c0,.5,0,.89-.3,1.39-.2.5-.4.79-.7.99-.2,0-1.2-.1-2.8-.6-1.7-.5-2.6-.79-2.7-.99v-.4c0-.5.2-.99.5-1.59s.8-.99,1.2-.99c.5,0,1.4,0,2.7.5,1.3.4,2,.79,2.2,1.19h0l-.1-.1Z"/><path class="cls-7" d="M1172.79,735.65c.2.3-.2,1.09-1.3,2.38-1.1,1.39-2.3,2.38-3.3,2.88h-.6c-.9,0-2-.2-3.3-.69-1.5-.4-2.4-.89-2.9-1.39-.7-.69-1.2-1.59-1.5-2.68-.8.99-1.5,1.89-2.3,2.88-1.2,1.29-2.3,1.98-3.5,1.98s-1-.2-1.6-.5c-.2-.2-.7-.5-1.3-1.09-1.1-.99-1.6-1.49-1.7-1.59-.5-.5-.7-.99-.7-1.49s0-.3,0-.4c.4-1.59,1.7-3.08,3.9-4.56,1.6-.99,3.8-2.08,6.7-3.27,0-.6-.2-.99-.5-1.09-.2-.1-1,0-2.3.6-1.3.5-2.2.99-2.8,1.29-.2.2-.5.3-.8.6-.4.2-.7.2-1,.2-.2,0-.8-.4-1.6-.99-.8-.6-1.2-.99-1.3-1.19-.2-.5,0-.89.6-1.19,0,0,.5-.1,1.3-.3.8-.4,1.6-.69,2.4-1.09,1.7-.69,3.2-.99,4.3-1.09.5,0,1.1.2,1.7.69.6.4,1.1.79,1.7,1.29.1,0,.3.2.6.4,1.1-1.29,2.4-1.89,3.9-1.89.7,0,1.5.1,2.4.4,1.2.4,2.2.89,3,1.59.2.2.4.69.6,1.49.2.89.3,1.69.3,2.58,0,1.19-.2,2.08-.7,2.58-2.3.6-4.6.89-6.9.99,0,.89,0,1.79.4,2.78s.6,1.49,1,1.49.9-.3,1.6-.89c.6-.5.9-.99,1-1.29.2-.5.4-1.09.6-1.69.3,0,1,.1,2.1.4,1,.3,1.7.6,1.8.89h0ZM1159.19,731.88c-1.1.3-2,.89-2.8,1.59-.6.6-1.1,1.19-1.7,1.69-.5.4-.9.89-1.3,1.49s-.6,1.09-.6,1.39,0,.2.2.2c.5,0,1.5-.79,3.1-2.48s2.6-2.98,3.1-3.87h0ZM1166.99,727.31c-.4,0-.9.5-1.6,1.49s-1,1.98-1.2,2.88c1,0,1.8-.2,2.4-.6.3-.2.5-1.09.5-2.68s0-.99-.2-1.09h.1Z"/><path class="cls-7" d="M1180.09,719.28c0,.1,0,.3-.2.5s-.2.4-.2.4c-.1.4-.3.89-.4,1.69v16.67c0,.2,0,.4.2.6s.2.3.2.4c0,1.19-.3,1.79-.8,1.89-.2,0-.9,0-2.1-.4-1.2-.3-1.9-.5-2.2-.69-.5-.3-.7-.69-.7-.99s0-.2.1-.2c0,0,.1-.2.1-.5v-19.15c0-.1,0-.2-.1-.3,0-.1-.1-.2-.1-.3,0-.4.4-.69,1.2-.89h1.4c.8,0,1.5.2,2.1.3.9.2,1.3.5,1.3.89h0l.2.1Z"/><path class="cls-7" d="M1191.09,740.81c-.2,0-.4.1-.6.1-.6,0-1.5-.6-2.9-1.69v5.26c0,.2.1.4.3.79.2.4.3.69.3.79,0,.4-.3.6-.9.6s-1.3-.1-2.4-.4c-.6-.2-1.3-.3-1.9-.5-.6-.1-.9-.4-.9-.79,0-.2,0-.5.2-1.09s.3-.79.3-.89v-17.66c0-.6,0-.99-.2-1.19-.3-.5-.4-.79-.3-.99,0-.2.4-.2.9-.2s1.3,0,2.3.2c1.2.2,1.8.3,1.9.3.4,0,.7.3.8.69v.4c0,.79-.1,1.89-.4,3.27.5-.89,1.1-1.69,1.6-2.58.7-1.09,1.3-1.59,1.9-1.49,4.3.79,6.4,2.98,6.4,6.65s-.7,4.17-2,6.25-2.8,3.47-4.4,4.07h0v.1ZM1190.29,728.11c-.8,0-1.7,3.17-2.7,9.82,1.2-.5,2.3-1.49,3.3-2.98s1.5-2.98,1.5-4.27-.7-2.38-2.2-2.48h0l.1-.1Z"/><path class="cls-7" d="M1222.29,736.54c0,1.29-.5,2.48-1.6,3.27-1.1.89-2.6,1.29-4.5,1.29-.5,0-1,0-1.6-.2-1-.2-1.5-.4-1.6-.4-.5,0-1.1-.2-1.6-.3s-1-.3-1.4-.6c-.6-.4-1.1-1.19-1.4-2.08-.5-1.19-.8-1.89-1.1-2.18-.2-.2-.4-.4-.6-.79,0-.3,0-.5.2-.79s.4-.4.7-.5h.7c.8,0,1.7,0,2.8.2,1.1.2,1.7.3,1.9.4.1.1.3.79.5,1.98.2,1.09.5,1.69.9,1.79h.3c.4,0,.8-.3,1.1-.89.3-.6.4-1.19.4-1.98,0-1.59-.6-2.68-1.8-3.17-2.7-1.19-4.6-2.28-5.7-3.37-1.3-1.19-1.8-2.58-1.7-4.27.1-1.39.7-2.78,1.8-4.17,1.1-1.39,2.2-2.18,3.4-2.48.5,0,2,.3,4.6,1.19.6.2,1.3.4,1.9.6.7.2,1.2.5,1.6.99.6.6.9,1.69.9,3.27s0,.69,0,1.29v.99c0,.1,0,.3.2.6.1.2.2.4.1.6,0,.79-.4,1.19-1.2,1.29-.4,0-1.2,0-2.4-.4-1.3-.3-2.2-.69-2.5-1.09v-.5c0-.3,0-.89.1-1.89s.1-1.69.1-2.08c0-.79-.1-1.19-.3-1.19-.7,0-1.2.4-1.7,1.19-.4.79-.7,1.69-.7,2.58,0,1.59.6,2.78,1.7,3.47l3.9,2.08c1.2.69,2.1,1.29,2.6,1.98.6.89.9,2.08.9,3.67h0l.1.6Z"/><path class="cls-7" d="M1239.99,724.93c.2.2.2.4.2.5s-.1.4-.4.69-.4.4-.4.5v12.6c0,.1,0,.3.2.6.1.3.2.5.2.6,0,.3-.3.6-1,.69-.3,0-1.2,0-2.5-.3-1.4-.3-2.2-.6-2.3-.89-.1-.2,0-.6,0-.99.2-.5.3-.79.3-.99v-.69c-.3.89-.8,1.69-1.4,2.38-.7.79-1.4,1.29-2.2,1.29s-1.7-.2-2.9-.6-1.9-.79-2-1.19c-.6-1.19-.9-5.46-.9-12.9-.2-.3-.3-.69-.3-.99,0-.6.2-.99.8-1.19h.8c.8,0,1.6,0,2.7.3s1.7.4,1.9.6c.1.1.2.2.2.4s-.2.5-.5.99-.5.79-.5.99c0,7.14,0,10.71.2,10.81.3,0,1.1-.79,2.3-2.48s1.9-3.08,1.9-4.07v-5.06c-.3-.2-.4-.5-.4-.89,0-.69.4-1.19,1.1-1.49h.4c.6,0,1.5.1,2.6.3s1.8.4,1.9.5h0Z"/><path class="cls-7" d="M1254.59,737.73c0,.99-.4,1.79-1.2,2.38-.8.6-1.9.89-3.4.89-.3,0-.7,0-1.2-.1-.8-.2-1.1-.3-1.2-.3-.4,0-.8-.2-1.2-.2s-.8-.2-1-.4c-.5-.4-.9-.89-1.4-1.49-.4-.5-.7-.99-1.1-1.59-.3-.5-.5-.79-.5-.99s.2-.5.7-.6h.6c.7,0,1.5,0,2.5.2s1.5.2,1.6.3.2.6.4,1.59c.1.79.4,1.29.7,1.29.5,0,.8-.6.8-1.69s-.5-2.28-1.4-2.68c-2.1-.79-3.5-1.49-4.1-2.18-.8-.79-1.2-1.98-1.2-3.57s.3-1.98,1-2.88,1.4-1.49,2.3-1.69c.4,0,1.7.3,3.8.99.2,0,.8.2,1.7.3.7.1,1.2.3,1.4.6.4.4.7,1.09.7,1.98v1.98c.2.6.2.99.2,1.09,0,.5-.3.79-.9.89-.3,0-.9,0-1.8-.3-1-.3-1.6-.6-1.9-.79,0,0-.1-.79-.2-1.98,0-1.19-.2-1.79-.5-1.79s-.6.4-.9,1.09c-.3.69-.4,1.49-.4,2.18s.2,1.59.8,1.79c1.1.5,2.1.99,3.2,1.49s1.8.99,2.2,1.49c.6.69.8,1.59.8,2.78h0l.1-.1Z"/><path class="cls-7" d="M1272.69,739.81c0,.2-.2.5-.4.69s-.5.3-.8.2c-2.7-.3-4.2-.69-4.5-1.29v-.2s0-.2.2-.3.2-.2.2-.3c0,0,0-.2.1-.2v-.99c-.3.2-.7.6-1.2,1.29-.6.79-1,1.29-1.4,1.59-.7.5-1.5.79-2.4.79s-1-.2-1.6-.5c-.2-.2-.7-.5-1.3-1.09-1.1-.99-1.6-1.49-1.7-1.59-.5-.5-.7-.99-.7-1.49s0-.3,0-.4c.4-1.59,1.7-3.08,3.9-4.56,1.6-.99,3.8-2.08,6.7-3.27,0-.6-.2-.99-.5-1.09-.2-.1-1,0-2.3.6-1.3.5-2.2.99-2.8,1.29-.2.2-.5.3-.8.6-.4.2-.7.2-1,.2-.2,0-.8-.4-1.6-.99-.8-.6-1.2-.99-1.3-1.19-.2-.5,0-.89.6-1.19,0,0,.5-.1,1.3-.3.8-.4,1.6-.69,2.4-1.09,1.7-.69,3.2-.99,4.3-1.09.5,0,1.1.2,1.7.69.6.4,1.2.79,1.7,1.19.6.4,1.2.79,1.8,1.19.7.5,1.1.99,1.1,1.49v10.22c.2.5.3.79.3.99h0v.1ZM1267.39,731.88c-1.1.3-2,.89-2.8,1.59-.6.6-1.1,1.19-1.7,1.69-.5.4-.9.89-1.3,1.49s-.6,1.09-.6,1.39,0,.2.2.2c.5,0,1.5-.79,3.1-2.48s2.6-2.98,3.1-3.87h0Z"/><path class="cls-7" d="M1290.79,738.72c.2.3.3.69.3.99,0,.5-.2.89-.8,1.09h-.8c-.8,0-1.6,0-2.7-.3s-1.7-.4-1.9-.6c-.1-.1-.2-.2-.2-.4s.2-.5.5-.99.5-.79.5-.99c0-7.14,0-10.71-.2-10.81-.3,0-1.1.69-2.3,2.48-1.3,1.79-1.9,3.17-1.9,4.07v5.06c.3.2.4.5.4.89,0,.69-.4,1.19-1.1,1.39h-.4c-.6,0-1.5-.1-2.6-.3s-1.8-.4-1.9-.6-.2-.3-.2-.5.1-.4.4-.69c.2-.3.4-.4.4-.5v-12.6c0-.2,0-.3-.3-.6-.2-.2-.2-.4-.2-.6.1-.4.5-.6,1-.69.3,0,1.2,0,2.5.3,1.4.3,2.2.6,2.3.89v.89c-.2.6-.4.99-.4,1.09,0,.2,0,.4.1.69.3-.89.8-1.69,1.4-2.38.7-.89,1.4-1.29,2.2-1.29s1.7.2,2.9.6,1.9.79,2,1.19c.6,1.19.9,5.46.9,12.9h0l.1.3Z"/><path class="cls-7" d="M1309.29,738.72c.2.3.3.69.3.99,0,.5-.2.89-.8,1.09h-.8c-.8,0-1.6,0-2.7-.3s-1.7-.4-1.9-.6c-.1-.1-.2-.2-.2-.4s.2-.5.5-.99.5-.79.5-.99c0-7.14,0-10.71-.2-10.81-.3,0-1.1.69-2.3,2.48-1.3,1.79-1.9,3.17-1.9,4.07v5.06c.3.2.4.5.4.89,0,.69-.4,1.19-1.1,1.39h-.4c-.6,0-1.5-.1-2.6-.3s-1.8-.4-1.9-.6-.2-.3-.2-.5.1-.4.4-.69c.2-.3.4-.4.4-.5v-12.6c0-.2,0-.3-.3-.6-.2-.2-.2-.4-.2-.6.1-.4.5-.6,1-.69.3,0,1.2,0,2.5.3,1.4.3,2.2.6,2.3.89v.89c-.2.6-.4.99-.4,1.09,0,.2,0,.4.1.69.3-.89.8-1.69,1.4-2.38.7-.89,1.4-1.29,2.2-1.29s1.7.2,2.9.6,1.9.79,2,1.19c.6,1.19.9,5.46.9,12.9h0l.1.3Z"/><path class="cls-7" d="M1325.59,735.65c.2.3-.2,1.09-1.3,2.38-1.1,1.39-2.3,2.38-3.3,2.88h-.6c-.8,0-2-.2-3.3-.69-1.5-.4-2.4-.89-2.9-1.39-1.3-1.39-1.9-3.27-1.9-5.66s.6-4.27,1.7-6.05c1.2-1.89,2.7-2.88,4.6-2.88.7,0,1.5.1,2.5.4,1.2.4,2.2.89,2.9,1.59.2.2.4.69.6,1.49.2.89.3,1.69.3,2.58,0,1.19-.2,2.08-.7,2.58-2.3.6-4.6.89-6.9.99,0,.89,0,1.79.4,2.78s.6,1.49.9,1.49c.4,0,1-.3,1.6-.89.6-.5.9-.99,1-1.29.2-.5.4-1.09.6-1.69.3,0,1,.1,2.1.4,1,.3,1.6.6,1.8.89h0l-.1.1ZM1319.79,727.31c-.4,0-.9.5-1.6,1.49s-1.1,1.98-1.2,2.88c1,0,1.8-.2,2.4-.6.3-.2.5-1.09.5-2.68s0-.99-.2-1.09h.1Z"/><path class="cls-7" d="M1359.29,738.72c.2.3.3.69.3.99,0,.5-.2.89-.8,1.09h-.8c-.8,0-1.6,0-2.7-.3s-1.7-.4-1.9-.6c-.1-.1-.2-.2-.2-.4s.2-.5.5-.99.5-.79.5-.99c0-7.14,0-10.71-.2-10.81-.3,0-1.1.6-2.1,2.18-1.2,1.69-1.8,3.08-1.8,4.37v5.36c.2.4.2.79.2.99,0,.5-.3.79-.8.99h-.8c-.8,0-1.6,0-2.7-.3s-1.7-.4-1.9-.6c0,0-.1-.2-.1-.3,0-.2.2-.5.5-.99s.5-.79.5-.99c0-7.14,0-10.71-.2-10.81-.3,0-1.1.69-2.3,2.48-1.3,1.79-1.9,3.17-1.9,4.07v5.06c.3.2.4.5.4.89,0,.69-.4,1.19-1.1,1.39h-.4c-.6,0-1.5-.1-2.6-.3s-1.8-.4-1.9-.6-.2-.3-.2-.5.1-.4.4-.69c.2-.3.4-.4.4-.5v-12.6c0-.2,0-.3-.3-.6-.2-.2-.2-.4-.2-.6.1-.4.5-.6,1-.69.3,0,1.2,0,2.5.3,1.4.3,2.2.6,2.3.89v.89c-.2.6-.4.99-.4,1.09,0,.2,0,.4.1.69.3-.89.8-1.69,1.4-2.38.7-.89,1.4-1.29,2.2-1.29s1.7.2,2.9.69c1.1.4,1.8.79,2.1,1.09.2.2.4.89.7,1.98.9-1.39,1.4-2.18,1.5-2.38.8-.89,1.5-1.39,2.1-1.39s1.7.2,2.9.6,1.9.79,2,1.19c.6,1.19.9,5.46.9,12.9h0v.4Z"/><path class="cls-7" d="M1375.59,735.65c.2.3-.2,1.09-1.3,2.38-1.1,1.39-2.3,2.38-3.3,2.88h-.6c-.8,0-2-.2-3.3-.69-1.5-.4-2.4-.89-2.9-1.39-1.3-1.39-1.9-3.27-1.9-5.66s.6-4.27,1.7-6.05c1.2-1.89,2.7-2.88,4.6-2.88.7,0,1.5.1,2.5.4,1.2.4,2.2.89,2.9,1.59.2.2.4.69.6,1.49.2.89.3,1.69.3,2.58,0,1.19-.2,2.08-.7,2.58-2.3.6-4.6.89-6.9.99,0,.89,0,1.79.4,2.78s.6,1.49.9,1.49c.4,0,1-.3,1.6-.89.6-.5.9-.99,1-1.29.2-.5.4-1.09.6-1.69.3,0,1,.1,2.1.4,1,.3,1.6.6,1.8.89h0l-.1.1ZM1369.79,727.31c-.4,0-.9.5-1.6,1.49s-1.1,1.98-1.2,2.88c1,0,1.8-.2,2.4-.6.3-.2.5-1.09.5-2.68s0-.99-.2-1.09h.1Z"/><path class="cls-7" d="M1393.69,719.58c0,.2,0,.5-.2,1.09s-.3.79-.3.89v17.66c0,.6,0,.99.2,1.09.3.5.4.79.3.99s-.4.2-.8.2-1.3,0-2.3-.2c-1.2-.2-1.8-.3-1.8-.3-.4,0-.7-.3-.9-.69v-.4c0-.79.1-1.89.4-3.27-.5.89-1,1.79-1.6,2.58-.7,1.09-1.4,1.59-1.9,1.49-4.3-.69-6.5-2.88-6.5-6.55s.7-4.17,2.1-6.35c1.3-2.08,2.8-3.47,4.4-4.07.2,0,.4-.1.6-.1.6,0,1.5.6,2.9,1.69v-5.26c0-.2-.1-.4-.3-.79-.2-.4-.3-.69-.3-.79,0-.4.3-.6.9-.6s1.3.1,2.4.4c.7.2,1.3.4,1.9.5s.9.4.9.79h-.1ZM1387.89,726.52c-1.2.5-2.3,1.49-3.3,2.98s-1.5,2.98-1.5,4.27.7,2.38,2.2,2.48c.8,0,1.7-3.17,2.7-9.82h0l-.1.1Z"/><path class="cls-7" d="M1418.99,739.81c0,.2-.2.5-.4.69s-.5.3-.8.2c-2.7-.3-4.2-.69-4.5-1.29v-.2s0-.2.2-.3.2-.2.2-.3c0,0,0-.2.1-.2v-.99c-.3.2-.7.6-1.2,1.29-.6.79-1,1.29-1.4,1.59-.7.5-1.5.79-2.4.79s-1-.2-1.6-.5c-.2-.2-.7-.5-1.3-1.09-1.1-.99-1.6-1.49-1.7-1.59-.5-.5-.7-.99-.7-1.49s0-.3,0-.4c.4-1.59,1.7-3.08,3.9-4.56,1.6-.99,3.8-2.08,6.7-3.27,0-.6-.2-.99-.5-1.09-.2-.1-1,0-2.3.6-1.3.5-2.2.99-2.8,1.29-.2.2-.5.3-.8.6-.4.2-.7.2-1,.2-.2,0-.8-.4-1.6-.99-.8-.6-1.2-.99-1.3-1.19-.2-.5,0-.89.6-1.19,0,0,.5-.1,1.3-.3.8-.4,1.6-.69,2.4-1.09,1.7-.69,3.2-.99,4.3-1.09.5,0,1.1.2,1.7.69.6.4,1.2.79,1.7,1.19.6.4,1.2.79,1.8,1.19.7.5,1.1.99,1.1,1.49v10.22c.2.5.3.79.3.99h0v.1ZM1413.79,731.88c-1.1.3-2,.89-2.8,1.59-.6.6-1.1,1.19-1.7,1.69-.5.4-.9.89-1.3,1.49s-.6,1.09-.6,1.39,0,.2.2.2c.5,0,1.5-.79,3.1-2.48s2.6-2.98,3.1-3.87h0Z"/><path class="cls-7" d="M1432.49,727.12c0,.3-.2.6-.4.89s-.5.4-.8.4-.2,0-.2,0c-.3,0-1-.1-2.1-.1v10.71s0,.1.2.4.2.6.2.79c0,.5-.4.79-1.3.79-.5,0-1.3-.2-2.5-.5-1.3-.4-2.1-.69-2.1-.99,0-.1,0-.4.2-.79s.3-.69.3-.89v-9.62h-1.1c-.4,0-.9-.3-1.5-.89s-.9-1.09-.9-1.49.1-.5.4-.69.5-.3.8-.3h2.4v-2.48c-.3-.4-.5-.79-.5-1.19s.2-.6.6-.69h.8c.8,0,1.8.1,2.8.3,1.1.2,1.8.4,2.1.6.2.1.2.2.2.4s-.2.5-.5.79-.5.6-.6.79v1.49h1.1c.2,0,.7.3,1.4.99s1.1,1.09,1.1,1.39h0l-.1-.1Z"/><path class="cls-7" d="M1132.59,752.61c0,.3,0,.6-.3.89s-.5.5-.8.5c-.2,0-.4,0-.6-.3s-.5-.3-.7-.3c-1-.2-1.5.6-1.5,2.28v1.59h1.1c.2,0,.7.3,1.4.99.7.69,1,1.09,1,1.39s-.2.6-.4.89-.5.4-.8.4-.2,0-.2,0c-.3,0-1-.1-2.1-.1v10.71c0,.2,0,.3.3.6.2.2.3.4.2.6-.1.6-.6.89-1.4.99-.4,0-1.3-.2-2.5-.5-1.3-.4-2.1-.69-2.1-.99,0-.1,0-.4.2-.79s.3-.69.3-.89v-9.62h-1.1c-.4,0-.9-.3-1.5-.89s-.9-1.09-.9-1.49.1-.5.4-.69.5-.3.8-.3h2.4c0-1.98.1-3.37.4-4.17.7-1.69,2.1-2.58,4.2-2.58s.6,0,.8,0c.7,0,1.4.4,2.2.89.7.5,1.1.79,1.1,1.09h0l.1-.2Z"/><path class="cls-7" d="M1148.99,772.46c0,.2-.2.5-.4.69-.2.2-.5.3-.8.2-2.7-.3-4.2-.69-4.5-1.29v-.2s0-.2.2-.3.2-.2.2-.3c0,0,0-.2.1-.2v-.99c-.3.2-.7.6-1.2,1.29-.6.79-1,1.29-1.4,1.59-.7.5-1.5.79-2.4.79s-1-.2-1.6-.5c-.2-.2-.7-.5-1.3-1.09-1.1-.99-1.6-1.49-1.7-1.59-.5-.5-.7-.99-.7-1.49s0-.3,0-.4c.4-1.59,1.7-3.08,3.9-4.56,1.6-.99,3.8-2.08,6.7-3.27,0-.6-.2-.99-.5-1.09-.2-.1-1,0-2.3.6-1.3.5-2.2.99-2.8,1.29-.2.2-.5.3-.9.6-.4.2-.7.2-1,.2-.2,0-.8-.4-1.6-.99-.8-.6-1.2-.99-1.3-1.19-.2-.5,0-.89.6-1.19,0,0,.5-.1,1.3-.3.8-.4,1.6-.69,2.4-1.09,1.7-.69,3.2-.99,4.3-1.09.5,0,1.1.2,1.7.69.6.4,1.2.79,1.7,1.19.6.4,1.2.79,1.8,1.19.7.5,1.1.99,1.1,1.49v10.22c.2.5.3.79.3.99h0l.1.1ZM1143.69,764.52c-1.1.3-2,.89-2.8,1.59-.6.6-1.1,1.19-1.7,1.69-.5.4-.9.89-1.3,1.49s-.6,1.09-.6,1.39,0,.2.2.2c.5,0,1.5-.79,3.1-2.48s2.6-2.98,3.1-3.87h0ZM1144.99,754.6c-.8.99-2,1.49-3.4,1.49s-1.7-.2-2.3-.69c-.8-.6-1.2-1.29-1.2-2.18s.3-1.49.9-2.08c.9-.99,2-1.49,3.4-1.49s1.6.2,2.2.69c.8.6,1.2,1.29,1.2,2.18s-.3,1.49-.8,2.08h0ZM1142.49,751.62c-.5,0-.9.2-1.3.5s-.6.69-.6,1.09c0,.6.4.89,1.1.89s.9-.2,1.3-.5.6-.69.6-1.09c0-.6-.4-.89-1.1-.89h0Z"/><path class="cls-7" d="M1173.19,771.27c.2.3.3.69.3.99,0,.5-.2.89-.8,1.09h-.8c-.8,0-1.6,0-2.7-.3s-1.7-.4-1.9-.6c-.1-.1-.2-.2-.2-.4s.2-.5.5-.99.5-.79.5-.99c0-7.14,0-10.71-.2-10.81-.3,0-1.1.69-2.3,2.48-1.3,1.79-1.9,3.17-1.9,4.07v5.06c.3.2.4.5.4.89,0,.69-.4,1.19-1.1,1.39h-.4c-.6,0-1.5-.1-2.6-.3s-1.8-.4-1.9-.6-.2-.3-.2-.5.1-.4.4-.69c.2-.3.4-.4.4-.5v-12.6c0-.2,0-.3-.3-.6-.2-.2-.2-.4-.2-.6.1-.4.5-.6,1-.69.3,0,1.2,0,2.5.3,1.4.3,2.2.6,2.3.89v.89c-.2.6-.4.99-.4,1.09,0,.2,0,.4.1.69.3-.89.8-1.69,1.4-2.38.7-.89,1.4-1.29,2.2-1.29s1.7.2,2.9.6,1.9.79,2,1.19c.6,1.19.9,5.46.9,12.9h0l.1.3Z"/><path class="cls-7" d="M1187.49,757.47c1.2.5,2.1,1.39,2.8,2.88.6,1.29.9,2.88.9,4.66s-.5,4.56-1.5,6.35c-1.1,1.89-2.5,2.78-4.2,2.58-.6-.1-1.5-.3-2.8-.5-.9,0-1.7-.2-2.4-.4-1.2-.3-2.2-1.19-3-2.68-.7-1.39-1-2.98-1-4.86s.3-3.57,1.1-5.06c.8-1.69,1.9-2.88,3.3-3.47.2-.1.6-.2,1-.2s1.3.1,2.6.4c.8,0,1.9,0,3.3.3h-.1ZM1183.79,759.86c-.6,0-1.1.6-1.6,1.79s-.8,2.28-.8,3.37.2,2.58.6,3.87c.4,1.39.9,2.08,1.4,2.18.7.1,1.3-.5,1.9-1.98.5-1.39.8-2.88.8-4.56s-.1-1.79-.4-2.78c-.4-1.29-1-1.98-1.8-1.98h0l-.1.1Z"/><path class="cls-7" d="M1208.09,758.67s-.1.2-.4.5c-.2.3-.2.5-.2.6v11.91c0,2.98-1.3,4.96-4.1,5.75-1.2.4-2.4.6-3.4.6-1.5,0-2.8-.4-3.9-1.29-.3-.2-.8-.69-1.6-1.39,0,0-.2-.2-.6-.5-.2-.2-.3-.4-.4-.6,0-.3.3-.5,1-.69h.4c.5,0,1.1,0,1.7.2s1.2.4,1.4.6c.3.4.7.69,1.1,1.09s.8.6,1.3.6c.9,0,1.5-.4,1.7-1.49.1-.5.2-1.49.2-2.78,0,0-.3.3-.6.69-.3.3-.5.5-.7.6-.2.2-.5.3-.8.3-1.2,0-2.1-.3-2.9-.79-2.3-1.59-3.5-4.07-3.5-7.14s.5-3.77,1.6-5.46,2.5-2.78,4.2-3.17h.4c.3,0,.8.1,1.2.4.4.2.8.5,1.1.69.1-.3.3-.6.4-.89s.4-.5.7-.5c.5,0,1.3,0,2.4.4,1.2.3,1.8.6,2,.79.3.4.3.69.2.99h.1ZM1202.19,765.31c.2-1.29.3-2.28.3-3.08,0-1.49-.3-2.28-.8-2.48s-1,.5-1.7,1.89-1,2.78-1,3.87c0,2.18.3,3.87.9,5.06,1.3-1.69,2.1-3.47,2.4-5.36l-.1.1Z"/><path class="cls-7" d="M1223.79,768.29c.2.3-.2,1.09-1.3,2.38-1.1,1.39-2.3,2.38-3.3,2.88h-.6c-.8,0-2-.2-3.3-.69-1.5-.4-2.4-.89-2.9-1.39-1.3-1.39-1.9-3.27-1.9-5.66s.6-4.27,1.7-6.05c1.2-1.89,2.7-2.88,4.6-2.88.7,0,1.5.1,2.5.4,1.2.4,2.2.89,2.9,1.59.2.2.4.69.6,1.49.2.89.3,1.69.3,2.58,0,1.19-.2,2.08-.7,2.58-2.3.6-4.6.89-6.9.99,0,.89,0,1.79.4,2.78s.6,1.49.9,1.49c.4,0,1-.3,1.6-.89.6-.5.9-.99,1-1.29.2-.5.4-1.09.6-1.69.3,0,1,.1,2.1.4,1,.3,1.6.6,1.8.89h0l-.1.1ZM1217.99,759.96c-.4,0-.9.5-1.6,1.49s-1.1,1.98-1.2,2.88c1,0,1.8-.2,2.4-.6.3-.2.5-1.09.5-2.68s0-.99-.2-1.09h.1Z"/><path class="cls-7" d="M1237.09,759.76c0,.3-.2.6-.4.89s-.5.4-.8.4-.2,0-.2,0c-.3,0-1-.1-2.1-.1v10.71s0,.1.2.4.2.6.2.79c0,.5-.4.79-1.3.79-.5,0-1.3-.2-2.5-.5-1.3-.4-2.1-.69-2.1-.99,0-.1,0-.4.2-.79s.3-.69.3-.89v-9.62h-1.1c-.4,0-.9-.3-1.5-.89s-.9-1.09-.9-1.49.1-.5.4-.69.5-.3.8-.3h2.4v-2.48c-.3-.4-.5-.79-.5-1.19s.2-.6.6-.69h.8c.8,0,1.8.1,2.8.3,1.1.2,1.8.4,2.1.6.2.1.2.2.2.4s-.2.5-.5.79-.5.6-.6.79v1.49h1.1c.2,0,.7.3,1.4.99s1.1,1.09,1.1,1.39h0l-.1-.1Z"/><path class="cls-7" d="M1270.69,771.27c.2.3.3.69.3.99,0,.5-.2.89-.8,1.09h-.8c-.8,0-1.6,0-2.7-.3s-1.7-.4-1.9-.6c-.1-.1-.2-.2-.2-.4s.2-.5.5-.99.5-.79.5-.99c0-7.14,0-10.71-.2-10.81-.3,0-1.1.6-2.1,2.18-1.2,1.69-1.8,3.08-1.8,4.37v5.36c.2.4.2.79.2.99,0,.5-.3.79-.8.99h-.8c-.8,0-1.6,0-2.7-.3s-1.7-.4-1.9-.6c0,0-.1-.2-.1-.3,0-.2.2-.5.5-.99s.5-.79.5-.99c0-7.14,0-10.71-.2-10.81-.3,0-1.1.69-2.3,2.48-1.3,1.79-1.9,3.17-1.9,4.07v5.06c.3.2.4.5.4.89,0,.69-.4,1.19-1.1,1.39h-.4c-.6,0-1.5-.1-2.6-.3s-1.8-.4-1.9-.6-.2-.3-.2-.5.1-.4.4-.69c.2-.3.4-.4.4-.5v-12.6c0-.2,0-.3-.3-.6-.2-.2-.2-.4-.2-.6.1-.4.5-.6,1-.69.3,0,1.2,0,2.5.3,1.4.3,2.2.6,2.3.89v.89c-.2.6-.4.99-.4,1.09,0,.2,0,.4.1.69.3-.89.8-1.69,1.4-2.38.7-.89,1.4-1.29,2.2-1.29s1.7.2,2.9.69c1.1.4,1.8.79,2.1,1.09.2.2.4.89.7,1.98.9-1.39,1.4-2.18,1.5-2.38.8-.89,1.5-1.39,2.1-1.39s1.7.2,2.9.6,1.9.79,2,1.19c.6,1.19.9,5.46.9,12.9h0v.4Z"/><path class="cls-7" d="M1288.99,772.46c0,.2-.2.5-.4.69s-.5.3-.8.2c-2.7-.3-4.2-.69-4.5-1.29v-.2s0-.2.2-.3.2-.2.2-.3c0,0,0-.2.1-.2v-.99c-.3.2-.7.6-1.2,1.29-.6.79-1,1.29-1.4,1.59-.7.5-1.5.79-2.4.79s-1-.2-1.6-.5c-.2-.2-.7-.5-1.3-1.09-1.1-.99-1.6-1.49-1.7-1.59-.5-.5-.7-.99-.7-1.49s0-.3,0-.4c.4-1.59,1.7-3.08,3.9-4.56,1.6-.99,3.8-2.08,6.7-3.27,0-.6-.2-.99-.5-1.09-.2-.1-1,0-2.3.6-1.3.5-2.2.99-2.8,1.29-.2.2-.5.3-.8.6-.4.2-.7.2-1,.2-.2,0-.8-.4-1.6-.99-.8-.6-1.2-.99-1.3-1.19-.2-.5,0-.89.6-1.19,0,0,.5-.1,1.3-.3.8-.4,1.6-.69,2.4-1.09,1.7-.69,3.2-.99,4.3-1.09.5,0,1.1.2,1.7.69.6.4,1.2.79,1.7,1.19.6.4,1.2.79,1.8,1.19.7.5,1.1.99,1.1,1.49v10.22c.2.5.3.79.3.99h0v.1ZM1283.79,764.52c-1.1.3-2,.89-2.8,1.59-.6.6-1.1,1.19-1.7,1.69-.5.4-.9.89-1.3,1.49s-.6,1.09-.6,1.39,0,.2.2.2c.5,0,1.5-.79,3.1-2.48s2.6-2.98,3.1-3.87h0Z"/><path class="cls-7" d="M1306.99,752.12c0,.2,0,.5-.2,1.09s-.3.79-.3.89v17.66c0,.6,0,.99.2,1.09.3.5.4.79.3.99s-.4.2-.8.2-1.3,0-2.3-.2c-1.2-.2-1.8-.3-1.8-.3-.4,0-.7-.3-.9-.69v-.4c0-.79.1-1.89.4-3.27-.5.89-1,1.79-1.6,2.58-.7,1.09-1.4,1.59-1.9,1.49-4.3-.69-6.5-2.88-6.5-6.55s.7-4.17,2.1-6.35c1.3-2.08,2.8-3.47,4.4-4.07.2,0,.4-.1.6-.1.6,0,1.5.6,2.9,1.69v-5.26c0-.2-.1-.4-.3-.79-.2-.4-.3-.69-.3-.79,0-.4.3-.6.9-.6s1.3.1,2.4.4c.7.2,1.3.4,1.9.5s.9.4.9.79h-.1ZM1301.29,759.16c-1.2.5-2.3,1.49-3.3,2.98s-1.5,2.98-1.5,4.27.7,2.38,2.2,2.48c.8,0,1.7-3.17,2.7-9.82h0l-.1.1Z"/><path class="cls-7" d="M1323.49,772.46c0,.69-.2,1.09-.8,1.19h-.5c-.8,0-1.8-.1-2.9-.4-1.2-.3-2-.6-2.2-.89-.1-.2,0-.4.3-.79.2-.3.3-.79.3-1.49v-11.41c-.3-.69-.4-1.19-.4-1.39s.4-.4,1.2-.4,1.6.2,2.8.5c1.2.3,1.9.6,2.1.89v.3c0,.1-.1.4-.4.79s-.4.69-.4.89v10.91c0,.2.1.4.4.69s.4.5.4.6h.1ZM1323.59,753.7v.2c0,.4,0,.89-.3,1.59-.2.69-.4,1.09-.6,1.19-.2,0-1.2-.1-2.8-.6-1.7-.5-2.6-.79-2.7-.99v-.4c0-.5.2-.99.5-1.59s.8-.99,1.2-.99c.5,0,1.4,0,2.6.5s2,.79,2.2,1.19h0l-.1-.1Z"/><path class="cls-7" d="M1341.59,771.27c.2.3.3.69.3.99,0,.5-.2.89-.8,1.09h-.8c-.8,0-1.6,0-2.7-.3s-1.7-.4-1.9-.6c-.1-.1-.2-.2-.2-.4s.2-.5.5-.99.5-.79.5-.99c0-7.14,0-10.71-.2-10.81-.3,0-1.1.69-2.3,2.48-1.3,1.79-1.9,3.17-1.9,4.07v5.06c.3.2.4.5.4.89,0,.69-.4,1.19-1.1,1.39h-.4c-.6,0-1.5-.1-2.6-.3s-1.8-.4-1.9-.6-.2-.3-.2-.5.1-.4.4-.69c.2-.3.4-.4.4-.5v-12.6c0-.2,0-.3-.3-.6-.2-.2-.2-.4-.2-.6.1-.4.5-.6,1-.69.3,0,1.2,0,2.5.3,1.4.3,2.2.6,2.3.89v.89c-.2.6-.4.99-.4,1.09,0,.2,0,.4.1.69.3-.89.8-1.69,1.4-2.38.7-.89,1.4-1.29,2.2-1.29s1.7.2,2.9.6,1.9.79,2,1.19c.6,1.19.9,5.46.9,12.9h0l.1.3Z"/><path class="cls-7" d="M1359.99,752.12c0,.2,0,.5-.2,1.09s-.3.79-.3.89v17.66c0,.6,0,.99.2,1.09.3.5.4.79.3.99s-.4.2-.8.2-1.3,0-2.3-.2c-1.2-.2-1.8-.3-1.8-.3-.4,0-.7-.3-.9-.69v-.4c0-.79.1-1.89.4-3.27-.5.89-1,1.79-1.6,2.58-.7,1.09-1.4,1.59-1.9,1.49-4.3-.69-6.5-2.88-6.5-6.55s.7-4.17,2.1-6.35c1.3-2.08,2.8-3.47,4.4-4.07.2,0,.4-.1.6-.1.6,0,1.5.6,2.9,1.69v-5.26c0-.2-.1-.4-.3-.79-.2-.4-.3-.69-.3-.79,0-.4.3-.6.9-.6s1.3.1,2.4.4c.7.2,1.3.4,1.9.5s.9.4.9.79h-.1ZM1354.29,759.16c-1.2.5-2.3,1.49-3.3,2.98s-1.5,2.98-1.5,4.27.7,2.38,2.2,2.48c.8,0,1.7-3.17,2.7-9.82h0l-.1.1Z"/><path class="cls-7" d="M1375.29,768.29c.2.3-.2,1.09-1.3,2.38-1.1,1.39-2.3,2.38-3.3,2.88h-.6c-.8,0-2-.2-3.3-.69-1.5-.4-2.4-.89-2.9-1.39-1.3-1.39-1.9-3.27-1.9-5.66s.6-4.27,1.7-6.05c1.2-1.89,2.7-2.88,4.6-2.88.7,0,1.5.1,2.5.4,1.2.4,2.2.89,2.9,1.59.2.2.4.69.6,1.49.2.89.3,1.69.3,2.58,0,1.19-.2,2.08-.7,2.58-2.3.6-4.6.89-6.9.99,0,.89,0,1.79.4,2.78s.6,1.49.9,1.49c.4,0,1-.3,1.6-.89.6-.5.9-.99,1-1.29.2-.5.4-1.09.6-1.69.3,0,1,.1,2.1.4,1,.3,1.6.6,1.8.89h0l-.1.1ZM1369.39,759.96c-.4,0-.9.5-1.6,1.49s-1.1,1.98-1.2,2.88c1,0,1.8-.2,2.4-.6.3-.2.5-1.09.5-2.68s0-.99-.2-1.09h.1Z"/><path class="cls-7" d="M1392.69,771.27c.2.3.3.69.3.99,0,.5-.2.89-.8,1.09h-.8c-.8,0-1.6,0-2.7-.3s-1.7-.4-1.9-.6c-.1-.1-.2-.2-.2-.4s.2-.5.5-.99.5-.79.5-.99c0-7.14,0-10.71-.2-10.81-.3,0-1.1.69-2.3,2.48-1.3,1.79-1.9,3.17-1.9,4.07v5.06c.3.2.4.5.4.89,0,.69-.4,1.19-1.1,1.39h-.4c-.6,0-1.5-.1-2.6-.3s-1.8-.4-1.9-.6-.2-.3-.2-.5.1-.4.4-.69c.2-.3.4-.4.4-.5v-12.6c0-.2,0-.3-.3-.6-.2-.2-.2-.4-.2-.6.1-.4.5-.6,1-.69.3,0,1.2,0,2.5.3,1.4.3,2.2.6,2.3.89v.89c-.2.6-.4.99-.4,1.09,0,.2,0,.4.1.69.3-.89.8-1.69,1.4-2.38.7-.89,1.4-1.29,2.2-1.29s1.7.2,2.9.6,1.9.79,2,1.19c.6,1.19.9,5.46.9,12.9h0l.1.3Z"/><path class="cls-7" d="M1417.59,772.46c-.1.5-.3.89-.7.99h-.8c-.8,0-1.6,0-2.7-.3s-1.7-.4-1.9-.6c0,0-.1-.2-.1-.3s0-.4.3-.79c.1-.2.3-.3.4-.5.2-.2.2-.4.2-.69,0-7.14,0-10.71-.2-10.81-.3,0-1.1.6-2.3,1.98-1.3,1.49-1.9,2.68-1.9,3.57v6.05c.3.3.5.69.4,1.19-.1.6-.5.99-1.1,1.19h-.4c-.6,0-1.5-.1-2.6-.3s-1.8-.4-1.9-.5c-.2-.3-.3-.6,0-.99,0,0,.1-.2.3-.3.2-.1.3-.3.3-.4v-19.15c0-.2,0-.3-.3-.6-.2-.2-.2-.4-.2-.6.1-.4.5-.6,1-.69.3,0,1.2,0,2.5.3,1.4.3,2.2.6,2.3.89v.89c0,.4-.2.89-.2,1.49v5.06c1.2-1.29,2.4-1.89,3.6-1.89s1.7.2,2.9.6,1.9.79,2,1.19c.6,1.19.9,5.46.9,12.9.2.4.3.79.2,1.19h0v-.1Z"/><path class="cls-7" d="M1435.39,757.47c.2.2.2.4.2.5s-.1.4-.4.69-.4.4-.4.5v12.6c0,.1,0,.3.2.6.1.3.2.5.2.6,0,.3-.3.6-1,.69-.3,0-1.2,0-2.5-.3-1.4-.3-2.2-.6-2.3-.89-.1-.2,0-.6,0-.99.2-.5.3-.79.3-.99v-.69c-.3.89-.8,1.69-1.4,2.38-.7.79-1.4,1.29-2.2,1.29s-1.7-.2-2.9-.6-1.9-.79-2-1.19c-.6-1.19-.9-5.46-.9-12.9-.2-.3-.3-.69-.3-.99,0-.6.2-.99.8-1.19h.8c.8,0,1.6,0,2.7.3s1.7.4,1.9.6c.1.1.2.2.2.4s-.2.5-.5.99-.5.79-.5.99c0,7.14,0,10.71.2,10.81.3,0,1.1-.79,2.3-2.48s1.9-3.08,1.9-4.07v-5.06c-.3-.2-.4-.5-.4-.89,0-.69.4-1.19,1.1-1.49h.4c.6,0,1.5.1,2.6.3s1.8.4,1.9.5h0Z"/><path class="cls-7" d="M1453.59,771.27c.2.3.3.69.3.99,0,.5-.2.89-.8,1.09h-.8c-.8,0-1.6,0-2.7-.3s-1.7-.4-1.9-.6c-.1-.1-.2-.2-.2-.4s.2-.5.5-.99.5-.79.5-.99c0-7.14,0-10.71-.2-10.81-.3,0-1.1.69-2.3,2.48-1.3,1.79-1.9,3.17-1.9,4.07v5.06c.3.2.4.5.4.89,0,.69-.4,1.19-1.1,1.39h-.4c-.6,0-1.5-.1-2.6-.3s-1.8-.4-1.9-.6-.2-.3-.2-.5.1-.4.4-.69c.2-.3.4-.4.4-.5v-12.6c0-.2,0-.3-.3-.6-.2-.2-.2-.4-.2-.6.1-.4.5-.6,1-.69.3,0,1.2,0,2.5.3,1.4.3,2.2.6,2.3.89v.89c-.2.6-.4.99-.4,1.09,0,.2,0,.4.1.69.3-.89.8-1.69,1.4-2.38.7-.89,1.4-1.29,2.2-1.29s1.7.2,2.9.6,1.9.79,2,1.19c.6,1.19.9,5.46.9,12.9h0l.1.3Z"/><path class="cls-7" d="M1132.99,802.91c0,.99-.4,1.79-1.2,2.38-.8.6-1.9.89-3.4.89-.3,0-.7,0-1.2-.1-.8-.2-1.1-.3-1.2-.3-.4,0-.8-.2-1.2-.2s-.8-.2-1-.4c-.5-.4-.9-.89-1.4-1.49-.4-.5-.7-.99-1.1-1.59-.3-.5-.5-.79-.5-.99s.2-.5.7-.6h.6c.7,0,1.5,0,2.5.2s1.5.2,1.6.3.2.6.4,1.59c.1.79.4,1.29.7,1.29.5,0,.8-.6.8-1.69s-.5-2.28-1.4-2.68c-2.1-.79-3.5-1.49-4.1-2.18-.8-.79-1.2-1.98-1.2-3.57s.3-1.98,1-2.88,1.4-1.49,2.3-1.69c.4,0,1.7.3,3.8.99.2,0,.8.2,1.7.3.7.1,1.2.3,1.4.6.4.4.7,1.09.7,1.98v1.98c.2.6.2.99.2,1.09,0,.5-.3.79-.9.89-.3,0-.9,0-1.8-.3-1-.3-1.6-.6-1.9-.79,0,0-.1-.79-.2-1.98,0-1.19-.2-1.79-.5-1.79s-.6.4-.9,1.09c-.3.69-.4,1.49-.4,2.18s.2,1.59.8,1.79c1.1.5,2.1.99,3.2,1.49s1.8.99,2.2,1.49c.6.69.8,1.59.8,2.78h0l.1-.1Z"/><path class="cls-7" d="M1151.39,802.91c0,.3-.4.99-1.2,1.89-.9.89-1.6,1.29-2,1.29-.9-.1-2.9-2.18-6-6.25-.2.2-.6.5-1.1.99v3.67c0,.2,0,.4.1.5,0,.6,0,.99-.5,1.19-.2,0-.5.1-.9.1-.8,0-1.6-.1-2.4-.4-.9-.3-1.4-.6-1.4-.99v-20.14c0-.3.1-.6.3-.99.2-.3.5-.6.8-.69h.3c.6,0,1.4.2,2.4.5s1.6.6,1.7.79v.3c0,.2,0,.3-.3.6-.2.2-.3.4-.3.6v9.43l4.9-5.56c.3-.3.7-.5,1.1-.5s1,.2,1.7.69c.8.5,1.3.99,1.3,1.49,0,.2-.5.89-1.6,2.08-1.6,1.89-2.6,3.08-2.9,3.47l4.3,4.86c.2.2.5.4.9.6.4.2.6.3.6.5h.2Z"/><path class="cls-7" d="M1169.09,805c0,.2-.2.5-.4.69s-.5.3-.8.2c-2.7-.3-4.2-.69-4.5-1.29v-.2s0-.2.2-.3.2-.2.2-.3c0,0,0-.2.1-.2v-.99c-.3.2-.7.6-1.2,1.29-.6.79-1,1.29-1.4,1.59-.7.5-1.5.79-2.4.79s-1-.2-1.6-.5c-.2-.2-.7-.5-1.3-1.09-1.1-.99-1.6-1.49-1.7-1.59-.5-.5-.7-.99-.7-1.49s0-.3,0-.4c.4-1.59,1.7-3.08,3.9-4.56,1.6-.99,3.8-2.08,6.7-3.27,0-.6-.2-.99-.5-1.09-.2-.1-1,0-2.3.6-1.3.5-2.2.99-2.8,1.29-.2.2-.5.3-.8.6-.4.2-.7.2-1,.2-.2,0-.8-.4-1.6-.99-.8-.6-1.2-.99-1.3-1.19-.2-.5,0-.89.6-1.19,0,0,.5-.1,1.3-.3.8-.4,1.6-.69,2.4-1.09,1.7-.69,3.2-.99,4.3-1.09.5,0,1.1.2,1.7.69.6.4,1.2.79,1.7,1.19.6.4,1.2.79,1.8,1.19.7.5,1.1.99,1.1,1.49v10.22c.2.5.3.79.3.99h0v.1ZM1163.79,797.06c-1.1.3-2,.89-2.8,1.59-.6.6-1.1,1.19-1.7,1.69-.5.4-.9.89-1.3,1.49s-.6,1.09-.6,1.39,0,.2.2.2c.5,0,1.5-.79,3.1-2.48s2.6-2.98,3.1-3.87h0Z"/><path class="cls-7" d="M1178.19,784.46c0,.1,0,.3-.2.5s-.2.4-.2.4c-.1.4-.3.89-.4,1.69v16.67c0,.2,0,.4.2.6s.2.3.2.4c0,1.19-.3,1.79-.8,1.89-.2,0-.9,0-2.1-.4-1.2-.3-1.9-.5-2.2-.69-.5-.3-.7-.69-.7-.99s0-.2.1-.2c0,0,.1-.2.1-.5v-19.15c0-.1,0-.2-.1-.3,0-.1-.1-.2-.1-.3,0-.4.4-.69,1.2-.89h1.4c.8,0,1.5.2,2.1.3.9.2,1.3.5,1.3.89h0l.2.1Z"/><path class="cls-7" d="M1194.09,805.1c0,.69-.2,1.09-.8,1.19h-.5c-.8,0-1.8-.1-2.9-.4-1.2-.3-2-.6-2.2-.89-.1-.2,0-.4.3-.79.2-.3.3-.79.3-1.49v-11.41c-.3-.69-.4-1.19-.4-1.39s.4-.4,1.2-.4,1.6.2,2.8.5c1.2.3,1.9.6,2.1.89v.3c0,.1-.1.4-.4.79s-.4.69-.4.89v10.91c0,.2.1.4.4.69s.4.5.4.6h.1ZM1194.19,786.25v.2c0,.4,0,.89-.3,1.59-.2.69-.4,1.09-.6,1.19-.2,0-1.2-.1-2.8-.6-1.7-.5-2.6-.79-2.7-.99v-.4c0-.5.2-.99.5-1.59s.8-.99,1.2-.99c.5,0,1.4,0,2.6.5s2,.79,2.2,1.19h0l-.1-.1Z"/><path class="cls-7" d="M1215.99,802.91c0,.99-.4,1.79-1.2,2.38-.8.6-1.9.89-3.4.89-.3,0-.7,0-1.2-.1-.8-.2-1.1-.3-1.2-.3-.4,0-.8-.2-1.2-.2s-.8-.2-1-.4c-.5-.4-.9-.89-1.4-1.49-.4-.5-.7-.99-1.1-1.59-.3-.5-.5-.79-.5-.99s.2-.5.7-.6h.6c.7,0,1.5,0,2.5.2s1.5.2,1.6.3.2.6.4,1.59c.1.79.4,1.29.7,1.29.5,0,.8-.6.8-1.69s-.5-2.28-1.4-2.68c-2.1-.79-3.5-1.49-4.1-2.18-.8-.79-1.2-1.98-1.2-3.57s.3-1.98,1-2.88,1.4-1.49,2.3-1.69c.4,0,1.7.3,3.8.99.2,0,.8.2,1.7.3.7.1,1.2.3,1.4.6.4.4.7,1.09.7,1.98v1.98c.2.6.2.99.2,1.09,0,.5-.3.79-.9.89-.3,0-.9,0-1.8-.3-1-.3-1.6-.6-1.9-.79,0,0-.1-.79-.2-1.98,0-1.19-.2-1.79-.5-1.79s-.6.4-.9,1.09c-.3.69-.4,1.49-.4,2.18s.2,1.59.8,1.79c1.1.5,2.1.99,3.2,1.49s1.8.99,2.2,1.49c.6.69.8,1.59.8,2.78h0l.1-.1Z"/><path class="cls-7" d="M1234.39,802.91c0,.3-.4.99-1.2,1.89-.9.89-1.6,1.29-2,1.29-.9-.1-2.9-2.18-6-6.25-.2.2-.6.5-1.1.99v3.67c0,.2,0,.4.1.5,0,.6,0,.99-.5,1.19-.2,0-.5.1-.9.1-.8,0-1.6-.1-2.4-.4-.9-.3-1.4-.6-1.4-.99v-20.14c0-.3.1-.6.3-.99.2-.3.5-.6.8-.69h.3c.6,0,1.4.2,2.4.5s1.6.6,1.7.79v.3c0,.2,0,.3-.3.6-.2.2-.3.4-.3.6v9.43l4.9-5.56c.3-.3.7-.5,1.1-.5s1,.2,1.7.69c.8.5,1.3.99,1.3,1.49,0,.2-.5.89-1.6,2.08-1.6,1.89-2.6,3.08-2.9,3.47l4.3,4.86c.2.2.5.4.9.6.4.2.6.3.6.5h.2Z"/><path class="cls-7" d="M1247.39,790.02c1.2.5,2.1,1.39,2.8,2.88.6,1.29.9,2.88.9,4.66s-.5,4.56-1.5,6.35c-1.1,1.89-2.5,2.78-4.2,2.58-.6-.1-1.5-.3-2.8-.5-.9,0-1.7-.2-2.4-.4-1.2-.3-2.2-1.19-3-2.68-.7-1.39-1-2.98-1-4.86s.3-3.57,1.1-5.06c.8-1.69,1.9-2.88,3.3-3.47.2-.1.6-.2,1-.2s1.3.1,2.6.4c.8,0,1.9,0,3.3.3h-.1ZM1243.69,792.5c-.6,0-1.1.6-1.6,1.79s-.8,2.28-.8,3.37.2,2.58.6,3.87c.4,1.39.9,2.08,1.4,2.18.7.1,1.3-.5,1.9-1.98.5-1.39.8-2.88.8-4.56s-.1-1.79-.4-2.78c-.4-1.29-1-1.98-1.8-1.98h0l-.1.1Z"/><path class="cls-7" d="M1259.89,784.46c0,.1,0,.3-.2.5s-.2.4-.2.4c-.1.4-.3.89-.4,1.69v16.67c0,.2,0,.4.2.6s.2.3.2.4c0,1.19-.3,1.79-.8,1.89-.2,0-.9,0-2.1-.4-1.2-.3-1.9-.5-2.2-.69-.5-.3-.7-.69-.7-.99s0-.2.1-.2c0,0,.1-.2.1-.5v-19.15c0-.1,0-.2-.1-.3,0-.1-.1-.2-.1-.3,0-.4.4-.69,1.2-.89h1.4c.8,0,1.5.2,2.1.3.9.2,1.3.5,1.3.89h0l.2.1Z"/><path class="cls-7" d="M1275.49,800.83c.2.3-.2,1.09-1.3,2.38-1.1,1.39-2.3,2.38-3.3,2.88h-.6c-.8,0-2-.2-3.3-.69-1.5-.4-2.4-.89-2.9-1.39-1.3-1.39-1.9-3.27-1.9-5.66s.6-4.27,1.7-6.05c1.2-1.89,2.7-2.88,4.6-2.88.7,0,1.5.1,2.5.4,1.2.4,2.2.89,2.9,1.59.2.2.4.69.6,1.49.2.89.3,1.69.3,2.58,0,1.19-.2,2.08-.7,2.58-2.3.6-4.6.89-6.9.99,0,.89,0,1.79.4,2.78s.6,1.49.9,1.49c.4,0,1-.3,1.6-.89.6-.5.9-.99,1-1.29.2-.5.4-1.09.6-1.69.3,0,1,.1,2.1.4,1,.3,1.6.6,1.8.89h0l-.1.1ZM1269.69,792.5c-.4,0-.9.5-1.6,1.49s-1.1,1.98-1.2,2.88c1,0,1.8-.2,2.4-.6.3-.2.5-1.09.5-2.68s0-.99-.2-1.09h.1Z"/><path class="cls-7" d="M1283.69,797.56c0,.69-.2.99-.6,1.09h-.3c-.6,0-1.4-.2-2.4-.6s-1.8-.89-2.4-1.49c-.3-.2-.3-.69,0-1.29s.4-.99.4-.99v-10.22c0-.5.3-.79,1-.99h.6c.6,0,1.3.1,2.1.3.8.2,1.3.5,1.5.69v13.59h0l.1-.1ZM1283.69,801.53v1.29c0,.99-.1,1.49-.1,1.79,0,.69,0,1.29-.1,1.69s-.4.6-.8.69c-.3,0-1-.1-2.3-.5-1.3-.5-2.1-.79-2.4-1.19-.2-.2,0-.5.2-.99.1-.2.2-.5.2-.99v-2.28c0-.69.4-.99,1-.99s1.5.2,2.6.6,1.7.69,1.8.89h-.1Z"/></g></g></svg>