<?xml version="1.0" encoding="UTF-8"?><svg id="Layer_1" xmlns="http://www.w3.org/2000/svg" width="1920" height="1080" xmlns:xlink="http://www.w3.org/1999/xlink" viewBox="0 0 1920 1080"><defs><style>.cls-1{fill:none;}.cls-2{fill:#ffdde7;}.cls-3{fill:#563300;}.cls-4{fill:#231f20;}.cls-5{fill:#e2d9dc;}.cls-6{fill:#e8cc7c;}.cls-7{fill:#8ca63f;}.cls-8{fill:#efdfc7;}.cls-9{fill:#fff;}.cls-10{fill:#cc001c;}.cls-11{fill:#443200;}.cls-12{fill:#e6e7e8;}.cls-13{clip-path:url(#clippath);}</style><clipPath id="clippath"><rect class="cls-1" x="13.22" y="555.93" width="1893.01" height="524.19"/></clipPath></defs><rect class="cls-6" width="1920" height="556"/><g class="cls-13"><g id="_Grid_Repeat_"><rect class="cls-5" x="13.22" y="555.93" width="50.44" height="50.44"/><rect class="cls-5" x="63.66" y="606.37" width="50.44" height="50.44"/></g><g id="_Grid_Repeat_-2"><rect class="cls-5" x="119.14" y="555.93" width="50.44" height="50.44"/><rect class="cls-5" x="169.58" y="606.37" width="50.44" height="50.44"/></g><g id="_Grid_Repeat_-3"><rect class="cls-5" x="225.06" y="555.93" width="50.44" height="50.44"/><rect class="cls-5" x="275.5" y="606.37" width="50.44" height="50.44"/></g><g id="_Grid_Repeat_-4"><rect class="cls-5" x="330.99" y="555.93" width="50.44" height="50.44"/><rect class="cls-5" x="381.43" y="606.37" width="50.44" height="50.44"/></g><g id="_Grid_Repeat_-5"><rect class="cls-5" x="436.91" y="555.93" width="50.44" height="50.44"/><rect class="cls-5" x="487.35" y="606.37" width="50.44" height="50.44"/></g><g id="_Grid_Repeat_-6"><rect class="cls-5" x="542.83" y="555.93" width="50.44" height="50.44"/><rect class="cls-5" x="593.27" y="606.37" width="50.44" height="50.44"/></g><g id="_Grid_Repeat_-7"><rect class="cls-5" x="648.76" y="555.93" width="50.44" height="50.44"/><rect class="cls-5" x="699.2" y="606.37" width="50.44" height="50.44"/></g><g id="_Grid_Repeat_-8"><rect class="cls-5" x="754.68" y="555.93" width="50.44" height="50.44"/><rect class="cls-5" x="805.12" y="606.37" width="50.44" height="50.44"/></g><g id="_Grid_Repeat_-9"><rect class="cls-5" x="860.6" y="555.93" width="50.44" height="50.44"/><rect class="cls-5" x="911.04" y="606.37" width="50.44" height="50.44"/></g><g id="_Grid_Repeat_-10"><rect class="cls-5" x="966.52" y="555.93" width="50.44" height="50.44"/><rect class="cls-5" x="1016.96" y="606.37" width="50.44" height="50.44"/></g><g id="_Grid_Repeat_-11"><rect class="cls-5" x="1072.45" y="555.93" width="50.44" height="50.44"/><rect class="cls-5" x="1122.89" y="606.37" width="50.44" height="50.44"/></g><g id="_Grid_Repeat_-12"><rect class="cls-5" x="1178.37" y="555.93" width="50.44" height="50.44"/><rect class="cls-5" x="1228.81" y="606.37" width="50.44" height="50.44"/></g><g id="_Grid_Repeat_-13"><rect class="cls-5" x="1284.29" y="555.93" width="50.44" height="50.44"/><rect class="cls-5" x="1334.73" y="606.37" width="50.44" height="50.44"/></g><g id="_Grid_Repeat_-14"><rect class="cls-5" x="1390.22" y="555.93" width="50.44" height="50.44"/><rect class="cls-5" x="1440.66" y="606.37" width="50.44" height="50.44"/></g><g id="_Grid_Repeat_-15"><rect class="cls-5" x="1496.14" y="555.93" width="50.44" height="50.44"/><rect class="cls-5" x="1546.58" y="606.37" width="50.44" height="50.44"/></g><g id="_Grid_Repeat_-16"><rect class="cls-5" x="1602.06" y="555.93" width="50.44" height="50.44"/><rect class="cls-5" x="1652.5" y="606.37" width="50.44" height="50.44"/></g><g id="_Grid_Repeat_-17"><rect class="cls-5" x="1707.99" y="555.93" width="50.44" height="50.44"/><rect class="cls-5" x="1758.42" y="606.37" width="50.44" height="50.44"/></g><g id="_Grid_Repeat_-18"><rect class="cls-5" x="1813.91" y="555.93" width="50.44" height="50.44"/><rect class="cls-5" x="1864.35" y="606.37" width="50.44" height="50.44"/></g><g id="_Grid_Repeat_-19"><rect class="cls-5" x="13.22" y="661.86" width="50.44" height="50.44"/><rect class="cls-5" x="63.66" y="712.3" width="50.44" height="50.44"/></g><g id="_Grid_Repeat_-20"><rect class="cls-5" x="119.14" y="661.86" width="50.44" height="50.44"/><rect class="cls-5" x="169.58" y="712.3" width="50.44" height="50.44"/></g><g id="_Grid_Repeat_-21"><rect class="cls-5" x="225.06" y="661.86" width="50.44" height="50.44"/><rect class="cls-5" x="275.5" y="712.3" width="50.44" height="50.44"/></g><g id="_Grid_Repeat_-22"><rect class="cls-5" x="330.99" y="661.86" width="50.44" height="50.44"/><rect class="cls-5" x="381.43" y="712.3" width="50.44" height="50.44"/></g><g id="_Grid_Repeat_-23"><rect class="cls-5" x="436.91" y="661.86" width="50.44" height="50.44"/><rect class="cls-5" x="487.35" y="712.3" width="50.44" height="50.44"/></g><g id="_Grid_Repeat_-24"><rect class="cls-5" x="542.83" y="661.86" width="50.44" height="50.44"/><rect class="cls-5" x="593.27" y="712.3" width="50.44" height="50.44"/></g><g id="_Grid_Repeat_-25"><rect class="cls-5" x="648.76" y="661.86" width="50.44" height="50.44"/><rect class="cls-5" x="699.2" y="712.3" width="50.44" height="50.44"/></g><g id="_Grid_Repeat_-26"><rect class="cls-5" x="754.68" y="661.86" width="50.44" height="50.44"/><rect class="cls-5" x="805.12" y="712.3" width="50.44" height="50.44"/></g><g id="_Grid_Repeat_-27"><rect class="cls-5" x="860.6" y="661.86" width="50.44" height="50.44"/><rect class="cls-5" x="911.04" y="712.3" width="50.44" height="50.44"/></g><g id="_Grid_Repeat_-28"><rect class="cls-5" x="966.52" y="661.86" width="50.44" height="50.44"/><rect class="cls-5" x="1016.96" y="712.3" width="50.44" height="50.44"/></g><g id="_Grid_Repeat_-29"><rect class="cls-5" x="1072.45" y="661.86" width="50.44" height="50.44"/><rect class="cls-5" x="1122.89" y="712.3" width="50.44" height="50.44"/></g><g id="_Grid_Repeat_-30"><rect class="cls-5" x="1178.37" y="661.86" width="50.44" height="50.44"/><rect class="cls-5" x="1228.81" y="712.3" width="50.44" height="50.44"/></g><g id="_Grid_Repeat_-31"><rect class="cls-5" x="1284.29" y="661.86" width="50.44" height="50.44"/><rect class="cls-5" x="1334.73" y="712.3" width="50.44" height="50.44"/></g><g id="_Grid_Repeat_-32"><rect class="cls-5" x="1390.22" y="661.86" width="50.44" height="50.44"/><rect class="cls-5" x="1440.66" y="712.3" width="50.44" height="50.44"/></g><g id="_Grid_Repeat_-33"><rect class="cls-5" x="1496.14" y="661.86" width="50.44" height="50.44"/><rect class="cls-5" x="1546.58" y="712.3" width="50.44" height="50.44"/></g><g id="_Grid_Repeat_-34"><rect class="cls-5" x="1602.06" y="661.86" width="50.44" height="50.44"/><rect class="cls-5" x="1652.5" y="712.3" width="50.44" height="50.44"/></g><g id="_Grid_Repeat_-35"><rect class="cls-5" x="1707.99" y="661.86" width="50.44" height="50.44"/><rect class="cls-5" x="1758.42" y="712.3" width="50.44" height="50.44"/></g><g id="_Grid_Repeat_-36"><rect class="cls-5" x="1813.91" y="661.86" width="50.44" height="50.44"/><rect class="cls-5" x="1864.35" y="712.3" width="50.44" height="50.44"/></g><g id="_Grid_Repeat_-37"><rect class="cls-5" x="13.22" y="767.78" width="50.44" height="50.44"/><rect class="cls-5" x="63.66" y="818.22" width="50.44" height="50.44"/></g><g id="_Grid_Repeat_-38"><rect class="cls-5" x="119.14" y="767.78" width="50.44" height="50.44"/><rect class="cls-5" x="169.58" y="818.22" width="50.44" height="50.44"/></g><g id="_Grid_Repeat_-39"><rect class="cls-5" x="225.06" y="767.78" width="50.44" height="50.44"/><rect class="cls-5" x="275.5" y="818.22" width="50.44" height="50.44"/></g><g id="_Grid_Repeat_-40"><rect class="cls-5" x="330.99" y="767.78" width="50.44" height="50.44"/><rect class="cls-5" x="381.43" y="818.22" width="50.44" height="50.44"/></g><g id="_Grid_Repeat_-41"><rect class="cls-5" x="436.91" y="767.78" width="50.44" height="50.44"/><rect class="cls-5" x="487.35" y="818.22" width="50.44" height="50.44"/></g><g id="_Grid_Repeat_-42"><rect class="cls-5" x="542.83" y="767.78" width="50.44" height="50.44"/><rect class="cls-5" x="593.27" y="818.22" width="50.44" height="50.44"/></g><g id="_Grid_Repeat_-43"><rect class="cls-5" x="648.76" y="767.78" width="50.44" height="50.44"/><rect class="cls-5" x="699.2" y="818.22" width="50.44" height="50.44"/></g><g id="_Grid_Repeat_-44"><rect class="cls-5" x="754.68" y="767.78" width="50.44" height="50.44"/><rect class="cls-5" x="805.12" y="818.22" width="50.44" height="50.44"/></g><g id="_Grid_Repeat_-45"><rect class="cls-5" x="860.6" y="767.78" width="50.44" height="50.44"/><rect class="cls-5" x="911.04" y="818.22" width="50.44" height="50.44"/></g><g id="_Grid_Repeat_-46"><rect class="cls-5" x="966.52" y="767.78" width="50.44" height="50.44"/><rect class="cls-5" x="1016.96" y="818.22" width="50.44" height="50.44"/></g><g id="_Grid_Repeat_-47"><rect class="cls-5" x="1072.45" y="767.78" width="50.44" height="50.44"/><rect class="cls-5" x="1122.89" y="818.22" width="50.44" height="50.44"/></g><g id="_Grid_Repeat_-48"><rect class="cls-5" x="1178.37" y="767.78" width="50.44" height="50.44"/><rect class="cls-5" x="1228.81" y="818.22" width="50.44" height="50.44"/></g><g id="_Grid_Repeat_-49"><rect class="cls-5" x="1284.29" y="767.78" width="50.44" height="50.44"/><rect class="cls-5" x="1334.73" y="818.22" width="50.44" height="50.44"/></g><g id="_Grid_Repeat_-50"><rect class="cls-5" x="1390.22" y="767.78" width="50.44" height="50.44"/><rect class="cls-5" x="1440.66" y="818.22" width="50.44" height="50.44"/></g><g id="_Grid_Repeat_-51"><rect class="cls-5" x="1496.14" y="767.78" width="50.44" height="50.44"/><rect class="cls-5" x="1546.58" y="818.22" width="50.44" height="50.44"/></g><g id="_Grid_Repeat_-52"><rect class="cls-5" x="1602.06" y="767.78" width="50.44" height="50.44"/><rect class="cls-5" x="1652.5" y="818.22" width="50.44" height="50.44"/></g><g id="_Grid_Repeat_-53"><rect class="cls-5" x="1707.99" y="767.78" width="50.44" height="50.44"/><rect class="cls-5" x="1758.42" y="818.22" width="50.44" height="50.44"/></g><g id="_Grid_Repeat_-54"><rect class="cls-5" x="1813.91" y="767.78" width="50.44" height="50.44"/><rect class="cls-5" x="1864.35" y="818.22" width="50.44" height="50.44"/></g><g id="_Grid_Repeat_-55"><rect class="cls-5" x="13.22" y="873.7" width="50.44" height="50.44"/><rect class="cls-5" x="63.66" y="924.14" width="50.44" height="50.44"/></g><g id="_Grid_Repeat_-56"><rect class="cls-5" x="119.14" y="873.7" width="50.44" height="50.44"/><rect class="cls-5" x="169.58" y="924.14" width="50.44" height="50.44"/></g><g id="_Grid_Repeat_-57"><rect class="cls-5" x="225.06" y="873.7" width="50.44" height="50.44"/><rect class="cls-5" x="275.5" y="924.14" width="50.44" height="50.44"/></g><g id="_Grid_Repeat_-58"><rect class="cls-5" x="330.99" y="873.7" width="50.44" height="50.44"/><rect class="cls-5" x="381.43" y="924.14" width="50.44" height="50.44"/></g><g id="_Grid_Repeat_-59"><rect class="cls-5" x="436.91" y="873.7" width="50.44" height="50.44"/><rect class="cls-5" x="487.35" y="924.14" width="50.44" height="50.44"/></g><g id="_Grid_Repeat_-60"><rect class="cls-5" x="542.83" y="873.7" width="50.44" height="50.44"/><rect class="cls-5" x="593.27" y="924.14" width="50.44" height="50.44"/></g><g id="_Grid_Repeat_-61"><rect class="cls-5" x="648.76" y="873.7" width="50.44" height="50.44"/><rect class="cls-5" x="699.2" y="924.14" width="50.44" height="50.44"/></g><g id="_Grid_Repeat_-62"><rect class="cls-5" x="754.68" y="873.7" width="50.44" height="50.44"/><rect class="cls-5" x="805.12" y="924.14" width="50.44" height="50.44"/></g><g id="_Grid_Repeat_-63"><rect class="cls-5" x="860.6" y="873.7" width="50.44" height="50.44"/><rect class="cls-5" x="911.04" y="924.14" width="50.44" height="50.44"/></g><g id="_Grid_Repeat_-64"><rect class="cls-5" x="966.52" y="873.7" width="50.44" height="50.44"/><rect class="cls-5" x="1016.96" y="924.14" width="50.44" height="50.44"/></g><g id="_Grid_Repeat_-65"><rect class="cls-5" x="1072.45" y="873.7" width="50.44" height="50.44"/><rect class="cls-5" x="1122.89" y="924.14" width="50.44" height="50.44"/></g><g id="_Grid_Repeat_-66"><rect class="cls-5" x="1178.37" y="873.7" width="50.44" height="50.44"/><rect class="cls-5" x="1228.81" y="924.14" width="50.44" height="50.44"/></g><g id="_Grid_Repeat_-67"><rect class="cls-5" x="1284.29" y="873.7" width="50.44" height="50.44"/><rect class="cls-5" x="1334.73" y="924.14" width="50.44" height="50.44"/></g><g id="_Grid_Repeat_-68"><rect class="cls-5" x="1390.22" y="873.7" width="50.44" height="50.44"/><rect class="cls-5" x="1440.66" y="924.14" width="50.44" height="50.44"/></g><g id="_Grid_Repeat_-69"><rect class="cls-5" x="1496.14" y="873.7" width="50.44" height="50.44"/><rect class="cls-5" x="1546.58" y="924.14" width="50.44" height="50.44"/></g><g id="_Grid_Repeat_-70"><rect class="cls-5" x="1602.06" y="873.7" width="50.44" height="50.44"/><rect class="cls-5" x="1652.5" y="924.14" width="50.44" height="50.44"/></g><g id="_Grid_Repeat_-71"><rect class="cls-5" x="1707.99" y="873.7" width="50.44" height="50.44"/><rect class="cls-5" x="1758.42" y="924.14" width="50.44" height="50.44"/></g><g id="_Grid_Repeat_-72"><rect class="cls-5" x="1813.91" y="873.7" width="50.44" height="50.44"/><rect class="cls-5" x="1864.35" y="924.14" width="50.44" height="50.44"/></g><g id="_Grid_Repeat_-73"><rect class="cls-5" x="13.22" y="979.62" width="50.44" height="50.44"/><rect class="cls-5" x="63.66" y="1030.06" width="50.44" height="50.44"/></g><g id="_Grid_Repeat_-74"><rect class="cls-5" x="119.14" y="979.62" width="50.44" height="50.44"/><rect class="cls-5" x="169.58" y="1030.06" width="50.44" height="50.44"/></g><g id="_Grid_Repeat_-75"><rect class="cls-5" x="225.06" y="979.62" width="50.44" height="50.44"/><rect class="cls-5" x="275.5" y="1030.06" width="50.44" height="50.44"/></g><g id="_Grid_Repeat_-76"><rect class="cls-5" x="330.99" y="979.62" width="50.44" height="50.44"/><rect class="cls-5" x="381.43" y="1030.06" width="50.44" height="50.44"/></g><g id="_Grid_Repeat_-77"><rect class="cls-5" x="436.91" y="979.62" width="50.44" height="50.44"/><rect class="cls-5" x="487.35" y="1030.06" width="50.44" height="50.44"/></g><g id="_Grid_Repeat_-78"><rect class="cls-5" x="542.83" y="979.62" width="50.44" height="50.44"/><rect class="cls-5" x="593.27" y="1030.06" width="50.44" height="50.44"/></g><g id="_Grid_Repeat_-79"><rect class="cls-5" x="648.76" y="979.62" width="50.44" height="50.44"/><rect class="cls-5" x="699.2" y="1030.06" width="50.44" height="50.44"/></g><g id="_Grid_Repeat_-80"><rect class="cls-5" x="754.68" y="979.62" width="50.44" height="50.44"/><rect class="cls-5" x="805.12" y="1030.06" width="50.44" height="50.44"/></g><g id="_Grid_Repeat_-81"><rect class="cls-5" x="860.6" y="979.62" width="50.44" height="50.44"/><rect class="cls-5" x="911.04" y="1030.06" width="50.44" height="50.44"/></g><g id="_Grid_Repeat_-82"><rect class="cls-5" x="966.52" y="979.62" width="50.44" height="50.44"/><rect class="cls-5" x="1016.96" y="1030.06" width="50.44" height="50.44"/></g><g id="_Grid_Repeat_-83"><rect class="cls-5" x="1072.45" y="979.62" width="50.44" height="50.44"/><rect class="cls-5" x="1122.89" y="1030.06" width="50.44" height="50.44"/></g><g id="_Grid_Repeat_-84"><rect class="cls-5" x="1178.37" y="979.62" width="50.44" height="50.44"/><rect class="cls-5" x="1228.81" y="1030.06" width="50.44" height="50.44"/></g><g id="_Grid_Repeat_-85"><rect class="cls-5" x="1284.29" y="979.62" width="50.44" height="50.44"/><rect class="cls-5" x="1334.73" y="1030.06" width="50.44" height="50.44"/></g><g id="_Grid_Repeat_-86"><rect class="cls-5" x="1390.22" y="979.62" width="50.44" height="50.44"/><rect class="cls-5" x="1440.66" y="1030.06" width="50.44" height="50.44"/></g><g id="_Grid_Repeat_-87"><rect class="cls-5" x="1496.14" y="979.62" width="50.44" height="50.44"/><rect class="cls-5" x="1546.58" y="1030.06" width="50.44" height="50.44"/></g><g id="_Grid_Repeat_-88"><rect class="cls-5" x="1602.06" y="979.62" width="50.44" height="50.44"/><rect class="cls-5" x="1652.5" y="1030.06" width="50.44" height="50.44"/></g><g id="_Grid_Repeat_-89"><rect class="cls-5" x="1707.99" y="979.62" width="50.44" height="50.44"/><rect class="cls-5" x="1758.42" y="1030.06" width="50.44" height="50.44"/></g><g id="_Grid_Repeat_-90"><rect class="cls-5" x="1813.91" y="979.62" width="50.44" height="50.44"/><rect class="cls-5" x="1864.35" y="1030.06" width="50.44" height="50.44"/></g></g><path class="cls-7" d="M630.41,16.01c24.31-6.91,51.92-6.72,73.8,6.93,21.88,13.65,35.41,43.08,25.97,66.97-1.87,4.73-4.6,9.46-4.05,14.58.97,9.09,11.78,13.94,20.62,13.01,8.84-.93,16.86-5.55,25.61-7.09,17.29-3.04,36.24,7.8,43,24.6,3.26,8.1,3.95,17.25,8.52,24.68,12.55,20.38,42.46,14.54,63.76,5.36,21.3-9.18,49.71-17.61,64.93.79,10.18,12.31,8.88,31.75,19.98,43.2,20.09,20.71,56.6-3.8,81.55,10.22,19.26,10.83,18.35,44.98-1.44,53.82-33.55,14.99-74.39-38.71-104.79-17.98-16.89,11.52-15.15,37.09-22.19,56.64-7.55,20.96-27.67,36.31-49.57,37.81-37.06,2.54-74.9-30.73-108.77-15.74-29.26,12.96-34.04,52.05-45.46,82.55-5.54,14.78-13.9,29.02-26.82,37.64-12.92,8.62-31.07,10.41-43.99,1.21-19.85-14.14-18.43-44.15-13.15-67.92,5.29-23.77,11.35-51.57-4.04-70.68-19.68-24.43-59.68-14.17-80.38,8.42s-30.84,53.59-50.8,76.88c-20.58,24.01-52.77,38.58-83.98,33.14-31.21-5.44-59.16-33.31-60.9-65.59-1.72-32.09,20.25-59.55,42.81-81.33,22.56-21.78,48.11-43.15,57.25-73.64,8.58-28.64.61-60.77-15.02-86.68-7.25-12.02-16.54-25.51-12.45-38.76,2.59-8.38,10.01-14.05,17.42-18.45,16.89-10.03,36.92-16.45,56.32-12.34,17.02,3.61,26.63,18.01,39.97,25.87,23.12-31.16,47.94-57.22,86.28-68.12Z"/><path d="M671.26,462.8c-7.67,0-15.08-2.11-21.05-6.37-20.83-14.83-18.97-45.97-13.74-69.47,5.03-22.61,11.28-50.75-3.75-69.41-6.82-8.47-16.69-13.14-28.55-13.52-17.36-.57-36.8,8.09-49.56,22.01-10.63,11.6-18.62,25.76-26.35,39.46-7.24,12.82-14.72,26.08-24.41,37.38-22.32,26.04-55.04,38.94-85.37,33.64-33.14-5.78-60.43-35.2-62.14-66.99-1.86-34.7,23.8-63.7,43.26-82.49,2.63-2.54,5.3-5.07,7.98-7.61,20.12-19.08,40.92-38.82,48.88-65.38,7.74-25.83,2.32-56.98-14.86-85.47-.58-.95-1.16-1.92-1.76-2.89-6.94-11.36-14.81-24.24-10.84-37.09,2.87-9.28,11.17-15.19,18.08-19.29,13.97-8.3,35.27-17.21,57.39-12.52,11.22,2.38,19.28,9.25,27.06,15.9,4.08,3.48,7.94,6.78,12.2,9.45,21.27-28.52,46.52-56.28,86.26-67.57,16.33-4.64,47.78-9.89,75.01,7.1,11,6.87,20.24,17.93,25.33,30.35,5.4,13.17,5.84,26.82,1.24,38.44-.38.96-.79,1.91-1.21,2.87-1.62,3.75-3.14,7.28-2.75,11,.85,7.97,10.68,12.55,18.97,11.68,4.63-.49,8.99-2.01,13.6-3.62,3.83-1.34,7.79-2.72,11.91-3.45,18-3.16,37.61,8.04,44.65,25.51,1.33,3.3,2.24,6.77,3.13,10.13,1.36,5.15,2.64,10.02,5.28,14.31,3.59,5.83,18.65,23.4,61.89,4.77,32.58-14.04,54.39-13.65,66.68,1.21,5.07,6.13,7.39,13.93,9.64,21.48,2.44,8.2,4.74,15.94,10.26,21.63,10.29,10.6,25.23,8.74,41.05,6.76,13.86-1.73,28.2-3.52,40.15,3.2,9.64,5.42,15.26,16.81,14.66,29.74-.56,12.28-6.78,22.54-16.23,26.75-16.9,7.55-35.32-1.54-53.15-10.33-18.75-9.25-36.46-17.98-51.41-7.78-11.02,7.51-13.75,21.29-16.64,35.88-1.34,6.74-2.72,13.71-4.99,20.03-7.8,21.66-28.25,37.25-50.88,38.8-16.28,1.12-32.7-4.55-48.58-10.03-21.06-7.27-40.96-14.13-59.68-5.84-22.13,9.8-30.03,35.52-37.66,60.4-2.19,7.12-4.45,14.49-7,21.31-6.65,17.77-15.87,30.67-27.39,38.36-7.52,5.02-16.24,7.55-24.64,7.55ZM602.61,301.01c.56,0,1.11,0,1.66.03,12.76.41,23.4,5.47,30.79,14.63,15.94,19.78,9.51,48.7,4.34,71.94-5.03,22.62-6.93,52.5,12.56,66.38,11.52,8.2,28.91,7.69,42.29-1.24,10.99-7.33,19.82-19.75,26.24-36.92,2.52-6.73,4.77-14.05,6.94-21.13,7.83-25.52,15.93-51.9,39.31-62.26,19.8-8.77,41.19-1.39,61.87,5.74,15.6,5.38,31.72,10.95,47.4,9.87,21.46-1.47,40.86-16.27,48.26-36.83,2.2-6.11,3.56-12.97,4.87-19.6,2.88-14.54,5.86-29.57,17.89-37.77,16.4-11.18,35.73-1.65,54.43,7.57,17.2,8.48,34.99,17.25,50.59,10.28,8.4-3.75,13.94-13.01,14.45-24.15.54-11.79-4.49-22.13-13.14-26.99-11.1-6.24-24.93-4.51-38.31-2.84-15.86,1.98-32.25,4.03-43.58-7.65-6.04-6.22-8.55-14.69-10.99-22.87-2.16-7.25-4.39-14.76-9.07-20.42-11.33-13.69-32-13.81-63.19-.37-11.49,4.95-50.17,19.16-65.63-5.95-2.88-4.67-4.27-9.99-5.63-15.12-.86-3.27-1.75-6.65-3.01-9.78-6.53-16.2-24.69-26.6-41.35-23.68-3.87.68-7.72,2.02-11.43,3.32-4.57,1.6-9.3,3.25-14.28,3.78-9.9,1.05-21.21-4.47-22.27-14.34-.48-4.5,1.27-8.57,2.97-12.51.4-.93.8-1.86,1.17-2.79,8.63-21.81-2.75-51.04-25.37-65.15-26.25-16.38-56.75-11.26-72.6-6.76l-.41-1.44.41,1.44c-39.38,11.19-64.36,39.09-85.48,67.57l-.8,1.08-1.16-.68c-4.95-2.91-9.44-6.74-13.78-10.45-7.5-6.4-15.26-13.02-25.74-15.24-21.18-4.49-41.73,4.14-55.24,12.16-6.45,3.83-14.18,9.29-16.75,17.6-3.57,11.55,3.92,23.82,10.53,34.64.6.98,1.19,1.94,1.76,2.9,17.62,29.21,23.15,61.24,15.17,87.88-8.19,27.33-29.29,47.34-49.69,66.7-2.67,2.54-5.33,5.06-7.96,7.59-39.76,38.38-43.21,64.14-42.35,80.17,1.64,30.45,27.84,58.65,59.66,64.19,28.86,5.03,61.27-7.78,82.58-32.64,9.5-11.08,16.91-24.21,24.08-36.91,7.81-13.84,15.89-28.15,26.76-40.01,12.92-14.1,32.45-23.01,50.2-23.01Z"/><path d="M540.13,176.27c.01,2.09-.75,3.48-2.28,4.18-.29.07-.64,0-1.06-.2-.41-.2-.74-.3-.99-.28-.3.02-.61.12-.94.31-1.32,7.9-2.42,13.21-3.3,15.95-1.59,5.09-3.9,8.51-6.94,10.25-.81.48-1.65.75-2.54.82-.89.07-3.13-.44-6.74-1.53-1.36-.27-3.51-.86-6.46-1.79-2.97-1.24-5.45-4.43-7.43-9.57-1.8-4.68-2.96-10.32-3.47-16.93-.66-8.58-.12-16.32,1.63-23.2,1.9-7.52,4.83-11.88,8.81-13.06.34-.08.73-.13,1.18-.17,2.46-.19,5.54.42,9.21,1.82,3.93,1.48,6.65,3.24,8.14,5.28,1.22,1.64,2.1,3.77,2.65,6.39.68,2.99,1.07,4.6,1.19,4.86.22.88.5,1.93.84,3.16.1.67-.08,1.49-.56,2.44-.47.95-.95,1.55-1.42,1.79-.62.31-2.57.08-5.86-.7-3.28-.77-5.27-1.42-5.95-1.95-.93-.56-1.4-1.75-1.39-3.58-.02-.26.08-.6.29-1,.22-.41.31-.77.29-1.08-.29-3.69-.82-5.51-1.61-5.45-1.68.08-2.93,3.15-3.75,9.23-.75,5.71-.87,11.89-.35,18.55.76,9.89,2.51,15.46,5.24,16.72.82.36,1.78-1.15,2.89-4.53,1.1-3.38,1.67-6.51,1.69-9.39-.84-.56-2.4-1.26-4.7-2.08-1.83-.65-2.85-1.25-3.04-1.81-.26-.76-.1-1.89.48-3.37.58-1.48,1.24-2.46,1.97-2.93.73-.47,1.79-.79,3.16-.94,1.87-.14,3-.28,3.39-.41.83-.22,2.15-.76,3.96-1.63,1.48-.74,2.61-1.14,3.4-1.2.3-.02.57-.02.82.02,1.25.17,3.15,1.2,5.71,3.1,2.55,1.9,3.83,3.22,3.84,3.95Z"/><path d="M587.42,196.27c-.01.47-.03,1.6-.04,3.38.02.94-.12,1.66-.43,2.15-.24.17-.65.28-1.24.33-1.63.12-3.68-.17-6.17-.87-2.68-.64-4.53-1.49-5.55-2.57-.43-.44-.95-1.97-1.55-4.59-.81-3.44-1.65-6.29-2.52-8.52-1.85.4-4.53,1.32-8.04,2.76-3.51,1.44-5.78,2.59-6.8,3.45-.57,2.29-1.34,5.13-2.32,8.5-.09.74-.2,1.44-.32,2.1-.12.66-.51,1.23-1.17,1.7-.14.11-.36.18-.65.21-1.18.09-3.22-.41-6.1-1.5-2.89-1.09-4.39-1.84-4.52-2.25-.25-.71.07-2.54.99-5.49,1.25-4.28,1.97-6.9,2.14-7.85-1.12-1.02-1.72-2.07-1.81-3.16-.02-.26-.02-.55,0-.86.05-.63,1.47-1.86,4.25-3.69l6.88-35.14c.1-.64.04-1.78-.19-3.44-.21-1.4-.13-2.29.24-2.69.23-.28.81-.45,1.75-.52,2.32-.17,5.67.2,10.05,1.13,4.39.93,7.04,1.85,7.95,2.78.74,5.75,2.52,14.33,5.34,25.74,3.57,14.07,6.84,23.72,9.83,28.94ZM566.28,173.99c-.89-3.23-1.46-5.36-1.68-6.39-.81-3.44-1.46-7.03-1.95-10.77-.79,2.62-1.67,6.25-2.66,10.88-1.06,4.84-1.6,7.87-1.6,9.07.9-.49,3.54-1.42,7.89-2.79Z"/><path d="M659.11,193.16c-.17,2.26-.67,3.53-1.49,3.8-1.16.4-3.45.23-6.88-.5-3.63-.78-5.73-1.66-6.3-2.67-.18-.35-.28-.74-.31-1.15-.02-.31,0-.82.07-1.54.07-.71.08-1.3.05-1.77l-2.74-35.43c-1.95,4.96-4.15,15.96-6.6,33-.03.21-.04.45-.02.71.04.52.19,1.35.45,2.48.26,1.13.4,1.85.43,2.17.08,1.62.08,2.66.02,3.14-.17,1.06-.64,1.72-1.41,1.99-.48.19-1.34.33-2.57.43-6.41.48-10.91-.36-13.51-2.52-.42-.33-.62-.97-.59-1.92,0-1.15-.05-1.91-.18-2.26-2.28-5.8-4.31-10.88-6.09-15.24-4.29-10.56-7.02-16.77-8.21-18.62l2.4,31.06c.05.68.32,1.6.81,2.77.6,1.42.95,2.31,1.03,2.67.28,1.03.42,2.27.44,3.74.04,1.77-.22,2.89-.78,3.36-.28.23-.84.38-1.68.44-1.82.14-4.02-.04-6.59-.53-2.76-.47-4.42-1.06-4.97-1.75-.28-.34-.43-.78-.47-1.3-.02-.31.02-.84.14-1.58.12-.74.16-1.32.13-1.74l-4.28-55.34c-.05-.62.14-1.36.57-2.2.43-.84.96-1.42,1.58-1.73.81-.43,4.09-.04,9.83,1.15,5.99,1.17,9.21,2.34,9.64,3.52.18.46.26,1.08.22,1.87-.06,1.1-.09,1.76-.07,1.97.04.47.14.88.32,1.23l12.18,27.58c1.02-4.73,2.81-14.31,5.36-28.74,1.26-7.37,2.45-11.25,3.56-11.65.34-.13.73-.21,1.17-.24.84-.06,2.26.06,4.27.39,2.21.41,3.74.61,4.58.6,3.92.07,6.18.14,6.78.2,2.35.29,3.73,1.05,4.12,2.28.13.36.21.74.24,1.16.04.52-.03,1.27-.2,2.25-.17.98-.24,1.71-.2,2.17l3.69,47.77c.04.52.41,1.28,1.11,2.27.7,1,1.02,1.76.96,2.28Z"/><path d="M697.93,182.48c-.08.9-.44,1.88-1.07,2.95-.64,1.07-1.22,1.73-1.74,1.98-.14.06-.42,0-.83-.21-.41-.2-.74-.3-.99-.28-.1,0-.2.04-.29.1-1.49.58-2.97,1.32-4.44,2.22-3.51,2.04-6.69,4.56-9.53,7.55-5.1-1.76-7.87-2.73-8.33-2.91-3.17-1.17-4.78-2.1-4.83-2.78l-4.54-58.69c-.03-.36.51-.93,1.62-1.69,1.11-.76,1.93-1.14,2.48-1.13.59,0,1.81.32,3.64.94s3.32.89,4.45.8c1.48-.11,3.35-.96,5.61-2.54,2.06-1.52,3.37-2.19,3.93-2.02,1.21.33,3.08,1.56,5.6,3.7,2.52,2.14,3.92,3.7,4.19,4.67.13.46-.26,1.3-1.18,2.52-.92,1.22-1.71,1.85-2.34,1.9-.54.04-.94,0-1.2-.14-.26-.14-.44-.18-.53-.12-1.74.55-3.36,1.17-4.84,1.85-3.55,1.57-6.12,3.28-7.71,5.13l.98,12.72c1.65-1.07,3.82-2.2,6.51-3.39.78-.16,2.53.87,5.26,3.1,2.73,2.23,4.13,3.81,4.2,4.75.04.57-.25,1.27-.88,2.11-.63.83-1.26,1.38-1.88,1.63-.49.04-1.35.15-2.58.35-1.85.51-5.02,2.42-9.52,5.74l.63,8.19c1.41-1.05,3.33-2.3,5.77-3.77,2.44-1.46,3.96-2.22,4.55-2.27.69-.05,2.52.95,5.48,3,2.96,2.05,4.42,3.4,4.37,4.03Z"/><path d="M668.84,281.8c-1.03.18-2.2.13-3.51-.17-1.31-.29-2.6-.6-3.87-.93-1.51-.3-3.89-.88-7.13-1.74-4.09-1.52-7.35-4.89-9.78-10.1-2.14-4.6-3.47-10.26-3.99-16.97-.42-5.46-.03-11.9,1.18-19.32,1.66-9.96,4.41-15.09,8.26-15.38.34-.03.83.03,1.46.17.63.14,1.12.22,1.47.24,3.56-1.37,5.86-2.09,6.9-2.17.49-.04.99-.05,1.48-.03,5.98.34,10.94,3.89,14.88,10.66,3.55,6.12,5.66,13.58,6.34,22.37.64,8.33-.18,15.58-2.48,21.77-2.45,6.73-6.2,10.59-11.23,11.6ZM663.08,224.69c-1.11-.23-2.06,1.39-2.86,4.85-.8,3.46-1.74,5.23-2.83,5.31-.25.02-.62-.1-1.11-.35-.49-.25-.89-.39-1.19-.42-1.37,4.03-1.78,9.66-1.22,16.89.44,5.67,1.38,10.49,2.83,14.47,1.63,4.43,3.6,6.79,5.9,7.09,2.7.32,4.62-2.73,5.76-9.15,1-5.62,1.21-12.23.62-19.83-.4-5.15-1.1-9.44-2.11-12.87-1.08-3.69-2.35-5.68-3.81-5.99Z"/><path d="M726.46,216.17c-2.03,7.11-4.12,17.84-6.29,32.19-1.97,12.97-2.87,20.31-2.68,22.03-.04.16.11,1.35.42,3.58.19,1.19.1,2.29-.26,3.32-.4,1.29-1.01,2.04-1.83,2.26-1.41.42-4.32.06-8.75-1.07-4.43-1.13-7-2.22-7.73-3.27-.34-.5-.56-1.16-.67-1.99-.13-1.04-.26-1.73-.39-2.09-7.07-18.36-11.75-34.94-14.04-49.74-.02-.26-.19-.8-.5-1.61-.19-.61-.29-1.16-.27-1.63.1-1.84.73-3.01,1.89-3.52.57-.25,2.68.09,6.33,1.02,3.84.97,6,1.88,6.46,2.73.24.51.32,1.6.25,3.28-.03.32-.16.78-.41,1.4-.25.62-.33,1.14-.25,1.55,1.16,5.41,2.22,10.17,3.19,14.28,2.35,9.87,4.04,15.71,5.08,17.52.46-4.9,1.46-11.2,3-18.91,1.54-7.7,2.53-14.11,2.98-19.22-.03-.99.09-2.33.36-4.03.45-1.29,1.2-2.16,2.25-2.6.77-.32,2.65-.01,5.65.91,3.26,1.06,5.33,2.27,6.23,3.62Z"/><path d="M768.64,263.24c-.08.9-.44,1.88-1.08,2.95-.64,1.07-1.22,1.73-1.74,1.98-.14.06-.42,0-.83-.21-.41-.2-.74-.3-.99-.28-.1,0-.2.04-.29.1-1.49.58-2.97,1.32-4.44,2.22-3.51,2.04-6.69,4.56-9.53,7.54-5.1-1.76-7.87-2.73-8.33-2.91-3.17-1.18-4.77-2.1-4.83-2.78l-4.54-58.69c-.03-.36.51-.93,1.62-1.69,1.11-.76,1.93-1.14,2.48-1.13.59,0,1.81.32,3.64.94,1.83.62,3.32.89,4.45.8,1.48-.11,3.35-.96,5.61-2.54,2.06-1.52,3.38-2.19,3.93-2.02,1.21.33,3.08,1.56,5.61,3.7,2.52,2.14,3.92,3.7,4.19,4.67.13.46-.26,1.3-1.18,2.52-.92,1.22-1.71,1.85-2.34,1.9-.54.04-.94,0-1.2-.15-.26-.14-.44-.18-.53-.12-1.74.55-3.36,1.17-4.84,1.85-3.55,1.57-6.12,3.29-7.71,5.13l.98,12.72c1.65-1.07,3.82-2.2,6.51-3.39.78-.16,2.53.87,5.26,3.1,2.73,2.23,4.13,3.81,4.2,4.75.04.57-.25,1.27-.88,2.11-.63.83-1.26,1.38-1.88,1.63-.49.04-1.35.15-2.58.35-1.85.51-5.02,2.42-9.53,5.74l.63,8.2c1.41-1.05,3.33-2.3,5.77-3.77,2.44-1.47,3.96-2.22,4.55-2.26.69-.05,2.52.95,5.48,3,2.96,2.05,4.42,3.4,4.37,4.03Z"/><path d="M815.1,259.12c.51.85-.19,3.09-2.12,6.71-1.93,3.62-3.63,5.47-5.11,5.53-1.58.07-2.91-.72-3.98-2.37-.19-.51-.62-1.24-1.29-2.18l-16.79-14.2,1.12,14.44c.04.57.31,1.29.8,2.14.49.86.75,1.49.78,1.91.12,1.56-.77,2.49-2.68,2.79-1.47.27-3.68.15-6.65-.37-3.21-.49-4.85-1.15-4.92-1.99-.02-.26.01-.62.1-1.07.09-.45.11-1.01.05-1.69l-4.21-54.48c-.03-.36-.13-.68-.3-.96-.17-.27-.26-.49-.27-.65-.06-1.41.86-2.31,2.76-2.72.58-.15,1.95,0,4.09.44,2.14.44,3.65.6,4.54.48.83-.11,2.49-.96,4.97-2.53,2.48-1.57,4.68-2.43,6.61-2.58.74-.06,1.51-.03,2.31.06,1.4.21,2.71.79,3.93,1.75,1.21.96,2.38,1.92,3.49,2.88,2.92,2.5,4.44,3.83,4.55,3.98,1.4,1.46,2.23,3.16,2.47,5.07.76,6.01-3.52,14.13-12.84,24.36,2.22,1.82,7.16,6.29,14.8,13.41.46.12,1.12.39,2,.79.51.23,1.11.57,1.79,1.04ZM795.39,216.72c-2.32.17-6.21,3.03-11.69,8.57l.92,11.94c2.05-1.04,4.63-3.93,7.74-8.67,3.1-4.73,4.57-8.19,4.4-10.38-.08-1.04-.54-1.53-1.38-1.47Z"/><path d="M831.98,244.59c.05,1.93-.34,3.04-1.16,3.3-.24.07-.49.12-.73.13-1.43.11-3.28-.35-5.54-1.39-2.26-1.03-4.15-2.33-5.66-3.89-.64-.63-.74-1.88-.29-3.75.45-1.86.67-2.82.67-2.88l-2.28-29.5c-.1-1.35.56-2.34,2-2.98.29-.13.7-.21,1.24-.25,1.38-.1,2.98.09,4.81.58,1.82.49,2.98,1.08,3.48,1.78.11.15.27,1.55.47,4.2l2.46,31.84c.02.31.11.76.25,1.35.14.59.23,1.07.26,1.43ZM832.86,255.91c.18.46.28,1.73.3,3.82.01,2.72.04,4.39.09,5.02.16,2.08.19,3.7.08,4.86-.11,1.16-.67,1.88-1.69,2.17-.58.2-2.32-.19-5.22-1.18-3.06-1.08-4.92-2.06-5.58-2.96-.39-.55-.34-1.49.15-2.84.25-.59.35-1.57.29-2.93-.19-1.14-.36-3.32-.51-6.56.05-1.89.72-2.85,2.01-2.9,1.39,0,3.36.44,5.9,1.32,2.55.88,3.94,1.6,4.18,2.16Z"/><rect class="cls-8" x="856.17" y="936.73" width="21.71" height="83.51" rx="3.29" ry="3.29"/><path d="M874.59,1020.49h-15.12c-1.95,0-3.54-1.59-3.54-3.54v-76.92c0-1.96,1.59-3.54,3.54-3.54h15.12c1.95,0,3.54,1.59,3.54,3.54v76.92c0,1.96-1.59,3.54-3.54,3.54ZM859.46,936.98c-1.68,0-3.04,1.37-3.04,3.04v76.92c0,1.68,1.37,3.04,3.04,3.04h15.12c1.68,0,3.04-1.37,3.04-3.04v-76.92c0-1.68-1.37-3.04-3.04-3.04h-15.12Z"/><rect class="cls-8" x="797.32" y="936.18" width="20.57" height="83.51" rx="3.29" ry="3.29"/><path d="M814.6,1019.94h-13.98c-1.95,0-3.54-1.59-3.54-3.54v-76.92c0-1.96,1.59-3.54,3.54-3.54h13.98c1.95,0,3.54,1.59,3.54,3.54v76.92c0,1.96-1.59,3.54-3.54,3.54ZM800.62,936.43c-1.68,0-3.04,1.37-3.04,3.04v76.92c0,1.68,1.37,3.04,3.04,3.04h13.98c1.68,0,3.04-1.37,3.04-3.04v-76.92c0-1.68-1.37-3.04-3.04-3.04h-13.98Z"/><rect class="cls-4" x="999.28" y="514.59" width="2.24" height="1"/><rect class="cls-2" x="918.44" y="513.13" width="0" height="48.35"/><path class="cls-8" d="M834.46,635.1c-49.54,0-89.7-32.61-89.7-72.85v-12.02c0-40.23-.53-120.91,49.01-120.91l72.13-3c49.54,0,58.26,83.68,58.26,123.91v12.02c0,40.23-40.16,72.85-89.7,72.85Z"/><path class="cls-9" d="M810.32,593.22c2.17-4.75,2.23-4.4,5.81-8.42,3.58-4.02,8.79-7.2,14.57-7.45,5.05-.22,10.02,1.84,13.73,4.91,4.27,3.54,6.72,8.69,7.38,13.82-10.24-10.12-27.83-13.77-41.5-2.86Z"/><path d="M852.5,597.46l-1.03-1.02c-9.85-9.74-27.03-13.83-40.83-2.83l-1.63,1.3.87-1.9c1.88-4.12,2.23-4.5,4.51-7.01.4-.44.85-.94,1.39-1.54,4.11-4.6,9.55-7.38,14.93-7.61,4.83-.21,9.97,1.62,14.07,5.03,4.09,3.39,6.84,8.54,7.56,14.14l.18,1.44ZM828.99,586.03c8.31,0,16.28,3.42,22.1,8.68-.94-4.79-3.43-9.12-6.97-12.06-3.92-3.25-8.8-5-13.39-4.8-5.11.22-10.29,2.87-14.22,7.28-.54.6-.99,1.11-1.39,1.54-1.84,2.03-2.36,2.6-3.5,4.95,5.55-3.91,11.55-5.59,17.37-5.59Z"/><path d="M846.94,524.76c5.87-9.92,22.14-11.44,28.83-3.51,5.76,6.83,3.42,19.45-4.37,25.46-4.92,3.8-12.9,5.64-19.22,1.76-7.86-4.82-9.62-16.31-5.24-23.71Z"/><path class="cls-9" d="M846.75,530.61c5.9-8.94,22.27-10.32,29-3.17,5.8,6.15,3.44,17.53-4.39,22.95-4.95,3.42-12.98,5.08-19.34,1.58-7.91-4.35-9.68-14.7-5.27-21.37Z"/><path class="cls-3" d="M853.32,534.94c4.42-7.28,16.69-8.4,21.74-2.58,4.35,5.01,2.58,14.27-3.29,18.68-3.71,2.79-9.73,4.13-14.5,1.29-5.93-3.54-7.25-11.97-3.95-17.4Z"/><path d="M858.2,537.15c2.34-6.01,8.83-6.94,11.5-2.13,2.3,4.14,1.36,11.79-1.74,15.43-1.96,2.3-5.14,3.42-7.67,1.06-3.14-2.92-3.84-9.89-2.09-14.37Z"/><path d="M877.3,524.28l-.41-.91s.06-.03.09-.04c1.38-.7,5.78-5.16,6.12-6.43,0-.01,0-.03,0-.04l.97.22s0,.03,0,.04c-.7,2.89-3.07,5.42-6.69,7.12-.03.01-.05.03-.08.04Z"/><path d="M872.82,524.03l-.41-.91.09-.04c1.38-.7,5.78-5.16,6.11-6.42,0-.01,0-.03,0-.04l.97.22s0,.03,0,.04c-.7,2.89-3.07,5.41-6.69,7.12-.03.01-.05.03-.08.04Z"/><path d="M781.28,524.63c5.87-9.92,22.14-11.44,28.83-3.51,5.76,6.83,3.42,19.45-4.37,25.46-4.92,3.8-12.9,5.64-19.22,1.76-7.86-4.82-9.62-16.31-5.24-23.71Z"/><path class="cls-9" d="M781.09,530.48c5.9-8.94,22.27-10.32,29-3.17,5.8,6.15,3.44,17.53-4.39,22.95-4.95,3.42-12.98,5.08-19.34,1.58-7.91-4.35-9.68-14.7-5.27-21.37Z"/><path class="cls-3" d="M787.66,534.81c4.42-7.28,16.69-8.4,21.74-2.58,4.35,5.01,2.58,14.27-3.29,18.68-3.71,2.79-9.73,4.13-14.5,1.29-5.93-3.54-7.25-11.97-3.95-17.4Z"/><path d="M792.55,537.01c2.34-6.01,8.83-6.94,11.5-2.13,2.3,4.14,1.36,11.79-1.74,15.43-1.96,2.3-5.14,3.42-7.67,1.06-3.14-2.92-3.84-9.89-2.09-14.37Z"/><path d="M789.32,521.99s-.06-.04-.1-.06c-3.03-1.72-6.7-4.62-7.24-8.71,0-.01,0-.03,0-.04l.99-.12s0,.03,0,.05c.23,1.42,5.1,6.96,6.73,7.95.03.02.07.04.1.06l-.48.88Z"/><path d="M785.34,525.3s-.05-.03-.08-.05c-2.63-1.58-5.81-4.24-6.25-8.04,0-.01,0-.03,0-.04l1-.1s0,.03,0,.04c.19,1.3,4.35,6.38,5.75,7.27.03.02.06.04.09.05l-.5.87Z"/><path d="M832.12,566.77c-3.33-.06-5.61-1.28-6.26-3.36-.75-2.39.91-5.39,4.31-7.82l.58.81c-3.04,2.18-4.55,4.75-3.94,6.71.51,1.64,2.45,2.61,5.32,2.66l-.02,1Z"/><path d="M882.07,510.38c-2.29-4.73-7.17-6.73-10.98-7.03-4.51-.36-8.96,1.07-13.25,2.45l-.61-1.9c4.27-1.37,9.11-2.93,14.02-2.54,5.56.44,10.4,3.56,12.62,8.15l-1.8.87Z"/><path d="M813.93,511.65c-.84-4.07-3.2-7.16-6.65-8.7-4.12-1.83-9.24-1.25-14.07,1.58l-1.01-1.72c5.39-3.17,11.18-3.78,15.9-1.68,4.06,1.8,6.83,5.4,7.79,10.12l-1.96.4Z"/><polygon class="cls-10" points="813.77 651.58 666.49 939.48 1003 939.48 855.12 651.58 813.77 651.58"/><path d="M1003.82,939.98h-338.15l147.79-288.89h41.96l.14.27,148.25,288.62ZM667.31,938.98h334.87l-147.36-286.89h-40.74l-146.77,286.89Z"/><polygon class="cls-8" points="812.27 629.61 855.45 629.61 872.62 682.35 796.13 682.35 812.27 629.61"/><path class="cls-10" d="M887.87,1017.86l-10.85-.28-.4-12.72h.12c-.07,2.69-8.1,5.34-11.71,5.34s-9.94-2.64-10-5.34h0v26.09c0,2.28,1.92,4.13,4.29,4.13h32.77c1.92,0,3.46-1.53,3.39-3.37l-.23-6.78c-.13-3.86-3.37-6.96-7.38-7.06Z"/><path d="M892.08,1035.57h-32.77c-2.64,0-4.79-2.08-4.79-4.63v-26.09h1c.05,2.19,5.88,4.84,9.5,4.84,3.41,0,10.15-2.32,11.1-4.4l-.03-.94h1.15v.51c-.02.2-.05.39-.12.58l.37,11.64,10.38.27c4.28.11,7.73,3.42,7.87,7.54l.23,6.78c.03,1-.34,1.96-1.05,2.69-.73.76-1.77,1.19-2.85,1.19ZM855.53,1006.94v24.01c0,2,1.7,3.63,3.79,3.63h32.77c.82,0,1.57-.32,2.13-.89.52-.54.79-1.24.77-1.97l-.23-6.78c-.12-3.59-3.15-6.48-6.9-6.58l-11.33-.29-.35-11.26c-2.44,2.28-8.46,3.89-11.14,3.89s-7.45-1.57-9.5-3.76Z"/><path class="cls-10" d="M783.85,1020.98l11.74-.28.43-12.72h-.13c.08,2.69,8.76,5.34,12.66,5.34s10.75-2.64,10.82-5.34h0v26.09c0,2.28-2.08,4.13-4.64,4.13h-35.44c-2.08,0-3.74-1.53-3.67-3.37l.25-6.78c.14-3.86,3.64-6.96,7.99-7.06Z"/><path d="M814.73,1038.69h-35.44c-1.21,0-2.36-.47-3.15-1.29-.69-.72-1.06-1.64-1.02-2.6l.25-6.78c.15-4.12,3.87-7.43,8.47-7.54l11.27-.27.4-11.64c-.07-.19-.11-.38-.11-.58v-.51s1.15,0,1.15,0l-.03.94c1.03,2.08,8.34,4.4,12.04,4.4,3.93,0,10.26-2.65,10.32-4.85h1v26.11c0,2.55-2.31,4.62-5.14,4.62ZM783.86,1021.48h0c-4.07.1-7.37,2.99-7.5,6.58l-.25,6.78c-.02.68.24,1.34.74,1.86.61.63,1.49.99,2.43.99h35.44c2.28,0,4.14-1.63,4.14-3.62v-24.09c-2.17,2.22-7.37,3.83-10.32,3.83s-9.51-1.65-12.09-3.96l-.39,11.33-12.21.29Z"/><path class="cls-11" d="M869.98,495.59c13.68,17.56,26.37,36.13,35.09,56.5,10.27,23.97-.79,31.23-20.33,47.29-7.35,6.04-26.63,14.68-29.94,23.12-2.46,6.26,15.83,76.63,20.14,77.04,28.84,2.78,57.8,4.42,86.78,4.92-25.74-25.44-28.56-64.42-29.9-99.9-.96-25.33-1.91-50.66-2.87-75.99-1.05-27.73-2.63-57.12-18.88-80.05-16.25-22.93-52.79-34.83-74.62-16.69,1.59,23.93,19.58,44.56,34.53,63.75Z"/><path d="M962.96,704.98l-1.25-.02c-28.87-.5-58.08-2.16-86.82-4.93-.5-.05-.98-.49-1.56-1.44-5.26-8.57-21.52-69.83-18.99-76.28,2.28-5.82,11.7-11.57,20-16.65,3.96-2.42,7.7-4.71,10.09-6.67,1.02-.84,2.01-1.65,2.98-2.44,17.84-14.57,26.79-21.89,17.21-44.27-7.5-17.52-18.31-34.91-35.03-56.39h0c-1.37-1.76-2.77-3.53-4.17-5.32-14.26-18.1-29.01-36.82-30.46-58.71l-.02-.25.2-.16c8.72-7.25,20.12-10.18,32.97-8.5,16.64,2.19,32.88,11.87,42.38,25.28,16.84,23.77,18.02,55.12,18.97,80.32l2.87,75.99c1.45,38.4,4.82,74.91,29.75,99.56l.89.88ZM835.97,432.06c1.53,21.47,16.12,39.99,30.23,57.9,1.41,1.79,2.81,3.56,4.18,5.32,16.78,21.55,27.62,39,35.16,56.61,9.88,23.07.16,31.01-17.49,45.44-.97.79-1.96,1.6-2.98,2.44-2.45,2.01-6.21,4.31-10.2,6.75-8.17,5-17.43,10.66-19.59,16.16-2,5.09,12.1,62.15,18.4,74.46.91,1.78,1.32,1.9,1.33,1.9,28.3,2.72,57.06,4.37,85.5,4.9-24.4-24.89-27.73-61.2-29.17-99.36l-2.87-75.99c-.95-25.06-2.12-56.26-18.79-79.78-9.34-13.19-25.32-22.72-41.69-24.87-8.71-1.15-21.31-.66-32.01,8.11Z"/><path class="cls-11" d="M799.04,496.12c-14.23,17.56-27.43,36.13-36.5,56.5-10.68,23.97.83,31.23,21.15,47.29,7.64,6.04,27.7,14.68,31.14,23.12,2.55,6.26-16.46,76.63-20.95,77.04-30,2.78-60.11,4.42-90.25,4.92,26.77-25.44,29.7-64.42,31.1-99.9.99-25.33,1.99-50.66,2.98-75.99,1.09-27.73,2.74-57.12,19.64-80.05,16.9-22.93,54.9-34.83,77.61-16.69-1.65,23.93-20.37,44.56-35.91,63.75Z"/><path d="M702.35,705.52l.93-.88c25.93-24.65,29.43-61.16,30.94-99.55l2.98-75.99c.99-25.2,2.22-56.56,19.73-80.33,9.8-13.3,26.56-22.97,43.75-25.23,13.29-1.75,25.57,1.25,34.58,8.45l.2.16-.02.26c-1.51,21.89-16.85,40.61-31.68,58.72-1.46,1.79-2.92,3.56-4.34,5.32l-.39-.31.39.31c-17.39,21.47-28.63,38.86-36.43,56.39-9.96,22.37-.65,29.68,17.89,44.25,1.01.79,2.05,1.61,3.1,2.44,2.49,1.97,6.38,4.25,10.5,6.68,8.64,5.08,18.42,10.83,20.8,16.65,2.55,6.26-13.89,66.64-19.62,76.08-.66,1.09-1.2,1.6-1.74,1.65-29.89,2.77-60.27,4.42-90.29,4.93l-1.28.02ZM808.17,424.03c-2.64,0-5.11.2-7.35.49-16.92,2.23-33.43,11.74-43.07,24.83-17.33,23.52-18.55,54.71-19.54,79.77l-2.98,75.99c-1.5,38.16-4.96,74.47-30.33,99.36,29.58-.53,59.5-2.17,88.95-4.9.01,0,.42-.1,1.33-1.79,6.61-12.22,21.32-69.36,19.2-74.56-2.25-5.5-11.88-11.17-20.38-16.16-4.15-2.44-8.07-4.74-10.61-6.75-1.06-.84-2.09-1.65-3.1-2.44-18.36-14.42-28.47-22.37-18.19-45.45,7.84-17.6,19.12-35.06,36.56-56.61,1.43-1.76,2.88-3.54,4.34-5.32,14.67-17.91,29.85-36.42,31.44-57.89-8.49-6.69-18.12-8.57-26.27-8.57Z"/><ellipse class="cls-12" cx="834.85" cy="787.62" rx="54.68" ry="53.5"/><path class="cls-4" d="M834.85,841.62c-30.43,0-55.18-24.22-55.18-54s24.75-54,55.18-54,55.18,24.22,55.18,54-24.75,54-55.18,54ZM834.85,734.63c-29.88,0-54.18,23.77-54.18,53s24.3,53,54.18,53,54.18-23.77,54.18-53-24.3-53-54.18-53Z"/><path class="cls-4" d="M834.8,825.09c-21.11,0-38.28-16.71-38.28-37.26s17.17-37.26,38.28-37.26,38.28,16.71,38.28,37.26-17.17,37.26-38.28,37.26ZM834.8,751.58c-20.55,0-37.28,16.26-37.28,36.26s16.72,36.26,37.28,36.26,37.28-16.26,37.28-36.26-16.72-36.26-37.28-36.26Z"/><path class="cls-8" d="M856.18,797.2l-6.19,4.39c-1.78,1.26-4.28.9-5.59-.81l-13.44-17.53c-1.31-1.71-.93-4.12.85-5.38l6.19-4.39c1.78-1.26,4.28-.9,5.59.81l13.44,17.53c1.31,1.71.93,4.12-.85,5.38Z"/><path d="M847.63,802.58c-1.3,0-2.59-.58-3.42-1.66l-13.44-17.53c-.67-.88-.95-1.95-.79-3.02.17-1.09.76-2.06,1.69-2.71l6.19-4.39c1.88-1.33,4.54-.95,5.94.87l13.44,17.54c.67.88.95,1.95.79,3.02-.17,1.09-.76,2.05-1.69,2.71l-6.19,4.39c-.76.54-1.64.79-2.51.79ZM840.37,772.97c-.77,0-1.55.23-2.22.7l-6.19,4.39c-.81.58-1.34,1.42-1.48,2.38-.14.94.1,1.88.69,2.64l13.44,17.53c1.23,1.6,3.58,1.94,5.25.76l6.19-4.39c.81-.57,1.34-1.42,1.48-2.38.14-.94-.1-1.88-.69-2.65l-13.44-17.54c-.73-.96-1.87-1.47-3.02-1.47Z"/><polyline class="cls-10" points="915.29 765.9 886 819.7 841.89 800.65 857.34 790.23 877.17 800.05 909.05 756.1"/><polygon points="886.23 820.34 840.85 800.75 857.31 789.65 877.01 799.42 908.64 755.81 909.45 756.4 877.33 800.69 857.38 790.81 842.92 800.56 885.78 819.06 914.86 765.66 915.73 766.13 886.23 820.34"/><polyline class="cls-10" points="753.52 770.73 780.57 824.54 821.32 805.49 807.04 795.07 788.73 804.89 759.29 760.94"/><polygon points="780.34 825.2 753.08 770.96 753.97 770.51 780.8 823.88 820.34 805.39 807 795.65 788.57 805.55 758.88 761.22 759.71 760.66 788.89 804.24 807.08 794.48 822.3 805.58 780.34 825.2"/><path class="cls-8" d="M813.31,805.46l-5.73-5.04c-1.63-1.43-1.74-3.87-.25-5.43l15.29-16.07c1.49-1.57,4.02-1.68,5.65-.24l5.73,5.04c1.63,1.43,1.74,3.87.25,5.43l-15.29,16.07c-1.49,1.57-4.02,1.68-5.65.24Z"/><path d="M816.01,806.72c-1.02,0-2.05-.35-2.86-1.07l-5.73-5.04c-.84-.74-1.33-1.75-1.38-2.85-.05-1.09.35-2.14,1.11-2.94l15.29-16.07c1.58-1.66,4.27-1.78,6-.26l5.73,5.04c.84.74,1.33,1.75,1.38,2.85.05,1.09-.35,2.14-1.11,2.94l-15.29,16.07c-.84.88-1.98,1.33-3.13,1.33ZM825.57,777.91c-1.02,0-2.03.39-2.77,1.17l-15.29,16.07c-.67.71-1.02,1.62-.98,2.58.04.96.47,1.85,1.21,2.5l5.73,5.04c1.53,1.34,3.91,1.24,5.3-.23l15.29-16.07c.67-.71,1.02-1.62.98-2.58-.04-.96-.47-1.85-1.21-2.5l-5.73-5.04c-.72-.63-1.63-.94-2.53-.94Z"/><path class="cls-9" d="M1142.62,485.22l-98.17-10.35c-125.18,16.42-142.05,68.33-40.5-34.49l-6.8-118.09c10.74-19.57,32.44-38.29,67.03-34.59l118.86,12.49c34.59,3.69,40.21,23.3,37.76,46.22l-11.11,103.99c-2.45,22.92-32.48,38.51-67.07,34.82Z"/><path d="M937.92,504.09c-.68,0-1.04-.29-1.37-.84-.92-1.52-.27-2.09,7.71-8.97,9.43-8.14,29.01-25.02,58.14-54.48l-6.79-117.85.21-.38c6.65-12.12,26.65-39.83,68.5-35.36l118.86,12.49c16.61,1.77,27.69,7.19,33.87,16.57,5.03,7.64,6.7,17.59,5.23,31.31l-11.11,103.99c-2.29,21.4-27.63,36.69-58.54,36.69-3.34,0-6.74-.18-10.18-.55l-97.99-10.33c-52.04,6.85-84.89,19.7-98.93,25.19-4.4,1.72-6.46,2.53-7.61,2.53ZM998.66,322.64l6.82,118.32-.47.47c-29.48,29.84-49.27,46.92-58.79,55.12-1.16,1-2.24,1.94-3.2,2.77.46-.18.93-.36,1.42-.55,14.16-5.54,47.31-18.5,99.81-25.39l.18-.02,98.35,10.37c3.36.36,6.69.53,9.94.53,29.37,0,53.36-14.15,55.48-34.02l11.11-103.99c1.39-12.99-.12-22.31-4.75-29.34-5.65-8.58-16.02-13.56-31.68-15.23l-118.86-12.49c-39.65-4.24-58.79,21.66-65.35,33.44Z"/><path class="cls-9" d="M642.96,589.87c13.29,2.22,26.55,3.93,39.72,5.1-9.16,7.12-18.33,14.24-27.49,21.35,1.52,22.75-23.17,33.92-50.21,34.94-29.89,1.12-63.18-5.94-91.56-22.11-28.38-16.17-51.03-41.9-56.11-67.45-3.11-15.6.21-30.32,5.75-43.71,3.55-8.56,8.19-16.92,16.48-22.36,7.99-5.23,18.82-7.38,29.9-8.24,30.88-2.39,65.57,4.82,96.35,20.04,6.84,3.38,13.68,7.29,18.61,12.55,3.65,3.89,6.05,8.3,8.22,12.66,9.4,18.91,7.84,38.27,10.32,57.24Z"/><path d="M598.9,652.87c-29.88,0-60.98-8.04-86.21-22.42-30.07-17.13-51.85-43.37-56.84-68.46-2.76-13.86-.85-28.44,5.84-44.57,3.14-7.58,7.92-17.05,17.05-23.04,7.12-4.66,17.13-7.44,30.61-8.48,30.93-2.4,66.33,4.96,97.13,20.19,6.43,3.18,13.72,7.19,19.04,12.87,3.91,4.17,6.42,8.91,8.47,13.02,6.99,14.06,8.04,28.44,9.05,42.34.34,4.69.69,9.53,1.27,14.27,12.84,2.12,25.79,3.77,38.51,4.9l3.8.34-29.88,23.21c.31,7.45-2.05,14.02-7.03,19.55-8.59,9.54-24.87,15.44-44.66,16.18-2.04.08-4.09.11-6.15.11ZM521.09,488.45c-3.9,0-7.74.14-11.52.44-12.97,1-22.52,3.62-29.2,8-8.4,5.5-12.76,14.04-15.92,21.68-6.45,15.57-8.31,29.58-5.67,42.84,4.83,24.27,26.05,49.73,55.38,66.44,26.5,15.1,59.58,23.08,90.76,21.92,18.98-.71,34.49-6.25,42.54-15.19,4.59-5.1,6.69-11.2,6.22-18.15l-.05-.79,25.12-19.51c-11.94-1.15-24.04-2.75-36.05-4.76l-1.1-.18-.14-1.1c-.68-5.17-1.06-10.44-1.43-15.54-.99-13.61-2.02-27.69-8.75-41.23-1.95-3.92-4.34-8.44-7.97-12.31-5-5.33-12-9.17-18.18-12.23-26.56-13.13-56.58-20.32-84.06-20.32Z"/><path d="M493.52,542.15c-.57,2.11-1.75,4.24-3.56,6.4-1.44,1.74-3.09,3.31-4.93,4.7-1.62,1.18-2.76,1.82-3.4,1.91-.32.04-.67,0-1.03-.09-.85-.23-1.74-.76-2.68-1.59-.84-.71-1.44-1.38-1.78-2.03l5.62-20.86c.19-.49.56-.71,1.11-.66.06,0,.53.19,1.39.59.17.07.8.02,1.89-.14,1.09-.16,1.98-.15,2.68.04.85.23,1.6.67,2.25,1.32.37.39.9,1.09,1.58,2.1.99,1.47,1.51,2.87,1.57,4.21.03.9-.21,2.26-.7,4.1ZM490.22,535.27c-.08-.08-.23-.15-.44-.21-1.02-.28-2.37-.16-4.04.34l-3.51,13.04c1.52-.4,3.13-1.94,4.85-4.63,1.47-2.32,2.49-4.51,3.05-6.57.29-1.08.32-1.74.09-1.96Z"/><path d="M497.68,557.97c-.11.71-.47,1.09-1.08,1.11-.1,0-.24-.03-.41-.08-.7-.19-1.52-.56-2.46-1.13-1.02-.61-1.58-1.11-1.68-1.51-.05-.18.11-.46.5-.83.25-.24.48-.75.69-1.52l3.28-12.17c-.03-.8-.02-1.32.05-1.57.07-.25.46-.28,1.17-.09.58.16,1.34.55,2.27,1.19.94.64,1.48,1.12,1.62,1.45.04.09.04.2,0,.31-.04.15-.23.41-.57.78-.34.36-.53.65-.59.87l-3.14,11.64c-.05.19,0,.46.14.81.14.35.21.59.19.73ZM503.16,537.98s0,.12-.03.24c-.11.42-.35.95-.71,1.58-.39.68-.68,1.04-.88,1.07-.21.03-.99-.41-2.32-1.29-1.33-.89-2.02-1.45-2.06-1.69-.03-.11-.02-.26.03-.46.14-.52.42-1.04.85-1.54.49-.57.93-.85,1.34-.82.46.04,1.19.42,2.18,1.13.99.71,1.52,1.31,1.6,1.78Z"/><path d="M514.01,561.01c.06.41.03.8-.07,1.16-.16.58-.49.92-.99,1.01-.15.02-.4-.02-.75-.11-.66-.18-1.41-.49-2.26-.94-.85-.45-1.35-.79-1.49-1.04-.07-.14-.08-.28-.04-.42.06-.21.29-.52.71-.91.42-.4.66-.7.71-.91,2.09-7.6,3.06-11.45,2.92-11.55-.25-.17-1.15.52-2.7,2.07-1.64,1.63-2.59,2.94-2.86,3.92l-1.46,5.42c.18.32.23.66.13,1.03-.2.73-.66,1.15-1.39,1.24-.09.02-.21,0-.36-.04-.52-.14-1.25-.47-2.19-.98s-1.45-.86-1.52-1.04c-.07-.19-.08-.38-.03-.57s.23-.4.52-.61c.3-.21.45-.35.47-.43l3.63-13.47c.04-.16.02-.38-.07-.67-.09-.29-.08-.52.03-.68.23-.38.6-.55,1.11-.54.33,0,1.03.31,2.09.9,1.15.64,1.74,1.14,1.77,1.5.02.23-.09.54-.34.93-.39.62-.6.97-.63,1.07-.06.21-.08.46-.07.73.55-.89,1.19-1.64,1.91-2.25.88-.74,1.64-1.02,2.28-.85.66.18,1.44.63,2.37,1.37s1.41,1.31,1.46,1.71c.21,1.38-.75,6.02-2.88,13.92Z"/><path d="M533.6,565.2c-.29,1.06-.87,1.82-1.74,2.26-.88.45-1.95.51-3.23.19-.31-.08-.63-.22-.97-.42-.61-.35-.93-.54-.96-.57-.33-.17-.66-.35-.99-.53-.33-.18-.6-.42-.79-.7-.32-.5-.59-1.14-.82-1.93-.18-.63-.35-1.27-.51-1.91-.16-.64-.22-1.02-.19-1.14.07-.27.32-.42.74-.45.11-.01.29.02.54.08.58.16,1.29.41,2.14.78.85.36,1.29.6,1.35.71.05.11,0,.69-.13,1.75-.12.92-.04,1.42.25,1.49.44.12.83-.42,1.15-1.62.41-1.53.26-2.59-.44-3.2-1.62-1.37-2.63-2.47-3.02-3.3-.49-1.02-.51-2.38-.06-4.05.3-1.1.87-2.06,1.71-2.88.84-.82,1.68-1.22,2.53-1.2.37.02,1.39.69,3.06,2.01.16.1.64.35,1.45.73.57.28.94.6,1.11.95.25.54.27,1.3.07,2.29-.17.72-.36,1.44-.55,2.15-.04.69-.08,1.1-.11,1.21-.15.54-.49.78-1.03.72-.28-.04-.78-.28-1.51-.75-.79-.53-1.26-.97-1.41-1.34-.04-.09.1-.83.41-2.22.29-1.31.33-1.99.12-2.05-.29-.08-.66.23-1.12.91s-.79,1.43-1.01,2.24c-.28,1.02-.23,1.73.14,2.12.8.78,1.6,1.56,2.4,2.34.79.78,1.3,1.5,1.51,2.16.28.87.26,1.91-.07,3.15Z"/><path d="M552.81,555.71c.08.23.1.44.05.63-.05.19-.23.39-.52.61-.3.21-.45.35-.47.43l-3.63,13.47c-.03.12-.02.34.02.66.05.32.05.55.02.69-.09.35-.46.52-1.1.51-.33,0-1.02-.31-2.09-.9-1.15-.64-1.75-1.13-1.78-1.47-.03-.28.09-.61.36-.99.33-.45.52-.77.57-.96.05-.19.09-.45.12-.78-.55.89-1.19,1.64-1.91,2.25-.88.72-1.63.99-2.27.82-.66-.18-1.45-.63-2.37-1.35-.92-.72-1.41-1.29-1.47-1.7-.21-1.38.75-6.02,2.88-13.92-.06-.41-.03-.79.06-1.16.16-.6.49-.94.99-1.04.15-.02.4.01.75.11.66.18,1.41.49,2.26.94.85.45,1.35.8,1.48,1.07.07.14.08.28.04.42-.06.21-.29.52-.71.91s-.65.7-.71.91c-2.09,7.6-3.06,11.45-2.93,11.54.24.17,1.17-.54,2.76-2.13,1.6-1.59,2.53-2.88,2.8-3.86l1.46-5.42c-.18-.32-.22-.66-.13-1.03.2-.75.67-1.18,1.4-1.27.09-.02.21,0,.36.04.52.14,1.25.47,2.19.98.94.51,1.44.85,1.5,1.01Z"/><path d="M566.22,560.6c0,.33-.18.55-.52.67-.26.05-.52.12-.77.2-1.72,1.53-4.04,3.58-6.98,6.17-.83,3.07-1.24,4.66-1.25,4.76,0,.1,0,.37.02.8.02.43,0,.76-.07.99-.1.37-.33.57-.7.62-.24.04-.54,0-.91-.09-.73-.2-1.5-.58-2.3-1.15-1.02-.69-1.44-1.33-1.28-1.93.05-.17.2-.43.46-.78.26-.34.42-.64.49-.89l3.09-11.47c.08-1.14.12-1.73.13-1.77.16-.6.53-.9,1.12-.91.25,0,.53.05.86.14.68.18,1.35.49,2.04.91.68.42,1.06.78,1.13,1.06.02.09.01.19-.02.31-.03.1-.29.52-.78,1.28l-.37,1.39c.69-.71,1.36-1.41,2.03-2.12.88-.88,1.47-1.31,1.78-1.29.45.04,1.03.46,1.74,1.28.71.81,1.07,1.43,1.06,1.84Z"/><path d="M575.99,574.26c.1.34-.51,1.09-1.82,2.27-1.42,1.25-2.68,2.02-3.79,2.3-.13.03-.31,0-.54-.05-.75-.2-1.68-.7-2.77-1.49-1.17-.81-1.88-1.54-2.14-2.19-.73-1.75-.75-3.91-.06-6.48.66-2.43,1.73-4.44,3.21-6.03,1.61-1.74,3.24-2.41,4.89-2.01.6.14,1.29.49,2.05,1.05.93.69,1.65,1.47,2.13,2.35.13.22.15.79.07,1.7-.06.98-.21,1.91-.45,2.8-.35,1.31-.81,2.16-1.37,2.55-2.16.1-4.29-.09-6.37-.57-.29.94-.45,1.96-.46,3.08-.01,1.11.13,1.72.41,1.82.38.12.93-.07,1.65-.58.63-.43,1.06-.82,1.28-1.18.29-.54.64-1.09,1.03-1.65.32.04.88.36,1.7.96.81.59,1.26,1.04,1.34,1.36ZM573.23,564.01c-.32-.13-.92.27-1.8,1.19-.88.92-1.5,1.86-1.86,2.82.88.2,1.63.17,2.26-.07.37-.15.79-1.07,1.24-2.77.19-.71.25-1.11.16-1.17Z"/><path d="M597.21,567.61c.93.79,1.47,2.02,1.64,3.71.15,1.53-.03,3.24-.54,5.13-.7,2.61-1.76,4.75-3.16,6.42-1.54,1.78-3.01,2.38-4.43,1.79-.5-.28-1.27-.66-2.3-1.15-.77-.31-1.44-.65-2.03-1.01-1.02-.59-1.65-1.76-1.88-3.52-.2-1.63-.04-3.43.49-5.4.54-1.99,1.33-3.71,2.39-5.17,1.17-1.59,2.49-2.57,3.93-2.95.24-.06.55-.04.92.06.39.1,1.11.44,2.19.99.73.2,1.66.56,2.78,1.09ZM593.26,569.35c-.52-.14-1.17.36-1.96,1.51s-1.33,2.3-1.65,3.46c-.37,1.39-.58,2.8-.62,4.24-.03,1.57.18,2.47.64,2.72.58.3,1.32-.24,2.21-1.64.86-1.34,1.53-2.9,2.01-4.68.26-.98.4-1.99.41-3.03.04-1.52-.31-2.38-1.04-2.58Z"/><path d="M609.61,585.69c-.29,1.06-.87,1.82-1.75,2.26s-1.95.51-3.23.18c-.31-.08-.63-.22-.97-.42-.61-.35-.93-.54-.96-.57-.33-.17-.66-.35-.99-.53-.33-.18-.6-.41-.79-.69-.32-.5-.59-1.14-.82-1.93-.18-.63-.35-1.27-.51-1.91-.16-.64-.22-1.02-.19-1.14.07-.27.32-.42.74-.45.11-.01.29.02.54.08.58.16,1.29.42,2.14.78.85.36,1.29.6,1.35.71.05.11,0,.69-.13,1.75-.12.92-.04,1.42.25,1.5.44.12.83-.42,1.15-1.62.41-1.53.26-2.59-.44-3.2-1.62-1.37-2.63-2.47-3.02-3.3-.49-1.02-.51-2.38-.06-4.05.3-1.1.87-2.06,1.71-2.88.84-.82,1.69-1.22,2.53-1.2.37.02,1.39.68,3.06,2.01.16.11.64.35,1.45.73.57.28.94.59,1.11.95.25.54.27,1.3.07,2.29-.17.72-.36,1.44-.55,2.15-.04.69-.08,1.1-.11,1.21-.15.54-.49.78-1.03.72-.28-.03-.78-.28-1.51-.75-.79-.52-1.26-.97-1.41-1.34-.04-.09.1-.83.41-2.22.29-1.31.33-1.99.12-2.05-.29-.08-.66.22-1.12.91-.45.69-.79,1.43-1.01,2.24-.28,1.03-.23,1.73.14,2.12.8.78,1.6,1.56,2.4,2.34.79.78,1.3,1.51,1.51,2.16.29.87.26,1.91-.07,3.15Z"/><path d="M624.39,577.52c-.11.34-.31.62-.6.83-.29.21-.55.29-.8.22-.08-.02-.14-.05-.19-.08-.25-.17-.84-.38-1.79-.64l-3.08,11.44s.03.15.06.51c.04.36.02.67-.05.92-.15.56-.62.75-1.4.58-.41-.09-1.11-.46-2.09-1.12-1.07-.7-1.61-1.23-1.59-1.58,0-.15.14-.41.43-.8.29-.39.47-.7.53-.93l2.76-10.25-.98-.27c-.37-.1-.73-.54-1.1-1.34-.37-.79-.5-1.38-.39-1.77.08-.29.26-.52.54-.69s.56-.22.83-.15l2.09.56.7-2.61c-.19-.46-.22-.92-.1-1.36.11-.41.35-.61.72-.61.18,0,.43.05.74.14.71.19,1.52.53,2.42,1.01.9.48,1.46.87,1.69,1.18.1.15.13.3.09.46-.05.19-.28.44-.7.74-.41.3-.65.53-.71.68l-.42,1.56.93.25c.19.05.5.51.94,1.37.43.86.61,1.44.53,1.73Z"/><path d="M628.78,589.27c.01.19-.12.66-.38,1.42-.35.98-.55,1.59-.62,1.82-.21.77-.41,1.36-.6,1.77-.19.4-.5.59-.93.56-.25,0-.86-.38-1.84-1.12-1.03-.79-1.61-1.4-1.75-1.81-.08-.25.06-.58.43-1,.17-.18.34-.52.49-1.02.08-.44.29-1.25.66-2.43.26-.67.65-.93,1.14-.78.53.18,1.22.61,2.08,1.26.86.66,1.3,1.1,1.32,1.33ZM629.91,585.07c-.23.71-.52,1.05-.87,1.04-.1,0-.2-.02-.3-.05-.56-.15-1.21-.56-1.93-1.24-.73-.67-1.28-1.39-1.66-2.15-.16-.31-.04-.78.37-1.39.41-.61.62-.93.63-.95l2.95-10.95c.14-.5.52-.77,1.15-.81.12,0,.29.02.51.07.54.15,1.13.43,1.76.85.63.42,1,.79,1.1,1.1.02.07-.1.6-.36,1.58l-3.19,11.82c-.03.12-.06.29-.08.52-.02.23-.05.42-.09.55Z"/><path d="M1029.19,346.22c0,.44-.09,1-.27,1.68-.1.04-.25.06-.45.06-.52,0-1.17-.12-1.95-.36-.84-.28-1.41-.59-1.71-.93-.14-.14-.27-.62-.39-1.44-.18-1.08-.38-1.97-.6-2.67-.6.08-1.49.3-2.66.66-1.17.36-1.93.66-2.29.9-.24.68-.56,1.53-.96,2.55-.06.22-.12.43-.17.63-.05.2-.19.36-.41.48-.06.02-.13.03-.21.03-.4,0-1.04-.19-1.93-.58-.89-.39-1.36-.65-1.4-.77-.06-.24.09-.8.45-1.68.5-1.28.79-2.06.87-2.34-.38-.42-.54-.84-.48-1.26.06-.2.55-.55,1.47-1.05l3.09-10.59v-1.32c0-.44.25-.66.75-.66.74,0,1.81.19,3.21.58,1.4.39,2.24.73,2.52,1.04.1,1.78.46,4.44,1.08,7.98.78,4.38,1.59,7.4,2.43,9.06ZM1024.24,325.67c-.62.88-1.47,1.32-2.55,1.32-.64,0-1.18-.2-1.62-.6-.56-.5-.84-1.15-.84-1.95,0-.68.21-1.31.63-1.89.62-.86,1.45-1.29,2.49-1.29.62,0,1.16.2,1.62.6.6.52.9,1.17.9,1.95,0,.66-.21,1.28-.63,1.86ZM1022.92,338.93c-.24-1.26-.37-1.92-.39-1.98-.16-1.08-.27-2.19-.33-3.33-.3.76-.68,1.86-1.14,3.29-.46,1.43-.71,2.33-.75,2.71.24-.1,1.11-.33,2.61-.69ZM1022.38,323.12c-.34,0-.66.14-.94.43-.29.29-.44.6-.44.93,0,.51.27.77.81.77.32,0,.63-.15.93-.44s.45-.61.45-.95c0-.49-.27-.74-.81-.74Z"/><path d="M1044.67,347.15c-.02.28-.14.52-.36.72-.22.2-.47.28-.75.24-2.48-.34-3.86-.81-4.14-1.41-.04-.08-.06-.16-.06-.24,0-.1.04-.21.13-.33.09-.12.15-.22.17-.31.02-.09.06-.17.12-.25.04-.16.05-.51.03-1.05-.24.18-.6.66-1.08,1.44-.5.86-.94,1.46-1.32,1.8-.64.6-1.37.9-2.19.9-.48,0-.95-.19-1.41-.57-.22-.18-.61-.57-1.17-1.17-.96-1.08-1.48-1.67-1.56-1.77-.42-.56-.63-1.09-.63-1.59,0-.16.02-.32.06-.48.38-1.76,1.56-3.43,3.54-5.01,1.44-1.14,3.48-2.35,6.12-3.63,0-.64-.16-1.05-.48-1.23-.2-.12-.9.1-2.1.67-1.2.57-2.04,1.06-2.52,1.46-.16.16-.42.38-.78.66-.34.2-.65.26-.93.18-.22-.06-.69-.42-1.41-1.08-.72-.66-1.11-1.1-1.17-1.32-.16-.54,0-.96.51-1.26.02-.02.42-.14,1.2-.36.74-.4,1.48-.8,2.22-1.2,1.56-.74,2.88-1.14,3.96-1.2.46-.02.98.22,1.56.72.52.46,1.04.92,1.58,1.36.53.45,1.08.89,1.63,1.31.64.56.96,1.1.96,1.62v11.34c.2.52.29.87.27,1.05ZM1039.87,338.39c-.98.38-1.82.96-2.52,1.74-.52.64-1.04,1.27-1.56,1.89-.42.42-.82.97-1.19,1.64s-.55,1.17-.55,1.48c0,.16.06.24.18.24.42,0,1.36-.9,2.82-2.71,1.46-1.81,2.4-3.23,2.82-4.27ZM1041.07,327.44c-.76,1.08-1.8,1.62-3.12,1.62-.82,0-1.51-.25-2.07-.75-.72-.64-1.08-1.45-1.08-2.43,0-.84.27-1.62.81-2.34.8-1.06,1.84-1.59,3.12-1.59.78,0,1.45.24,2.01.72.74.64,1.11,1.45,1.11,2.43,0,.84-.26,1.62-.78,2.34ZM1038.76,324.23c-.44,0-.84.18-1.2.54s-.54.76-.54,1.2c0,.66.33.99.99.99.42,0,.81-.19,1.18-.57s.56-.78.56-1.2c0-.64-.33-.96-.99-.96Z"/><path d="M1059.97,347.15c-.02.28-.14.52-.36.72-.22.2-.47.28-.75.24-2.48-.34-3.86-.81-4.14-1.41-.04-.08-.06-.16-.06-.24,0-.1.04-.21.13-.33.09-.12.15-.22.17-.31.02-.09.06-.17.12-.25.04-.16.05-.51.03-1.05-.24.18-.6.66-1.08,1.44-.5.86-.94,1.46-1.32,1.8-.64.6-1.37.9-2.19.9-.48,0-.95-.19-1.41-.57-.22-.18-.61-.57-1.17-1.17-.96-1.08-1.48-1.67-1.56-1.77-.42-.56-.63-1.09-.63-1.59,0-.16.02-.32.06-.48.38-1.76,1.56-3.43,3.54-5.01,1.44-1.14,3.48-2.35,6.12-3.63,0-.64-.16-1.05-.48-1.23-.2-.12-.9.1-2.1.67-1.2.57-2.04,1.06-2.52,1.46-.16.16-.42.38-.78.66-.34.2-.65.26-.93.18-.22-.06-.69-.42-1.41-1.08-.72-.66-1.11-1.1-1.17-1.32-.16-.54,0-.96.51-1.26.02-.02.42-.14,1.2-.36.74-.4,1.48-.8,2.22-1.2,1.56-.74,2.88-1.14,3.96-1.2.46-.02.98.22,1.56.72.52.46,1.04.92,1.58,1.36.53.45,1.08.89,1.63,1.31.64.56.96,1.1.96,1.62v11.34c.2.52.29.87.27,1.05ZM1055.17,338.39c-.98.38-1.82.96-2.52,1.74-.52.64-1.04,1.27-1.56,1.89-.42.42-.82.97-1.19,1.64s-.55,1.17-.55,1.48c0,.16.06.24.18.24.42,0,1.36-.9,2.82-2.71,1.46-1.81,2.4-3.23,2.82-4.27ZM1056.37,327.44c-.76,1.08-1.8,1.62-3.12,1.62-.82,0-1.51-.25-2.07-.75-.72-.64-1.08-1.45-1.08-2.43,0-.84.27-1.62.81-2.34.8-1.06,1.84-1.59,3.12-1.59.78,0,1.45.24,2.01.72.74.64,1.11,1.45,1.11,2.43,0,.84-.26,1.62-.78,2.34ZM1054.06,324.23c-.44,0-.84.18-1.2.54s-.54.76-.54,1.2c0,.66.33.99.99.99.42,0,.81-.19,1.18-.57s.56-.78.56-1.2c0-.64-.33-.96-.99-.96Z"/><path d="M1074.82,347.15c-.1.58-.32.95-.66,1.11-.14.06-.39.09-.75.09-.68,0-1.49-.1-2.43-.31-.94-.21-1.51-.42-1.71-.62-.08-.1-.12-.22-.12-.36,0-.16.09-.46.27-.9.12-.16.25-.33.39-.52.14-.19.21-.44.21-.74.04-7.88-.02-11.85-.18-11.91-.3-.1-.99.63-2.07,2.19-1.16,1.66-1.74,2.99-1.74,3.99v6.66c.32.32.43.74.33,1.26-.12.62-.44,1.04-.96,1.26-.08.04-.2.06-.36.06-.54,0-1.33-.12-2.37-.38-1.04-.25-1.61-.44-1.71-.56-.22-.32-.24-.69-.06-1.11.02-.06.11-.17.29-.31.17-.15.25-.29.25-.44v-21.21c0-.16-.08-.37-.24-.63s-.21-.48-.15-.66c.12-.42.43-.69.93-.81.32-.08,1.07.03,2.25.33,1.28.32,1.98.65,2.1.99.08.22.05.55-.09.99-.14.44-.21.98-.21,1.62v5.61c1.12-1.42,2.2-2.13,3.24-2.13.68,0,1.56.24,2.64.71s1.7.9,1.86,1.27c.56,1.28.84,6.01.84,14.19.2.48.27.9.21,1.26Z"/><path d="M1097.11,345.89c.16.38.24.76.24,1.14,0,.6-.23,1.01-.69,1.23-.14.06-.39.09-.75.09-.68,0-1.49-.1-2.43-.31-.94-.21-1.51-.42-1.71-.62-.1-.12-.15-.25-.15-.39,0-.22.15-.57.45-1.06s.45-.84.45-1.07c.04-7.88-.02-11.85-.18-11.91-.28-.1-.97.8-2.07,2.7-1.16,2-1.74,3.51-1.74,4.53v5.61c.26.26.39.58.39.96,0,.76-.34,1.28-1.02,1.56-.08.04-.2.06-.36.06-.54,0-1.33-.12-2.37-.38-1.04-.25-1.62-.45-1.74-.62-.12-.16-.18-.34-.18-.54s.12-.44.34-.72c.23-.28.35-.46.35-.54v-13.95c0-.16-.08-.37-.24-.63-.16-.26-.21-.48-.15-.66.12-.42.43-.69.93-.81.32-.08,1.07.03,2.25.33,1.28.32,1.98.65,2.1.99.08.22.05.55-.09.99-.22.7-.33,1.1-.33,1.2,0,.22.04.46.12.72.3-1,.72-1.89,1.26-2.67.66-.94,1.32-1.41,1.98-1.41s1.56.24,2.64.71,1.7.9,1.86,1.27c.56,1.28.84,6.01.84,14.19Z"/><path d="M1111.99,342.56c.18.3-.21,1.19-1.17,2.67-1.04,1.58-2.06,2.65-3.06,3.21-.12.06-.3.09-.54.09-.78,0-1.8-.24-3.06-.72-1.34-.48-2.22-1-2.64-1.56-1.16-1.5-1.74-3.58-1.74-6.24,0-2.52.51-4.74,1.53-6.66,1.1-2.1,2.5-3.17,4.2-3.21.62-.02,1.37.14,2.25.48,1.08.42,1.97.99,2.67,1.71.18.18.35.72.51,1.62.2.96.3,1.9.3,2.82,0,1.36-.22,2.3-.66,2.82-2.06.66-4.16,1.03-6.3,1.11-.04.98.08,2.01.36,3.09s.57,1.63.87,1.65c.4.02.88-.31,1.44-.99.5-.58.81-1.07.93-1.47.14-.6.33-1.22.57-1.86.32-.04.95.12,1.89.48s1.49.68,1.65.96ZM1106.65,333.38c-.34-.04-.82.5-1.42,1.62-.61,1.12-.97,2.19-1.07,3.21.9-.04,1.62-.26,2.16-.66.32-.24.48-1.24.48-3,0-.74-.05-1.13-.15-1.17Z"/><path d="M1119.7,331.55c.06.08.09.18.09.3,0,.16-.12.46-.34.9-.23.44-.34.77-.34.99v14.67s0,.15.03.39v.66c0,1.88-.52,3.14-1.56,3.78-.28.18-.77.27-1.47.27-1.46,0-2.81-.2-4.05-.6-.58-.18-1.32-.6-2.22-1.26-1.04-.76-1.56-1.37-1.56-1.83,0-.28.19-.54.57-.78.06-.04.2-.06.42-.06,1.2,0,2.2.2,3,.6.2.24.38.48.54.72.32.38.75.57,1.29.57.28,0,.42-1.23.42-3.69v-15.24c-.24-.76-.36-1.27-.36-1.53s.37-.39,1.11-.39c.62,0,1.46.19,2.52.56,1.06.37,1.7.69,1.92.98ZM1119.91,326.48c.06.14.09.35.09.63,0,.5-.08,1.01-.24,1.53-.18.58-.4.93-.66,1.05-.2.08-1.06-.13-2.57-.65-1.51-.51-2.33-.87-2.45-1.09-.06-.1-.09-.25-.09-.45,0-.54.14-1.11.42-1.71.32-.68.68-1.06,1.08-1.14.46-.08,1.26.1,2.42.53s1.82.87,2,1.3Z"/><path d="M1127.62,338.96c-.04.74-.23,1.15-.57,1.23-.1.02-.2.03-.3.03-.58,0-1.31-.23-2.19-.69s-1.6-1.01-2.16-1.65c-.24-.26-.24-.74,0-1.44.24-.7.36-1.06.36-1.08v-11.34c0-.52.3-.88.9-1.08.12-.04.29-.06.51-.06.56,0,1.2.12,1.92.36.72.24,1.17.5,1.35.78.04.06.06.6.06,1.62v12.24c0,.12.02.3.06.53s.06.42.06.55ZM1127.62,343.31c.06.18.06.67,0,1.47-.08,1.04-.12,1.68-.12,1.92,0,.8-.04,1.42-.12,1.86-.08.44-.33.7-.75.78-.24.06-.93-.14-2.07-.6-1.2-.5-1.92-.93-2.16-1.29-.14-.22-.09-.58.15-1.08.12-.22.19-.59.21-1.11-.04-.44-.04-1.28,0-2.52.08-.72.38-1.07.9-1.05.56.04,1.34.27,2.34.68,1,.41,1.54.73,1.62.94Z"/><path d="M1135.69,338.96c-.04.74-.23,1.15-.57,1.23-.1.02-.2.03-.3.03-.58,0-1.31-.23-2.19-.69s-1.6-1.01-2.16-1.65c-.24-.26-.24-.74,0-1.44.24-.7.36-1.06.36-1.08v-11.34c0-.52.3-.88.9-1.08.12-.04.29-.06.51-.06.56,0,1.2.12,1.92.36.72.24,1.17.5,1.35.78.04.06.06.6.06,1.62v12.24c0,.12.02.3.06.53s.06.42.06.55ZM1135.69,343.31c.06.18.06.67,0,1.47-.08,1.04-.12,1.68-.12,1.92,0,.8-.04,1.42-.12,1.86-.08.44-.33.7-.75.78-.24.06-.93-.14-2.07-.6-1.2-.5-1.92-.93-2.16-1.29-.14-.22-.09-.58.15-1.08.12-.22.19-.59.21-1.11-.04-.44-.04-1.28,0-2.52.08-.72.38-1.07.9-1.05.56.04,1.34.27,2.34.68,1,.41,1.54.73,1.62.94Z"/><path d="M1143.76,338.96c-.04.74-.23,1.15-.57,1.23-.1.02-.2.03-.3.03-.58,0-1.31-.23-2.19-.69s-1.6-1.01-2.16-1.65c-.24-.26-.24-.74,0-1.44.24-.7.36-1.06.36-1.08v-11.34c0-.52.3-.88.9-1.08.12-.04.29-.06.51-.06.56,0,1.2.12,1.92.36.72.24,1.17.5,1.35.78.04.06.06.6.06,1.62v12.24c0,.12.02.3.06.53s.06.42.06.55ZM1143.76,343.31c.06.18.06.67,0,1.47-.08,1.04-.12,1.68-.12,1.92,0,.8-.04,1.42-.12,1.86-.08.44-.33.7-.75.78-.24.06-.93-.14-2.07-.6-1.2-.5-1.92-.93-2.16-1.29-.14-.22-.09-.58.15-1.08.12-.22.19-.59.21-1.11-.04-.44-.04-1.28,0-2.52.08-.72.38-1.07.9-1.05.56.04,1.34.27,2.34.68,1,.41,1.54.73,1.62.94Z"/><path d="M1030.81,360.47c0,.22-.04.43-.12.63-.14.34-.23.61-.27.81v19.8c0-.06.05.31.15,1.11.12.92,0,1.52-.36,1.8-.36.28-1.17.36-2.43.24-.72-.06-1.55-.25-2.49-.57-1.22-.38-1.89-.78-2.01-1.2.02-.28-.01-.71-.09-1.29-1.12-2.96-2.42-6.21-3.9-9.75v8.88c0,.16.07.37.21.63.18.34.27.52.27.54.1.3.15.6.15.9,0,.8-.36,1.2-1.08,1.2s-1.69-.2-2.97-.6c-1.2-.4-1.88-.71-2.04-.93-.24-.32-.24-.73,0-1.23.24-.5.36-.81.36-.93v-18.81c0-.12-.03-.3-.09-.54-.06-.24-.07-.43-.03-.57.2-.68.59-1.14,1.17-1.38.1-.04.32-.06.66-.06.78,0,1.58.1,2.4.3,1.06.24,1.8.58,2.22,1.02.56.6,1.29,2.43,2.19,5.49,1.1,3.76,1.96,6.3,2.58,7.62v-11.79c0-.16-.04-.38-.12-.67s-.12-.51-.12-.68c0-.12.02-.23.06-.33.1-.34.48-.59,1.14-.75.52-.14,1.02-.19,1.5-.15.46.04,1.01.15,1.65.33.92.28,1.39.59,1.41.93Z"/><path d="M1047.13,366.68c.14.2.21.4.21.6s-.12.44-.34.72c-.23.28-.35.46-.35.54v13.95c0,.12.07.33.2.63s.2.52.2.66c0,.36-.31.62-.93.78-.32.08-1.07-.03-2.25-.33-1.28-.32-1.98-.64-2.1-.96-.1-.26-.07-.61.09-1.05.2-.52.3-.88.3-1.08s-.03-.46-.09-.78c-.3,1-.72,1.89-1.26,2.67-.66.92-1.32,1.38-1.98,1.38s-1.56-.23-2.64-.69-1.7-.88-1.86-1.26c-.56-1.28-.84-6.01-.84-14.19-.16-.38-.24-.76-.24-1.14,0-.62.23-1.04.69-1.26.14-.06.39-.09.75-.09.68,0,1.49.1,2.43.31.94.21,1.51.42,1.71.65.1.12.15.25.15.39,0,.22-.15.58-.45,1.07s-.45.84-.45,1.06c-.04,7.88.02,11.85.18,11.91.28.1.98-.82,2.12-2.77,1.13-1.95,1.69-3.44,1.69-4.46v-5.61c-.26-.26-.39-.58-.39-.96,0-.78.34-1.31,1.02-1.59.08-.04.2-.06.36-.06.54,0,1.33.12,2.37.38,1.04.25,1.61.45,1.71.58Z"/><path d="M1066.93,380.84c0,1.1-.37,1.98-1.09,2.64-.73.66-1.75,1-3.08,1.02-.32,0-.67-.05-1.05-.15-.68-.18-1.04-.28-1.08-.3-.36-.08-.73-.17-1.09-.26-.37-.09-.69-.24-.95-.46-.44-.4-.87-.95-1.29-1.65-.34-.56-.67-1.13-.99-1.71s-.48-.93-.48-1.05c0-.28.2-.49.6-.63.1-.04.28-.06.54-.06.6,0,1.35.07,2.26.2s1.41.24,1.49.33c.08.09.19.67.33,1.73.12.92.33,1.38.63,1.38.46,0,.69-.62.69-1.86,0-1.58-.42-2.57-1.26-2.97-1.92-.9-3.18-1.7-3.78-2.4-.74-.86-1.11-2.16-1.11-3.9,0-1.14.3-2.21.9-3.23.6-1.01,1.31-1.61,2.13-1.81.36-.08,1.52.3,3.48,1.14.18.06.71.17,1.59.33.62.12,1.06.33,1.32.63.38.46.6,1.19.66,2.19.02.74.03,1.48.03,2.22.14.68.21,1.08.21,1.2,0,.56-.27.88-.81.96-.28.04-.83-.07-1.65-.33-.9-.3-1.47-.61-1.71-.93-.06-.08-.12-.83-.18-2.25-.06-1.34-.2-2.01-.42-2.01-.3,0-.58.39-.84,1.17-.26.78-.39,1.59-.39,2.43,0,1.06.23,1.73.69,2.01.98.54,1.96,1.08,2.92,1.63.97.55,1.65,1.12,2.03,1.7.5.76.75,1.78.75,3.06Z"/><path d="M1083.73,380.87c.04.38-.34,1.07-1.14,2.07-.8,1-1.42,1.47-1.86,1.41-.86-.12-2.68-2.44-5.46-6.96-.2.22-.54.57-1.02,1.05v3.54c0,.1.02.28.07.54.05.26.08.45.11.57.06.68-.08,1.12-.42,1.32-.18.1-.47.15-.87.15-.76,0-1.5-.14-2.22-.42-.84-.32-1.26-.7-1.26-1.14v-22.26c0-.32.1-.67.3-1.05.2-.38.43-.62.69-.72.06-.02.14-.03.24-.03.52,0,1.25.18,2.17.53.93.35,1.45.66,1.54.91.06.14.09.26.09.36,0,.16-.08.37-.24.61-.16.25-.24.49-.24.71v10.41l4.44-6.09c.26-.36.59-.55.99-.57.38-.02.91.22,1.59.72.76.56,1.15,1.11,1.17,1.65.02.22-.45,1-1.41,2.34-1.48,2.12-2.35,3.38-2.61,3.78l3.9,5.37c.14.2.43.41.87.63.36.18.55.37.57.57Z"/><path d="M1099.84,383.15c-.02.28-.14.52-.36.72-.22.2-.47.28-.75.24-2.48-.34-3.86-.81-4.14-1.41-.04-.08-.06-.16-.06-.24,0-.1.05-.21.14-.33.09-.12.14-.22.17-.31.02-.09.06-.17.12-.25.04-.16.05-.51.03-1.05-.24.18-.6.66-1.08,1.44-.5.86-.94,1.46-1.32,1.8-.64.6-1.37.9-2.19.9-.48,0-.95-.19-1.41-.57-.22-.18-.61-.57-1.17-1.17-.96-1.08-1.48-1.67-1.56-1.77-.42-.56-.63-1.09-.63-1.59,0-.16.02-.32.06-.48.38-1.76,1.56-3.43,3.54-5.01,1.44-1.14,3.48-2.35,6.12-3.63,0-.64-.16-1.05-.48-1.23-.2-.12-.9.1-2.1.67-1.2.57-2.04,1.06-2.52,1.46-.16.16-.42.38-.78.66-.34.2-.65.26-.93.18-.22-.06-.69-.42-1.41-1.08-.72-.66-1.11-1.1-1.17-1.32-.16-.54,0-.96.51-1.26.02-.02.42-.14,1.2-.36.74-.4,1.48-.8,2.22-1.2,1.56-.74,2.88-1.14,3.96-1.2.46-.02.98.22,1.56.72.52.46,1.04.92,1.58,1.36.53.45,1.08.89,1.63,1.31.64.56.96,1.1.96,1.62v11.34c.2.52.29.87.27,1.05ZM1095.04,374.39c-.98.38-1.82.96-2.52,1.74-.52.64-1.04,1.27-1.56,1.89-.42.42-.82.97-1.19,1.64s-.55,1.17-.55,1.48c0,.16.06.24.18.24.42,0,1.36-.9,2.82-2.71,1.46-1.81,2.4-3.23,2.82-4.27Z"/><path d="M1108.12,360.47c0,.14-.04.33-.13.57-.09.24-.15.39-.17.45-.12.4-.24,1.02-.36,1.86v18.42c0,.24.06.46.18.65.12.19.18.35.18.46,0,1.28-.24,1.97-.72,2.07-.18.04-.82-.1-1.91-.41s-1.75-.55-1.96-.73c-.44-.38-.66-.73-.66-1.05,0-.08.04-.17.12-.27.08-.1.12-.27.12-.51v-21.15c0-.12-.04-.24-.11-.38-.07-.13-.1-.25-.1-.38.04-.48.41-.8,1.11-.96.2-.04.62-.04,1.26,0,.74.06,1.38.17,1.92.33.82.24,1.23.58,1.23,1.02Z"/><path d="M1123.3,367.55c.06.08.09.18.09.3,0,.16-.12.46-.34.9-.23.44-.34.77-.34.99v14.67s0,.15.03.39v.66c0,1.88-.52,3.14-1.56,3.78-.28.18-.77.27-1.47.27-1.46,0-2.81-.2-4.05-.6-.58-.18-1.32-.6-2.22-1.26-1.04-.76-1.56-1.37-1.56-1.83,0-.28.19-.54.57-.78.06-.04.2-.06.42-.06,1.2,0,2.2.2,3,.6.2.24.38.48.54.72.32.38.75.57,1.29.57.28,0,.42-1.23.42-3.69v-15.24c-.24-.76-.36-1.27-.36-1.53s.37-.39,1.11-.39c.62,0,1.46.19,2.52.56,1.06.37,1.7.69,1.92.98ZM1123.51,362.48c.06.14.09.35.09.63,0,.5-.08,1.01-.24,1.53-.18.58-.4.93-.66,1.05-.2.08-1.06-.13-2.57-.65-1.51-.51-2.33-.87-2.45-1.09-.06-.1-.09-.25-.09-.45,0-.54.14-1.11.42-1.71.32-.68.68-1.06,1.08-1.14.46-.08,1.26.1,2.42.53s1.82.87,2,1.3Z"/><path d="M1137.61,378.56c.18.3-.21,1.19-1.17,2.67-1.04,1.58-2.06,2.65-3.06,3.21-.12.06-.3.09-.54.09-.78,0-1.8-.24-3.06-.72-1.34-.48-2.22-1-2.64-1.56-1.16-1.5-1.74-3.58-1.74-6.24,0-2.52.51-4.74,1.53-6.66,1.1-2.1,2.5-3.17,4.2-3.21.62-.02,1.37.14,2.25.48,1.08.42,1.97.99,2.67,1.71.18.18.35.72.51,1.62.2.96.3,1.9.3,2.82,0,1.36-.22,2.3-.66,2.82-2.06.66-4.16,1.03-6.3,1.11-.04.98.08,2.01.36,3.09s.57,1.63.87,1.65c.4.02.88-.31,1.44-.99.5-.58.81-1.07.93-1.47.14-.6.33-1.22.57-1.86.32-.04.95.12,1.89.48s1.49.68,1.65.96ZM1132.27,369.38c-.34-.04-.82.5-1.42,1.62-.61,1.12-.97,2.19-1.07,3.21.9-.04,1.62-.26,2.16-.66.32-.24.48-1.24.48-3,0-.74-.05-1.13-.15-1.17Z"/><path d="M1152.67,367.94s-.11.22-.33.6c-.14.28-.21.5-.21.66v13.14c0,3.32-1.23,5.45-3.69,6.39-1.14.44-2.18.66-3.12.66-1.36,0-2.54-.46-3.54-1.38-.28-.24-.76-.76-1.44-1.56-.04-.04-.23-.23-.57-.57-.2-.22-.31-.45-.33-.69-.02-.3.28-.54.9-.72.08-.02.2-.03.36-.03.44,0,.96.09,1.58.27.61.18,1.04.4,1.3.66.32.4.65.81.99,1.23s.74.65,1.2.69c.82.08,1.35-.48,1.59-1.68.12-.58.18-1.61.18-3.09-.06.08-.25.34-.57.78-.24.32-.45.55-.63.69-.22.2-.45.3-.69.3-1.06,0-1.95-.29-2.67-.87-2.14-1.8-3.21-4.45-3.21-7.95,0-2.22.47-4.21,1.41-5.97.98-1.88,2.26-3.06,3.84-3.54.12-.04.23-.06.33-.06.32,0,.68.15,1.08.45.34.26.68.53,1.02.81.12-.34.25-.68.38-1,.13-.33.33-.51.62-.56.42-.06,1.17.08,2.24.4,1.07.33,1.67.62,1.81.85.24.4.3.76.18,1.08ZM1147.36,375.32c.16-1.38.24-2.51.24-3.39,0-1.62-.26-2.53-.78-2.73-.42-.16-.93.55-1.53,2.13-.6,1.58-.9,3.02-.9,4.32,0,2.36.27,4.23.81,5.61,1.2-1.86,1.92-3.84,2.16-5.94Z"/><path d="M1173.97,367.94s-.11.22-.33.6c-.14.28-.21.5-.21.66v13.14c0,3.32-1.23,5.45-3.69,6.39-1.14.44-2.18.66-3.12.66-1.36,0-2.54-.46-3.54-1.38-.28-.24-.76-.76-1.44-1.56-.04-.04-.23-.23-.57-.57-.2-.22-.31-.45-.33-.69-.02-.3.28-.54.9-.72.08-.02.2-.03.36-.03.44,0,.96.09,1.58.27.61.18,1.04.4,1.3.66.32.4.65.81.99,1.23s.74.65,1.2.69c.82.08,1.35-.48,1.59-1.68.12-.58.18-1.61.18-3.09-.06.08-.25.34-.57.78-.24.32-.45.55-.63.69-.22.2-.45.3-.69.3-1.06,0-1.95-.29-2.67-.87-2.14-1.8-3.21-4.45-3.21-7.95,0-2.22.47-4.21,1.41-5.97.98-1.88,2.26-3.06,3.84-3.54.12-.04.23-.06.33-.06.32,0,.68.15,1.08.45.34.26.68.53,1.02.81.12-.34.25-.68.38-1,.13-.33.33-.51.62-.56.42-.06,1.17.08,2.24.4,1.07.33,1.67.62,1.81.85.24.4.3.76.18,1.08ZM1168.66,375.32c.16-1.38.24-2.51.24-3.39,0-1.62-.26-2.53-.78-2.73-.42-.16-.93.55-1.53,2.13-.6,1.58-.9,3.02-.9,4.32,0,2.36.27,4.23.81,5.61,1.2-1.86,1.92-3.84,2.16-5.94Z"/><path d="M1189.24,383.15c-.02.28-.14.52-.36.72-.22.2-.47.28-.75.24-2.48-.34-3.86-.81-4.14-1.41-.04-.08-.06-.16-.06-.24,0-.1.04-.21.13-.33.09-.12.15-.22.17-.31.02-.09.06-.17.12-.25.04-.16.05-.51.03-1.05-.24.18-.6.66-1.08,1.44-.5.86-.94,1.46-1.32,1.8-.64.6-1.37.9-2.19.9-.48,0-.95-.19-1.41-.57-.22-.18-.61-.57-1.17-1.17-.96-1.08-1.48-1.67-1.56-1.77-.42-.56-.63-1.09-.63-1.59,0-.16.02-.32.06-.48.38-1.76,1.56-3.43,3.54-5.01,1.44-1.14,3.48-2.35,6.12-3.63,0-.64-.16-1.05-.48-1.23-.2-.12-.9.1-2.1.67-1.2.57-2.04,1.06-2.52,1.46-.16.16-.42.38-.78.66-.34.2-.65.26-.93.18-.22-.06-.69-.42-1.41-1.08-.72-.66-1.11-1.1-1.17-1.32-.16-.54,0-.96.51-1.26.02-.02.42-.14,1.2-.36.74-.4,1.48-.8,2.22-1.2,1.56-.74,2.88-1.14,3.96-1.2.46-.02.98.22,1.56.72.52.46,1.04.92,1.58,1.36.53.45,1.08.89,1.63,1.31.64.56.96,1.1.96,1.62v11.34c.2.52.29.87.27,1.05ZM1184.44,374.39c-.98.38-1.82.96-2.52,1.74-.52.64-1.04,1.27-1.56,1.89-.42.42-.82.97-1.19,1.64s-.55,1.17-.55,1.48c0,.16.06.24.18.24.42,0,1.36-.9,2.82-2.71,1.46-1.81,2.4-3.23,2.82-4.27ZM1185.64,363.44c-.76,1.08-1.8,1.62-3.12,1.62-.82,0-1.51-.25-2.07-.75-.72-.64-1.08-1.45-1.08-2.43,0-.84.27-1.62.81-2.34.8-1.06,1.84-1.59,3.12-1.59.78,0,1.45.24,2.01.72.74.64,1.11,1.45,1.11,2.43,0,.84-.26,1.62-.78,2.34ZM1183.33,360.23c-.44,0-.84.18-1.2.54s-.54.76-.54,1.2c0,.66.33.99.99.99.42,0,.81-.19,1.18-.57s.56-.78.56-1.2c0-.64-.33-.96-.99-.96Z"/><path d="M1024.87,416.84c0,1.1-.37,1.98-1.09,2.64-.73.66-1.75,1-3.08,1.02-.32,0-.67-.05-1.05-.15-.68-.18-1.04-.28-1.08-.3-.36-.08-.73-.17-1.09-.26-.37-.09-.69-.24-.95-.46-.44-.4-.87-.95-1.29-1.65-.34-.56-.67-1.13-.99-1.71s-.48-.93-.48-1.05c0-.28.2-.49.6-.63.1-.04.28-.06.54-.06.6,0,1.35.07,2.26.2s1.41.24,1.49.33c.08.09.19.67.33,1.73.12.92.33,1.38.63,1.38.46,0,.69-.62.69-1.86,0-1.58-.42-2.57-1.26-2.97-1.92-.9-3.18-1.7-3.78-2.4-.74-.86-1.11-2.16-1.11-3.9,0-1.14.3-2.21.9-3.23.6-1.01,1.31-1.61,2.13-1.81.36-.08,1.52.3,3.48,1.14.18.06.71.17,1.59.33.62.12,1.06.33,1.32.63.38.46.6,1.19.66,2.19.02.74.03,1.48.03,2.22.14.68.21,1.08.21,1.2,0,.56-.27.88-.81.96-.28.04-.83-.07-1.65-.33-.9-.3-1.47-.61-1.71-.93-.06-.08-.12-.83-.18-2.25-.06-1.34-.2-2.01-.42-2.01-.3,0-.58.39-.84,1.17-.26.78-.39,1.59-.39,2.43,0,1.06.23,1.73.69,2.01.98.54,1.96,1.08,2.92,1.63.97.55,1.65,1.12,2.03,1.7.5.76.75,1.78.75,3.06Z"/><path d="M1040.95,402.68c.14.2.21.4.21.6s-.12.44-.34.72c-.23.28-.35.46-.35.54v13.95c0,.12.07.33.2.63s.2.52.2.66c0,.36-.31.62-.93.78-.32.08-1.07-.03-2.25-.33-1.28-.32-1.98-.64-2.1-.96-.1-.26-.07-.61.09-1.05.2-.52.3-.88.3-1.08s-.03-.46-.09-.78c-.3,1-.72,1.89-1.26,2.67-.66.92-1.32,1.38-1.98,1.38s-1.56-.23-2.64-.69-1.7-.88-1.86-1.26c-.56-1.28-.84-6.01-.84-14.19-.16-.38-.24-.76-.24-1.14,0-.62.23-1.04.69-1.26.14-.06.39-.09.75-.09.68,0,1.49.1,2.43.31.94.21,1.51.42,1.71.65.1.12.15.25.15.39,0,.22-.15.58-.45,1.07s-.45.84-.45,1.06c-.04,7.88.02,11.85.18,11.91.28.1.98-.82,2.12-2.77,1.13-1.95,1.69-3.44,1.69-4.46v-5.61c-.26-.26-.39-.58-.39-.96,0-.78.34-1.31,1.02-1.59.08-.04.2-.06.36-.06.54,0,1.33.12,2.37.38,1.04.25,1.61.45,1.71.58Z"/><path d="M1049.32,396.47c0,.14-.04.33-.13.57-.09.24-.15.39-.17.45-.12.4-.24,1.02-.36,1.86v18.42c0,.24.06.46.18.65.12.19.18.35.18.46,0,1.28-.24,1.97-.72,2.07-.18.04-.82-.1-1.91-.41s-1.75-.55-1.96-.73c-.44-.38-.66-.73-.66-1.05,0-.08.04-.17.12-.27.08-.1.12-.27.12-.51v-21.15c0-.12-.04-.24-.11-.38-.07-.13-.1-.25-.1-.38.04-.48.41-.8,1.11-.96.2-.04.62-.04,1.26,0,.74.06,1.38.17,1.92.33.82.24,1.23.58,1.23,1.02Z"/><path d="M1062.16,405.11c-.02.36-.14.68-.36.96-.22.28-.46.42-.72.42-.08,0-.15,0-.21-.03-.28-.1-.91-.15-1.89-.15v11.85s.06.14.2.48c.13.34.2.64.2.9,0,.58-.4.89-1.2.93-.42.02-1.19-.16-2.31-.54-1.22-.4-1.87-.77-1.95-1.11-.04-.14.03-.44.21-.89.18-.45.27-.79.27-1.04v-10.62h-1.02c-.38,0-.85-.33-1.41-1.01-.56-.67-.84-1.2-.84-1.6,0-.3.11-.57.34-.81.23-.24.48-.36.76-.36h2.16v-2.7c-.3-.4-.45-.83-.45-1.29,0-.42.18-.68.54-.78.18-.04.43-.06.75-.06.74,0,1.61.12,2.59.35.99.23,1.64.46,1.94.71.14.12.21.26.21.42,0,.2-.16.5-.48.9-.32.4-.49.68-.51.84v1.62h.96c.2,0,.62.36,1.26,1.08.64.72.96,1.23.96,1.53Z"/><path d="M1075.51,414.56c.18.3-.21,1.19-1.17,2.67-1.04,1.58-2.06,2.65-3.06,3.21-.12.06-.3.09-.54.09-.78,0-1.8-.24-3.06-.72-1.34-.48-2.22-1-2.64-1.56-1.16-1.5-1.74-3.58-1.74-6.24,0-2.52.51-4.74,1.53-6.66,1.1-2.1,2.5-3.17,4.2-3.21.62-.02,1.37.14,2.25.48,1.08.42,1.97.99,2.67,1.71.18.18.35.72.51,1.62.2.96.3,1.9.3,2.82,0,1.36-.22,2.3-.66,2.82-2.06.66-4.16,1.03-6.3,1.11-.04.98.08,2.01.36,3.09s.57,1.63.87,1.65c.4.02.88-.31,1.44-.99.5-.58.81-1.07.93-1.47.14-.6.33-1.22.57-1.86.32-.04.95.12,1.89.48s1.49.68,1.65.96ZM1070.17,405.38c-.34-.04-.82.5-1.42,1.62-.61,1.12-.97,2.19-1.07,3.21.9-.04,1.62-.26,2.16-.66.32-.24.48-1.24.48-3,0-.74-.05-1.13-.15-1.17Z"/><path d="M1091.38,417.89c.16.38.24.76.24,1.14,0,.6-.23,1.01-.69,1.23-.14.06-.39.09-.75.09-.68,0-1.49-.1-2.43-.31-.94-.21-1.51-.42-1.71-.62-.1-.12-.15-.25-.15-.39,0-.22.15-.57.45-1.06s.45-.84.45-1.07c.04-7.88-.02-11.85-.18-11.91-.28-.1-.97.8-2.07,2.7-1.16,2-1.74,3.51-1.74,4.53v5.61c.26.26.39.58.39.96,0,.76-.34,1.28-1.02,1.56-.08.04-.2.06-.36.06-.54,0-1.33-.12-2.37-.38-1.04-.25-1.62-.45-1.74-.62-.12-.16-.18-.34-.18-.54s.12-.44.34-.72c.23-.28.35-.46.35-.54v-13.95c0-.16-.08-.37-.24-.63-.16-.26-.21-.48-.15-.66.12-.42.43-.69.93-.81.32-.08,1.07.03,2.25.33,1.28.32,1.98.65,2.1.99.08.22.05.55-.09.99-.22.7-.33,1.1-.33,1.2,0,.22.04.46.12.72.3-1,.72-1.89,1.26-2.67.66-.94,1.32-1.41,1.98-1.41s1.56.24,2.64.71,1.7.9,1.86,1.27c.56,1.28.84,6.01.84,14.19Z"/><path d="M1106.17,419.21c.08.72-.17,1.17-.75,1.35-.1.02-.24.03-.42.03-.72,0-1.61-.15-2.67-.45-1.14-.32-1.81-.66-2.01-1.02-.1-.16,0-.47.27-.93.18-.3.27-.85.27-1.65v-12.6c-.24-.76-.36-1.27-.36-1.53s.37-.39,1.11-.39c.6,0,1.44.19,2.5.56,1.07.37,1.71.69,1.94.98.06.08.09.18.09.3,0,.16-.12.46-.34.9-.23.44-.34.77-.34.99v12.06c0,.2.11.45.34.75.23.3.35.52.38.66ZM1106.26,398.48s.03.12.03.24c0,.44-.09,1.01-.27,1.71-.2.76-.39,1.18-.57,1.26-.2.08-1.06-.13-2.58-.65-1.52-.51-2.33-.87-2.43-1.09-.06-.1-.09-.25-.09-.45,0-.54.14-1.11.42-1.71.32-.68.68-1.06,1.08-1.14.46-.08,1.26.1,2.4.53,1.14.43,1.81.87,2.01,1.3Z"/><path d="M1126.09,416.84c0,1.1-.37,1.98-1.09,2.64-.73.66-1.75,1-3.08,1.02-.32,0-.67-.05-1.05-.15-.68-.18-1.04-.28-1.08-.3-.36-.08-.73-.17-1.09-.26-.37-.09-.69-.24-.95-.46-.44-.4-.87-.95-1.29-1.65-.34-.56-.67-1.13-.99-1.71s-.48-.93-.48-1.05c0-.28.2-.49.6-.63.1-.04.28-.06.54-.06.6,0,1.35.07,2.26.2s1.41.24,1.49.33c.08.09.19.67.33,1.73.12.92.33,1.38.63,1.38.46,0,.69-.62.69-1.86,0-1.58-.42-2.57-1.26-2.97-1.92-.9-3.18-1.7-3.78-2.4-.74-.86-1.11-2.16-1.11-3.9,0-1.14.3-2.21.9-3.23.6-1.01,1.31-1.61,2.13-1.81.36-.08,1.52.3,3.48,1.14.18.06.71.17,1.59.33.62.12,1.06.33,1.32.63.38.46.6,1.19.66,2.19.02.74.03,1.48.03,2.22.14.68.21,1.08.21,1.2,0,.56-.27.88-.81.96-.28.04-.83-.07-1.65-.33-.9-.3-1.47-.61-1.71-.93-.06-.08-.12-.83-.18-2.25-.06-1.34-.2-2.01-.42-2.01-.3,0-.58.39-.84,1.17-.26.78-.39,1.59-.39,2.43,0,1.06.23,1.73.69,2.01.98.54,1.96,1.08,2.92,1.63.97.55,1.65,1.12,2.03,1.7.5.76.75,1.78.75,3.06Z"/><path d="M1142.89,416.87c.04.38-.34,1.07-1.14,2.07-.8,1-1.42,1.47-1.86,1.41-.86-.12-2.68-2.44-5.46-6.96-.2.22-.54.57-1.02,1.05v3.54c0,.1.02.28.07.54.05.26.08.45.11.57.06.68-.08,1.12-.42,1.32-.18.1-.47.15-.87.15-.76,0-1.5-.14-2.22-.42-.84-.32-1.26-.7-1.26-1.14v-22.26c0-.32.1-.67.3-1.05.2-.38.43-.62.69-.72.06-.02.14-.03.24-.03.52,0,1.25.18,2.17.53.93.35,1.45.66,1.54.91.06.14.09.26.09.36,0,.16-.08.37-.24.61-.16.25-.24.49-.24.71v10.41l4.44-6.09c.26-.36.59-.55.99-.57.38-.02.91.22,1.59.72.76.56,1.15,1.11,1.17,1.65.02.22-.45,1-1.41,2.34-1.48,2.12-2.35,3.38-2.61,3.78l3.9,5.37c.14.2.43.41.87.63.36.18.55.37.57.57Z"/><path d="M1154.74,402.62c1.1.52,1.95,1.57,2.55,3.15.54,1.44.81,3.14.81,5.1,0,2.7-.46,5.04-1.38,7.02-1.02,2.12-2.29,3.08-3.81,2.88-.56-.14-1.4-.31-2.52-.51-.82-.1-1.56-.25-2.22-.45-1.14-.3-2.05-1.27-2.73-2.91-.62-1.52-.93-3.3-.93-5.34s.32-3.93.96-5.61c.72-1.84,1.73-3.13,3.03-3.87.22-.12.52-.18.9-.18s1.19.13,2.37.39c.76,0,1.75.11,2.97.33ZM1151.38,405.32c-.54,0-1.04.66-1.5,1.96-.46,1.31-.69,2.56-.69,3.77,0,1.44.17,2.86.51,4.26.38,1.52.82,2.34,1.32,2.46.64.14,1.21-.58,1.71-2.16.48-1.52.72-3.2.72-5.04,0-1.02-.13-2.03-.39-3.03-.36-1.48-.92-2.22-1.68-2.22Z"/><path d="M1166.17,396.47c0,.14-.04.33-.13.57-.09.24-.15.39-.17.45-.12.4-.24,1.02-.36,1.86v18.42c0,.24.06.46.18.65.12.19.18.35.18.46,0,1.28-.24,1.97-.72,2.07-.18.04-.82-.1-1.91-.41s-1.75-.55-1.96-.73c-.44-.38-.66-.73-.66-1.05,0-.08.04-.17.12-.27.08-.1.12-.27.12-.51v-21.15c0-.12-.04-.24-.11-.38-.07-.13-.1-.25-.1-.38.04-.48.41-.8,1.11-.96.2-.04.62-.04,1.26,0,.74.06,1.38.17,1.92.33.82.24,1.23.58,1.23,1.02Z"/><path d="M1180.42,414.56c.18.3-.21,1.19-1.17,2.67-1.04,1.58-2.06,2.65-3.06,3.21-.12.06-.3.09-.54.09-.78,0-1.8-.24-3.06-.72-1.34-.48-2.22-1-2.64-1.56-1.16-1.5-1.74-3.58-1.74-6.24,0-2.52.51-4.74,1.53-6.66,1.1-2.1,2.5-3.17,4.2-3.21.62-.02,1.37.14,2.25.48,1.08.42,1.97.99,2.67,1.71.18.18.35.72.51,1.62.2.96.3,1.9.3,2.82,0,1.36-.22,2.3-.66,2.82-2.06.66-4.16,1.03-6.3,1.11-.04.98.08,2.01.36,3.09s.57,1.63.87,1.65c.4.02.88-.31,1.44-.99.5-.58.81-1.07.93-1.47.14-.6.33-1.22.57-1.86.32-.04.95.12,1.89.48s1.49.68,1.65.96ZM1175.08,405.38c-.34-.04-.82.5-1.42,1.62-.61,1.12-.97,2.19-1.07,3.21.9-.04,1.62-.26,2.16-.66.32-.24.48-1.24.48-3,0-.74-.05-1.13-.15-1.17Z"/><path d="M1186.33,416.48c.04.22-.08.6-.36,1.14-.32.6-.48,1.08-.48,1.44.02.16.02.39,0,.69-.08.58-.24.92-.48,1.02-.28.12-.94-.06-1.98-.54-1.04-.48-1.62-.85-1.74-1.11-.1-.18.04-.74.42-1.68.32-.8.6-1.4.84-1.8.12-.2.34-.3.66-.3-.12,0,.48.12,1.8.36.8.14,1.24.4,1.32.78Z"/><path d="M1193.68,416.48c.04.22-.08.6-.36,1.14-.32.6-.48,1.08-.48,1.44.02.16.02.39,0,.69-.08.58-.24.92-.48,1.02-.28.12-.94-.06-1.98-.54-1.04-.48-1.62-.85-1.74-1.11-.1-.18.04-.74.42-1.68.32-.8.6-1.4.84-1.8.12-.2.34-.3.66-.3-.12,0,.48.12,1.8.36.8.14,1.24.4,1.32.78Z"/><path d="M1197.79,417.41c.03.15-.06.42-.25.8-.22.42-.34.76-.34,1.01.01.11.01.27,0,.48-.06.41-.17.64-.34.71-.2.08-.66-.04-1.39-.38-.73-.34-1.13-.59-1.22-.78-.07-.13.03-.52.29-1.18.22-.56.42-.98.59-1.26.08-.14.24-.21.46-.21-.08,0,.34.08,1.26.25.56.1.87.28.92.55Z"/></svg>