<?xml version="1.0" encoding="UTF-8"?><svg id="Layer_1" xmlns="http://www.w3.org/2000/svg" width="1920" height="1080" xmlns:xlink="http://www.w3.org/1999/xlink" viewBox="0 0 1920 1080"><defs><style>.cls-1{fill:none;}.cls-2{fill:#ffdde7;}.cls-3{fill:#563300;}.cls-4{fill:#231f20;}.cls-5{fill:#e2d9dc;}.cls-6{fill:#e8cc7c;}.cls-7{fill:#8ca63f;}.cls-8{fill:#efdfc7;}.cls-9{fill:#fff;}.cls-10{fill:#cc001c;}.cls-11{fill:#443200;}.cls-12{fill:#e6e7e8;}.cls-13{clip-path:url(#clippath);}</style><clipPath id="clippath"><rect class="cls-1" x="13.28" y="564.02" width="1901.89" height="528.98"/></clipPath></defs><rect class="cls-9" width="1920" height="1080"/><rect class="cls-6" x="0" y="3" width="1929" height="561.09"/><g class="cls-13"><g id="_Grid_Repeat_"><rect class="cls-5" x="13.28" y="564.02" width="50.68" height="50.9"/><rect class="cls-5" x="63.96" y="614.92" width="50.68" height="50.9"/></g><g id="_Grid_Repeat_-2"><rect class="cls-5" x="119.7" y="564.02" width="50.68" height="50.9"/><rect class="cls-5" x="170.38" y="614.92" width="50.68" height="50.9"/></g><g id="_Grid_Repeat_-3"><rect class="cls-5" x="226.12" y="564.02" width="50.68" height="50.9"/><rect class="cls-5" x="276.8" y="614.92" width="50.68" height="50.9"/></g><g id="_Grid_Repeat_-4"><rect class="cls-5" x="332.54" y="564.02" width="50.68" height="50.9"/><rect class="cls-5" x="383.22" y="614.92" width="50.68" height="50.9"/></g><g id="_Grid_Repeat_-5"><rect class="cls-5" x="438.96" y="564.02" width="50.68" height="50.9"/><rect class="cls-5" x="489.63" y="614.92" width="50.68" height="50.9"/></g><g id="_Grid_Repeat_-6"><rect class="cls-5" x="545.38" y="564.02" width="50.68" height="50.9"/><rect class="cls-5" x="596.05" y="614.92" width="50.68" height="50.9"/></g><g id="_Grid_Repeat_-7"><rect class="cls-5" x="651.8" y="564.02" width="50.68" height="50.9"/><rect class="cls-5" x="702.47" y="614.92" width="50.68" height="50.9"/></g><g id="_Grid_Repeat_-8"><rect class="cls-5" x="758.22" y="564.02" width="50.68" height="50.9"/><rect class="cls-5" x="808.89" y="614.92" width="50.68" height="50.9"/></g><g id="_Grid_Repeat_-9"><rect class="cls-5" x="864.64" y="564.02" width="50.68" height="50.9"/><rect class="cls-5" x="915.31" y="614.92" width="50.68" height="50.9"/></g><g id="_Grid_Repeat_-10"><rect class="cls-5" x="971.06" y="564.02" width="50.68" height="50.9"/><rect class="cls-5" x="1021.73" y="614.92" width="50.68" height="50.9"/></g><g id="_Grid_Repeat_-11"><rect class="cls-5" x="1077.47" y="564.02" width="50.68" height="50.9"/><rect class="cls-5" x="1128.15" y="614.92" width="50.68" height="50.9"/></g><g id="_Grid_Repeat_-12"><rect class="cls-5" x="1183.89" y="564.02" width="50.68" height="50.9"/><rect class="cls-5" x="1234.57" y="614.92" width="50.68" height="50.9"/></g><g id="_Grid_Repeat_-13"><rect class="cls-5" x="1290.31" y="564.02" width="50.68" height="50.9"/><rect class="cls-5" x="1340.99" y="614.92" width="50.68" height="50.9"/></g><g id="_Grid_Repeat_-14"><rect class="cls-5" x="1396.73" y="564.02" width="50.68" height="50.9"/><rect class="cls-5" x="1447.41" y="614.92" width="50.68" height="50.9"/></g><g id="_Grid_Repeat_-15"><rect class="cls-5" x="1503.15" y="564.02" width="50.68" height="50.9"/><rect class="cls-5" x="1553.83" y="614.92" width="50.68" height="50.9"/></g><g id="_Grid_Repeat_-16"><rect class="cls-5" x="1609.57" y="564.02" width="50.68" height="50.9"/><rect class="cls-5" x="1660.25" y="614.92" width="50.68" height="50.9"/></g><g id="_Grid_Repeat_-17"><rect class="cls-5" x="1715.99" y="564.02" width="50.68" height="50.9"/><rect class="cls-5" x="1766.67" y="614.92" width="50.68" height="50.9"/></g><g id="_Grid_Repeat_-18"><rect class="cls-5" x="1822.41" y="564.02" width="50.68" height="50.9"/><rect class="cls-5" x="1873.09" y="614.92" width="50.68" height="50.9"/></g><g id="_Grid_Repeat_-19"><rect class="cls-5" x="13.28" y="670.91" width="50.68" height="50.9"/><rect class="cls-5" x="63.96" y="721.81" width="50.68" height="50.9"/></g><g id="_Grid_Repeat_-20"><rect class="cls-5" x="119.7" y="670.91" width="50.68" height="50.9"/><rect class="cls-5" x="170.38" y="721.81" width="50.68" height="50.9"/></g><g id="_Grid_Repeat_-21"><rect class="cls-5" x="226.12" y="670.91" width="50.68" height="50.9"/><rect class="cls-5" x="276.8" y="721.81" width="50.68" height="50.9"/></g><g id="_Grid_Repeat_-22"><rect class="cls-5" x="332.54" y="670.91" width="50.68" height="50.9"/><rect class="cls-5" x="383.22" y="721.81" width="50.68" height="50.9"/></g><g id="_Grid_Repeat_-23"><rect class="cls-5" x="438.96" y="670.91" width="50.68" height="50.9"/><rect class="cls-5" x="489.63" y="721.81" width="50.68" height="50.9"/></g><g id="_Grid_Repeat_-24"><rect class="cls-5" x="545.38" y="670.91" width="50.68" height="50.9"/><rect class="cls-5" x="596.05" y="721.81" width="50.68" height="50.9"/></g><g id="_Grid_Repeat_-25"><rect class="cls-5" x="651.8" y="670.91" width="50.68" height="50.9"/><rect class="cls-5" x="702.47" y="721.81" width="50.68" height="50.9"/></g><g id="_Grid_Repeat_-26"><rect class="cls-5" x="758.22" y="670.91" width="50.68" height="50.9"/><rect class="cls-5" x="808.89" y="721.81" width="50.68" height="50.9"/></g><g id="_Grid_Repeat_-27"><rect class="cls-5" x="864.64" y="670.91" width="50.68" height="50.9"/><rect class="cls-5" x="915.31" y="721.81" width="50.68" height="50.9"/></g><g id="_Grid_Repeat_-28"><rect class="cls-5" x="971.06" y="670.91" width="50.68" height="50.9"/><rect class="cls-5" x="1021.73" y="721.81" width="50.68" height="50.9"/></g><g id="_Grid_Repeat_-29"><rect class="cls-5" x="1077.47" y="670.91" width="50.68" height="50.9"/><rect class="cls-5" x="1128.15" y="721.81" width="50.68" height="50.9"/></g><g id="_Grid_Repeat_-30"><rect class="cls-5" x="1183.89" y="670.91" width="50.68" height="50.9"/><rect class="cls-5" x="1234.57" y="721.81" width="50.68" height="50.9"/></g><g id="_Grid_Repeat_-31"><rect class="cls-5" x="1290.31" y="670.91" width="50.68" height="50.9"/><rect class="cls-5" x="1340.99" y="721.81" width="50.68" height="50.9"/></g><g id="_Grid_Repeat_-32"><rect class="cls-5" x="1396.73" y="670.91" width="50.68" height="50.9"/><rect class="cls-5" x="1447.41" y="721.81" width="50.68" height="50.9"/></g><g id="_Grid_Repeat_-33"><rect class="cls-5" x="1503.15" y="670.91" width="50.68" height="50.9"/><rect class="cls-5" x="1553.83" y="721.81" width="50.68" height="50.9"/></g><g id="_Grid_Repeat_-34"><rect class="cls-5" x="1609.57" y="670.91" width="50.68" height="50.9"/><rect class="cls-5" x="1660.25" y="721.81" width="50.68" height="50.9"/></g><g id="_Grid_Repeat_-35"><rect class="cls-5" x="1715.99" y="670.91" width="50.68" height="50.9"/><rect class="cls-5" x="1766.67" y="721.81" width="50.68" height="50.9"/></g><g id="_Grid_Repeat_-36"><rect class="cls-5" x="1822.41" y="670.91" width="50.68" height="50.9"/><rect class="cls-5" x="1873.09" y="721.81" width="50.68" height="50.9"/></g><g id="_Grid_Repeat_-37"><rect class="cls-5" x="13.28" y="777.8" width="50.68" height="50.9"/><rect class="cls-5" x="63.96" y="828.7" width="50.68" height="50.9"/></g><g id="_Grid_Repeat_-38"><rect class="cls-5" x="119.7" y="777.8" width="50.68" height="50.9"/><rect class="cls-5" x="170.38" y="828.7" width="50.68" height="50.9"/></g><g id="_Grid_Repeat_-39"><rect class="cls-5" x="226.12" y="777.8" width="50.68" height="50.9"/><rect class="cls-5" x="276.8" y="828.7" width="50.68" height="50.9"/></g><g id="_Grid_Repeat_-40"><rect class="cls-5" x="332.54" y="777.8" width="50.68" height="50.9"/><rect class="cls-5" x="383.22" y="828.7" width="50.68" height="50.9"/></g><g id="_Grid_Repeat_-41"><rect class="cls-5" x="438.96" y="777.8" width="50.68" height="50.9"/><rect class="cls-5" x="489.63" y="828.7" width="50.68" height="50.9"/></g><g id="_Grid_Repeat_-42"><rect class="cls-5" x="545.38" y="777.8" width="50.68" height="50.9"/><rect class="cls-5" x="596.05" y="828.7" width="50.68" height="50.9"/></g><g id="_Grid_Repeat_-43"><rect class="cls-5" x="651.8" y="777.8" width="50.68" height="50.9"/><rect class="cls-5" x="702.47" y="828.7" width="50.68" height="50.9"/></g><g id="_Grid_Repeat_-44"><rect class="cls-5" x="758.22" y="777.8" width="50.68" height="50.9"/><rect class="cls-5" x="808.89" y="828.7" width="50.68" height="50.9"/></g><g id="_Grid_Repeat_-45"><rect class="cls-5" x="864.64" y="777.8" width="50.68" height="50.9"/><rect class="cls-5" x="915.31" y="828.7" width="50.68" height="50.9"/></g><g id="_Grid_Repeat_-46"><rect class="cls-5" x="971.06" y="777.8" width="50.68" height="50.9"/><rect class="cls-5" x="1021.73" y="828.7" width="50.68" height="50.9"/></g><g id="_Grid_Repeat_-47"><rect class="cls-5" x="1077.47" y="777.8" width="50.68" height="50.9"/><rect class="cls-5" x="1128.15" y="828.7" width="50.68" height="50.9"/></g><g id="_Grid_Repeat_-48"><rect class="cls-5" x="1183.89" y="777.8" width="50.68" height="50.9"/><rect class="cls-5" x="1234.57" y="828.7" width="50.68" height="50.9"/></g><g id="_Grid_Repeat_-49"><rect class="cls-5" x="1290.31" y="777.8" width="50.68" height="50.9"/><rect class="cls-5" x="1340.99" y="828.7" width="50.68" height="50.9"/></g><g id="_Grid_Repeat_-50"><rect class="cls-5" x="1396.73" y="777.8" width="50.68" height="50.9"/><rect class="cls-5" x="1447.41" y="828.7" width="50.68" height="50.9"/></g><g id="_Grid_Repeat_-51"><rect class="cls-5" x="1503.15" y="777.8" width="50.68" height="50.9"/><rect class="cls-5" x="1553.83" y="828.7" width="50.68" height="50.9"/></g><g id="_Grid_Repeat_-52"><rect class="cls-5" x="1609.57" y="777.8" width="50.68" height="50.9"/><rect class="cls-5" x="1660.25" y="828.7" width="50.68" height="50.9"/></g><g id="_Grid_Repeat_-53"><rect class="cls-5" x="1715.99" y="777.8" width="50.68" height="50.9"/><rect class="cls-5" x="1766.67" y="828.7" width="50.68" height="50.9"/></g><g id="_Grid_Repeat_-54"><rect class="cls-5" x="1822.41" y="777.8" width="50.68" height="50.9"/><rect class="cls-5" x="1873.09" y="828.7" width="50.68" height="50.9"/></g><g id="_Grid_Repeat_-55"><rect class="cls-5" x="13.28" y="884.69" width="50.68" height="50.9"/><rect class="cls-5" x="63.96" y="935.59" width="50.68" height="50.9"/></g><g id="_Grid_Repeat_-56"><rect class="cls-5" x="119.7" y="884.69" width="50.68" height="50.9"/><rect class="cls-5" x="170.38" y="935.59" width="50.68" height="50.9"/></g><g id="_Grid_Repeat_-57"><rect class="cls-5" x="226.12" y="884.69" width="50.68" height="50.9"/><rect class="cls-5" x="276.8" y="935.59" width="50.68" height="50.9"/></g><g id="_Grid_Repeat_-58"><rect class="cls-5" x="332.54" y="884.69" width="50.68" height="50.9"/><rect class="cls-5" x="383.22" y="935.59" width="50.68" height="50.9"/></g><g id="_Grid_Repeat_-59"><rect class="cls-5" x="438.96" y="884.69" width="50.68" height="50.9"/><rect class="cls-5" x="489.63" y="935.59" width="50.68" height="50.9"/></g><g id="_Grid_Repeat_-60"><rect class="cls-5" x="545.38" y="884.69" width="50.68" height="50.9"/><rect class="cls-5" x="596.05" y="935.59" width="50.68" height="50.9"/></g><g id="_Grid_Repeat_-61"><rect class="cls-5" x="651.8" y="884.69" width="50.68" height="50.9"/><rect class="cls-5" x="702.47" y="935.59" width="50.68" height="50.9"/></g><g id="_Grid_Repeat_-62"><rect class="cls-5" x="758.22" y="884.69" width="50.68" height="50.9"/><rect class="cls-5" x="808.89" y="935.59" width="50.68" height="50.9"/></g><g id="_Grid_Repeat_-63"><rect class="cls-5" x="864.64" y="884.69" width="50.68" height="50.9"/><rect class="cls-5" x="915.31" y="935.59" width="50.68" height="50.9"/></g><g id="_Grid_Repeat_-64"><rect class="cls-5" x="971.06" y="884.69" width="50.68" height="50.9"/><rect class="cls-5" x="1021.73" y="935.59" width="50.68" height="50.9"/></g><g id="_Grid_Repeat_-65"><rect class="cls-5" x="1077.47" y="884.69" width="50.68" height="50.9"/><rect class="cls-5" x="1128.15" y="935.59" width="50.68" height="50.9"/></g><g id="_Grid_Repeat_-66"><rect class="cls-5" x="1183.89" y="884.69" width="50.68" height="50.9"/><rect class="cls-5" x="1234.57" y="935.59" width="50.68" height="50.9"/></g><g id="_Grid_Repeat_-67"><rect class="cls-5" x="1290.31" y="884.69" width="50.68" height="50.9"/><rect class="cls-5" x="1340.99" y="935.59" width="50.68" height="50.9"/></g><g id="_Grid_Repeat_-68"><rect class="cls-5" x="1396.73" y="884.69" width="50.68" height="50.9"/><rect class="cls-5" x="1447.41" y="935.59" width="50.68" height="50.9"/></g><g id="_Grid_Repeat_-69"><rect class="cls-5" x="1503.15" y="884.69" width="50.68" height="50.9"/><rect class="cls-5" x="1553.83" y="935.59" width="50.68" height="50.9"/></g><g id="_Grid_Repeat_-70"><rect class="cls-5" x="1609.57" y="884.69" width="50.68" height="50.9"/><rect class="cls-5" x="1660.25" y="935.59" width="50.68" height="50.9"/></g><g id="_Grid_Repeat_-71"><rect class="cls-5" x="1715.99" y="884.69" width="50.68" height="50.9"/><rect class="cls-5" x="1766.67" y="935.59" width="50.68" height="50.9"/></g><g id="_Grid_Repeat_-72"><rect class="cls-5" x="1822.41" y="884.69" width="50.68" height="50.9"/><rect class="cls-5" x="1873.09" y="935.59" width="50.68" height="50.9"/></g><g id="_Grid_Repeat_-73"><rect class="cls-5" x="13.28" y="991.58" width="50.68" height="50.9"/><rect class="cls-5" x="63.96" y="1042.49" width="50.68" height="50.9"/></g><g id="_Grid_Repeat_-74"><rect class="cls-5" x="119.7" y="991.58" width="50.68" height="50.9"/><rect class="cls-5" x="170.38" y="1042.49" width="50.68" height="50.9"/></g><g id="_Grid_Repeat_-75"><rect class="cls-5" x="226.12" y="991.58" width="50.68" height="50.9"/><rect class="cls-5" x="276.8" y="1042.49" width="50.68" height="50.9"/></g><g id="_Grid_Repeat_-76"><rect class="cls-5" x="332.54" y="991.58" width="50.68" height="50.9"/><rect class="cls-5" x="383.22" y="1042.49" width="50.68" height="50.9"/></g><g id="_Grid_Repeat_-77"><rect class="cls-5" x="438.96" y="991.58" width="50.68" height="50.9"/><rect class="cls-5" x="489.63" y="1042.49" width="50.68" height="50.9"/></g><g id="_Grid_Repeat_-78"><rect class="cls-5" x="545.38" y="991.58" width="50.68" height="50.9"/><rect class="cls-5" x="596.05" y="1042.49" width="50.68" height="50.9"/></g><g id="_Grid_Repeat_-79"><rect class="cls-5" x="651.8" y="991.58" width="50.68" height="50.9"/><rect class="cls-5" x="702.47" y="1042.49" width="50.68" height="50.9"/></g><g id="_Grid_Repeat_-80"><rect class="cls-5" x="758.22" y="991.58" width="50.68" height="50.9"/><rect class="cls-5" x="808.89" y="1042.49" width="50.68" height="50.9"/></g><g id="_Grid_Repeat_-81"><rect class="cls-5" x="864.64" y="991.58" width="50.68" height="50.9"/><rect class="cls-5" x="915.31" y="1042.49" width="50.68" height="50.9"/></g><g id="_Grid_Repeat_-82"><rect class="cls-5" x="971.06" y="991.58" width="50.68" height="50.9"/><rect class="cls-5" x="1021.73" y="1042.49" width="50.68" height="50.9"/></g><g id="_Grid_Repeat_-83"><rect class="cls-5" x="1077.47" y="991.58" width="50.68" height="50.9"/><rect class="cls-5" x="1128.15" y="1042.49" width="50.68" height="50.9"/></g><g id="_Grid_Repeat_-84"><rect class="cls-5" x="1183.89" y="991.58" width="50.68" height="50.9"/><rect class="cls-5" x="1234.57" y="1042.49" width="50.68" height="50.9"/></g><g id="_Grid_Repeat_-85"><rect class="cls-5" x="1290.31" y="991.58" width="50.68" height="50.9"/><rect class="cls-5" x="1340.99" y="1042.49" width="50.68" height="50.9"/></g><g id="_Grid_Repeat_-86"><rect class="cls-5" x="1396.73" y="991.58" width="50.68" height="50.9"/><rect class="cls-5" x="1447.41" y="1042.49" width="50.68" height="50.9"/></g><g id="_Grid_Repeat_-87"><rect class="cls-5" x="1503.15" y="991.58" width="50.68" height="50.9"/><rect class="cls-5" x="1553.83" y="1042.49" width="50.68" height="50.9"/></g><g id="_Grid_Repeat_-88"><rect class="cls-5" x="1609.57" y="991.58" width="50.68" height="50.9"/><rect class="cls-5" x="1660.25" y="1042.49" width="50.68" height="50.9"/></g><g id="_Grid_Repeat_-89"><rect class="cls-5" x="1715.99" y="991.58" width="50.68" height="50.9"/><rect class="cls-5" x="1766.67" y="1042.49" width="50.68" height="50.9"/></g><g id="_Grid_Repeat_-90"><rect class="cls-5" x="1822.41" y="991.58" width="50.68" height="50.9"/><rect class="cls-5" x="1873.09" y="1042.49" width="50.68" height="50.9"/></g></g><path class="cls-7" d="M633.36,19.15c24.42-6.97,52.17-6.78,74.15,6.99,21.98,13.78,35.58,43.48,26.09,67.58-1.88,4.77-4.62,9.54-4.07,14.72.98,9.17,11.83,14.07,20.72,13.13,8.88-.94,16.94-5.6,25.73-7.15,17.37-3.06,36.41,7.87,43.2,24.82,3.28,8.17,3.97,17.41,8.56,24.9,12.6,20.57,42.66,14.67,64.06,5.41,21.4-9.26,49.94-17.77,65.24.8,10.23,12.42,8.92,32.05,20.07,43.59,20.18,20.9,56.87-3.84,81.93,10.31,19.35,10.93,18.44,45.39-1.45,54.31-33.71,15.13-74.74-39.07-105.28-18.14-16.97,11.63-15.22,37.43-22.3,57.16-7.58,21.15-27.8,36.64-49.8,38.16-37.23,2.57-75.25-31.01-109.28-15.88-29.4,13.08-34.2,52.53-45.67,83.3-5.56,14.91-13.96,29.28-26.94,37.99s-31.21,10.51-44.2,1.22c-19.95-14.27-18.52-44.56-13.21-68.55,5.31-23.99,11.41-52.04-4.06-71.32-19.77-24.66-59.96-14.3-80.75,8.5-20.8,22.8-30.99,54.08-51.04,77.58-20.68,24.23-53.01,38.93-84.37,33.44-31.36-5.49-59.44-33.61-61.18-66.19-1.73-32.38,20.34-60.09,43.01-82.07,22.66-21.98,48.34-43.54,57.52-74.32,8.62-28.9.62-61.32-15.09-87.47-7.29-12.13-16.62-25.74-12.51-39.11,2.6-8.46,10.06-14.18,17.5-18.62,16.97-10.13,37.09-16.6,56.58-12.45,17.1,3.64,26.75,18.17,40.15,26.1,23.22-31.45,48.17-57.75,86.68-68.74Z"/><path d="M674.41,470.04c-7.71,0-15.15-2.13-21.15-6.42-20.93-14.97-19.06-46.39-13.81-70.11,5.05-22.82,11.34-51.22-3.76-70.05-6.85-8.54-16.77-13.26-28.68-13.64-17.44-.57-36.97,8.16-49.79,22.21-10.68,11.71-18.71,26-26.48,39.82-7.27,12.94-14.79,26.32-24.53,37.73-22.43,26.28-55.29,39.29-85.77,33.95-33.29-5.83-60.71-35.52-62.43-67.6-1.87-35.02,23.91-64.28,43.47-83.24,2.64-2.56,5.32-5.12,8.01-7.68,20.21-19.26,41.11-39.17,49.11-65.98,7.78-26.07,2.33-57.51-14.93-86.25-.58-.96-1.17-1.93-1.76-2.91-6.97-11.47-14.88-24.47-10.89-37.43,2.88-9.37,11.22-15.33,18.17-19.47,14.03-8.37,35.43-17.36,57.66-12.63,11.27,2.4,19.37,9.33,27.19,16.04,4.09,3.51,7.98,6.84,12.26,9.53,21.37-28.78,46.74-56.79,86.66-68.19,16.4-4.68,48-9.98,75.36,7.17,11.06,6.93,20.33,18.09,25.44,30.63,5.42,13.29,5.87,27.07,1.25,38.8-.38.97-.8,1.93-1.21,2.9-1.62,3.78-3.16,7.35-2.76,11.1.86,8.04,10.73,12.66,19.06,11.78,4.66-.49,9.03-2.03,13.67-3.66,3.85-1.35,7.83-2.75,11.96-3.48,18.09-3.19,37.79,8.12,44.86,25.75,1.33,3.33,2.25,6.84,3.14,10.23,1.36,5.2,2.65,10.11,5.31,14.45,3.61,5.88,18.74,23.61,62.18,4.81,32.73-14.17,54.65-13.77,67,1.22,5.1,6.19,7.43,14.06,9.68,21.67,2.45,8.27,4.76,16.09,10.31,21.83,10.34,10.7,25.35,8.82,41.25,6.82,13.93-1.75,28.33-3.55,40.34,3.23,9.68,5.47,15.33,16.97,14.73,30.02-.57,12.4-6.81,22.74-16.3,27-16.98,7.62-35.49-1.55-53.39-10.42-18.84-9.33-36.63-18.14-51.65-7.85-11.07,7.58-13.81,21.49-16.71,36.21-1.34,6.8-2.73,13.84-5.02,20.22-7.84,21.85-28.38,37.59-51.12,39.16-16.35,1.13-32.85-4.59-48.81-10.12-21.16-7.33-41.15-14.26-59.96-5.89-22.24,9.89-30.17,35.85-37.84,60.95-2.2,7.19-4.47,14.62-7.03,21.5-6.69,17.93-15.94,30.95-27.52,38.71-7.56,5.07-16.32,7.62-24.76,7.62ZM605.43,306.77c.56,0,1.11,0,1.67.03,12.82.41,23.51,5.52,30.93,14.77,16.01,19.96,9.55,49.15,4.36,72.6-5.05,22.83-6.97,52.98,12.61,66.98,11.57,8.28,29.04,7.76,42.49-1.25,11.04-7.4,19.91-19.93,26.37-37.26,2.53-6.79,4.79-14.18,6.97-21.33,7.87-25.75,16-52.38,39.5-62.83,19.9-8.85,41.38-1.4,62.16,5.8,15.67,5.43,31.87,11.05,47.62,9.96,21.57-1.49,41.05-16.42,48.49-37.16,2.21-6.16,3.58-13.09,4.9-19.78,2.89-14.67,5.89-29.84,17.97-38.12,16.47-11.29,35.9-1.67,54.68,7.64,17.28,8.56,35.15,17.41,50.83,10.37,8.44-3.79,14.01-13.13,14.52-24.37.54-11.9-4.51-22.33-13.2-27.24-11.15-6.29-25.05-4.55-38.49-2.86-15.93,2-32.4,4.07-43.78-7.72-6.07-6.28-8.59-14.82-11.04-23.08-2.17-7.32-4.41-14.89-9.11-20.6-11.38-13.82-32.15-13.94-63.48-.37-11.54,5-50.41,19.33-65.94-6-2.89-4.71-4.29-10.08-5.65-15.26-.87-3.3-1.76-6.71-3.02-9.87-6.56-16.35-24.81-26.85-41.54-23.89-3.89.69-7.75,2.04-11.49,3.35-4.59,1.61-9.34,3.28-14.35,3.81-9.95,1.06-21.31-4.51-22.37-14.47-.48-4.54,1.28-8.65,2.99-12.62.4-.94.81-1.88,1.18-2.81,8.67-22.01-2.77-51.51-25.49-65.74-26.37-16.52-57.02-11.37-72.94-6.82l-.41-1.46.41,1.46c-39.56,11.3-64.66,39.45-85.89,68.19l-.81,1.09-1.17-.69c-4.97-2.94-9.48-6.81-13.84-10.54-7.54-6.46-15.33-13.14-25.86-15.38-21.28-4.53-41.93,4.18-55.5,12.27-6.48,3.87-14.25,9.38-16.83,17.76-3.59,11.66,3.94,24.04,10.58,34.96.6.98,1.19,1.96,1.77,2.93,17.71,29.48,23.26,61.8,15.24,88.69-8.23,27.58-29.42,47.78-49.92,67.31-2.68,2.56-5.36,5.11-7.99,7.66-39.95,38.74-43.41,64.72-42.55,80.9,1.64,30.73,27.97,59.18,59.94,64.78,28.99,5.07,61.56-7.85,82.97-32.94,9.55-11.19,16.99-24.43,24.19-37.24,7.85-13.97,15.97-28.41,26.88-40.37,12.98-14.23,32.6-23.22,50.44-23.22Z"/><path d="M542.66,180.88c.01,2.11-.75,3.52-2.29,4.21-.29.07-.65,0-1.06-.2-.42-.21-.75-.3-.99-.28-.3.02-.61.12-.95.31-1.33,7.97-2.44,13.33-3.32,16.09-1.6,5.14-3.92,8.59-6.97,10.35-.81.48-1.66.76-2.55.83-.89.07-3.15-.45-6.77-1.55-1.37-.27-3.53-.87-6.49-1.81-2.99-1.25-5.48-4.47-7.47-9.66-1.81-4.72-2.97-10.42-3.48-17.09-.67-8.66-.12-16.47,1.64-23.41,1.91-7.59,4.86-11.98,8.85-13.18.34-.08.74-.14,1.18-.17,2.48-.19,5.56.43,9.26,1.84,3.95,1.5,6.68,3.27,8.18,5.32,1.22,1.65,2.11,3.8,2.66,6.45.68,3.01,1.08,4.65,1.2,4.9.22.88.5,1.94.84,3.18.1.68-.08,1.5-.56,2.46-.47.96-.95,1.56-1.43,1.81-.62.31-2.59.08-5.88-.7-3.3-.78-5.29-1.44-5.98-1.97-.94-.56-1.41-1.77-1.4-3.62-.02-.26.08-.6.3-1.01.22-.41.31-.78.29-1.09-.29-3.73-.83-5.56-1.62-5.5-1.69.08-2.94,3.18-3.77,9.32-.75,5.76-.87,12-.35,18.72.77,9.98,2.52,15.6,5.26,16.87.82.36,1.79-1.16,2.9-4.58,1.11-3.41,1.67-6.57,1.7-9.48-.84-.57-2.41-1.27-4.72-2.1-1.84-.65-2.86-1.26-3.06-1.83-.26-.77-.1-1.91.49-3.4.58-1.5,1.24-2.48,1.98-2.96.74-.48,1.8-.8,3.18-.95,1.88-.14,3.02-.28,3.41-.41.83-.22,2.16-.77,3.98-1.65,1.49-.75,2.63-1.15,3.42-1.21.3-.02.57-.02.82.02,1.26.17,3.17,1.21,5.73,3.13,2.56,1.92,3.85,3.25,3.86,3.99Z"/><path d="M590.18,201.06c-.01.48-.03,1.61-.04,3.41.02.95-.12,1.67-.43,2.17-.24.18-.65.29-1.25.33-1.64.12-3.7-.17-6.2-.88-2.69-.64-4.55-1.51-5.58-2.59-.43-.44-.95-1.99-1.55-4.64-.82-3.48-1.66-6.34-2.53-8.6-1.86.41-4.56,1.33-8.08,2.79-3.53,1.46-5.8,2.62-6.83,3.49-.57,2.31-1.35,5.17-2.33,8.57-.09.75-.2,1.45-.32,2.12-.12.67-.51,1.24-1.18,1.71-.14.11-.36.18-.66.21-1.19.09-3.23-.42-6.13-1.52-2.9-1.1-4.42-1.86-4.55-2.27-.26-.72.07-2.57.99-5.54,1.26-4.32,1.98-6.96,2.15-7.93-1.13-1.02-1.73-2.09-1.82-3.19-.02-.26-.02-.55,0-.87.05-.64,1.47-1.88,4.27-3.73l6.91-35.46c.1-.64.04-1.8-.19-3.47-.21-1.41-.13-2.31.24-2.71.23-.28.81-.46,1.75-.53,2.33-.18,5.7.2,10.1,1.14,4.41.93,7.07,1.87,7.99,2.8.75,5.81,2.53,14.46,5.36,25.98,3.58,14.2,6.87,23.93,9.87,29.2ZM568.94,178.58c-.9-3.26-1.46-5.41-1.69-6.45-.82-3.48-1.47-7.1-1.96-10.86-.79,2.65-1.68,6.31-2.67,10.97-1.07,4.89-1.61,7.94-1.61,9.15.91-.49,3.55-1.43,7.93-2.82Z"/><path d="M662.2,197.93c-.17,2.28-.67,3.56-1.5,3.84-1.16.4-3.47.23-6.92-.51-3.65-.78-5.76-1.68-6.33-2.69-.18-.36-.28-.74-.31-1.16-.02-.32,0-.83.07-1.55.07-.72.09-1.31.05-1.79l-2.75-35.76c-1.96,5.01-4.17,16.11-6.63,33.3-.03.21-.04.45-.02.71.04.53.19,1.36.45,2.5.26,1.14.4,1.87.43,2.19.08,1.63.08,2.69.02,3.17-.17,1.07-.64,1.74-1.41,2.01-.48.2-1.35.34-2.58.43-6.44.49-10.96-.36-13.57-2.54-.43-.34-.62-.98-.6-1.94,0-1.16-.05-1.92-.18-2.28-2.29-5.85-4.33-10.97-6.12-15.38-4.31-10.66-7.06-16.92-8.25-18.79l2.41,31.35c.05.68.32,1.61.81,2.79.61,1.43.95,2.33,1.03,2.69.28,1.04.42,2.29.44,3.77.04,1.79-.22,2.92-.78,3.39-.28.23-.84.38-1.68.44-1.83.14-4.04-.04-6.62-.53-2.78-.48-4.44-1.06-4.99-1.76-.28-.35-.43-.78-.47-1.31-.02-.31.02-.85.14-1.59.12-.75.16-1.33.13-1.75l-4.3-55.84c-.05-.63.14-1.37.58-2.22.43-.85.96-1.43,1.58-1.74.81-.43,4.11-.04,9.88,1.16,6.02,1.18,9.25,2.37,9.69,3.55.19.46.26,1.09.22,1.88-.06,1.11-.09,1.78-.07,1.99.04.47.14.89.32,1.24l12.23,27.83c1.03-4.78,2.82-14.44,5.39-29,1.27-7.44,2.46-11.36,3.58-11.76.34-.13.73-.21,1.18-.25.84-.06,2.27.07,4.29.39,2.22.41,3.76.62,4.61.6,3.94.07,6.21.14,6.81.2,2.36.3,3.74,1.06,4.14,2.3.13.36.21.75.24,1.17.04.53-.03,1.28-.2,2.27-.17.99-.24,1.72-.21,2.19l3.71,48.2c.04.53.41,1.29,1.11,2.29.7,1.01,1.02,1.77.96,2.3Z"/><path d="M701.2,187.15c-.08.91-.44,1.89-1.08,2.97-.64,1.08-1.22,1.74-1.75,1.99-.14.06-.42,0-.84-.22-.42-.21-.75-.3-.99-.28-.1,0-.2.04-.29.1-1.5.59-2.99,1.33-4.46,2.24-3.53,2.06-6.72,4.6-9.58,7.61-5.12-1.78-7.91-2.76-8.37-2.93-3.18-1.19-4.8-2.12-4.85-2.8l-4.56-59.23c-.03-.37.51-.94,1.62-1.71,1.11-.77,1.94-1.15,2.49-1.14.6,0,1.82.33,3.66.95s3.33.9,4.47.81c1.49-.11,3.36-.97,5.63-2.56,2.07-1.53,3.39-2.21,3.95-2.04,1.22.33,3.1,1.58,5.63,3.73,2.53,2.16,3.94,3.73,4.21,4.71.13.47-.26,1.31-1.19,2.55-.93,1.23-1.71,1.87-2.36,1.92-.55.04-.95,0-1.21-.15-.26-.14-.44-.18-.53-.12-1.75.55-3.37,1.18-4.86,1.87-3.57,1.59-6.15,3.31-7.75,5.18l.99,12.84c1.66-1.08,3.84-2.22,6.54-3.42.78-.16,2.55.88,5.28,3.13,2.74,2.25,4.15,3.85,4.22,4.79.04.58-.25,1.29-.88,2.13-.63.84-1.26,1.39-1.89,1.65-.5.04-1.36.16-2.59.35-1.86.51-5.04,2.44-9.57,5.79l.64,8.27c1.41-1.06,3.35-2.32,5.8-3.8,2.45-1.48,3.98-2.24,4.57-2.29.69-.05,2.53.96,5.5,3.03,2.97,2.07,4.44,3.43,4.39,4.07Z"/><path d="M671.97,287.38c-1.03.18-2.21.13-3.53-.17-1.32-.3-2.61-.61-3.88-.94-1.52-.31-3.9-.89-7.16-1.76-4.11-1.54-7.38-4.94-9.83-10.19-2.15-4.64-3.49-10.35-4.01-17.13-.42-5.51-.03-12.01,1.19-19.5,1.67-10.05,4.43-15.23,8.3-15.52.35-.03.84.03,1.47.17.63.14,1.12.22,1.48.24,3.58-1.38,5.89-2.11,6.93-2.19.49-.04.99-.05,1.49-.03,6.01.34,10.99,3.93,14.95,10.76,3.56,6.18,5.69,13.7,6.37,22.57.65,8.4-.18,15.73-2.49,21.97-2.46,6.79-6.23,10.69-11.28,11.7ZM666.19,229.75c-1.12-.23-2.07,1.4-2.87,4.89-.8,3.49-1.75,5.28-2.84,5.36-.25.02-.62-.1-1.11-.35-.49-.25-.89-.39-1.19-.42-1.38,4.07-1.79,9.75-1.23,17.05.44,5.72,1.39,10.59,2.84,14.6,1.64,4.47,3.62,6.86,5.93,7.16,2.71.32,4.64-2.75,5.79-9.23,1.01-5.67,1.22-12.34.63-20.01-.4-5.2-1.11-9.53-2.12-12.99-1.08-3.72-2.36-5.74-3.83-6.05Z"/><path d="M729.87,221.14c-2.04,7.18-4.14,18-6.32,32.48-1.98,13.09-2.88,20.5-2.7,22.23-.04.16.11,1.37.43,3.61.19,1.2.1,2.32-.26,3.35-.4,1.3-1.01,2.06-1.84,2.28-1.41.42-4.34.06-8.79-1.08-4.45-1.14-7.04-2.24-7.76-3.3-.34-.5-.56-1.17-.68-2.01-.13-1.05-.26-1.75-.39-2.11-7.11-18.53-11.81-35.26-14.1-50.19-.02-.26-.19-.8-.5-1.63-.2-.62-.29-1.17-.27-1.64.1-1.86.74-3.04,1.89-3.55.58-.25,2.7.09,6.36,1.03,3.86.98,6.03,1.9,6.49,2.76.24.51.32,1.61.25,3.31-.03.32-.16.79-.41,1.42-.25.63-.33,1.15-.25,1.56,1.17,5.46,2.24,10.26,3.2,14.41,2.36,9.96,4.06,15.85,5.1,17.68.47-4.95,1.47-11.31,3.01-19.08,1.54-7.77,2.54-14.24,2.99-19.4-.03-1,.09-2.36.36-4.07.45-1.3,1.2-2.18,2.26-2.63.77-.32,2.66-.01,5.68.92,3.27,1.07,5.36,2.29,6.26,3.65Z"/><path d="M772.24,268.65c-.08.9-.44,1.89-1.08,2.97-.64,1.08-1.22,1.74-1.75,1.99-.14.06-.42,0-.84-.22-.42-.21-.75-.3-.99-.28-.1,0-.2.04-.29.1-1.5.59-2.99,1.33-4.46,2.24-3.53,2.06-6.72,4.6-9.58,7.61-5.12-1.78-7.91-2.76-8.37-2.93-3.18-1.19-4.8-2.12-4.85-2.8l-4.56-59.23c-.03-.37.51-.94,1.63-1.71,1.11-.77,1.94-1.15,2.49-1.14.6,0,1.82.33,3.66.95,1.84.63,3.33.9,4.47.81,1.49-.11,3.36-.97,5.63-2.56,2.07-1.53,3.39-2.21,3.95-2.04,1.22.33,3.1,1.58,5.63,3.73,2.53,2.16,3.94,3.73,4.21,4.71.13.47-.26,1.31-1.19,2.55-.93,1.23-1.71,1.87-2.36,1.92-.55.04-.95,0-1.21-.15-.26-.14-.44-.18-.53-.12-1.75.55-3.37,1.18-4.86,1.87-3.57,1.59-6.15,3.32-7.75,5.18l.99,12.84c1.66-1.08,3.84-2.22,6.54-3.42.78-.16,2.55.88,5.28,3.13,2.74,2.25,4.15,3.85,4.22,4.79.04.58-.25,1.29-.88,2.13-.63.84-1.26,1.39-1.89,1.65-.5.04-1.36.16-2.59.35-1.86.51-5.04,2.44-9.57,5.79l.64,8.27c1.41-1.06,3.35-2.33,5.8-3.8,2.45-1.48,3.98-2.24,4.57-2.29.69-.05,2.53.96,5.5,3.03,2.97,2.07,4.44,3.43,4.39,4.07Z"/><path d="M818.92,264.49c.52.86-.2,3.12-2.13,6.77-1.94,3.66-3.65,5.52-5.14,5.58-1.59.07-2.92-.73-4-2.39-.19-.51-.62-1.25-1.29-2.2l-16.87-14.33,1.12,14.57c.04.58.31,1.3.8,2.16.49.86.75,1.5.78,1.92.12,1.57-.78,2.51-2.7,2.82-1.47.27-3.7.15-6.68-.37-3.23-.5-4.87-1.16-4.94-2-.02-.26.01-.62.1-1.08.09-.46.11-1.02.05-1.71l-4.23-54.97c-.03-.37-.13-.69-.3-.97-.17-.28-.26-.49-.27-.65-.06-1.42.87-2.34,2.78-2.75.59-.15,1.95,0,4.11.44,2.15.45,3.67.61,4.56.49.84-.11,2.5-.97,5-2.55,2.49-1.59,4.71-2.45,6.64-2.6.74-.06,1.52-.03,2.32.06,1.41.21,2.73.8,3.95,1.76,1.22.97,2.39,1.93,3.51,2.91,2.93,2.53,4.46,3.86,4.57,4.01,1.41,1.48,2.24,3.19,2.49,5.12.77,6.07-3.54,14.26-12.9,24.58,2.23,1.84,7.19,6.35,14.87,13.54.46.12,1.13.39,2,.8.51.23,1.11.58,1.8,1.05ZM799.12,221.7c-2.33.18-6.24,3.06-11.74,8.65l.93,12.05c2.06-1.05,4.65-3.97,7.77-8.75,3.12-4.78,4.59-8.27,4.42-10.47-.08-1.05-.54-1.54-1.38-1.48Z"/><path d="M835.88,249.83c.05,1.95-.34,3.06-1.16,3.33-.25.07-.49.12-.74.14-1.44.11-3.29-.36-5.56-1.4-2.27-1.04-4.17-2.35-5.68-3.93-.65-.64-.74-1.9-.29-3.78.45-1.88.68-2.85.67-2.9l-2.29-29.77c-.1-1.36.57-2.37,2.01-3,.29-.13.71-.21,1.25-.25,1.39-.1,3,.09,4.83.59,1.83.5,3,1.09,3.5,1.8.11.15.27,1.56.48,4.24l2.47,32.14c.02.32.11.77.26,1.37.15.6.23,1.08.26,1.45ZM836.76,261.25c.18.46.28,1.75.3,3.86.01,2.75.04,4.43.09,5.06.16,2.1.19,3.73.08,4.91-.11,1.17-.68,1.9-1.7,2.19-.58.2-2.33-.19-5.25-1.19-3.07-1.09-4.94-2.08-5.61-2.98-.39-.55-.34-1.51.15-2.86.25-.6.35-1.58.3-2.95-.19-1.15-.36-3.35-.51-6.62.05-1.9.72-2.88,2.02-2.93,1.4,0,3.37.45,5.93,1.34,2.56.89,3.96,1.62,4.2,2.18Z"/><rect class="cls-8" x="860.18" y="948.3" width="21.81" height="84.27" rx="3.29" ry="3.29"/><path d="M878.69,1032.82h-15.19c-1.96,0-3.56-1.6-3.56-3.58v-77.62c0-1.97,1.6-3.58,3.56-3.58h15.19c1.96,0,3.56,1.6,3.56,3.58v77.62c0,1.97-1.6,3.58-3.56,3.58ZM863.49,948.55c-1.69,0-3.06,1.38-3.06,3.07v77.62c0,1.69,1.37,3.07,3.06,3.07h15.19c1.69,0,3.06-1.38,3.06-3.07v-77.62c0-1.69-1.37-3.07-3.06-3.07h-15.19Z"/><rect class="cls-8" x="801.06" y="947.74" width="20.66" height="84.27" rx="3.29" ry="3.29"/><path d="M818.41,1032.27h-14.04c-1.96,0-3.56-1.6-3.56-3.58v-77.62c0-1.97,1.6-3.58,3.56-3.58h14.04c1.96,0,3.56,1.6,3.56,3.58v77.62c0,1.97-1.6,3.58-3.56,3.58ZM804.37,947.99c-1.69,0-3.06,1.38-3.06,3.07v77.62c0,1.69,1.37,3.07,3.06,3.07h14.04c1.69,0,3.06-1.38,3.06-3.07v-77.62c0-1.69-1.37-3.07-3.06-3.07h-14.04Z"/><rect class="cls-4" x="1003.96" y="522.3" width="2.25" height="1.01"/><rect class="cls-2" x="922.75" y="520.83" width="0" height="48.79"/><path class="cls-8" d="M838.37,643.91c-49.77,0-90.12-32.91-90.12-73.51v-12.13c0-40.6-.53-122.02,49.24-122.02l72.47-3.03c49.77,0,58.53,84.45,58.53,125.05v12.13c0,40.6-40.35,73.51-90.12,73.51Z"/><path class="cls-9" d="M814.12,601.65c2.18-4.8,2.24-4.45,5.84-8.5,3.6-4.06,8.83-7.26,14.64-7.51,5.08-.22,10.07,1.85,13.8,4.96,4.29,3.57,6.76,8.77,7.41,13.95-10.28-10.22-27.96-13.89-41.69-2.89Z"/><path d="M856.5,605.92l-1.04-1.03c-9.89-9.83-27.16-13.96-41.03-2.85l-1.64,1.32.87-1.92c1.89-4.15,2.24-4.54,4.53-7.08.4-.44.86-.95,1.39-1.55,4.13-4.65,9.59-7.45,15-7.68,4.85-.21,10.01,1.64,14.14,5.07,4.11,3.42,6.87,8.62,7.59,14.27l.18,1.45ZM832.88,594.39c8.35,0,16.35,3.45,22.2,8.76-.94-4.83-3.44-9.21-7-12.17-3.94-3.28-8.84-5.05-13.45-4.84-5.13.22-10.34,2.9-14.29,7.34-.54.61-1,1.12-1.4,1.56-1.85,2.04-2.37,2.63-3.51,5,5.57-3.95,11.6-5.64,17.45-5.64Z"/><path d="M850.91,532.56c5.89-10.01,22.24-11.55,28.97-3.54,5.79,6.89,3.43,19.63-4.39,25.7-4.95,3.83-12.96,5.69-19.31,1.77-7.9-4.87-9.66-16.46-5.27-23.92Z"/><path class="cls-9" d="M850.71,538.46c5.93-9.02,22.37-10.41,29.14-3.19,5.82,6.21,3.45,17.69-4.42,23.16-4.97,3.46-13.04,5.13-19.43,1.6-7.95-4.39-9.72-14.83-5.3-21.56Z"/><path class="cls-3" d="M857.32,542.84c4.45-7.34,16.77-8.47,21.85-2.6,4.37,5.05,2.59,14.4-3.31,18.85-3.73,2.81-9.77,4.17-14.56,1.3-5.96-3.57-7.29-12.08-3.97-17.55Z"/><path d="M862.22,545.06c2.35-6.07,8.87-7,11.55-2.15,2.31,4.18,1.37,11.9-1.75,15.58-1.97,2.32-5.17,3.45-7.7,1.07-3.15-2.95-3.85-9.98-2.1-14.5Z"/><path d="M881.42,532.08l-.41-.92s.06-.03.09-.04c1.38-.7,5.81-5.21,6.14-6.48,0-.01,0-.03,0-.04l.98.22s0,.03,0,.04c-.7,2.92-3.08,5.46-6.72,7.19-.03.01-.05.03-.08.04Z"/><path d="M876.91,531.82l-.41-.92.09-.04c1.38-.71,5.8-5.21,6.14-6.48,0-.01,0-.03,0-.04l.98.22s0,.03,0,.04c-.7,2.91-3.08,5.46-6.72,7.19-.03.01-.05.03-.08.04Z"/><path d="M784.95,532.43c5.89-10.01,22.24-11.55,28.97-3.54,5.79,6.89,3.43,19.63-4.39,25.7-4.95,3.83-12.96,5.69-19.31,1.77-7.9-4.87-9.66-16.46-5.27-23.92Z"/><path class="cls-9" d="M784.76,538.33c5.93-9.02,22.37-10.41,29.14-3.19,5.82,6.21,3.45,17.69-4.42,23.16-4.97,3.46-13.04,5.13-19.43,1.6-7.95-4.39-9.72-14.83-5.3-21.56Z"/><path class="cls-3" d="M791.36,542.7c4.45-7.34,16.77-8.47,21.85-2.6,4.37,5.05,2.59,14.4-3.31,18.85-3.73,2.81-9.77,4.17-14.56,1.3-5.96-3.57-7.29-12.08-3.97-17.55Z"/><path d="M796.26,544.93c2.35-6.07,8.87-7,11.55-2.15,2.31,4.18,1.37,11.9-1.75,15.58-1.97,2.32-5.17,3.45-7.7,1.07-3.15-2.95-3.85-9.98-2.1-14.5Z"/><path d="M793.02,529.77s-.06-.04-.1-.06c-3.04-1.74-6.73-4.66-7.28-8.79,0-.01,0-.03,0-.04l1-.12s0,.03,0,.05c.23,1.43,5.12,7.03,6.76,8.02.03.02.07.04.1.06l-.48.88Z"/><path d="M789.02,533.11s-.05-.03-.08-.05c-2.64-1.59-5.84-4.28-6.28-8.12,0-.01,0-.03,0-.04l1-.1s0,.03,0,.04c.19,1.32,4.37,6.44,5.77,7.34.03.02.06.04.09.05l-.5.87Z"/><path d="M836.02,574.95c-3.34-.06-5.64-1.29-6.29-3.39-.75-2.41.91-5.44,4.33-7.89l.58.82c-3.06,2.2-4.57,4.79-3.96,6.77.51,1.66,2.46,2.64,5.34,2.69l-.02,1.01Z"/><path d="M886.21,518.05c-2.3-4.77-7.2-6.79-11.03-7.1-4.53-.36-9,1.08-13.31,2.47l-.61-1.92c4.29-1.38,9.15-2.95,14.09-2.56,5.59.44,10.45,3.6,12.68,8.23l-1.81.88Z"/><path d="M817.75,519.33c-.84-4.11-3.21-7.23-6.68-8.78-4.14-1.85-9.29-1.27-14.13,1.6l-1.02-1.74c5.41-3.2,11.24-3.81,15.97-1.7,4.08,1.82,6.86,5.45,7.83,10.22l-1.97.41Z"/><polygon class="cls-10" points="817.58 660.54 669.61 951.07 1007.7 951.07 859.13 660.54 817.58 660.54"/><path d="M1008.52,951.57h-339.73l148.48-291.53h42.16l.14.27,148.95,291.26ZM670.44,950.56h336.44l-148.06-289.52h-40.93l-147.46,289.52Z"/><polygon class="cls-8" points="816.08 638.37 859.46 638.37 876.71 691.59 799.86 691.59 816.08 638.37"/><path class="cls-10" d="M892.03,1030.17l-10.9-.28-.4-12.84h.13c-.07,2.72-8.14,5.39-11.76,5.39s-9.98-2.67-10.05-5.39h0v26.33c0,2.3,1.93,4.16,4.31,4.16h32.92c1.93,0,3.47-1.54,3.41-3.4l-.23-6.84c-.13-3.9-3.38-7.02-7.42-7.13Z"/><path d="M896.27,1048.05h-32.92c-2.65,0-4.81-2.09-4.81-4.67v-26.33h1c.05,2.21,5.91,4.88,9.55,4.88,3.43,0,10.19-2.34,11.15-4.44l-.03-.95h1.16v.52c-.02.2-.05.39-.12.58l.37,11.75,10.43.27c4.3.11,7.77,3.46,7.91,7.61l.23,6.84c.03,1.01-.34,1.98-1.05,2.72-.74.77-1.78,1.21-2.86,1.21ZM859.54,1019.15v24.23c0,2.02,1.71,3.66,3.81,3.66h32.92c.82,0,1.58-.32,2.14-.9.52-.54.8-1.25.77-1.98l-.23-6.84c-.12-3.62-3.16-6.54-6.93-6.64l-11.38-.29-.36-11.36c-2.46,2.3-8.5,3.93-11.19,3.93s-7.48-1.59-9.55-3.79Z"/><path class="cls-10" d="M787.52,1033.32l11.79-.28.43-12.84h-.14c.08,2.72,8.8,5.39,12.72,5.39s10.8-2.67,10.87-5.39h0v26.33c0,2.3-2.09,4.16-4.66,4.16h-35.61c-2.09,0-3.76-1.54-3.69-3.4l.25-6.84c.14-3.9,3.66-7.02,8.02-7.13Z"/><path d="M818.55,1051.19h-35.61c-1.21,0-2.37-.48-3.16-1.31-.7-.73-1.06-1.66-1.03-2.62l.25-6.85c.15-4.16,3.89-7.5,8.51-7.61l11.32-.27.4-11.75c-.07-.19-.11-.39-.11-.58v-.52s1.16,0,1.16,0l-.03.95c1.03,2.1,8.38,4.44,12.1,4.44,3.95,0,10.31-2.67,10.37-4.9h1v26.35c0,2.57-2.32,4.67-5.16,4.67ZM787.53,1033.82h0c-4.09.1-7.4,3.01-7.53,6.64l-.25,6.85c-.02.69.24,1.36.75,1.88.61.63,1.5,1,2.44,1h35.61c2.29,0,4.16-1.64,4.16-3.66v-24.31c-2.18,2.24-7.41,3.87-10.37,3.87s-9.55-1.66-12.15-3.99l-.39,11.43-12.27.29Z"/><path class="cls-11" d="M874.06,503.12c13.74,17.73,26.5,36.46,35.26,57.01,10.31,24.19-.8,31.52-20.43,47.73-7.38,6.09-26.76,14.82-30.08,23.33-2.47,6.32,15.9,77.33,20.24,77.75,28.98,2.8,58.07,4.46,87.19,4.97-25.86-25.68-28.69-65.01-30.04-100.81-.96-25.56-1.92-51.13-2.88-76.69-1.05-27.98-2.65-57.64-18.97-80.78-16.32-23.14-53.04-35.15-74.97-16.84,1.59,24.15,19.68,44.97,34.69,64.34Z"/><path d="M967.48,714.43l-1.25-.02c-29-.51-58.35-2.18-87.23-4.97-.5-.05-.99-.5-1.57-1.46-5.28-8.64-21.62-70.47-19.08-76.98,2.29-5.87,11.75-11.68,20.09-16.8,3.98-2.44,7.73-4.75,10.14-6.73,1.02-.84,2.02-1.66,3-2.46,17.92-14.71,26.91-22.09,17.29-44.67-7.54-17.68-18.39-35.23-35.19-56.9h0c-1.38-1.78-2.78-3.56-4.19-5.37-14.33-18.27-29.15-37.16-30.6-59.25l-.02-.26.2-.16c8.76-7.31,20.21-10.28,33.13-8.57,16.72,2.21,33.03,11.98,42.58,25.51,16.92,23.98,18.1,55.63,19.06,81.05l2.88,76.69c1.46,38.75,4.84,75.6,29.89,100.47l.89.88ZM839.88,439.01c1.54,21.67,16.19,40.36,30.37,58.43,1.41,1.8,2.82,3.59,4.2,5.37,16.86,21.74,27.75,39.36,35.32,57.12,9.93,23.28.16,31.3-17.58,45.85-.97.8-1.97,1.62-2.99,2.46-2.46,2.03-6.24,4.35-10.25,6.82-8.21,5.04-17.51,10.76-19.68,16.31-2.01,5.14,12.16,62.72,18.49,75.14.91,1.79,1.32,1.92,1.34,1.92,28.43,2.75,57.33,4.41,85.9,4.94-24.52-25.12-27.86-61.76-29.31-100.27l-2.88-76.69c-.95-25.29-2.13-56.77-18.88-80.51-9.39-13.31-25.44-22.92-41.89-25.09-8.75-1.16-21.41-.66-32.16,8.18Z"/><path class="cls-11" d="M802.78,503.66c-14.29,17.73-27.56,36.46-36.67,57.01-10.73,24.19.83,31.52,21.24,47.73,7.68,6.09,27.83,14.82,31.29,23.33,2.57,6.32-16.54,77.33-21.05,77.75-30.14,2.8-60.4,4.46-90.68,4.97,26.89-25.68,29.84-65.01,31.24-100.81,1-25.56,2-51.13,3-76.69,1.09-27.98,2.75-57.64,19.73-80.78,16.98-23.14,55.16-35.15,77.97-16.84-1.66,24.15-20.46,44.97-36.08,64.34Z"/><path d="M705.64,714.97l.93-.89c26.05-24.88,29.57-61.72,31.09-100.47l3-76.69c.99-25.43,2.23-57.08,19.82-81.06,9.85-13.42,26.69-23.18,43.95-25.46,13.35-1.77,25.69,1.26,34.74,8.53l.21.17-.02.26c-1.52,22.09-16.93,40.98-31.83,59.25-1.47,1.8-2.93,3.59-4.36,5.37l-.39-.32.39.32c-17.47,21.67-28.76,39.22-36.6,56.9-10.01,22.57-.65,29.95,17.98,44.66,1.01.8,2.05,1.62,3.12,2.47,2.5,1.99,6.41,4.29,10.55,6.74,8.68,5.12,18.51,10.93,20.89,16.8,2.57,6.32-13.96,67.25-19.71,76.77-.67,1.1-1.21,1.62-1.75,1.67-30.03,2.79-60.55,4.46-90.72,4.97l-1.29.02ZM811.95,430.91c-2.65,0-5.14.2-7.39.5-17,2.25-33.58,11.85-43.27,25.06-17.41,23.74-18.64,55.21-19.63,80.5l-3,76.69c-1.51,38.51-4.99,75.15-30.48,100.27,29.72-.53,59.78-2.19,89.37-4.95.01,0,.42-.1,1.34-1.81,6.64-12.33,21.42-69.99,19.29-75.24-2.26-5.55-11.93-11.27-20.47-16.31-4.17-2.46-8.1-4.79-10.66-6.81-1.06-.84-2.1-1.67-3.12-2.47-18.44-14.55-28.6-22.57-18.27-45.86,7.88-17.77,19.21-35.38,36.74-57.13,1.43-1.78,2.89-3.57,4.37-5.37,14.74-18.07,29.99-36.76,31.58-58.42-8.53-6.75-18.2-8.65-26.39-8.65Z"/><ellipse class="cls-12" cx="838.76" cy="797.83" rx="54.94" ry="53.99"/><path class="cls-4" d="M838.76,852.32c-30.57,0-55.44-24.44-55.44-54.49s24.87-54.49,55.44-54.49,55.44,24.44,55.44,54.49-24.87,54.49-55.44,54.49ZM838.76,744.35c-30.02,0-54.43,23.99-54.43,53.48s24.42,53.48,54.43,53.48,54.43-23.99,54.43-53.48-24.42-53.48-54.43-53.48Z"/><path class="cls-4" d="M838.72,835.64c-21.2,0-38.46-16.87-38.46-37.6s17.25-37.6,38.46-37.6,38.46,16.87,38.46,37.6-17.25,37.6-38.46,37.6ZM838.72,761.45c-20.65,0-37.45,16.41-37.45,36.59s16.8,36.59,37.45,36.59,37.45-16.41,37.45-36.59-16.8-36.59-37.45-36.59Z"/><path class="cls-8" d="M860.2,807.49l-6.22,4.43c-1.79,1.27-4.3.9-5.62-.82l-13.5-17.69c-1.32-1.73-.94-4.16.85-5.43l6.22-4.43c1.79-1.27,4.3-.9,5.62.82l13.5,17.69c1.32,1.73.94,4.16-.85,5.43Z"/><path d="M851.6,812.92c-1.31,0-2.6-.58-3.44-1.68l-13.5-17.69c-.67-.88-.95-1.97-.79-3.05.17-1.1.77-2.07,1.7-2.73l6.22-4.43c1.89-1.35,4.57-.96,5.96.87l13.5,17.7c.67.88.95,1.97.79,3.05-.17,1.1-.77,2.07-1.7,2.73l-6.22,4.43c-.76.54-1.64.8-2.52.8ZM844.31,783.04c-.78,0-1.56.23-2.24.71l-6.22,4.43c-.81.58-1.34,1.43-1.49,2.4-.14.95.1,1.9.69,2.67l13.5,17.69c1.23,1.62,3.6,1.96,5.27.77l6.22-4.43c.81-.58,1.34-1.43,1.49-2.4.14-.95-.1-1.9-.69-2.67l-13.5-17.7c-.74-.97-1.88-1.48-3.04-1.48Z"/><polyline class="cls-10" points="919.59 775.9 890.16 830.2 845.83 810.98 861.36 800.46 881.28 810.37 913.31 766.02"/><polygon points="890.38 830.85 844.79 811.07 861.32 799.88 881.13 809.73 912.9 765.72 913.72 766.32 881.44 811.01 861.4 801.04 846.88 810.88 889.94 829.56 919.14 775.66 920.03 776.14 890.38 830.85"/><polyline class="cls-10" points="757.05 780.78 784.23 835.08 825.17 815.86 810.83 805.34 792.43 815.25 762.85 770.9"/><polygon points="784 835.75 756.61 781.01 757.5 780.55 784.46 834.42 824.19 815.76 810.78 805.93 792.26 815.91 762.43 771.18 763.27 770.62 792.59 814.59 810.87 804.74 826.15 815.95 784 835.75"/><path class="cls-8" d="M817.12,815.83l-5.76-5.09c-1.64-1.45-1.75-3.9-.25-5.48l15.36-16.22c1.5-1.58,4.04-1.69,5.68-.24l5.76,5.09c1.64,1.45,1.75,3.9.25,5.48l-15.36,16.22c-1.5,1.58-4.04,1.69-5.68.24Z"/><path d="M819.83,817.09c-1.03,0-2.06-.36-2.88-1.08l-5.76-5.09c-.85-.75-1.34-1.77-1.39-2.87-.05-1.1.35-2.16,1.12-2.97l15.36-16.22c1.59-1.68,4.29-1.79,6.02-.26l5.76,5.09c.85.75,1.34,1.77,1.39,2.88.05,1.1-.35,2.16-1.12,2.97l-15.36,16.22c-.84.89-1.99,1.34-3.15,1.34ZM829.44,788.03c-1.02,0-2.04.4-2.78,1.18l-15.36,16.22c-.68.71-1.02,1.64-.98,2.6.04.97.48,1.86,1.22,2.52l5.76,5.09c1.54,1.36,3.93,1.25,5.33-.23l15.36-16.22c.68-.71,1.02-1.64.98-2.6-.04-.97-.48-1.86-1.22-2.52l-5.76-5.09c-.72-.64-1.63-.95-2.54-.95Z"/><path class="cls-9" d="M1147.97,492.65l-98.63-10.45c-125.76,16.57-142.72,68.96-40.69-34.8l-6.84-119.17c10.79-19.75,32.59-38.64,67.34-34.91l119.42,12.6c34.76,3.73,40.4,23.51,37.94,46.65l-11.16,104.94c-2.46,23.13-32.63,38.86-67.38,35.13Z"/><path d="M942.32,511.7c-.69,0-1.05-.29-1.38-.85-.92-1.54-.27-2.11,7.75-9.05,9.48-8.21,29.15-25.24,58.42-54.98l-6.82-118.93.21-.38c6.68-12.23,26.77-40.19,68.82-35.68l119.42,12.6c16.69,1.79,27.82,7.26,34.03,16.72,5.06,7.71,6.73,17.75,5.25,31.59l-11.16,104.94c-2.3,21.59-27.76,37.03-58.81,37.03-3.35,0-6.77-.18-10.23-.55l-98.45-10.43c-52.28,6.91-85.29,19.88-99.39,25.42-4.42,1.74-6.49,2.55-7.65,2.55ZM1003.34,328.59l6.85,119.4-.47.48c-29.61,30.12-49.51,47.35-59.06,55.62-1.17,1.01-2.26,1.95-3.21,2.79.46-.18.94-.37,1.43-.56,14.22-5.59,47.53-18.67,100.28-25.62l.18-.02,98.81,10.46c3.38.36,6.72.54,9.99.54,29.5,0,53.61-14.28,55.74-34.33l11.16-104.94c1.39-13.11-.12-22.52-4.77-29.61-5.68-8.66-16.09-13.69-31.83-15.37l-119.42-12.6c-39.84-4.27-59.06,21.86-65.66,33.75Z"/><path class="cls-9" d="M645.98,598.27c13.35,2.24,26.68,3.96,39.91,5.14-9.21,7.18-18.41,14.37-27.62,21.55,1.53,22.96-23.28,34.23-50.44,35.25-30.03,1.13-63.47-5.99-91.99-22.31-28.51-16.32-51.27-42.29-56.38-68.07-3.12-15.75.21-30.6,5.78-44.11,3.57-8.64,8.23-17.08,16.56-22.56,8.02-5.28,18.91-7.45,30.05-8.32,31.03-2.42,65.88,4.86,96.8,20.22,6.87,3.41,13.74,7.35,18.7,12.66,3.67,3.93,6.08,8.38,8.26,12.78,9.45,19.09,7.88,38.62,10.37,57.76Z"/><path d="M601.7,661.84c-30.02,0-61.26-8.12-86.61-22.62-30.21-17.29-52.09-43.76-57.11-69.09-2.77-13.99-.85-28.7,5.87-44.98,3.16-7.65,7.96-17.21,17.13-23.25,7.15-4.71,17.21-7.51,30.76-8.56,31.07-2.42,66.64,5.01,97.59,20.37,6.46,3.21,13.78,7.26,19.13,12.98,3.93,4.21,6.45,8.99,8.51,13.14,7.03,14.19,8.08,28.7,9.09,42.73.34,4.73.7,9.62,1.28,14.4,12.9,2.14,25.91,3.8,38.69,4.94l3.82.34-30.02,23.42c.31,7.52-2.06,14.15-7.07,19.73-8.64,9.63-24.99,15.58-44.87,16.33-2.05.08-4.11.12-6.18.12ZM523.53,495.91c-3.91,0-7.78.15-11.57.44-13.03,1.01-22.62,3.65-29.34,8.07-8.43,5.55-12.82,14.17-16,21.87-6.48,15.71-8.34,29.85-5.69,43.23,4.85,24.49,26.17,50.18,55.64,67.05,26.62,15.24,59.86,23.29,91.18,22.12,19.07-.72,34.65-6.31,42.74-15.33,4.61-5.14,6.72-11.31,6.25-18.31l-.05-.8,25.24-19.69c-11.99-1.16-24.16-2.78-36.22-4.8l-1.1-.19-.14-1.11c-.68-5.22-1.07-10.54-1.44-15.68-1-13.74-2.03-27.94-8.79-41.6-1.96-3.96-4.36-8.51-8-12.42-5.02-5.37-12.05-9.25-18.27-12.34-26.69-13.25-56.85-20.51-84.45-20.51Z"/><path d="M495.83,550.11c-.57,2.12-1.76,4.28-3.58,6.46-1.45,1.76-3.1,3.34-4.96,4.74-1.63,1.19-2.77,1.83-3.42,1.93-.32.04-.67,0-1.04-.09-.85-.23-1.75-.77-2.69-1.61-.85-.71-1.45-1.39-1.79-2.05l5.65-21.05c.19-.49.57-.71,1.12-.67.06,0,.53.2,1.4.6.17.07.8.02,1.9-.14,1.09-.16,1.99-.15,2.69.04.85.23,1.61.68,2.26,1.33.37.39.9,1.1,1.58,2.12,1,1.48,1.52,2.9,1.57,4.25.03.91-.21,2.29-.7,4.14ZM492.52,543.16c-.08-.08-.23-.16-.44-.21-1.03-.28-2.38-.16-4.06.34l-3.53,13.15c1.52-.4,3.15-1.96,4.87-4.67,1.48-2.34,2.5-4.55,3.06-6.63.29-1.09.32-1.75.09-1.98Z"/><path d="M500.01,566.07c-.11.72-.47,1.1-1.08,1.12-.1,0-.24-.03-.42-.08-.7-.19-1.52-.57-2.47-1.14-1.02-.61-1.58-1.12-1.68-1.52-.05-.18.11-.46.51-.84.25-.24.48-.76.69-1.54l3.29-12.28c-.03-.8-.02-1.33.05-1.59.07-.25.46-.28,1.18-.09.58.16,1.34.56,2.28,1.2.94.64,1.48,1.13,1.62,1.46.04.09.04.2,0,.32-.04.16-.23.42-.57.79-.34.37-.54.66-.59.87l-3.15,11.75c-.05.2,0,.47.14.82.14.35.21.6.19.74ZM505.52,545.9s0,.13-.03.24c-.12.43-.35.96-.71,1.59-.39.69-.69,1.05-.88,1.08-.21.03-.99-.41-2.33-1.31-1.34-.9-2.03-1.46-2.07-1.71-.03-.11-.02-.27.03-.46.14-.53.43-1.05.85-1.56.49-.58.94-.86,1.35-.83.47.04,1.2.42,2.19,1.14.99.72,1.53,1.32,1.61,1.8Z"/><path d="M516.42,569.14c.06.41.03.8-.07,1.17-.16.59-.49.92-.99,1.02-.15.02-.4-.02-.75-.11-.66-.18-1.42-.49-2.27-.95-.86-.45-1.36-.8-1.5-1.05-.07-.14-.08-.28-.04-.42.06-.21.3-.52.72-.92.42-.4.66-.71.72-.92,2.1-7.67,3.08-11.55,2.94-11.65-.25-.17-1.15.52-2.71,2.09-1.65,1.64-2.61,2.96-2.87,3.96l-1.47,5.47c.18.32.23.67.13,1.04-.2.74-.66,1.16-1.4,1.25-.09.02-.21,0-.37-.04-.52-.14-1.26-.47-2.2-.99s-1.45-.87-1.53-1.05c-.07-.19-.09-.38-.03-.57s.23-.4.52-.61c.3-.21.46-.35.48-.44l3.65-13.59c.04-.16.02-.38-.07-.68-.09-.3-.08-.52.03-.68.23-.38.6-.56,1.11-.55.33,0,1.03.31,2.1.91,1.16.65,1.75,1.15,1.78,1.52.02.24-.1.55-.35.94-.4.62-.61.98-.63,1.08-.06.21-.08.46-.07.73.55-.89,1.19-1.65,1.92-2.27.89-.74,1.65-1.03,2.29-.85.66.18,1.45.64,2.38,1.38s1.42,1.32,1.47,1.73c.21,1.39-.76,6.08-2.89,14.05Z"/><path d="M536.1,573.37c-.29,1.07-.87,1.83-1.75,2.28-.88.45-1.96.51-3.25.19-.31-.08-.64-.22-.98-.42-.61-.35-.94-.55-.97-.58-.33-.17-.66-.35-1-.54-.34-.19-.6-.42-.79-.7-.32-.51-.6-1.16-.82-1.95-.18-.63-.35-1.28-.51-1.93-.16-.65-.22-1.03-.19-1.15.07-.27.32-.43.75-.46.11-.01.29.02.54.08.58.16,1.3.42,2.15.78.85.36,1.3.6,1.35.71.05.11,0,.7-.13,1.77-.12.93-.04,1.43.25,1.51.45.12.83-.42,1.16-1.63.41-1.54.26-2.61-.45-3.22-1.63-1.38-2.64-2.49-3.04-3.33-.49-1.03-.51-2.4-.06-4.09.3-1.11.87-2.08,1.72-2.91.84-.83,1.69-1.23,2.54-1.21.37.02,1.4.69,3.08,2.03.16.1.64.35,1.46.74.57.28.94.6,1.12.96.25.55.27,1.32.07,2.31-.18.73-.36,1.45-.55,2.17-.04.7-.08,1.11-.11,1.22-.15.55-.49.79-1.04.72-.28-.04-.79-.29-1.51-.75-.79-.53-1.27-.98-1.42-1.36-.04-.09.1-.84.41-2.24.29-1.32.33-2.01.12-2.07-.29-.08-.66.23-1.12.92s-.79,1.45-1.01,2.26c-.28,1.03-.23,1.75.14,2.14.81.78,1.61,1.57,2.41,2.36.8.79,1.3,1.52,1.52,2.18.29.87.26,1.93-.07,3.18Z"/><path d="M555.4,563.79c.08.23.1.45.05.64-.05.2-.23.4-.52.61-.3.21-.46.36-.48.44l-3.65,13.59c-.03.12-.02.34.02.66.05.33.05.56.02.7-.09.35-.46.52-1.11.51-.33,0-1.03-.31-2.1-.91-1.16-.65-1.75-1.14-1.79-1.49-.03-.28.09-.61.36-1,.33-.45.52-.78.57-.97.05-.2.09-.46.12-.78-.55.9-1.19,1.65-1.92,2.27-.88.72-1.64,1-2.28.83-.66-.18-1.45-.63-2.38-1.37-.93-.73-1.42-1.3-1.48-1.72-.21-1.39.76-6.07,2.9-14.05-.06-.41-.03-.8.07-1.17.16-.6.49-.95,1-1.05.15-.02.4.01.75.11.66.18,1.42.49,2.28.95.86.45,1.35.81,1.49,1.08.07.14.08.29.04.42-.06.21-.3.52-.71.92s-.66.71-.72.92c-2.1,7.67-3.08,11.55-2.94,11.65.25.17,1.17-.54,2.78-2.15,1.61-1.6,2.54-2.9,2.81-3.89l1.47-5.47c-.18-.32-.23-.67-.13-1.04.2-.76.67-1.19,1.4-1.28.09-.02.21,0,.36.04.52.14,1.26.47,2.2.99.94.52,1.45.86,1.51,1.02Z"/><path d="M568.88,568.73c0,.33-.18.56-.52.67-.26.05-.52.12-.77.2-1.72,1.54-4.06,3.61-7.01,6.22-.83,3.1-1.25,4.7-1.26,4.8,0,.1,0,.37.02.8.02.43,0,.77-.07,1-.1.37-.33.58-.7.62-.24.04-.54,0-.91-.09-.74-.2-1.51-.59-2.31-1.16-1.02-.69-1.45-1.34-1.29-1.95.05-.18.2-.44.46-.78.26-.35.42-.65.49-.9l3.11-11.58c.08-1.15.12-1.74.13-1.78.16-.61.53-.91,1.12-.92.25,0,.54.05.87.14.68.19,1.36.49,2.05.92.69.43,1.06.78,1.13,1.07.02.09.01.19-.02.31-.03.1-.29.53-.78,1.29l-.38,1.4c.69-.71,1.37-1.43,2.04-2.14.88-.89,1.48-1.32,1.79-1.3.45.04,1.03.47,1.75,1.29.72.82,1.07,1.44,1.06,1.86Z"/><path d="M578.69,582.52c.1.34-.52,1.1-1.83,2.29-1.42,1.27-2.69,2.04-3.81,2.32-.13.03-.31,0-.55-.06-.76-.2-1.68-.71-2.78-1.5-1.17-.82-1.89-1.56-2.15-2.21-.73-1.77-.75-3.95-.06-6.54.66-2.46,1.73-4.48,3.23-6.09,1.61-1.76,3.25-2.43,4.91-2.03.61.14,1.29.5,2.06,1.06.94.69,1.65,1.48,2.14,2.37.13.22.15.79.07,1.71-.06.99-.21,1.93-.45,2.83-.36,1.32-.81,2.18-1.38,2.57-2.17.1-4.31-.09-6.4-.57-.3.94-.45,1.98-.46,3.11-.01,1.12.13,1.74.41,1.83.38.13.93-.07,1.66-.59.64-.43,1.06-.83,1.29-1.19.29-.55.64-1.1,1.04-1.66.32.05.89.37,1.71.96.82.6,1.27,1.05,1.35,1.37ZM575.91,572.17c-.32-.13-.92.27-1.8,1.2-.89.93-1.51,1.88-1.87,2.85.88.2,1.64.17,2.27-.07.37-.15.79-1.08,1.25-2.8.19-.72.25-1.12.16-1.18Z"/><path d="M600,575.81c.93.8,1.48,2.04,1.65,3.74.15,1.55-.03,3.27-.55,5.18-.71,2.63-1.77,4.79-3.18,6.48-1.54,1.8-3.03,2.4-4.45,1.81-.51-.28-1.28-.67-2.31-1.16-.77-.31-1.45-.65-2.04-1.02-1.03-.59-1.66-1.78-1.89-3.55-.2-1.64-.04-3.46.49-5.45.54-2.01,1.34-3.74,2.4-5.22,1.18-1.6,2.5-2.59,3.95-2.97.24-.06.55-.04.92.06.39.1,1.12.44,2.2,1,.74.2,1.67.57,2.79,1.1ZM596.04,577.55c-.52-.14-1.18.37-1.97,1.52s-1.34,2.32-1.65,3.49c-.38,1.4-.58,2.83-.62,4.28-.03,1.58.18,2.5.64,2.74.58.31,1.32-.25,2.22-1.66.86-1.35,1.53-2.93,2.02-4.72.27-.99.4-2.01.41-3.06.04-1.54-.31-2.41-1.05-2.61Z"/><path d="M612.47,594.04c-.29,1.07-.87,1.83-1.75,2.28s-1.96.51-3.25.19c-.31-.08-.64-.22-.98-.42-.61-.35-.94-.55-.97-.58-.33-.17-.66-.35-.99-.54-.34-.19-.6-.42-.8-.7-.32-.51-.6-1.16-.82-1.95-.18-.63-.36-1.28-.51-1.93-.16-.65-.22-1.03-.19-1.15.07-.27.32-.43.75-.46.11-.01.29.02.54.08.58.16,1.3.42,2.15.78.85.37,1.3.6,1.35.71.05.11,0,.7-.13,1.77-.12.93-.04,1.43.25,1.51.45.12.83-.42,1.16-1.63.41-1.54.26-2.62-.45-3.23-1.63-1.38-2.64-2.49-3.04-3.33-.49-1.03-.51-2.4-.06-4.09.3-1.11.87-2.08,1.72-2.91.85-.83,1.69-1.23,2.54-1.21.37.02,1.4.69,3.08,2.02.16.11.64.35,1.46.74.57.28.94.6,1.12.96.25.55.27,1.32.07,2.31-.18.73-.36,1.45-.55,2.17-.04.7-.08,1.11-.11,1.22-.15.55-.49.79-1.04.72-.28-.03-.79-.29-1.51-.75-.79-.53-1.27-.98-1.42-1.35-.04-.09.1-.84.41-2.24.29-1.32.33-2.01.12-2.07-.29-.08-.66.23-1.12.92-.46.69-.79,1.45-1.01,2.26-.28,1.03-.23,1.75.14,2.14.81.78,1.61,1.57,2.41,2.36.8.79,1.3,1.52,1.52,2.18.29.87.26,1.93-.07,3.18Z"/><path d="M627.32,585.8c-.11.35-.31.63-.6.84-.29.21-.56.29-.81.22-.08-.02-.14-.05-.2-.08-.25-.17-.84-.38-1.8-.64l-3.1,11.55s.03.15.06.52c.04.37.02.68-.05.93-.15.56-.62.76-1.41.59-.41-.09-1.11-.47-2.1-1.13-1.08-.71-1.61-1.24-1.6-1.59,0-.15.14-.42.44-.81.29-.39.47-.7.53-.94l2.78-10.35-.99-.27c-.37-.1-.74-.55-1.1-1.35-.37-.8-.5-1.39-.4-1.78.08-.29.26-.53.55-.7s.56-.22.84-.15l2.1.57.71-2.63c-.19-.47-.22-.93-.1-1.37.11-.41.35-.61.73-.62.19,0,.43.06.74.14.72.2,1.53.53,2.43,1.02.9.48,1.47.88,1.69,1.19.1.15.13.31.09.47-.05.19-.29.44-.7.75-.41.31-.65.53-.71.68l-.42,1.58.93.25c.19.05.51.51.94,1.38.43.87.61,1.45.53,1.74Z"/><path d="M631.73,597.66c.01.19-.12.67-.38,1.43-.35.99-.56,1.61-.62,1.84-.21.78-.41,1.37-.6,1.78-.19.41-.5.6-.93.56-.25,0-.87-.38-1.85-1.13-1.03-.8-1.62-1.41-1.76-1.83-.08-.25.06-.59.43-1.01.17-.18.34-.52.49-1.02.08-.44.3-1.26.66-2.46.27-.68.65-.94,1.15-.79.53.19,1.23.61,2.09,1.27.86.66,1.3,1.11,1.33,1.35ZM632.86,593.42c-.23.71-.52,1.06-.87,1.05-.1,0-.2-.02-.3-.05-.56-.15-1.21-.57-1.94-1.25-.73-.68-1.29-1.41-1.66-2.17-.16-.32-.04-.78.38-1.41.42-.62.63-.94.63-.96l2.97-11.05c.14-.51.52-.78,1.16-.82.13,0,.3.02.51.07.54.15,1.13.43,1.77.86.63.42,1,.79,1.1,1.11.02.07-.1.6-.36,1.59l-3.2,11.93c-.03.12-.06.29-.08.53-.02.23-.05.42-.09.56Z"/><path d="M1034.02,352.39c0,.44-.09,1.01-.27,1.7-.1.04-.25.06-.45.06-.52,0-1.18-.12-1.96-.36-.84-.28-1.42-.6-1.72-.94-.14-.14-.27-.63-.39-1.45-.18-1.09-.38-1.99-.6-2.69-.6.08-1.49.3-2.67.67-1.18.36-1.94.67-2.31.91-.24.69-.56,1.54-.96,2.57-.06.22-.12.43-.17.64-.05.2-.19.36-.41.48-.06.02-.13.03-.21.03-.4,0-1.05-.2-1.94-.59-.89-.39-1.36-.65-1.4-.77-.06-.24.09-.81.45-1.7.5-1.29.79-2.08.87-2.36-.38-.42-.54-.85-.48-1.27.06-.2.55-.55,1.48-1.06l3.1-10.69v-1.33c0-.44.25-.67.75-.67.74,0,1.82.2,3.23.59,1.41.39,2.25.74,2.53,1.04.1,1.8.46,4.48,1.08,8.05.78,4.42,1.6,7.47,2.44,9.14ZM1029.04,331.65c-.62.89-1.48,1.33-2.56,1.33-.64,0-1.19-.2-1.63-.61-.56-.5-.84-1.16-.84-1.97,0-.69.21-1.32.63-1.91.62-.87,1.46-1.3,2.5-1.3.62,0,1.16.2,1.63.61.6.53.9,1.18.9,1.97,0,.67-.21,1.29-.63,1.88ZM1027.72,345.03c-.24-1.27-.37-1.94-.39-2-.16-1.09-.27-2.21-.33-3.36-.3.77-.68,1.87-1.14,3.32-.46,1.44-.71,2.36-.75,2.74.24-.1,1.11-.33,2.62-.7ZM1027.17,329.07c-.34,0-.66.14-.95.43-.29.29-.44.6-.44.94,0,.52.27.78.81.78.32,0,.63-.15.93-.45s.45-.62.45-.96c0-.5-.27-.75-.81-.75Z"/><path d="M1049.57,353.32c-.02.28-.14.52-.36.73-.22.2-.47.28-.75.24-2.49-.34-3.88-.82-4.16-1.42-.04-.08-.06-.16-.06-.24,0-.1.05-.21.14-.33.09-.12.15-.23.17-.32.02-.09.06-.18.12-.26.04-.16.05-.51.03-1.06-.24.18-.6.67-1.09,1.45-.5.87-.94,1.47-1.33,1.82-.64.61-1.38.91-2.2.91-.48,0-.95-.19-1.42-.58-.22-.18-.61-.58-1.18-1.18-.96-1.09-1.49-1.69-1.57-1.79-.42-.56-.63-1.1-.63-1.6,0-.16.02-.32.06-.48.38-1.78,1.57-3.46,3.56-5.06,1.45-1.15,3.5-2.37,6.15-3.66,0-.65-.16-1.06-.48-1.24-.2-.12-.9.11-2.11.68-1.21.58-2.05,1.06-2.53,1.47-.16.16-.42.38-.78.67-.34.2-.65.26-.94.18-.22-.06-.69-.42-1.42-1.09-.72-.67-1.11-1.11-1.18-1.33-.16-.54,0-.97.51-1.27.02-.02.42-.14,1.2-.36.74-.4,1.49-.81,2.23-1.21,1.57-.75,2.89-1.15,3.98-1.21.46-.02.98.22,1.57.73.52.46,1.05.92,1.58,1.38.53.45,1.08.89,1.64,1.32.64.57.96,1.11.96,1.63v11.44c.2.53.29.88.27,1.06ZM1044.75,344.48c-.98.38-1.83.97-2.53,1.76-.52.65-1.04,1.28-1.57,1.91-.42.42-.82.97-1.19,1.65s-.56,1.18-.56,1.5c0,.16.06.24.18.24.42,0,1.37-.91,2.83-2.74,1.47-1.83,2.41-3.26,2.83-4.31ZM1045.95,333.43c-.76,1.09-1.81,1.63-3.13,1.63-.82,0-1.52-.25-2.08-.76-.72-.65-1.09-1.46-1.09-2.45,0-.85.27-1.63.81-2.36.8-1.07,1.85-1.6,3.13-1.6.78,0,1.46.24,2.02.73.74.65,1.12,1.46,1.12,2.45,0,.85-.26,1.63-.78,2.36ZM1043.63,330.19c-.44,0-.84.18-1.21.54s-.54.77-.54,1.21c0,.67.33,1,.99,1,.42,0,.82-.19,1.19-.58s.56-.79.56-1.21c0-.65-.33-.97-.99-.97Z"/><path d="M1064.94,353.32c-.02.28-.14.52-.36.73-.22.2-.47.28-.75.24-2.49-.34-3.88-.82-4.16-1.42-.04-.08-.06-.16-.06-.24,0-.1.05-.21.14-.33.09-.12.15-.23.17-.32.02-.09.06-.18.12-.26.04-.16.05-.51.03-1.06-.24.18-.6.67-1.09,1.45-.5.87-.94,1.47-1.33,1.82-.64.61-1.38.91-2.2.91-.48,0-.95-.19-1.42-.58-.22-.18-.61-.58-1.18-1.18-.96-1.09-1.49-1.69-1.57-1.79-.42-.56-.63-1.1-.63-1.6,0-.16.02-.32.06-.48.38-1.78,1.57-3.46,3.56-5.06,1.45-1.15,3.5-2.37,6.15-3.66,0-.65-.16-1.06-.48-1.24-.2-.12-.9.11-2.11.68-1.21.58-2.05,1.06-2.53,1.47-.16.16-.42.38-.78.67-.34.2-.65.26-.94.18-.22-.06-.69-.42-1.42-1.09-.72-.67-1.11-1.11-1.18-1.33-.16-.54,0-.97.51-1.27.02-.02.42-.14,1.2-.36.74-.4,1.49-.81,2.23-1.21,1.57-.75,2.89-1.15,3.98-1.21.46-.02.98.22,1.57.73.52.46,1.05.92,1.58,1.38.53.45,1.08.89,1.64,1.32.64.57.96,1.11.96,1.63v11.44c.2.53.29.88.27,1.06ZM1060.12,344.48c-.98.38-1.83.97-2.53,1.76-.52.65-1.04,1.28-1.57,1.91-.42.42-.82.97-1.19,1.65s-.56,1.18-.56,1.5c0,.16.06.24.18.24.42,0,1.37-.91,2.83-2.74,1.47-1.83,2.41-3.26,2.83-4.31ZM1061.32,333.43c-.76,1.09-1.81,1.63-3.13,1.63-.82,0-1.52-.25-2.08-.76-.72-.65-1.09-1.46-1.09-2.45,0-.85.27-1.63.81-2.36.8-1.07,1.85-1.6,3.13-1.6.78,0,1.46.24,2.02.73.74.65,1.12,1.46,1.12,2.45,0,.85-.26,1.63-.78,2.36ZM1059,330.19c-.44,0-.84.18-1.21.54s-.54.77-.54,1.21c0,.67.33,1,.99,1,.42,0,.82-.19,1.19-.58s.56-.79.56-1.21c0-.65-.33-.97-.99-.97Z"/><path d="M1079.86,353.32c-.1.59-.32.96-.66,1.12-.14.06-.39.09-.75.09-.68,0-1.5-.11-2.44-.32-.94-.21-1.52-.42-1.72-.62-.08-.1-.12-.22-.12-.36,0-.16.09-.46.27-.91.12-.16.25-.34.39-.53.14-.19.21-.44.21-.74.04-7.95-.02-11.96-.18-12.02-.3-.1-.99.64-2.08,2.21-1.17,1.68-1.75,3.02-1.75,4.03v6.72c.32.32.43.75.33,1.27-.12.63-.44,1.05-.96,1.27-.08.04-.2.06-.36.06-.54,0-1.34-.13-2.38-.38-1.04-.25-1.62-.44-1.72-.56-.22-.32-.24-.7-.06-1.12.02-.06.11-.17.29-.32.17-.15.26-.3.26-.44v-21.4c0-.16-.08-.37-.24-.64s-.21-.48-.15-.67c.12-.42.43-.7.94-.82.32-.08,1.07.03,2.26.33,1.29.32,1.99.66,2.11,1,.08.22.05.56-.09,1-.14.44-.21.99-.21,1.63v5.66c1.13-1.43,2.21-2.15,3.26-2.15.68,0,1.57.24,2.65.71s1.71.9,1.87,1.29c.56,1.29.84,6.07.84,14.32.2.48.27.91.21,1.27Z"/><path d="M1102.25,352.05c.16.38.24.77.24,1.15,0,.61-.23,1.02-.69,1.24-.14.06-.39.09-.75.09-.68,0-1.5-.11-2.44-.32-.94-.21-1.52-.42-1.72-.62-.1-.12-.15-.25-.15-.39,0-.22.15-.58.45-1.07s.45-.85.45-1.08c.04-7.95-.02-11.96-.18-12.02-.28-.1-.97.81-2.08,2.72-1.17,2.02-1.75,3.54-1.75,4.57v5.66c.26.26.39.59.39.97,0,.77-.34,1.29-1.02,1.57-.08.04-.2.06-.36.06-.54,0-1.34-.13-2.38-.38-1.04-.25-1.63-.46-1.75-.62-.12-.16-.18-.34-.18-.54s.12-.44.35-.73c.23-.28.35-.46.35-.54v-14.08c0-.16-.08-.37-.24-.64-.16-.26-.21-.48-.15-.67.12-.42.43-.7.94-.82.32-.08,1.07.03,2.26.33,1.29.32,1.99.66,2.11,1,.08.22.05.56-.09,1-.22.71-.33,1.11-.33,1.21,0,.22.04.46.12.73.3-1.01.72-1.91,1.27-2.69.66-.95,1.33-1.42,1.99-1.42s1.57.24,2.65.71,1.71.9,1.87,1.29c.56,1.29.84,6.07.84,14.32Z"/><path d="M1117.2,348.69c.18.3-.21,1.2-1.18,2.69-1.04,1.59-2.07,2.67-3.07,3.24-.12.06-.3.09-.54.09-.78,0-1.81-.24-3.07-.73-1.35-.48-2.23-1.01-2.65-1.57-1.17-1.51-1.75-3.61-1.75-6.3,0-2.54.51-4.78,1.54-6.72,1.1-2.12,2.51-3.2,4.22-3.24.62-.02,1.38.14,2.26.48,1.09.42,1.98,1,2.68,1.73.18.18.35.73.51,1.63.2.97.3,1.92.3,2.85,0,1.37-.22,2.32-.66,2.85-2.07.67-4.18,1.04-6.33,1.12-.04.99.08,2.03.36,3.12s.57,1.65.87,1.66c.4.02.88-.31,1.45-1,.5-.59.81-1.08.93-1.48.14-.61.33-1.23.57-1.88.32-.04.95.12,1.9.48s1.5.69,1.66.97ZM1111.84,339.43c-.34-.04-.82.51-1.43,1.63-.61,1.13-.97,2.21-1.07,3.24.9-.04,1.63-.26,2.17-.67.32-.24.48-1.25.48-3.03,0-.75-.05-1.14-.15-1.18Z"/><path d="M1124.95,337.58c.06.08.09.18.09.3,0,.16-.12.46-.35.91-.23.44-.35.78-.35,1v14.8s0,.15.03.39v.67c0,1.9-.52,3.17-1.57,3.81-.28.18-.77.27-1.48.27-1.47,0-2.82-.2-4.07-.61-.58-.18-1.33-.61-2.23-1.27-1.04-.77-1.57-1.38-1.57-1.85,0-.28.19-.54.57-.79.06-.04.2-.06.42-.06,1.21,0,2.21.2,3.01.61.2.24.38.48.54.73.32.38.75.58,1.3.58.28,0,.42-1.24.42-3.72v-15.38c-.24-.77-.36-1.28-.36-1.54s.37-.39,1.11-.39c.62,0,1.47.19,2.53.56,1.06.37,1.71.7,1.93.98ZM1125.16,332.46c.06.14.09.35.09.64,0,.51-.08,1.02-.24,1.54-.18.59-.4.94-.66,1.06-.2.08-1.06-.14-2.58-.65-1.52-.51-2.34-.88-2.46-1.1-.06-.1-.09-.25-.09-.45,0-.54.14-1.12.42-1.73.32-.69.68-1.07,1.09-1.15.46-.08,1.27.1,2.43.53s1.82.87,2,1.32Z"/><path d="M1132.91,345.06c-.04.75-.23,1.16-.57,1.24-.1.02-.2.03-.3.03-.58,0-1.32-.23-2.2-.7s-1.61-1.02-2.17-1.67c-.24-.26-.24-.75,0-1.45.24-.71.36-1.07.36-1.09v-11.44c0-.52.3-.89.9-1.09.12-.04.29-.06.51-.06.56,0,1.21.12,1.93.36.72.24,1.18.5,1.36.79.04.06.06.61.06,1.63v12.35c0,.12.02.3.06.53s.06.42.06.56ZM1132.91,349.45c.06.18.06.68,0,1.48-.08,1.05-.12,1.7-.12,1.94,0,.81-.04,1.43-.12,1.88-.08.44-.33.71-.75.79-.24.06-.94-.14-2.08-.61-1.21-.51-1.93-.94-2.17-1.3-.14-.22-.09-.59.15-1.09.12-.22.19-.6.21-1.12-.04-.44-.04-1.29,0-2.54.08-.73.38-1.08.9-1.06.56.04,1.35.27,2.35.68,1,.41,1.55.73,1.63.95Z"/><path d="M1141.01,345.06c-.04.75-.23,1.16-.57,1.24-.1.02-.2.03-.3.03-.58,0-1.32-.23-2.2-.7s-1.61-1.02-2.17-1.67c-.24-.26-.24-.75,0-1.45.24-.71.36-1.07.36-1.09v-11.44c0-.52.3-.89.9-1.09.12-.04.29-.06.51-.06.56,0,1.21.12,1.93.36.72.24,1.18.5,1.36.79.04.06.06.61.06,1.63v12.35c0,.12.02.3.06.53s.06.42.06.56ZM1141.01,349.45c.06.18.06.68,0,1.48-.08,1.05-.12,1.7-.12,1.94,0,.81-.04,1.43-.12,1.88-.08.44-.33.71-.75.79-.24.06-.94-.14-2.08-.61-1.21-.51-1.93-.94-2.17-1.3-.14-.22-.09-.59.15-1.09.12-.22.19-.6.21-1.12-.04-.44-.04-1.29,0-2.54.08-.73.38-1.08.9-1.06.56.04,1.35.27,2.35.68,1,.41,1.55.73,1.63.95Z"/><path d="M1149.12,345.06c-.04.75-.23,1.16-.57,1.24-.1.02-.2.03-.3.03-.58,0-1.32-.23-2.2-.7s-1.61-1.02-2.17-1.67c-.24-.26-.24-.75,0-1.45.24-.71.36-1.07.36-1.09v-11.44c0-.52.3-.89.9-1.09.12-.04.29-.06.51-.06.56,0,1.21.12,1.93.36.72.24,1.18.5,1.36.79.04.06.06.61.06,1.63v12.35c0,.12.02.3.06.53s.06.42.06.56ZM1149.12,349.45c.06.18.06.68,0,1.48-.08,1.05-.12,1.7-.12,1.94,0,.81-.04,1.43-.12,1.88-.08.44-.33.71-.75.79-.24.06-.94-.14-2.08-.61-1.21-.51-1.93-.94-2.17-1.3-.14-.22-.09-.59.15-1.09.12-.22.19-.6.21-1.12-.04-.44-.04-1.29,0-2.54.08-.73.38-1.08.9-1.06.56.04,1.35.27,2.35.68,1,.41,1.55.73,1.63.95Z"/><path d="M1035.64,366.77c0,.22-.04.43-.12.64-.14.34-.23.62-.27.82v19.98c0-.06.05.31.15,1.12.12.93,0,1.53-.36,1.82-.36.28-1.18.36-2.44.24-.72-.06-1.56-.25-2.5-.58-1.23-.38-1.9-.79-2.02-1.21.02-.28-.01-.72-.09-1.3-1.13-2.99-2.43-6.27-3.92-9.84v8.96c0,.16.07.37.21.64.18.34.27.53.27.54.1.3.15.61.15.91,0,.81-.36,1.21-1.09,1.21s-1.7-.2-2.98-.61c-1.21-.4-1.89-.72-2.05-.94-.24-.32-.24-.74,0-1.24.24-.5.36-.82.36-.94v-18.98c0-.12-.03-.3-.09-.54-.06-.24-.07-.43-.03-.58.2-.69.59-1.15,1.18-1.39.1-.04.32-.06.66-.06.78,0,1.59.1,2.41.3,1.07.24,1.81.59,2.23,1.03.56.61,1.3,2.45,2.2,5.54,1.1,3.79,1.97,6.36,2.59,7.69v-11.9c0-.16-.04-.39-.12-.68s-.12-.52-.12-.68c0-.12.02-.23.06-.33.1-.34.48-.59,1.14-.76.52-.14,1.03-.19,1.51-.15.46.04,1.01.15,1.66.33.92.28,1.4.6,1.42.94Z"/><path d="M1052.04,373.03c.14.2.21.4.21.61s-.12.44-.35.73c-.23.28-.35.46-.35.54v14.08c0,.12.07.33.2.64s.2.52.2.67c0,.36-.31.63-.94.79-.32.08-1.07-.03-2.26-.33-1.29-.32-1.99-.65-2.11-.97-.1-.26-.07-.62.09-1.06.2-.52.3-.89.3-1.09s-.03-.46-.09-.79c-.3,1.01-.72,1.91-1.27,2.69-.66.93-1.33,1.39-1.99,1.39s-1.57-.23-2.65-.7-1.71-.89-1.87-1.27c-.56-1.29-.84-6.06-.84-14.32-.16-.38-.24-.77-.24-1.15,0-.63.23-1.05.69-1.27.14-.06.39-.09.75-.09.68,0,1.5.11,2.44.32.94.21,1.52.43,1.72.65.1.12.15.25.15.39,0,.22-.15.58-.45,1.08s-.45.85-.45,1.07c-.04,7.95.02,11.96.18,12.02.28.1.99-.83,2.13-2.8,1.13-1.97,1.7-3.47,1.7-4.5v-5.66c-.26-.26-.39-.58-.39-.97,0-.79.34-1.32,1.02-1.6.08-.04.2-.06.36-.06.54,0,1.34.13,2.38.38,1.04.25,1.62.45,1.72.59Z"/><path d="M1071.93,387.32c0,1.11-.37,2-1.1,2.66-.73.67-1.76,1.01-3.09,1.03-.32,0-.67-.05-1.05-.15-.68-.18-1.04-.28-1.09-.3-.36-.08-.73-.17-1.1-.26-.37-.09-.69-.25-.95-.47-.44-.4-.87-.96-1.3-1.66-.34-.56-.67-1.14-.99-1.73s-.48-.94-.48-1.06c0-.28.2-.49.6-.64.1-.04.28-.06.54-.06.6,0,1.36.07,2.28.2s1.41.24,1.49.33c.08.09.19.67.33,1.74.12.93.33,1.39.63,1.39.46,0,.69-.63.69-1.88,0-1.59-.42-2.59-1.27-3-1.93-.91-3.19-1.72-3.8-2.42-.74-.87-1.12-2.18-1.12-3.94,0-1.15.3-2.24.9-3.25.6-1.02,1.32-1.63,2.14-1.83.36-.08,1.53.3,3.5,1.15.18.06.71.17,1.6.33.62.12,1.07.33,1.33.64.38.46.6,1.2.66,2.21.02.75.03,1.49.03,2.24.14.69.21,1.09.21,1.21,0,.57-.27.89-.81.97-.28.04-.83-.07-1.66-.33-.9-.3-1.48-.62-1.72-.94-.06-.08-.12-.84-.18-2.27-.06-1.35-.2-2.03-.42-2.03-.3,0-.58.39-.84,1.18-.26.79-.39,1.6-.39,2.45,0,1.07.23,1.75.69,2.03.98.54,1.96,1.09,2.94,1.65.98.56,1.65,1.13,2.03,1.71.5.77.75,1.8.75,3.09Z"/><path d="M1088.81,387.35c.04.38-.34,1.08-1.14,2.09-.8,1.01-1.43,1.48-1.87,1.42-.86-.12-2.69-2.46-5.49-7.02-.2.22-.54.58-1.02,1.06v3.57c0,.1.02.28.07.54.05.26.09.45.11.58.06.69-.08,1.13-.42,1.33-.18.1-.47.15-.87.15-.76,0-1.51-.14-2.23-.42-.84-.32-1.27-.71-1.27-1.15v-22.46c0-.32.1-.68.3-1.06.2-.38.43-.63.69-.73.06-.02.14-.03.24-.03.52,0,1.25.18,2.18.53.94.35,1.45.66,1.55.92.06.14.09.26.09.36,0,.16-.08.37-.24.62-.16.25-.24.49-.24.71v10.51l4.46-6.15c.26-.36.59-.55.99-.58.38-.02.91.22,1.6.73.76.57,1.16,1.12,1.18,1.66.02.22-.45,1.01-1.42,2.36-1.49,2.14-2.36,3.41-2.62,3.81l3.92,5.42c.14.2.43.41.87.64.36.18.55.37.57.58Z"/><path d="M1105,389.65c-.02.28-.14.52-.36.73-.22.2-.47.28-.75.24-2.49-.34-3.88-.82-4.16-1.42-.04-.08-.06-.16-.06-.24,0-.1.05-.21.14-.33.09-.12.15-.23.17-.32.02-.09.06-.18.12-.26.04-.16.05-.51.03-1.06-.24.18-.6.67-1.09,1.45-.5.87-.94,1.47-1.33,1.82-.64.61-1.38.91-2.2.91-.48,0-.95-.19-1.42-.58-.22-.18-.61-.58-1.18-1.18-.96-1.09-1.49-1.69-1.57-1.79-.42-.56-.63-1.1-.63-1.6,0-.16.02-.32.06-.48.38-1.78,1.57-3.46,3.56-5.06,1.45-1.15,3.5-2.37,6.15-3.66,0-.65-.16-1.06-.48-1.24-.2-.12-.9.11-2.11.68-1.21.58-2.05,1.06-2.53,1.47-.16.16-.42.38-.78.67-.34.2-.65.26-.94.18-.22-.06-.69-.42-1.42-1.09-.72-.67-1.12-1.11-1.18-1.33-.16-.54,0-.97.51-1.27.02-.02.42-.14,1.21-.36.74-.4,1.49-.81,2.23-1.21,1.57-.75,2.89-1.15,3.98-1.21.46-.02.98.22,1.57.73.52.46,1.05.92,1.58,1.38.53.45,1.08.89,1.64,1.32.64.57.96,1.11.96,1.63v11.44c.2.53.29.88.27,1.06ZM1100.17,380.81c-.99.38-1.83.97-2.53,1.76-.52.65-1.04,1.28-1.57,1.91-.42.42-.82.97-1.19,1.65s-.56,1.18-.56,1.5c0,.16.06.24.18.24.42,0,1.37-.91,2.83-2.74,1.47-1.83,2.41-3.26,2.83-4.31Z"/><path d="M1113.31,366.77c0,.14-.05.33-.14.58-.09.24-.15.39-.17.45-.12.4-.24,1.03-.36,1.88v18.59c0,.24.06.46.18.65.12.19.18.35.18.47,0,1.29-.24,1.99-.72,2.09-.18.04-.82-.1-1.91-.41s-1.75-.56-1.97-.74c-.44-.38-.66-.74-.66-1.06,0-.08.04-.17.12-.27.08-.1.12-.27.12-.51v-21.34c0-.12-.04-.25-.11-.38-.07-.13-.1-.26-.1-.38.04-.48.41-.81,1.11-.97.2-.04.62-.04,1.27,0,.74.06,1.39.17,1.93.33.82.24,1.24.59,1.24,1.03Z"/><path d="M1128.57,373.91c.06.08.09.18.09.3,0,.16-.12.46-.35.91-.23.44-.35.78-.35,1v14.8s0,.15.03.39v.67c0,1.9-.52,3.17-1.57,3.81-.28.18-.77.27-1.48.27-1.47,0-2.82-.2-4.07-.61-.58-.18-1.33-.61-2.23-1.27-1.04-.77-1.57-1.38-1.57-1.85,0-.28.19-.54.57-.79.06-.04.2-.06.42-.06,1.21,0,2.21.2,3.01.61.2.24.38.48.54.73.32.38.75.58,1.3.58.28,0,.42-1.24.42-3.72v-15.38c-.24-.77-.36-1.28-.36-1.54s.37-.39,1.11-.39c.62,0,1.47.19,2.53.56,1.06.37,1.71.7,1.93.98ZM1128.78,368.79c.06.14.09.35.09.64,0,.51-.08,1.02-.24,1.54-.18.59-.4.94-.66,1.06-.2.08-1.06-.14-2.58-.65-1.52-.51-2.34-.88-2.46-1.1-.06-.1-.09-.25-.09-.45,0-.54.14-1.12.42-1.73.32-.69.68-1.07,1.09-1.15.46-.08,1.27.1,2.43.53s1.82.87,2,1.32Z"/><path d="M1142.94,385.02c.18.3-.21,1.2-1.18,2.69-1.04,1.59-2.07,2.67-3.07,3.24-.12.06-.3.09-.54.09-.78,0-1.81-.24-3.07-.73-1.35-.48-2.23-1.01-2.65-1.57-1.17-1.51-1.75-3.61-1.75-6.3,0-2.54.51-4.78,1.54-6.72,1.1-2.12,2.51-3.2,4.22-3.24.62-.02,1.38.14,2.26.48,1.09.42,1.98,1,2.68,1.73.18.18.35.73.51,1.63.2.97.3,1.92.3,2.85,0,1.37-.22,2.32-.66,2.85-2.07.67-4.18,1.04-6.33,1.12-.04.99.08,2.03.36,3.12s.57,1.65.87,1.66c.4.02.88-.31,1.45-1,.5-.59.81-1.08.93-1.48.14-.61.33-1.23.57-1.88.32-.04.95.12,1.9.48s1.5.69,1.66.97ZM1137.58,375.76c-.34-.04-.82.51-1.43,1.63-.61,1.13-.97,2.21-1.07,3.24.9-.04,1.63-.26,2.17-.67.32-.24.48-1.25.48-3.03,0-.75-.05-1.14-.15-1.18Z"/><path d="M1158.07,374.3s-.11.22-.33.61c-.14.28-.21.5-.21.67v13.26c0,3.35-1.24,5.5-3.71,6.45-1.14.44-2.19.67-3.13.67-1.37,0-2.55-.46-3.56-1.39-.28-.24-.76-.77-1.45-1.57-.04-.04-.23-.23-.57-.58-.2-.22-.31-.45-.33-.7-.02-.3.28-.54.9-.73.08-.02.2-.03.36-.03.44,0,.97.09,1.58.27.61.18,1.05.4,1.31.67.32.4.65.82.99,1.24s.74.66,1.21.7c.82.08,1.36-.48,1.6-1.7.12-.59.18-1.62.18-3.12-.06.08-.25.34-.57.79-.24.32-.45.55-.63.7-.22.2-.45.3-.69.3-1.07,0-1.96-.29-2.68-.88-2.15-1.82-3.23-4.49-3.23-8.02,0-2.24.47-4.25,1.42-6.02.98-1.9,2.27-3.09,3.86-3.57.12-.04.23-.06.33-.06.32,0,.68.15,1.09.45.34.26.68.54,1.02.82.12-.34.25-.68.38-1.01.13-.33.34-.52.62-.56.42-.06,1.17.08,2.25.41,1.07.33,1.68.62,1.82.86.24.4.3.77.18,1.09ZM1152.74,381.75c.16-1.39.24-2.53.24-3.42,0-1.63-.26-2.55-.78-2.75-.42-.16-.93.56-1.54,2.15-.6,1.59-.9,3.05-.9,4.36,0,2.38.27,4.27.81,5.66,1.21-1.88,1.93-3.88,2.17-5.99Z"/><path d="M1179.47,374.3s-.11.22-.33.61c-.14.28-.21.5-.21.67v13.26c0,3.35-1.24,5.5-3.71,6.45-1.14.44-2.19.67-3.13.67-1.37,0-2.55-.46-3.56-1.39-.28-.24-.76-.77-1.45-1.57-.04-.04-.23-.23-.57-.58-.2-.22-.31-.45-.33-.7-.02-.3.28-.54.9-.73.08-.02.2-.03.36-.03.44,0,.97.09,1.58.27.61.18,1.05.4,1.31.67.32.4.65.82.99,1.24s.74.66,1.21.7c.82.08,1.36-.48,1.6-1.7.12-.59.18-1.62.18-3.12-.06.08-.25.34-.57.79-.24.32-.45.55-.63.7-.22.2-.45.3-.69.3-1.07,0-1.96-.29-2.68-.88-2.15-1.82-3.23-4.49-3.23-8.02,0-2.24.47-4.25,1.42-6.02.98-1.9,2.27-3.09,3.86-3.57.12-.04.23-.06.33-.06.32,0,.68.15,1.09.45.34.26.68.54,1.02.82.12-.34.25-.68.38-1.01.13-.33.34-.52.62-.56.42-.06,1.17.08,2.25.41,1.07.33,1.68.62,1.82.86.24.4.3.77.18,1.09ZM1174.14,381.75c.16-1.39.24-2.53.24-3.42,0-1.63-.26-2.55-.78-2.75-.42-.16-.93.56-1.54,2.15-.6,1.59-.9,3.05-.9,4.36,0,2.38.27,4.27.81,5.66,1.21-1.88,1.93-3.88,2.17-5.99Z"/><path d="M1194.81,389.65c-.02.28-.14.52-.36.73-.22.2-.47.28-.75.24-2.49-.34-3.88-.82-4.16-1.42-.04-.08-.06-.16-.06-.24,0-.1.05-.21.14-.33.09-.12.15-.23.17-.32.02-.09.06-.18.12-.26.04-.16.05-.51.03-1.06-.24.18-.6.67-1.09,1.45-.5.87-.94,1.47-1.33,1.82-.64.61-1.38.91-2.2.91-.48,0-.95-.19-1.42-.58-.22-.18-.61-.58-1.18-1.18-.96-1.09-1.49-1.69-1.57-1.79-.42-.56-.63-1.1-.63-1.6,0-.16.02-.32.06-.48.38-1.78,1.57-3.46,3.56-5.06,1.45-1.15,3.5-2.37,6.15-3.66,0-.65-.16-1.06-.48-1.24-.2-.12-.9.11-2.11.68-1.21.58-2.05,1.06-2.53,1.47-.16.16-.42.38-.78.67-.34.2-.65.26-.94.18-.22-.06-.69-.42-1.42-1.09-.72-.67-1.11-1.11-1.18-1.33-.16-.54,0-.97.51-1.27.02-.02.42-.14,1.2-.36.74-.4,1.49-.81,2.23-1.21,1.57-.75,2.89-1.15,3.98-1.21.46-.02.98.22,1.57.73.52.46,1.05.92,1.58,1.38.53.45,1.08.89,1.64,1.32.64.57.96,1.11.96,1.63v11.44c.2.53.29.88.27,1.06ZM1189.99,380.81c-.98.38-1.83.97-2.53,1.76-.52.65-1.04,1.28-1.57,1.91-.42.42-.82.97-1.19,1.65s-.56,1.18-.56,1.5c0,.16.06.24.18.24.42,0,1.37-.91,2.83-2.74,1.47-1.83,2.41-3.26,2.83-4.31ZM1191.2,369.76c-.76,1.09-1.81,1.63-3.13,1.63-.82,0-1.52-.25-2.08-.76-.72-.65-1.09-1.46-1.09-2.45,0-.85.27-1.63.81-2.36.8-1.07,1.85-1.6,3.13-1.6.78,0,1.46.24,2.02.73.74.65,1.12,1.46,1.12,2.45,0,.85-.26,1.63-.78,2.36ZM1188.88,366.52c-.44,0-.84.18-1.21.54s-.54.77-.54,1.21c0,.67.33,1,.99,1,.42,0,.82-.19,1.19-.58s.56-.79.56-1.21c0-.65-.33-.97-.99-.97Z"/><path d="M1029.68,423.65c0,1.11-.37,2-1.1,2.66-.73.67-1.76,1.01-3.09,1.03-.32,0-.67-.05-1.05-.15-.68-.18-1.04-.28-1.09-.3-.36-.08-.73-.17-1.1-.26-.37-.09-.69-.25-.95-.47-.44-.4-.87-.96-1.3-1.66-.34-.56-.67-1.14-.99-1.73s-.48-.94-.48-1.06c0-.28.2-.49.6-.64.1-.04.28-.06.54-.06.6,0,1.36.07,2.28.2s1.41.24,1.49.33c.08.09.19.67.33,1.74.12.93.33,1.39.63,1.39.46,0,.69-.63.69-1.88,0-1.59-.42-2.59-1.27-3-1.93-.91-3.19-1.72-3.8-2.42-.74-.87-1.12-2.18-1.12-3.94,0-1.15.3-2.24.9-3.25.6-1.02,1.32-1.63,2.14-1.83.36-.08,1.53.3,3.5,1.15.18.06.71.17,1.6.33.62.12,1.07.33,1.33.64.38.46.6,1.2.66,2.21.02.75.03,1.49.03,2.24.14.69.21,1.09.21,1.21,0,.57-.27.89-.81.97-.28.04-.83-.07-1.66-.33-.9-.3-1.48-.62-1.72-.94-.06-.08-.12-.84-.18-2.27-.06-1.35-.2-2.03-.42-2.03-.3,0-.58.39-.84,1.18-.26.79-.39,1.6-.39,2.45,0,1.07.23,1.75.69,2.03.98.54,1.96,1.09,2.94,1.65.98.56,1.65,1.13,2.03,1.71.5.77.75,1.8.75,3.09Z"/><path d="M1045.83,409.36c.14.2.21.4.21.61s-.12.44-.35.73c-.23.28-.35.46-.35.54v14.08c0,.12.07.33.2.64s.2.52.2.67c0,.36-.31.63-.94.79-.32.08-1.07-.03-2.26-.33-1.29-.32-1.99-.65-2.11-.97-.1-.26-.07-.62.09-1.06.2-.52.3-.89.3-1.09s-.03-.46-.09-.79c-.3,1.01-.72,1.91-1.27,2.69-.66.93-1.33,1.39-1.99,1.39s-1.57-.23-2.65-.7-1.71-.89-1.87-1.27c-.56-1.29-.84-6.06-.84-14.32-.16-.38-.24-.77-.24-1.15,0-.63.23-1.05.69-1.27.14-.06.39-.09.75-.09.68,0,1.5.11,2.44.32.94.21,1.52.43,1.72.65.1.12.15.25.15.39,0,.22-.15.58-.45,1.08s-.45.85-.45,1.07c-.04,7.95.02,11.96.18,12.02.28.1.99-.83,2.13-2.8,1.13-1.97,1.7-3.47,1.7-4.5v-5.66c-.26-.26-.39-.58-.39-.97,0-.79.34-1.32,1.02-1.6.08-.04.2-.06.36-.06.54,0,1.34.13,2.38.38,1.04.25,1.62.45,1.72.59Z"/><path d="M1054.24,403.1c0,.14-.05.33-.14.58-.09.24-.15.39-.17.45-.12.4-.24,1.03-.36,1.88v18.59c0,.24.06.46.18.65.12.19.18.35.18.47,0,1.29-.24,1.99-.72,2.09-.18.04-.82-.1-1.91-.41s-1.75-.56-1.97-.74c-.44-.38-.66-.74-.66-1.06,0-.08.04-.17.12-.27.08-.1.12-.27.12-.51v-21.34c0-.12-.04-.25-.11-.38-.07-.13-.1-.26-.1-.38.04-.48.41-.81,1.11-.97.2-.04.62-.04,1.27,0,.74.06,1.39.17,1.93.33.82.24,1.24.59,1.24,1.03Z"/><path d="M1067.14,411.81c-.02.36-.14.69-.36.97-.22.28-.46.42-.72.42-.08,0-.15,0-.21-.03-.28-.1-.92-.15-1.9-.15v11.96s.06.14.2.48c.13.34.2.65.2.91,0,.59-.4.9-1.21.94-.42.02-1.2-.16-2.32-.54-1.23-.4-1.88-.78-1.96-1.12-.04-.14.03-.44.21-.89.18-.45.27-.8.27-1.04v-10.72h-1.02c-.38,0-.85-.34-1.42-1.01-.56-.68-.84-1.22-.84-1.62,0-.3.11-.58.35-.82.23-.24.49-.36.77-.36h2.17v-2.72c-.3-.4-.45-.84-.45-1.3,0-.42.18-.69.54-.79.18-.04.43-.06.75-.06.74,0,1.61.12,2.61.35.99.23,1.64.47,1.94.71.14.12.21.26.21.42,0,.2-.16.5-.48.91-.32.4-.49.69-.51.85v1.63h.96c.2,0,.62.36,1.27,1.09.64.73.96,1.24.96,1.54Z"/><path d="M1080.55,421.35c.18.3-.21,1.2-1.18,2.69-1.04,1.59-2.07,2.67-3.07,3.24-.12.06-.3.09-.54.09-.78,0-1.81-.24-3.07-.73-1.35-.48-2.23-1.01-2.65-1.57-1.17-1.51-1.75-3.61-1.75-6.3,0-2.54.51-4.78,1.54-6.72,1.1-2.12,2.51-3.2,4.22-3.24.62-.02,1.38.14,2.26.48,1.09.42,1.98,1,2.68,1.73.18.18.35.73.51,1.63.2.97.3,1.92.3,2.85,0,1.37-.22,2.32-.66,2.85-2.07.67-4.18,1.04-6.33,1.12-.04.99.08,2.03.36,3.12s.57,1.65.87,1.66c.4.02.88-.31,1.45-1,.5-.59.81-1.08.93-1.48.14-.61.33-1.23.57-1.88.32-.04.95.12,1.9.48s1.5.69,1.66.97ZM1075.19,412.09c-.34-.04-.82.51-1.43,1.63-.61,1.13-.97,2.21-1.07,3.24.9-.04,1.63-.26,2.17-.67.32-.24.48-1.25.48-3.03,0-.75-.05-1.14-.15-1.18Z"/><path d="M1096.5,424.71c.16.38.24.77.24,1.15,0,.61-.23,1.02-.69,1.24-.14.06-.39.09-.75.09-.68,0-1.5-.11-2.44-.32-.94-.21-1.52-.42-1.72-.62-.1-.12-.15-.25-.15-.39,0-.22.15-.58.45-1.07s.45-.85.45-1.08c.04-7.95-.02-11.96-.18-12.02-.28-.1-.97.81-2.08,2.72-1.17,2.02-1.75,3.54-1.75,4.57v5.66c.26.26.39.59.39.97,0,.77-.34,1.29-1.02,1.57-.08.04-.2.06-.36.06-.54,0-1.34-.13-2.38-.38-1.04-.25-1.63-.46-1.75-.62-.12-.16-.18-.34-.18-.54s.12-.44.35-.73c.23-.28.35-.46.35-.54v-14.08c0-.16-.08-.37-.24-.64-.16-.26-.21-.48-.15-.67.12-.42.43-.7.94-.82.32-.08,1.07.03,2.26.33,1.29.32,1.99.66,2.11,1,.08.22.05.56-.09,1-.22.71-.33,1.11-.33,1.21,0,.22.04.46.12.73.3-1.01.72-1.91,1.27-2.69.66-.95,1.33-1.42,1.99-1.42s1.57.24,2.65.71,1.71.9,1.87,1.29c.56,1.29.84,6.07.84,14.32Z"/><path d="M1111.36,426.04c.08.73-.17,1.18-.75,1.36-.1.02-.24.03-.42.03-.72,0-1.62-.15-2.68-.45-1.15-.32-1.82-.67-2.02-1.03-.1-.16,0-.47.27-.94.18-.3.27-.86.27-1.66v-12.72c-.24-.77-.36-1.28-.36-1.54s.37-.39,1.11-.39c.6,0,1.44.19,2.52.56,1.08.37,1.72.7,1.94.98.06.08.09.18.09.3,0,.16-.12.46-.35.91-.23.44-.35.78-.35,1v12.17c0,.2.11.45.35.76.23.3.36.52.38.67ZM1111.45,405.12s.03.12.03.24c0,.44-.09,1.02-.27,1.73-.2.77-.39,1.19-.57,1.27-.2.08-1.07-.14-2.59-.65-1.53-.51-2.34-.88-2.44-1.1-.06-.1-.09-.25-.09-.45,0-.54.14-1.12.42-1.73.32-.69.68-1.07,1.09-1.15.46-.08,1.27.1,2.41.53,1.14.43,1.82.87,2.02,1.32Z"/><path d="M1131.37,423.65c0,1.11-.37,2-1.1,2.66-.73.67-1.76,1.01-3.09,1.03-.32,0-.67-.05-1.05-.15-.68-.18-1.04-.28-1.09-.3-.36-.08-.73-.17-1.1-.26-.37-.09-.69-.25-.95-.47-.44-.4-.87-.96-1.3-1.66-.34-.56-.67-1.14-.99-1.73s-.48-.94-.48-1.06c0-.28.2-.49.6-.64.1-.04.28-.06.54-.06.6,0,1.36.07,2.28.2s1.41.24,1.49.33c.08.09.19.67.33,1.74.12.93.33,1.39.63,1.39.46,0,.69-.63.69-1.88,0-1.59-.42-2.59-1.27-3-1.93-.91-3.19-1.72-3.8-2.42-.74-.87-1.12-2.18-1.12-3.94,0-1.15.3-2.24.9-3.25.6-1.02,1.32-1.63,2.14-1.83.36-.08,1.53.3,3.5,1.15.18.06.71.17,1.6.33.62.12,1.07.33,1.33.64.38.46.6,1.2.66,2.21.02.75.03,1.49.03,2.24.14.69.21,1.09.21,1.21,0,.57-.27.89-.81.97-.28.04-.83-.07-1.66-.33-.9-.3-1.48-.62-1.72-.94-.06-.08-.12-.84-.18-2.27-.06-1.35-.2-2.03-.42-2.03-.3,0-.58.39-.84,1.18-.26.79-.39,1.6-.39,2.45,0,1.07.23,1.75.69,2.03.98.54,1.96,1.09,2.94,1.65.98.56,1.65,1.13,2.03,1.71.5.77.75,1.8.75,3.09Z"/><path d="M1148.25,423.68c.04.38-.34,1.08-1.14,2.09-.8,1.01-1.43,1.48-1.87,1.42-.86-.12-2.69-2.46-5.49-7.02-.2.22-.54.58-1.02,1.06v3.57c0,.1.02.28.07.54.05.26.09.45.11.58.06.69-.08,1.13-.42,1.33-.18.1-.47.15-.87.15-.76,0-1.51-.14-2.23-.42-.84-.32-1.27-.71-1.27-1.15v-22.46c0-.32.1-.68.3-1.06.2-.38.43-.63.69-.73.06-.02.14-.03.24-.03.52,0,1.25.18,2.18.53.94.35,1.45.66,1.55.92.06.14.09.26.09.36,0,.16-.08.37-.24.62-.16.25-.24.49-.24.71v10.51l4.46-6.15c.26-.36.59-.55.99-.58.38-.02.91.22,1.6.73.76.57,1.16,1.12,1.18,1.66.02.22-.45,1.01-1.42,2.36-1.49,2.14-2.36,3.41-2.62,3.81l3.92,5.42c.14.2.43.41.87.64.36.18.55.37.57.58Z"/><path d="M1160.15,409.3c1.1.53,1.96,1.58,2.56,3.18.54,1.45.81,3.17.81,5.15,0,2.72-.46,5.09-1.39,7.08-1.02,2.14-2.3,3.11-3.83,2.91-.56-.14-1.41-.31-2.53-.51-.82-.1-1.57-.25-2.23-.45-1.14-.3-2.06-1.28-2.74-2.94-.62-1.53-.94-3.33-.94-5.39s.32-3.97.96-5.66c.72-1.86,1.74-3.16,3.04-3.91.22-.12.52-.18.9-.18s1.2.13,2.38.39c.76,0,1.76.11,2.98.33ZM1156.78,412.03c-.54,0-1.04.66-1.51,1.98-.46,1.32-.69,2.59-.69,3.8,0,1.45.17,2.89.51,4.3.38,1.53.82,2.36,1.33,2.48.64.14,1.21-.58,1.72-2.18.48-1.53.72-3.23.72-5.09,0-1.03-.13-2.05-.39-3.06-.36-1.49-.93-2.24-1.69-2.24Z"/><path d="M1171.64,403.1c0,.14-.05.33-.14.58-.09.24-.15.39-.17.45-.12.4-.24,1.03-.36,1.88v18.59c0,.24.06.46.18.65.12.19.18.35.18.47,0,1.29-.24,1.99-.72,2.09-.18.04-.82-.1-1.91-.41s-1.75-.56-1.97-.74c-.44-.38-.66-.74-.66-1.06,0-.08.04-.17.12-.27.08-.1.12-.27.12-.51v-21.34c0-.12-.04-.25-.11-.38-.07-.13-.1-.26-.1-.38.04-.48.41-.81,1.11-.97.2-.04.62-.04,1.27,0,.74.06,1.39.17,1.93.33.82.24,1.24.59,1.24,1.03Z"/><path d="M1185.95,421.35c.18.3-.21,1.2-1.18,2.69-1.04,1.59-2.07,2.67-3.07,3.24-.12.06-.3.09-.54.09-.78,0-1.81-.24-3.07-.73-1.35-.48-2.23-1.01-2.65-1.57-1.17-1.51-1.75-3.61-1.75-6.3,0-2.54.51-4.78,1.54-6.72,1.1-2.12,2.51-3.2,4.22-3.24.62-.02,1.38.14,2.26.48,1.09.42,1.98,1,2.68,1.73.18.18.35.73.51,1.63.2.97.3,1.92.3,2.85,0,1.37-.22,2.32-.66,2.85-2.07.67-4.18,1.04-6.33,1.12-.04.99.08,2.03.36,3.12s.57,1.65.87,1.66c.4.02.88-.31,1.45-1,.5-.59.81-1.08.93-1.48.14-.61.33-1.23.57-1.88.32-.04.95.12,1.9.48s1.5.69,1.66.97ZM1180.59,412.09c-.34-.04-.82.51-1.43,1.63-.61,1.13-.97,2.21-1.07,3.24.9-.04,1.63-.26,2.17-.67.32-.24.48-1.25.48-3.03,0-.75-.05-1.14-.15-1.18Z"/><path d="M1191.89,423.29c.04.22-.08.61-.36,1.15-.32.61-.48,1.09-.48,1.45.02.16.02.39,0,.7-.08.59-.24.93-.48,1.03-.28.12-.94-.06-1.99-.54-1.05-.48-1.63-.86-1.75-1.12-.1-.18.04-.75.42-1.7.32-.81.6-1.41.84-1.82.12-.2.34-.3.66-.3-.12,0,.48.12,1.81.36.8.14,1.25.4,1.33.79Z"/><path d="M1199.27,423.29c.04.22-.08.61-.36,1.15-.32.61-.48,1.09-.48,1.45.02.16.02.39,0,.7-.08.59-.24.93-.48,1.03-.28.12-.94-.06-1.99-.54-1.05-.48-1.63-.86-1.75-1.12-.1-.18.04-.75.42-1.7.32-.81.6-1.41.84-1.82.12-.2.34-.3.66-.3-.12,0,.48.12,1.81.36.8.14,1.25.4,1.33.79Z"/><path d="M1203.41,424.23c.03.16-.06.42-.25.81-.23.42-.34.76-.34,1.02.01.11.01.28,0,.49-.06.41-.17.65-.34.72-.2.08-.66-.04-1.39-.38-.73-.34-1.14-.6-1.22-.78-.07-.13.03-.52.3-1.19.22-.56.42-.99.59-1.27.08-.14.24-.21.46-.21-.08,0,.34.08,1.27.25.56.1.87.28.93.55Z"/></svg>