<?xml version="1.0" encoding="UTF-8"?><svg id="Layer_1" xmlns="http://www.w3.org/2000/svg" width="1920" height="1080" xmlns:xlink="http://www.w3.org/1999/xlink" viewBox="0 0 1920 1080"><defs><style>.cls-1{fill:none;}.cls-2{fill:#563300;}.cls-3{mix-blend-mode:multiply;opacity:.6;}.cls-4{fill:#231f20;}.cls-5{fill:#e2d9dc;}.cls-6{isolation:isolate;}.cls-7{fill:#b58768;}.cls-8{fill:#ffc556;}.cls-9{fill:#efdfc7;}.cls-10{fill:#93613d;}.cls-11{fill:#fff;}.cls-12{fill:#f7931e;}.cls-13{fill:#e3c28d;}.cls-14{fill:#ffd956;}.cls-15{fill:#aae3ff;}.cls-16{fill:#cc001c;}.cls-17{fill:#ffda7d;}.cls-18{fill:#fbb03b;}.cls-19{fill:#e6e7e8;}.cls-20{clip-path:url(#clippath);}.cls-21{fill:#443200;}</style><clipPath id="clippath"><rect class="cls-1" y="551.9" width="1893" height="524.2"/></clipPath></defs><g class="cls-6"><g id="Layer_11"><g class="cls-20"><g id="_Grid_Repeat_"><rect class="cls-5" y="551.9" width="50.4" height="50.4"/><rect class="cls-5" x="50.5" y="602.3" width="50.4" height="50.4"/></g><g id="_Grid_Repeat_-2"><rect class="cls-5" x="105.9" y="551.9" width="50.4" height="50.4"/><rect class="cls-5" x="156.4" y="602.3" width="50.4" height="50.4"/></g><g id="_Grid_Repeat_-3"><rect class="cls-5" x="211.9" y="551.9" width="50.4" height="50.4"/><rect class="cls-5" x="262.3" y="602.3" width="50.4" height="50.4"/></g><g id="_Grid_Repeat_-4"><rect class="cls-5" x="317.8" y="551.9" width="50.4" height="50.4"/><rect class="cls-5" x="368.2" y="602.3" width="50.4" height="50.4"/></g><g id="_Grid_Repeat_-5"><rect class="cls-5" x="423.7" y="551.9" width="50.4" height="50.4"/><rect class="cls-5" x="474.1" y="602.3" width="50.4" height="50.4"/></g><g id="_Grid_Repeat_-6"><rect class="cls-5" x="529.6" y="551.9" width="50.4" height="50.4"/><rect class="cls-5" x="580.1" y="602.3" width="50.4" height="50.4"/></g><g id="_Grid_Repeat_-7"><rect class="cls-5" x="635.5" y="551.9" width="50.4" height="50.4"/><rect class="cls-5" x="686" y="602.3" width="50.4" height="50.4"/></g><g id="_Grid_Repeat_-8"><rect class="cls-5" x="741.5" y="551.9" width="50.4" height="50.4"/><rect class="cls-5" x="791.9" y="602.3" width="50.4" height="50.4"/></g><g id="_Grid_Repeat_-9"><rect class="cls-5" x="847.4" y="551.9" width="50.4" height="50.4"/><rect class="cls-5" x="897.8" y="602.3" width="50.4" height="50.4"/></g><g id="_Grid_Repeat_-10"><rect class="cls-5" x="953.3" y="551.9" width="50.4" height="50.4"/><rect class="cls-5" x="1003.8" y="602.3" width="50.4" height="50.4"/></g><g id="_Grid_Repeat_-11"><rect class="cls-5" x="1059.2" y="551.9" width="50.4" height="50.4"/><rect class="cls-5" x="1109.7" y="602.3" width="50.4" height="50.4"/></g><g id="_Grid_Repeat_-12"><rect class="cls-5" x="1165.2" y="551.9" width="50.4" height="50.4"/><rect class="cls-5" x="1215.6" y="602.3" width="50.4" height="50.4"/></g><g id="_Grid_Repeat_-13"><rect class="cls-5" x="1271.1" y="551.9" width="50.4" height="50.4"/><rect class="cls-5" x="1321.5" y="602.3" width="50.4" height="50.4"/></g><g id="_Grid_Repeat_-14"><rect class="cls-5" x="1377" y="551.9" width="50.4" height="50.4"/><rect class="cls-5" x="1427.4" y="602.3" width="50.4" height="50.4"/></g><g id="_Grid_Repeat_-15"><rect class="cls-5" x="1482.9" y="551.9" width="50.4" height="50.4"/><rect class="cls-5" x="1533.4" y="602.3" width="50.4" height="50.4"/></g><g id="_Grid_Repeat_-16"><rect class="cls-5" x="1588.8" y="551.9" width="50.4" height="50.4"/><rect class="cls-5" x="1639.3" y="602.3" width="50.4" height="50.4"/></g><g id="_Grid_Repeat_-17"><rect class="cls-5" x="1694.8" y="551.9" width="50.4" height="50.4"/><rect class="cls-5" x="1745.2" y="602.3" width="50.4" height="50.4"/></g><g id="_Grid_Repeat_-18"><rect class="cls-5" x="1800.7" y="551.9" width="50.4" height="50.4"/><rect class="cls-5" x="1851.1" y="602.3" width="50.4" height="50.4"/></g><g id="_Grid_Repeat_-19"><rect class="cls-5" y="657.8" width="50.4" height="50.4"/><rect class="cls-5" x="50.5" y="708.3" width="50.4" height="50.4"/></g><g id="_Grid_Repeat_-20"><rect class="cls-5" x="105.9" y="657.8" width="50.4" height="50.4"/><rect class="cls-5" x="156.4" y="708.3" width="50.4" height="50.4"/></g><g id="_Grid_Repeat_-21"><rect class="cls-5" x="211.9" y="657.8" width="50.4" height="50.4"/><rect class="cls-5" x="262.3" y="708.3" width="50.4" height="50.4"/></g><g id="_Grid_Repeat_-22"><rect class="cls-5" x="317.8" y="657.8" width="50.4" height="50.4"/><rect class="cls-5" x="368.2" y="708.3" width="50.4" height="50.4"/></g><g id="_Grid_Repeat_-23"><rect class="cls-5" x="423.7" y="657.8" width="50.4" height="50.4"/><rect class="cls-5" x="474.1" y="708.3" width="50.4" height="50.4"/></g><g id="_Grid_Repeat_-24"><rect class="cls-5" x="529.6" y="657.8" width="50.4" height="50.4"/><rect class="cls-5" x="580.1" y="708.3" width="50.4" height="50.4"/></g><g id="_Grid_Repeat_-25"><rect class="cls-5" x="635.5" y="657.8" width="50.4" height="50.4"/><rect class="cls-5" x="686" y="708.3" width="50.4" height="50.4"/></g><g id="_Grid_Repeat_-26"><rect class="cls-5" x="741.5" y="657.8" width="50.4" height="50.4"/><rect class="cls-5" x="791.9" y="708.3" width="50.4" height="50.4"/></g><g id="_Grid_Repeat_-27"><rect class="cls-5" x="847.4" y="657.8" width="50.4" height="50.4"/><rect class="cls-5" x="897.8" y="708.3" width="50.4" height="50.4"/></g><g id="_Grid_Repeat_-28"><rect class="cls-5" x="953.3" y="657.8" width="50.4" height="50.4"/><rect class="cls-5" x="1003.8" y="708.3" width="50.4" height="50.4"/></g><g id="_Grid_Repeat_-29"><rect class="cls-5" x="1059.2" y="657.8" width="50.4" height="50.4"/><rect class="cls-5" x="1109.7" y="708.3" width="50.4" height="50.4"/></g><g id="_Grid_Repeat_-30"><rect class="cls-5" x="1165.2" y="657.8" width="50.4" height="50.4"/><rect class="cls-5" x="1215.6" y="708.3" width="50.4" height="50.4"/></g><g id="_Grid_Repeat_-31"><rect class="cls-5" x="1271.1" y="657.8" width="50.4" height="50.4"/><rect class="cls-5" x="1321.5" y="708.3" width="50.4" height="50.4"/></g><g id="_Grid_Repeat_-32"><rect class="cls-5" x="1377" y="657.8" width="50.4" height="50.4"/><rect class="cls-5" x="1427.4" y="708.3" width="50.4" height="50.4"/></g><g id="_Grid_Repeat_-33"><rect class="cls-5" x="1482.9" y="657.8" width="50.4" height="50.4"/><rect class="cls-5" x="1533.4" y="708.3" width="50.4" height="50.4"/></g><g id="_Grid_Repeat_-34"><rect class="cls-5" x="1588.8" y="657.8" width="50.4" height="50.4"/><rect class="cls-5" x="1639.3" y="708.3" width="50.4" height="50.4"/></g><g id="_Grid_Repeat_-35"><rect class="cls-5" x="1694.8" y="657.8" width="50.4" height="50.4"/><rect class="cls-5" x="1745.2" y="708.3" width="50.4" height="50.4"/></g><g id="_Grid_Repeat_-36"><rect class="cls-5" x="1800.7" y="657.8" width="50.4" height="50.4"/><rect class="cls-5" x="1851.1" y="708.3" width="50.4" height="50.4"/></g><g id="_Grid_Repeat_-37"><rect class="cls-5" y="763.8" width="50.4" height="50.4"/><rect class="cls-5" x="50.5" y="814.2" width="50.4" height="50.4"/></g><g id="_Grid_Repeat_-38"><rect class="cls-5" x="105.9" y="763.8" width="50.4" height="50.4"/><rect class="cls-5" x="156.4" y="814.2" width="50.4" height="50.4"/></g><g id="_Grid_Repeat_-39"><rect class="cls-5" x="211.9" y="763.8" width="50.4" height="50.4"/><rect class="cls-5" x="262.3" y="814.2" width="50.4" height="50.4"/></g><g id="_Grid_Repeat_-40"><rect class="cls-5" x="317.8" y="763.8" width="50.4" height="50.4"/><rect class="cls-5" x="368.2" y="814.2" width="50.4" height="50.4"/></g><g id="_Grid_Repeat_-41"><rect class="cls-5" x="423.7" y="763.8" width="50.4" height="50.4"/><rect class="cls-5" x="474.1" y="814.2" width="50.4" height="50.4"/></g><g id="_Grid_Repeat_-42"><rect class="cls-5" x="529.6" y="763.8" width="50.4" height="50.4"/><rect class="cls-5" x="580.1" y="814.2" width="50.4" height="50.4"/></g><g id="_Grid_Repeat_-43"><rect class="cls-5" x="635.5" y="763.8" width="50.4" height="50.4"/><rect class="cls-5" x="686" y="814.2" width="50.4" height="50.4"/></g><g id="_Grid_Repeat_-44"><rect class="cls-5" x="741.5" y="763.8" width="50.4" height="50.4"/><rect class="cls-5" x="791.9" y="814.2" width="50.4" height="50.4"/></g><g id="_Grid_Repeat_-45"><rect class="cls-5" x="847.4" y="763.8" width="50.4" height="50.4"/><rect class="cls-5" x="897.8" y="814.2" width="50.4" height="50.4"/></g><g id="_Grid_Repeat_-46"><rect class="cls-5" x="953.3" y="763.8" width="50.4" height="50.4"/><rect class="cls-5" x="1003.8" y="814.2" width="50.4" height="50.4"/></g><g id="_Grid_Repeat_-47"><rect class="cls-5" x="1059.2" y="763.8" width="50.4" height="50.4"/><rect class="cls-5" x="1109.7" y="814.2" width="50.4" height="50.4"/></g><g id="_Grid_Repeat_-48"><rect class="cls-5" x="1165.2" y="763.8" width="50.4" height="50.4"/><rect class="cls-5" x="1215.6" y="814.2" width="50.4" height="50.4"/></g><g id="_Grid_Repeat_-49"><rect class="cls-5" x="1271.1" y="763.8" width="50.4" height="50.4"/><rect class="cls-5" x="1321.5" y="814.2" width="50.4" height="50.4"/></g><g id="_Grid_Repeat_-50"><rect class="cls-5" x="1377" y="763.8" width="50.4" height="50.4"/><rect class="cls-5" x="1427.4" y="814.2" width="50.4" height="50.4"/></g><g id="_Grid_Repeat_-51"><rect class="cls-5" x="1482.9" y="763.8" width="50.4" height="50.4"/><rect class="cls-5" x="1533.4" y="814.2" width="50.4" height="50.4"/></g><g id="_Grid_Repeat_-52"><rect class="cls-5" x="1588.8" y="763.8" width="50.4" height="50.4"/><rect class="cls-5" x="1639.3" y="814.2" width="50.4" height="50.4"/></g><g id="_Grid_Repeat_-53"><rect class="cls-5" x="1694.8" y="763.8" width="50.4" height="50.4"/><rect class="cls-5" x="1745.2" y="814.2" width="50.4" height="50.4"/></g><g id="_Grid_Repeat_-54"><rect class="cls-5" x="1800.7" y="763.8" width="50.4" height="50.4"/><rect class="cls-5" x="1851.1" y="814.2" width="50.4" height="50.4"/></g><g id="_Grid_Repeat_-55"><rect class="cls-5" y="869.7" width="50.4" height="50.4"/><rect class="cls-5" x="50.5" y="920.1" width="50.4" height="50.4"/></g><g id="_Grid_Repeat_-56"><rect class="cls-5" x="105.9" y="869.7" width="50.4" height="50.4"/><rect class="cls-5" x="156.4" y="920.1" width="50.4" height="50.4"/></g><g id="_Grid_Repeat_-57"><rect class="cls-5" x="211.9" y="869.7" width="50.4" height="50.4"/><rect class="cls-5" x="262.3" y="920.1" width="50.4" height="50.4"/></g><g id="_Grid_Repeat_-58"><rect class="cls-5" x="317.8" y="869.7" width="50.4" height="50.4"/><rect class="cls-5" x="368.2" y="920.1" width="50.4" height="50.4"/></g><g id="_Grid_Repeat_-59"><rect class="cls-5" x="423.7" y="869.7" width="50.4" height="50.4"/><rect class="cls-5" x="474.1" y="920.1" width="50.4" height="50.4"/></g><g id="_Grid_Repeat_-60"><rect class="cls-5" x="529.6" y="869.7" width="50.4" height="50.4"/><rect class="cls-5" x="580.1" y="920.1" width="50.4" height="50.4"/></g><g id="_Grid_Repeat_-61"><rect class="cls-5" x="635.5" y="869.7" width="50.4" height="50.4"/><rect class="cls-5" x="686" y="920.1" width="50.4" height="50.4"/></g><g id="_Grid_Repeat_-62"><rect class="cls-5" x="741.5" y="869.7" width="50.4" height="50.4"/><rect class="cls-5" x="791.9" y="920.1" width="50.4" height="50.4"/></g><g id="_Grid_Repeat_-63"><rect class="cls-5" x="847.4" y="869.7" width="50.4" height="50.4"/><rect class="cls-5" x="897.8" y="920.1" width="50.4" height="50.4"/></g><g id="_Grid_Repeat_-64"><rect class="cls-5" x="953.3" y="869.7" width="50.4" height="50.4"/><rect class="cls-5" x="1003.8" y="920.1" width="50.4" height="50.4"/></g><g id="_Grid_Repeat_-65"><rect class="cls-5" x="1059.2" y="869.7" width="50.4" height="50.4"/><rect class="cls-5" x="1109.7" y="920.1" width="50.4" height="50.4"/></g><g id="_Grid_Repeat_-66"><rect class="cls-5" x="1165.2" y="869.7" width="50.4" height="50.4"/><rect class="cls-5" x="1215.6" y="920.1" width="50.4" height="50.4"/></g><g id="_Grid_Repeat_-67"><rect class="cls-5" x="1271.1" y="869.7" width="50.4" height="50.4"/><rect class="cls-5" x="1321.5" y="920.1" width="50.4" height="50.4"/></g><g id="_Grid_Repeat_-68"><rect class="cls-5" x="1377" y="869.7" width="50.4" height="50.4"/><rect class="cls-5" x="1427.4" y="920.1" width="50.4" height="50.4"/></g><g id="_Grid_Repeat_-69"><rect class="cls-5" x="1482.9" y="869.7" width="50.4" height="50.4"/><rect class="cls-5" x="1533.4" y="920.1" width="50.4" height="50.4"/></g><g id="_Grid_Repeat_-70"><rect class="cls-5" x="1588.8" y="869.7" width="50.4" height="50.4"/><rect class="cls-5" x="1639.3" y="920.1" width="50.4" height="50.4"/></g><g id="_Grid_Repeat_-71"><rect class="cls-5" x="1694.8" y="869.7" width="50.4" height="50.4"/><rect class="cls-5" x="1745.2" y="920.1" width="50.4" height="50.4"/></g><g id="_Grid_Repeat_-72"><rect class="cls-5" x="1800.7" y="869.7" width="50.4" height="50.4"/><rect class="cls-5" x="1851.1" y="920.1" width="50.4" height="50.4"/></g><g id="_Grid_Repeat_-73"><rect class="cls-5" y="975.6" width="50.4" height="50.4"/><rect class="cls-5" x="50.5" y="1026.1" width="50.4" height="50.4"/></g><g id="_Grid_Repeat_-74"><rect class="cls-5" x="105.9" y="975.6" width="50.4" height="50.4"/><rect class="cls-5" x="156.4" y="1026.1" width="50.4" height="50.4"/></g><g id="_Grid_Repeat_-75"><rect class="cls-5" x="211.9" y="975.6" width="50.4" height="50.4"/><rect class="cls-5" x="262.3" y="1026.1" width="50.4" height="50.4"/></g><g id="_Grid_Repeat_-76"><rect class="cls-5" x="317.8" y="975.6" width="50.4" height="50.4"/><rect class="cls-5" x="368.2" y="1026.1" width="50.4" height="50.4"/></g><g id="_Grid_Repeat_-77"><rect class="cls-5" x="423.7" y="975.6" width="50.4" height="50.4"/><rect class="cls-5" x="474.1" y="1026.1" width="50.4" height="50.4"/></g><g id="_Grid_Repeat_-78"><rect class="cls-5" x="529.6" y="975.6" width="50.4" height="50.4"/><rect class="cls-5" x="580.1" y="1026.1" width="50.4" height="50.4"/></g><g id="_Grid_Repeat_-79"><rect class="cls-5" x="635.5" y="975.6" width="50.4" height="50.4"/><rect class="cls-5" x="686" y="1026.1" width="50.4" height="50.4"/></g><g id="_Grid_Repeat_-80"><rect class="cls-5" x="741.5" y="975.6" width="50.4" height="50.4"/><rect class="cls-5" x="791.9" y="1026.1" width="50.4" height="50.4"/></g><g id="_Grid_Repeat_-81"><rect class="cls-5" x="847.4" y="975.6" width="50.4" height="50.4"/><rect class="cls-5" x="897.8" y="1026.1" width="50.4" height="50.4"/></g><g id="_Grid_Repeat_-82"><rect class="cls-5" x="953.3" y="975.6" width="50.4" height="50.4"/><rect class="cls-5" x="1003.8" y="1026.1" width="50.4" height="50.4"/></g><g id="_Grid_Repeat_-83"><rect class="cls-5" x="1059.2" y="975.6" width="50.4" height="50.4"/><rect class="cls-5" x="1109.7" y="1026.1" width="50.4" height="50.4"/></g><g id="_Grid_Repeat_-84"><rect class="cls-5" x="1165.2" y="975.6" width="50.4" height="50.4"/><rect class="cls-5" x="1215.6" y="1026.1" width="50.4" height="50.4"/></g><g id="_Grid_Repeat_-85"><rect class="cls-5" x="1271.1" y="975.6" width="50.4" height="50.4"/><rect class="cls-5" x="1321.5" y="1026.1" width="50.4" height="50.4"/></g><g id="_Grid_Repeat_-86"><rect class="cls-5" x="1377" y="975.6" width="50.4" height="50.4"/><rect class="cls-5" x="1427.4" y="1026.1" width="50.4" height="50.4"/></g><g id="_Grid_Repeat_-87"><rect class="cls-5" x="1482.9" y="975.6" width="50.4" height="50.4"/><rect class="cls-5" x="1533.4" y="1026.1" width="50.4" height="50.4"/></g><g id="_Grid_Repeat_-88"><rect class="cls-5" x="1588.8" y="975.6" width="50.4" height="50.4"/><rect class="cls-5" x="1639.3" y="1026.1" width="50.4" height="50.4"/></g><g id="_Grid_Repeat_-89"><rect class="cls-5" x="1694.8" y="975.6" width="50.4" height="50.4"/><rect class="cls-5" x="1745.2" y="1026.1" width="50.4" height="50.4"/></g><g id="_Grid_Repeat_-90"><rect class="cls-5" x="1800.7" y="975.6" width="50.4" height="50.4"/><rect class="cls-5" x="1851.1" y="1026.1" width="50.4" height="50.4"/></g></g><rect class="cls-15" y="2" width="1920" height="551"/><path class="cls-17" d="M908,284.2c-3.1,19.3,13.9,39.2,33.4,39.2s36.5-20,33.3-39.3"/><path class="cls-5" d="M819.4,291.9c-21.5-98.4,81-113.6,172.4-101.3,57.8,7.8,87.5,23.4,83.7,101.4"/><path d="M966.3,191.6c2.1-12.8-9.5-26-22.8-25.9-13.3,0-24.9,13.2-22.7,26"/><line class="cls-1" x1="943.6" y1="166.1" x2="942.5" y2="4.2"/><rect class="cls-4" x="940.47" y="4.11" width="5" height="161.9" transform="translate(-.57 6.59) rotate(-.4)"/><rect class="cls-10" x="919.4" y="652.3" width="46.4" height="219.3" rx="3.3" ry="3.3"/><ellipse class="cls-10" cx="943" cy="599.8" rx="146.1" ry="98.8"/><path class="cls-4" d="M943,699.1c-80.8,0-146.6-44.5-146.6-99.2s65.8-99.2,146.6-99.2,146.6,44.5,146.6,99.2-65.8,99.2-146.6,99.2ZM943,501.6c-80.3,0-145.6,44.1-145.6,98.2s65.3,98.2,145.6,98.2,145.6-44.1,145.6-98.2-65.3-98.2-145.6-98.2h0Z"/><ellipse class="cls-7" cx="943.1" cy="583.5" rx="146.5" ry="94.9"/><path class="cls-4" d="M943.1,678.9c-81.1,0-147-42.8-147-95.4s65.9-95.4,147-95.4,147,42.8,147,95.4-65.9,95.4-147,95.4h0ZM943.1,489.1c-80.5,0-146,42.3-146,94.4s65.5,94.4,146,94.4,146-42.3,146-94.4-65.5-94.4-146-94.4h0Z"/><path class="cls-7" d="M866.2,871.6h154c14.3,0,26.3-.4,25.8-22.8v-17.7c0-12.6-11.6-22.8-25.8-22.8h-154c-14.3,0-25.8,10.2-25.8,22.8v17.7c0,12.6,11.6,22.8,25.8,22.8h0Z"/><path class="cls-4" d="M1020.2,872.1h-154c-14.5,0-26.3-10.4-26.3-23.3v-17.7c0-12.8,11.8-23.3,26.3-23.3h154c14.5,0,26.3,10.4,26.3,23.3v17.7c.2,8.6-1.5,14.5-5,18.1-5,5.1-13.3,5.1-21.3,5.1v.1ZM866.2,808.8c-14,0-25.3,10-25.3,22.3v17.7c0,12.3,11.4,22.3,25.3,22.3h154c7.8,0,15.8,0,20.6-4.8,3.4-3.4,4.9-9.1,4.7-17.4v-17.8c0-12.3-11.4-22.3-25.3-22.3h-154Z"/><ellipse class="cls-19" cx="943.4" cy="586.2" rx="67.2" ry="63.4"/><path class="cls-4" d="M943.4,650.1c-37.3,0-67.7-28.7-67.7-63.9s30.4-63.9,67.7-63.9,67.7,28.7,67.7,63.9-30.4,63.9-67.7,63.9ZM943.4,523.2c-36.8,0-66.7,28.2-66.7,62.9s29.9,62.9,66.7,62.9,66.7-28.2,66.7-62.9-29.9-62.9-66.7-62.9Z"/><path class="cls-4" d="M943.3,630.5c-25.9,0-46.9-19.8-46.9-44.1s21-44.1,46.9-44.1,46.9,19.8,46.9,44.1-21,44.1-46.9,44.1ZM943.3,543.3c-25.3,0-45.9,19.3-45.9,43.1s20.6,43.1,45.9,43.1,45.9-19.3,45.9-43.1-20.6-43.1-45.9-43.1Z"/><path class="cls-14" d="M940.4,557.4c-.5,2.9-.9,5.9-1.4,8.8h.6c1.5.9,2.5,3,1.6,5.4-.2.6-.5,1.1-.8,1.5,0,.1-.1.2-.2.4-.6.9-1.4,1.5-2.1,1.5h-.5c-.6,3.8-1.2,7.6-1.8,11.4l18.4,3.5c0-.8.3-1.6.8-2.3.7-1,1.6-1.4,2.5-1.4h.8c1,0,1.9.8,2.4,2,.4.9.5,2,.3,3l26.8,5.1,5.5-28.8-52.8-10.1h-.1Z"/><path d="M988.2,596.9l-27.7-5.2v-.5c.2-1.1,0-2-.3-2.8-.4-1-1.2-1.6-2-1.7h-.7c-.9,0-1.6.5-2.2,1.2-.4.6-.6,1.2-.7,2v.5l-19.5-3.7,2-12.4h.5c0,.1.2.1.3,0h0c.5,0,1.2-.5,1.7-1.2,0-.1.1-.2.2-.3h0c.3-.5.6-1,.8-1.5.8-2.2-.2-4.1-1.4-4.8h-.2l-.7.2,1.6-10.1,53.8,10.3-5.7,29.8h0l.2.2ZM961.5,590.8l25.9,4.9,5.3-27.8-51.9-9.9-1.2,7.8s.2,0,.3.1c1.6,1,2.8,3.2,1.8,6-.2.6-.5,1.2-.9,1.6,0,.1-.1.2-.2.3-.7,1.1-1.7,1.8-2.5,1.7h0l-1.7,10.5,17.4,3.3c.1-.8.4-1.4.8-2,.7-1,1.7-1.6,2.9-1.6h.9c1.2.1,2.3,1,2.8,2.3.3.8.5,1.8.4,2.8h-.1Z"/><path class="cls-8" d="M940.4,557.4l43.3-14.2c-1.7-1.1,15.7,5.6,9.6,24.3"/><path d="M993.7,567.7l-1-.3c2-6.1,1.7-11.5-1-16.2-2.6-4.6-6.9-7-8-7.5l-43.2,14.2-.3-1,42.9-14.1c.2-.4.7-.2,1,0,4.3,1.8,14.5,9.8,9.6,25h0v-.1Z"/><path class="cls-12" d="M946.9,565.6c1.7-2.3,5.2-2,6.2.3.9,1.9-.2,5-2.1,6.2-1.2.8-3,.9-4.1-.3-1.4-1.5-1.2-4.5,0-6.2h0Z"/><path d="M949,573.7c-1,0-2-.3-2.8-1.2-1.8-2-1.5-5.5,0-7.4h0c1-1.4,2.8-2.1,4.5-1.9,1.5.2,2.8,1.1,3.4,2.4,1.1,2.4-.2,6-2.5,7.5-.7.5-1.6.7-2.5.7h0l-.1-.1ZM947.7,566.2c-1,1.4-1.1,3.8-.1,4.9.8.8,2,.7,2.8.2,1.5-1,2.4-3.5,1.8-5-.3-.7-1-1.1-1.8-1.2-1-.1-2,.3-2.7,1.2h0v-.1Z"/><path class="cls-12" d="M981.9,570.8c1.4-2.1,4.1-1.9,4.8,0,.6,1.7-.3,4.5-1.8,5.6-1,.7-2.3.9-3.2-.2-1.1-1.3-.8-4,.2-5.5h0v.1Z"/><path d="M983.2,578.1c-.8,0-1.7-.3-2.3-1.1-1.4-1.8-1.1-4.9.1-6.7h0c.9-1.3,2.3-2.1,3.8-1.9,1.3.2,2.3,1,2.8,2.2.8,2.1-.2,5.4-2.2,6.8-.6.5-1.4.8-2.2.8h0v-.1ZM984.4,570.3c-.5,0-1.2.3-1.7,1h0c-.8,1.3-1,3.4-.2,4.4.7.8,1.7,0,1.8,0,1.2-.9,1.9-3.2,1.5-4.5-.3-.7-.8-.9-1.1-.9h-.3Z"/><path class="cls-12" d="M969.4,582.3c1.7-2.3,5.2-2,6.2.3.9,1.9-.2,5-2.1,6.2-1.2.8-3,.9-4.1-.3-1.4-1.5-1.2-4.5,0-6.2h0Z"/><path d="M971.5,590.4c-1,0-2-.3-2.8-1.2-1.8-2-1.5-5.5,0-7.4h0c1-1.4,2.8-2.1,4.5-1.9,1.5.2,2.8,1.1,3.4,2.4,1.1,2.4-.2,6-2.5,7.5-.7.5-1.6.7-2.5.7h0l-.1-.1ZM970.2,583c-1,1.4-1.1,3.8-.1,4.9.8.8,2,.7,2.8.2,1.5-1,2.4-3.5,1.8-5-.3-.7-1-1.1-1.8-1.2-1-.1-2,.3-2.7,1.2h0v-.1Z"/><path d="M948.9,580.4c.8-1.1,2.5-1,3,.1.4,1-.1,2.5-1,3-.6.4-1.5.4-2-.2-.7-.8-.6-2.2,0-3h0v.1Z"/><path d="M963.8,570.1c.8-1.1,2.5-1,3,.1.4,1-.1,2.5-1,3-.6.4-1.5.4-2-.2-.7-.8-.6-2.2,0-3h0v.1Z"/><rect x="981.89" y="587.06" width="9.2" height="1.5" rx=".6" ry=".6" transform="translate(224.25 1446.68) rotate(-79.2)"/><path d="M987.5,579.9c.4-.5,1.2-.5,1.5,0,.2.5,0,1.2-.5,1.5-.3.2-.7.2-1,0-.3-.4-.3-1.1,0-1.5Z"/><path class="cls-13" d="M950.6,603.4c0,16.6-17.4,16.2-28.3,16.2s-19.9-13.3-19.9-29.8,17.3-16.1,28.3-16.1,20,13.2,20,29.8h0l-.1-.1Z"/><path class="cls-4" d="M923.7,620.1h-1.5c-11.2,0-20.4-13.6-20.4-30.3s1.3-8.3,4-11c5.7-5.7,16.2-5.7,23.9-5.7h.8c11.3,0,20.5,13.6,20.5,30.3s-3.4,12.2-10,14.6c-5.4,2-11.9,2-17.3,2h0v.1ZM928.9,574.2c-7.4,0-17.2.2-22.3,5.4-2.5,2.5-3.7,5.9-3.7,10.2,0,16.2,8.7,29.3,19.4,29.3h.7c5.5,0,12.3,0,17.8-2,6.3-2.3,9.4-6.8,9.4-13.7,0-16.1-8.7-29.3-19.5-29.3h-1.7l-.1.1Z"/><path class="cls-1" d="M911.3,578c4.8,6,7.7,15.2,7.9,24.7"/><path class="cls-4" d="M924.6,597.7c-.9-9.8-5.6-18.4-11.6-21.4l.5-.9c6.3,3.1,11.2,12,12.1,22.2h-1v.1Z"/><path class="cls-4" d="M931.8,595.7c-.9-9.8-5.6-18.4-11.6-21.4l.5-.9c6.3,3.1,11.2,12,12.1,22.2h-1v.1Z"/><path class="cls-4" d="M940.6,595.4c-.9-9.8-5.6-18.4-11.6-21.4l.5-.9c6.3,3.1,11.2,12,12.1,22.2h-1v.1Z"/><rect class="cls-9" x="337.2" y="931.2" width="20.9" height="82.5" rx="3.3" ry="3.3"/><path d="M354.8,1014h-14.3c-2,0-3.5-1.6-3.5-3.5v-75.9c0-2,1.6-3.5,3.5-3.5h14.3c2,0,3.5,1.6,3.5,3.5v75.9c0,2-1.6,3.5-3.5,3.5ZM340.5,931.4c-1.7,0-3,1.4-3,3v75.9c0,1.7,1.4,3,3,3h14.3c1.7,0,3-1.4,3-3v-75.9c0-1.7-1.4-3-3-3h-14.3Z"/><rect class="cls-9" x="280.5" y="930.7" width="19.8" height="82.5" rx="3.3" ry="3.3"/><path d="M297,1013.4h-13.2c-2,0-3.5-1.6-3.5-3.5v-75.9c0-2,1.6-3.5,3.5-3.5h13.2c2,0,3.5,1.6,3.5,3.5v75.9c0,2-1.6,3.5-3.5,3.5ZM283.8,930.9c-1.7,0-3,1.4-3,3v75.9c0,1.7,1.4,3,3,3h13.2c1.7,0,3-1.4,3-3v-75.9c0-1.7-1.4-3-3-3h-13.2Z"/><rect class="cls-4" x="475" y="514.1" width="2.2" height="1"/><path class="cls-9" d="M316.3,633.2c-47.7,0-86.4-32.2-86.4-72v-11.9c0-39.8-.5-119.5,47.2-119.5l69.5-3c47.7,0,56.1,82.7,56.1,122.4v11.9c0,39.8-38.7,72-86.4,72h0v.1Z"/><path class="cls-11" d="M339.8,580.3c-2.3,6.6-2.4,6.1-6.3,11.8s-9.8,10.3-16.4,10.9c-5.8.5-11.6-2-16-6-5-4.6-8.1-11.5-9.1-18.5,13.6-.5,34.1,2.4,47.7,1.9h0l.1-.1Z"/><path d="M315.6,603.6c-5.1,0-10.4-2.2-14.8-6.3-4.8-4.4-8.2-11.3-9.2-18.8v-.5h.5c6.8-.2,15.5.4,23.9,1s17,1.2,23.8,1h.7l-.2.7c-2,5.7-2.4,6.2-4.8,9.8-.4.6-.9,1.3-1.5,2.2-4.5,6.5-10.6,10.5-16.8,11.1h-1.6v-.2ZM292.7,578.9c1.1,7.1,4.3,13.5,8.8,17.7,4.6,4.3,10.3,6.4,15.6,5.9,5.9-.5,11.7-4.4,16-10.7.6-.8,1.1-1.6,1.5-2.2,2.4-3.3,2.8-3.9,4.5-8.8-6.7.2-15.1-.4-23.2-1s-16.5-1.2-23.3-1h0l.1.1Z"/><path d="M317,591.2c-2.6,0-5.2-.2-7.7-.4-7.7-1.1-14-5.8-17.2-12.8l.9-.4c4.2,9.2,12.1,11.7,16.4,12.3,10.5.9,22.4,1,30.1-9.3l.8.6c-6.2,8.2-14.8,10.1-23.3,10.1h0v-.1Z"/><path d="M328.3,524.2c5.6-9.8,21.3-11.3,27.8-3.5,5.5,6.7,3.3,19.2-4.2,25.2-4.7,3.8-12.4,5.6-18.5,1.7-7.6-4.8-9.3-16.1-5-23.4h-.1Z"/><path class="cls-11" d="M328.1,529.9c5.7-8.8,21.4-10.2,27.9-3.1,5.6,6.1,3.3,17.3-4.2,22.7-4.8,3.4-12.5,5-18.6,1.6-7.6-4.3-9.3-14.5-5.1-21.1v-.1Z"/><path class="cls-2" d="M334.5,534.2c4.3-7.2,16.1-8.3,20.9-2.5,4.2,5,2.5,14.1-3.2,18.5-3.6,2.8-9.4,4.1-14,1.3-5.7-3.5-7-11.8-3.8-17.2h0l.1-.1Z"/><path d="M339.1,536.4c2.2-5.9,8.5-6.8,11.1-2.1,2.2,4.1,1.3,11.7-1.7,15.2-1.9,2.3-5,3.4-7.4,1-3-2.9-3.7-9.8-2-14.2v.1Z"/><path d="M357.5,523.7l-.4-.9h0c1.3-.7,5.6-5.1,5.9-6.3h0l1,.2h0c-.7,2.9-3,5.4-6.5,7.1h0v-.1Z"/><path d="M353.2,523.4l-.4-.9h0c1.3-.7,5.6-5.1,5.9-6.3h0l1,.2h0c-.7,2.9-3,5.4-6.5,7.1h0v-.1Z"/><path d="M265.1,524c5.6-9.8,21.3-11.3,27.8-3.5,5.5,6.7,3.3,19.2-4.2,25.2-4.7,3.8-12.4,5.6-18.5,1.7-7.6-4.8-9.3-16.1-5-23.4h-.1Z"/><path class="cls-11" d="M264.9,529.8c5.7-8.8,21.4-10.2,27.9-3.1,5.6,6.1,3.3,17.3-4.2,22.7-4.8,3.4-12.5,5-18.6,1.6-7.6-4.3-9.3-14.5-5.1-21.1v-.1Z"/><path class="cls-2" d="M271.2,534.1c4.3-7.2,16.1-8.3,20.9-2.5,4.2,5,2.5,14.1-3.2,18.5-3.6,2.8-9.4,4.1-14,1.3-5.7-3.5-7-11.8-3.8-17.2h0l.1-.1Z"/><path d="M275.9,536.3c2.2-5.9,8.5-6.8,11.1-2.1,2.2,4.1,1.3,11.7-1.7,15.2-1.9,2.3-5,3.4-7.4,1-3-2.9-3.7-9.8-2-14.2v.1Z"/><path d="M272.8,521.4h0c-2.9-1.7-6.5-4.6-7-8.6h0l1-.1h0c.2,1.4,4.9,6.9,6.5,7.9h.1l-.5.9h0l-.1-.1Z"/><path d="M269,524.7h0c-2.5-1.6-5.6-4.2-6-8h0l1-.1h0c.2,1.3,4.2,6.3,5.5,7.2h0l-.5.9h0Z"/><path d="M314,565.7c-3.2,0-5.4-1.2-6-3.3-.8-2.4.8-5.3,4.1-7.8l.6.8c-3,2.2-4.4,4.7-3.8,6.7.5,1.6,2.4,2.5,5.1,2.6v1h0Z"/><path d="M362.1,509.9c-2.2-4.7-6.9-6.6-10.5-6.9-4.3-.4-8.6,1.1-12.7,2.4l-.6-1.9c4.1-1.4,8.8-2.9,13.5-2.5,5.4.4,10,3.5,12.2,8.1l-1.8.9h0l-.1-.1Z"/><path d="M297.4,509.8c-1.5-3.9-4.3-6.6-7.9-7.5-4.1-1.1-8.9.3-12.9,3.7l-1.3-1.5c4.5-3.9,9.9-5.4,14.7-4.1,4.2,1.1,7.5,4.2,9.2,8.7l-1.9.7h.1Z"/><polygon class="cls-16" points="296.4 649.5 154.6 933.9 478.6 933.9 336.2 649.5 296.4 649.5"/><path d="M479.4,934.4H153.8l.4-.7,141.9-284.7h40.4v.3c.1,0,142.9,285.2,142.9,285.2h0v-.1ZM155.4,933.4h322.4l-141.9-283.5h-39.2l-141.3,283.5h0Z"/><path class="cls-14" d="M271.7,742c.1,3.8.3,7.6.4,11.4.3-.1.6-.1,1,0,2.5.8,4.7,3.2,4.1,6.5-.1.8-.4,1.5-.8,2.1,0,.2-.1.3-.2.5-.6,1.3-1.7,2.3-2.8,2.4-.2,0-.5.1-.7.1.2,4.9.4,9.8.5,14.8h28.9c-.1-1.1,0-2.1.5-3.1.7-1.3,2-2.1,3.3-2.4.4-.1.8-.2,1.2-.3,1.6-.1,3.2.6,4.3,2,.9,1.1,1.3,2.4,1.4,3.8h42.2v-37.6h-83.2l-.1-.2Z"/><path d="M272.6,780.2l-.6-15.8h.5c.2,0,.4,0,.6-.1h.1c.9-.1,1.9-.9,2.4-2.1,0-.2.1-.3.2-.5h0c.4-.7.6-1.3.8-2.1.6-3.1-1.5-5.2-3.7-5.9h-.6l-.7.3-.5-12.7h84.3v38.7h-43.1v-.4c-.1-1.4-.6-2.6-1.3-3.5-1-1.2-2.4-1.9-3.8-1.8-.4,0-.8.1-1.1.2-1.4.3-2.5,1-3.1,2.1-.4.8-.6,1.8-.5,2.8v.6h-29.9v.2ZM273.1,765.4l.5,13.8h27.9c0-1.1.2-2,.6-2.9.8-1.4,2.1-2.3,3.7-2.6.4-.1.8-.2,1.3-.3,1.8-.2,3.5.7,4.7,2.1.8,1,1.3,2.2,1.5,3.6h41.2v-36.7h-82.2l.4,10.3h.6c2.6.8,5.1,3.3,4.4,7-.1.8-.4,1.6-.9,2.2,0,.2-.1.3-.2.5-.7,1.5-1.9,2.5-3.2,2.7h-.3v.3Z"/><path class="cls-8" d="M271.7,742l61.6-28.3c-2.9-.9,25.5,3.3,21.6,28.4"/><path d="M271.9,742.4l-.4-.9,61.2-28.1c.1-.5.7-.4,1.6-.2.8.2,7.8,1.7,13.6,6.8,6.5,5.6,9,13,7.6,22.1l-1-.2c1.2-7.5-.5-13.9-4.9-18.9-5.6-6.4-14-8.6-15.9-9h0l-61.6,28.4h-.2Z"/><path class="cls-12" d="M284,750.8c1.9-3.2,7.3-3.8,9.5-1.2,1.9,2.2,1.1,6.4-1.4,8.4-1.6,1.2-4.2,1.8-6.3.6-2.6-1.6-3.2-5.3-1.7-7.8h-.1Z"/><path d="M288.3,759.8c-1,0-1.9-.2-2.8-.8-2.9-1.8-3.4-5.9-1.9-8.5h0c1-1.7,3-2.8,5.2-3,2.1-.2,4,.5,5.1,1.8.9,1.1,1.3,2.6,1.1,4.2-.2,1.9-1.2,3.8-2.6,4.9-1,.8-2.5,1.4-4,1.4h-.1ZM284.4,751c-1.3,2.1-.9,5.6,1.5,7.1,1.9,1.2,4.3.5,5.8-.5,1.2-1,2.1-2.5,2.3-4.2.1-1.4-.2-2.6-.9-3.5-.9-1.1-2.5-1.6-4.2-1.5-1.9.2-3.6,1.1-4.4,2.5h0l-.1.1Z"/><path class="cls-12" d="M338.6,748.9c1.5-2.9,5.6-3.4,7.3-1,1.5,2,.9,5.8-1.1,7.5-1.2,1.1-3.3,1.7-4.9.5-2-1.4-2.5-4.8-1.3-7h0Z"/><path d="M341.9,757c-.8,0-1.6-.2-2.3-.7-2.3-1.7-2.6-5.4-1.5-7.7h0c.8-1.6,2.4-2.7,4.2-2.8,1.6-.1,3.1.5,4,1.7,1.6,2.2,1,6.2-1.2,8.2-.8.7-2,1.3-3.2,1.3h0ZM339.1,749.1c-1,1.9-.7,5.1,1.2,6.4,1.4,1,3.2.5,4.3-.5,1.8-1.6,2.3-5.1,1-6.9-.6-.9-1.8-1.4-3.1-1.3-1.5.1-2.8,1-3.4,2.3h0Z"/><path class="cls-12" d="M323,766.5c1.9-3.2,7.3-3.8,9.5-1.2,1.9,2.2,1.1,6.4-1.4,8.4-1.6,1.2-4.2,1.8-6.3.6-2.6-1.6-3.2-5.3-1.7-7.8h-.1Z"/><path d="M327.3,775.4c-1,0-1.9-.2-2.8-.8-2.9-1.8-3.4-5.9-1.9-8.5h0c1-1.7,3-2.8,5.2-3,2.1-.2,4,.5,5.1,1.8.9,1.1,1.3,2.6,1.1,4.2-.2,1.9-1.2,3.8-2.6,4.9-1,.8-2.5,1.4-4,1.4h-.1ZM323.5,766.7h0c-1.3,2.1-.9,5.6,1.5,7.1,1.9,1.2,4.3.5,5.8-.5,1.2-1,2.1-2.5,2.3-4.2.1-1.4-.2-2.6-.9-3.5-.9-1.1-2.5-1.6-4.2-1.5-1.9.2-3.6,1.1-4.4,2.5h0l-.1.1Z"/><path d="M291.3,768.9c1-1.6,3.6-1.8,4.7-.6.9,1.1.5,3.1-.7,4.1-.8.6-2.1.9-3.1.3-1.3-.8-1.6-2.6-.9-3.8h0Z"/><path d="M311,752.4c1-1.6,3.6-1.8,4.7-.6.9,1.1.5,3.1-.7,4.1-.8.6-2.1.9-3.1.3-1.3-.8-1.6-2.6-.9-3.8h0Z"/><rect x="349.5" y="763.2" width="2.3" height="11.8" rx="1.1" ry="1.1"/><path d="M349.8,759.1c.5-.8,1.7-.9,2.2-.3.4.5.3,1.6-.3,2-.4.3-1,.5-1.5.1-.6-.4-.7-1.3-.4-1.9h0v.1Z"/><path class="cls-9" d="M337.2,793.3l-6,4.3c-1.7,1.2-4.1.9-5.4-.8l-12.9-17.3c-1.3-1.7-.9-4.1.8-5.3l6-4.3c1.7-1.2,4.1-.9,5.4.8l12.9,17.3c1.3,1.7.9,4.1-.8,5.3Z"/><path d="M329,798.7c-1.3,0-2.5-.6-3.3-1.6l-12.9-17.3c-.6-.9-.9-1.9-.8-3s.7-2,1.6-2.7l6-4.3c1.8-1.3,4.4-.9,5.7.9l12.9,17.3c.6.9.9,1.9.8,3-.2,1.1-.7,2-1.6,2.7l-6,4.3c-.7.5-1.6.8-2.4.8h0v-.1ZM322,769.4c-.7,0-1.5.2-2.1.7l-6,4.3c-.8.6-1.3,1.4-1.4,2.3-.1.9,0,1.9.7,2.6l12.9,17.3c1.2,1.6,3.4,1.9,5,.8l6-4.3c.8-.6,1.3-1.4,1.4-2.3.1-.9,0-1.9-.7-2.6l-12.9-17.3c-.7-.9-1.8-1.4-2.9-1.4h0v-.1Z"/><polyline class="cls-16" points="394.1 762.4 365.9 815.6 323.4 796.8 338.3 786.5 357.4 796.2 388.1 752.7"/><polygon points="366.1 816.2 322.4 796.8 338.3 785.9 357.3 795.5 387.7 752.4 388.5 753 357.6 796.8 338.4 787 324.5 796.7 365.7 814.9 393.7 762.2 394.6 762.6 366.1 816.2"/><path class="cls-9" d="M295.9,801.5l-5.5-5c-1.6-1.4-1.7-3.8-.2-5.4l14.7-15.9c1.4-1.5,3.9-1.7,5.4-.2l5.5,5c1.6,1.4,1.7,3.8.2,5.4l-14.7,15.9c-1.4,1.5-3.9,1.7-5.4.2Z"/><path d="M298.5,802.7c-1,0-2-.3-2.8-1.1l-5.5-5c-.8-.7-1.3-1.7-1.3-2.8s.3-2.1,1.1-2.9l14.7-15.9c1.5-1.6,4.1-1.8,5.8-.3l5.5,5c.8.7,1.3,1.7,1.3,2.8s-.3,2.1-1.1,2.9l-14.7,15.9c-.8.9-1.9,1.3-3,1.3h0v.1ZM307.7,774.3c-1,0-2,.4-2.7,1.2l-14.7,15.9c-.6.7-1,1.6-.9,2.5s.5,1.8,1.2,2.5l5.5,5c1.5,1.3,3.8,1.2,5.1-.2l14.7-15.9c.6-.7,1-1.6.9-2.5s-.5-1.8-1.2-2.5l-5.5-5c-.7-.6-1.6-.9-2.4-.9h0v-.1Z"/><polyline class="cls-16" points="238.4 767.2 264.4 820.3 303.6 801.5 289.9 791.2 272.3 800.9 243.9 757.5"/><polygon points="264.2 821 237.9 767.4 238.8 767 264.6 819.7 302.7 801.4 289.9 791.8 272.1 801.6 243.5 757.8 244.3 757.2 272.4 800.3 289.9 790.6 304.6 801.6 264.2 821"/><polygon class="cls-9" points="294.9 627.7 336.5 627.7 353 679.9 279.4 679.9 294.9 627.7"/><path class="cls-16" d="M367.7,1011.3l-10.5-.3-.4-12.6h.1c0,2.7-7.8,5.3-11.3,5.3s-9.6-2.6-9.6-5.3h0v25.8c0,2.2,1.9,4.1,4.1,4.1h31.5c1.9,0,3.3-1.5,3.3-3.3l-.2-6.7c-.1-3.8-3.2-6.9-7.1-7h.1Z"/><path d="M371.8,1028.9h-31.5c-2.5,0-4.6-2.1-4.6-4.6v-25.8h1c0,2.2,5.6,4.8,9.1,4.8s9.8-2.3,10.7-4.3v-.9h1.1v.5c0,.2,0,.4-.1.6l.4,11.5,10,.3c4.1.1,7.5,3.4,7.6,7.5l.2,6.7c0,1-.3,2-1,2.7s-1.7,1.2-2.7,1.2h0l-.2-.2ZM336.6,1000.6v23.7c0,2,1.6,3.6,3.6,3.6h31.5c.8,0,1.5-.3,2-.8s.8-1.2.8-2l-.2-6.7c-.1-3.5-3-6.4-6.6-6.5l-10.9-.3-.3-11.1c-2.4,2.2-8.1,3.8-10.7,3.8s-7.1-1.5-9.1-3.7h-.1Z"/><path class="cls-16" d="M267.6,1014.4l11.3-.3.4-12.6h-.1c0,2.7,8.4,5.3,12.2,5.3s10.4-2.6,10.4-5.3h0v25.8c0,2.2-2,4.1-4.5,4.1h-34.1c-2,0-3.6-1.5-3.5-3.3l.2-6.7c.1-3.8,3.5-6.9,7.7-7h0Z"/><path d="M297.3,1031.9h-34.1c-1.1,0-2.2-.5-3-1.2-.7-.7-1-1.6-1-2.6l.2-6.7c.1-4.1,3.7-7.3,8.2-7.5l10.8-.3.4-11.5c0-.2-.1-.4-.1-.6v-.5h1.1v.9c1,2.1,8,4.3,11.5,4.3s9.9-2.6,9.9-4.8h1v25.8c0,2.5-2.2,4.6-5,4.6h0l.1.1ZM267.6,1014.9h0c-3.9,0-7.1,3-7.2,6.5l-.2,6.7c0,.7.2,1.3.7,1.9.6.6,1.4.9,2.3.9h34.1c2.2,0,4-1.6,4-3.6v-23.8c-2.1,2.2-7.1,3.8-9.9,3.8s-9.1-1.6-11.6-3.9l-.4,11.2-11.8.3h0Z"/><path class="cls-21" d="M350.5,495.3c13.2,17.4,25.4,35.7,33.8,55.8,9.9,23.7-.8,30.9-19.6,46.7-7.1,6-25.6,14.5-28.8,22.8-2.4,6.2,15.2,75.7,19.4,76.1,27.8,2.7,55.6,4.4,83.6,4.9-24.8-25.1-27.5-63.7-28.8-98.7-.9-25-1.8-50.1-2.8-75.1-1-27.4-2.5-56.4-18.2-79.1-15.6-22.7-50.8-34.4-71.9-16.5,1.5,23.6,18.9,44,33.2,63h0l.1.1Z"/><path d="M440,702.2h-1.2c-27.8-.5-55.9-2.2-83.6-4.9-.5,0-.9-.5-1.5-1.3-4.9-8-20.8-69.2-18.4-75.5,2.2-5.8,11.3-11.4,19.3-16.5,3.8-2.4,7.4-4.7,9.7-6.6,1-.8,1.9-1.6,2.9-2.4,17.2-14.4,25.8-21.6,16.6-43.7-7.2-17.3-17.6-34.5-33.7-55.7-1.3-1.7-2.7-3.5-4-5.3-13.7-17.9-27.9-36.4-29.3-58v-.2l.2-.2c8.4-7.1,19.3-10,31.6-8.4,16.1,2.1,31.8,11.7,41,25,16.2,23.5,17.4,54.5,18.3,79.4l2.8,75.1c1.4,37.9,4.6,74,28.6,98.4l.9.9h0l-.2-.1ZM350.9,495c16.1,21.3,26.6,38.5,33.9,55.9,9.5,22.8.1,30.6-16.9,44.9-.9.8-1.9,1.6-2.9,2.4-2.4,2-6,4.3-9.8,6.7-7.9,4.9-16.8,10.5-18.9,16-2,5.1,11.4,60.7,17.6,73.4.9,1.9,1.3,2,1.3,2,27.2,2.7,54.9,4.3,82.3,4.8-23.5-24.6-26.7-60.5-28.1-98.2l-2.8-75.1c-.9-24.8-2-55.6-18.1-78.8-9-13.1-24.5-22.5-40.3-24.6-8.3-1.1-20.4-.6-30.6,8,1.5,21.2,15.5,39.5,29.1,57.2,1.4,1.8,2.7,3.5,4,5.3h0l.2.1Z"/><path class="cls-21" d="M282.2,495.9c-13.7,17.3-26.4,35.7-35.1,55.8-10.3,23.7.8,30.9,20.4,46.7,7.4,6,26.7,14.5,30,22.8,2.5,6.2-15.9,75.7-20.2,76.1-28.9,2.7-57.9,4.4-86.9,4.9,25.8-25.1,28.6-63.7,29.9-98.7,1-25,1.9-50.1,2.9-75.1,1.1-27.4,2.6-56.4,18.9-79.1s52.9-34.4,74.7-16.5c-1.6,23.6-19.6,44-34.6,63h0v.1Z"/><path d="M189.1,702.8l.9-.9c25-24.4,28.3-60.4,29.8-98.4l2.9-75.1c.9-24.9,2.1-55.9,19-79.4,9.5-13.2,25.7-22.8,42.3-25,12.9-1.7,24.4,1.2,33.1,8.4l.2.2v.3c-1.5,21.6-16.2,40.1-30.5,58-1.4,1.8-2.8,3.5-4.2,5.2l-.4-.3.4.3c-16.7,21.2-27.6,38.4-35.1,55.7-9.6,22.1-.6,29.3,17.2,43.7,1,.8,2,1.6,3,2.4,2.4,1.9,6.1,4.2,10.1,6.6,8.3,5,17.7,10.7,20,16.5,2.5,6.2-13.8,66.8-19,75.3-.6,1-1.1,1.5-1.6,1.5-28.8,2.7-58,4.4-86.9,4.9h-1.3l.1.1ZM291,424.6c-2.5,0-4.8.2-6.9.5-16.4,2.1-32.3,11.6-41.6,24.6-16.7,23.2-17.9,54.1-18.8,78.8l-2.9,75.1c-1.4,37.7-4.8,73.6-29.2,98.2,28.5-.5,57.3-2.2,85.6-4.8,0,0,.4-.1,1.4-1.9,6.5-12.7,20.5-68.3,18.4-73.5-2.2-5.4-11.4-11-19.6-16-4-2.4-7.8-4.7-10.2-6.7-1-.8-2-1.6-3-2.4-17.7-14.2-27.4-22.1-17.5-44.9,7.6-17.4,18.4-34.6,35.2-55.9,1.4-1.7,2.8-3.5,4.2-5.3,14.1-17.7,28.7-36,30.3-57.2-8.2-6.6-17.5-8.5-25.3-8.5h0l-.1-.1Z"/><path class="cls-18" d="M492,205.3c15.7-20.5,24.6-50.6,15.5-76.9-13.1-37.7-58-52.7-84-61-124.9-39.8-319.7-1.1-365.4,101.5-3.5,7.8-22.4,50.3-1.6,79.6,10,14.1,33.6,31.2,251.1,9,126-12.9,162.1-23.1,184.4-52.2h0Z"/><path class="cls-12" d="M352.6,86.7c6.2-15.5,31.1-23.1,43.9-14.5,11,7.3,11.1,25.3.7,36.1-6.5,6.8-18.5,12-29.5,8.9-13.7-3.9-19.8-18.9-15.2-30.5h.1Z"/><path class="cls-12" d="M89.4,154.5c9.1-16.7,42.4-26.2,58.7-18,14.1,7.1,13.1,26.1-1.2,38.1-9,7.6-25,13.8-39.3,11.1-17.8-3.3-25-18.8-18.2-31.3h0v.1Z"/><path class="cls-12" d="M354.6,197.4c5.1-16.3,27.5-23.5,39.5-13.9,10.3,8.2,11,27.3,1.9,38.5-5.7,7.1-16.4,12.2-26.5,8.4-12.6-4.6-18.7-20.8-14.9-33Z"/><path class="cls-12" d="M202.3,93.9c7.2-8.8,31.1-15.1,42.2-11.7,9.6,2.9,8,12.4-2.6,19-6.7,4.2-18.3,8.1-28.2,7.4-12.4-.8-16.7-8.2-11.3-14.7h-.1Z"/><path class="cls-12" d="M176.4,235.6c-14.6-6.5-49.7-.4-62.4,10.1-10.9,9-3.4,19.7,14.5,21.7,11.3,1.2,28.7-.7,41.5-7.3,15.8-8.1,17.3-19.7,6.4-24.5h0Z"/><g class="cls-3"><path class="cls-10" d="M229.7,235c0,1.2-.3,1.9-.7,2.2-.1.1-.3.1-.5.1s-.4,0-.5.1l-3.4,2.9c-.1,0-.2.3-.3.7,0,.4-.2.6-.3.6-.4.3-1.2.2-2.4,0-1.3-.3-2.1-.7-2.4-1.1-.2-.3-.4-.9-.4-1.8v-.9l-3.5-23.9c0-.2-.2-.4-.3-.6-.1-.1-.2-.3-.2-.4,0-.5.2-.9.8-1.2.3-.2,1.1-.2,2.4,0,1.4.3,2.2.8,2.3,1.5,0,.2,0,.5-.2.9-.1.4-.2.7-.2.9l2.9,19.7,2.4-2.1c.1-.2.4-.5.8-.8.2,0,.9.3,2.1,1.1,1.2.9,1.8,1.5,1.8,1.8h0l-.2.3Z"/><path class="cls-10" d="M232.3,210.6v3.6l3.2,21.9c0,.3.1.5.3.7.1.2.2.4.2.5.2,1.5.1,2.4-.3,2.6-.1,0-.8,0-1.9-.1-1.1-.2-1.8-.3-2-.5-.4-.4-.7-.8-.7-1.1v-.9l-3.6-25.1c0-.1,0-.3-.1-.4,0-.1-.1-.3-.1-.4,0-.6.2-1,.8-1.3.2,0,.6-.2,1.2-.2h1.9c.8.1,1.2.5,1.3,1h0l-.2-.3Z"/><path class="cls-10" d="M249.1,208c-.4,3.3-.7,8.3-.9,15-.2,6-.2,9.4,0,10.2,0,0,0,.6.3,1.6.1.5.1,1.1,0,1.5,0,.6-.3,1-.6,1.1-.5.2-1.5.2-3.1-.2s-2.5-.8-2.8-1.2c-.1-.2-.2-.5-.3-.9,0-.5-.2-.8-.2-.9-3.2-8.2-5.4-15.7-6.8-22.4,0-.1-.1-.4-.2-.7,0-.3-.1-.5-.2-.7,0-.9.1-1.4.5-1.7.2-.1.9,0,2.2.3,1.4.3,2.1.7,2.4,1,.1.2.2.7.2,1.5v1.4c.6,2.4,1.2,4.6,1.7,6.4,1.2,4.5,2,7.1,2.4,7.9,0-2.3,0-5.2.3-8.8.2-3.6.3-6.6.3-8.9v-1.9c.1-.6.3-1,.7-1.3.2-.2.9,0,2,.2,1.2.4,1.9.9,2.3,1.5h-.2Z"/><path class="cls-10" d="M254.3,214.2c0,.2,0,.7-.1,1.4-.2.8-.2,1.4-.2,1.8,0,.2,0,.5.1.9,0,.7,0,1.1-.2,1.3s-.8,0-1.8-.3c-1-.4-1.5-.8-1.7-1.1-.1-.2,0-.9,0-2.1.1-1,.3-1.8.4-2.3,0-.3.2-.4.5-.5-.1,0,.4,0,1.6.1.7,0,1.1.3,1.2.7h0l.2.1ZM256.6,230.6c0,.2,0,.7-.1,1.4-.2.8-.2,1.4-.2,1.8,0,.2,0,.5.1.8,0,.7,0,1.1-.2,1.3-.2.2-.8,0-1.8-.3-1-.4-1.5-.8-1.7-1-.1-.2,0-.9,0-2.1.1-1,.3-1.8.4-2.3,0-.3.2-.4.5-.5-.1,0,.4,0,1.6.1.7,0,1.1.3,1.2.7h0l.2.1Z"/></g><path class="cls-11" d="M222.7,225c0,1.2-.3,1.9-.7,2.2-.1.1-.3.1-.5.1s-.4,0-.5.1l-3.4,2.9c-.1,0-.2.3-.3.7,0,.4-.2.6-.3.6-.4.3-1.2.2-2.4,0-1.3-.3-2.1-.7-2.4-1.1-.2-.3-.4-.9-.4-1.8v-.9l-3.5-23.9c0-.2-.2-.4-.3-.6-.1-.1-.2-.3-.2-.4,0-.5.2-.9.8-1.2.3-.2,1.1-.2,2.4,0,1.4.3,2.2.8,2.3,1.5,0,.2,0,.5-.2.9-.1.4-.2.7-.2.9l2.9,19.7,2.4-2.1c.1-.2.4-.5.8-.8.2,0,.9.3,2.1,1.1,1.2.9,1.8,1.5,1.8,1.8h0l-.2.3Z"/><path class="cls-11" d="M225.3,200.6v3.6l3.2,21.9c0,.3.1.5.3.7.1.2.2.4.2.5.2,1.5.1,2.4-.3,2.6-.1,0-.8,0-1.9-.1-1.1-.2-1.8-.3-2-.5-.4-.4-.7-.8-.7-1.1v-.9l-3.6-25.1c0-.1,0-.3-.1-.4,0-.1-.1-.3-.1-.4,0-.6.2-1,.8-1.3.2,0,.6-.2,1.2-.2h1.9c.8.1,1.2.5,1.3,1h0l-.2-.3Z"/><path class="cls-11" d="M242.1,198c-.4,3.3-.7,8.3-.9,15-.2,6-.2,9.4,0,10.2,0,0,0,.6.3,1.6.1.5.1,1.1,0,1.5,0,.6-.3,1-.6,1.1-.5.2-1.5.2-3.1-.2s-2.5-.8-2.8-1.2c-.1-.2-.2-.5-.3-.9,0-.5-.2-.8-.2-.9-3.2-8.2-5.4-15.7-6.8-22.4,0-.1-.1-.4-.2-.7,0-.3-.1-.5-.2-.7,0-.9.1-1.4.5-1.7.2-.1.9,0,2.2.3,1.4.3,2.1.7,2.4,1,.1.2.2.7.2,1.5v1.4c.6,2.4,1.2,4.6,1.7,6.4,1.2,4.5,2,7.1,2.4,7.9,0-2.3,0-5.2.3-8.8.2-3.6.3-6.6.3-8.9v-1.9c.1-.6.3-1,.7-1.3.2-.2.9,0,2,.2,1.2.4,1.9.9,2.3,1.5h-.2Z"/><path class="cls-11" d="M247.3,204.2c0,.2,0,.7-.1,1.4-.2.8-.2,1.4-.2,1.8,0,.2,0,.5.1.9,0,.7,0,1.1-.2,1.3s-.8,0-1.8-.3c-1-.4-1.5-.8-1.7-1.1-.1-.2,0-.9,0-2.1.1-1,.3-1.8.4-2.3,0-.3.2-.4.5-.5-.1,0,.4,0,1.6.1.7,0,1.1.3,1.2.7h0l.2.1ZM249.6,220.6c0,.2,0,.7-.1,1.4-.2.8-.2,1.4-.2,1.8,0,.2,0,.5.1.8,0,.7,0,1.1-.2,1.3s-.8,0-1.8-.3c-1-.4-1.5-.8-1.7-1-.1-.2,0-.9,0-2.1.1-1,.3-1.8.4-2.3,0-.3.2-.4.5-.5-.1,0,.4,0,1.6.1.7,0,1.1.3,1.2.7h0l.2.1Z"/><g class="cls-3"><path class="cls-10" d="M207.7,149.9c1.8.9,3,2.7,3.5,5.7.4,2.1.2,5-.4,8.5-.7,3.9-1.8,6.1-3.1,6.4-.3,0-.6,0-1-.4-.4-.3-.8-.6-1.2-.9l1,6c0,.3.2.6.3,1,.2.5.4.9.4,1.1v1.2c0,.6-.2.9-.5,1.1-.3.1-1,0-2.1-.4-1.2-.4-1.9-.9-2.3-1.3-.2-.3-.3-.8-.2-1.5v-1.2l-3.8-21.9c0-.1-.1-.4-.3-.7s-.3-.6-.3-.8c0-1.2.1-1.8.6-1.9,0,0,.4,0,1.1.2s1.1.2,1.5.1c.5,0,1.1-.4,1.8-1s1.2-.9,1.6-1h.6c.4,0,.9.3,1.4.8.6.6,1.1.9,1.3,1h0l.1-.1ZM206.1,153.1c-.4,0-.9.5-1.5,1.2s-1,1.5-1.3,2.3l1.5,8.6c.8-.6,1.4-2.2,1.8-4.9.4-2.4.4-4.4.1-6-.1-.8-.4-1.2-.7-1.1h0l.1-.1Z"/><path class="cls-10" d="M224.6,175.2c-.4.1-.8.1-1.2,0-.5,0-.9-.2-1.4-.3-.5,0-1.4-.2-2.6-.5-1.5-.5-2.8-1.9-3.9-4.2-1-2-1.7-4.6-2.2-7.6-.4-2.5-.6-5.4-.6-8.9,0-4.6.8-7.1,2.1-7.4h1c1.2-.8,1.9-1.2,2.3-1.3h.5c2.1,0,4,1.3,5.7,4.3,1.5,2.6,2.6,6,3.3,10,.6,3.8.7,7.1.2,10.1-.5,3.2-1.6,5.1-3.3,5.8h.1ZM219.7,149.2c-.4,0-.6.7-.7,2.3s-.3,2.5-.7,2.6c0,0-.2,0-.4-.1s-.3-.1-.4-.1c-.3,1.9-.1,4.5.4,7.8.4,2.6,1,4.8,1.7,6.5.8,2,1.6,3,2.4,3,.9,0,1.5-1.4,1.5-4.4,0-2.6-.2-5.6-.8-9.1-.4-2.3-.9-4.3-1.4-5.8-.6-1.6-1.1-2.5-1.6-2.6h0v-.1Z"/><path class="cls-10" d="M231.9,144v3.6l3.7,21.8c0,.3.1.5.3.7s.2.4.2.5c.3,1.5.2,2.4-.2,2.6h-1.9c-1.1-.1-1.8-.3-2-.5-.4-.4-.7-.7-.8-1.1v-.9l-4.3-25c0-.1,0-.3-.2-.4,0-.1-.1-.3-.2-.4,0-.6.2-1,.7-1.3.2,0,.6-.2,1.2-.3h1.9c.8.1,1.2.4,1.3,1h0l.3-.3Z"/><path class="cls-10" d="M248.4,140.4v1.8l4,23.4s.1.4.4,1.3c.3,1.1.3,1.8,0,2.2s-.9.6-2,.7c-.6,0-1.4,0-2.2-.2-1.1-.2-1.8-.6-1.9-1.1,0-.3-.1-.8-.3-1.5-1.5-3.3-3.3-6.9-5.3-10.8l1.8,10.5c0,.2.1.4.3.7l.3.6c.1.3.2.7.3,1,.2.9,0,1.5-.7,1.6-.6.1-1.5,0-2.6-.2s-1.7-.5-1.9-.7c-.3-.3-.4-.8-.2-1.5s.1-1,.1-1.2l-3.8-22.2c0-.1,0-.4-.2-.6-.1-.3-.1-.5-.1-.7,0-.8.3-1.5.7-1.9,0,0,.3-.1.5-.2.7-.1,1.4-.2,2.1,0,.9,0,1.6.4,2.1.8.6.6,1.6,2.6,3,6.1,1.7,4.2,2.9,7.1,3.7,8.5l-2.4-13.9c0-.2-.1-.4-.2-.8s-.2-.6-.2-.8v-.4c0-.4.3-.8.8-1.1.4-.3.8-.4,1.2-.5h1.5c.8.2,1.3.4,1.4.8h0l-.2.3Z"/><path class="cls-10" d="M263.3,141.5c-.1,0-.3,0-.6-.1-.3-.1-.5-.1-.6,0l-2.4,1.6,3.2,18.7c.1.7.4,1.4.7,2.2.1.2.2.7.2,1.4,0,.8,0,1.2-.2,1.5h-.2c-.6.1-1.4.1-2.4,0-1.2-.1-1.9-.3-2.1-.6-.3-.4-.4-.9-.3-1.7.1-.7.1-1.1.1-1.4l-3-17.6-1.7,1-.4.4c-.2.2-.3.3-.5.3-.4,0-1.1-.6-1.9-1.8s-1.3-1.9-1.3-2.4c0-.6.4-1.1,1-1.5.2-.1.4-.2.6-.2s.5,0,.6-.1l8.3-5.1s.3-.2.7-.6c.2-.2.5-.3.7-.3.5,0,.9.2,1.1.6.2.3.4.8.6,1.5.3.9.5,1.7.7,2.4,0,.5.1.9,0,1.2,0,.3-.3.5-.8.6h-.1Z"/><path class="cls-10" d="M266.8,144.3v1.4c-.1.8-.2,1.4-.1,1.8,0,.2.1.5.1.9,0,.7,0,1.1-.2,1.3s-.8.1-1.8-.3c-1-.4-1.5-.7-1.7-1-.1-.2-.1-.9,0-2.1.1-1,.2-1.8.4-2.3,0-.3.2-.4.5-.5-.1,0,.4,0,1.6,0,.7,0,1.1.2,1.3.7h0l-.1.1ZM269.6,160.6v1.4c-.1.8-.2,1.4-.1,1.8,0,.2,0,.5.1.8,0,.7,0,1.1-.2,1.3s-.8.1-1.8-.3c-1-.4-1.5-.7-1.7-1-.1-.2-.1-.9,0-2.1.1-1,.2-1.8.4-2.3,0-.3.2-.4.5-.5-.1,0,.4,0,1.6,0,.7,0,1.1.2,1.3.7h0l-.1.2Z"/></g><path class="cls-11" d="M200.7,139.9c1.8.9,3,2.7,3.5,5.7.4,2.1.2,5-.4,8.5-.7,3.9-1.8,6.1-3.1,6.4-.3,0-.6,0-1-.4-.4-.3-.8-.6-1.2-.9l1,6c0,.3.2.6.3,1,.2.5.4.9.4,1.1v1.2c0,.6-.2.9-.5,1.1-.3.1-1,0-2.1-.4-1.2-.4-1.9-.9-2.3-1.3-.2-.3-.3-.8-.2-1.5v-1.2l-3.8-21.9c0-.1-.1-.4-.3-.7s-.3-.6-.3-.8c0-1.2.1-1.8.6-1.9,0,0,.4,0,1.1.2s1.1.2,1.5.1c.5,0,1.1-.4,1.8-1s1.2-.9,1.6-1h.6c.4,0,.9.3,1.4.8.6.6,1.1.9,1.3,1h0l.1-.1ZM199.1,143.1c-.4,0-.9.5-1.5,1.2s-1,1.5-1.3,2.3l1.5,8.6c.8-.6,1.4-2.2,1.8-4.9.4-2.4.4-4.4.1-6-.1-.8-.4-1.2-.7-1.1h0l.1-.1Z"/><path class="cls-11" d="M217.6,165.2c-.4.1-.8.1-1.2,0-.5,0-.9-.2-1.4-.3-.5,0-1.4-.2-2.6-.5-1.5-.5-2.8-1.9-3.9-4.2-1-2-1.7-4.6-2.2-7.6-.4-2.5-.6-5.4-.6-8.9,0-4.6.8-7.1,2.1-7.4h1c1.2-.8,1.9-1.2,2.3-1.3h.5c2.1,0,4,1.3,5.7,4.3,1.5,2.6,2.6,6,3.3,10,.6,3.8.7,7.1.2,10.1-.5,3.2-1.6,5.1-3.3,5.8h.1ZM212.7,139.2c-.4,0-.6.7-.7,2.3s-.3,2.5-.7,2.6c0,0-.2,0-.4-.1s-.3-.1-.4-.1c-.3,1.9-.1,4.5.4,7.8.4,2.6,1,4.8,1.7,6.5.8,2,1.6,3,2.4,3,.9,0,1.5-1.4,1.5-4.4,0-2.6-.2-5.6-.8-9.1-.4-2.3-.9-4.3-1.4-5.8-.6-1.6-1.1-2.5-1.6-2.6h0v-.1Z"/><path class="cls-11" d="M224.9,134v3.6l3.7,21.8c0,.3.1.5.3.7s.2.4.2.5c.3,1.5.2,2.4-.2,2.6h-1.9c-1.1-.1-1.8-.3-2-.5-.4-.4-.7-.7-.8-1.1v-.9l-4.3-25c0-.1,0-.3-.2-.4,0-.1-.1-.3-.2-.4,0-.6.2-1,.7-1.3.2,0,.6-.2,1.2-.3h1.9c.8.1,1.2.4,1.3,1h0l.3-.3Z"/><path class="cls-11" d="M241.4,130.4v1.8l4,23.4s.1.4.4,1.3c.3,1.1.3,1.8,0,2.2s-.9.6-2,.7c-.6,0-1.4,0-2.2-.2-1.1-.2-1.8-.6-1.9-1.1,0-.3-.1-.8-.3-1.5-1.5-3.3-3.3-6.9-5.3-10.8l1.8,10.5c0,.2.1.4.3.7l.3.6c.1.3.2.7.3,1,.2.9,0,1.5-.7,1.6-.6.1-1.5,0-2.6-.2s-1.7-.5-1.9-.7c-.3-.3-.4-.8-.2-1.5s.1-1,.1-1.2l-3.8-22.2c0-.1,0-.4-.2-.6-.1-.3-.1-.5-.1-.7,0-.8.3-1.5.7-1.9,0,0,.3-.1.5-.2.7-.1,1.4-.2,2.1,0,.9,0,1.6.4,2.1.8.6.6,1.6,2.6,3,6.1,1.7,4.2,2.9,7.1,3.7,8.5l-2.4-13.9c0-.2-.1-.4-.2-.8s-.2-.6-.2-.8v-.4c0-.4.3-.8.8-1.1.4-.3.8-.4,1.2-.5h1.5c.8.2,1.3.4,1.4.8h0l-.2.3Z"/><path class="cls-11" d="M256.3,131.5c-.1,0-.3,0-.6-.1s-.5-.1-.6,0l-2.4,1.6,3.2,18.7c.1.7.4,1.4.7,2.2.1.2.2.7.2,1.4,0,.8,0,1.2-.2,1.5h-.2c-.6.1-1.4.1-2.4,0-1.2-.1-1.9-.3-2.1-.6-.3-.4-.4-.9-.3-1.7.1-.7.1-1.1.1-1.4l-3-17.6-1.7,1-.4.4c-.2.2-.3.3-.5.3-.4,0-1.1-.6-1.9-1.8s-1.3-1.9-1.3-2.4c0-.6.4-1.1,1-1.5.2-.1.4-.2.6-.2s.5,0,.6-.1l8.3-5.1s.3-.2.7-.6c.2-.2.5-.3.7-.3.5,0,.9.2,1.1.6.2.3.4.8.6,1.5.3.9.5,1.7.7,2.4,0,.5.1.9,0,1.2,0,.3-.3.5-.8.6h-.1Z"/><path class="cls-11" d="M259.8,134.3v1.4c-.1.8-.2,1.4-.1,1.8,0,.2.1.5.1.9,0,.7,0,1.1-.2,1.3s-.8.1-1.8-.3c-1-.4-1.5-.7-1.7-1-.1-.2-.1-.9,0-2.1.1-1,.2-1.8.4-2.3,0-.3.2-.4.5-.5-.1,0,.4,0,1.6,0,.7,0,1.1.2,1.3.7h0l-.1.1ZM262.6,150.6v1.4c-.1.8-.2,1.4-.1,1.8,0,.2,0,.5.1.8,0,.7,0,1.1-.2,1.3s-.8.1-1.8-.3c-1-.4-1.5-.7-1.7-1-.1-.2-.1-.9,0-2.1.1-1,.2-1.8.4-2.3,0-.3.2-.4.5-.5-.1,0,.4,0,1.6,0,.7,0,1.1.2,1.3.7h0l-.1.2Z"/><path class="cls-10" d="M1086.5,712.1h150l26.4-150.2c2-11.2-6.3-20.9-16.8-20.9l.4-1.3-33.7,129.3-102.3,11.3c-13.4,1.5-23.6,13.5-23.9,28.1v3.7h-.1Z"/><path d="M1237.4,713.1h-151.9v-4.7c.3-15,11-27.5,24.8-29.1l101.6-11.2,32.9-126.1h-.1l.8-2.6,1.9.5h0c4.8.4,9.2,2.7,12.4,6.5,3.6,4.3,5.1,10,4.1,15.7l-26.6,151.1h0l.1-.1ZM1087.5,711.1h148.2l26.3-149.4c.9-5.1-.4-10.2-3.7-14-2.9-3.4-7-5.5-11.4-5.7l-33.4,128h-.7l-102.3,11.4c-12.9,1.4-22.8,13.1-23,27.1v2.7h0v-.1Z"/><polygon class="cls-10" points="1210.6 712.1 1232.6 712.1 1266.6 863.9 1250.2 864.6 1210.6 712.1"/><path d="M1249.4,865.6l-.2-.8-40-153.8h24.1l34.4,153.8-18.4.8h.1ZM1211.8,713.1l39.1,150.5,14.4-.6-33.6-149.9h-19.9Z"/><polygon class="cls-10" points="1086.5 712.1 1118.5 712.1 1102.5 863.9 1076.5 863.9 1086.5 712.1"/><path d="M1103.4,864.9h-28l10.1-153.9h34.1v1.1c-.1,0-16.2,152.8-16.2,152.8h0ZM1077.6,862.9h24l15.8-149.9h-30l-9.9,149.9h.1Z"/><rect x="1115.6" y="738.9" width="100.1" height="2"/><path class="cls-10" d="M796.7,721h-150l-26.4-150.2c-2-11.2,6.3-20.9,16.8-20.9l-.4-1.3,33.7,129.3,102.3,11.3c13.4,1.5,23.6,13.5,23.9,28.1v3.7h.1Z"/><path d="M797.7,722h-151.9l-26.6-151.1c-1-5.7.5-11.4,4.1-15.7,3.2-3.8,7.6-6,12.4-6.4h0l1.9-.6.8,2.6h-.1l32.9,126.1,101.6,11.2c13.9,1.5,24.5,14,24.8,29.1v4.7h0l.1.1ZM647.5,720h148.2v-2.7c-.3-14-10.2-25.7-23-27.1l-103-11.4-.2-.7-33.2-127.3c-4.4.2-8.5,2.3-11.4,5.7-3.2,3.8-4.5,8.9-3.7,14l26.3,149.4h0v.1Z"/><polygon class="cls-10" points="672.7 721 650.7 721 616.7 872.9 633 873.6 672.7 721"/><path d="M633.8,874.6l-18.4-.8,34.4-153.8h24.1l-40.2,154.6h.1ZM617.9,871.9l14.4.6,39.1-150.5h-19.9l-33.6,149.9h0Z"/><polygon class="cls-10" points="796.7 721 764.7 721 780.7 872.9 806.7 872.9 796.7 721"/><path d="M807.8,873.9h-28l-16.2-153.9h34.1l10.1,153.9h0ZM781.6,871.9h24l-9.9-149.9h-30l15.8,149.9h.1Z"/><rect x="667.5" y="747.9" width="100.1" height="2"/><rect class="cls-10" x="1421.6" y="308.6" width="321" height="665"/><path d="M1743.6,974.6h-323V307.6h323v667ZM1422.6,972.6h319V309.6h-319v663Z"/><rect class="cls-7" x="1447.6" y="358.6" width="269" height="564"/><path d="M1717.6,923.6h-271V357.6h271v566ZM1448.6,921.6h267V359.6h-267v562Z"/><rect class="cls-10" x="1479.6" y="400.6" width="204" height="216"/><rect class="cls-10" x="1479.6" y="659.6" width="204" height="229"/><path d="M1692.1,651.1h0c-5.5,0-10-4.5-10-10h0c0-5.5,4.5-10,10-10h0c5.5,0,10,4.5,10,10h0c0,5.5-4.5,10-10,10Z"/><path class="cls-4" d="M1692.1,651.6c-5.8,0-10.5-4.7-10.5-10.5s4.7-10.5,10.5-10.5,10.5,4.7,10.5,10.5-4.7,10.5-10.5,10.5ZM1692.1,631.6c-5.2,0-9.5,4.3-9.5,9.5s4.3,9.5,9.5,9.5,9.5-4.3,9.5-9.5-4.3-9.5-9.5-9.5Z"/><rect x="1636.1" y="633.1" width="45" height="15" rx="5" ry="5"/><path class="cls-4" d="M1676.1,648.6h-35c-3,0-5.5-2.5-5.5-5.5v-5c0-3,2.5-5.5,5.5-5.5h35c3,0,5.5,2.5,5.5,5.5v5c0,3-2.5,5.5-5.5,5.5ZM1641.1,633.6c-2.5,0-4.5,2-4.5,4.5v5c0,2.5,2,4.5,4.5,4.5h35c2.5,0,4.5-2,4.5-4.5v-5c0-2.5-2-4.5-4.5-4.5h-35Z"/></g></g></svg>