<?xml version="1.0" encoding="UTF-8"?><svg id="Layer_1" xmlns="http://www.w3.org/2000/svg" width="255" height="175" viewBox="0 0 255 175"><defs><style>.cls-1{fill:#ffc556;}.cls-2{fill:#f7931e;}.cls-3{fill:#ffd956;}</style></defs><path class="cls-3" d="M2.73,75.64c.4,9.68.81,19.36,1.21,29.03.83-.28,1.78-.33,2.84-.05,7.52,1.97,13.93,8.06,12.11,16.41-.45,2.04-1.31,3.84-2.48,5.4-.17.44-.36.88-.58,1.29-1.72,3.31-5.01,5.79-8.45,6.03-.75.22-1.49.34-2.21.35.52,12.52,1.04,25.03,1.56,37.55l86.4-.09c-.37-2.66.03-5.36,1.62-7.83,2.21-3.44,6.01-5.39,9.96-6.03,1.13-.34,2.35-.57,3.68-.67,4.71-.34,9.5,1.51,12.73,4.96,2.57,2.75,3.8,6.05,4.19,9.54,41.97-.04,83.95-.09,125.92-.13v-95.63l-248.51-.13Z"/><path d="M4.81,173.64l-1.73-41.54h2.07c.53-.02,1.07-.1,1.65-.28l.43-.08c2.63-.18,5.37-2.17,6.82-4.95.16-.31.32-.66.49-1.1l.1-.25.16-.22c1.04-1.39,1.76-2.95,2.12-4.62,1.12-5.13-1.74-11.71-10.66-14.05-.61-.16-1.18-.16-1.69.01l-2.53.85-1.41-33.78,252.59.13v99.62l-129.71.13-.2-1.78c-.38-3.42-1.58-6.16-3.66-8.39-2.81-3.01-6.98-4.63-11.13-4.33-1.13.08-2.23.28-3.25.59l-.26.06c-3.76.61-6.89,2.48-8.59,5.13-1.21,1.89-1.66,4.07-1.32,6.48l.31,2.27-90.61.09ZM7.24,135.85l1.41,33.79,82.35-.08c.03-2.5.72-4.82,2.07-6.92,2.33-3.63,6.3-6.08,11.19-6.9,1.27-.37,2.61-.61,3.99-.71,5.34-.38,10.7,1.71,14.33,5.59,2.28,2.44,3.77,5.42,4.45,8.9l122.21-.12v-91.63l-244.42-.12,1.03,24.81c.47.03.95.11,1.43.24,8.04,2.11,15.71,8.88,13.55,18.77-.47,2.15-1.37,4.15-2.67,5.95-.19.46-.37.87-.57,1.24-2.06,3.96-5.91,6.72-9.87,7.08-.16.05-.33.09-.49.12Z"/><path class="cls-1" d="M2.73,75.64L186.73,3.64c-8.63-2.34,76.14,8.41,64.51,72.13"/><path d="M3.46,77.5l-1.46-3.72L184.34,2.42c.8-1.64,3.32-1.1,7.28-.27,5.55,1.18,24.88,5.98,40.66,18.42,18.02,14.21,25.06,32.9,20.92,55.54l-3.93-.72c3.05-16.72-.48-31.22-10.51-43.1-16.32-19.33-44.56-25.94-51.19-26.85l-.11.04L3.46,77.5Z"/><path class="cls-2" d="M39.32,98.08c5.75-8.27,21.7-9.54,28.27-2.93,5.65,5.69,3.35,16.22-4.28,21.23-4.83,3.17-12.65,4.7-18.84,1.46-7.71-4.02-9.43-13.6-5.14-19.77Z"/><path d="M52.13,120.63c-2.75,0-5.56-.56-8.13-1.9-3.84-2-6.52-5.4-7.54-9.57-1.01-4.09-.26-8.34,2.04-11.65h0c2.88-4.13,8.39-6.93,14.75-7.49,6.13-.54,11.76,1.12,15.04,4.43,2.58,2.6,3.77,6.23,3.35,10.23-.52,4.99-3.44,9.68-7.79,12.54-2.99,1.97-7.3,3.42-11.73,3.42ZM55.53,91.92c-.69,0-1.39.03-2.1.09-5.78.5-10.75,2.99-13.29,6.64h0c-1.98,2.84-2.61,6.5-1.74,10.03.89,3.6,3.2,6.54,6.52,8.28,6,3.13,13.45,1.46,17.83-1.41,3.86-2.54,6.44-6.68,6.9-11.07.35-3.39-.63-6.45-2.78-8.62-2.5-2.52-6.64-3.94-11.35-3.94Z"/><path class="cls-2" d="M202.39,93.17c4.46-7.46,16.82-8.61,21.9-2.64,4.38,5.14,2.6,14.64-3.32,19.16-3.74,2.86-9.8,4.24-14.6,1.32-5.97-3.63-7.31-12.27-3.98-17.84Z"/><path d="M212.31,114.13c-2.27,0-4.58-.54-6.71-1.83-6.87-4.18-8.04-13.95-4.49-19.89,2.4-4.02,7-6.68,12.32-7.13,4.89-.41,9.38,1.19,12.02,4.28,2.15,2.52,3.11,6.04,2.7,9.89-.48,4.54-2.82,8.82-6.25,11.44-2.44,1.87-5.95,3.24-9.58,3.24ZM214.94,88.21c-.42,0-.84.02-1.27.05-4.35.37-8.09,2.49-9.99,5.68h0c-2.83,4.74-1.94,12.5,3.47,15.79,4.33,2.63,9.73,1.2,12.91-1.23,2.79-2.13,4.69-5.64,5.09-9.38.32-3.02-.39-5.73-2-7.62-1.79-2.1-4.8-3.29-8.22-3.29Z"/><path class="cls-2" d="M155.91,137.87c5.75-8.27,21.7-9.54,28.27-2.93,5.65,5.69,3.35,16.22-4.28,21.23-4.83,3.17-12.65,4.7-18.84,1.46-7.71-4.02-9.43-13.6-5.14-19.77Z"/><path d="M168.71,160.92c-2.83,0-5.71-.58-8.35-1.96-3.97-2.07-6.74-5.58-7.8-9.9-1.04-4.23-.27-8.63,2.12-12.06h0c2.96-4.25,8.61-7.13,15.12-7.7,6.28-.55,12.06,1.16,15.44,4.57,2.69,2.71,3.93,6.48,3.49,10.64-.54,5.14-3.53,9.96-8.02,12.91-3.06,2.01-7.47,3.5-12.01,3.5ZM157.14,138.73h0c-1.89,2.72-2.5,6.23-1.67,9.63.85,3.46,3.08,6.29,6.27,7.95,5.82,3.04,13.06,1.41,17.33-1.39,3.74-2.45,6.24-6.46,6.68-10.71.34-3.24-.6-6.16-2.64-8.21-2.72-2.74-7.73-4.17-13.05-3.7-5.63.49-10.46,2.89-12.92,6.43Z"/><path d="M61.26,144.06c2.83-4.06,10.69-4.68,13.93-1.44,2.78,2.79,1.65,7.95-2.11,10.41-2.38,1.55-6.23,2.3-9.28.72-3.8-1.97-4.65-6.67-2.53-9.69Z"/><path d="M119.94,102.14c2.83-4.06,10.69-4.68,13.93-1.44,2.78,2.79,1.65,7.95-2.11,10.41-2.38,1.55-6.23,2.3-9.28.72-3.8-1.97-4.65-6.67-2.53-9.69Z"/><rect x="234.73" y="129.64" width="7" height="30" rx="3.29" ry="3.29"/><path d="M235.7,119.11c1.35-2.02,5.1-2.33,6.65-.71,1.33,1.39.79,3.96-1.01,5.18-1.13.77-2.97,1.15-4.43.36-1.81-.98-2.22-3.32-1.21-4.82Z"/></svg>