<?xml version="1.0" encoding="UTF-8"?><svg id="Layer_1" xmlns="http://www.w3.org/2000/svg" width="136" height="87" viewBox="0 0 136 87"><defs><style>.cls-1{fill:none;}.cls-2{fill:#231f20;}.cls-3{fill:#e3c28d;}</style></defs><path class="cls-3" d="M135,55.96c0,30.31-48.4,29.63-78.71,29.63S1,61.28,1,30.96,49.18,1.46,79.5,1.46s55.5,24.19,55.5,54.5Z"/><path class="cls-2" d="M60.34,86.09c-.7,0-1.4,0-2.09,0h-1.97c-30.76,0-55.79-24.73-55.79-55.13C.5,17.65,9.36,9.04,27.58,4.64,42.88.94,61.89.95,77.18.96h2.32c30.88,0,56,24.67,56,55,0,13.36-8.95,22-27.36,26.43-14.75,3.55-32.84,3.7-47.8,3.7ZM74.72,1.96c-14.77,0-32.53.17-46.91,3.65C10.11,9.89,1.5,18.18,1.5,30.96c0,29.85,24.58,54.13,54.79,54.13h1.97c15.29.02,34.32.02,49.65-3.67,17.89-4.3,26.59-12.63,26.59-25.46,0-29.78-24.67-54-55-54h-2.32c-.81,0-1.63,0-2.46,0Z"/><path class="cls-1" d="M25.9,9.37c13.29,11,21.48,27.93,21.84,45.17"/><path class="cls-2" d="M63.88,45.39c-2.56-18.05-15.63-33.9-32.54-39.46l.31-.95c17.26,5.67,30.61,21.85,33.22,40.26l-.99.14Z"/><path class="cls-2" d="M83.65,41.77c-2.56-18.05-15.63-33.9-32.54-39.46l.31-.95c17.26,5.67,30.61,21.85,33.22,40.26l-.99.14Z"/><path class="cls-2" d="M108.32,41.31c-2.56-18.05-15.63-33.9-32.54-39.46l.31-.95c17.26,5.67,30.61,21.85,33.22,40.26l-.99.14Z"/></svg>