<?xml version="1.0" encoding="UTF-8"?><svg id="Layer_1" xmlns="http://www.w3.org/2000/svg" width="345" height="275" viewBox="0 0 345 275"><defs><style>.cls-1{fill:#ffc556;}.cls-2{fill:#fff;}.cls-3{fill:#f7931e;}.cls-4{fill:#ffd956;}</style></defs><path class="cls-4" d="M4.72,142.21c2.66,12.97,5.32,25.95,7.98,38.92.98-.56,2.17-.84,3.57-.7,9.95,1,19.41,7.8,18.96,19.47-.11,2.86-.81,5.48-1.93,7.83-.12.63-.26,1.26-.44,1.87-1.44,4.85-5.05,8.92-9.35,10.01-.91.47-1.81.79-2.72.96,3.44,16.78,6.88,33.55,10.32,50.33l109.27-19.26c-1.06-3.51-1.15-7.24.31-10.93,2.03-5.13,6.41-8.61,11.26-10.34,1.35-.71,2.84-1.29,4.51-1.72,5.88-1.5,12.35-.07,17.21,3.87,3.86,3.14,6.16,7.33,7.42,11.94,53.09-9.35,106.17-18.71,159.26-28.06l-21.25-129.06L4.72,142.21Z"/><path d="M29.55,273.19l-11.12-54.24,2.01-.37c.71-.13,1.42-.38,2.16-.76l.21-.11.23-.06c3.46-.87,6.65-4.34,7.93-8.64.14-.48.27-1.03.39-1.67l.05-.26.11-.24c1.06-2.21,1.64-4.58,1.74-7.04.29-7.53-4.96-16.18-17.16-17.4-.9-.09-1.7.06-2.39.45l-2.39,1.36-8.95-43.63,2.03-.35,316.37-55.22,21.9,133-163,28.72-.48-1.76c-1.27-4.64-3.54-8.31-6.75-10.92-4.35-3.54-10.13-4.84-15.45-3.49-1.45.37-2.82.89-4.07,1.55l-.26.11c-4.84,1.73-8.41,4.99-10.07,9.19-1.19,3.01-1.27,6.24-.26,9.62l.65,2.16-113.4,19.98ZM23.13,221.96l9.56,46.61,105.25-18.55c-.66-3.49-.36-6.87.9-10.07,2.04-5.17,6.52-9.34,12.31-11.44,1.49-.77,3.12-1.38,4.82-1.82,6.54-1.67,13.63-.07,18.96,4.26,3.45,2.8,5.99,6.57,7.55,11.22l155.57-27.41-20.6-125.12L7.1,143.82l7.11,34.68c.73-.12,1.49-.14,2.27-.07,10.36,1.04,21.27,8.22,20.76,21.54-.11,2.92-.79,5.74-2.02,8.38-.13.67-.28,1.27-.44,1.82-1.67,5.6-5.79,10.01-10.56,11.32-.37.18-.73.34-1.1.48Z"/><path class="cls-1" d="M4.72,142.21L221.48,4.28c-11.44-1.25,98.19-5.51,97.63,83.06"/><path d="M5.8,143.89l-2.15-3.38L218.67,3.69c.33-2.01,2.86-2,7.89-1.79,9.73.4,95.04,6.15,94.54,85.45l-4-.03c.16-24.79-8.5-44.54-25.73-58.7-25.11-20.63-60.58-22.98-68.61-22.79l-.21.13L5.8,143.89Z"/><path class="cls-3" d="M56,164.38c5.44-12.44,25.33-17.69,35.11-10.21,8.41,6.43,7.84,21.15-.7,29.6-5.4,5.34-14.95,9.14-23.51,6.15-10.64-3.72-14.95-16.26-10.89-25.54Z"/><path d="M73.22,191.98c-2.21,0-4.46-.34-6.66-1.11-5.07-1.77-9.08-5.55-11.31-10.65-2.27-5.22-2.34-11.28-.18-16.23h0c2.73-6.25,9.17-11.23,17.21-13.31,7.44-1.92,14.7-.91,19.42,2.7,3.76,2.88,6.02,7.42,6.36,12.81.43,6.72-2.18,13.56-6.97,18.3-4.09,4.05-10.85,7.49-17.89,7.49ZM56.91,164.78h0c-1.94,4.45-1.88,9.92.18,14.63,2,4.58,5.6,7.98,10.13,9.56,8.38,2.93,17.52-1.01,22.48-5.92,4.39-4.34,6.77-10.6,6.38-16.75-.31-4.8-2.29-8.83-5.58-11.35-4.24-3.24-10.86-4.12-17.71-2.35-7.45,1.92-13.38,6.48-15.88,12.17Z"/><path class="cls-3" d="M261.19,121.65c3.98-11.06,19.36-15.35,27.12-8.42,6.68,5.96,6.54,19.18.06,26.6-4.09,4.69-11.45,7.89-18.18,5.02-8.36-3.58-11.97-14.95-9-23.2Z"/><path d="M275.53,147.44c-1.96,0-3.96-.37-5.93-1.21-9.35-4-12.9-16.54-9.82-25.09,2.13-5.91,7.36-10.45,14-12.13,5.88-1.49,11.69-.33,15.53,3.1,7.16,6.4,7.26,20.62.19,28.71-3.16,3.62-8.39,6.62-13.97,6.62ZM278.79,111.37c-1.39,0-2.83.18-4.28.55-5.59,1.42-10.15,5.34-11.91,10.24h0c-2.62,7.29.32,17.95,8.18,21.31,6.21,2.66,12.89-.54,16.46-4.63,5.97-6.83,6-19.19.07-24.49-2.18-1.95-5.2-2.98-8.52-2.98Z"/><path class="cls-3" d="M222.99,196.59c5.44-12.44,25.33-17.69,35.11-10.21,8.41,6.43,7.84,21.15-.7,29.6-5.4,5.34-14.95,9.14-23.51,6.15-10.64-3.72-14.95-16.26-10.89-25.54Z"/><path d="M240.2,224.68c-2.27,0-4.56-.35-6.81-1.13-5.2-1.82-9.32-5.7-11.6-10.93-2.36-5.42-2.43-11.48-.18-16.63h0c2.8-6.39,9.35-11.47,17.54-13.59,7.59-1.96,15.01-.92,19.85,2.79,3.88,2.96,6.21,7.64,6.56,13.17.44,6.86-2.22,13.85-7.12,18.69-4.17,4.13-11.06,7.63-18.25,7.63ZM224.37,197.19h0c-1.89,4.32-1.82,9.64.18,14.23,1.94,4.45,5.44,7.75,9.84,9.29,8.18,2.86,17.12-1,21.96-5.8,4.29-4.24,6.62-10.36,6.23-16.36-.3-4.65-2.21-8.55-5.39-10.98-4.12-3.15-10.58-4-17.28-2.26-7.3,1.89-13.11,6.33-15.54,11.89Z"/><path class="cls-2" d="M122.33,183.16c.26,2.16-.12,4-1.16,5.53-1.04,1.53-2.63,2.46-4.76,2.78-.54.07-1.13.04-1.78-.09-1.18-.24-1.79-.36-1.84-.35-.61-.07-1.23-.15-1.85-.24-.62-.09-1.19-.35-1.69-.79-.75-.62-1.43-1.69-2.04-3.21-.74-1.77-1.28-2.87-1.61-3.31-.23-.21-.51-.59-.85-1.14-.13-.43-.11-.87.04-1.31.16-.45.38-.75.66-.9.14-.08.41-.14.8-.19.86-.11,1.93-.11,3.21-.01,1.28.1,2,.24,2.17.42.17.19.5,1.21.98,3.07.44,1.72.89,2.66,1.36,2.8.11.05.22.06.34.05.47-.06.81-.56,1.03-1.52.22-.96.26-2.02.12-3.19-.31-2.53-1.18-4.14-2.62-4.82-3.29-1.58-5.66-3.12-7.09-4.63-1.67-1.75-2.58-3.94-2.75-6.58-.14-2.2.26-4.49,1.21-6.86.95-2.38,2.08-3.84,3.39-4.38.55-.21,2.35.22,5.41,1.29.75.23,1.52.48,2.29.74.77.26,1.42.7,1.94,1.31.81.94,1.37,2.65,1.68,5.16.06.47.13,1.15.21,2.06.07.79.13,1.34.17,1.66.05.2.18.53.38.97.16.31.25.62.27.94.11,1.29-.26,2.06-1.11,2.31-.48.15-1.42.04-2.82-.32-1.54-.37-2.56-.86-3.03-1.45-.06-.08-.12-.37-.18-.86-.05-.44-.13-1.43-.23-2.99-.1-1.55-.2-2.68-.28-3.38-.15-1.25-.35-1.85-.59-1.79-.76.15-1.31.88-1.67,2.18-.35,1.3-.43,2.74-.24,4.31.32,2.62,1.2,4.41,2.64,5.35,1.61.93,3.23,1.85,4.84,2.78,1.54.91,2.64,1.87,3.32,2.88.86,1.31,1.44,3.22,1.75,5.73Z"/><path class="cls-2" d="M136.36,153.91c2.55,1.2,4.04,3.6,4.48,7.21.32,2.62-.15,6.05-1.41,10.28-1.4,4.72-3.11,7.21-5.13,7.45-.39.05-.86-.12-1.39-.52-.54-.39-1.07-.78-1.59-1.16l.91,7.43c.05.38.16.81.34,1.29.26.68.43,1.15.51,1.4.08.26.05.74-.1,1.45-.15.71-.44,1.12-.88,1.24-.44.11-1.44-.13-3.02-.74-1.65-.62-2.7-1.24-3.15-1.83-.27-.38-.35-.99-.22-1.83.1-.63.12-1.12.08-1.47l-3.3-27c-.02-.17-.15-.48-.38-.93-.23-.44-.34-.77-.35-.98-.02-1.42.34-2.17,1.08-2.26.12-.01.64.09,1.56.32.92.23,1.63.32,2.15.29.74-.06,1.66-.41,2.74-1.04,1.09-.64,1.89-.98,2.41-1.05.3-.04.6-.03.9.02.59.11,1.23.47,1.93,1.09.84.72,1.44,1.17,1.81,1.33ZM133.7,157.65c-.57.07-1.31.53-2.23,1.38-.92.85-1.6,1.75-2.04,2.69l1.29,10.53c1.27-.66,2.31-2.6,3.12-5.83.74-2.93,1-5.37.76-7.32-.12-1.02-.42-1.5-.89-1.44Z"/><path class="cls-2" d="M149.67,151.66c.02.21,0,.49-.07.85-.07.37-.11.59-.12.68-.07.6-.11,1.52-.11,2.76l3.28,26.82c.04.35.16.65.34.91.18.26.28.48.3.65.23,1.86.06,2.9-.52,3.12-.21.08-1.1,0-2.66-.25-1.64-.27-2.59-.53-2.87-.76-.61-.49-.94-.96-1-1.43-.01-.12.02-.25.1-.41.08-.16.1-.41.06-.76l-3.76-30.8c-.02-.17-.09-.35-.2-.53-.11-.18-.17-.36-.2-.53-.04-.71.36-1.23,1.2-1.57.26-.09.83-.16,1.7-.21,1.07-.04,1.98,0,2.72.16,1.13.22,1.73.64,1.81,1.29Z"/><path class="cls-2" d="M173.3,177.77c-.13,1.41-.5,2.29-1.1,2.66-.19.11-.45.16-.79.14-.34-.02-.58.03-.72.13l-5.14,3.38c-.16.11-.31.38-.45.81-.13.43-.28.69-.45.77-.51.3-1.69.22-3.52-.24-1.83-.46-2.97-.95-3.41-1.49-.33-.43-.5-1.15-.53-2.15,0-.47-.03-.84-.06-1.1l-3.59-29.36c-.09-.28-.21-.52-.39-.71-.17-.18-.27-.35-.29-.5-.02-.56.36-1.02,1.14-1.38.5-.21,1.65-.13,3.44.25,2.03.43,3.11,1.1,3.25,2,.03.23-.07.6-.28,1.1-.21.5-.31.87-.28,1.1l2.95,24.16,3.61-2.44c.19-.26.58-.57,1.16-.94.34-.1,1.34.41,3,1.52,1.66,1.11,2.47,1.88,2.42,2.3Z"/><path class="cls-2" d="M187.63,147.02c.02.2,0,.49-.07.85-.07.36-.11.59-.12.68-.08.6-.11,1.52-.11,2.76l3.28,26.82c.04.35.16.65.34.91.18.26.28.48.3.65.23,1.87.05,2.9-.52,3.12-.22.08-1.1,0-2.66-.25-1.63-.27-2.59-.53-2.87-.76-.61-.49-.94-.96-1-1.43-.01-.12.02-.25.1-.41.08-.16.1-.41.06-.76l-3.76-30.8c-.02-.17-.09-.35-.2-.53-.11-.18-.17-.36-.2-.53-.04-.71.36-1.23,1.2-1.56.26-.09.83-.16,1.7-.21,1.07-.04,1.98,0,2.72.16,1.13.22,1.73.65,1.81,1.29Z"/><path class="cls-2" d="M213.48,162.93c.07,1.17-.27,1.97-1.02,2.39-.14.05-.32.02-.54-.09-.21-.11-.38-.15-.5-.14-.15.02-.3.08-.46.19-.43,4.46-.83,7.46-1.19,9.01-.65,2.89-1.71,4.85-3.18,5.89-.39.28-.81.45-1.25.51-.44.05-1.59-.19-3.43-.73-.69-.12-1.79-.42-3.3-.88-1.53-.64-2.87-2.38-4.02-5.23-1.04-2.59-1.79-5.74-2.24-9.44-.59-4.81-.54-9.16.13-13.05.73-4.26,2.08-6.76,4.04-7.5.17-.05.36-.09.58-.12,1.23-.15,2.79.13,4.68.85,2.02.76,3.43,1.69,4.25,2.81.66.9,1.17,2.07,1.52,3.54.43,1.66.68,2.56.74,2.7.13.49.3,1.07.51,1.75.07.38,0,.84-.21,1.38-.21.54-.43.89-.66,1.03-.3.19-1.29.09-2.96-.28-1.67-.37-2.69-.7-3.05-.98-.49-.29-.75-.96-.81-1.98-.02-.15.02-.34.12-.57.1-.24.13-.44.11-.61-.25-2.07-.58-3.08-.97-3.03-.84.07-1.38,1.83-1.61,5.25-.21,3.22-.08,6.69.37,10.42.68,5.53,1.72,8.63,3.12,9.29.42.18.86-.68,1.32-2.6.45-1.92.64-3.69.57-5.3-.44-.3-1.24-.66-2.42-1.08-.94-.33-1.47-.65-1.58-.96-.15-.42-.1-1.06.14-1.9.25-.84.55-1.4.9-1.68.35-.28.87-.48,1.56-.59.94-.12,1.5-.21,1.69-.29.41-.14,1.05-.47,1.94-.99.72-.44,1.28-.69,1.67-.74.15-.02.29-.02.41,0,.63.07,1.62.62,2.96,1.63,1.34,1.02,2.02,1.74,2.05,2.15Z"/><path class="cls-2" d="M233.71,170.65c-.01.5-.17,1.06-.45,1.67-.29.61-.56.99-.82,1.14-.07.04-.21,0-.42-.1-.21-.11-.38-.15-.5-.14-.05,0-.1.03-.14.06-.73.36-1.46.8-2.16,1.33-1.7,1.21-3.22,2.68-4.56,4.42-2.61-.89-4.03-1.38-4.27-1.47-1.62-.6-2.46-1.09-2.5-1.47l-4.01-32.85c-.03-.2.23-.53.76-.98.53-.45.94-.67,1.21-.68.3,0,.92.15,1.86.46.94.31,1.69.44,2.26.37.74-.09,1.65-.6,2.74-1.53.99-.89,1.63-1.29,1.92-1.21.62.16,1.59.82,2.92,1.97s2.08,2,2.24,2.54c.08.26-.09.74-.52,1.44-.43.7-.8,1.07-1.12,1.11-.27.03-.47.01-.61-.06-.13-.07-.22-.09-.27-.06-.86.34-1.65.72-2.38,1.13-1.74.95-2.98,1.96-3.72,3.03l.87,7.12c.8-.63,1.85-1.31,3.17-2.03.39-.11,1.3.44,2.73,1.64,1.43,1.2,2.18,2.06,2.25,2.58.04.32-.09.72-.38,1.2-.29.48-.59.8-.9.95-.25.03-.67.11-1.28.25-.91.32-2.45,1.45-4.61,3.4l.56,4.59c.67-.61,1.6-1.36,2.79-2.22,1.18-.87,1.92-1.32,2.22-1.36.34-.04,1.29.49,2.84,1.58,1.55,1.1,2.32,1.82,2.31,2.18Z"/><path class="cls-2" d="M253.44,138.98c.04.32.03.63-.03.94-.11.52-.18.92-.19,1.22l3.52,28.83c-.01-.09.12.44.38,1.59.31,1.32.27,2.21-.12,2.68-.39.46-1.38.7-2.95.72-.9.02-1.95-.13-3.17-.46-1.57-.37-2.47-.85-2.69-1.45-.03-.41-.14-1.03-.34-1.86-1.91-4.14-4.09-8.68-6.54-13.61l1.58,12.93c.03.23.15.53.37.89.28.47.43.72.43.75.18.42.29.85.34,1.29.14,1.16-.23,1.8-1.12,1.91-.86.11-2.12-.04-3.77-.43-1.55-.4-2.44-.75-2.68-1.05-.35-.43-.43-1.03-.22-1.79.21-.76.3-1.23.28-1.41l-3.35-27.39c-.02-.17-.09-.43-.21-.77-.12-.34-.16-.62-.14-.83.12-1.02.52-1.75,1.2-2.19.12-.07.38-.14.8-.19.96-.12,1.96-.09,3.01.08,1.35.19,2.32.57,2.92,1.15.8.79,2.02,3.35,3.68,7.67,2.02,5.31,3.54,8.88,4.54,10.71l-2.1-17.17c-.03-.23-.12-.55-.27-.97-.15-.41-.24-.73-.27-.96-.02-.17-.02-.34.02-.49.06-.51.49-.93,1.27-1.26.62-.28,1.22-.43,1.82-.45.57,0,1.27.07,2.09.23,1.18.27,1.82.65,1.9,1.14Z"/></svg>