<?xml version="1.0" encoding="UTF-8"?><svg id="Layer_1" xmlns="http://www.w3.org/2000/svg" width="325" height="260" viewBox="0 0 325 260"><defs><style>.cls-1{fill:#8ca63f;}.cls-2{fill:#63722d;}</style></defs><path class="cls-1" d="M3.17,128.1c2.07,12.85,4.14,25.69,6.21,38.54.96-.49,2.11-.71,3.45-.49,9.5,1.51,18.3,8.68,17.44,20.08-.21,2.79-.98,5.32-2.14,7.56-.14.61-.3,1.22-.49,1.81-1.56,4.67-5.17,8.47-9.33,9.3-.88.41-1.76.68-2.64.79,2.68,16.61,5.35,33.23,8.03,49.84l105.38-13c-.88-3.5-.83-7.15.7-10.69,2.13-4.92,6.46-8.09,11.17-9.52,1.32-.62,2.77-1.11,4.38-1.44,5.69-1.15,11.83.59,16.34,4.72,3.58,3.28,5.62,7.5,6.67,12.09,51.19-6.31,102.39-12.63,153.58-18.94l-15.59-127.52L3.17,128.1Z"/><path d="M22.03,257.75l-8.66-53.78,2.04-.27c.67-.09,1.34-.29,2.05-.62l.22-.1.24-.05c3.31-.66,6.45-3.86,7.82-7.97.16-.47.3-.98.44-1.61l.06-.25.12-.23c1.09-2.11,1.74-4.39,1.92-6.79.55-7.35-4.14-16.11-15.76-17.96-.83-.13-1.58-.03-2.22.3l-2.45,1.26L.87,126.37l307.2-37.37,16.07,131.49-157.36,19.41-.4-1.76c-1.04-4.61-3.09-8.33-6.07-11.06-4.02-3.69-9.48-5.27-14.59-4.23-1.39.28-2.71.72-3.92,1.29l-.27.1c-2.7.82-7.58,3.01-9.91,8.41-1.25,2.88-1.45,6.04-.6,9.4l.56,2.2-109.54,13.51ZM17.94,207.2l7.43,46.11,101.33-12.5c-.5-3.43-.08-6.71,1.24-9.76,2.16-4.98,6.63-8.84,12.28-10.6,1.47-.68,3.05-1.19,4.71-1.53,6.36-1.29,13.12.66,18.09,5.2,3.2,2.93,5.48,6.74,6.81,11.37l149.86-18.48-15.1-123.56L5.48,129.83l5.52,34.27c.69-.07,1.41-.05,2.15.06,9.9,1.57,20.1,9.2,19.12,22.21-.21,2.86-.97,5.58-2.24,8.1-.15.65-.31,1.23-.49,1.75-1.81,5.42-5.95,9.54-10.6,10.57-.33.15-.66.28-1,.39Z"/><path class="cls-1" d="M3.17,128.1L215.88,4.65c-10.91-1.84,94.25-.13,90.44,86.57"/><path d="M4.17,129.83l-2.01-3.46L213.14,3.93c.42-2,2.86-1.8,6.79-1.46,4.83.41,30.07,3.19,52.51,17.54,25.18,16.11,37.25,40.09,35.88,71.3l-4-.18c1.08-24.61-6.7-44.61-23.12-59.46-23.12-20.9-56.51-25.12-64.15-25.38l-.16.09L4.17,129.83Z"/><path class="cls-2" d="M51.46,152.57c5.67-11.89,24.92-15.96,34-8.12,7.82,6.75,6.73,21.13-1.76,28.95-5.37,4.94-14.66,8.15-22.75,4.76-10.06-4.21-13.72-16.73-9.49-25.59Z"/><path d="M68.08,180.56c-2.5,0-5.05-.45-7.51-1.48-4.78-2-8.48-5.91-10.43-11.01-2-5.24-1.84-11.2.42-15.94,2.84-5.96,9.17-10.49,16.92-12.12,7.25-1.52,14.22-.15,18.64,3.67,3.54,3.06,5.54,7.7,5.63,13.07.1,6.54-2.65,13.04-7.37,17.38-3.85,3.54-9.95,6.43-16.3,6.43ZM73.23,141.41c-1.73,0-3.52.19-5.34.57-7.14,1.5-12.95,5.62-15.52,11.02h0c-2.03,4.26-2.17,9.63-.36,14.37,1.75,4.58,5.06,8.09,9.33,9.88,7.89,3.3,16.77-.05,21.68-4.58,4.3-3.96,6.82-9.9,6.72-15.88-.08-4.79-1.83-8.9-4.93-11.58-2.87-2.48-7-3.79-11.58-3.79Z"/><path class="cls-2" d="M265.8,123.8c4.22-10.62,19.11-13.99,26.29-6.79,6.18,6.2,5.55,19.14-.92,26.05-4.1,4.37-11.26,7.12-17.6,3.94-7.88-3.95-10.91-15.28-7.77-23.2Z"/><path d="M279.38,149.88c-2.15,0-4.35-.46-6.49-1.54-8.81-4.42-11.75-16.89-8.49-25.09,2.25-5.67,7.43-9.84,13.84-11.16,5.74-1.18,11.32.26,14.9,3.86,6.62,6.65,6.18,20.58-.89,28.14-3.01,3.21-7.8,5.79-12.87,5.79ZM282.16,114.68c-1.08,0-2.19.11-3.31.34-5.42,1.11-9.78,4.6-11.66,9.33h0c-2.78,7-.36,17.59,7.04,21.31,5.81,2.92,12.28.17,15.83-3.62,5.96-6.36,6.45-18.46.96-23.97-2.19-2.2-5.37-3.38-8.86-3.38Z"/><path class="cls-2" d="M207.88,195.43c5.67-11.89,24.92-15.96,34-8.12,7.82,6.75,6.73,21.13-1.76,28.95-5.37,4.94-14.66,8.15-22.75,4.76-10.06-4.21-13.72-16.73-9.49-25.59Z"/><path d="M224.49,223.93c-2.56,0-5.17-.46-7.69-1.51-4.91-2.06-8.71-6.07-10.7-11.29-2.05-5.36-1.88-11.47.44-16.33h0c2.91-6.1,9.36-10.73,17.26-12.39,7.4-1.55,14.53-.14,19.07,3.78,3.65,3.15,5.71,7.92,5.8,13.44.11,6.68-2.71,13.32-7.53,17.75-3.93,3.62-10.16,6.56-16.65,6.56ZM229.65,184.78c-1.7,0-3.46.18-5.25.56-6.99,1.47-12.66,5.48-15.17,10.75h0c-1.97,4.14-2.1,9.36-.34,13.97,1.7,4.45,4.92,7.86,9.06,9.59,7.69,3.22,16.35-.06,21.15-4.48,4.2-3.87,6.65-9.66,6.56-15.5-.08-4.65-1.77-8.63-4.76-11.21-2.78-2.4-6.79-3.67-11.25-3.67Z"/><path d="M120.2,172.38c.26,2.15-.12,4-1.16,5.53s-2.63,2.46-4.76,2.78c-.54.07-1.13.04-1.77-.09-1.18-.24-1.79-.36-1.84-.35-.61-.07-1.23-.15-1.85-.24-.62-.09-1.19-.35-1.69-.79-.75-.62-1.43-1.69-2.04-3.21-.74-1.77-1.28-2.87-1.61-3.31-.22-.21-.51-.59-.85-1.14-.13-.43-.11-.87.04-1.31s.38-.75.66-.9c.14-.08.41-.14.8-.19.86-.11,1.93-.11,3.21-.02,1.28.1,2,.24,2.17.42s.5,1.21.98,3.07c.43,1.72.89,2.66,1.36,2.81.11.05.22.06.34.04.47-.06.81-.56,1.03-1.52.22-.96.26-2.02.12-3.18-.31-2.53-1.18-4.14-2.62-4.82-3.29-1.58-5.66-3.12-7.09-4.63-1.66-1.75-2.58-3.94-2.75-6.58-.14-2.2.26-4.49,1.21-6.86.95-2.38,2.08-3.84,3.39-4.38.55-.21,2.35.21,5.41,1.29.75.23,1.52.48,2.29.74.77.26,1.42.7,1.94,1.31.81.94,1.37,2.66,1.68,5.16.06.47.13,1.15.21,2.06.07.79.13,1.35.17,1.67.05.2.18.53.38.97.16.3.25.62.27.94.11,1.29-.26,2.06-1.11,2.31-.48.15-1.42.04-2.82-.32-1.55-.37-2.56-.86-3.03-1.45-.06-.08-.12-.37-.18-.87-.05-.44-.13-1.43-.23-2.99-.1-1.55-.2-2.68-.28-3.38-.15-1.25-.35-1.85-.59-1.79-.76.15-1.31.88-1.67,2.18-.35,1.3-.43,2.73-.24,4.31.32,2.62,1.2,4.4,2.64,5.35,1.61.93,3.23,1.85,4.84,2.78,1.54.91,2.64,1.87,3.32,2.88.86,1.31,1.44,3.22,1.75,5.73Z"/><path d="M134.22,143.14c2.55,1.2,4.04,3.6,4.48,7.21.32,2.62-.15,6.05-1.41,10.28-1.4,4.72-3.11,7.21-5.13,7.46-.39.05-.86-.12-1.39-.52-.54-.39-1.06-.78-1.59-1.16l.91,7.43c.05.38.16.81.35,1.29.26.68.43,1.14.51,1.4s.05.74-.1,1.46c-.15.71-.44,1.12-.88,1.24-.44.11-1.44-.13-3.02-.74-1.65-.63-2.7-1.24-3.15-1.83-.27-.38-.35-.99-.22-1.83.1-.63.12-1.12.08-1.47l-3.3-27c-.02-.18-.15-.48-.38-.93-.23-.45-.34-.77-.34-.98-.02-1.41.33-2.17,1.08-2.26.12-.01.64.09,1.56.32.92.23,1.63.33,2.15.29.74-.06,1.66-.41,2.74-1.04,1.09-.63,1.89-.98,2.4-1.05.3-.04.6-.03.9.02.59.11,1.23.47,1.93,1.09.84.73,1.44,1.17,1.81,1.33ZM131.56,146.88c-.57.07-1.31.53-2.23,1.38-.92.85-1.6,1.75-2.04,2.69l1.29,10.53c1.27-.66,2.31-2.6,3.12-5.83.74-2.93.99-5.37.76-7.32-.12-1.02-.42-1.5-.89-1.44Z"/><path d="M147.53,140.89c.02.2,0,.49-.07.85-.07.36-.11.59-.12.68-.08.6-.12,1.52-.11,2.76l3.28,26.82c.04.35.16.65.34.91.18.26.28.47.3.65.23,1.86.05,2.9-.52,3.12-.22.08-1.1,0-2.66-.25-1.64-.27-2.59-.52-2.87-.76-.61-.49-.94-.96-1-1.43-.01-.12.02-.25.1-.41.08-.16.1-.41.06-.76l-3.76-30.8c-.02-.17-.09-.35-.2-.53-.11-.18-.17-.36-.2-.53-.04-.7.36-1.23,1.2-1.56.26-.09.83-.16,1.7-.21,1.07-.04,1.98,0,2.72.15,1.13.22,1.73.65,1.81,1.29Z"/><path d="M171.17,167c-.13,1.4-.5,2.29-1.1,2.66-.19.11-.45.16-.79.14-.34-.02-.58.03-.71.13l-5.14,3.38c-.16.11-.31.38-.44.81-.13.43-.29.68-.45.76-.51.3-1.69.22-3.52-.23-1.83-.46-2.97-.95-3.41-1.49-.33-.43-.5-1.15-.53-2.15,0-.47-.03-.84-.06-1.1l-3.59-29.36c-.08-.29-.21-.52-.39-.71-.17-.18-.27-.35-.29-.5-.02-.56.36-1.02,1.14-1.38.5-.21,1.65-.13,3.44.24,2.03.43,3.11,1.1,3.25,2,.03.23-.07.6-.28,1.1s-.31.87-.28,1.1l2.95,24.16,3.6-2.44c.19-.26.58-.57,1.16-.94.34-.1,1.34.41,3,1.52,1.66,1.11,2.47,1.88,2.42,2.3Z"/><path d="M185.5,136.25c.02.2,0,.49-.07.85-.07.36-.11.59-.12.68-.08.6-.11,1.52-.11,2.76l3.28,26.82c.04.35.16.65.34.91.18.26.28.47.3.65.23,1.86.05,2.9-.52,3.12-.21.08-1.1,0-2.66-.25-1.64-.27-2.59-.52-2.87-.76-.61-.49-.94-.96-1-1.43-.01-.12.02-.25.1-.41.08-.16.1-.41.06-.76l-3.76-30.8c-.02-.17-.09-.35-.2-.53-.11-.18-.17-.36-.2-.53-.04-.7.36-1.23,1.2-1.57.26-.09.83-.16,1.7-.21,1.07-.04,1.98,0,2.72.15,1.13.22,1.73.65,1.81,1.29Z"/><path d="M211.34,152.16c.07,1.17-.27,1.97-1.02,2.39-.14.05-.32.02-.54-.09-.21-.11-.38-.15-.5-.14-.15.02-.3.08-.47.19-.43,4.46-.83,7.46-1.19,9.01-.65,2.89-1.71,4.85-3.18,5.89-.39.28-.81.45-1.25.51-.44.05-1.59-.19-3.43-.73-.69-.12-1.79-.42-3.3-.88-1.53-.64-2.87-2.38-4.02-5.23-1.04-2.59-1.79-5.74-2.24-9.44-.59-4.81-.54-9.16.13-13.05.73-4.26,2.08-6.75,4.04-7.5.17-.05.36-.09.58-.12,1.23-.15,2.79.13,4.68.85,2.02.76,3.43,1.69,4.25,2.81.66.89,1.17,2.08,1.52,3.54.43,1.66.68,2.56.74,2.7.13.49.3,1.07.51,1.75.07.38,0,.84-.21,1.38-.21.54-.43.89-.66,1.04-.3.19-1.29.09-2.96-.28-1.67-.37-2.69-.7-3.05-.98-.49-.29-.75-.96-.81-1.98-.02-.15.02-.34.12-.57.1-.23.13-.44.11-.61-.25-2.07-.58-3.08-.97-3.03-.84.07-1.38,1.82-1.61,5.25-.21,3.22-.08,6.69.37,10.42.68,5.53,1.72,8.63,3.12,9.28.42.19.86-.68,1.31-2.6s.64-3.68.57-5.3c-.44-.3-1.24-.66-2.42-1.08-.94-.33-1.47-.65-1.58-.96-.15-.42-.1-1.06.14-1.9.25-.84.55-1.4.9-1.68.35-.28.87-.47,1.56-.59.94-.11,1.5-.21,1.69-.3.41-.14,1.06-.47,1.94-.99.72-.44,1.28-.69,1.67-.74.15-.02.29-.02.41,0,.63.07,1.62.62,2.96,1.63,1.34,1.02,2.02,1.73,2.04,2.14Z"/><path d="M231.57,159.88c-.01.5-.17,1.06-.45,1.67-.29.61-.56.99-.82,1.14-.07.04-.21,0-.42-.1-.21-.11-.38-.15-.5-.14-.05,0-.1.03-.14.06-.73.36-1.45.8-2.16,1.33-1.7,1.21-3.23,2.68-4.56,4.41-2.61-.89-4.04-1.38-4.27-1.47-1.62-.6-2.46-1.09-2.5-1.47l-4.01-32.85c-.03-.2.23-.53.76-.98.53-.45.94-.68,1.21-.68.3,0,.92.15,1.86.46.94.31,1.69.44,2.26.37.74-.09,1.65-.6,2.74-1.53.99-.89,1.63-1.29,1.92-1.21.62.16,1.59.82,2.92,1.97,1.33,1.15,2.08,2,2.24,2.54.08.26-.09.74-.52,1.44-.43.7-.8,1.07-1.12,1.11-.27.03-.47.01-.61-.06s-.22-.09-.27-.06c-.86.34-1.65.72-2.38,1.13-1.74.95-2.98,1.96-3.72,3.03l.87,7.12c.8-.63,1.85-1.31,3.17-2.03.39-.11,1.3.44,2.73,1.64,1.43,1.2,2.18,2.06,2.25,2.58.04.32-.09.72-.38,1.2-.29.48-.59.8-.9.95-.25.03-.67.11-1.28.25-.91.32-2.45,1.45-4.61,3.4l.56,4.59c.68-.61,1.6-1.36,2.79-2.22,1.18-.87,1.92-1.32,2.22-1.36.35-.04,1.29.48,2.84,1.58,1.55,1.1,2.32,1.82,2.31,2.18Z"/><path d="M251.31,128.21c.04.32.03.63-.04.94-.11.52-.18.92-.19,1.22l3.52,28.83c-.01-.09.12.44.38,1.59.31,1.32.27,2.21-.12,2.67-.39.46-1.38.7-2.95.72-.9.02-1.95-.13-3.17-.46-1.57-.37-2.47-.85-2.69-1.45-.03-.41-.14-1.03-.34-1.87-1.91-4.14-4.09-8.68-6.54-13.61l1.58,12.93c.03.23.15.53.37.89.28.47.43.72.43.75.18.42.29.85.34,1.29.14,1.16-.23,1.8-1.12,1.91-.86.11-2.12-.04-3.77-.43-1.55-.4-2.44-.75-2.68-1.05-.35-.43-.42-1.03-.22-1.79.21-.76.3-1.23.28-1.41l-3.35-27.39c-.02-.18-.09-.43-.21-.77-.12-.34-.16-.62-.14-.82.12-1.02.52-1.75,1.2-2.19.12-.07.38-.14.8-.19.96-.12,1.96-.09,3.01.08,1.35.19,2.32.57,2.92,1.15.8.79,2.02,3.34,3.67,7.67,2.02,5.31,3.54,8.88,4.54,10.71l-2.1-17.17c-.03-.23-.12-.55-.27-.96-.15-.41-.24-.73-.27-.96-.02-.17-.02-.34.02-.49.06-.51.49-.93,1.27-1.26.62-.28,1.22-.43,1.82-.44.57-.01,1.27.07,2.09.23,1.18.27,1.82.65,1.9,1.14Z"/></svg>