<?xml version="1.0" encoding="UTF-8"?><svg id="Layer_1" xmlns="http://www.w3.org/2000/svg" width="1920" height="1080" xmlns:xlink="http://www.w3.org/1999/xlink" viewBox="0 0 1920 1080"><defs><style>.cls-1{fill:none;}.cls-2{fill:#ffdde7;}.cls-3{fill:#563300;}.cls-4{fill:#231f20;}.cls-5{fill:#e2d9dc;}.cls-6{fill:#ffc556;}.cls-7{fill:#efdfc7;}.cls-8{fill:#fff;}.cls-9{fill:#f7931e;}.cls-10{fill:#ffd956;}.cls-11{fill:#cc001c;}.cls-12{fill:#eab2c2;}.cls-13{fill:#443200;}.cls-14{fill:#fbb03b;}.cls-15{clip-path:url(#clippath);}</style><clipPath id="clippath"><rect class="cls-1" x="-1.02" y="556.42" width="1893.01" height="524.19"/></clipPath></defs><rect class="cls-8" width="1916" height="1080"/><g class="cls-15"><g id="_Grid_Repeat_"><rect class="cls-5" x="-1.02" y="556.42" width="50.44" height="50.44"/><rect class="cls-5" x="49.42" y="606.86" width="50.44" height="50.44"/></g><g id="_Grid_Repeat_-2"><rect class="cls-5" x="104.9" y="556.42" width="50.44" height="50.44"/><rect class="cls-5" x="155.34" y="606.86" width="50.44" height="50.44"/></g><g id="_Grid_Repeat_-3"><rect class="cls-5" x="210.82" y="556.42" width="50.44" height="50.44"/><rect class="cls-5" x="261.26" y="606.86" width="50.44" height="50.44"/></g><g id="_Grid_Repeat_-4"><rect class="cls-5" x="316.75" y="556.42" width="50.44" height="50.44"/><rect class="cls-5" x="367.19" y="606.86" width="50.44" height="50.44"/></g><g id="_Grid_Repeat_-5"><rect class="cls-5" x="422.67" y="556.42" width="50.44" height="50.44"/><rect class="cls-5" x="473.11" y="606.86" width="50.44" height="50.44"/></g><g id="_Grid_Repeat_-6"><rect class="cls-5" x="528.59" y="556.42" width="50.44" height="50.44"/><rect class="cls-5" x="579.03" y="606.86" width="50.44" height="50.44"/></g><g id="_Grid_Repeat_-7"><rect class="cls-5" x="634.52" y="556.42" width="50.44" height="50.44"/><rect class="cls-5" x="684.95" y="606.86" width="50.44" height="50.44"/></g><g id="_Grid_Repeat_-8"><rect class="cls-5" x="740.44" y="556.42" width="50.44" height="50.44"/><rect class="cls-5" x="790.88" y="606.86" width="50.44" height="50.44"/></g><g id="_Grid_Repeat_-9"><rect class="cls-5" x="846.36" y="556.42" width="50.44" height="50.44"/><rect class="cls-5" x="896.8" y="606.86" width="50.44" height="50.44"/></g><g id="_Grid_Repeat_-10"><rect class="cls-5" x="952.28" y="556.42" width="50.44" height="50.44"/><rect class="cls-5" x="1002.72" y="606.86" width="50.44" height="50.44"/></g><g id="_Grid_Repeat_-11"><rect class="cls-5" x="1058.21" y="556.42" width="50.44" height="50.44"/><rect class="cls-5" x="1108.65" y="606.86" width="50.44" height="50.44"/></g><g id="_Grid_Repeat_-12"><rect class="cls-5" x="1164.13" y="556.42" width="50.44" height="50.44"/><rect class="cls-5" x="1214.57" y="606.86" width="50.44" height="50.44"/></g><g id="_Grid_Repeat_-13"><rect class="cls-5" x="1270.05" y="556.42" width="50.44" height="50.44"/><rect class="cls-5" x="1320.49" y="606.86" width="50.44" height="50.44"/></g><g id="_Grid_Repeat_-14"><rect class="cls-5" x="1375.98" y="556.42" width="50.44" height="50.44"/><rect class="cls-5" x="1426.42" y="606.86" width="50.44" height="50.44"/></g><g id="_Grid_Repeat_-15"><rect class="cls-5" x="1481.9" y="556.42" width="50.44" height="50.44"/><rect class="cls-5" x="1532.34" y="606.86" width="50.44" height="50.44"/></g><g id="_Grid_Repeat_-16"><rect class="cls-5" x="1587.82" y="556.42" width="50.44" height="50.44"/><rect class="cls-5" x="1638.26" y="606.86" width="50.44" height="50.44"/></g><g id="_Grid_Repeat_-17"><rect class="cls-5" x="1693.74" y="556.42" width="50.44" height="50.44"/><rect class="cls-5" x="1744.18" y="606.86" width="50.44" height="50.44"/></g><g id="_Grid_Repeat_-18"><rect class="cls-5" x="1799.67" y="556.42" width="50.44" height="50.44"/><rect class="cls-5" x="1850.11" y="606.86" width="50.44" height="50.44"/></g><g id="_Grid_Repeat_-19"><rect class="cls-5" x="-1.02" y="662.35" width="50.44" height="50.44"/><rect class="cls-5" x="49.42" y="712.78" width="50.44" height="50.44"/></g><g id="_Grid_Repeat_-20"><rect class="cls-5" x="104.9" y="662.35" width="50.44" height="50.44"/><rect class="cls-5" x="155.34" y="712.78" width="50.44" height="50.44"/></g><g id="_Grid_Repeat_-21"><rect class="cls-5" x="210.82" y="662.35" width="50.44" height="50.44"/><rect class="cls-5" x="261.26" y="712.78" width="50.44" height="50.44"/></g><g id="_Grid_Repeat_-22"><rect class="cls-5" x="316.75" y="662.35" width="50.44" height="50.44"/><rect class="cls-5" x="367.19" y="712.78" width="50.44" height="50.44"/></g><g id="_Grid_Repeat_-23"><rect class="cls-5" x="422.67" y="662.35" width="50.44" height="50.44"/><rect class="cls-5" x="473.11" y="712.78" width="50.44" height="50.44"/></g><g id="_Grid_Repeat_-24"><rect class="cls-5" x="528.59" y="662.35" width="50.44" height="50.44"/><rect class="cls-5" x="579.03" y="712.78" width="50.44" height="50.44"/></g><g id="_Grid_Repeat_-25"><rect class="cls-5" x="634.52" y="662.35" width="50.44" height="50.44"/><rect class="cls-5" x="684.95" y="712.78" width="50.44" height="50.44"/></g><g id="_Grid_Repeat_-26"><rect class="cls-5" x="740.44" y="662.35" width="50.44" height="50.44"/><rect class="cls-5" x="790.88" y="712.78" width="50.44" height="50.44"/></g><g id="_Grid_Repeat_-27"><rect class="cls-5" x="846.36" y="662.35" width="50.44" height="50.44"/><rect class="cls-5" x="896.8" y="712.78" width="50.44" height="50.44"/></g><g id="_Grid_Repeat_-28"><rect class="cls-5" x="952.28" y="662.35" width="50.44" height="50.44"/><rect class="cls-5" x="1002.72" y="712.78" width="50.44" height="50.44"/></g><g id="_Grid_Repeat_-29"><rect class="cls-5" x="1058.21" y="662.35" width="50.44" height="50.44"/><rect class="cls-5" x="1108.65" y="712.78" width="50.44" height="50.44"/></g><g id="_Grid_Repeat_-30"><rect class="cls-5" x="1164.13" y="662.35" width="50.44" height="50.44"/><rect class="cls-5" x="1214.57" y="712.78" width="50.44" height="50.44"/></g><g id="_Grid_Repeat_-31"><rect class="cls-5" x="1270.05" y="662.35" width="50.44" height="50.44"/><rect class="cls-5" x="1320.49" y="712.78" width="50.44" height="50.44"/></g><g id="_Grid_Repeat_-32"><rect class="cls-5" x="1375.98" y="662.35" width="50.44" height="50.44"/><rect class="cls-5" x="1426.42" y="712.78" width="50.44" height="50.44"/></g><g id="_Grid_Repeat_-33"><rect class="cls-5" x="1481.9" y="662.35" width="50.44" height="50.44"/><rect class="cls-5" x="1532.34" y="712.78" width="50.44" height="50.44"/></g><g id="_Grid_Repeat_-34"><rect class="cls-5" x="1587.82" y="662.35" width="50.44" height="50.44"/><rect class="cls-5" x="1638.26" y="712.78" width="50.44" height="50.44"/></g><g id="_Grid_Repeat_-35"><rect class="cls-5" x="1693.74" y="662.35" width="50.44" height="50.44"/><rect class="cls-5" x="1744.18" y="712.78" width="50.44" height="50.44"/></g><g id="_Grid_Repeat_-36"><rect class="cls-5" x="1799.67" y="662.35" width="50.44" height="50.44"/><rect class="cls-5" x="1850.11" y="712.78" width="50.44" height="50.44"/></g><g id="_Grid_Repeat_-37"><rect class="cls-5" x="-1.02" y="768.27" width="50.44" height="50.44"/><rect class="cls-5" x="49.42" y="818.71" width="50.44" height="50.44"/></g><g id="_Grid_Repeat_-38"><rect class="cls-5" x="104.9" y="768.27" width="50.44" height="50.44"/><rect class="cls-5" x="155.34" y="818.71" width="50.44" height="50.44"/></g><g id="_Grid_Repeat_-39"><rect class="cls-5" x="210.82" y="768.27" width="50.44" height="50.44"/><rect class="cls-5" x="261.26" y="818.71" width="50.44" height="50.44"/></g><g id="_Grid_Repeat_-40"><rect class="cls-5" x="316.75" y="768.27" width="50.44" height="50.44"/><rect class="cls-5" x="367.19" y="818.71" width="50.44" height="50.44"/></g><g id="_Grid_Repeat_-41"><rect class="cls-5" x="422.67" y="768.27" width="50.44" height="50.44"/><rect class="cls-5" x="473.11" y="818.71" width="50.44" height="50.44"/></g><g id="_Grid_Repeat_-42"><rect class="cls-5" x="528.59" y="768.27" width="50.44" height="50.44"/><rect class="cls-5" x="579.03" y="818.71" width="50.44" height="50.44"/></g><g id="_Grid_Repeat_-43"><rect class="cls-5" x="634.52" y="768.27" width="50.44" height="50.44"/><rect class="cls-5" x="684.95" y="818.71" width="50.44" height="50.44"/></g><g id="_Grid_Repeat_-44"><rect class="cls-5" x="740.44" y="768.27" width="50.44" height="50.44"/><rect class="cls-5" x="790.88" y="818.71" width="50.44" height="50.44"/></g><g id="_Grid_Repeat_-45"><rect class="cls-5" x="846.36" y="768.27" width="50.44" height="50.44"/><rect class="cls-5" x="896.8" y="818.71" width="50.44" height="50.44"/></g><g id="_Grid_Repeat_-46"><rect class="cls-5" x="952.28" y="768.27" width="50.44" height="50.44"/><rect class="cls-5" x="1002.72" y="818.71" width="50.44" height="50.44"/></g><g id="_Grid_Repeat_-47"><rect class="cls-5" x="1058.21" y="768.27" width="50.44" height="50.44"/><rect class="cls-5" x="1108.65" y="818.71" width="50.44" height="50.44"/></g><g id="_Grid_Repeat_-48"><rect class="cls-5" x="1164.13" y="768.27" width="50.44" height="50.44"/><rect class="cls-5" x="1214.57" y="818.71" width="50.44" height="50.44"/></g><g id="_Grid_Repeat_-49"><rect class="cls-5" x="1270.05" y="768.27" width="50.44" height="50.44"/><rect class="cls-5" x="1320.49" y="818.71" width="50.44" height="50.44"/></g><g id="_Grid_Repeat_-50"><rect class="cls-5" x="1375.98" y="768.27" width="50.44" height="50.44"/><rect class="cls-5" x="1426.42" y="818.71" width="50.44" height="50.44"/></g><g id="_Grid_Repeat_-51"><rect class="cls-5" x="1481.9" y="768.27" width="50.44" height="50.44"/><rect class="cls-5" x="1532.34" y="818.71" width="50.44" height="50.44"/></g><g id="_Grid_Repeat_-52"><rect class="cls-5" x="1587.82" y="768.27" width="50.44" height="50.44"/><rect class="cls-5" x="1638.26" y="818.71" width="50.44" height="50.44"/></g><g id="_Grid_Repeat_-53"><rect class="cls-5" x="1693.74" y="768.27" width="50.44" height="50.44"/><rect class="cls-5" x="1744.18" y="818.71" width="50.44" height="50.44"/></g><g id="_Grid_Repeat_-54"><rect class="cls-5" x="1799.67" y="768.27" width="50.44" height="50.44"/><rect class="cls-5" x="1850.11" y="818.71" width="50.44" height="50.44"/></g><g id="_Grid_Repeat_-55"><rect class="cls-5" x="-1.02" y="874.19" width="50.44" height="50.44"/><rect class="cls-5" x="49.42" y="924.63" width="50.44" height="50.44"/></g><g id="_Grid_Repeat_-56"><rect class="cls-5" x="104.9" y="874.19" width="50.44" height="50.44"/><rect class="cls-5" x="155.34" y="924.63" width="50.44" height="50.44"/></g><g id="_Grid_Repeat_-57"><rect class="cls-5" x="210.82" y="874.19" width="50.44" height="50.44"/><rect class="cls-5" x="261.26" y="924.63" width="50.44" height="50.44"/></g><g id="_Grid_Repeat_-58"><rect class="cls-5" x="316.75" y="874.19" width="50.44" height="50.44"/><rect class="cls-5" x="367.19" y="924.63" width="50.44" height="50.44"/></g><g id="_Grid_Repeat_-59"><rect class="cls-5" x="422.67" y="874.19" width="50.44" height="50.44"/><rect class="cls-5" x="473.11" y="924.63" width="50.44" height="50.44"/></g><g id="_Grid_Repeat_-60"><rect class="cls-5" x="528.59" y="874.19" width="50.44" height="50.44"/><rect class="cls-5" x="579.03" y="924.63" width="50.44" height="50.44"/></g><g id="_Grid_Repeat_-61"><rect class="cls-5" x="634.52" y="874.19" width="50.44" height="50.44"/><rect class="cls-5" x="684.95" y="924.63" width="50.44" height="50.44"/></g><g id="_Grid_Repeat_-62"><rect class="cls-5" x="740.44" y="874.19" width="50.44" height="50.44"/><rect class="cls-5" x="790.88" y="924.63" width="50.44" height="50.44"/></g><g id="_Grid_Repeat_-63"><rect class="cls-5" x="846.36" y="874.19" width="50.44" height="50.44"/><rect class="cls-5" x="896.8" y="924.63" width="50.44" height="50.44"/></g><g id="_Grid_Repeat_-64"><rect class="cls-5" x="952.28" y="874.19" width="50.44" height="50.44"/><rect class="cls-5" x="1002.72" y="924.63" width="50.44" height="50.44"/></g><g id="_Grid_Repeat_-65"><rect class="cls-5" x="1058.21" y="874.19" width="50.44" height="50.44"/><rect class="cls-5" x="1108.65" y="924.63" width="50.44" height="50.44"/></g><g id="_Grid_Repeat_-66"><rect class="cls-5" x="1164.13" y="874.19" width="50.44" height="50.44"/><rect class="cls-5" x="1214.57" y="924.63" width="50.44" height="50.44"/></g><g id="_Grid_Repeat_-67"><rect class="cls-5" x="1270.05" y="874.19" width="50.44" height="50.44"/><rect class="cls-5" x="1320.49" y="924.63" width="50.44" height="50.44"/></g><g id="_Grid_Repeat_-68"><rect class="cls-5" x="1375.98" y="874.19" width="50.44" height="50.44"/><rect class="cls-5" x="1426.42" y="924.63" width="50.44" height="50.44"/></g><g id="_Grid_Repeat_-69"><rect class="cls-5" x="1481.9" y="874.19" width="50.44" height="50.44"/><rect class="cls-5" x="1532.34" y="924.63" width="50.44" height="50.44"/></g><g id="_Grid_Repeat_-70"><rect class="cls-5" x="1587.82" y="874.19" width="50.44" height="50.44"/><rect class="cls-5" x="1638.26" y="924.63" width="50.44" height="50.44"/></g><g id="_Grid_Repeat_-71"><rect class="cls-5" x="1693.74" y="874.19" width="50.44" height="50.44"/><rect class="cls-5" x="1744.18" y="924.63" width="50.44" height="50.44"/></g><g id="_Grid_Repeat_-72"><rect class="cls-5" x="1799.67" y="874.19" width="50.44" height="50.44"/><rect class="cls-5" x="1850.11" y="924.63" width="50.44" height="50.44"/></g><g id="_Grid_Repeat_-73"><rect class="cls-5" x="-1.02" y="980.11" width="50.44" height="50.44"/><rect class="cls-5" x="49.42" y="1030.55" width="50.44" height="50.44"/></g><g id="_Grid_Repeat_-74"><rect class="cls-5" x="104.9" y="980.11" width="50.44" height="50.44"/><rect class="cls-5" x="155.34" y="1030.55" width="50.44" height="50.44"/></g><g id="_Grid_Repeat_-75"><rect class="cls-5" x="210.82" y="980.11" width="50.44" height="50.44"/><rect class="cls-5" x="261.26" y="1030.55" width="50.44" height="50.44"/></g><g id="_Grid_Repeat_-76"><rect class="cls-5" x="316.75" y="980.11" width="50.44" height="50.44"/><rect class="cls-5" x="367.19" y="1030.55" width="50.44" height="50.44"/></g><g id="_Grid_Repeat_-77"><rect class="cls-5" x="422.67" y="980.11" width="50.44" height="50.44"/><rect class="cls-5" x="473.11" y="1030.55" width="50.44" height="50.44"/></g><g id="_Grid_Repeat_-78"><rect class="cls-5" x="528.59" y="980.11" width="50.44" height="50.44"/><rect class="cls-5" x="579.03" y="1030.55" width="50.44" height="50.44"/></g><g id="_Grid_Repeat_-79"><rect class="cls-5" x="634.52" y="980.11" width="50.44" height="50.44"/><rect class="cls-5" x="684.95" y="1030.55" width="50.44" height="50.44"/></g><g id="_Grid_Repeat_-80"><rect class="cls-5" x="740.44" y="980.11" width="50.44" height="50.44"/><rect class="cls-5" x="790.88" y="1030.55" width="50.44" height="50.44"/></g><g id="_Grid_Repeat_-81"><rect class="cls-5" x="846.36" y="980.11" width="50.44" height="50.44"/><rect class="cls-5" x="896.8" y="1030.55" width="50.44" height="50.44"/></g><g id="_Grid_Repeat_-82"><rect class="cls-5" x="952.28" y="980.11" width="50.44" height="50.44"/><rect class="cls-5" x="1002.72" y="1030.55" width="50.44" height="50.44"/></g><g id="_Grid_Repeat_-83"><rect class="cls-5" x="1058.21" y="980.11" width="50.44" height="50.44"/><rect class="cls-5" x="1108.65" y="1030.55" width="50.44" height="50.44"/></g><g id="_Grid_Repeat_-84"><rect class="cls-5" x="1164.13" y="980.11" width="50.44" height="50.44"/><rect class="cls-5" x="1214.57" y="1030.55" width="50.44" height="50.44"/></g><g id="_Grid_Repeat_-85"><rect class="cls-5" x="1270.05" y="980.11" width="50.44" height="50.44"/><rect class="cls-5" x="1320.49" y="1030.55" width="50.44" height="50.44"/></g><g id="_Grid_Repeat_-86"><rect class="cls-5" x="1375.98" y="980.11" width="50.44" height="50.44"/><rect class="cls-5" x="1426.42" y="1030.55" width="50.44" height="50.44"/></g><g id="_Grid_Repeat_-87"><rect class="cls-5" x="1481.9" y="980.11" width="50.44" height="50.44"/><rect class="cls-5" x="1532.34" y="1030.55" width="50.44" height="50.44"/></g><g id="_Grid_Repeat_-88"><rect class="cls-5" x="1587.82" y="980.11" width="50.44" height="50.44"/><rect class="cls-5" x="1638.26" y="1030.55" width="50.44" height="50.44"/></g><g id="_Grid_Repeat_-89"><rect class="cls-5" x="1693.74" y="980.11" width="50.44" height="50.44"/><rect class="cls-5" x="1744.18" y="1030.55" width="50.44" height="50.44"/></g><g id="_Grid_Repeat_-90"><rect class="cls-5" x="1799.67" y="980.11" width="50.44" height="50.44"/><rect class="cls-5" x="1850.11" y="1030.55" width="50.44" height="50.44"/></g></g><rect class="cls-12" x="-1" y="1" width="1920" height="551"/><path class="cls-14" d="M769.27,24.74c21.7-6.13,46.36-5.97,65.89,6.15,19.54,12.12,31.62,38.23,23.18,59.43-1.67,4.2-4.1,8.39-3.61,12.94.87,8.06,10.52,12.37,18.41,11.54,7.89-.83,15.06-4.92,22.87-6.29,15.43-2.69,32.35,6.92,38.39,21.83,2.91,7.19,3.53,15.31,7.61,21.9,11.2,18.09,37.91,12.9,56.92,4.75,19.02-8.15,44.38-15.63,57.97.7,9.09,10.92,7.93,28.18,17.84,38.33,17.94,18.38,50.53-3.37,72.81,9.07,17.2,9.61,16.38,39.92-1.29,47.76-29.95,13.3-66.42-34.35-93.56-15.95-15.08,10.22-13.53,32.92-19.82,50.27-6.74,18.6-24.71,32.22-44.26,33.56-33.09,2.26-66.87-27.27-97.11-13.96-26.13,11.5-30.39,46.19-40.59,73.26-4.94,13.12-12.41,25.75-23.94,33.4-11.53,7.65-27.74,9.24-39.28,1.07-17.73-12.55-16.46-39.18-11.74-60.28,4.72-21.1,10.14-45.76-3.61-62.72-17.57-21.68-53.28-12.58-71.76,7.47-18.48,20.05-27.54,47.56-45.36,68.22-18.37,21.3-47.11,34.24-74.98,29.41-27.87-4.83-52.82-29.56-54.37-58.21-1.54-28.47,18.08-52.85,38.22-72.17,20.14-19.33,42.96-38.29,51.11-65.35,7.66-25.42.55-53.93-13.41-76.92-6.48-10.67-14.77-22.63-11.11-34.39,2.31-7.44,8.94-12.47,15.55-16.37,15.08-8.9,32.96-14.6,50.28-10.95,15.19,3.2,23.77,15.98,35.68,22.95,20.64-27.65,42.8-50.78,77.03-60.45Z"/><path d="M805.74,421.41c-6.88,0-13.53-1.88-18.88-5.68-18.67-13.22-17.01-40.92-12.34-61.83,4.48-20.03,10.06-44.96-3.31-61.45-6.06-7.47-14.83-11.6-25.36-11.94-15.46-.49-32.77,7.15-44.13,19.48-9.48,10.28-16.61,22.84-23.51,34.98-6.47,11.38-13.15,23.16-21.82,33.2-19.97,23.15-49.23,34.61-76.37,29.91-29.66-5.14-54.08-31.32-55.61-59.6-1.67-30.87,21.28-56.64,38.68-73.34,2.35-2.25,4.73-4.5,7.12-6.76,17.95-16.92,36.5-34.42,43.59-57.95,6.9-22.88,2.06-50.47-13.25-75.71-.51-.85-1.04-1.7-1.57-2.56-6.22-10.12-13.26-21.58-9.69-33.05,2.58-8.3,10.02-13.56,16.22-17.22,12.49-7.38,31.55-15.3,51.35-11.13,10.06,2.12,17.26,8.23,24.23,14.14,3.6,3.05,7.01,5.94,10.76,8.29,18.99-25.29,41.54-49.89,77.01-59.91l.41,1.44-.41-1.44c14.6-4.12,42.73-8.79,67.09,6.32,21.3,13.21,31.97,40.69,23.79,61.26-.34.85-.71,1.7-1.08,2.56-1.43,3.3-2.79,6.42-2.44,9.67.75,6.97,9.44,10.98,16.76,10.21,4.12-.43,8-1.78,12.11-3.21,3.43-1.19,6.97-2.42,10.65-3.07,16.14-2.82,33.73,7.17,40.04,22.74,1.19,2.94,2.01,6.03,2.8,9.01,1.21,4.56,2.35,8.87,4.69,12.66,3.19,5.15,16.57,20.65,55.06,4.17,29.16-12.49,48.69-12.12,59.72,1.12,4.55,5.47,6.63,12.41,8.64,19.12,2.17,7.25,4.22,14.1,9.12,19.13,9.13,9.35,22.43,7.7,36.52,5.95,12.4-1.54,25.22-3.13,35.94,2.86,8.66,4.84,13.71,15,13.18,26.54-.5,10.97-6.09,20.13-14.59,23.91-15.15,6.73-31.64-1.35-47.58-9.17-16.7-8.18-32.47-15.91-45.74-6.91-9.78,6.63-12.21,18.82-14.78,31.73-1.19,5.99-2.43,12.18-4.46,17.8-6.98,19.28-25.3,33.16-45.57,34.54-14.58.99-29.24-4.04-43.44-8.9-18.77-6.44-36.51-12.52-53.17-5.18-19.69,8.67-26.73,31.46-33.53,53.49-1.95,6.32-3.97,12.86-6.25,18.92-5.96,15.8-14.2,27.28-24.52,34.12-6.74,4.47-14.56,6.72-22.09,6.72ZM744.45,277.5c.5,0,1,0,1.5.02,11.43.36,20.98,4.88,27.6,13.04,14.28,17.62,8.53,43.33,3.91,63.99-4.48,20.02-6.18,46.46,11.14,58.73,10.23,7.24,25.69,6.79,37.58-1.1,9.78-6.49,17.64-17.48,23.37-32.68,2.25-5.97,4.25-12.46,6.19-18.74,7-22.68,14.24-46.13,35.19-55.36,17.73-7.81,36.86-1.25,55.35,5.09,13.91,4.77,28.31,9.7,42.26,8.75,19.1-1.3,36.36-14.39,42.95-32.57,1.96-5.41,3.17-11.49,4.34-17.37,2.58-12.93,5.24-26.31,16.04-33.63,14.71-9.97,32.02-1.5,48.75,6.7,15.33,7.51,31.17,15.28,45.04,9.12,7.45-3.31,12.36-11.47,12.81-21.3.48-10.39-3.99-19.5-11.64-23.78-9.86-5.51-22.19-3.98-34.11-2.5-14.19,1.76-28.87,3.59-39.04-6.83-5.42-5.55-7.67-13.08-9.85-20.36-1.92-6.42-3.91-13.06-8.07-18.06-10.06-12.09-28.46-12.18-56.23-.28-10.29,4.41-44.93,17.04-58.79-5.34-2.58-4.17-3.83-8.9-5.04-13.47-.77-2.9-1.56-5.89-2.68-8.66-5.8-14.31-21.94-23.5-36.74-20.91-3.44.6-6.87,1.79-10.19,2.94-4.09,1.42-8.32,2.89-12.78,3.36-8.92.93-19.1-4.02-20.06-12.87-.44-4.04,1.14-7.67,2.67-11.19.36-.83.72-1.65,1.04-2.47,7.67-19.28-2.46-45.12-22.58-57.6-17.08-10.59-40.66-12.77-64.7-5.98-35.11,9.92-57.39,34.65-76.24,59.9l-.8,1.08-1.16-.68c-4.43-2.59-8.44-6-12.32-9.29-6.68-5.67-13.6-11.53-22.91-13.49-18.87-3.97-37.17,3.67-49.21,10.78-5.73,3.39-12.61,8.21-14.88,15.52-3.16,10.17,3.22,20.55,9.39,30.59.53.87,1.06,1.73,1.58,2.58,15.76,25.96,20.7,54.44,13.56,78.13-7.32,24.29-26.18,42.07-44.41,59.26-2.39,2.25-4.76,4.49-7.1,6.74-35.45,34.02-38.53,56.82-37.76,71.01,1.46,26.95,24.79,51.9,53.13,56.81,25.71,4.45,54.6-6.89,73.59-28.91,8.47-9.82,15.08-21.47,21.48-32.72,6.98-12.29,14.2-25,23.91-35.53,11.56-12.54,29.04-20.47,44.94-20.47Z"/><path class="cls-8" d="M671.05,168.84c-.36,2.21-1.09,3.59-2.2,4.14-.34.17-.81.22-1.41.18-.6-.05-1.03,0-1.28.17l-9.44,5.02c-.3.16-.59.58-.87,1.25-.28.67-.57,1.06-.87,1.18-.94.44-3.01.25-6.22-.58-3.21-.83-5.18-1.68-5.91-2.56-.54-.7-.79-1.84-.73-3.43.03-.74.03-1.33,0-1.74l-3.62-46.54c-.12-.46-.33-.83-.62-1.14-.29-.3-.44-.57-.46-.8.02-.88.74-1.59,2.16-2.11.91-.3,2.94-.1,6.09.59,3.56.8,5.42,1.92,5.57,3.35.03.37-.17.94-.6,1.72-.43.78-.63,1.35-.6,1.72l2.98,38.3,6.62-3.63c.37-.4,1.08-.87,2.15-1.41.61-.14,2.34.72,5.18,2.57,2.84,1.86,4.2,3.11,4.08,3.77Z"/><path class="cls-8" d="M702.77,166.9c-.07.8-.39,1.67-.96,2.61-.57.95-1.09,1.53-1.56,1.75-.13.06-.38,0-.74-.19-.37-.18-.66-.26-.88-.25-.09,0-.17.04-.26.09-1.33.52-2.65,1.17-3.96,1.97-3.14,1.81-5.97,4.04-8.51,6.7-4.55-1.56-7.03-2.42-7.44-2.58-2.83-1.04-4.26-1.87-4.31-2.46l-4.05-52.08c-.03-.32.46-.82,1.44-1.5.99-.68,1.73-1.01,2.21-1,.53,0,1.62.29,3.25.84,1.64.55,2.96.79,3.97.71,1.32-.1,2.99-.85,5.01-2.25,1.84-1.34,3.01-1.94,3.51-1.79,1.08.29,2.75,1.39,5,3.28,2.25,1.9,3.5,3.28,3.74,4.14.12.41-.23,1.16-1.05,2.24-.82,1.08-1.52,1.65-2.09,1.69-.48.04-.84,0-1.07-.13-.23-.12-.39-.16-.47-.11-1.56.49-3,1.04-4.32,1.65-3.17,1.4-5.46,2.92-6.88,4.55l.88,11.29c1.48-.95,3.41-1.95,5.81-3.01.7-.14,2.26.77,4.7,2.75,2.43,1.98,3.68,3.38,3.75,4.21.04.51-.22,1.13-.78,1.87-.56.74-1.12,1.22-1.68,1.45-.44.03-1.21.14-2.3.31-1.65.45-4.48,2.15-8.5,5.09l.57,7.27c1.26-.93,2.97-2.04,5.15-3.34,2.18-1.3,3.53-1.97,4.06-2.01.62-.05,2.25.84,4.89,2.67,2.64,1.82,3.94,3.02,3.9,3.58Z"/><path class="cls-8" d="M740.13,119.52c-1.81,6.31-3.68,15.83-5.61,28.56-1.76,11.51-2.56,18.02-2.4,19.54-.03.14.09,1.2.38,3.18.17,1.06.09,2.04-.24,2.94-.35,1.14-.9,1.81-1.64,2-1.26.37-3.86.06-7.81-.95-3.95-1.01-6.25-1.97-6.9-2.9-.3-.44-.5-1.03-.6-1.77-.12-.92-.23-1.54-.34-1.86-6.31-16.29-10.49-31.01-12.53-44.14-.02-.23-.17-.71-.44-1.43-.18-.54-.26-1.03-.25-1.44.09-1.63.66-2.67,1.68-3.12.51-.22,2.4.08,5.65.9,3.43.86,5.35,1.67,5.77,2.42.21.45.29,1.42.23,2.91-.02.28-.15.7-.37,1.25-.22.55-.3,1.01-.23,1.38,1.04,4.8,1.99,9.02,2.85,12.68,2.1,8.76,3.61,13.94,4.53,15.55.41-4.35,1.31-9.94,2.68-16.78,1.37-6.84,2.26-12.52,2.66-17.06-.02-.88.08-2.07.32-3.58.4-1.14,1.07-1.91,2.01-2.31.69-.28,2.37-.01,5.04.81,2.91.94,4.76,2.01,5.56,3.21Z"/><path class="cls-8" d="M777.78,161.3c-.07.8-.39,1.67-.96,2.61-.57.95-1.09,1.53-1.56,1.75-.13.06-.38,0-.74-.19-.37-.18-.66-.26-.88-.25-.09,0-.17.04-.26.09-1.33.52-2.65,1.17-3.96,1.97-3.14,1.81-5.97,4.04-8.51,6.7-4.55-1.56-7.03-2.42-7.44-2.58-2.83-1.04-4.26-1.87-4.31-2.46l-4.05-52.08c-.03-.32.46-.82,1.44-1.5.99-.68,1.73-1.01,2.21-1,.53,0,1.62.29,3.25.84,1.64.55,2.96.79,3.97.71,1.32-.1,2.99-.85,5.01-2.25,1.84-1.34,3.01-1.94,3.51-1.79,1.08.29,2.75,1.39,5,3.28,2.25,1.9,3.5,3.28,3.74,4.15.12.41-.23,1.16-1.05,2.24-.82,1.08-1.52,1.65-2.09,1.69-.48.04-.84,0-1.07-.13-.23-.12-.39-.16-.47-.11-1.56.49-3,1.04-4.32,1.65-3.17,1.4-5.46,2.92-6.88,4.55l.88,11.29c1.48-.95,3.41-1.95,5.81-3.01.7-.14,2.26.77,4.7,2.75,2.43,1.98,3.68,3.38,3.75,4.21.04.51-.22,1.13-.78,1.87-.56.74-1.12,1.22-1.68,1.45-.44.03-1.21.14-2.3.31-1.65.45-4.48,2.15-8.5,5.09l.57,7.27c1.26-.93,2.97-2.04,5.15-3.34,2.18-1.3,3.53-1.97,4.06-2.01.62-.05,2.25.84,4.89,2.67,2.64,1.82,3.94,3.02,3.9,3.58Z"/><path class="cls-8" d="M811.69,158.35c-.36,2.21-1.09,3.59-2.2,4.14-.34.17-.81.22-1.41.18s-1.03,0-1.28.17l-9.44,5.02c-.3.16-.59.58-.87,1.25-.28.67-.57,1.06-.87,1.18-.94.44-3.01.25-6.22-.58-3.21-.83-5.18-1.68-5.91-2.55-.54-.7-.79-1.84-.73-3.43.03-.75.03-1.33,0-1.74l-3.62-46.54c-.12-.46-.33-.83-.62-1.14s-.44-.57-.46-.8c.02-.88.74-1.59,2.16-2.11.91-.3,2.94-.1,6.09.59,3.56.8,5.42,1.92,5.57,3.35.03.37-.17.94-.6,1.72-.43.78-.63,1.35-.6,1.72l2.98,38.3,6.62-3.63c.37-.4,1.08-.87,2.15-1.41.61-.14,2.34.72,5.18,2.57,2.84,1.86,4.2,3.11,4.08,3.77Z"/><path class="cls-8" d="M726.23,240.66c-.04,1.16-.39,2.12-1.04,2.86-1.05,2.96-2.79,5.99-5.2,9.1-2.62,3.31-4.81,5.03-6.57,5.16-.26.02-.51.01-.73-.02-1.99-.5-4.23-1.15-6.72-1.94-4.46-1.52-8.04-4.81-10.73-9.86-2.39-4.56-3.83-9.96-4.31-16.19-.59-7.62.27-14.44,2.59-20.46,2.47-6.41,5.92-9.89,10.34-10.45,1.71-.22,4.3.51,7.78,2.21,3.47,1.69,5.81,3.46,7.02,5.29,1.21,1.84,2.26,5.97,3.16,12.41.19,1.38.13,2.8-.2,4.26-.4,1.75-1.02,2.58-1.86,2.51-1.56-.12-3.53-.48-5.93-1.09-2.89-.76-4.47-1.45-4.74-2.08-.11-.22-.17-.43-.18-.61-.03-.42.11-.95.44-1.6.32-.65.47-1.18.44-1.6.07-1.91.04-3.7-.08-5.36-.19-2.4-.58-4.04-1.18-4.93-2.48,2.23-4.22,5.77-5.22,10.63-.83,4.1-1.05,8.69-.66,13.77.31,3.92.91,7.4,1.81,10.42.9,3.02,1.84,4.82,2.81,5.4.46.24,1.61-.78,3.45-3.08,1.84-2.3,2.99-4.11,3.46-5.45.04-.05.18-.8.42-2.26.2-.85.51-1.38.94-1.6.73-.33,2.7.18,5.93,1.54s4.82,2.37,4.78,3.02Z"/><path class="cls-8" d="M752.68,254.43c-.92.16-1.96.11-3.13-.15-1.17-.26-2.32-.54-3.45-.82-1.35-.27-3.47-.79-6.36-1.55-3.65-1.35-6.56-4.34-8.73-8.96-1.91-4.08-3.1-9.1-3.56-15.06-.38-4.85-.03-10.56,1.06-17.15,1.48-8.84,3.94-13.39,7.37-13.65.31-.02.74.03,1.31.15.56.12,1,.19,1.31.22,3.18-1.21,5.24-1.85,6.16-1.92.44-.03.88-.04,1.33-.03,5.34.3,9.77,3.45,13.29,9.46,3.17,5.43,5.05,12.05,5.66,19.85.58,7.39-.16,13.83-2.21,19.32-2.19,5.97-5.54,9.4-10.02,10.29ZM747.54,203.75c-.99-.21-1.84,1.23-2.55,4.3-.71,3.07-1.55,4.64-2.52,4.72-.22.02-.55-.09-.99-.31-.44-.22-.79-.35-1.06-.37-1.23,3.57-1.59,8.57-1.09,14.99.39,5.03,1.23,9.31,2.53,12.84,1.46,3.93,3.21,6.03,5.27,6.29,2.41.29,4.13-2.42,5.15-8.12.9-4.99,1.08-10.85.56-17.6-.36-4.57-.98-8.38-1.88-11.42-.96-3.27-2.1-5.04-3.4-5.32Z"/><path class="cls-8" d="M829.96,245.74c-.15,2.01-.6,3.13-1.33,3.37-1.04.36-3.08.21-6.15-.45-3.24-.69-5.12-1.47-5.63-2.37-.16-.31-.25-.65-.28-1.03-.02-.28,0-.73.06-1.36.06-.63.08-1.15.04-1.57l-2.45-31.45c-1.74,4.4-3.7,14.16-5.89,29.28-.03.19-.04.4-.02.63.04.46.17,1.2.4,2.2.23,1.01.36,1.65.38,1.92.07,1.43.07,2.36.02,2.78-.15.94-.57,1.53-1.26,1.77-.43.17-1.19.3-2.29.38-5.72.43-9.74-.32-12.06-2.23-.38-.3-.55-.86-.53-1.7,0-1.02-.04-1.69-.16-2.01-2.04-5.14-3.85-9.65-5.44-13.53-3.83-9.37-6.27-14.88-7.33-16.52l2.15,27.57c.05.6.29,1.42.72,2.45.54,1.26.85,2.05.92,2.37.25.91.38,2.02.39,3.31.03,1.58-.2,2.57-.7,2.98-.25.2-.75.33-1.5.39-1.63.12-3.59-.03-5.88-.47-2.47-.42-3.95-.94-4.44-1.55-.25-.31-.39-.69-.42-1.15-.02-.28.02-.74.12-1.4.1-.66.14-1.17.11-1.54l-3.82-49.11c-.04-.55.13-1.21.51-1.95.38-.75.85-1.26,1.41-1.53.72-.38,3.65-.04,8.78,1.02,5.35,1.04,8.22,2.08,8.61,3.12.16.41.23.96.2,1.66-.06.98-.08,1.56-.06,1.75.03.42.13.78.28,1.09l10.87,24.48c.91-4.2,2.51-12.7,4.79-25.51,1.13-6.54,2.19-9.99,3.18-10.34.3-.11.65-.19,1.05-.22.75-.06,2.02.06,3.81.34,1.98.37,3.34.54,4.09.53,3.5.06,5.52.12,6.06.17,2.1.26,3.33.94,3.68,2.02.11.32.18.66.21,1.03.04.46-.02,1.13-.18,2-.15.87-.21,1.52-.18,1.93l3.3,42.39c.04.46.36,1.13.99,2.02.62.88.91,1.56.85,2.03Z"/><path class="cls-8" d="M857.64,191.77c4.41,2.04,6.84,5.92,7.28,11.65.32,4.16-.83,9.53-3.46,16.14-2.92,7.37-6.19,11.19-9.8,11.46-.7.05-1.51-.25-2.43-.9-.91-.65-1.82-1.29-2.71-1.92l.92,11.77c.05.6.21,1.28.49,2.05.39,1.08.65,1.83.77,2.24.12.41.01,1.17-.32,2.29-.33,1.12-.89,1.75-1.68,1.9-.78.15-2.55-.3-5.28-1.35-2.87-1.09-4.68-2.11-5.42-3.08-.45-.62-.52-1.59-.23-2.91.23-.99.33-1.76.28-2.32l-3.33-42.8c-.02-.28-.22-.77-.58-1.49-.37-.71-.54-1.24-.52-1.56.09-2.24.8-3.4,2.12-3.5.22-.02,1.13.18,2.74.6,1.6.42,2.87.61,3.8.59,1.32-.05,2.98-.55,4.96-1.49,1.99-.94,3.44-1.44,4.37-1.51.53-.04,1.06-.01,1.6.09,1.03.2,2.14.82,3.33,1.84,1.42,1.19,2.45,1.93,3.09,2.21ZM852.58,197.51c-1.01.08-2.38.76-4.09,2.05-1.72,1.29-3,2.66-3.86,4.12l1.3,16.69c2.32-.96,4.34-3.97,6.07-9.02,1.59-4.58,2.27-8.41,2.03-11.51-.13-1.62-.61-2.39-1.44-2.33Z"/><path class="cls-8" d="M901.37,233.09c-.36,2.21-1.09,3.59-2.2,4.14-.34.16-.81.22-1.41.18-.6-.05-1.03,0-1.28.16l-9.44,5.02c-.3.16-.59.58-.87,1.25-.28.67-.57,1.06-.87,1.18-.94.44-3.01.25-6.22-.58-3.21-.83-5.18-1.68-5.91-2.55-.54-.7-.79-1.85-.73-3.43.03-.75.03-1.33,0-1.74l-3.62-46.54c-.12-.45-.33-.83-.62-1.14-.29-.3-.44-.57-.46-.8.02-.88.74-1.59,2.16-2.11.91-.3,2.94-.1,6.09.59,3.56.8,5.42,1.92,5.57,3.35.03.37-.17.94-.6,1.72-.43.77-.63,1.35-.6,1.72l2.98,38.3,6.62-3.63c.37-.4,1.08-.87,2.15-1.41.61-.14,2.34.72,5.18,2.57,2.84,1.85,4.2,3.11,4.08,3.77Z"/><path class="cls-8" d="M933.09,231.15c-.07.79-.39,1.67-.96,2.61-.57.95-1.09,1.53-1.56,1.75-.13.06-.38,0-.75-.19-.37-.18-.66-.26-.88-.25-.09,0-.17.04-.26.09-1.33.52-2.65,1.17-3.96,1.97-3.14,1.81-5.97,4.04-8.51,6.7-4.55-1.57-7.03-2.43-7.44-2.58-2.83-1.04-4.26-1.86-4.31-2.46l-4.05-52.08c-.02-.32.46-.82,1.44-1.5.99-.68,1.73-1.01,2.21-1,.53,0,1.62.29,3.25.84,1.64.55,2.96.79,3.97.71,1.32-.1,2.99-.85,5-2.25,1.84-1.34,3.01-1.94,3.51-1.79,1.08.29,2.75,1.39,5,3.28,2.25,1.9,3.5,3.28,3.74,4.14.12.41-.23,1.15-1.05,2.24-.82,1.08-1.52,1.65-2.09,1.69-.48.04-.84,0-1.07-.13-.23-.12-.39-.16-.47-.1-1.56.49-3,1.04-4.32,1.65-3.17,1.4-5.46,2.92-6.88,4.55l.88,11.29c1.48-.94,3.41-1.95,5.81-3.01.7-.14,2.26.77,4.7,2.75,2.43,1.98,3.68,3.38,3.75,4.21.04.51-.22,1.13-.78,1.87-.56.74-1.12,1.22-1.68,1.45-.44.03-1.21.14-2.3.31-1.65.45-4.48,2.15-8.5,5.09l.57,7.27c1.26-.93,2.97-2.04,5.15-3.35,2.18-1.3,3.53-1.97,4.06-2.01.62-.05,2.25.84,4.89,2.67,2.64,1.82,3.94,3.01,3.9,3.58Z"/><path class="cls-8" d="M965.38,191.12c-.35.03-.85-.09-1.49-.34-.64-.25-1.15-.32-1.54-.2l-6.65,2.45,2.83,36.43c.1,1.34.52,2.77,1.26,4.3.21.45.24,1.33.07,2.64-.15,1.45-.5,2.38-1.04,2.79-.08.05-.3.09-.65.12-1.45.11-3.5-.04-6.14-.45-2.96-.48-4.73-1.02-5.31-1.62-.68-.79-.75-1.9-.19-3.33.48-1.24.7-2.14.65-2.7l-2.67-34.28-4.59,1.6c-.22.06-.56.29-1.04.67-.48.38-.9.54-1.26.48-1.03-.2-2.53-1.47-4.48-3.81-1.95-2.34-2.85-3.95-2.7-4.85.27-1.09,1.24-1.97,2.91-2.66.43-.17,1-.24,1.71-.2.71.04,1.26,0,1.65-.12l22.5-7.88c.22-.06.83-.39,1.85-.97.68-.37,1.31-.54,1.89-.49,1.25.09,2.12.54,2.63,1.34.35.53.76,1.55,1.23,3.04.58,1.77.92,3.32,1.03,4.66.08,1.02.02,1.8-.18,2.35-.2.55-.96.9-2.28,1.04Z"/><path class="cls-8" d="M1004.6,225.81c-.07.79-.39,1.67-.96,2.61-.57.95-1.09,1.53-1.56,1.75-.13.06-.38,0-.75-.19-.37-.18-.66-.26-.88-.25-.09,0-.17.04-.26.09-1.33.52-2.65,1.17-3.96,1.97-3.14,1.81-5.97,4.04-8.51,6.7-4.55-1.57-7.03-2.42-7.44-2.58-2.83-1.04-4.26-1.86-4.31-2.46l-4.05-52.08c-.03-.32.46-.82,1.44-1.5.99-.68,1.73-1.01,2.21-1,.53,0,1.62.29,3.25.84,1.64.55,2.96.79,3.97.71,1.32-.1,2.99-.85,5-2.25,1.84-1.34,3.01-1.94,3.51-1.79,1.08.29,2.75,1.39,5,3.28,2.25,1.9,3.5,3.28,3.74,4.14.12.41-.23,1.15-1.06,2.24-.82,1.08-1.52,1.65-2.09,1.69-.48.04-.84,0-1.07-.13-.23-.12-.39-.16-.47-.1-1.56.49-3,1.04-4.32,1.65-3.17,1.4-5.46,2.92-6.88,4.55l.88,11.29c1.48-.95,3.41-1.95,5.81-3.01.7-.14,2.26.77,4.7,2.75,2.43,1.98,3.68,3.38,3.75,4.21.04.51-.22,1.13-.78,1.87-.56.74-1.12,1.22-1.68,1.45-.44.03-1.21.14-2.3.31-1.65.45-4.48,2.15-8.5,5.09l.57,7.27c1.26-.93,2.97-2.04,5.15-3.35,2.18-1.3,3.53-1.97,4.06-2.01.62-.05,2.25.84,4.89,2.67,2.64,1.82,3.94,3.01,3.9,3.58Z"/><path class="cls-8" d="M1019.16,212.39c.04,1.71-.3,2.69-1.03,2.93-.22.06-.44.1-.66.12-1.28.1-2.92-.32-4.94-1.23-2.02-.92-3.7-2.07-5.05-3.46-.57-.56-.66-1.67-.26-3.32.4-1.66.6-2.51.6-2.55l-2.04-26.18c-.09-1.2.5-2.08,1.79-2.64.26-.11.63-.19,1.11-.22,1.23-.09,2.66.08,4.29.52,1.63.44,2.67.96,3.11,1.58.1.13.24,1.38.42,3.73l2.2,28.26c.02.28.1.68.23,1.2.13.52.21.95.23,1.27ZM1019.94,222.44c.16.41.25,1.54.26,3.39,0,2.42.04,3.9.08,4.45.14,1.85.17,3.29.07,4.31-.1,1.03-.6,1.67-1.51,1.92-.52.18-2.07-.17-4.66-1.05-2.73-.96-4.39-1.83-4.99-2.62-.35-.48-.3-1.32.14-2.52.22-.53.31-1.39.26-2.6-.17-1.01-.32-2.95-.45-5.82.05-1.68.64-2.53,1.79-2.57,1.24,0,3,.39,5.27,1.17,2.27.78,3.52,1.42,3.74,1.92Z"/><rect class="cls-7" x="1001.82" y="930.78" width="23.39" height="88.07" rx="3.29" ry="3.29"/><path d="M1021.92,1019.1h-16.8c-1.96,0-3.54-1.59-3.54-3.54v-81.48c0-1.96,1.59-3.54,3.54-3.54h16.8c1.96,0,3.54,1.59,3.54,3.54v81.48c0,1.96-1.59,3.54-3.54,3.54ZM1005.12,931.03c-1.68,0-3.04,1.37-3.04,3.04v81.48c0,1.68,1.37,3.04,3.04,3.04h16.8c1.68,0,3.04-1.37,3.04-3.04v-81.48c0-1.68-1.37-3.04-3.04-3.04h-16.8Z"/><rect class="cls-7" x="938.43" y="930.2" width="22.16" height="88.07" rx="3.29" ry="3.29"/><path d="M957.29,1018.52h-15.57c-1.95,0-3.54-1.59-3.54-3.54v-81.48c0-1.96,1.59-3.54,3.54-3.54h15.57c1.95,0,3.54,1.59,3.54,3.54v81.48c0,1.96-1.59,3.54-3.54,3.54ZM941.72,930.45c-1.68,0-3.04,1.37-3.04,3.04v81.48c0,1.68,1.37,3.04,3.04,3.04h15.57c1.68,0,3.04-1.37,3.04-3.04v-81.48c0-1.68-1.37-3.04-3.04-3.04h-15.57Z"/><rect class="cls-4" x="1155.99" y="485.62" width="2.41" height="1"/><rect class="cls-2" x="1068.91" y="484.05" width="0" height="50.99"/><path class="cls-7" d="M978.43,612.68c-53.37,0-96.63-34.4-96.63-76.82v-12.67c0-42.43-.57-127.51,52.8-127.51l77.7-3.17c53.37,0,62.76,88.25,62.76,130.68v12.67c0,42.43-43.26,76.82-96.63,76.82Z"/><path class="cls-8" d="M1004.76,556.26c-2.55,7.05-2.65,6.54-7.05,12.59-4.4,6.05-10.93,10.95-18.34,11.62-6.48.58-12.96-2.17-17.87-6.46-5.65-4.94-9.06-12.33-10.15-19.79,15.25-.5,38.16,2.54,53.41,2.04Z"/><path d="M977.65,581.05c-5.66,0-11.58-2.37-16.48-6.66-5.37-4.7-9.13-12.02-10.31-20.1l-.08-.55.56-.02c7.65-.25,17.37.4,26.76,1.02,9.37.62,19.05,1.27,26.65,1.02l.74-.02-.25.69c-2.2,6.07-2.62,6.65-5.41,10.41-.49.66-1.05,1.41-1.7,2.31-5.02,6.9-11.84,11.21-18.7,11.82-.58.05-1.17.08-1.76.08ZM951.93,554.7c1.24,7.62,4.82,14.5,9.9,18.93,5.21,4.56,11.6,6.87,17.5,6.34,6.58-.59,13.13-4.75,17.98-11.41.66-.9,1.22-1.66,1.71-2.32,2.66-3.59,3.1-4.18,5.02-9.46-7.52.18-16.92-.44-26.01-1.04-9.14-.61-18.58-1.24-26.1-1.04Z"/><path d="M979.26,567.91c-2.91,0-5.81-.18-8.63-.42-8.6-1.19-15.58-6.17-19.17-13.69l.9-.43c4.72,9.87,13.54,12.46,18.38,13.13,11.78.98,25.1,1.09,33.77-9.98l.79.62c-6.88,8.78-16.49,10.77-26.04,10.77Z"/><path d="M991.87,496.32c6.32-10.46,23.85-12.07,31.06-3.7,6.21,7.2,3.68,20.51-4.71,26.85-5.3,4.01-13.9,5.94-20.71,1.85-8.47-5.09-10.36-17.2-5.65-25Z"/><path class="cls-8" d="M991.67,502.49c6.36-9.43,23.99-10.88,31.25-3.34,6.24,6.49,3.7,18.49-4.73,24.2-5.33,3.61-13.98,5.36-20.83,1.67-8.52-4.59-10.42-15.5-5.68-22.54Z"/><path class="cls-3" d="M998.75,507.06c4.77-7.68,17.98-8.86,23.42-2.72,4.68,5.28,2.78,15.05-3.55,19.7-4,2.94-10.48,4.36-15.62,1.36-6.39-3.73-7.81-12.62-4.26-18.34Z"/><path d="M1004.01,509.38c2.52-6.34,9.51-7.32,12.39-2.25,2.48,4.36,1.47,12.43-1.88,16.28-2.11,2.43-5.54,3.6-8.26,1.12-3.38-3.08-4.13-10.42-2.25-15.15Z"/><path d="M1024.57,495.79l-.4-.91s.06-.03.09-.04c1.49-.74,6.25-5.46,6.61-6.8,0-.01,0-.03,0-.04l.97.23s0,.03-.01.04c-.75,3.04-3.3,5.69-7.19,7.49-.03.01-.06.03-.09.04Z"/><path d="M1019.74,495.52l-.4-.92s.06-.03.1-.04c1.49-.74,6.24-5.46,6.61-6.8,0-.01,0-.03,0-.04l.97.23s0,.03-.01.04c-.75,3.04-3.3,5.69-7.19,7.49-.03.01-.06.03-.09.04Z"/><path d="M921.15,496.18c6.32-10.46,23.85-12.07,31.06-3.7,6.21,7.2,3.68,20.51-4.71,26.85-5.3,4.01-13.9,5.94-20.71,1.85-8.47-5.09-10.36-17.2-5.65-25Z"/><path class="cls-8" d="M920.94,502.35c6.36-9.43,23.99-10.88,31.25-3.34,6.24,6.49,3.7,18.49-4.73,24.2-5.33,3.61-13.98,5.36-20.83,1.67-8.52-4.59-10.42-15.5-5.68-22.54Z"/><path class="cls-3" d="M928.02,506.92c4.77-7.68,17.98-8.86,23.42-2.72,4.68,5.28,2.78,15.05-3.55,19.7-4,2.94-10.48,4.36-15.62,1.36-6.39-3.73-7.81-12.62-4.26-18.34Z"/><path d="M933.28,509.24c2.52-6.34,9.51-7.32,12.39-2.25,2.48,4.36,1.47,12.43-1.88,16.28-2.11,2.43-5.54,3.6-8.26,1.12-3.38-3.08-4.13-10.42-2.25-15.15Z"/><path d="M929.83,493.38s-.07-.04-.1-.06c-3.26-1.81-7.2-4.86-7.79-9.17,0-.02,0-.03,0-.04l.99-.12s0,.03,0,.05c.25,1.5,5.51,7.37,7.27,8.4.04.02.07.04.11.06l-.47.88Z"/><path d="M925.54,496.86s-.06-.03-.09-.05c-2.82-1.66-6.24-4.46-6.71-8.46,0-.01,0-.03,0-.04l.99-.1s0,.03,0,.04c.2,1.38,4.69,6.75,6.21,7.69.03.02.06.04.1.06l-.49.87Z"/><path d="M975.91,540.59c-3.59-.06-6.04-1.36-6.72-3.56-.78-2.54.96-5.6,4.64-8.19l.57.82c-3.27,2.29-4.9,5-4.26,7.07.54,1.77,2.65,2.81,5.78,2.86l-.02,1Z"/><path d="M1029.8,481.14c-2.48-5.01-7.77-7.14-11.89-7.45-4.88-.38-9.68,1.13-14.31,2.59l-.6-1.91c4.6-1.44,9.8-3.08,15.07-2.68,5.96.46,11.15,3.74,13.53,8.56l-1.79.89Z"/><path d="M957.38,480.95c-1.63-4.13-4.72-6.97-8.7-8.01-4.74-1.24-10.12.2-14.76,3.96l-1.26-1.55c5.14-4.16,11.16-5.74,16.52-4.34,4.61,1.21,8.17,4.48,10.05,9.21l-1.86.74Z"/><polygon class="cls-11" points="956.14 630.06 797.48 933.68 1160 933.68 1000.69 630.06 956.14 630.06"/><path d="M1160.83,934.18h-364.17l.38-.73,158.8-303.88h45.15l.14.27,159.69,304.34ZM798.31,933.18h360.86l-158.78-302.61h-43.94l-158.14,302.61Z"/><path class="cls-10" d="M928.58,728.8c.15,4.07.3,8.13.45,12.2.31-.12.67-.14,1.06-.02,2.82.83,5.22,3.39,4.54,6.89-.17.86-.49,1.61-.93,2.27-.06.19-.13.37-.22.54-.65,1.39-1.88,2.43-3.17,2.53-.28.09-.56.14-.83.15.2,5.26.39,10.51.59,15.77l32.38-.04c-.14-1.12.01-2.25.61-3.29.83-1.45,2.25-2.27,3.73-2.53.42-.14.88-.24,1.38-.28,1.76-.14,3.56.63,4.77,2.08.96,1.15,1.43,2.54,1.57,4.01,15.73-.02,31.46-.04,47.2-.05v-40.17l-93.14-.05Z"/><path d="M929.6,769.62l-.62-16.77h.52c.22,0,.44-.04.67-.12l.12-.02c1.06-.08,2.17-.98,2.75-2.24.07-.16.14-.33.2-.5l.06-.11c.42-.63.71-1.33.85-2.08.64-3.31-1.72-5.59-4.19-6.32-.27-.08-.52-.08-.74.01l-.65.25-.5-13.41h.52l93.64.05v41.17l-48.15.06-.04-.45c-.15-1.5-.64-2.76-1.46-3.74-1.1-1.32-2.73-2.03-4.35-1.91-.44.04-.86.12-1.26.26-1.57.29-2.77,1.1-3.46,2.31-.5.87-.68,1.88-.54,2.98l.07.56-33.43.04ZM930.01,753.8l.55,14.82,31.36-.03c-.04-1.11.19-2.13.72-3.04.83-1.45,2.31-2.46,4.08-2.78.41-.14.91-.25,1.43-.29,1.94-.16,3.88.69,5.2,2.26.86,1.04,1.41,2.32,1.63,3.83l46.25-.05v-39.17l-92.12-.05.41,11.1c.24,0,.48.02.73.1,2.89.85,5.65,3.55,4.89,7.47-.17.87-.49,1.67-.97,2.39-.06.18-.13.36-.21.53-.73,1.58-2.11,2.68-3.52,2.81-.14.04-.28.08-.41.1Z"/><path class="cls-6" d="M928.58,728.8l68.96-30.24c-3.23-.98,28.54,3.53,24.18,30.3"/><path d="M928.78,729.26l-.4-.92,68.45-30.02c.14-.54.68-.45,1.89-.19,1.13.24,27.53,6.05,23.5,30.8l-.99-.16c1.28-7.84-.46-14.51-5.18-19.84-6.36-7.19-15.98-9.61-18.22-9.95l-.08.04-68.96,30.24Z"/><path class="cls-9" d="M942.29,738.22c2.16-3.47,8.13-4.01,10.59-1.23,2.12,2.39,1.26,6.81-1.61,8.92-1.81,1.33-4.74,1.97-7.06.62-2.89-1.69-3.53-5.71-1.93-8.3Z"/><path d="M947.09,747.78c-1.06,0-2.13-.24-3.12-.82-1.41-.82-2.41-2.2-2.83-3.89-.44-1.76-.16-3.67.73-5.11,1.12-1.8,3.26-3,5.74-3.21,2.3-.2,4.42.52,5.65,1.91,1,1.13,1.45,2.7,1.26,4.43-.22,2.08-1.32,4.03-2.95,5.22-1.15.84-2.79,1.46-4.49,1.46ZM948.36,735.72c-.22,0-.44,0-.67.03-2.17.18-4.03,1.21-4.98,2.74h0c-.75,1.21-.98,2.84-.61,4.34.35,1.42,1.19,2.58,2.36,3.27,2.19,1.28,4.91.59,6.51-.59,1.4-1.03,2.35-2.72,2.54-4.52.15-1.45-.21-2.75-1.02-3.66-.91-1.03-2.43-1.61-4.15-1.61Z"/><path class="cls-9" d="M1003.41,736.17c1.67-3.14,6.3-3.62,8.21-1.11,1.64,2.16.97,6.15-1.24,8.05-1.4,1.2-3.67,1.78-5.47.56-2.24-1.52-2.74-5.16-1.49-7.49Z"/><path d="M1007.13,744.84c-.85,0-1.71-.23-2.51-.77-2.59-1.76-2.95-5.71-1.65-8.14h0c.9-1.69,2.64-2.8,4.66-2.96,1.79-.14,3.44.52,4.39,1.78,1.77,2.32,1.11,6.65-1.32,8.73-.91.78-2.22,1.36-3.57,1.36ZM1003.86,736.4c-1.1,2.06-.76,5.42,1.33,6.85,1.63,1.11,3.66.51,4.87-.52,2.03-1.74,2.62-5.46,1.17-7.37-.75-.99-2.06-1.5-3.52-1.39-1.67.13-3.11,1.04-3.85,2.43h0Z"/><path class="cls-9" d="M985.99,754.94c2.16-3.47,8.13-4.01,10.59-1.23,2.12,2.39,1.26,6.81-1.61,8.92-1.81,1.33-4.74,1.97-7.06.62-2.89-1.69-3.53-5.71-1.93-8.3Z"/><path d="M990.79,764.49c-1.06,0-2.13-.24-3.12-.82-1.41-.82-2.41-2.2-2.83-3.89-.44-1.76-.16-3.67.73-5.11,1.12-1.8,3.26-3,5.74-3.21,2.3-.2,4.42.52,5.65,1.91,1,1.13,1.45,2.7,1.26,4.43-.22,2.08-1.32,4.03-2.95,5.22-1.14.84-2.79,1.46-4.49,1.46ZM992.06,752.43c-.22,0-.44,0-.67.03-2.17.18-4.03,1.21-4.98,2.74h0c-.75,1.21-.98,2.84-.61,4.34.35,1.42,1.19,2.58,2.36,3.27,2.19,1.28,4.91.59,6.51-.59,1.4-1.03,2.35-2.72,2.54-4.52.15-1.45-.21-2.75-1.02-3.66-.91-1.03-2.43-1.61-4.15-1.61Z"/><path d="M950.52,757.54c1.06-1.7,4.01-1.97,5.22-.6,1.04,1.17.62,3.34-.79,4.37-.89.65-2.34.97-3.48.3-1.42-.83-1.74-2.8-.95-4.07Z"/><path d="M972.51,739.93c1.06-1.7,4.01-1.97,5.22-.6,1.04,1.17.62,3.34-.79,4.37-.89.65-2.34.97-3.48.3-1.42-.83-1.74-2.8-.95-4.07Z"/><rect x="1015.53" y="751.48" width="2.62" height="12.6" rx="1.07" ry="1.07"/><path d="M1015.9,747.06c.51-.85,1.91-.98,2.49-.3.5.58.3,1.66-.38,2.18-.43.32-1.11.48-1.66.15-.68-.41-.83-1.39-.45-2.03Z"/><path class="cls-7" d="M1001.84,783.63l-6.67,4.63c-1.92,1.33-4.61.94-6.02-.86l-14.48-18.49c-1.41-1.8-1-4.34.91-5.67l6.67-4.63c1.92-1.33,4.61-.94,6.02.86l14.48,18.49c1.41,1.8,1,4.34-.91,5.67Z"/><path d="M992.62,789.29c-1.4,0-2.78-.6-3.67-1.74l-14.48-18.49c-.72-.92-1.02-2.04-.85-3.17.17-1.15.82-2.17,1.81-2.86l6.67-4.63c2.02-1.4,4.87-.99,6.36.91l14.48,18.49c.72.92,1.02,2.04.85,3.17-.17,1.15-.82,2.17-1.81,2.86l-6.67,4.63c-.81.56-1.75.83-2.69.83ZM984.8,758.07c-.84,0-1.68.24-2.41.75l-6.67,4.63c-.88.61-1.45,1.51-1.6,2.53-.15.99.12,1.98.75,2.79l14.48,18.49c1.33,1.7,3.88,2.06,5.68.81l6.67-4.63c.88-.61,1.45-1.51,1.6-2.53.15-.99-.12-1.98-.75-2.79l-14.48-18.49c-.79-1.02-2.03-1.55-3.27-1.55Z"/><polyline class="cls-11" points="1065.52 750.62 1033.96 807.36 986.44 787.27 1003.09 776.28 1024.45 786.64 1058.79 740.29"/><polygon points="1034.18 808 985.38 787.37 1003.05 775.71 1024.29 786.01 1058.39 739.99 1059.19 740.59 1024.6 787.27 1003.12 776.86 987.49 787.18 1033.74 806.73 1065.08 750.38 1065.95 750.86 1034.18 808"/><path class="cls-7" d="M955.65,792.34l-6.18-5.32c-1.76-1.51-1.88-4.08-.27-5.73l16.47-16.95c1.61-1.65,4.33-1.77,6.09-.26l6.18,5.32c1.76,1.51,1.88,4.08.27,5.73l-16.47,16.95c-1.61,1.65-4.33,1.77-6.09.26Z"/><path d="M958.56,793.65c-1.1,0-2.2-.37-3.07-1.12l-6.18-5.32c-.91-.78-1.43-1.84-1.48-3-.05-1.15.37-2.25,1.2-3.09l16.47-16.95c1.7-1.74,4.58-1.86,6.43-.27l6.18,5.32c.91.78,1.43,1.84,1.48,3,.05,1.15-.37,2.25-1.2,3.09l-16.47,16.95c-.9.92-2.13,1.39-3.36,1.39ZM968.85,763.28c-1.1,0-2.2.42-3,1.24l-16.47,16.95c-.73.75-1.1,1.71-1.05,2.72.05,1.02.51,1.96,1.31,2.64l6.18,5.32c1.65,1.42,4.23,1.32,5.74-.24l16.47-16.95c.73-.75,1.1-1.71,1.05-2.72-.04-1.02-.51-1.96-1.31-2.64l-6.18-5.32c-.78-.67-1.76-1-2.74-1Z"/><polyline class="cls-11" points="891.24 755.72 920.38 812.46 964.28 792.37 948.9 781.38 929.17 791.74 897.46 745.39"/><polygon points="920.16 813.12 890.8 755.95 891.69 755.49 920.61 811.81 963.28 792.28 948.86 781.97 929.01 792.39 897.04 745.67 897.87 745.11 929.33 791.09 948.94 780.8 965.27 792.47 920.16 813.12"/><polygon class="cls-7" points="954.53 606.89 1001.05 606.89 1019.54 662.51 937.14 662.51 954.53 606.89"/><path class="cls-11" d="M1035.97,1016.34l-11.69-.29-.43-13.42h.13c-.07,2.84-8.73,5.63-12.61,5.63s-10.71-2.79-10.78-5.63h0v27.52c0,2.4,2.07,4.35,4.62,4.35h35.3c2.07,0,3.72-1.61,3.66-3.56l-.25-7.15c-.14-4.07-3.63-7.34-7.95-7.45Z"/><path d="M1040.51,1034.99h-35.3c-2.82,0-5.12-2.18-5.12-4.85v-27.52h1c.06,2.32,6.36,5.13,10.28,5.13,3.69,0,10.97-2.46,11.99-4.67l-.03-.97h1.17v.51c-.02.21-.06.41-.13.61l.39,12.31,11.22.28c4.58.12,8.29,3.6,8.44,7.93l.25,7.15c.04,1.04-.35,2.03-1.09,2.79-.79.81-1.9,1.28-3.07,1.28ZM1001.09,1004.74v25.41c0,2.12,1.85,3.85,4.12,3.85h35.3c.89,0,1.75-.36,2.35-.97.55-.57.84-1.3.81-2.06l-.25-7.15c-.13-3.8-3.41-6.86-7.47-6.96l-12.17-.31-.38-11.93c-2.58,2.43-9.13,4.15-12.04,4.15s-8.11-1.69-10.28-4.02Z"/><path class="cls-11" d="M923.91,1019.63l12.65-.29.47-13.42h-.15c.08,2.84,9.44,5.63,13.64,5.63s11.58-2.79,11.66-5.63h0v27.52c0,2.4-2.24,4.35-5,4.35h-38.18c-2.24,0-4.03-1.61-3.96-3.56l.27-7.15c.15-4.07,3.92-7.34,8.6-7.45Z"/><path d="M957.18,1038.28h-38.18c-1.31,0-2.54-.5-3.39-1.38-.72-.75-1.1-1.7-1.06-2.69l.27-7.15c.16-4.33,4.15-7.81,9.09-7.93l12.18-.28.43-12.31c-.08-.2-.12-.4-.12-.61v-.51s1.16,0,1.16,0l-.03.96c1.11,2.21,9.01,4.67,13.01,4.67,4.25,0,11.09-2.81,11.16-5.14h1v27.53c0,2.67-2.47,4.85-5.5,4.85ZM923.92,1020.13c-4.41.1-7.98,3.16-8.12,6.97l-.27,7.15c-.03.71.25,1.41.78,1.96.66.69,1.64,1.08,2.67,1.08h38.18c2.48,0,4.5-1.73,4.5-3.85v-25.49c-2.29,2.37-7.96,4.1-11.16,4.1s-10.34-1.76-13.06-4.22l-.42,12-13.12.3Z"/><path class="cls-13" d="M1016.7,465.55c14.74,18.52,28.41,38.11,37.81,59.58,11.06,25.28-.85,32.94-21.9,49.88-7.91,6.37-28.69,15.48-32.26,24.38-2.65,6.6,17.05,80.81,21.7,81.25,31.07,2.93,62.27,4.66,93.49,5.19-27.73-26.83-30.77-67.94-32.21-105.35-1.03-26.71-2.06-53.43-3.09-80.14-1.13-29.24-2.84-60.24-20.34-84.42-17.5-24.18-56.87-36.73-80.39-17.6,1.71,25.24,21.1,46.99,37.2,67.23Z"/><path d="M1116.79,686.35l-1.27-.02c-31.11-.53-62.58-2.28-93.53-5.19-.54-.05-1.07-.55-1.73-1.62-3.32-5.44-9.17-24.83-13.49-41.62-4.23-16.46-8.27-35.26-6.9-38.69,2.45-6.12,12.59-12.19,21.53-17.54,4.27-2.55,8.29-4.97,10.88-7.04,1.1-.88,2.17-1.74,3.21-2.58,19.22-15.38,28.87-23.1,18.54-46.71-8.08-18.48-19.72-36.82-37.74-59.47-1.48-1.86-2.98-3.73-4.5-5.61-15.36-19.09-31.25-38.82-32.81-61.9l-.02-.26.2-.16c9.43-7.67,21.76-10.75,35.66-8.93,17.85,2.35,35.27,12.55,45.45,26.62,18.13,25.06,19.41,58.12,20.43,84.69l3.09,80.14c1.56,40.5,5.19,79.01,32.06,105.01l.91.88ZM1017.09,465.24c18.07,22.72,29.75,41.13,37.87,59.69,10.64,24.32.17,32.69-18.83,47.89-1.04.83-2.12,1.69-3.21,2.58-2.63,2.12-6.69,4.55-10.99,7.12-8.81,5.27-18.79,11.25-21.12,17.06-2.22,5.55,13.31,66.77,20.03,78.92.86,1.56,1.24,1.64,1.26,1.65,30.51,2.88,61.52,4.61,92.2,5.17-26.32-26.24-29.91-64.55-31.46-104.81l-3.09-80.14c-1.02-26.43-2.29-59.33-20.24-84.15-10.03-13.86-27.18-23.9-44.77-26.22-9.45-1.24-23.11-.76-34.7,8.55,1.64,22.65,17.37,42.19,32.57,61.08,1.52,1.88,3.02,3.75,4.5,5.61Z"/><path class="cls-13" d="M940.28,466.12c-15.32,18.52-29.55,38.11-39.32,59.58-11.5,25.28.89,32.94,22.78,49.88,8.23,6.37,29.84,15.48,33.55,24.38,2.75,6.6-17.73,80.81-22.57,81.25-32.31,2.93-64.76,4.66-97.23,5.19,28.84-26.83,32-67.94,33.5-105.35,1.07-26.71,2.14-53.43,3.21-80.14,1.17-29.24,2.95-60.24,21.15-84.42,18.2-24.18,59.15-36.73,83.61-17.6-1.78,25.24-21.94,46.99-38.69,67.23Z"/><path d="M836.2,686.92l.95-.89c27.94-26,31.72-64.51,33.34-105.01l3.21-80.14c1.07-26.57,2.39-59.64,21.25-84.7,10.51-13.96,28.49-24.14,46.92-26.57,14.38-1.89,27.66,1.26,37.4,8.88l.21.16-.02.27c-1.62,23.08-18.15,42.82-34.12,61.91-1.58,1.88-3.14,3.75-4.68,5.61h0c-18.74,22.65-30.84,40.99-39.25,59.47-10.74,23.6-.7,31.32,19.29,46.7,1.09.84,2.2,1.69,3.34,2.58,2.68,2.08,6.88,4.49,11.31,7.04,9.3,5.35,19.84,11.42,22.39,17.54,1.42,3.4-2.72,22.01-7.07,38.29-4.43,16.6-10.47,35.95-13.98,41.78-.75,1.24-1.34,1.81-1.93,1.87-32.2,2.92-64.93,4.67-97.27,5.19l-1.3.02ZM949.92,390.07c-2.59,0-5.23.17-7.91.53-18.17,2.39-35.9,12.43-46.25,26.18-18.67,24.81-19.99,57.71-21.05,84.14l-3.21,80.14c-1.61,40.26-5.35,78.57-32.72,104.81,31.9-.55,64.15-2.29,95.9-5.17,0,0,.38-.06,1.23-1.49,6.79-11.49,23.21-73.56,20.92-79.06-2.42-5.81-12.8-11.79-21.96-17.06-4.47-2.57-8.69-5-11.43-7.12-1.14-.88-2.25-1.74-3.34-2.58-19.77-15.2-30.65-23.58-19.59-47.9,8.44-18.56,20.59-36.97,39.39-59.69,1.54-1.86,3.1-3.73,4.68-5.61,15.81-18.89,32.16-38.43,33.87-61.07-7.69-5.93-17.61-9.04-28.53-9.04Z"/><path class="cls-8" d="M1320.01,454.96l-98.17-10.35c-125.18,16.42-142.05,68.33-40.5-34.49l-6.8-118.09c10.74-19.57,32.44-38.29,67.03-34.59l118.86,12.49c34.59,3.69,40.21,23.3,37.76,46.22l-11.11,103.99c-2.45,22.92-32.48,38.51-67.07,34.82Z"/><path d="M1115.31,473.83c-.68,0-1.04-.29-1.37-.84-.92-1.52-.27-2.09,7.71-8.97,9.43-8.14,29.01-25.02,58.14-54.48l-6.79-117.85.21-.38c6.65-12.12,26.65-39.83,68.5-35.36l118.86,12.49c39.18,4.19,41.08,29.33,39.1,47.87l-11.11,103.99c-1.24,11.6-9.15,21.75-22.28,28.56-12.93,6.71-29.42,9.4-46.44,7.59l-97.99-10.33c-52.04,6.85-84.89,19.7-98.93,25.19-4.4,1.72-6.46,2.53-7.61,2.53ZM1176.05,292.38l6.82,118.32-.47.47c-29.48,29.84-49.27,46.92-58.79,55.12-1.16,1-2.25,1.94-3.2,2.77.46-.18.93-.36,1.42-.56,14.16-5.54,47.31-18.5,99.81-25.39l.18-.02,98.35,10.37c16.44,1.76,32.33-.82,44.74-7.27,12.21-6.34,19.55-15.65,20.68-26.22l11.11-103.99c2-18.73-.33-40.72-36.43-44.57l-118.86-12.49c-39.65-4.23-58.79,21.67-65.35,33.44Z"/><path d="M1219.51,346.07c-.09,1.03-.25,1.6-.47,1.69-.31.14-.91-.01-1.8-.47-.94-.48-1.47-.96-1.6-1.44-.04-.17-.06-.35-.06-.54,0-.14.02-.38.05-.7.03-.32.05-.59.05-.81v-16.34c-.61,2.21-1.41,7.18-2.4,14.9-.01.1-.02.2-.02.32,0,.24.02.62.07,1.15.04.53.07.86.07,1.01-.01.74-.03,1.22-.06,1.44-.07.48-.2.77-.41.86-.13.07-.36.11-.68.11-1.69,0-2.86-.54-3.5-1.62-.1-.17-.14-.47-.12-.9.03-.53.03-.88,0-1.04-.48-2.74-.91-5.14-1.29-7.2-.91-4.99-1.5-7.93-1.78-8.82v14.33c0,.31.05.74.16,1.3.13.67.2,1.09.21,1.26.05.48.07,1.06.04,1.73-.03.82-.12,1.32-.27,1.51-.08.1-.23.14-.45.14-.48,0-1.05-.16-1.72-.47-.72-.31-1.14-.64-1.27-.97-.07-.17-.1-.37-.1-.61,0-.14.02-.38.07-.72.04-.34.07-.6.07-.79v-25.52c0-.29.06-.62.2-.99.13-.37.28-.62.45-.74.22-.17,1.07.12,2.56.86,1.55.74,2.37,1.39,2.46,1.94.04.22.05.5.02.86-.04.5-.06.8-.06.9,0,.22.02.41.06.58l2.64,13.07c.36-2.14,1.03-6.47,1.99-13,.48-3.33.87-5.08,1.17-5.22.09-.05.19-.07.31-.07.22,0,.59.11,1.11.32.57.26.97.41,1.19.43,1.03.17,1.62.28,1.78.32.61.22.96.61,1.04,1.19.03.17.04.35.04.54,0,.24-.03.58-.1,1.03-.07.44-.1.77-.1.99v22.03c0,.24.08.6.24,1.08.16.48.23.84.21,1.08Z"/><path d="M1235.84,344.45c.1.46.16.91.16,1.37,0,.72-.15,1.21-.45,1.48-.09.07-.25.11-.49.11-.44,0-.97-.13-1.58-.38-.61-.25-.98-.5-1.11-.74-.07-.14-.1-.3-.1-.47,0-.26.1-.69.29-1.28s.29-1.01.29-1.28c.03-9.46-.01-14.22-.12-14.29-.21-.12-.63.83-1.27,2.84-.7,2.21-1.05,4.13-1.05,5.76v7.06c.09.55.14.98.14,1.3,0,.6-.17,1.06-.51,1.37-.09.07-.25.11-.49.11-.44,0-.97-.13-1.58-.38-.61-.25-.98-.5-1.11-.74-.05-.1-.08-.22-.08-.36,0-.24.09-.67.28-1.3s.28-1.08.28-1.37c.03-9.46-.01-14.22-.12-14.29-.18-.12-.63.96-1.35,3.24-.75,2.4-1.13,4.21-1.13,5.44v6.73c.17.31.25.7.25,1.15,0,.91-.22,1.54-.66,1.87-.05.05-.13.07-.23.07-.35,0-.87-.15-1.54-.45-.68-.3-1.05-.55-1.13-.74s-.12-.41-.12-.65.08-.53.22-.86.22-.55.22-.65v-16.74c0-.19-.05-.44-.16-.76-.1-.31-.14-.58-.1-.79.08-.5.28-.83.61-.97.21-.1.7.04,1.46.4.83.38,1.29.78,1.37,1.19.05.26.03.66-.06,1.19-.14.84-.21,1.32-.21,1.44,0,.26.03.55.08.86.2-1.2.47-2.27.82-3.2.43-1.13.86-1.69,1.29-1.69s.98.3,1.7.9c.66.58,1.07,1.07,1.23,1.48.12.29.25,1.15.39,2.59.53-1.82.84-2.87.92-3.13.44-1.22.87-1.84,1.27-1.84.44,0,1.02.28,1.72.85.7.56,1.11,1.08,1.21,1.53.36,1.54.55,7.21.55,17.03Z"/><path d="M1252.3,344.45c.1.46.16.91.16,1.37,0,.72-.15,1.21-.45,1.48-.09.07-.25.11-.49.11-.44,0-.97-.13-1.58-.38-.61-.25-.98-.5-1.11-.74-.07-.14-.1-.3-.1-.47,0-.26.1-.69.29-1.28s.29-1.01.29-1.28c.03-9.46-.01-14.22-.12-14.29-.21-.12-.63.83-1.27,2.84-.7,2.21-1.05,4.13-1.05,5.76v7.06c.09.55.14.98.14,1.3,0,.6-.17,1.06-.51,1.37-.09.07-.25.11-.49.11-.44,0-.97-.13-1.58-.38-.61-.25-.98-.5-1.11-.74-.05-.1-.08-.22-.08-.36,0-.24.09-.67.28-1.3s.28-1.08.28-1.37c.03-9.46-.01-14.22-.12-14.29-.18-.12-.63.96-1.35,3.24-.75,2.4-1.13,4.21-1.13,5.44v6.73c.17.31.25.7.25,1.15,0,.91-.22,1.54-.66,1.87-.05.05-.13.07-.23.07-.35,0-.87-.15-1.54-.45-.68-.3-1.05-.55-1.13-.74s-.12-.41-.12-.65.08-.53.22-.86.22-.55.22-.65v-16.74c0-.19-.05-.44-.16-.76-.1-.31-.14-.58-.1-.79.08-.5.28-.83.61-.97.21-.1.7.04,1.46.4.83.38,1.29.78,1.37,1.19.05.26.03.66-.06,1.19-.14.84-.21,1.32-.21,1.44,0,.26.03.55.08.86.2-1.2.47-2.27.82-3.2.43-1.13.86-1.69,1.29-1.69s.98.3,1.7.9c.66.58,1.07,1.07,1.23,1.48.12.29.25,1.15.39,2.59.53-1.82.84-2.87.92-3.13.44-1.22.87-1.84,1.27-1.84.44,0,1.02.28,1.72.85.7.56,1.11,1.08,1.21,1.53.36,1.54.55,7.21.55,17.03Z"/><path d="M1268.76,344.45c.1.46.16.91.16,1.37,0,.72-.15,1.21-.45,1.48-.09.07-.25.11-.49.11-.44,0-.97-.13-1.58-.38-.61-.25-.98-.5-1.11-.74-.07-.14-.1-.3-.1-.47,0-.26.1-.69.29-1.28s.29-1.01.29-1.28c.03-9.46-.01-14.22-.12-14.29-.21-.12-.63.83-1.27,2.84-.7,2.21-1.05,4.13-1.05,5.76v7.06c.09.55.14.98.14,1.3,0,.6-.17,1.06-.51,1.37-.09.07-.25.11-.49.11-.44,0-.97-.13-1.58-.38-.61-.25-.98-.5-1.11-.74-.05-.1-.08-.22-.08-.36,0-.24.09-.67.28-1.3s.28-1.08.28-1.37c.03-9.46-.01-14.22-.12-14.29-.18-.12-.63.96-1.35,3.24-.75,2.4-1.13,4.21-1.13,5.44v6.73c.17.31.25.7.25,1.15,0,.91-.22,1.54-.66,1.87-.05.05-.13.07-.23.07-.35,0-.87-.15-1.54-.45-.68-.3-1.05-.55-1.13-.74s-.12-.41-.12-.65.08-.53.22-.86.22-.55.22-.65v-16.74c0-.19-.05-.44-.16-.76-.1-.31-.14-.58-.1-.79.08-.5.28-.83.61-.97.21-.1.7.04,1.46.4.83.38,1.29.78,1.37,1.19.05.26.03.66-.06,1.19-.14.84-.21,1.32-.21,1.44,0,.26.03.55.08.86.2-1.2.47-2.27.82-3.2.43-1.13.86-1.69,1.29-1.69s.98.3,1.7.9c.66.58,1.07,1.07,1.23,1.48.12.29.25,1.15.39,2.59.53-1.82.84-2.87.92-3.13.44-1.22.87-1.84,1.27-1.84.44,0,1.02.28,1.72.85.7.56,1.11,1.08,1.21,1.53.36,1.54.55,7.21.55,17.03Z"/><path d="M1279.86,345.96c-.07.7-.21,1.14-.43,1.33-.09.07-.25.11-.49.11-.44,0-.97-.13-1.58-.38-.61-.25-.98-.5-1.11-.74-.05-.12-.08-.26-.08-.43,0-.19.06-.55.18-1.08.08-.19.16-.4.25-.63.09-.23.14-.52.14-.88.03-9.46-.01-14.22-.12-14.29-.2-.12-.64.76-1.35,2.63-.75,1.99-1.13,3.59-1.13,4.79v7.99c.21.38.28.89.21,1.51-.08.74-.29,1.25-.62,1.51-.05.05-.13.07-.23.07-.35,0-.87-.15-1.54-.45-.68-.3-1.05-.52-1.11-.67-.14-.38-.16-.83-.04-1.33.01-.07.08-.2.19-.38.11-.18.17-.35.17-.52v-25.45c0-.19-.05-.44-.16-.76-.1-.31-.14-.58-.1-.79.08-.5.28-.83.61-.97.21-.1.7.04,1.46.4.83.38,1.29.78,1.37,1.19.05.26.03.66-.06,1.19-.09.53-.14,1.18-.14,1.94v6.73c.73-1.7,1.43-2.56,2.11-2.56.44,0,1.02.28,1.72.85.7.56,1.11,1.08,1.21,1.53.36,1.54.55,7.21.55,17.03.13.58.18,1.08.14,1.51Z"/><path d="M1289.76,327.24c.04.1.06.22.06.36,0,.19-.07.55-.22,1.08-.15.53-.22.92-.22,1.19v17.6s0,.18.02.47v.79c0,2.25-.34,3.77-1.01,4.54-.18.22-.5.32-.96.32-.95,0-1.83-.24-2.64-.72-.38-.22-.86-.72-1.45-1.51-.68-.91-1.02-1.64-1.02-2.2,0-.34.12-.65.37-.94.04-.05.13-.07.27-.07.78,0,1.43.24,1.95.72.13.29.25.58.35.86.21.46.49.68.84.68.18,0,.27-1.48.27-4.43v-18.29c-.16-.91-.23-1.52-.23-1.84s.24-.47.72-.47c.4,0,.95.22,1.64.67.69.44,1.11.83,1.25,1.17ZM1289.89,321.16c.04.17.06.42.06.76,0,.6-.05,1.21-.16,1.84-.12.7-.26,1.12-.43,1.26-.13.1-.69-.16-1.67-.77-.98-.61-1.51-1.05-1.59-1.31-.04-.12-.06-.3-.06-.54,0-.65.09-1.33.27-2.05.21-.82.44-1.27.7-1.37.3-.1.82.11,1.57.63.75.52,1.18,1.04,1.3,1.57Z"/><path d="M1299.07,340.46c.12.36-.14,1.43-.76,3.2-.68,1.9-1.34,3.18-1.99,3.85-.08.07-.2.11-.35.11-.51,0-1.17-.29-1.99-.86-.87-.58-1.45-1.2-1.72-1.87-.76-1.8-1.13-4.3-1.13-7.49,0-3.02.33-5.69,1-7.99.72-2.52,1.63-3.8,2.73-3.85.4-.02.89.17,1.46.58.7.5,1.28,1.19,1.74,2.05.12.22.23.86.33,1.94.13,1.15.2,2.28.2,3.38,0,1.63-.14,2.76-.43,3.38-1.34.79-2.71,1.24-4.1,1.33-.03,1.18.05,2.41.23,3.71.18,1.3.37,1.96.57,1.98.26.02.57-.37.94-1.19.33-.7.53-1.28.61-1.76.09-.72.21-1.46.37-2.23.21-.05.62.14,1.23.58.61.43.97.82,1.07,1.15ZM1295.6,329.44c-.22-.05-.53.6-.93,1.94-.4,1.34-.63,2.63-.69,3.85.59-.05,1.05-.31,1.41-.79.21-.29.31-1.49.31-3.6,0-.89-.03-1.36-.1-1.4Z"/><path d="M1308.88,327.71s-.07.26-.21.72c-.09.34-.14.6-.14.79v15.77c0,3.98-.8,6.54-2.4,7.67-.74.53-1.42.79-2.03.79-.89,0-1.65-.55-2.3-1.66-.18-.29-.5-.91-.94-1.87-.03-.05-.15-.28-.37-.68-.13-.26-.2-.54-.21-.83-.01-.36.18-.65.59-.86.05-.02.13-.04.23-.04.29,0,.63.11,1.03.32.4.22.68.48.85.79.21.48.42.97.64,1.48.22.5.48.78.78.83.53.1.88-.58,1.04-2.02.08-.7.12-1.93.12-3.71-.04.1-.16.41-.37.94-.16.38-.29.66-.41.83-.14.24-.29.36-.45.36-.69,0-1.27-.35-1.74-1.04-1.39-2.16-2.09-5.34-2.09-9.54,0-2.66.31-5.05.92-7.16.64-2.26,1.47-3.67,2.5-4.25.08-.05.15-.07.21-.07.21,0,.44.18.7.54.22.31.44.64.66.97.08-.41.16-.81.24-1.21.08-.4.22-.62.4-.67.27-.07.76.09,1.46.49.7.4,1.09.74,1.18,1.03.16.48.2.91.12,1.3ZM1305.42,336.57c.1-1.66.16-3.01.16-4.07,0-1.94-.17-3.04-.51-3.28-.27-.19-.61.66-1,2.56-.39,1.9-.59,3.62-.59,5.18,0,2.83.18,5.08.53,6.73.78-2.23,1.25-4.61,1.41-7.13Z"/><path d="M1322.43,340.46c.12.36-.14,1.43-.76,3.2-.68,1.9-1.34,3.18-1.99,3.85-.08.07-.2.11-.35.11-.51,0-1.17-.29-1.99-.86-.87-.58-1.45-1.2-1.72-1.87-.76-1.8-1.13-4.3-1.13-7.49,0-3.02.33-5.69,1-7.99.72-2.52,1.63-3.8,2.73-3.85.4-.02.89.17,1.46.58.7.5,1.28,1.19,1.74,2.05.12.22.23.86.33,1.94.13,1.15.2,2.28.2,3.38,0,1.63-.14,2.76-.43,3.38-1.34.79-2.71,1.24-4.1,1.33-.03,1.18.05,2.41.23,3.71.18,1.3.37,1.96.57,1.98.26.02.57-.37.94-1.19.33-.7.53-1.28.61-1.76.09-.72.21-1.46.37-2.23.21-.05.62.14,1.23.58.61.43.97.82,1.07,1.15ZM1318.95,329.44c-.22-.05-.53.6-.93,1.94-.4,1.34-.63,2.63-.69,3.85.59-.05,1.05-.31,1.41-.79.21-.29.31-1.49.31-3.6,0-.89-.03-1.36-.1-1.4Z"/><path d="M1327.6,318.75c0,.17-.03.4-.09.68s-.09.47-.11.54c-.08.48-.16,1.22-.23,2.23v22.1c0,.29.04.55.12.77.08.23.12.41.12.56,0,1.54-.16,2.36-.47,2.48-.12.05-.53-.11-1.24-.49-.71-.37-1.14-.67-1.28-.88-.29-.46-.43-.88-.43-1.26,0-.1.03-.2.08-.32.05-.12.08-.32.08-.61v-25.38c0-.14-.02-.29-.07-.45-.05-.16-.07-.31-.07-.45.03-.58.27-.96.72-1.15.13-.05.4-.05.82,0,.48.07.9.2,1.25.4.53.29.8.7.8,1.22Z"/><path d="M1336.16,343.19c0,1.32-.24,2.38-.71,3.17s-1.14,1.2-2,1.22c-.21,0-.44-.06-.68-.18-.44-.22-.68-.34-.7-.36-.23-.1-.47-.2-.71-.31-.24-.11-.45-.29-.62-.56-.29-.48-.57-1.14-.84-1.98-.22-.67-.44-1.36-.64-2.05-.21-.7-.31-1.12-.31-1.26,0-.34.13-.59.39-.76.06-.05.18-.07.35-.07.39,0,.88.08,1.47.23.59.16.91.29.97.4.05.11.12.8.21,2.07.08,1.1.21,1.66.41,1.66.3,0,.45-.74.45-2.23,0-1.9-.27-3.08-.82-3.56-1.25-1.08-2.07-2.04-2.46-2.88-.48-1.03-.72-2.59-.72-4.68,0-1.37.2-2.66.59-3.87.39-1.21.85-1.94,1.39-2.18.23-.1.99.36,2.26,1.37.12.07.46.2,1.04.4.4.14.69.4.86.76.25.55.39,1.43.43,2.63.01.89.02,1.78.02,2.66.09.82.14,1.3.14,1.44,0,.67-.18,1.06-.53,1.15-.18.05-.54-.08-1.07-.4-.59-.36-.96-.73-1.11-1.12-.04-.1-.08-1-.12-2.7-.04-1.61-.13-2.41-.27-2.41-.19,0-.38.47-.55,1.4-.17.94-.25,1.91-.25,2.92,0,1.27.15,2.08.45,2.41.64.65,1.27,1.3,1.9,1.96s1.07,1.34,1.32,2.03c.33.91.49,2.14.49,3.67Z"/><path d="M1347.09,343.23c.03.46-.22,1.28-.74,2.48s-.92,1.76-1.21,1.69c-.56-.14-1.75-2.93-3.55-8.35-.13.26-.35.68-.66,1.26v4.25c0,.12.02.34.05.65.03.31.05.54.07.68.04.82-.05,1.34-.27,1.58-.12.12-.31.18-.57.18-.5,0-.98-.17-1.45-.5-.55-.38-.82-.84-.82-1.37v-26.71c0-.38.06-.8.2-1.26.13-.46.28-.74.45-.86.04-.02.09-.04.16-.04.34,0,.81.21,1.42.63s.94.79,1.01,1.1c.04.17.06.31.06.43,0,.19-.05.44-.16.74-.1.3-.16.58-.16.85v12.49l2.89-7.31c.17-.43.38-.66.64-.68.25-.02.59.26,1.04.86.5.67.75,1.33.76,1.98.01.26-.29,1.2-.92,2.81-.96,2.54-1.53,4.06-1.7,4.54l2.54,6.44c.09.24.28.49.57.76.23.22.36.44.37.68Z"/><path d="M1356.09,340.46c.12.36-.14,1.43-.76,3.2-.68,1.9-1.34,3.18-1.99,3.85-.08.07-.2.11-.35.11-.51,0-1.17-.29-1.99-.86-.87-.58-1.45-1.2-1.72-1.87-.76-1.8-1.13-4.3-1.13-7.49,0-3.02.33-5.69,1-7.99.72-2.52,1.63-3.8,2.73-3.85.4-.02.89.17,1.46.58.7.5,1.28,1.19,1.74,2.05.12.22.23.86.33,1.94.13,1.15.2,2.28.2,3.38,0,1.63-.14,2.76-.43,3.38-1.34.79-2.71,1.24-4.1,1.33-.03,1.18.05,2.41.23,3.71.18,1.3.37,1.96.57,1.98.26.02.57-.37.94-1.19.33-.7.53-1.28.61-1.76.09-.72.21-1.46.37-2.23.21-.05.62.14,1.23.58.61.43.97.82,1.07,1.15ZM1352.62,329.44c-.22-.05-.53.6-.93,1.94-.4,1.34-.63,2.63-.69,3.85.59-.05,1.05-.31,1.41-.79.21-.29.31-1.49.31-3.6,0-.89-.03-1.36-.1-1.4Z"/><path d="M1364.92,327.67c.05.38-.02.7-.21.94-.16.14-.31.3-.45.47-.82,2.3-1.93,5.41-3.34,9.32,0,3.82,0,5.78.02,5.9.01.12.06.43.15.92.08.49.13.88.13,1.17,0,.46-.11.77-.33.94-.14.12-.34.18-.59.18-.5,0-1.04-.2-1.64-.61-.76-.48-1.13-1.09-1.13-1.84,0-.22.05-.56.16-1.04.1-.48.16-.88.16-1.19v-14.26c-.14-1.34-.21-2.04-.21-2.09,0-.74.18-1.21.55-1.4.16-.07.34-.11.57-.11.46,0,.93.14,1.44.41.5.28.8.57.89.88.03.1.04.22.04.36,0,.12-.09.7-.27,1.73v1.73c.31-1.03.62-2.06.92-3.1.4-1.3.7-1.98.9-2.05.29-.09.72.22,1.31.94s.91,1.32.98,1.8Z"/><path d="M1210.43,371.78c.3,1.15.45,2.58.45,4.28,0,2.26-.24,4.69-.72,7.31-.47,2.45-1,4.37-1.6,5.76-.07.41-.1.66-.12.76-.05.26-.13.48-.23.65-.18.26-.49.41-.92.43-.38,0-.75-.22-1.11-.65-.04-.05-.34-.47-.9-1.26.01.17.06.43.14.79.04.24.04.46,0,.65-.1.53-.27.82-.51.86-.3.05-.84-.14-1.62-.56s-1.23-.8-1.35-1.13c-.08-.22-.02-.64.18-1.26.06-.22.1-.72.1-1.51v-24.19c0-.12-.06-.34-.19-.67-.12-.32-.17-.61-.15-.85.08-.77.34-1.15.8-1.15.43,0,.99.23,1.69.68.7.46,1.1.92,1.22,1.4.05.22,0,.6-.13,1.15s-.22,1.01-.24,1.37v5.9c1.05-1.94,1.9-2.84,2.54-2.7.44.1.92.5,1.43,1.22.56.74.98,1.64,1.25,2.7ZM1208.15,371.99c-.5.36-1.05,1.09-1.68,2.2s-1.02,2.03-1.19,2.77v9.72c.09.19.25.41.47.65.43.14.95-1.62,1.56-5.29.6-3.58.9-6.53.9-8.86,0-.48-.02-.88-.06-1.19Z"/><path d="M1219.1,369.33c.72.62,1.27,1.88,1.66,3.78.35,1.73.53,3.77.53,6.12,0,3.24-.3,6.05-.9,8.42-.66,2.54-1.49,3.7-2.48,3.46-.36-.17-.91-.37-1.64-.61-.53-.12-1.02-.3-1.45-.54-.74-.36-1.33-1.52-1.78-3.49-.4-1.82-.61-3.96-.61-6.41s.21-4.72.62-6.73c.47-2.21,1.13-3.76,1.97-4.64.14-.14.34-.22.59-.22s.77.16,1.54.47c.5,0,1.14.13,1.93.4ZM1216.92,372.57c-.35,0-.68.79-.98,2.36-.3,1.57-.45,3.08-.45,4.52,0,1.73.11,3.43.33,5.11.25,1.82.53,2.81.86,2.95.42.17.79-.7,1.11-2.59.31-1.82.47-3.84.47-6.05,0-1.22-.08-2.44-.25-3.64-.23-1.78-.6-2.66-1.09-2.66Z"/><path d="M1226.54,361.95c0,.17-.03.4-.09.68s-.09.47-.11.54c-.08.48-.16,1.22-.23,2.23v22.1c0,.29.04.55.12.77.08.23.12.41.12.56,0,1.54-.16,2.36-.47,2.48-.12.05-.53-.11-1.24-.49-.71-.37-1.14-.67-1.28-.88-.29-.46-.43-.88-.43-1.26,0-.1.03-.2.08-.32.05-.12.08-.32.08-.61v-25.38c0-.14-.02-.29-.07-.45-.05-.16-.07-.31-.07-.45.03-.58.27-.96.72-1.15.13-.05.4-.05.82,0,.48.07.9.2,1.25.4.53.29.8.7.8,1.22Z"/><path d="M1231.97,361.95c0,.17-.03.4-.09.68s-.09.47-.11.54c-.08.48-.16,1.22-.23,2.23v22.1c0,.29.04.55.12.77.08.23.12.41.12.56,0,1.54-.16,2.36-.47,2.48-.12.05-.53-.11-1.24-.49-.71-.37-1.14-.67-1.28-.88-.29-.46-.43-.88-.43-1.26,0-.1.03-.2.08-.32.05-.12.08-.32.08-.61v-25.38c0-.14-.02-.29-.07-.45-.05-.16-.07-.31-.07-.45.03-.58.27-.96.72-1.15.13-.05.4-.05.82,0,.48.07.9.2,1.25.4.53.29.8.7.8,1.22Z"/><path d="M1241.25,383.66c.12.36-.14,1.43-.76,3.2-.68,1.9-1.34,3.18-1.99,3.85-.08.07-.2.11-.35.11-.51,0-1.17-.29-1.99-.86-.87-.58-1.45-1.2-1.72-1.87-.76-1.8-1.13-4.3-1.13-7.49,0-3.02.33-5.69,1-7.99.72-2.52,1.63-3.8,2.73-3.85.4-.02.89.17,1.46.58.7.5,1.28,1.19,1.74,2.05.12.22.23.86.33,1.94.13,1.15.2,2.28.2,3.38,0,1.63-.14,2.76-.43,3.38-1.34.79-2.71,1.24-4.1,1.33-.03,1.18.05,2.41.23,3.71.18,1.3.37,1.96.57,1.98.26.02.57-.37.94-1.19.33-.7.53-1.28.61-1.76.09-.72.21-1.46.37-2.23.21-.05.62.14,1.23.58.61.43.97.82,1.07,1.15ZM1237.77,372.64c-.22-.05-.53.6-.93,1.94-.4,1.34-.63,2.63-.69,3.85.59-.05,1.05-.31,1.41-.79.21-.29.31-1.49.31-3.6,0-.89-.03-1.36-.1-1.4Z"/><path d="M1250.08,370.88c.05.38-.02.7-.21.94-.16.14-.31.3-.45.47-.82,2.3-1.93,5.41-3.34,9.32,0,3.82,0,5.78.02,5.9.01.12.06.43.15.92.08.49.13.88.13,1.17,0,.46-.11.77-.33.94-.14.12-.34.18-.59.18-.5,0-1.04-.2-1.64-.61-.76-.48-1.13-1.09-1.13-1.84,0-.22.05-.56.16-1.04.1-.48.16-.88.16-1.19v-14.26c-.14-1.34-.21-2.04-.21-2.09,0-.74.18-1.21.55-1.4.16-.07.34-.11.57-.11.46,0,.93.14,1.44.41.5.28.8.57.89.88.03.1.04.22.04.36,0,.12-.09.7-.27,1.73v1.73c.31-1.03.62-2.06.92-3.1.4-1.3.7-1.98.9-2.05.29-.09.72.22,1.31.94s.91,1.32.98,1.8Z"/><path d="M1269.76,387.65c.1.46.16.91.16,1.37,0,.72-.15,1.21-.45,1.48-.09.07-.25.11-.49.11-.44,0-.97-.13-1.58-.38-.61-.25-.98-.5-1.11-.74-.07-.14-.1-.3-.1-.47,0-.26.1-.69.29-1.28s.29-1.01.29-1.28c.03-9.46-.01-14.22-.12-14.29-.21-.12-.63.83-1.27,2.84-.7,2.21-1.05,4.13-1.05,5.76v7.06c.09.55.14.98.14,1.3,0,.6-.17,1.06-.51,1.37-.09.07-.25.11-.49.11-.44,0-.97-.13-1.58-.38-.61-.25-.98-.5-1.11-.74-.05-.1-.08-.22-.08-.36,0-.24.09-.67.28-1.3s.28-1.08.28-1.37c.03-9.46-.01-14.22-.12-14.29-.18-.12-.63.96-1.35,3.24-.75,2.4-1.13,4.21-1.13,5.44v6.73c.17.31.25.7.25,1.15,0,.91-.22,1.54-.66,1.87-.05.05-.13.07-.23.07-.35,0-.87-.15-1.54-.45-.68-.3-1.05-.55-1.13-.74s-.12-.41-.12-.65.08-.53.22-.86.22-.55.22-.65v-16.74c0-.19-.05-.44-.16-.76-.1-.31-.14-.58-.1-.79.08-.5.28-.83.61-.97.21-.1.7.04,1.46.4.83.38,1.29.78,1.37,1.19.05.26.03.66-.06,1.19-.14.84-.21,1.32-.21,1.44,0,.26.03.55.08.86.2-1.2.47-2.27.82-3.2.43-1.13.86-1.69,1.29-1.69s.98.3,1.7.9c.66.58,1.07,1.07,1.23,1.48.12.29.25,1.15.39,2.59.53-1.82.84-2.87.92-3.13.44-1.22.87-1.84,1.27-1.84.44,0,1.02.28,1.72.85.7.56,1.11,1.08,1.21,1.53.36,1.54.55,7.21.55,17.03Z"/><path d="M1279.45,383.66c.12.36-.14,1.43-.76,3.2-.68,1.9-1.34,3.18-1.99,3.85-.08.07-.2.11-.35.11-.51,0-1.17-.29-1.99-.86-.87-.58-1.45-1.2-1.72-1.87-.76-1.8-1.13-4.3-1.13-7.49,0-3.02.33-5.69,1-7.99.72-2.52,1.63-3.8,2.73-3.85.4-.02.89.17,1.46.58.7.5,1.28,1.19,1.74,2.05.12.22.23.86.33,1.94.13,1.15.2,2.28.2,3.38,0,1.63-.14,2.76-.43,3.38-1.34.79-2.71,1.24-4.1,1.33-.03,1.18.05,2.41.23,3.71.18,1.3.37,1.96.57,1.98.26.02.57-.37.94-1.19.33-.7.53-1.28.61-1.76.09-.72.21-1.46.37-2.23.21-.05.62.14,1.23.58.61.43.97.82,1.07,1.15ZM1275.97,372.64c-.22-.05-.53.6-.93,1.94-.4,1.34-.63,2.63-.69,3.85.59-.05,1.05-.31,1.41-.79.21-.29.31-1.49.31-3.6,0-.89-.03-1.36-.1-1.4Z"/><path d="M1290.15,362.27c.03.24-.02.71-.15,1.4-.12.7-.19,1.09-.19,1.19v23.47c0,.79.03,1.28.1,1.48.2.62.25,1.04.18,1.26-.07.19-.23.29-.51.29-.3,0-.75-.11-1.37-.32-.69-.26-1.05-.4-1.09-.4-.23-.05-.4-.34-.51-.86-.01-.05-.02-.2-.02-.47,0-.98.07-2.45.21-4.39-.31,1.15-.62,2.3-.92,3.46-.43,1.42-.81,2.06-1.15,1.94-2.56-.96-3.85-3.86-3.85-8.71,0-2.76.41-5.57,1.23-8.42.79-2.76,1.67-4.56,2.62-5.4.13-.12.25-.18.37-.18.33,0,.89.74,1.7,2.23v-6.98c-.01-.19-.07-.53-.18-1.03s-.16-.86-.16-1.1c0-.5.18-.76.55-.76.33,0,.79.17,1.41.5.39.24.77.47,1.15.68.33.17.51.54.57,1.12ZM1286.75,371.56c-.73.6-1.39,1.92-1.98,3.96-.59,2.04-.89,3.94-.89,5.69,0,2.04.43,3.16,1.29,3.35.46.1.98-4.24,1.58-13Z"/><path d="M1302.63,369.33c.72.62,1.27,1.88,1.66,3.78.35,1.73.53,3.77.53,6.12,0,3.24-.3,6.05-.9,8.42-.66,2.54-1.49,3.7-2.48,3.46-.36-.17-.91-.37-1.64-.61-.53-.12-1.02-.3-1.45-.54-.74-.36-1.33-1.52-1.78-3.49-.4-1.82-.61-3.96-.61-6.41s.21-4.72.62-6.73c.47-2.21,1.13-3.76,1.97-4.64.14-.14.34-.22.59-.22s.77.16,1.54.47c.5,0,1.14.13,1.93.4ZM1300.44,372.57c-.35,0-.68.79-.98,2.36-.3,1.57-.45,3.08-.45,4.52,0,1.73.11,3.43.33,5.11.25,1.82.53,2.81.86,2.95.42.17.79-.7,1.11-2.59.31-1.82.47-3.84.47-6.05,0-1.22-.08-2.44-.25-3.64-.23-1.78-.6-2.66-1.09-2.66Z"/><path d="M1313.48,386.39c0,1.32-.24,2.38-.71,3.17s-1.14,1.2-2,1.22c-.21,0-.44-.06-.68-.18-.44-.22-.68-.34-.7-.36-.23-.1-.47-.2-.71-.31-.24-.11-.45-.29-.62-.56-.29-.48-.57-1.14-.84-1.98-.22-.67-.44-1.36-.64-2.05-.21-.7-.31-1.12-.31-1.26,0-.34.13-.59.39-.76.06-.05.18-.07.35-.07.39,0,.88.08,1.47.23.59.16.91.29.97.4.05.11.12.8.21,2.07.08,1.1.21,1.66.41,1.66.3,0,.45-.74.45-2.23,0-1.9-.27-3.08-.82-3.56-1.25-1.08-2.07-2.04-2.46-2.88-.48-1.03-.72-2.59-.72-4.68,0-1.37.2-2.66.59-3.87.39-1.21.85-1.94,1.39-2.18.23-.1.99.36,2.26,1.37.12.07.46.2,1.04.4.4.14.69.4.86.76.25.55.39,1.43.43,2.63.01.89.02,1.78.02,2.66.09.82.14,1.3.14,1.44,0,.67-.18,1.06-.53,1.15-.18.05-.54-.08-1.07-.4-.59-.36-.96-.73-1.11-1.12-.04-.1-.08-1-.12-2.7-.04-1.61-.13-2.41-.27-2.41-.19,0-.38.47-.55,1.4-.17.94-.25,1.91-.25,2.92,0,1.27.15,2.08.45,2.41.64.65,1.27,1.3,1.9,1.96s1.07,1.34,1.32,2.03c.33.91.49,2.14.49,3.67Z"/><path d="M1321.39,372.32c-.01.43-.09.82-.23,1.15-.14.34-.3.5-.47.5-.05,0-.1-.01-.14-.04-.18-.12-.59-.18-1.23-.18v14.22s.04.17.13.58c.08.41.13.77.13,1.08,0,.7-.26,1.07-.78,1.12-.27.02-.77-.19-1.5-.65-.79-.48-1.22-.92-1.27-1.33-.03-.17.02-.52.14-1.06s.18-.95.18-1.24v-12.74h-.66c-.25,0-.55-.4-.92-1.21-.36-.8-.55-1.45-.55-1.93,0-.36.08-.68.22-.97s.32-.43.5-.43h1.41v-3.24c-.2-.48-.29-1-.29-1.55,0-.5.12-.82.35-.94.12-.05.28-.07.49-.07.48,0,1.04.14,1.69.41.64.28,1.06.56,1.26.85.09.14.14.31.14.5,0,.24-.1.6-.31,1.08s-.32.82-.33,1.01v1.94h.62c.13,0,.4.43.82,1.3.42.86.62,1.48.62,1.84Z"/><path d="M1326.14,379.33c-.03.89-.15,1.38-.37,1.48-.07.02-.13.04-.2.04-.38,0-.85-.28-1.43-.83-.57-.55-1.04-1.21-1.41-1.98-.16-.31-.16-.89,0-1.73s.23-1.27.23-1.3v-13.61c0-.62.2-1.06.59-1.3.08-.05.19-.07.33-.07.36,0,.78.14,1.25.43.47.29.76.6.88.94.03.07.04.72.04,1.94v14.69c0,.14.01.35.04.63.03.28.04.5.04.67ZM1326.14,384.55c.04.22.04.8,0,1.76-.05,1.25-.08,2.02-.08,2.3,0,.96-.03,1.7-.08,2.23-.05.53-.21.84-.49.94-.16.07-.61-.17-1.35-.72-.78-.6-1.25-1.12-1.41-1.55-.09-.26-.06-.7.1-1.3.08-.26.12-.71.14-1.33-.03-.53-.03-1.54,0-3.02.05-.86.25-1.28.59-1.26.36.05.87.32,1.52.81.65.49,1,.87,1.05,1.13Z"/><path d="M1331.39,379.33c-.03.89-.15,1.38-.37,1.48-.07.02-.13.04-.2.04-.38,0-.85-.28-1.43-.83-.57-.55-1.04-1.21-1.41-1.98-.16-.31-.16-.89,0-1.73s.23-1.27.23-1.3v-13.61c0-.62.2-1.06.59-1.3.08-.05.19-.07.33-.07.36,0,.78.14,1.25.43.47.29.76.6.88.94.03.07.04.72.04,1.94v14.69c0,.14.01.35.04.63.03.28.04.5.04.67ZM1331.39,384.55c.04.22.04.8,0,1.76-.05,1.25-.08,2.02-.08,2.3,0,.96-.03,1.7-.08,2.23-.05.53-.21.84-.49.94-.16.07-.61-.17-1.35-.72-.78-.6-1.25-1.12-1.41-1.55-.09-.26-.06-.7.1-1.3.08-.26.12-.71.14-1.33-.03-.53-.03-1.54,0-3.02.05-.86.25-1.28.59-1.26.36.05.87.32,1.52.81.65.49,1,.87,1.05,1.13Z"/><path d="M1336.49,385.96c.03.26-.05.72-.23,1.37-.21.72-.31,1.3-.31,1.73.01.19.01.47,0,.83-.05.7-.16,1.1-.31,1.22-.18.14-.61-.07-1.29-.65-.68-.58-1.05-1.02-1.13-1.33-.07-.22.03-.89.27-2.02.21-.96.39-1.68.55-2.16.08-.24.22-.36.43-.36-.08,0,.31.14,1.17.43.52.17.81.48.86.94Z"/></svg>