<?xml version="1.0" encoding="UTF-8"?><svg id="Layer_1" xmlns="http://www.w3.org/2000/svg" width="1920" height="1080" xmlns:xlink="http://www.w3.org/1999/xlink" viewBox="0 0 1920 1080"><defs><style>.cls-1{fill:none;}.cls-2{fill:#ffdde7;}.cls-3{fill:#563300;}.cls-4{fill:#231f20;}.cls-5{fill:#e2d9dc;}.cls-6{fill:#ffc556;}.cls-7{fill:#efdfc7;}.cls-8{fill:#fff;}.cls-9{fill:#f7931e;}.cls-10{fill:#ffd956;}.cls-11{fill:#ffd956;}.cls-12{fill:#cc001c;}.cls-13{fill:#eab2c2;}.cls-14{fill:#443200;}.cls-15{fill:#fbb03b;}.cls-16{clip-path:url(#clippath);}</style><clipPath id="clippath"><rect class="cls-1" x="-.02" y="555.42" width="1893.01" height="524.19"/></clipPath></defs><g class="cls-16"><g id="_Grid_Repeat_"><rect class="cls-5" x="-.02" y="555.42" width="50.44" height="50.44"/><rect class="cls-5" x="50.42" y="605.86" width="50.44" height="50.44"/></g><g id="_Grid_Repeat_-2"><rect class="cls-5" x="105.9" y="555.42" width="50.44" height="50.44"/><rect class="cls-5" x="156.34" y="605.86" width="50.44" height="50.44"/></g><g id="_Grid_Repeat_-3"><rect class="cls-5" x="211.82" y="555.42" width="50.44" height="50.44"/><rect class="cls-5" x="262.26" y="605.86" width="50.44" height="50.44"/></g><g id="_Grid_Repeat_-4"><rect class="cls-5" x="317.75" y="555.42" width="50.44" height="50.44"/><rect class="cls-5" x="368.19" y="605.86" width="50.44" height="50.44"/></g><g id="_Grid_Repeat_-5"><rect class="cls-5" x="423.67" y="555.42" width="50.44" height="50.44"/><rect class="cls-5" x="474.11" y="605.86" width="50.44" height="50.44"/></g><g id="_Grid_Repeat_-6"><rect class="cls-5" x="529.59" y="555.42" width="50.44" height="50.44"/><rect class="cls-5" x="580.03" y="605.86" width="50.44" height="50.44"/></g><g id="_Grid_Repeat_-7"><rect class="cls-5" x="635.52" y="555.42" width="50.44" height="50.44"/><rect class="cls-5" x="685.95" y="605.86" width="50.44" height="50.44"/></g><g id="_Grid_Repeat_-8"><rect class="cls-5" x="741.44" y="555.42" width="50.44" height="50.44"/><rect class="cls-5" x="791.88" y="605.86" width="50.44" height="50.44"/></g><g id="_Grid_Repeat_-9"><rect class="cls-5" x="847.36" y="555.42" width="50.44" height="50.44"/><rect class="cls-5" x="897.8" y="605.86" width="50.44" height="50.44"/></g><g id="_Grid_Repeat_-10"><rect class="cls-5" x="953.28" y="555.42" width="50.44" height="50.44"/><rect class="cls-5" x="1003.72" y="605.86" width="50.44" height="50.44"/></g><g id="_Grid_Repeat_-11"><rect class="cls-5" x="1059.21" y="555.42" width="50.44" height="50.44"/><rect class="cls-5" x="1109.65" y="605.86" width="50.44" height="50.44"/></g><g id="_Grid_Repeat_-12"><rect class="cls-5" x="1165.13" y="555.42" width="50.44" height="50.44"/><rect class="cls-5" x="1215.57" y="605.86" width="50.44" height="50.44"/></g><g id="_Grid_Repeat_-13"><rect class="cls-5" x="1271.05" y="555.42" width="50.44" height="50.44"/><rect class="cls-5" x="1321.49" y="605.86" width="50.44" height="50.44"/></g><g id="_Grid_Repeat_-14"><rect class="cls-5" x="1376.98" y="555.42" width="50.44" height="50.44"/><rect class="cls-5" x="1427.42" y="605.86" width="50.44" height="50.44"/></g><g id="_Grid_Repeat_-15"><rect class="cls-5" x="1482.9" y="555.42" width="50.44" height="50.44"/><rect class="cls-5" x="1533.34" y="605.86" width="50.44" height="50.44"/></g><g id="_Grid_Repeat_-16"><rect class="cls-5" x="1588.82" y="555.42" width="50.44" height="50.44"/><rect class="cls-5" x="1639.26" y="605.86" width="50.44" height="50.44"/></g><g id="_Grid_Repeat_-17"><rect class="cls-5" x="1694.74" y="555.42" width="50.44" height="50.44"/><rect class="cls-5" x="1745.18" y="605.86" width="50.44" height="50.44"/></g><g id="_Grid_Repeat_-18"><rect class="cls-5" x="1800.67" y="555.42" width="50.44" height="50.44"/><rect class="cls-5" x="1851.11" y="605.86" width="50.44" height="50.44"/></g><g id="_Grid_Repeat_-19"><rect class="cls-5" x="-.02" y="661.35" width="50.44" height="50.44"/><rect class="cls-5" x="50.42" y="711.78" width="50.44" height="50.44"/></g><g id="_Grid_Repeat_-20"><rect class="cls-5" x="105.9" y="661.35" width="50.44" height="50.44"/><rect class="cls-5" x="156.34" y="711.78" width="50.44" height="50.44"/></g><g id="_Grid_Repeat_-21"><rect class="cls-5" x="211.82" y="661.35" width="50.44" height="50.44"/><rect class="cls-5" x="262.26" y="711.78" width="50.44" height="50.44"/></g><g id="_Grid_Repeat_-22"><rect class="cls-5" x="317.75" y="661.35" width="50.44" height="50.44"/><rect class="cls-5" x="368.19" y="711.78" width="50.44" height="50.44"/></g><g id="_Grid_Repeat_-23"><rect class="cls-5" x="423.67" y="661.35" width="50.44" height="50.44"/><rect class="cls-5" x="474.11" y="711.78" width="50.44" height="50.44"/></g><g id="_Grid_Repeat_-24"><rect class="cls-5" x="529.59" y="661.35" width="50.44" height="50.44"/><rect class="cls-5" x="580.03" y="711.78" width="50.44" height="50.44"/></g><g id="_Grid_Repeat_-25"><rect class="cls-5" x="635.52" y="661.35" width="50.44" height="50.44"/><rect class="cls-5" x="685.95" y="711.78" width="50.44" height="50.44"/></g><g id="_Grid_Repeat_-26"><rect class="cls-5" x="741.44" y="661.35" width="50.44" height="50.44"/><rect class="cls-5" x="791.88" y="711.78" width="50.44" height="50.44"/></g><g id="_Grid_Repeat_-27"><rect class="cls-5" x="847.36" y="661.35" width="50.44" height="50.44"/><rect class="cls-5" x="897.8" y="711.78" width="50.44" height="50.44"/></g><g id="_Grid_Repeat_-28"><rect class="cls-5" x="953.28" y="661.35" width="50.44" height="50.44"/><rect class="cls-5" x="1003.72" y="711.78" width="50.44" height="50.44"/></g><g id="_Grid_Repeat_-29"><rect class="cls-5" x="1059.21" y="661.35" width="50.44" height="50.44"/><rect class="cls-5" x="1109.65" y="711.78" width="50.44" height="50.44"/></g><g id="_Grid_Repeat_-30"><rect class="cls-5" x="1165.13" y="661.35" width="50.44" height="50.44"/><rect class="cls-5" x="1215.57" y="711.78" width="50.44" height="50.44"/></g><g id="_Grid_Repeat_-31"><rect class="cls-5" x="1271.05" y="661.35" width="50.44" height="50.44"/><rect class="cls-5" x="1321.49" y="711.78" width="50.44" height="50.44"/></g><g id="_Grid_Repeat_-32"><rect class="cls-5" x="1376.98" y="661.35" width="50.44" height="50.44"/><rect class="cls-5" x="1427.42" y="711.78" width="50.44" height="50.44"/></g><g id="_Grid_Repeat_-33"><rect class="cls-5" x="1482.9" y="661.35" width="50.44" height="50.44"/><rect class="cls-5" x="1533.34" y="711.78" width="50.44" height="50.44"/></g><g id="_Grid_Repeat_-34"><rect class="cls-5" x="1588.82" y="661.35" width="50.44" height="50.44"/><rect class="cls-5" x="1639.26" y="711.78" width="50.44" height="50.44"/></g><g id="_Grid_Repeat_-35"><rect class="cls-5" x="1694.74" y="661.35" width="50.44" height="50.44"/><rect class="cls-5" x="1745.18" y="711.78" width="50.44" height="50.44"/></g><g id="_Grid_Repeat_-36"><rect class="cls-5" x="1800.67" y="661.35" width="50.44" height="50.44"/><rect class="cls-5" x="1851.11" y="711.78" width="50.44" height="50.44"/></g><g id="_Grid_Repeat_-37"><rect class="cls-5" x="-.02" y="767.27" width="50.44" height="50.44"/><rect class="cls-5" x="50.42" y="817.71" width="50.44" height="50.44"/></g><g id="_Grid_Repeat_-38"><rect class="cls-5" x="105.9" y="767.27" width="50.44" height="50.44"/><rect class="cls-5" x="156.34" y="817.71" width="50.44" height="50.44"/></g><g id="_Grid_Repeat_-39"><rect class="cls-5" x="211.82" y="767.27" width="50.44" height="50.44"/><rect class="cls-5" x="262.26" y="817.71" width="50.44" height="50.44"/></g><g id="_Grid_Repeat_-40"><rect class="cls-5" x="317.75" y="767.27" width="50.44" height="50.44"/><rect class="cls-5" x="368.19" y="817.71" width="50.44" height="50.44"/></g><g id="_Grid_Repeat_-41"><rect class="cls-5" x="423.67" y="767.27" width="50.44" height="50.44"/><rect class="cls-5" x="474.11" y="817.71" width="50.44" height="50.44"/></g><g id="_Grid_Repeat_-42"><rect class="cls-5" x="529.59" y="767.27" width="50.44" height="50.44"/><rect class="cls-5" x="580.03" y="817.71" width="50.44" height="50.44"/></g><g id="_Grid_Repeat_-43"><rect class="cls-5" x="635.52" y="767.27" width="50.44" height="50.44"/><rect class="cls-5" x="685.95" y="817.71" width="50.44" height="50.44"/></g><g id="_Grid_Repeat_-44"><rect class="cls-5" x="741.44" y="767.27" width="50.44" height="50.44"/><rect class="cls-5" x="791.88" y="817.71" width="50.44" height="50.44"/></g><g id="_Grid_Repeat_-45"><rect class="cls-5" x="847.36" y="767.27" width="50.44" height="50.44"/><rect class="cls-5" x="897.8" y="817.71" width="50.44" height="50.44"/></g><g id="_Grid_Repeat_-46"><rect class="cls-5" x="953.28" y="767.27" width="50.44" height="50.44"/><rect class="cls-5" x="1003.72" y="817.71" width="50.44" height="50.44"/></g><g id="_Grid_Repeat_-47"><rect class="cls-5" x="1059.21" y="767.27" width="50.44" height="50.44"/><rect class="cls-5" x="1109.65" y="817.71" width="50.44" height="50.44"/></g><g id="_Grid_Repeat_-48"><rect class="cls-5" x="1165.13" y="767.27" width="50.44" height="50.44"/><rect class="cls-5" x="1215.57" y="817.71" width="50.44" height="50.44"/></g><g id="_Grid_Repeat_-49"><rect class="cls-5" x="1271.05" y="767.27" width="50.44" height="50.44"/><rect class="cls-5" x="1321.49" y="817.71" width="50.44" height="50.44"/></g><g id="_Grid_Repeat_-50"><rect class="cls-5" x="1376.98" y="767.27" width="50.44" height="50.44"/><rect class="cls-5" x="1427.42" y="817.71" width="50.44" height="50.44"/></g><g id="_Grid_Repeat_-51"><rect class="cls-5" x="1482.9" y="767.27" width="50.44" height="50.44"/><rect class="cls-5" x="1533.34" y="817.71" width="50.44" height="50.44"/></g><g id="_Grid_Repeat_-52"><rect class="cls-5" x="1588.82" y="767.27" width="50.44" height="50.44"/><rect class="cls-5" x="1639.26" y="817.71" width="50.44" height="50.44"/></g><g id="_Grid_Repeat_-53"><rect class="cls-5" x="1694.74" y="767.27" width="50.44" height="50.44"/><rect class="cls-5" x="1745.18" y="817.71" width="50.44" height="50.44"/></g><g id="_Grid_Repeat_-54"><rect class="cls-5" x="1800.67" y="767.27" width="50.44" height="50.44"/><rect class="cls-5" x="1851.11" y="817.71" width="50.44" height="50.44"/></g><g id="_Grid_Repeat_-55"><rect class="cls-5" x="-.02" y="873.19" width="50.44" height="50.44"/><rect class="cls-5" x="50.42" y="923.63" width="50.44" height="50.44"/></g><g id="_Grid_Repeat_-56"><rect class="cls-5" x="105.9" y="873.19" width="50.44" height="50.44"/><rect class="cls-5" x="156.34" y="923.63" width="50.44" height="50.44"/></g><g id="_Grid_Repeat_-57"><rect class="cls-5" x="211.82" y="873.19" width="50.44" height="50.44"/><rect class="cls-5" x="262.26" y="923.63" width="50.44" height="50.44"/></g><g id="_Grid_Repeat_-58"><rect class="cls-5" x="317.75" y="873.19" width="50.44" height="50.44"/><rect class="cls-5" x="368.19" y="923.63" width="50.44" height="50.44"/></g><g id="_Grid_Repeat_-59"><rect class="cls-5" x="423.67" y="873.19" width="50.44" height="50.44"/><rect class="cls-5" x="474.11" y="923.63" width="50.44" height="50.44"/></g><g id="_Grid_Repeat_-60"><rect class="cls-5" x="529.59" y="873.19" width="50.44" height="50.44"/><rect class="cls-5" x="580.03" y="923.63" width="50.44" height="50.44"/></g><g id="_Grid_Repeat_-61"><rect class="cls-5" x="635.52" y="873.19" width="50.44" height="50.44"/><rect class="cls-5" x="685.95" y="923.63" width="50.44" height="50.44"/></g><g id="_Grid_Repeat_-62"><rect class="cls-5" x="741.44" y="873.19" width="50.44" height="50.44"/><rect class="cls-5" x="791.88" y="923.63" width="50.44" height="50.44"/></g><g id="_Grid_Repeat_-63"><rect class="cls-5" x="847.36" y="873.19" width="50.44" height="50.44"/><rect class="cls-5" x="897.8" y="923.63" width="50.44" height="50.44"/></g><g id="_Grid_Repeat_-64"><rect class="cls-5" x="953.28" y="873.19" width="50.44" height="50.44"/><rect class="cls-5" x="1003.72" y="923.63" width="50.44" height="50.44"/></g><g id="_Grid_Repeat_-65"><rect class="cls-5" x="1059.21" y="873.19" width="50.44" height="50.44"/><rect class="cls-5" x="1109.65" y="923.63" width="50.44" height="50.44"/></g><g id="_Grid_Repeat_-66"><rect class="cls-5" x="1165.13" y="873.19" width="50.44" height="50.44"/><rect class="cls-5" x="1215.57" y="923.63" width="50.44" height="50.44"/></g><g id="_Grid_Repeat_-67"><rect class="cls-5" x="1271.05" y="873.19" width="50.44" height="50.44"/><rect class="cls-5" x="1321.49" y="923.63" width="50.44" height="50.44"/></g><g id="_Grid_Repeat_-68"><rect class="cls-5" x="1376.98" y="873.19" width="50.44" height="50.44"/><rect class="cls-5" x="1427.42" y="923.63" width="50.44" height="50.44"/></g><g id="_Grid_Repeat_-69"><rect class="cls-5" x="1482.9" y="873.19" width="50.44" height="50.44"/><rect class="cls-5" x="1533.34" y="923.63" width="50.44" height="50.44"/></g><g id="_Grid_Repeat_-70"><rect class="cls-5" x="1588.82" y="873.19" width="50.44" height="50.44"/><rect class="cls-5" x="1639.26" y="923.63" width="50.44" height="50.44"/></g><g id="_Grid_Repeat_-71"><rect class="cls-5" x="1694.74" y="873.19" width="50.44" height="50.44"/><rect class="cls-5" x="1745.18" y="923.63" width="50.44" height="50.44"/></g><g id="_Grid_Repeat_-72"><rect class="cls-5" x="1800.67" y="873.19" width="50.44" height="50.44"/><rect class="cls-5" x="1851.11" y="923.63" width="50.44" height="50.44"/></g><g id="_Grid_Repeat_-73"><rect class="cls-5" x="-.02" y="979.11" width="50.44" height="50.44"/><rect class="cls-5" x="50.42" y="1029.55" width="50.44" height="50.44"/></g><g id="_Grid_Repeat_-74"><rect class="cls-5" x="105.9" y="979.11" width="50.44" height="50.44"/><rect class="cls-5" x="156.34" y="1029.55" width="50.44" height="50.44"/></g><g id="_Grid_Repeat_-75"><rect class="cls-5" x="211.82" y="979.11" width="50.44" height="50.44"/><rect class="cls-5" x="262.26" y="1029.55" width="50.44" height="50.44"/></g><g id="_Grid_Repeat_-76"><rect class="cls-5" x="317.75" y="979.11" width="50.44" height="50.44"/><rect class="cls-5" x="368.19" y="1029.55" width="50.44" height="50.44"/></g><g id="_Grid_Repeat_-77"><rect class="cls-5" x="423.67" y="979.11" width="50.44" height="50.44"/><rect class="cls-5" x="474.11" y="1029.55" width="50.44" height="50.44"/></g><g id="_Grid_Repeat_-78"><rect class="cls-5" x="529.59" y="979.11" width="50.44" height="50.44"/><rect class="cls-5" x="580.03" y="1029.55" width="50.44" height="50.44"/></g><g id="_Grid_Repeat_-79"><rect class="cls-5" x="635.52" y="979.11" width="50.44" height="50.44"/><rect class="cls-5" x="685.95" y="1029.55" width="50.44" height="50.44"/></g><g id="_Grid_Repeat_-80"><rect class="cls-5" x="741.44" y="979.11" width="50.44" height="50.44"/><rect class="cls-5" x="791.88" y="1029.55" width="50.44" height="50.44"/></g><g id="_Grid_Repeat_-81"><rect class="cls-5" x="847.36" y="979.11" width="50.44" height="50.44"/><rect class="cls-5" x="897.8" y="1029.55" width="50.44" height="50.44"/></g><g id="_Grid_Repeat_-82"><rect class="cls-5" x="953.28" y="979.11" width="50.44" height="50.44"/><rect class="cls-5" x="1003.72" y="1029.55" width="50.44" height="50.44"/></g><g id="_Grid_Repeat_-83"><rect class="cls-5" x="1059.21" y="979.11" width="50.44" height="50.44"/><rect class="cls-5" x="1109.65" y="1029.55" width="50.44" height="50.44"/></g><g id="_Grid_Repeat_-84"><rect class="cls-5" x="1165.13" y="979.11" width="50.44" height="50.44"/><rect class="cls-5" x="1215.57" y="1029.55" width="50.44" height="50.44"/></g><g id="_Grid_Repeat_-85"><rect class="cls-5" x="1271.05" y="979.11" width="50.44" height="50.44"/><rect class="cls-5" x="1321.49" y="1029.55" width="50.44" height="50.44"/></g><g id="_Grid_Repeat_-86"><rect class="cls-5" x="1376.98" y="979.11" width="50.44" height="50.44"/><rect class="cls-5" x="1427.42" y="1029.55" width="50.44" height="50.44"/></g><g id="_Grid_Repeat_-87"><rect class="cls-5" x="1482.9" y="979.11" width="50.44" height="50.44"/><rect class="cls-5" x="1533.34" y="1029.55" width="50.44" height="50.44"/></g><g id="_Grid_Repeat_-88"><rect class="cls-5" x="1588.82" y="979.11" width="50.44" height="50.44"/><rect class="cls-5" x="1639.26" y="1029.55" width="50.44" height="50.44"/></g><g id="_Grid_Repeat_-89"><rect class="cls-5" x="1694.74" y="979.11" width="50.44" height="50.44"/><rect class="cls-5" x="1745.18" y="1029.55" width="50.44" height="50.44"/></g><g id="_Grid_Repeat_-90"><rect class="cls-5" x="1800.67" y="979.11" width="50.44" height="50.44"/><rect class="cls-5" x="1851.11" y="1029.55" width="50.44" height="50.44"/></g></g><rect class="cls-13" width="1920" height="551"/><path class="cls-15" d="M770.27,23.74c21.7-6.13,46.36-5.97,65.89,6.15,19.54,12.12,31.62,38.23,23.18,59.43-1.67,4.2-4.1,8.39-3.61,12.94.87,8.06,10.52,12.37,18.41,11.54,7.89-.83,15.06-4.92,22.87-6.29,15.43-2.69,32.35,6.92,38.39,21.83,2.91,7.19,3.53,15.31,7.61,21.9,11.2,18.09,37.91,12.9,56.92,4.75,19.02-8.15,44.38-15.63,57.97.7,9.09,10.92,7.93,28.18,17.84,38.33,17.94,18.38,50.53-3.37,72.81,9.07,17.2,9.61,16.38,39.92-1.29,47.76-29.95,13.3-66.42-34.35-93.56-15.95-15.08,10.22-13.53,32.92-19.82,50.27-6.74,18.6-24.71,32.22-44.26,33.56-33.09,2.26-66.87-27.27-97.11-13.96-26.13,11.5-30.39,46.19-40.59,73.26-4.94,13.12-12.41,25.75-23.94,33.4-11.53,7.65-27.74,9.24-39.28,1.07-17.73-12.55-16.46-39.18-11.74-60.28,4.72-21.1,10.14-45.76-3.61-62.72-17.57-21.68-53.28-12.58-71.76,7.47-18.48,20.05-27.54,47.56-45.36,68.22-18.37,21.3-47.11,34.24-74.98,29.41-27.87-4.83-52.82-29.56-54.37-58.21-1.54-28.47,18.08-52.85,38.22-72.17,20.14-19.33,42.96-38.29,51.11-65.35,7.66-25.42.55-53.93-13.41-76.92-6.48-10.67-14.77-22.63-11.11-34.39,2.31-7.44,8.94-12.47,15.55-16.37,15.08-8.9,32.96-14.6,50.28-10.95,15.19,3.2,23.77,15.98,35.68,22.95,20.64-27.65,42.8-50.78,77.03-60.45Z"/><path d="M806.74,420.41c-6.88,0-13.53-1.88-18.88-5.68-18.67-13.22-17.01-40.92-12.34-61.83,4.48-20.03,10.06-44.96-3.31-61.45-6.06-7.47-14.83-11.6-25.36-11.94-15.46-.49-32.77,7.15-44.13,19.48-9.48,10.28-16.61,22.84-23.51,34.98-6.47,11.38-13.15,23.16-21.82,33.2-19.97,23.15-49.23,34.61-76.37,29.91-29.66-5.14-54.08-31.32-55.61-59.6-1.67-30.87,21.28-56.64,38.68-73.34,2.35-2.25,4.73-4.5,7.12-6.76,17.95-16.92,36.5-34.42,43.59-57.95,6.9-22.88,2.06-50.47-13.25-75.71-.51-.85-1.04-1.7-1.57-2.56-6.22-10.12-13.26-21.58-9.69-33.05,2.58-8.3,10.02-13.56,16.22-17.22,12.49-7.38,31.55-15.3,51.35-11.13,10.06,2.12,17.26,8.23,24.23,14.14,3.6,3.05,7.01,5.94,10.76,8.29,18.99-25.29,41.54-49.89,77.01-59.91l.41,1.44-.41-1.44c14.6-4.12,42.73-8.79,67.09,6.32,21.3,13.21,31.97,40.69,23.79,61.26-.34.85-.71,1.7-1.08,2.56-1.43,3.3-2.79,6.42-2.44,9.67.75,6.97,9.44,10.98,16.76,10.21,4.12-.43,8-1.78,12.11-3.21,3.43-1.19,6.97-2.42,10.65-3.07,16.14-2.82,33.73,7.17,40.04,22.74,1.19,2.94,2.01,6.03,2.8,9.01,1.21,4.56,2.35,8.87,4.69,12.66,3.19,5.15,16.57,20.65,55.06,4.17,29.16-12.49,48.69-12.12,59.72,1.12,4.55,5.47,6.63,12.41,8.64,19.12,2.17,7.25,4.22,14.1,9.12,19.13,9.13,9.35,22.43,7.7,36.52,5.95,12.4-1.54,25.22-3.13,35.94,2.86,8.66,4.84,13.71,15,13.18,26.54-.5,10.97-6.09,20.13-14.59,23.91-15.15,6.73-31.64-1.35-47.58-9.17-16.7-8.18-32.47-15.91-45.74-6.91-9.78,6.63-12.21,18.82-14.78,31.73-1.19,5.99-2.43,12.18-4.46,17.8-6.98,19.28-25.3,33.16-45.57,34.54-14.58.99-29.24-4.04-43.44-8.9-18.77-6.44-36.51-12.52-53.17-5.18-19.69,8.67-26.73,31.46-33.53,53.49-1.95,6.32-3.97,12.86-6.25,18.92-5.96,15.8-14.2,27.28-24.52,34.12-6.74,4.47-14.56,6.72-22.09,6.72ZM745.45,276.5c.5,0,1,0,1.5.02,11.43.36,20.98,4.88,27.6,13.04,14.28,17.62,8.53,43.33,3.91,63.99-4.48,20.02-6.18,46.46,11.14,58.73,10.23,7.24,25.69,6.79,37.58-1.1,9.78-6.49,17.64-17.48,23.37-32.68,2.25-5.97,4.25-12.46,6.19-18.74,7-22.68,14.24-46.13,35.19-55.36,17.73-7.81,36.86-1.25,55.35,5.09,13.91,4.77,28.31,9.7,42.26,8.75,19.1-1.3,36.36-14.39,42.95-32.57,1.96-5.41,3.17-11.49,4.34-17.37,2.58-12.93,5.24-26.31,16.04-33.63,14.71-9.97,32.02-1.5,48.75,6.7,15.33,7.51,31.17,15.28,45.04,9.12,7.45-3.31,12.36-11.47,12.81-21.3.48-10.39-3.99-19.5-11.64-23.78-9.86-5.51-22.19-3.98-34.11-2.5-14.19,1.76-28.87,3.59-39.04-6.83-5.42-5.55-7.67-13.08-9.85-20.36-1.92-6.42-3.91-13.06-8.07-18.06-10.06-12.09-28.46-12.18-56.23-.28-10.29,4.41-44.93,17.04-58.79-5.34-2.58-4.17-3.83-8.9-5.04-13.47-.77-2.9-1.56-5.89-2.68-8.66-5.8-14.31-21.94-23.5-36.74-20.91-3.44.6-6.87,1.79-10.19,2.94-4.09,1.42-8.32,2.89-12.78,3.36-8.92.93-19.1-4.02-20.06-12.87-.44-4.04,1.14-7.67,2.67-11.19.36-.83.72-1.65,1.04-2.47,7.67-19.28-2.46-45.12-22.58-57.6-17.08-10.59-40.66-12.77-64.7-5.98-35.11,9.92-57.39,34.65-76.24,59.9l-.8,1.08-1.16-.68c-4.43-2.59-8.44-6-12.32-9.29-6.68-5.67-13.6-11.53-22.91-13.49-18.87-3.97-37.17,3.67-49.21,10.78-5.73,3.39-12.61,8.21-14.88,15.52-3.16,10.17,3.22,20.55,9.39,30.59.53.87,1.06,1.73,1.58,2.58,15.76,25.96,20.7,54.44,13.56,78.13-7.32,24.29-26.18,42.07-44.41,59.26-2.39,2.25-4.76,4.49-7.1,6.74-35.45,34.02-38.53,56.82-37.76,71.01,1.46,26.95,24.79,51.9,53.13,56.81,25.71,4.45,54.6-6.89,73.59-28.91,8.47-9.82,15.08-21.47,21.48-32.72,6.98-12.29,14.2-25,23.91-35.53,11.56-12.54,29.04-20.47,44.94-20.47Z"/><path class="cls-8" d="M672.05,167.84c-.36,2.21-1.09,3.59-2.2,4.14-.34.17-.81.22-1.41.18-.6-.05-1.03,0-1.28.17l-9.44,5.02c-.3.16-.59.58-.87,1.25-.28.67-.57,1.06-.87,1.18-.94.44-3.01.25-6.22-.58-3.21-.83-5.18-1.68-5.91-2.56-.54-.7-.79-1.84-.73-3.43.03-.74.03-1.33,0-1.74l-3.62-46.54c-.12-.46-.33-.83-.62-1.14-.29-.3-.44-.57-.46-.8.02-.88.74-1.59,2.16-2.11.91-.3,2.94-.1,6.09.59,3.56.8,5.42,1.92,5.57,3.35.03.37-.17.94-.6,1.72-.43.78-.63,1.35-.6,1.72l2.98,38.3,6.62-3.63c.37-.4,1.08-.87,2.15-1.41.61-.14,2.34.72,5.18,2.57,2.84,1.86,4.2,3.11,4.08,3.77Z"/><path class="cls-8" d="M703.77,165.9c-.07.8-.39,1.67-.96,2.61-.57.95-1.09,1.53-1.56,1.75-.13.06-.38,0-.74-.19-.37-.18-.66-.26-.88-.25-.09,0-.17.04-.26.09-1.33.52-2.65,1.17-3.96,1.97-3.14,1.81-5.97,4.04-8.51,6.7-4.55-1.56-7.03-2.42-7.44-2.58-2.83-1.04-4.26-1.87-4.31-2.46l-4.05-52.08c-.03-.32.46-.82,1.44-1.5.99-.68,1.73-1.01,2.21-1,.53,0,1.62.29,3.25.84,1.64.55,2.96.79,3.97.71,1.32-.1,2.99-.85,5.01-2.25,1.84-1.34,3.01-1.94,3.51-1.79,1.08.29,2.75,1.39,5,3.28,2.25,1.9,3.5,3.28,3.74,4.14.12.41-.23,1.16-1.05,2.24-.82,1.08-1.52,1.65-2.09,1.69-.48.04-.84,0-1.07-.13-.23-.12-.39-.16-.47-.11-1.56.49-3,1.04-4.32,1.65-3.17,1.4-5.46,2.92-6.88,4.55l.88,11.29c1.48-.95,3.41-1.95,5.81-3.01.7-.14,2.26.77,4.7,2.75,2.43,1.98,3.68,3.38,3.75,4.21.04.51-.22,1.13-.78,1.87-.56.74-1.12,1.22-1.68,1.45-.44.03-1.21.14-2.3.31-1.65.45-4.48,2.15-8.5,5.09l.57,7.27c1.26-.93,2.97-2.04,5.15-3.34,2.18-1.3,3.53-1.97,4.06-2.01.62-.05,2.25.84,4.89,2.67,2.64,1.82,3.94,3.02,3.9,3.58Z"/><path class="cls-8" d="M741.13,118.52c-1.81,6.31-3.68,15.83-5.61,28.56-1.76,11.51-2.56,18.02-2.4,19.54-.03.14.09,1.2.38,3.18.17,1.06.09,2.04-.24,2.94-.35,1.14-.9,1.81-1.64,2-1.26.37-3.86.06-7.81-.95-3.95-1.01-6.25-1.97-6.9-2.9-.3-.44-.5-1.03-.6-1.77-.12-.92-.23-1.54-.34-1.86-6.31-16.29-10.49-31.01-12.53-44.14-.02-.23-.17-.71-.44-1.43-.18-.54-.26-1.03-.25-1.44.09-1.63.66-2.67,1.68-3.12.51-.22,2.4.08,5.65.9,3.43.86,5.35,1.67,5.77,2.42.21.45.29,1.42.23,2.91-.02.28-.15.7-.37,1.25-.22.55-.3,1.01-.23,1.38,1.04,4.8,1.99,9.02,2.85,12.68,2.1,8.76,3.61,13.94,4.53,15.55.41-4.35,1.31-9.94,2.68-16.78,1.37-6.84,2.26-12.52,2.66-17.06-.02-.88.08-2.07.32-3.58.4-1.14,1.07-1.91,2.01-2.31.69-.28,2.37-.01,5.04.81,2.91.94,4.76,2.01,5.56,3.21Z"/><path class="cls-8" d="M778.78,160.3c-.07.8-.39,1.67-.96,2.61-.57.95-1.09,1.53-1.56,1.75-.13.06-.38,0-.74-.19-.37-.18-.66-.26-.88-.25-.09,0-.17.04-.26.09-1.33.52-2.65,1.17-3.96,1.97-3.14,1.81-5.97,4.04-8.51,6.7-4.55-1.56-7.03-2.42-7.44-2.58-2.83-1.04-4.26-1.87-4.31-2.46l-4.05-52.08c-.03-.32.46-.82,1.44-1.5.99-.68,1.73-1.01,2.21-1,.53,0,1.62.29,3.25.84,1.64.55,2.96.79,3.97.71,1.32-.1,2.99-.85,5.01-2.25,1.84-1.34,3.01-1.94,3.51-1.79,1.08.29,2.75,1.39,5,3.28,2.25,1.9,3.5,3.28,3.74,4.15.12.41-.23,1.16-1.05,2.24-.82,1.08-1.52,1.65-2.09,1.69-.48.04-.84,0-1.07-.13-.23-.12-.39-.16-.47-.11-1.56.49-3,1.04-4.32,1.65-3.17,1.4-5.46,2.92-6.88,4.55l.88,11.29c1.48-.95,3.41-1.95,5.81-3.01.7-.14,2.26.77,4.7,2.75,2.43,1.98,3.68,3.38,3.75,4.21.04.51-.22,1.13-.78,1.87-.56.74-1.12,1.22-1.68,1.45-.44.03-1.21.14-2.3.31-1.65.45-4.48,2.15-8.5,5.09l.57,7.27c1.26-.93,2.97-2.04,5.15-3.34,2.18-1.3,3.53-1.97,4.06-2.01.62-.05,2.25.84,4.89,2.67,2.64,1.82,3.94,3.02,3.9,3.58Z"/><path class="cls-8" d="M812.69,157.35c-.36,2.21-1.09,3.59-2.2,4.14-.34.17-.81.22-1.41.18s-1.03,0-1.28.17l-9.44,5.02c-.3.16-.59.58-.87,1.25-.28.67-.57,1.06-.87,1.18-.94.44-3.01.25-6.22-.58-3.21-.83-5.18-1.68-5.91-2.55-.54-.7-.79-1.84-.73-3.43.03-.75.03-1.33,0-1.74l-3.62-46.54c-.12-.46-.33-.83-.62-1.14s-.44-.57-.46-.8c.02-.88.74-1.59,2.16-2.11.91-.3,2.94-.1,6.09.59,3.56.8,5.42,1.92,5.57,3.35.03.37-.17.94-.6,1.72-.43.78-.63,1.35-.6,1.72l2.98,38.3,6.62-3.63c.37-.4,1.08-.87,2.15-1.41.61-.14,2.34.72,5.18,2.57,2.84,1.86,4.2,3.11,4.08,3.77Z"/><path class="cls-8" d="M727.23,239.66c-.04,1.16-.39,2.12-1.04,2.86-1.05,2.96-2.79,5.99-5.2,9.1-2.62,3.31-4.81,5.03-6.57,5.16-.26.02-.51.01-.73-.02-1.99-.5-4.23-1.15-6.72-1.94-4.46-1.52-8.04-4.81-10.73-9.86-2.39-4.56-3.83-9.96-4.31-16.19-.59-7.62.27-14.44,2.59-20.46,2.47-6.41,5.92-9.89,10.34-10.45,1.71-.22,4.3.51,7.78,2.21,3.47,1.69,5.81,3.46,7.02,5.29,1.21,1.84,2.26,5.97,3.16,12.41.19,1.38.13,2.8-.2,4.26-.4,1.75-1.02,2.58-1.86,2.51-1.56-.12-3.53-.48-5.93-1.09-2.89-.76-4.47-1.45-4.74-2.08-.11-.22-.17-.43-.18-.61-.03-.42.11-.95.44-1.6.32-.65.47-1.18.44-1.6.07-1.91.04-3.7-.08-5.36-.19-2.4-.58-4.04-1.18-4.93-2.48,2.23-4.22,5.77-5.22,10.63-.83,4.1-1.05,8.69-.66,13.77.31,3.92.91,7.4,1.81,10.42.9,3.02,1.84,4.82,2.81,5.4.46.24,1.61-.78,3.45-3.08,1.84-2.3,2.99-4.11,3.46-5.45.04-.05.18-.8.42-2.26.2-.85.51-1.38.94-1.6.73-.33,2.7.18,5.93,1.54s4.82,2.37,4.78,3.02Z"/><path class="cls-8" d="M753.68,253.43c-.92.16-1.96.11-3.13-.15-1.17-.26-2.32-.54-3.45-.82-1.35-.27-3.47-.79-6.36-1.55-3.65-1.35-6.56-4.34-8.73-8.96-1.91-4.08-3.1-9.1-3.56-15.06-.38-4.85-.03-10.56,1.06-17.15,1.48-8.84,3.94-13.39,7.37-13.65.31-.02.74.03,1.31.15.56.12,1,.19,1.31.22,3.18-1.21,5.24-1.85,6.16-1.92.44-.03.88-.04,1.33-.03,5.34.3,9.77,3.45,13.29,9.46,3.17,5.43,5.05,12.05,5.66,19.85.58,7.39-.16,13.83-2.21,19.32-2.19,5.97-5.54,9.4-10.02,10.29ZM748.54,202.75c-.99-.21-1.84,1.23-2.55,4.3-.71,3.07-1.55,4.64-2.52,4.72-.22.02-.55-.09-.99-.31-.44-.22-.79-.35-1.06-.37-1.23,3.57-1.59,8.57-1.09,14.99.39,5.03,1.23,9.31,2.53,12.84,1.46,3.93,3.21,6.03,5.27,6.29,2.41.29,4.13-2.42,5.15-8.12.9-4.99,1.08-10.85.56-17.6-.36-4.57-.98-8.38-1.88-11.42-.96-3.27-2.1-5.04-3.4-5.32Z"/><path class="cls-8" d="M830.96,244.74c-.15,2.01-.6,3.13-1.33,3.37-1.04.36-3.08.21-6.15-.45-3.24-.69-5.12-1.47-5.63-2.37-.16-.31-.25-.65-.28-1.03-.02-.28,0-.73.06-1.36.06-.63.08-1.15.04-1.57l-2.45-31.45c-1.74,4.4-3.7,14.16-5.89,29.28-.03.19-.04.4-.02.63.04.46.17,1.2.4,2.2.23,1.01.36,1.65.38,1.92.07,1.43.07,2.36.02,2.78-.15.94-.57,1.53-1.26,1.77-.43.17-1.19.3-2.29.38-5.72.43-9.74-.32-12.06-2.23-.38-.3-.55-.86-.53-1.7,0-1.02-.04-1.69-.16-2.01-2.04-5.14-3.85-9.65-5.44-13.53-3.83-9.37-6.27-14.88-7.33-16.52l2.15,27.57c.05.6.29,1.42.72,2.45.54,1.26.85,2.05.92,2.37.25.91.38,2.02.39,3.31.03,1.58-.2,2.57-.7,2.98-.25.2-.75.33-1.5.39-1.63.12-3.59-.03-5.88-.47-2.47-.42-3.95-.94-4.44-1.55-.25-.31-.39-.69-.42-1.15-.02-.28.02-.74.12-1.4.1-.66.14-1.17.11-1.54l-3.82-49.11c-.04-.55.13-1.21.51-1.95.38-.75.85-1.26,1.41-1.53.72-.38,3.65-.04,8.78,1.02,5.35,1.04,8.22,2.08,8.61,3.12.16.41.23.96.2,1.66-.06.98-.08,1.56-.06,1.75.03.42.13.78.28,1.09l10.87,24.48c.91-4.2,2.51-12.7,4.79-25.51,1.13-6.54,2.19-9.99,3.18-10.34.3-.11.65-.19,1.05-.22.75-.06,2.02.06,3.81.34,1.98.37,3.34.54,4.09.53,3.5.06,5.52.12,6.06.17,2.1.26,3.33.94,3.68,2.02.11.32.18.66.21,1.03.04.46-.02,1.13-.18,2-.15.87-.21,1.52-.18,1.93l3.3,42.39c.04.46.36,1.13.99,2.02.62.88.91,1.56.85,2.03Z"/><path class="cls-8" d="M858.64,190.77c4.41,2.04,6.84,5.92,7.28,11.65.32,4.16-.83,9.53-3.46,16.14-2.92,7.37-6.19,11.19-9.8,11.46-.7.05-1.51-.25-2.43-.9-.91-.65-1.82-1.29-2.71-1.92l.92,11.77c.05.6.21,1.28.49,2.05.39,1.08.65,1.83.77,2.24.12.41.01,1.17-.32,2.29-.33,1.12-.89,1.75-1.68,1.9-.78.15-2.55-.3-5.28-1.35-2.87-1.09-4.68-2.11-5.42-3.08-.45-.62-.52-1.59-.23-2.91.23-.99.33-1.76.28-2.32l-3.33-42.8c-.02-.28-.22-.77-.58-1.49-.37-.71-.54-1.24-.52-1.56.09-2.24.8-3.4,2.12-3.5.22-.02,1.13.18,2.74.6,1.6.42,2.87.61,3.8.59,1.32-.05,2.98-.55,4.96-1.49,1.99-.94,3.44-1.44,4.37-1.51.53-.04,1.06-.01,1.6.09,1.03.2,2.14.82,3.33,1.84,1.42,1.19,2.45,1.93,3.09,2.21ZM853.58,196.51c-1.01.08-2.38.76-4.09,2.05-1.72,1.29-3,2.66-3.86,4.12l1.3,16.69c2.32-.96,4.34-3.97,6.07-9.02,1.59-4.58,2.27-8.41,2.03-11.51-.13-1.62-.61-2.39-1.44-2.33Z"/><path class="cls-8" d="M902.37,232.09c-.36,2.21-1.09,3.59-2.2,4.14-.34.16-.81.22-1.41.18-.6-.05-1.03,0-1.28.16l-9.44,5.02c-.3.16-.59.58-.87,1.25-.28.67-.57,1.06-.87,1.18-.94.44-3.01.25-6.22-.58-3.21-.83-5.18-1.68-5.91-2.55-.54-.7-.79-1.85-.73-3.43.03-.75.03-1.33,0-1.74l-3.62-46.54c-.12-.45-.33-.83-.62-1.14-.29-.3-.44-.57-.46-.8.02-.88.74-1.59,2.16-2.11.91-.3,2.94-.1,6.09.59,3.56.8,5.42,1.92,5.57,3.35.03.37-.17.94-.6,1.72-.43.77-.63,1.35-.6,1.72l2.98,38.3,6.62-3.63c.37-.4,1.08-.87,2.15-1.41.61-.14,2.34.72,5.18,2.57,2.84,1.85,4.2,3.11,4.08,3.77Z"/><path class="cls-8" d="M934.09,230.15c-.07.79-.39,1.67-.96,2.61-.57.95-1.09,1.53-1.56,1.75-.13.06-.38,0-.75-.19-.37-.18-.66-.26-.88-.25-.09,0-.17.04-.26.09-1.33.52-2.65,1.17-3.96,1.97-3.14,1.81-5.97,4.04-8.51,6.7-4.55-1.57-7.03-2.43-7.44-2.58-2.83-1.04-4.26-1.86-4.31-2.46l-4.05-52.08c-.02-.32.46-.82,1.44-1.5.99-.68,1.73-1.01,2.21-1,.53,0,1.62.29,3.25.84,1.64.55,2.96.79,3.97.71,1.32-.1,2.99-.85,5-2.25,1.84-1.34,3.01-1.94,3.51-1.79,1.08.29,2.75,1.39,5,3.28,2.25,1.9,3.5,3.28,3.74,4.14.12.41-.23,1.15-1.05,2.24-.82,1.08-1.52,1.65-2.09,1.69-.48.04-.84,0-1.07-.13-.23-.12-.39-.16-.47-.1-1.56.49-3,1.04-4.32,1.65-3.17,1.4-5.46,2.92-6.88,4.55l.88,11.29c1.48-.94,3.41-1.95,5.81-3.01.7-.14,2.26.77,4.7,2.75,2.43,1.98,3.68,3.38,3.75,4.21.04.51-.22,1.13-.78,1.87-.56.74-1.12,1.22-1.68,1.45-.44.03-1.21.14-2.3.31-1.65.45-4.48,2.15-8.5,5.09l.57,7.27c1.26-.93,2.97-2.04,5.15-3.35,2.18-1.3,3.53-1.97,4.06-2.01.62-.05,2.25.84,4.89,2.67,2.64,1.82,3.94,3.01,3.9,3.58Z"/><path class="cls-8" d="M966.38,190.12c-.35.03-.85-.09-1.49-.34-.64-.25-1.15-.32-1.54-.2l-6.65,2.45,2.83,36.43c.1,1.34.52,2.77,1.26,4.3.21.45.24,1.33.07,2.64-.15,1.45-.5,2.38-1.04,2.79-.08.05-.3.09-.65.12-1.45.11-3.5-.04-6.14-.45-2.96-.48-4.73-1.02-5.31-1.62-.68-.79-.75-1.9-.19-3.33.48-1.24.7-2.14.65-2.7l-2.67-34.28-4.59,1.6c-.22.06-.56.29-1.04.67-.48.38-.9.54-1.26.48-1.03-.2-2.53-1.47-4.48-3.81-1.95-2.34-2.85-3.95-2.7-4.85.27-1.09,1.24-1.97,2.91-2.66.43-.17,1-.24,1.71-.2.71.04,1.26,0,1.65-.12l22.5-7.88c.22-.06.83-.39,1.85-.97.68-.37,1.31-.54,1.89-.49,1.25.09,2.12.54,2.63,1.34.35.53.76,1.55,1.23,3.04.58,1.77.92,3.32,1.03,4.66.08,1.02.02,1.8-.18,2.35-.2.55-.96.9-2.28,1.04Z"/><path class="cls-8" d="M1005.6,224.81c-.07.79-.39,1.67-.96,2.61-.57.95-1.09,1.53-1.56,1.75-.13.06-.38,0-.75-.19-.37-.18-.66-.26-.88-.25-.09,0-.17.04-.26.09-1.33.52-2.65,1.17-3.96,1.97-3.14,1.81-5.97,4.04-8.51,6.7-4.55-1.57-7.03-2.42-7.44-2.58-2.83-1.04-4.26-1.86-4.31-2.46l-4.05-52.08c-.03-.32.46-.82,1.44-1.5.99-.68,1.73-1.01,2.21-1,.53,0,1.62.29,3.25.84,1.64.55,2.96.79,3.97.71,1.32-.1,2.99-.85,5-2.25,1.84-1.34,3.01-1.94,3.51-1.79,1.08.29,2.75,1.39,5,3.28,2.25,1.9,3.5,3.28,3.74,4.14.12.41-.23,1.15-1.06,2.24-.82,1.08-1.52,1.65-2.09,1.69-.48.04-.84,0-1.07-.13-.23-.12-.39-.16-.47-.1-1.56.49-3,1.04-4.32,1.65-3.17,1.4-5.46,2.92-6.88,4.55l.88,11.29c1.48-.95,3.41-1.95,5.81-3.01.7-.14,2.26.77,4.7,2.75,2.43,1.98,3.68,3.38,3.75,4.21.04.51-.22,1.13-.78,1.87-.56.74-1.12,1.22-1.68,1.45-.44.03-1.21.14-2.3.31-1.65.45-4.48,2.15-8.5,5.09l.57,7.27c1.26-.93,2.97-2.04,5.15-3.35,2.18-1.3,3.53-1.97,4.06-2.01.62-.05,2.25.84,4.89,2.67,2.64,1.82,3.94,3.01,3.9,3.58Z"/><path class="cls-8" d="M1020.16,211.39c.04,1.71-.3,2.69-1.03,2.93-.22.06-.44.1-.66.12-1.28.1-2.92-.32-4.94-1.23-2.02-.92-3.7-2.07-5.05-3.46-.57-.56-.66-1.67-.26-3.32.4-1.66.6-2.51.6-2.55l-2.04-26.18c-.09-1.2.5-2.08,1.79-2.64.26-.11.63-.19,1.11-.22,1.23-.09,2.66.08,4.29.52,1.63.44,2.67.96,3.11,1.58.1.13.24,1.38.42,3.73l2.2,28.26c.02.28.1.68.23,1.2.13.52.21.95.23,1.27ZM1020.94,221.44c.16.41.25,1.54.26,3.39,0,2.42.04,3.9.08,4.45.14,1.85.17,3.29.07,4.31-.1,1.03-.6,1.67-1.51,1.92-.52.18-2.07-.17-4.66-1.05-2.73-.96-4.39-1.83-4.99-2.62-.35-.48-.3-1.32.14-2.52.22-.53.31-1.39.26-2.6-.17-1.01-.32-2.95-.45-5.82.05-1.68.64-2.53,1.79-2.57,1.24,0,3,.39,5.27,1.17,2.27.78,3.52,1.42,3.74,1.92Z"/><rect class="cls-7" x="1002.82" y="929.78" width="23.39" height="88.07" rx="3.29" ry="3.29"/><path d="M1022.92,1018.1h-16.8c-1.96,0-3.54-1.59-3.54-3.54v-81.48c0-1.96,1.59-3.54,3.54-3.54h16.8c1.96,0,3.54,1.59,3.54,3.54v81.48c0,1.96-1.59,3.54-3.54,3.54ZM1006.12,930.03c-1.68,0-3.04,1.37-3.04,3.04v81.48c0,1.68,1.37,3.04,3.04,3.04h16.8c1.68,0,3.04-1.37,3.04-3.04v-81.48c0-1.68-1.37-3.04-3.04-3.04h-16.8Z"/><rect class="cls-7" x="939.43" y="929.2" width="22.16" height="88.07" rx="3.29" ry="3.29"/><path d="M958.29,1017.52h-15.57c-1.95,0-3.54-1.59-3.54-3.54v-81.48c0-1.96,1.59-3.54,3.54-3.54h15.57c1.95,0,3.54,1.59,3.54,3.54v81.48c0,1.96-1.59,3.54-3.54,3.54ZM942.72,929.45c-1.68,0-3.04,1.37-3.04,3.04v81.48c0,1.68,1.37,3.04,3.04,3.04h15.57c1.68,0,3.04-1.37,3.04-3.04v-81.48c0-1.68-1.37-3.04-3.04-3.04h-15.57Z"/><rect class="cls-4" x="1156.99" y="484.62" width="2.41" height="1"/><rect class="cls-2" x="1069.91" y="483.05" width="0" height="50.99"/><path class="cls-7" d="M979.43,611.68c-53.37,0-96.63-34.4-96.63-76.82v-12.67c0-42.43-.57-127.51,52.8-127.51l77.7-3.17c53.37,0,62.76,88.25,62.76,130.68v12.67c0,42.43-43.26,76.82-96.63,76.82Z"/><path class="cls-8" d="M1005.76,555.26c-2.55,7.05-2.65,6.54-7.05,12.59-4.4,6.05-10.93,10.95-18.34,11.62-6.48.58-12.96-2.17-17.87-6.46-5.65-4.94-9.06-12.33-10.15-19.79,15.25-.5,38.16,2.54,53.41,2.04Z"/><path d="M978.65,580.05c-5.66,0-11.58-2.37-16.48-6.66-5.37-4.7-9.13-12.02-10.31-20.1l-.08-.55.56-.02c7.65-.25,17.37.4,26.76,1.02,9.37.62,19.05,1.27,26.65,1.02l.74-.02-.25.69c-2.2,6.07-2.62,6.65-5.41,10.41-.49.66-1.05,1.41-1.7,2.31-5.02,6.9-11.84,11.21-18.7,11.82-.58.05-1.17.08-1.76.08ZM952.93,553.7c1.24,7.62,4.82,14.5,9.9,18.93,5.21,4.56,11.6,6.87,17.5,6.34,6.58-.59,13.13-4.75,17.98-11.41.66-.9,1.22-1.66,1.71-2.32,2.66-3.59,3.1-4.18,5.02-9.46-7.52.18-16.92-.44-26.01-1.04-9.14-.61-18.58-1.24-26.1-1.04Z"/><path d="M980.26,566.91c-2.91,0-5.81-.18-8.63-.42-8.6-1.19-15.58-6.17-19.17-13.69l.9-.43c4.72,9.87,13.54,12.46,18.38,13.13,11.78.98,25.1,1.09,33.77-9.98l.79.62c-6.88,8.78-16.49,10.77-26.04,10.77Z"/><path d="M992.87,495.32c6.32-10.46,23.85-12.07,31.06-3.7,6.21,7.2,3.68,20.51-4.71,26.85-5.3,4.01-13.9,5.94-20.71,1.85-8.47-5.09-10.36-17.2-5.65-25Z"/><path class="cls-8" d="M992.67,501.49c6.36-9.43,23.99-10.88,31.25-3.34,6.24,6.49,3.7,18.49-4.73,24.2-5.33,3.61-13.98,5.36-20.83,1.67-8.52-4.59-10.42-15.5-5.68-22.54Z"/><path class="cls-3" d="M999.75,506.06c4.77-7.68,17.98-8.86,23.42-2.72,4.68,5.28,2.78,15.05-3.55,19.7-4,2.94-10.48,4.36-15.62,1.36-6.39-3.73-7.81-12.62-4.26-18.34Z"/><path d="M1005.01,508.38c2.52-6.34,9.51-7.32,12.39-2.25,2.48,4.36,1.47,12.43-1.88,16.28-2.11,2.43-5.54,3.6-8.26,1.12-3.38-3.08-4.13-10.42-2.25-15.15Z"/><path d="M1025.57,494.79l-.4-.91s.06-.03.09-.04c1.49-.74,6.25-5.46,6.61-6.8,0-.01,0-.03,0-.04l.97.23s0,.03-.01.04c-.75,3.04-3.3,5.69-7.19,7.49-.03.01-.06.03-.09.04Z"/><path d="M1020.74,494.52l-.4-.92s.06-.03.1-.04c1.49-.74,6.24-5.46,6.61-6.8,0-.01,0-.03,0-.04l.97.23s0,.03-.01.04c-.75,3.04-3.3,5.69-7.19,7.49-.03.01-.06.03-.09.04Z"/><path d="M922.15,495.18c6.32-10.46,23.85-12.07,31.06-3.7,6.21,7.2,3.68,20.51-4.71,26.85-5.3,4.01-13.9,5.94-20.71,1.85-8.47-5.09-10.36-17.2-5.65-25Z"/><path class="cls-8" d="M921.94,501.35c6.36-9.43,23.99-10.88,31.25-3.34,6.24,6.49,3.7,18.49-4.73,24.2-5.33,3.61-13.98,5.36-20.83,1.67-8.52-4.59-10.42-15.5-5.68-22.54Z"/><path class="cls-3" d="M929.02,505.92c4.77-7.68,17.98-8.86,23.42-2.72,4.68,5.28,2.78,15.05-3.55,19.7-4,2.94-10.48,4.36-15.62,1.36-6.39-3.73-7.81-12.62-4.26-18.34Z"/><path d="M934.28,508.24c2.52-6.34,9.51-7.32,12.39-2.25,2.48,4.36,1.47,12.43-1.88,16.28-2.11,2.43-5.54,3.6-8.26,1.12-3.38-3.08-4.13-10.42-2.25-15.15Z"/><path d="M930.83,492.38s-.07-.04-.1-.06c-3.26-1.81-7.2-4.86-7.79-9.17,0-.02,0-.03,0-.04l.99-.12s0,.03,0,.05c.25,1.5,5.51,7.37,7.27,8.4.04.02.07.04.11.06l-.47.88Z"/><path d="M926.54,495.86s-.06-.03-.09-.05c-2.82-1.66-6.24-4.46-6.71-8.46,0-.01,0-.03,0-.04l.99-.1s0,.03,0,.04c.2,1.38,4.69,6.75,6.21,7.69.03.02.06.04.1.06l-.49.87Z"/><path d="M976.91,539.59c-3.59-.06-6.04-1.36-6.72-3.56-.78-2.54.96-5.6,4.64-8.19l.57.82c-3.27,2.29-4.9,5-4.26,7.07.54,1.77,2.65,2.81,5.78,2.86l-.02,1Z"/><path d="M1030.8,480.14c-2.48-5.01-7.77-7.14-11.89-7.45-4.88-.38-9.68,1.13-14.31,2.59l-.6-1.91c4.6-1.44,9.8-3.08,15.07-2.68,5.96.46,11.15,3.74,13.53,8.56l-1.79.89Z"/><path d="M958.38,479.95c-1.63-4.13-4.72-6.97-8.7-8.01-4.74-1.24-10.12.2-14.76,3.96l-1.26-1.55c5.14-4.16,11.16-5.74,16.52-4.34,4.61,1.21,8.17,4.48,10.05,9.21l-1.86.74Z"/><polygon class="cls-12" points="957.14 629.06 798.48 932.68 1161 932.68 1001.69 629.06 957.14 629.06"/><path d="M1161.83,933.18h-364.17l.38-.73,158.8-303.88h45.15l.14.27,159.69,304.34ZM799.31,932.18h360.86l-158.78-302.61h-43.94l-158.14,302.61Z"/><path class="cls-11" d="M929.58,727.8c.15,4.07.3,8.13.45,12.2.31-.12.67-.14,1.06-.02,2.82.83,5.22,3.39,4.54,6.89-.17.86-.49,1.61-.93,2.27-.06.19-.13.37-.22.54-.65,1.39-1.88,2.43-3.17,2.53-.28.09-.56.14-.83.15.2,5.26.39,10.51.59,15.77l32.38-.04c-.14-1.12.01-2.25.61-3.29.83-1.45,2.25-2.27,3.73-2.53.42-.14.88-.24,1.38-.28,1.76-.14,3.56.63,4.77,2.08.96,1.15,1.43,2.54,1.57,4.01,15.73-.02,31.46-.04,47.2-.05v-40.17l-93.14-.05Z"/><path d="M930.6,768.62l-.62-16.77h.52c.22,0,.44-.04.67-.12l.12-.02c1.06-.08,2.17-.98,2.75-2.24.07-.16.14-.33.2-.5l.06-.11c.42-.63.71-1.33.85-2.08.64-3.31-1.72-5.59-4.19-6.32-.27-.08-.52-.08-.74.01l-.65.25-.5-13.41h.52l93.64.05v41.17l-48.15.06-.04-.45c-.15-1.5-.64-2.76-1.46-3.74-1.1-1.32-2.73-2.03-4.35-1.91-.44.04-.86.12-1.26.26-1.57.29-2.77,1.1-3.46,2.31-.5.87-.68,1.88-.54,2.98l.07.56-33.43.04ZM931.01,752.8l.55,14.82,31.36-.03c-.04-1.11.19-2.13.72-3.04.83-1.45,2.31-2.46,4.08-2.78.41-.14.91-.25,1.43-.29,1.94-.16,3.88.69,5.2,2.26.86,1.04,1.41,2.32,1.63,3.83l46.25-.05v-39.17l-92.12-.05.41,11.1c.24,0,.48.02.73.1,2.89.85,5.65,3.55,4.89,7.47-.17.87-.49,1.67-.97,2.39-.06.18-.13.36-.21.53-.73,1.58-2.11,2.68-3.52,2.81-.14.04-.28.08-.41.1Z"/><path class="cls-6" d="M929.58,727.8l68.96-30.24c-3.23-.98,28.54,3.53,24.18,30.3"/><path d="M929.78,728.26l-.4-.92,68.45-30.02c.14-.54.68-.45,1.89-.19,1.13.24,27.53,6.05,23.5,30.8l-.99-.16c1.28-7.84-.46-14.51-5.18-19.84-6.36-7.19-15.98-9.61-18.22-9.95l-.08.04-68.96,30.24Z"/><path class="cls-9" d="M943.29,737.22c2.16-3.47,8.13-4.01,10.59-1.23,2.12,2.39,1.26,6.81-1.61,8.92-1.81,1.33-4.74,1.97-7.06.62-2.89-1.69-3.53-5.71-1.93-8.3Z"/><path d="M948.09,746.78c-1.06,0-2.13-.24-3.12-.82-1.41-.82-2.41-2.2-2.83-3.89-.44-1.76-.16-3.67.73-5.11,1.12-1.8,3.26-3,5.74-3.21,2.3-.2,4.42.52,5.65,1.91,1,1.13,1.45,2.7,1.26,4.43-.22,2.08-1.32,4.03-2.95,5.22-1.15.84-2.79,1.46-4.49,1.46ZM949.36,734.72c-.22,0-.44,0-.67.03-2.17.18-4.03,1.21-4.98,2.74h0c-.75,1.21-.98,2.84-.61,4.34.35,1.42,1.19,2.58,2.36,3.27,2.19,1.28,4.91.59,6.51-.59,1.4-1.03,2.35-2.72,2.54-4.52.15-1.45-.21-2.75-1.02-3.66-.91-1.03-2.43-1.61-4.15-1.61Z"/><path class="cls-9" d="M1004.41,735.17c1.67-3.14,6.3-3.62,8.21-1.11,1.64,2.16.97,6.15-1.24,8.05-1.4,1.2-3.67,1.78-5.47.56-2.24-1.52-2.74-5.16-1.49-7.49Z"/><path d="M1008.13,743.84c-.85,0-1.71-.23-2.51-.77-2.59-1.76-2.95-5.71-1.65-8.14h0c.9-1.69,2.64-2.8,4.66-2.96,1.79-.14,3.44.52,4.39,1.78,1.77,2.32,1.11,6.65-1.32,8.73-.91.78-2.22,1.36-3.57,1.36ZM1004.86,735.4c-1.1,2.06-.76,5.42,1.33,6.85,1.63,1.11,3.66.51,4.87-.52,2.03-1.74,2.62-5.46,1.17-7.37-.75-.99-2.06-1.5-3.52-1.39-1.67.13-3.11,1.04-3.85,2.43h0Z"/><path class="cls-9" d="M986.99,753.94c2.16-3.47,8.13-4.01,10.59-1.23,2.12,2.39,1.26,6.81-1.61,8.92-1.81,1.33-4.74,1.97-7.06.62-2.89-1.69-3.53-5.71-1.93-8.3Z"/><path d="M991.79,763.49c-1.06,0-2.13-.24-3.12-.82-1.41-.82-2.41-2.2-2.83-3.89-.44-1.76-.16-3.67.73-5.11,1.12-1.8,3.26-3,5.74-3.21,2.3-.2,4.42.52,5.65,1.91,1,1.13,1.45,2.7,1.26,4.43-.22,2.08-1.32,4.03-2.95,5.22-1.14.84-2.79,1.46-4.49,1.46ZM993.06,751.43c-.22,0-.44,0-.67.03-2.17.18-4.03,1.21-4.98,2.74h0c-.75,1.21-.98,2.84-.61,4.34.35,1.42,1.19,2.58,2.36,3.27,2.19,1.28,4.91.59,6.51-.59,1.4-1.03,2.35-2.72,2.54-4.52.15-1.45-.21-2.75-1.02-3.66-.91-1.03-2.43-1.61-4.15-1.61Z"/><path d="M951.52,756.54c1.06-1.7,4.01-1.97,5.22-.6,1.04,1.17.62,3.34-.79,4.37-.89.65-2.34.97-3.48.3-1.42-.83-1.74-2.8-.95-4.07Z"/><path d="M973.51,738.93c1.06-1.7,4.01-1.97,5.22-.6,1.04,1.17.62,3.34-.79,4.37-.89.65-2.34.97-3.48.3-1.42-.83-1.74-2.8-.95-4.07Z"/><rect x="1016.53" y="750.48" width="2.62" height="12.6" rx="1.07" ry="1.07"/><path d="M1016.9,746.06c.51-.85,1.91-.98,2.49-.3.5.58.3,1.66-.38,2.18-.43.32-1.11.48-1.66.15-.68-.41-.83-1.39-.45-2.03Z"/><path class="cls-7" d="M1002.84,782.63l-6.67,4.63c-1.92,1.33-4.61.94-6.02-.86l-14.48-18.49c-1.41-1.8-1-4.34.91-5.67l6.67-4.63c1.92-1.33,4.61-.94,6.02.86l14.48,18.49c1.41,1.8,1,4.34-.91,5.67Z"/><path d="M993.62,788.29c-1.4,0-2.78-.6-3.67-1.74l-14.48-18.49c-.72-.92-1.02-2.04-.85-3.17.17-1.15.82-2.17,1.81-2.86l6.67-4.63c2.02-1.4,4.87-.99,6.36.91l14.48,18.49c.72.92,1.02,2.04.85,3.17-.17,1.15-.82,2.17-1.81,2.86l-6.67,4.63c-.81.56-1.75.83-2.69.83ZM985.8,757.07c-.84,0-1.68.24-2.41.75l-6.67,4.63c-.88.61-1.45,1.51-1.6,2.53-.15.99.12,1.98.75,2.79l14.48,18.49c1.33,1.7,3.88,2.06,5.68.81l6.67-4.63c.88-.61,1.45-1.51,1.6-2.53.15-.99-.12-1.98-.75-2.79l-14.48-18.49c-.79-1.02-2.03-1.55-3.27-1.55Z"/><polyline class="cls-12" points="1066.52 749.62 1034.96 806.36 987.44 786.27 1004.09 775.28 1025.45 785.64 1059.79 739.29"/><polygon points="1035.18 807 986.38 786.37 1004.05 774.71 1025.29 785.01 1059.39 738.99 1060.19 739.59 1025.6 786.27 1004.12 775.86 988.49 786.18 1034.74 805.73 1066.08 749.38 1066.95 749.86 1035.18 807"/><path class="cls-7" d="M956.65,791.34l-6.18-5.32c-1.76-1.51-1.88-4.08-.27-5.73l16.47-16.95c1.61-1.65,4.33-1.77,6.09-.26l6.18,5.32c1.76,1.51,1.88,4.08.27,5.73l-16.47,16.95c-1.61,1.65-4.33,1.77-6.09.26Z"/><path d="M959.56,792.65c-1.1,0-2.2-.37-3.07-1.12l-6.18-5.32c-.91-.78-1.43-1.84-1.48-3-.05-1.15.37-2.25,1.2-3.09l16.47-16.95c1.7-1.74,4.58-1.86,6.43-.27l6.18,5.32c.91.78,1.43,1.84,1.48,3,.05,1.15-.37,2.25-1.2,3.09l-16.47,16.95c-.9.92-2.13,1.39-3.36,1.39ZM969.85,762.28c-1.1,0-2.2.42-3,1.24l-16.47,16.95c-.73.75-1.1,1.71-1.05,2.72.05,1.02.51,1.96,1.31,2.64l6.18,5.32c1.65,1.42,4.23,1.32,5.74-.24l16.47-16.95c.73-.75,1.1-1.71,1.05-2.72-.04-1.02-.51-1.96-1.31-2.64l-6.18-5.32c-.78-.67-1.76-1-2.74-1Z"/><polyline class="cls-12" points="892.24 754.72 921.38 811.46 965.28 791.37 949.9 780.38 930.17 790.74 898.46 744.39"/><polygon points="921.16 812.12 891.8 754.95 892.69 754.49 921.61 810.81 964.28 791.28 949.86 780.97 930.01 791.39 898.04 744.67 898.87 744.11 930.33 790.09 949.94 779.8 966.27 791.47 921.16 812.12"/><polygon class="cls-7" points="955.53 605.89 1002.05 605.89 1020.54 661.51 938.14 661.51 955.53 605.89"/><path class="cls-12" d="M1036.97,1015.34l-11.69-.29-.43-13.42h.13c-.07,2.84-8.73,5.63-12.61,5.63s-10.71-2.79-10.78-5.63h0v27.52c0,2.4,2.07,4.35,4.62,4.35h35.3c2.07,0,3.72-1.61,3.66-3.56l-.25-7.15c-.14-4.07-3.63-7.34-7.95-7.45Z"/><path d="M1041.51,1033.99h-35.3c-2.82,0-5.12-2.18-5.12-4.85v-27.52h1c.06,2.32,6.36,5.13,10.28,5.13,3.69,0,10.97-2.46,11.99-4.67l-.03-.97h1.17v.51c-.02.21-.06.41-.13.61l.39,12.31,11.22.28c4.58.12,8.29,3.6,8.44,7.93l.25,7.15c.04,1.04-.35,2.03-1.09,2.79-.79.81-1.9,1.28-3.07,1.28ZM1002.09,1003.74v25.41c0,2.12,1.85,3.85,4.12,3.85h35.3c.89,0,1.75-.36,2.35-.97.55-.57.84-1.3.81-2.06l-.25-7.15c-.13-3.8-3.41-6.86-7.47-6.96l-12.17-.31-.38-11.93c-2.58,2.43-9.13,4.15-12.04,4.15s-8.11-1.69-10.28-4.02Z"/><path class="cls-12" d="M924.91,1018.63l12.65-.29.47-13.42h-.15c.08,2.84,9.44,5.63,13.64,5.63s11.58-2.79,11.66-5.63h0v27.52c0,2.4-2.24,4.35-5,4.35h-38.18c-2.24,0-4.03-1.61-3.96-3.56l.27-7.15c.15-4.07,3.92-7.34,8.6-7.45Z"/><path d="M958.18,1037.28h-38.18c-1.31,0-2.54-.5-3.39-1.38-.72-.75-1.1-1.7-1.06-2.69l.27-7.15c.16-4.33,4.15-7.81,9.09-7.93l12.18-.28.43-12.31c-.08-.2-.12-.4-.12-.61v-.51s1.16,0,1.16,0l-.03.96c1.11,2.21,9.01,4.67,13.01,4.67,4.25,0,11.09-2.81,11.16-5.14h1v27.53c0,2.67-2.47,4.85-5.5,4.85ZM924.92,1019.13c-4.41.1-7.98,3.16-8.12,6.97l-.27,7.15c-.03.71.25,1.41.78,1.96.66.69,1.64,1.08,2.67,1.08h38.18c2.48,0,4.5-1.73,4.5-3.85v-25.49c-2.29,2.37-7.96,4.1-11.16,4.1s-10.34-1.76-13.06-4.22l-.42,12-13.12.3Z"/><path class="cls-14" d="M1017.7,464.55c14.74,18.52,28.41,38.11,37.81,59.58,11.06,25.28-.85,32.94-21.9,49.88-7.91,6.37-28.69,15.48-32.26,24.38-2.65,6.6,17.05,80.81,21.7,81.25,31.07,2.93,62.27,4.66,93.49,5.19-27.73-26.83-30.77-67.94-32.21-105.35-1.03-26.71-2.06-53.43-3.09-80.14-1.13-29.24-2.84-60.24-20.34-84.42-17.5-24.18-56.87-36.73-80.39-17.6,1.71,25.24,21.1,46.99,37.2,67.23Z"/><path d="M1117.79,685.35l-1.27-.02c-31.11-.53-62.58-2.28-93.53-5.19-.54-.05-1.07-.55-1.73-1.62-3.32-5.44-9.17-24.83-13.49-41.62-4.23-16.46-8.27-35.26-6.9-38.69,2.45-6.12,12.59-12.19,21.53-17.54,4.27-2.55,8.29-4.97,10.88-7.04,1.1-.88,2.17-1.74,3.21-2.58,19.22-15.38,28.87-23.1,18.54-46.71-8.08-18.48-19.72-36.82-37.74-59.47-1.48-1.86-2.98-3.73-4.5-5.61-15.36-19.09-31.25-38.82-32.81-61.9l-.02-.26.2-.16c9.43-7.67,21.76-10.75,35.66-8.93,17.85,2.35,35.27,12.55,45.45,26.62,18.13,25.06,19.41,58.12,20.43,84.69l3.09,80.14c1.56,40.5,5.19,79.01,32.06,105.01l.91.88ZM1018.09,464.24c18.07,22.72,29.75,41.13,37.87,59.69,10.64,24.32.17,32.69-18.83,47.89-1.04.83-2.12,1.69-3.21,2.58-2.63,2.12-6.69,4.55-10.99,7.12-8.81,5.27-18.79,11.25-21.12,17.06-2.22,5.55,13.31,66.77,20.03,78.92.86,1.56,1.24,1.64,1.26,1.65,30.51,2.88,61.52,4.61,92.2,5.17-26.32-26.24-29.91-64.55-31.46-104.81l-3.09-80.14c-1.02-26.43-2.29-59.33-20.24-84.15-10.03-13.86-27.18-23.9-44.77-26.22-9.45-1.24-23.11-.76-34.7,8.55,1.64,22.65,17.37,42.19,32.57,61.08,1.52,1.88,3.02,3.75,4.5,5.61Z"/><path class="cls-14" d="M941.28,465.12c-15.32,18.52-29.55,38.11-39.32,59.58-11.5,25.28.89,32.94,22.78,49.88,8.23,6.37,29.84,15.48,33.55,24.38,2.75,6.6-17.73,80.81-22.57,81.25-32.31,2.93-64.76,4.66-97.23,5.19,28.84-26.83,32-67.94,33.5-105.35,1.07-26.71,2.14-53.43,3.21-80.14,1.17-29.24,2.95-60.24,21.15-84.42,18.2-24.18,59.15-36.73,83.61-17.6-1.78,25.24-21.94,46.99-38.69,67.23Z"/><path d="M837.2,685.92l.95-.89c27.94-26,31.72-64.51,33.34-105.01l3.21-80.14c1.07-26.57,2.39-59.64,21.25-84.7,10.51-13.96,28.49-24.14,46.92-26.57,14.38-1.89,27.66,1.26,37.4,8.88l.21.16-.02.27c-1.62,23.08-18.15,42.82-34.12,61.91-1.58,1.88-3.14,3.75-4.68,5.61h0c-18.74,22.65-30.84,40.99-39.25,59.47-10.74,23.6-.7,31.32,19.29,46.7,1.09.84,2.2,1.69,3.34,2.58,2.68,2.08,6.88,4.49,11.31,7.04,9.3,5.35,19.84,11.42,22.39,17.54,1.42,3.4-2.72,22.01-7.07,38.29-4.43,16.6-10.47,35.95-13.98,41.78-.75,1.24-1.34,1.81-1.93,1.87-32.2,2.92-64.93,4.67-97.27,5.19l-1.3.02ZM950.92,389.07c-2.59,0-5.23.17-7.91.53-18.17,2.39-35.9,12.43-46.25,26.18-18.67,24.81-19.99,57.71-21.05,84.14l-3.21,80.14c-1.61,40.26-5.35,78.57-32.72,104.81,31.9-.55,64.15-2.29,95.9-5.17,0,0,.38-.06,1.23-1.49,6.79-11.49,23.21-73.56,20.92-79.06-2.42-5.81-12.8-11.79-21.96-17.06-4.47-2.57-8.69-5-11.43-7.12-1.14-.88-2.25-1.74-3.34-2.58-19.77-15.2-30.65-23.58-19.59-47.9,8.44-18.56,20.59-36.97,39.39-59.69,1.54-1.86,3.1-3.73,4.68-5.61,15.81-18.89,32.16-38.43,33.87-61.07-7.69-5.93-17.61-9.04-28.53-9.04Z"/><path class="cls-8" d="M1321.01,453.96l-98.17-10.35c-125.18,16.42-142.05,68.33-40.5-34.49l-6.8-118.09c10.74-19.57,32.44-38.29,67.03-34.59l118.86,12.49c34.59,3.69,40.21,23.3,37.76,46.22l-11.11,103.99c-2.45,22.92-32.48,38.51-67.07,34.82Z"/><path d="M1116.31,472.83c-.68,0-1.04-.29-1.37-.84-.92-1.52-.27-2.09,7.71-8.97,9.43-8.14,29.01-25.02,58.14-54.48l-6.79-117.85.21-.38c6.65-12.12,26.65-39.83,68.5-35.36l118.86,12.49c39.18,4.19,41.08,29.33,39.1,47.87l-11.11,103.99c-1.24,11.6-9.15,21.75-22.28,28.56-12.93,6.71-29.42,9.4-46.44,7.59l-97.99-10.33c-52.04,6.85-84.89,19.7-98.93,25.19-4.4,1.72-6.46,2.53-7.61,2.53ZM1177.05,291.38l6.82,118.32-.47.47c-29.48,29.84-49.27,46.92-58.79,55.12-1.16,1-2.25,1.94-3.2,2.77.46-.18.93-.36,1.42-.56,14.16-5.54,47.31-18.5,99.81-25.39l.18-.02,98.35,10.37c16.44,1.76,32.33-.82,44.74-7.27,12.21-6.34,19.55-15.65,20.68-26.22l11.11-103.99c2-18.73-.33-40.72-36.43-44.57l-118.86-12.49c-39.65-4.23-58.79,21.67-65.35,33.44Z"/><path d="M1220.51,345.07c-.09,1.03-.25,1.6-.47,1.69-.31.14-.91-.01-1.8-.47-.94-.48-1.47-.96-1.6-1.44-.04-.17-.06-.35-.06-.54,0-.14.02-.38.05-.7.03-.32.05-.59.05-.81v-16.34c-.61,2.21-1.41,7.18-2.4,14.9-.01.1-.02.2-.02.32,0,.24.02.62.07,1.15.04.53.07.86.07,1.01-.01.74-.03,1.22-.06,1.44-.07.48-.2.77-.41.86-.13.07-.36.11-.68.11-1.69,0-2.86-.54-3.5-1.62-.1-.17-.14-.47-.12-.9.03-.53.03-.88,0-1.04-.48-2.74-.91-5.14-1.29-7.2-.91-4.99-1.5-7.93-1.78-8.82v14.33c0,.31.05.74.16,1.3.13.67.2,1.09.21,1.26.05.48.07,1.06.04,1.73-.03.82-.12,1.32-.27,1.51-.08.1-.23.14-.45.14-.48,0-1.05-.16-1.72-.47-.72-.31-1.14-.64-1.27-.97-.07-.17-.1-.37-.1-.61,0-.14.02-.38.07-.72.04-.34.07-.6.07-.79v-25.52c0-.29.06-.62.2-.99.13-.37.28-.62.45-.74.22-.17,1.07.12,2.56.86,1.55.74,2.37,1.39,2.46,1.94.04.22.05.5.02.86-.04.5-.06.8-.06.9,0,.22.02.41.06.58l2.64,13.07c.36-2.14,1.03-6.47,1.99-13,.48-3.33.87-5.08,1.17-5.22.09-.05.19-.07.31-.07.22,0,.59.11,1.11.32.57.26.97.41,1.19.43,1.03.17,1.62.28,1.78.32.61.22.96.61,1.04,1.19.03.17.04.35.04.54,0,.24-.03.58-.1,1.03-.07.44-.1.77-.1.99v22.03c0,.24.08.6.24,1.08.16.48.23.84.21,1.08Z"/><path d="M1236.84,343.45c.1.46.16.91.16,1.37,0,.72-.15,1.21-.45,1.48-.09.07-.25.11-.49.11-.44,0-.97-.13-1.58-.38-.61-.25-.98-.5-1.11-.74-.07-.14-.1-.3-.1-.47,0-.26.1-.69.29-1.28s.29-1.01.29-1.28c.03-9.46-.01-14.22-.12-14.29-.21-.12-.63.83-1.27,2.84-.7,2.21-1.05,4.13-1.05,5.76v7.06c.09.55.14.98.14,1.3,0,.6-.17,1.06-.51,1.37-.09.07-.25.11-.49.11-.44,0-.97-.13-1.58-.38-.61-.25-.98-.5-1.11-.74-.05-.1-.08-.22-.08-.36,0-.24.09-.67.28-1.3s.28-1.08.28-1.37c.03-9.46-.01-14.22-.12-14.29-.18-.12-.63.96-1.35,3.24-.75,2.4-1.13,4.21-1.13,5.44v6.73c.17.31.25.7.25,1.15,0,.91-.22,1.54-.66,1.87-.05.05-.13.07-.23.07-.35,0-.87-.15-1.54-.45-.68-.3-1.05-.55-1.13-.74s-.12-.41-.12-.65.08-.53.22-.86.22-.55.22-.65v-16.74c0-.19-.05-.44-.16-.76-.1-.31-.14-.58-.1-.79.08-.5.28-.83.61-.97.21-.1.7.04,1.46.4.83.38,1.29.78,1.37,1.19.05.26.03.66-.06,1.19-.14.84-.21,1.32-.21,1.44,0,.26.03.55.08.86.2-1.2.47-2.27.82-3.2.43-1.13.86-1.69,1.29-1.69s.98.3,1.7.9c.66.58,1.07,1.07,1.23,1.48.12.29.25,1.15.39,2.59.53-1.82.84-2.87.92-3.13.44-1.22.87-1.84,1.27-1.84.44,0,1.02.28,1.72.85.7.56,1.11,1.08,1.21,1.53.36,1.54.55,7.21.55,17.03Z"/><path d="M1253.3,343.45c.1.46.16.91.16,1.37,0,.72-.15,1.21-.45,1.48-.09.07-.25.11-.49.11-.44,0-.97-.13-1.58-.38-.61-.25-.98-.5-1.11-.74-.07-.14-.1-.3-.1-.47,0-.26.1-.69.29-1.28s.29-1.01.29-1.28c.03-9.46-.01-14.22-.12-14.29-.21-.12-.63.83-1.27,2.84-.7,2.21-1.05,4.13-1.05,5.76v7.06c.09.55.14.98.14,1.3,0,.6-.17,1.06-.51,1.37-.09.07-.25.11-.49.11-.44,0-.97-.13-1.58-.38-.61-.25-.98-.5-1.11-.74-.05-.1-.08-.22-.08-.36,0-.24.09-.67.28-1.3s.28-1.08.28-1.37c.03-9.46-.01-14.22-.12-14.29-.18-.12-.63.96-1.35,3.24-.75,2.4-1.13,4.21-1.13,5.44v6.73c.17.31.25.7.25,1.15,0,.91-.22,1.54-.66,1.87-.05.05-.13.07-.23.07-.35,0-.87-.15-1.54-.45-.68-.3-1.05-.55-1.13-.74s-.12-.41-.12-.65.08-.53.22-.86.22-.55.22-.65v-16.74c0-.19-.05-.44-.16-.76-.1-.31-.14-.58-.1-.79.08-.5.28-.83.61-.97.21-.1.7.04,1.46.4.83.38,1.29.78,1.37,1.19.05.26.03.66-.06,1.19-.14.84-.21,1.32-.21,1.44,0,.26.03.55.08.86.2-1.2.47-2.27.82-3.2.43-1.13.86-1.69,1.29-1.69s.98.3,1.7.9c.66.58,1.07,1.07,1.23,1.48.12.29.25,1.15.39,2.59.53-1.82.84-2.87.92-3.13.44-1.22.87-1.84,1.27-1.84.44,0,1.02.28,1.72.85.7.56,1.11,1.08,1.21,1.53.36,1.54.55,7.21.55,17.03Z"/><path d="M1269.76,343.45c.1.46.16.91.16,1.37,0,.72-.15,1.21-.45,1.48-.09.07-.25.11-.49.11-.44,0-.97-.13-1.58-.38-.61-.25-.98-.5-1.11-.74-.07-.14-.1-.3-.1-.47,0-.26.1-.69.29-1.28s.29-1.01.29-1.28c.03-9.46-.01-14.22-.12-14.29-.21-.12-.63.83-1.27,2.84-.7,2.21-1.05,4.13-1.05,5.76v7.06c.09.55.14.98.14,1.3,0,.6-.17,1.06-.51,1.37-.09.07-.25.11-.49.11-.44,0-.97-.13-1.58-.38-.61-.25-.98-.5-1.11-.74-.05-.1-.08-.22-.08-.36,0-.24.09-.67.28-1.3s.28-1.08.28-1.37c.03-9.46-.01-14.22-.12-14.29-.18-.12-.63.96-1.35,3.24-.75,2.4-1.13,4.21-1.13,5.44v6.73c.17.31.25.7.25,1.15,0,.91-.22,1.54-.66,1.87-.05.05-.13.07-.23.07-.35,0-.87-.15-1.54-.45-.68-.3-1.05-.55-1.13-.74s-.12-.41-.12-.65.08-.53.22-.86.22-.55.22-.65v-16.74c0-.19-.05-.44-.16-.76-.1-.31-.14-.58-.1-.79.08-.5.28-.83.61-.97.21-.1.7.04,1.46.4.83.38,1.29.78,1.37,1.19.05.26.03.66-.06,1.19-.14.84-.21,1.32-.21,1.44,0,.26.03.55.08.86.2-1.2.47-2.27.82-3.2.43-1.13.86-1.69,1.29-1.69s.98.3,1.7.9c.66.58,1.07,1.07,1.23,1.48.12.29.25,1.15.39,2.59.53-1.82.84-2.87.92-3.13.44-1.22.87-1.84,1.27-1.84.44,0,1.02.28,1.72.85.7.56,1.11,1.08,1.21,1.53.36,1.54.55,7.21.55,17.03Z"/><path d="M1280.86,344.96c-.07.7-.21,1.14-.43,1.33-.09.07-.25.11-.49.11-.44,0-.97-.13-1.58-.38-.61-.25-.98-.5-1.11-.74-.05-.12-.08-.26-.08-.43,0-.19.06-.55.18-1.08.08-.19.16-.4.25-.63.09-.23.14-.52.14-.88.03-9.46-.01-14.22-.12-14.29-.2-.12-.64.76-1.35,2.63-.75,1.99-1.13,3.59-1.13,4.79v7.99c.21.38.28.89.21,1.51-.08.74-.29,1.25-.62,1.51-.05.05-.13.07-.23.07-.35,0-.87-.15-1.54-.45-.68-.3-1.05-.52-1.11-.67-.14-.38-.16-.83-.04-1.33.01-.07.08-.2.19-.38.11-.18.17-.35.17-.52v-25.45c0-.19-.05-.44-.16-.76-.1-.31-.14-.58-.1-.79.08-.5.28-.83.61-.97.21-.1.7.04,1.46.4.83.38,1.29.78,1.37,1.19.05.26.03.66-.06,1.19-.09.53-.14,1.18-.14,1.94v6.73c.73-1.7,1.43-2.56,2.11-2.56.44,0,1.02.28,1.72.85.7.56,1.11,1.08,1.21,1.53.36,1.54.55,7.21.55,17.03.13.58.18,1.08.14,1.51Z"/><path d="M1290.76,326.24c.04.1.06.22.06.36,0,.19-.07.55-.22,1.08-.15.53-.22.92-.22,1.19v17.6s0,.18.02.47v.79c0,2.25-.34,3.77-1.01,4.54-.18.22-.5.32-.96.32-.95,0-1.83-.24-2.64-.72-.38-.22-.86-.72-1.45-1.51-.68-.91-1.02-1.64-1.02-2.2,0-.34.12-.65.37-.94.04-.05.13-.07.27-.07.78,0,1.43.24,1.95.72.13.29.25.58.35.86.21.46.49.68.84.68.18,0,.27-1.48.27-4.43v-18.29c-.16-.91-.23-1.52-.23-1.84s.24-.47.72-.47c.4,0,.95.22,1.64.67.69.44,1.11.83,1.25,1.17ZM1290.89,320.16c.04.17.06.42.06.76,0,.6-.05,1.21-.16,1.84-.12.7-.26,1.12-.43,1.26-.13.1-.69-.16-1.67-.77-.98-.61-1.51-1.05-1.59-1.31-.04-.12-.06-.3-.06-.54,0-.65.09-1.33.27-2.05.21-.82.44-1.27.7-1.37.3-.1.82.11,1.57.63.75.52,1.18,1.04,1.3,1.57Z"/><path d="M1300.07,339.46c.12.36-.14,1.43-.76,3.2-.68,1.9-1.34,3.18-1.99,3.85-.08.07-.2.11-.35.11-.51,0-1.17-.29-1.99-.86-.87-.58-1.45-1.2-1.72-1.87-.76-1.8-1.13-4.3-1.13-7.49,0-3.02.33-5.69,1-7.99.72-2.52,1.63-3.8,2.73-3.85.4-.02.89.17,1.46.58.7.5,1.28,1.19,1.74,2.05.12.22.23.86.33,1.94.13,1.15.2,2.28.2,3.38,0,1.63-.14,2.76-.43,3.38-1.34.79-2.71,1.24-4.1,1.33-.03,1.18.05,2.41.23,3.71.18,1.3.37,1.96.57,1.98.26.02.57-.37.94-1.19.33-.7.53-1.28.61-1.76.09-.72.21-1.46.37-2.23.21-.05.62.14,1.23.58.61.43.97.82,1.07,1.15ZM1296.6,328.44c-.22-.05-.53.6-.93,1.94-.4,1.34-.63,2.63-.69,3.85.59-.05,1.05-.31,1.41-.79.21-.29.31-1.49.31-3.6,0-.89-.03-1.36-.1-1.4Z"/><path d="M1309.88,326.71s-.07.26-.21.72c-.09.34-.14.6-.14.79v15.77c0,3.98-.8,6.54-2.4,7.67-.74.53-1.42.79-2.03.79-.89,0-1.65-.55-2.3-1.66-.18-.29-.5-.91-.94-1.87-.03-.05-.15-.28-.37-.68-.13-.26-.2-.54-.21-.83-.01-.36.18-.65.59-.86.05-.02.13-.04.23-.04.29,0,.63.11,1.03.32.4.22.68.48.85.79.21.48.42.97.64,1.48.22.5.48.78.78.83.53.1.88-.58,1.04-2.02.08-.7.12-1.93.12-3.71-.04.1-.16.41-.37.94-.16.38-.29.66-.41.83-.14.24-.29.36-.45.36-.69,0-1.27-.35-1.74-1.04-1.39-2.16-2.09-5.34-2.09-9.54,0-2.66.31-5.05.92-7.16.64-2.26,1.47-3.67,2.5-4.25.08-.05.15-.07.21-.07.21,0,.44.18.7.54.22.31.44.64.66.97.08-.41.16-.81.24-1.21.08-.4.22-.62.4-.67.27-.07.76.09,1.46.49.7.4,1.09.74,1.18,1.03.16.48.2.91.12,1.3ZM1306.42,335.57c.1-1.66.16-3.01.16-4.07,0-1.94-.17-3.04-.51-3.28-.27-.19-.61.66-1,2.56-.39,1.9-.59,3.62-.59,5.18,0,2.83.18,5.08.53,6.73.78-2.23,1.25-4.61,1.41-7.13Z"/><path d="M1323.43,339.46c.12.36-.14,1.43-.76,3.2-.68,1.9-1.34,3.18-1.99,3.85-.08.07-.2.11-.35.11-.51,0-1.17-.29-1.99-.86-.87-.58-1.45-1.2-1.72-1.87-.76-1.8-1.13-4.3-1.13-7.49,0-3.02.33-5.69,1-7.99.72-2.52,1.63-3.8,2.73-3.85.4-.02.89.17,1.46.58.7.5,1.28,1.19,1.74,2.05.12.22.23.86.33,1.94.13,1.15.2,2.28.2,3.38,0,1.63-.14,2.76-.43,3.38-1.34.79-2.71,1.24-4.1,1.33-.03,1.18.05,2.41.23,3.71.18,1.3.37,1.96.57,1.98.26.02.57-.37.94-1.19.33-.7.53-1.28.61-1.76.09-.72.21-1.46.37-2.23.21-.05.62.14,1.23.58.61.43.97.82,1.07,1.15ZM1319.95,328.44c-.22-.05-.53.6-.93,1.94-.4,1.34-.63,2.63-.69,3.85.59-.05,1.05-.31,1.41-.79.21-.29.31-1.49.31-3.6,0-.89-.03-1.36-.1-1.4Z"/><path d="M1328.6,317.75c0,.17-.03.4-.09.68s-.09.47-.11.54c-.08.48-.16,1.22-.23,2.23v22.1c0,.29.04.55.12.77.08.23.12.41.12.56,0,1.54-.16,2.36-.47,2.48-.12.05-.53-.11-1.24-.49-.71-.37-1.14-.67-1.28-.88-.29-.46-.43-.88-.43-1.26,0-.1.03-.2.08-.32.05-.12.08-.32.08-.61v-25.38c0-.14-.02-.29-.07-.45-.05-.16-.07-.31-.07-.45.03-.58.27-.96.72-1.15.13-.05.4-.05.82,0,.48.07.9.2,1.25.4.53.29.8.7.8,1.22Z"/><path d="M1337.16,342.19c0,1.32-.24,2.38-.71,3.17s-1.14,1.2-2,1.22c-.21,0-.44-.06-.68-.18-.44-.22-.68-.34-.7-.36-.23-.1-.47-.2-.71-.31-.24-.11-.45-.29-.62-.56-.29-.48-.57-1.14-.84-1.98-.22-.67-.44-1.36-.64-2.05-.21-.7-.31-1.12-.31-1.26,0-.34.13-.59.39-.76.06-.05.18-.07.35-.07.39,0,.88.08,1.47.23.59.16.91.29.97.4.05.11.12.8.21,2.07.08,1.1.21,1.66.41,1.66.3,0,.45-.74.45-2.23,0-1.9-.27-3.08-.82-3.56-1.25-1.08-2.07-2.04-2.46-2.88-.48-1.03-.72-2.59-.72-4.68,0-1.37.2-2.66.59-3.87.39-1.21.85-1.94,1.39-2.18.23-.1.99.36,2.26,1.37.12.07.46.2,1.04.4.4.14.69.4.86.76.25.55.39,1.43.43,2.63.01.89.02,1.78.02,2.66.09.82.14,1.3.14,1.44,0,.67-.18,1.06-.53,1.15-.18.05-.54-.08-1.07-.4-.59-.36-.96-.73-1.11-1.12-.04-.1-.08-1-.12-2.7-.04-1.61-.13-2.41-.27-2.41-.19,0-.38.47-.55,1.4-.17.94-.25,1.91-.25,2.92,0,1.27.15,2.08.45,2.41.64.65,1.27,1.3,1.9,1.96s1.07,1.34,1.32,2.03c.33.91.49,2.14.49,3.67Z"/><path d="M1348.09,342.23c.03.46-.22,1.28-.74,2.48s-.92,1.76-1.21,1.69c-.56-.14-1.75-2.93-3.55-8.35-.13.26-.35.68-.66,1.26v4.25c0,.12.02.34.05.65.03.31.05.54.07.68.04.82-.05,1.34-.27,1.58-.12.12-.31.18-.57.18-.5,0-.98-.17-1.45-.5-.55-.38-.82-.84-.82-1.37v-26.71c0-.38.06-.8.2-1.26.13-.46.28-.74.45-.86.04-.02.09-.04.16-.04.34,0,.81.21,1.42.63s.94.79,1.01,1.1c.04.17.06.31.06.43,0,.19-.05.44-.16.74-.1.3-.16.58-.16.85v12.49l2.89-7.31c.17-.43.38-.66.64-.68.25-.02.59.26,1.04.86.5.67.75,1.33.76,1.98.01.26-.29,1.2-.92,2.81-.96,2.54-1.53,4.06-1.7,4.54l2.54,6.44c.09.24.28.49.57.76.23.22.36.44.37.68Z"/><path d="M1357.09,339.46c.12.36-.14,1.43-.76,3.2-.68,1.9-1.34,3.18-1.99,3.85-.08.07-.2.11-.35.11-.51,0-1.17-.29-1.99-.86-.87-.58-1.45-1.2-1.72-1.87-.76-1.8-1.13-4.3-1.13-7.49,0-3.02.33-5.69,1-7.99.72-2.52,1.63-3.8,2.73-3.85.4-.02.89.17,1.46.58.7.5,1.28,1.19,1.74,2.05.12.22.23.86.33,1.94.13,1.15.2,2.28.2,3.38,0,1.63-.14,2.76-.43,3.38-1.34.79-2.71,1.24-4.1,1.33-.03,1.18.05,2.41.23,3.71.18,1.3.37,1.96.57,1.98.26.02.57-.37.94-1.19.33-.7.53-1.28.61-1.76.09-.72.21-1.46.37-2.23.21-.05.62.14,1.23.58.61.43.97.82,1.07,1.15ZM1353.62,328.44c-.22-.05-.53.6-.93,1.94-.4,1.34-.63,2.63-.69,3.85.59-.05,1.05-.31,1.41-.79.21-.29.31-1.49.31-3.6,0-.89-.03-1.36-.1-1.4Z"/><path d="M1365.92,326.67c.05.38-.02.7-.21.94-.16.14-.31.3-.45.47-.82,2.3-1.93,5.41-3.34,9.32,0,3.82,0,5.78.02,5.9.01.12.06.43.15.92.08.49.13.88.13,1.17,0,.46-.11.77-.33.94-.14.12-.34.18-.59.18-.5,0-1.04-.2-1.64-.61-.76-.48-1.13-1.09-1.13-1.84,0-.22.05-.56.16-1.04.1-.48.16-.88.16-1.19v-14.26c-.14-1.34-.21-2.04-.21-2.09,0-.74.18-1.21.55-1.4.16-.07.34-.11.57-.11.46,0,.93.14,1.44.41.5.28.8.57.89.88.03.1.04.22.04.36,0,.12-.09.7-.27,1.73v1.73c.31-1.03.62-2.06.92-3.1.4-1.3.7-1.98.9-2.05.29-.09.72.22,1.31.94s.91,1.32.98,1.8Z"/><path d="M1211.43,370.78c.3,1.15.45,2.58.45,4.28,0,2.26-.24,4.69-.72,7.31-.47,2.45-1,4.37-1.6,5.76-.07.41-.1.66-.12.76-.05.26-.13.48-.23.65-.18.26-.49.41-.92.43-.38,0-.75-.22-1.11-.65-.04-.05-.34-.47-.9-1.26.01.17.06.43.14.79.04.24.04.46,0,.65-.1.53-.27.82-.51.86-.3.05-.84-.14-1.62-.56s-1.23-.8-1.35-1.13c-.08-.22-.02-.64.18-1.26.06-.22.1-.72.1-1.51v-24.19c0-.12-.06-.34-.19-.67-.12-.32-.17-.61-.15-.85.08-.77.34-1.15.8-1.15.43,0,.99.23,1.69.68.7.46,1.1.92,1.22,1.4.05.22,0,.6-.13,1.15s-.22,1.01-.24,1.37v5.9c1.05-1.94,1.9-2.84,2.54-2.7.44.1.92.5,1.43,1.22.56.74.98,1.64,1.25,2.7ZM1209.15,370.99c-.5.36-1.05,1.09-1.68,2.2s-1.02,2.03-1.19,2.77v9.72c.09.19.25.41.47.65.43.14.95-1.62,1.56-5.29.6-3.58.9-6.53.9-8.86,0-.48-.02-.88-.06-1.19Z"/><path d="M1220.1,368.33c.72.62,1.27,1.88,1.66,3.78.35,1.73.53,3.77.53,6.12,0,3.24-.3,6.05-.9,8.42-.66,2.54-1.49,3.7-2.48,3.46-.36-.17-.91-.37-1.64-.61-.53-.12-1.02-.3-1.45-.54-.74-.36-1.33-1.52-1.78-3.49-.4-1.82-.61-3.96-.61-6.41s.21-4.72.62-6.73c.47-2.21,1.13-3.76,1.97-4.64.14-.14.34-.22.59-.22s.77.16,1.54.47c.5,0,1.14.13,1.93.4ZM1217.92,371.57c-.35,0-.68.79-.98,2.36-.3,1.57-.45,3.08-.45,4.52,0,1.73.11,3.43.33,5.11.25,1.82.53,2.81.86,2.95.42.17.79-.7,1.11-2.59.31-1.82.47-3.84.47-6.05,0-1.22-.08-2.44-.25-3.64-.23-1.78-.6-2.66-1.09-2.66Z"/><path d="M1227.54,360.95c0,.17-.03.4-.09.68s-.09.47-.11.54c-.08.48-.16,1.22-.23,2.23v22.1c0,.29.04.55.12.77.08.23.12.41.12.56,0,1.54-.16,2.36-.47,2.48-.12.05-.53-.11-1.24-.49-.71-.37-1.14-.67-1.28-.88-.29-.46-.43-.88-.43-1.26,0-.1.03-.2.08-.32.05-.12.08-.32.08-.61v-25.38c0-.14-.02-.29-.07-.45-.05-.16-.07-.31-.07-.45.03-.58.27-.96.72-1.15.13-.05.4-.05.82,0,.48.07.9.2,1.25.4.53.29.8.7.8,1.22Z"/><path d="M1232.97,360.95c0,.17-.03.4-.09.68s-.09.47-.11.54c-.08.48-.16,1.22-.23,2.23v22.1c0,.29.04.55.12.77.08.23.12.41.12.56,0,1.54-.16,2.36-.47,2.48-.12.05-.53-.11-1.24-.49-.71-.37-1.14-.67-1.28-.88-.29-.46-.43-.88-.43-1.26,0-.1.03-.2.08-.32.05-.12.08-.32.08-.61v-25.38c0-.14-.02-.29-.07-.45-.05-.16-.07-.31-.07-.45.03-.58.27-.96.72-1.15.13-.05.4-.05.82,0,.48.07.9.2,1.25.4.53.29.8.7.8,1.22Z"/><path d="M1242.25,382.66c.12.36-.14,1.43-.76,3.2-.68,1.9-1.34,3.18-1.99,3.85-.08.07-.2.11-.35.11-.51,0-1.17-.29-1.99-.86-.87-.58-1.45-1.2-1.72-1.87-.76-1.8-1.13-4.3-1.13-7.49,0-3.02.33-5.69,1-7.99.72-2.52,1.63-3.8,2.73-3.85.4-.02.89.17,1.46.58.7.5,1.28,1.19,1.74,2.05.12.22.23.86.33,1.94.13,1.15.2,2.28.2,3.38,0,1.63-.14,2.76-.43,3.38-1.34.79-2.71,1.24-4.1,1.33-.03,1.18.05,2.41.23,3.71.18,1.3.37,1.96.57,1.98.26.02.57-.37.94-1.19.33-.7.53-1.28.61-1.76.09-.72.21-1.46.37-2.23.21-.05.62.14,1.23.58.61.43.97.82,1.07,1.15ZM1238.77,371.64c-.22-.05-.53.6-.93,1.94-.4,1.34-.63,2.63-.69,3.85.59-.05,1.05-.31,1.41-.79.21-.29.31-1.49.31-3.6,0-.89-.03-1.36-.1-1.4Z"/><path d="M1251.08,369.88c.05.38-.02.7-.21.94-.16.14-.31.3-.45.47-.82,2.3-1.93,5.41-3.34,9.32,0,3.82,0,5.78.02,5.9.01.12.06.43.15.92.08.49.13.88.13,1.17,0,.46-.11.77-.33.94-.14.12-.34.18-.59.18-.5,0-1.04-.2-1.64-.61-.76-.48-1.13-1.09-1.13-1.84,0-.22.05-.56.16-1.04.1-.48.16-.88.16-1.19v-14.26c-.14-1.34-.21-2.04-.21-2.09,0-.74.18-1.21.55-1.4.16-.07.34-.11.57-.11.46,0,.93.14,1.44.41.5.28.8.57.89.88.03.1.04.22.04.36,0,.12-.09.7-.27,1.73v1.73c.31-1.03.62-2.06.92-3.1.4-1.3.7-1.98.9-2.05.29-.09.72.22,1.31.94s.91,1.32.98,1.8Z"/><path d="M1270.76,386.65c.1.46.16.91.16,1.37,0,.72-.15,1.21-.45,1.48-.09.07-.25.11-.49.11-.44,0-.97-.13-1.58-.38-.61-.25-.98-.5-1.11-.74-.07-.14-.1-.3-.1-.47,0-.26.1-.69.29-1.28s.29-1.01.29-1.28c.03-9.46-.01-14.22-.12-14.29-.21-.12-.63.83-1.27,2.84-.7,2.21-1.05,4.13-1.05,5.76v7.06c.09.55.14.98.14,1.3,0,.6-.17,1.06-.51,1.37-.09.07-.25.11-.49.11-.44,0-.97-.13-1.58-.38-.61-.25-.98-.5-1.11-.74-.05-.1-.08-.22-.08-.36,0-.24.09-.67.28-1.3s.28-1.08.28-1.37c.03-9.46-.01-14.22-.12-14.29-.18-.12-.63.96-1.35,3.24-.75,2.4-1.13,4.21-1.13,5.44v6.73c.17.31.25.7.25,1.15,0,.91-.22,1.54-.66,1.87-.05.05-.13.07-.23.07-.35,0-.87-.15-1.54-.45-.68-.3-1.05-.55-1.13-.74s-.12-.41-.12-.65.08-.53.22-.86.22-.55.22-.65v-16.74c0-.19-.05-.44-.16-.76-.1-.31-.14-.58-.1-.79.08-.5.28-.83.61-.97.21-.1.7.04,1.46.4.83.38,1.29.78,1.37,1.19.05.26.03.66-.06,1.19-.14.84-.21,1.32-.21,1.44,0,.26.03.55.08.86.2-1.2.47-2.27.82-3.2.43-1.13.86-1.69,1.29-1.69s.98.3,1.7.9c.66.58,1.07,1.07,1.23,1.48.12.29.25,1.15.39,2.59.53-1.82.84-2.87.92-3.13.44-1.22.87-1.84,1.27-1.84.44,0,1.02.28,1.72.85.7.56,1.11,1.08,1.21,1.53.36,1.54.55,7.21.55,17.03Z"/><path d="M1280.45,382.66c.12.36-.14,1.43-.76,3.2-.68,1.9-1.34,3.18-1.99,3.85-.08.07-.2.11-.35.11-.51,0-1.17-.29-1.99-.86-.87-.58-1.45-1.2-1.72-1.87-.76-1.8-1.13-4.3-1.13-7.49,0-3.02.33-5.69,1-7.99.72-2.52,1.63-3.8,2.73-3.85.4-.02.89.17,1.46.58.7.5,1.28,1.19,1.74,2.05.12.22.23.86.33,1.94.13,1.15.2,2.28.2,3.38,0,1.63-.14,2.76-.43,3.38-1.34.79-2.71,1.24-4.1,1.33-.03,1.18.05,2.41.23,3.71.18,1.3.37,1.96.57,1.98.26.02.57-.37.94-1.19.33-.7.53-1.28.61-1.76.09-.72.21-1.46.37-2.23.21-.05.62.14,1.23.58.61.43.97.82,1.07,1.15ZM1276.97,371.64c-.22-.05-.53.6-.93,1.94-.4,1.34-.63,2.63-.69,3.85.59-.05,1.05-.31,1.41-.79.21-.29.31-1.49.31-3.6,0-.89-.03-1.36-.1-1.4Z"/><path d="M1291.15,361.27c.03.24-.02.71-.15,1.4-.12.7-.19,1.09-.19,1.19v23.47c0,.79.03,1.28.1,1.48.2.62.25,1.04.18,1.26-.07.19-.23.29-.51.29-.3,0-.75-.11-1.37-.32-.69-.26-1.05-.4-1.09-.4-.23-.05-.4-.34-.51-.86-.01-.05-.02-.2-.02-.47,0-.98.07-2.45.21-4.39-.31,1.15-.62,2.3-.92,3.46-.43,1.42-.81,2.06-1.15,1.94-2.56-.96-3.85-3.86-3.85-8.71,0-2.76.41-5.57,1.23-8.42.79-2.76,1.67-4.56,2.62-5.4.13-.12.25-.18.37-.18.33,0,.89.74,1.7,2.23v-6.98c-.01-.19-.07-.53-.18-1.03s-.16-.86-.16-1.1c0-.5.18-.76.55-.76.33,0,.79.17,1.41.5.39.24.77.47,1.15.68.33.17.51.54.57,1.12ZM1287.75,370.56c-.73.6-1.39,1.92-1.98,3.96-.59,2.04-.89,3.94-.89,5.69,0,2.04.43,3.16,1.29,3.35.46.1.98-4.24,1.58-13Z"/><path d="M1303.63,368.33c.72.62,1.27,1.88,1.66,3.78.35,1.73.53,3.77.53,6.12,0,3.24-.3,6.05-.9,8.42-.66,2.54-1.49,3.7-2.48,3.46-.36-.17-.91-.37-1.64-.61-.53-.12-1.02-.3-1.45-.54-.74-.36-1.33-1.52-1.78-3.49-.4-1.82-.61-3.96-.61-6.41s.21-4.72.62-6.73c.47-2.21,1.13-3.76,1.97-4.64.14-.14.34-.22.59-.22s.77.16,1.54.47c.5,0,1.14.13,1.93.4ZM1301.44,371.57c-.35,0-.68.79-.98,2.36-.3,1.57-.45,3.08-.45,4.52,0,1.73.11,3.43.33,5.11.25,1.82.53,2.81.86,2.95.42.17.79-.7,1.11-2.59.31-1.82.47-3.84.47-6.05,0-1.22-.08-2.44-.25-3.64-.23-1.78-.6-2.66-1.09-2.66Z"/><path d="M1314.48,385.39c0,1.32-.24,2.38-.71,3.17s-1.14,1.2-2,1.22c-.21,0-.44-.06-.68-.18-.44-.22-.68-.34-.7-.36-.23-.1-.47-.2-.71-.31-.24-.11-.45-.29-.62-.56-.29-.48-.57-1.14-.84-1.98-.22-.67-.44-1.36-.64-2.05-.21-.7-.31-1.12-.31-1.26,0-.34.13-.59.39-.76.06-.05.18-.07.35-.07.39,0,.88.08,1.47.23.59.16.91.29.97.4.05.11.12.8.21,2.07.08,1.1.21,1.66.41,1.66.3,0,.45-.74.45-2.23,0-1.9-.27-3.08-.82-3.56-1.25-1.08-2.07-2.04-2.46-2.88-.48-1.03-.72-2.59-.72-4.68,0-1.37.2-2.66.59-3.87.39-1.21.85-1.94,1.39-2.18.23-.1.99.36,2.26,1.37.12.07.46.2,1.04.4.4.14.69.4.86.76.25.55.39,1.43.43,2.63.01.89.02,1.78.02,2.66.09.82.14,1.3.14,1.44,0,.67-.18,1.06-.53,1.15-.18.05-.54-.08-1.07-.4-.59-.36-.96-.73-1.11-1.12-.04-.1-.08-1-.12-2.7-.04-1.61-.13-2.41-.27-2.41-.19,0-.38.47-.55,1.4-.17.94-.25,1.91-.25,2.92,0,1.27.15,2.08.45,2.41.64.65,1.27,1.3,1.9,1.96s1.07,1.34,1.32,2.03c.33.91.49,2.14.49,3.67Z"/><path d="M1322.39,371.32c-.01.43-.09.82-.23,1.15-.14.34-.3.5-.47.5-.05,0-.1-.01-.14-.04-.18-.12-.59-.18-1.23-.18v14.22s.04.17.13.58c.08.41.13.77.13,1.08,0,.7-.26,1.07-.78,1.12-.27.02-.77-.19-1.5-.65-.79-.48-1.22-.92-1.27-1.33-.03-.17.02-.52.14-1.06s.18-.95.18-1.24v-12.74h-.66c-.25,0-.55-.4-.92-1.21-.36-.8-.55-1.45-.55-1.93,0-.36.08-.68.22-.97s.32-.43.5-.43h1.41v-3.24c-.2-.48-.29-1-.29-1.55,0-.5.12-.82.35-.94.12-.05.28-.07.49-.07.48,0,1.04.14,1.69.41.64.28,1.06.56,1.26.85.09.14.14.31.14.5,0,.24-.1.6-.31,1.08s-.32.82-.33,1.01v1.94h.62c.13,0,.4.43.82,1.3.42.86.62,1.48.62,1.84Z"/><path d="M1327.14,378.33c-.03.89-.15,1.38-.37,1.48-.07.02-.13.04-.2.04-.38,0-.85-.28-1.43-.83-.57-.55-1.04-1.21-1.41-1.98-.16-.31-.16-.89,0-1.73s.23-1.27.23-1.3v-13.61c0-.62.2-1.06.59-1.3.08-.05.19-.07.33-.07.36,0,.78.14,1.25.43.47.29.76.6.88.94.03.07.04.72.04,1.94v14.69c0,.14.01.35.04.63.03.28.04.5.04.67ZM1327.14,383.55c.04.22.04.8,0,1.76-.05,1.25-.08,2.02-.08,2.3,0,.96-.03,1.7-.08,2.23-.05.53-.21.84-.49.94-.16.07-.61-.17-1.35-.72-.78-.6-1.25-1.12-1.41-1.55-.09-.26-.06-.7.1-1.3.08-.26.12-.71.14-1.33-.03-.53-.03-1.54,0-3.02.05-.86.25-1.28.59-1.26.36.05.87.32,1.52.81.65.49,1,.87,1.05,1.13Z"/><path d="M1332.39,378.33c-.03.89-.15,1.38-.37,1.48-.07.02-.13.04-.2.04-.38,0-.85-.28-1.43-.83-.57-.55-1.04-1.21-1.41-1.98-.16-.31-.16-.89,0-1.73s.23-1.27.23-1.3v-13.61c0-.62.2-1.06.59-1.3.08-.05.19-.07.33-.07.36,0,.78.14,1.25.43.47.29.76.6.88.94.03.07.04.72.04,1.94v14.69c0,.14.01.35.04.63.03.28.04.5.04.67ZM1332.39,383.55c.04.22.04.8,0,1.76-.05,1.25-.08,2.02-.08,2.3,0,.96-.03,1.7-.08,2.23-.05.53-.21.84-.49.94-.16.07-.61-.17-1.35-.72-.78-.6-1.25-1.12-1.41-1.55-.09-.26-.06-.7.1-1.3.08-.26.12-.71.14-1.33-.03-.53-.03-1.54,0-3.02.05-.86.25-1.28.59-1.26.36.05.87.32,1.52.81.65.49,1,.87,1.05,1.13Z"/><path d="M1337.49,384.96c.03.26-.05.72-.23,1.37-.21.72-.31,1.3-.31,1.73.01.19.01.47,0,.83-.05.7-.16,1.1-.31,1.22-.18.14-.61-.07-1.29-.65-.68-.58-1.05-1.02-1.13-1.33-.07-.22.03-.89.27-2.02.21-.96.39-1.68.55-2.16.08-.24.22-.36.43-.36-.08,0,.31.14,1.17.43.52.17.81.48.86.94Z"/><path class="cls-10" d="M412.37,804.12c2.29,11.82,4.58,23.65,6.87,35.47.85-.51,1.87-.77,3.07-.64,8.56.91,16.69,7.11,16.31,17.75-.09,2.61-.7,4.99-1.66,7.14-.1.58-.22,1.15-.38,1.71-1.24,4.42-4.35,8.13-8.05,9.12-.78.43-1.55.72-2.34.87,2.96,15.29,5.92,30.58,8.88,45.87l93.97-17.55c-.91-3.2-.99-6.59.27-9.96,1.74-4.68,5.51-7.85,9.68-9.43,1.16-.65,2.45-1.18,3.88-1.56,5.06-1.37,10.62-.07,14.8,3.53,3.32,2.86,5.29,6.68,6.38,10.89,45.65-8.53,91.31-17.05,136.96-25.58l-18.28-117.63-270.36,50.01Z"/><path d="M433.48,923.74l-9.64-49.79,1.96-.38c.58-.11,1.15-.33,1.75-.66l.21-.12.23-.06c2.89-.77,5.55-3.88,6.64-7.73.12-.44.23-.93.34-1.52l.04-.25.1-.23c.91-2,1.41-4.15,1.49-6.39.25-6.79-4.19-14.59-14.52-15.69-.7-.08-1.3.04-1.83.36l-2.45,1.48-7.79-40.26,1.98-.37,272.38-50.39,18.89,121.58-140.7,26.28-.47-1.81c-1.08-4.2-3.02-7.52-5.75-9.87-3.66-3.16-8.51-4.32-12.97-3.12-1.22.33-2.37.79-3.43,1.38l-.27.12c-2.37.9-6.62,3.16-8.52,8.25-1.01,2.72-1.09,5.66-.22,8.72l.6,2.11-98.08,18.32ZM428.49,876.9l8.16,42.17,89.97-16.8c-.54-3.14-.27-6.19.8-9.08,1.77-4.76,5.67-8.6,10.71-10.55,1.31-.71,2.72-1.28,4.2-1.68,5.74-1.55,11.96-.08,16.62,3.95,2.95,2.54,5.12,5.93,6.49,10.1l133.27-24.89-17.66-113.68-266.35,49.27,6.05,31.26c.57-.08,1.15-.08,1.75-.02,9.02.96,18.54,7.57,18.09,19.81-.1,2.67-.68,5.24-1.74,7.66-.11.61-.24,1.16-.38,1.65-1.44,5.15-5.05,9.22-9.22,10.44-.26.14-.52.26-.79.37Z"/><path class="cls-6" d="M412.37,804.12l186.4-125.72c-9.84-1.14,84.44-5.02,83.96,75.7"/><path d="M413.48,805.78l-2.24-3.32,184.84-124.66c.33-1.94,2.58-1.93,7.04-1.74,6.2.26,27.98,2.06,47.78,14.07,22.62,13.73,34,35.26,33.82,63.99l-4-.02c.14-23.24-7.73-41.59-23.4-54.52-21.37-17.65-50.41-19.76-57.33-19.58l-.11.07-186.4,125.71Z"/><path class="cls-9" d="M456.46,824.33c4.68-11.33,21.79-16.12,30.19-9.31,7.23,5.86,6.75,19.28-.6,26.98-4.64,4.87-12.86,8.33-20.22,5.61-9.15-3.39-12.86-14.82-9.37-23.28Z"/><path d="M471.27,849.57c-1.93,0-3.88-.31-5.79-1.02-4.25-1.58-7.67-4.9-9.63-9.37-2.13-4.86-2.25-10.56-.32-15.23h0c2.43-5.88,8.16-10.49,15.33-12.31,6.29-1.6,12.42-.63,16.41,2.61,3.23,2.62,5.19,6.75,5.5,11.64.4,6.16-1.85,12.45-6.01,16.81-3.54,3.72-9.4,6.87-15.5,6.88ZM476.75,812.88c-1.74,0-3.55.23-5.39.7-6.47,1.65-11.82,5.91-13.98,11.14h0c-1.72,4.18-1.61,9.29.3,13.66,1.73,3.96,4.75,6.91,8.49,8.3,7.12,2.64,14.92-.93,19.15-5.36,3.78-3.96,5.82-9.68,5.46-15.3-.28-4.32-1.97-7.95-4.76-10.21-2.37-1.92-5.64-2.92-9.27-2.92Z"/><path class="cls-9" d="M632.92,785.38c3.42-10.08,16.65-13.99,23.32-7.67,5.74,5.44,5.62,17.49.05,24.24-3.52,4.27-9.85,7.2-15.63,4.57-7.19-3.26-10.3-13.62-7.74-21.14Z"/><path d="M645.25,809.02c-1.72,0-3.48-.34-5.21-1.13-6.7-3.04-11.86-13.23-8.54-22.99h0c1.86-5.49,6.66-9.79,12.51-11.25,5.02-1.24,9.98-.14,13.26,2.96,6.19,5.86,6.28,18.88.18,26.29-2.75,3.34-7.32,6.12-12.2,6.12ZM634.34,785.87h0c-2.72,8.01,1.42,16.79,6.94,19.3,5.22,2.37,10.84-.5,13.86-4.16,5.11-6.2,5.15-17.4.07-22.2-2.53-2.4-6.45-3.23-10.48-2.23-4.87,1.21-8.86,4.77-10.39,9.3Z"/><path class="cls-9" d="M600.07,853.69c4.68-11.33,21.79-16.12,30.19-9.31,7.23,5.86,6.75,19.28-.6,26.98-4.64,4.87-12.86,8.33-20.22,5.61-9.15-3.39-12.86-14.82-9.37-23.28Z"/><path d="M614.87,879.42c-1.98,0-3.99-.32-5.95-1.05-4.38-1.62-7.9-5.05-9.91-9.64-2.18-4.99-2.3-10.83-.32-15.62,2.49-6.03,8.35-10.74,15.67-12.61,6.44-1.64,12.74-.63,16.85,2.7,3.34,2.71,5.36,6.97,5.69,12,.4,6.3-1.89,12.72-6.15,17.19-3.63,3.8-9.61,7.03-15.87,7.03ZM601.46,854.26c-1.67,4.05-1.56,9.02.3,13.27,1.68,3.84,4.59,6.69,8.2,8.03,6.92,2.56,14.5-.92,18.61-5.23,3.69-3.87,5.67-9.44,5.32-14.92-.27-4.18-1.9-7.68-4.58-9.86-3.38-2.74-8.69-3.53-14.22-2.13-6.32,1.61-11.54,5.76-13.64,10.84h0Z"/><path class="cls-8" d="M513.63,841.46c.23,1.96-.11,3.65-1,5.04-.89,1.39-2.26,2.24-4.1,2.53-.47.06-.98.03-1.53-.08-1.02-.22-1.54-.33-1.59-.32-.52-.07-1.05-.14-1.59-.22-.54-.08-1.02-.32-1.45-.72-.65-.56-1.23-1.54-1.76-2.92-.64-1.62-1.1-2.62-1.38-3.01-.19-.19-.44-.54-.73-1.04-.11-.39-.1-.79.04-1.2.14-.41.32-.68.57-.82.12-.07.35-.13.69-.17.74-.1,1.66-.1,2.76-.01,1.1.09,1.72.22,1.87.38.15.17.43,1.1.84,2.8.37,1.57.76,2.42,1.17,2.56.09.04.19.06.3.04.4-.05.7-.51.89-1.39.19-.87.22-1.84.1-2.9-.27-2.31-1.02-3.78-2.25-4.4-2.83-1.44-4.87-2.84-6.1-4.22-1.43-1.59-2.22-3.59-2.37-6-.12-2,.22-4.09,1.04-6.26.81-2.17,1.79-3.5,2.91-3.99.47-.2,2.02.2,4.65,1.17.65.21,1.3.44,1.97.68.66.24,1.22.64,1.67,1.2.7.85,1.18,2.42,1.45,4.7.05.42.11,1.05.18,1.88.06.72.11,1.23.14,1.52.04.18.15.48.33.89.14.28.22.56.23.86.09,1.17-.23,1.88-.95,2.1-.42.14-1.22.04-2.42-.29-1.33-.34-2.2-.78-2.6-1.32-.05-.07-.1-.34-.16-.79-.05-.4-.11-1.3-.2-2.72-.09-1.42-.17-2.44-.24-3.08-.13-1.14-.3-1.69-.51-1.63-.65.14-1.13.8-1.43,1.98-.3,1.19-.37,2.5-.21,3.93.28,2.39,1.03,4.01,2.27,4.88,1.39.84,2.78,1.69,4.16,2.53,1.32.83,2.27,1.7,2.85,2.62.74,1.2,1.24,2.94,1.51,5.22Z"/><path class="cls-8" d="M525.69,814.8c2.19,1.09,3.48,3.28,3.86,6.57.28,2.39-.13,5.51-1.21,9.37-1.2,4.31-2.67,6.57-4.41,6.8-.34.04-.74-.11-1.2-.47-.46-.36-.92-.71-1.36-1.05l.78,6.77c.04.34.14.74.3,1.17.22.62.37,1.04.44,1.28.07.23.04.67-.09,1.33-.13.65-.38,1.03-.76,1.13s-1.24-.12-2.59-.67c-1.42-.57-2.32-1.13-2.71-1.67-.23-.35-.3-.9-.19-1.67.08-.58.11-1.03.07-1.34l-2.84-24.61c-.02-.16-.13-.44-.32-.85-.2-.41-.3-.7-.3-.89-.02-1.29.29-1.98.92-2.06.11-.01.55.08,1.34.29.79.21,1.41.3,1.85.26.64-.06,1.43-.37,2.36-.95.93-.58,1.62-.9,2.07-.96.25-.03.51-.03.78.02.51.1,1.06.43,1.66,1,.72.66,1.24,1.07,1.56,1.21ZM523.41,818.21c-.49.06-1.13.48-1.92,1.26-.79.78-1.38,1.59-1.75,2.45l1.11,9.6c1.09-.6,1.99-2.37,2.68-5.32.64-2.67.86-4.89.65-6.67-.11-.93-.36-1.37-.77-1.31Z"/><path class="cls-8" d="M537.14,812.75c.02.19,0,.44-.06.77-.06.33-.09.54-.11.62-.07.55-.1,1.39-.1,2.52l2.82,24.45c.04.32.13.6.29.83s.24.43.26.59c.2,1.7.05,2.65-.45,2.85-.19.08-.95,0-2.29-.23-1.41-.25-2.23-.48-2.47-.69-.52-.44-.81-.88-.86-1.3-.01-.11.02-.23.09-.38.07-.14.09-.37.05-.69l-3.24-28.07c-.02-.16-.07-.32-.17-.48-.09-.16-.15-.32-.17-.48-.03-.64.31-1.12,1.03-1.43.23-.08.71-.15,1.46-.19.92-.04,1.7,0,2.34.14.97.2,1.49.59,1.56,1.17Z"/><path class="cls-8" d="M557.47,836.55c-.11,1.28-.43,2.09-.95,2.42-.16.1-.39.15-.68.13s-.5.02-.61.12l-4.42,3.08c-.14.1-.27.34-.38.74-.12.39-.25.62-.39.7-.44.27-1.45.2-3.03-.21-1.58-.42-2.55-.87-2.93-1.36-.28-.39-.43-1.05-.45-1.96,0-.43-.02-.76-.05-1l-3.09-26.76c-.07-.26-.18-.48-.33-.65-.15-.17-.23-.32-.25-.45-.02-.51.31-.93.98-1.26.43-.19,1.42-.12,2.96.22,1.74.39,2.68,1,2.79,1.82.02.21-.06.55-.24,1-.18.46-.26.79-.24,1l2.54,22.02,3.1-2.22c.17-.24.5-.52,1-.86.29-.09,1.15.37,2.58,1.38,1.43,1.01,2.12,1.71,2.08,2.09Z"/><path class="cls-8" d="M569.79,808.52c.02.19,0,.44-.06.77-.06.33-.09.54-.11.62-.07.55-.1,1.39-.1,2.52l2.82,24.45c.04.32.13.6.29.83.16.24.24.43.26.59.2,1.7.05,2.65-.45,2.85-.18.08-.95,0-2.29-.23-1.41-.25-2.23-.48-2.47-.69-.52-.44-.81-.88-.86-1.3-.01-.11.02-.23.09-.38.07-.14.09-.37.05-.69l-3.24-28.07c-.02-.16-.07-.32-.17-.48-.09-.16-.15-.32-.17-.48-.03-.64.31-1.12,1.03-1.43.23-.08.71-.15,1.46-.19.92-.04,1.7,0,2.34.14.97.2,1.49.59,1.56,1.17Z"/><path class="cls-8" d="M592.02,823.02c.06,1.07-.23,1.79-.88,2.17-.12.04-.28.02-.46-.08-.18-.1-.33-.14-.43-.12-.13.02-.26.07-.4.17-.37,4.06-.71,6.8-1.02,8.21-.56,2.63-1.47,4.42-2.74,5.36-.34.26-.69.41-1.08.46-.38.05-1.36-.17-2.95-.67-.59-.11-1.54-.38-2.84-.8-1.31-.58-2.47-2.17-3.45-4.77-.9-2.36-1.54-5.23-1.93-8.6-.5-4.38-.47-8.34.11-11.9.63-3.88,1.79-6.16,3.47-6.83.15-.05.31-.08.5-.11,1.06-.14,2.4.12,4.03.77,1.74.69,2.95,1.54,3.65,2.56.57.82,1,1.89,1.31,3.23.37,1.51.58,2.34.64,2.46.12.44.26.98.44,1.6.06.34,0,.76-.18,1.25-.18.5-.37.81-.57.94-.26.17-1.11.08-2.55-.26-1.44-.34-2.31-.64-2.62-.89-.42-.27-.65-.87-.69-1.81-.02-.13.02-.3.1-.52s.12-.4.1-.56c-.22-1.88-.5-2.8-.83-2.76-.72.07-1.19,1.66-1.38,4.79-.18,2.93-.07,6.1.32,9.5.58,5.04,1.48,7.86,2.69,8.46.36.17.74-.62,1.13-2.37.39-1.75.55-3.36.49-4.83-.38-.27-1.07-.6-2.08-.98-.81-.3-1.26-.59-1.36-.88-.13-.39-.09-.96.12-1.73.21-.77.47-1.28.77-1.54.3-.25.75-.43,1.34-.54.8-.1,1.29-.19,1.45-.27.35-.13.91-.43,1.67-.9.62-.4,1.1-.63,1.44-.67.13-.02.25-.02.35,0,.54.06,1.39.56,2.54,1.49,1.15.93,1.74,1.58,1.76,1.96Z"/><path class="cls-8" d="M609.41,830.06c-.01.46-.14.97-.39,1.53-.25.56-.48.91-.7,1.04-.06.03-.18,0-.37-.09-.18-.1-.33-.14-.43-.12-.04,0-.08.02-.12.06-.63.32-1.25.73-1.86,1.21-1.46,1.11-2.77,2.45-3.92,4.02-2.24-.81-3.47-1.26-3.67-1.34-1.4-.54-2.12-.99-2.16-1.34l-3.45-29.94c-.02-.19.2-.48.66-.89.46-.41.81-.62,1.04-.62.26,0,.79.13,1.6.42.81.29,1.45.4,1.94.33.64-.08,1.42-.55,2.36-1.4.85-.81,1.4-1.18,1.65-1.1.53.15,1.37.75,2.51,1.8,1.14,1.05,1.79,1.82,1.93,2.32.07.23-.08.67-.45,1.31-.37.64-.69.98-.96,1.01-.23.03-.41.01-.52-.05-.12-.07-.19-.08-.23-.05-.74.31-1.42.66-2.04,1.03-1.49.87-2.56,1.79-3.2,2.76l.75,6.49c.69-.57,1.59-1.19,2.72-1.85.33-.1,1.12.4,2.35,1.49,1.23,1.09,1.88,1.88,1.93,2.36.03.29-.08.66-.33,1.09-.25.44-.51.73-.77.87-.21.03-.58.1-1.1.22-.78.29-2.11,1.32-3.97,3.1l.48,4.18c.58-.56,1.38-1.24,2.4-2.03,1.02-.79,1.65-1.2,1.91-1.24.3-.04,1.11.44,2.44,1.44,1.33,1,1.99,1.66,1.99,1.98Z"/><path class="cls-8" d="M626.38,801.19c.03.29.02.58-.03.85-.1.47-.15.84-.16,1.11l3.03,26.28c0-.08.1.41.33,1.45.27,1.2.23,2.02-.11,2.44-.34.42-1.18.64-2.54.65-.77.02-1.68-.12-2.73-.42-1.35-.34-2.12-.78-2.31-1.32-.02-.37-.12-.94-.29-1.7-1.64-3.77-3.51-7.91-5.62-12.4l1.36,11.79c.02.21.13.48.32.81.24.43.37.65.37.68.15.38.25.78.3,1.17.12,1.06-.2,1.64-.96,1.74-.74.1-1.82-.03-3.24-.39-1.33-.37-2.1-.68-2.3-.95-.3-.39-.37-.94-.19-1.63.18-.7.26-1.12.24-1.28l-2.88-24.97c-.02-.16-.08-.39-.18-.7-.1-.31-.14-.56-.12-.75.11-.93.45-1.59,1.03-1.99.1-.07.33-.12.69-.17.83-.11,1.69-.08,2.59.07,1.16.17,2,.52,2.51,1.05.69.72,1.74,3.05,3.16,6.99,1.74,4.84,3.04,8.09,3.9,9.76l-1.8-15.65c-.02-.21-.1-.51-.23-.88-.13-.37-.21-.67-.23-.88-.02-.16-.02-.31.01-.45.05-.46.42-.85,1.09-1.15.53-.26,1.05-.39,1.57-.4.49-.01,1.09.06,1.8.21,1.02.25,1.56.59,1.64,1.04Z"/></svg>