<?xml version="1.0" encoding="UTF-8"?><svg id="Layer_1" xmlns="http://www.w3.org/2000/svg" width="345" height="280" viewBox="0 0 345 280"><defs><style>.cls-1{fill:#ffc556;}.cls-2{fill:#fff;}.cls-3{fill:#f7931e;}.cls-4{fill:#ffd956;}</style></defs><path class="cls-4" d="M4.72,144.71c2.66,12.97,5.32,25.95,7.98,38.92.98-.56,2.17-.84,3.57-.7,9.95,1,19.41,7.8,18.96,19.47-.11,2.86-.81,5.48-1.93,7.83-.12.63-.26,1.26-.44,1.87-1.44,4.85-5.05,8.92-9.35,10.01-.91.47-1.81.79-2.72.96,3.44,16.78,6.88,33.55,10.32,50.33l109.27-19.26c-1.06-3.51-1.15-7.24.31-10.93,2.03-5.13,6.41-8.61,11.26-10.34,1.35-.71,2.84-1.29,4.51-1.72,5.88-1.5,12.35-.07,17.21,3.87,3.86,3.14,6.16,7.33,7.42,11.94,53.09-9.35,106.17-18.71,159.26-28.06l-21.25-129.06L4.72,144.71Z"/><path d="M29.55,275.69l-11.12-54.24,2.01-.37c.71-.13,1.42-.38,2.16-.76l.21-.11.23-.06c3.46-.87,6.65-4.34,7.93-8.64.14-.48.27-1.03.39-1.67l.05-.26.11-.24c1.06-2.21,1.64-4.58,1.74-7.04.29-7.53-4.96-16.18-17.16-17.4-.9-.09-1.7.06-2.39.45l-2.39,1.36-8.95-43.63,2.03-.35,316.37-55.22,21.9,133-163,28.72-.48-1.76c-1.27-4.64-3.54-8.31-6.75-10.92-4.35-3.54-10.13-4.84-15.45-3.49-1.45.37-2.82.89-4.07,1.55l-.26.11c-4.84,1.73-8.41,4.99-10.07,9.19-1.19,3.01-1.27,6.24-.26,9.62l.65,2.16-113.4,19.98ZM23.13,224.46l9.56,46.61,105.25-18.55c-.66-3.49-.36-6.87.9-10.07,2.04-5.17,6.52-9.34,12.31-11.44,1.49-.77,3.12-1.38,4.82-1.82,6.54-1.67,13.63-.07,18.96,4.26,3.45,2.8,5.99,6.57,7.55,11.22l155.57-27.41-20.6-125.12L7.1,146.32l7.11,34.68c.73-.12,1.49-.14,2.27-.07,10.36,1.04,21.27,8.22,20.76,21.54-.11,2.92-.79,5.74-2.02,8.38-.13.67-.28,1.27-.44,1.82-1.67,5.6-5.79,10.01-10.56,11.32-.37.18-.73.34-1.1.48Z"/><path class="cls-1" d="M4.72,144.71L221.48,6.78c-11.44-1.25,98.19-5.51,97.63,83.06"/><path d="M5.8,146.39l-2.15-3.38L218.67,6.19c.33-2.01,2.86-2,7.89-1.79,9.73.4,95.04,6.15,94.54,85.45l-4-.03c.16-24.79-8.5-44.54-25.73-58.7-25.11-20.63-60.58-22.98-68.61-22.79l-.21.13L5.8,146.39Z"/><path class="cls-3" d="M56,166.88c5.44-12.44,25.33-17.69,35.11-10.21,8.41,6.43,7.84,21.15-.7,29.6-5.4,5.34-14.95,9.14-23.51,6.15-10.64-3.72-14.95-16.26-10.89-25.54Z"/><path d="M73.22,194.48c-2.21,0-4.46-.34-6.66-1.11-5.07-1.77-9.08-5.55-11.31-10.65-2.27-5.22-2.34-11.28-.18-16.23h0c2.73-6.25,9.17-11.23,17.21-13.31,7.44-1.92,14.7-.91,19.42,2.7,3.76,2.88,6.02,7.42,6.36,12.81.43,6.72-2.18,13.56-6.97,18.3-4.09,4.05-10.85,7.49-17.89,7.49ZM56.91,167.28h0c-1.94,4.45-1.88,9.92.18,14.63,2,4.58,5.6,7.98,10.13,9.56,8.38,2.93,17.52-1.01,22.48-5.92,4.39-4.34,6.77-10.6,6.38-16.75-.31-4.8-2.29-8.83-5.58-11.35-4.24-3.24-10.86-4.12-17.71-2.35-7.45,1.92-13.38,6.48-15.88,12.17Z"/><path class="cls-3" d="M261.19,124.15c3.98-11.06,19.36-15.35,27.12-8.42,6.68,5.96,6.54,19.18.06,26.6-4.09,4.69-11.45,7.89-18.18,5.02-8.36-3.58-11.97-14.95-9-23.2Z"/><path d="M275.53,149.94c-1.96,0-3.96-.37-5.93-1.21-9.35-4-12.9-16.54-9.82-25.09,2.13-5.91,7.36-10.45,14-12.13,5.88-1.49,11.69-.33,15.53,3.1,7.16,6.4,7.26,20.62.19,28.71-3.16,3.62-8.39,6.62-13.97,6.62ZM278.79,113.87c-1.39,0-2.83.18-4.28.55-5.59,1.42-10.15,5.34-11.91,10.24h0c-2.62,7.29.32,17.95,8.18,21.31,6.21,2.66,12.89-.54,16.46-4.63,5.97-6.83,6-19.19.07-24.49-2.18-1.95-5.2-2.98-8.52-2.98Z"/><path class="cls-3" d="M222.99,199.09c5.44-12.44,25.33-17.69,35.11-10.21,8.41,6.43,7.84,21.15-.7,29.6-5.4,5.34-14.95,9.14-23.51,6.15-10.64-3.72-14.95-16.26-10.89-25.54Z"/><path d="M240.2,227.18c-2.27,0-4.56-.35-6.81-1.13-5.2-1.82-9.32-5.7-11.6-10.93-2.36-5.42-2.43-11.48-.18-16.63h0c2.8-6.39,9.35-11.47,17.54-13.59,7.59-1.96,15.01-.92,19.85,2.79,3.88,2.96,6.21,7.64,6.56,13.17.44,6.86-2.22,13.85-7.12,18.69-4.17,4.13-11.06,7.63-18.25,7.63ZM224.37,199.69h0c-1.89,4.32-1.82,9.64.18,14.23,1.94,4.45,5.44,7.75,9.84,9.29,8.18,2.86,17.12-1,21.96-5.8,4.29-4.24,6.62-10.36,6.23-16.36-.3-4.65-2.21-8.55-5.39-10.98-4.12-3.15-10.58-4-17.28-2.26-7.3,1.89-13.11,6.33-15.54,11.89Z"/><path class="cls-2" d="M113.02,193.5c.23,1.31.14,2.44-.28,3.38-.42.94-1.13,1.52-2.14,1.74-.26.05-.54.03-.85-.04-.58-.14-.88-.2-.9-.2-.3-.04-.59-.08-.9-.13-.3-.05-.58-.2-.85-.47-.39-.37-.77-1.01-1.14-1.94-.44-1.07-.75-1.74-.93-2-.12-.13-.27-.35-.46-.69-.08-.26-.1-.53-.04-.8.05-.28.14-.46.27-.56.06-.05.19-.09.37-.12.41-.07.92-.08,1.53-.04.61.05.97.12,1.06.24.09.11.3.73.62,1.86.29,1.04.56,1.61.79,1.7.05.03.11.04.17.03.22-.04.36-.35.42-.94.06-.59.02-1.23-.1-1.94-.27-1.54-.77-2.51-1.49-2.92-1.65-.93-2.86-1.85-3.62-2.75-.88-1.05-1.43-2.38-1.65-3.99-.18-1.34-.1-2.74.23-4.2s.8-2.36,1.4-2.7c.25-.14,1.14.11,2.65.73.37.13.75.28,1.13.43.38.15.71.41.99.78.44.56.79,1.6,1.06,3.13.05.28.12.7.21,1.25.07.48.13.82.16,1.01.03.12.11.32.23.59.09.19.15.38.17.57.12.78-.02,1.26-.41,1.42-.22.09-.68.04-1.36-.17-.76-.21-1.26-.5-1.52-.85-.03-.05-.08-.22-.13-.53-.05-.27-.14-.87-.26-1.82-.13-.95-.23-1.63-.3-2.06-.14-.76-.26-1.12-.37-1.08-.35.1-.58.55-.69,1.34-.1.79-.07,1.67.1,2.63.29,1.59.8,2.67,1.53,3.24.82.55,1.64,1.1,2.45,1.65.78.54,1.36,1.11,1.73,1.72.48.79.85,1.95,1.12,3.47Z"/><path class="cls-2" d="M120.04,175.66c-.02-.2.28,1.49.92,5.07,1.8,10.1,1.81,15.47.02,16.12-.32.11-.73.09-1.23-.06-.5-.15-.99-.3-1.48-.45-.41-.07-.82-.16-1.24-.26-.42-.1-.77-.31-1.06-.65-.62-.71-1.31-2.38-2.08-5-.7-2.42-1.31-5.12-1.84-8.12-.41-2.3-.69-4.35-.84-6.13-.05-.56.05-.94.32-1.15.11-.09.58-.05,1.4.13.82.18,1.31.38,1.48.58.08.1.13.23.16.41.04.23.04.56,0,.97-.04.42-.04.74.01.97,0,.35.15,1.33.43,2.94.56,3.12,1.15,5.93,1.79,8.43.81,3.22,1.44,4.75,1.86,4.6.54-.19.69-1.81.43-4.88-.19-2.36-.57-5.12-1.13-8.27-.37-2.07-.64-3.37-.82-3.89-.03-.31-.11-.59-.23-.86-.17-.37-.26-.57-.27-.61-.18-.59-.13-1.07.14-1.42.05-.06.14-.11.28-.13.35-.06.86-.02,1.54.14.68.15,1.08.31,1.22.47.09.11.17.45.22,1.03Z"/><path class="cls-2" d="M132.38,190.05c.23,1.31.14,2.44-.28,3.38-.42.94-1.13,1.52-2.14,1.74-.26.04-.54.03-.85-.04-.58-.14-.88-.2-.9-.2-.29-.04-.59-.08-.9-.13-.3-.05-.58-.2-.85-.47-.39-.37-.77-1.01-1.14-1.93-.44-1.07-.75-1.74-.93-2-.12-.13-.27-.35-.46-.69-.08-.26-.1-.53-.04-.8.05-.27.14-.46.27-.56.06-.05.19-.09.37-.12.41-.07.92-.08,1.53-.04.61.04.97.12,1.06.24.09.11.3.73.62,1.86.29,1.04.56,1.61.79,1.7.05.03.11.04.17.03.22-.04.36-.35.42-.94.06-.59.02-1.23-.1-1.94-.27-1.54-.77-2.51-1.49-2.92-1.65-.93-2.86-1.85-3.62-2.75-.88-1.05-1.43-2.38-1.65-3.98-.18-1.34-.1-2.74.23-4.2.33-1.46.8-2.36,1.4-2.7.25-.14,1.14.11,2.65.73.37.13.75.28,1.13.43s.71.41,1,.78c.44.56.79,1.6,1.06,3.13.05.28.12.7.21,1.25.07.48.13.82.16,1.01.03.12.11.32.23.59.09.18.15.38.17.57.12.78-.02,1.26-.41,1.42-.22.09-.68.04-1.36-.17-.76-.21-1.26-.5-1.52-.85-.03-.05-.08-.22-.13-.53-.05-.27-.13-.87-.26-1.82s-.23-1.63-.3-2.06c-.14-.76-.26-1.12-.37-1.08-.35.1-.58.55-.69,1.34s-.07,1.67.1,2.63c.28,1.59.79,2.67,1.53,3.24.82.55,1.64,1.1,2.45,1.65.78.54,1.36,1.11,1.73,1.72.48.79.85,1.95,1.12,3.47Z"/><path class="cls-2" d="M144.96,190.41c.02.16.06.55.13,1.16.05.32.04.57-.01.74-.05.06-.14.11-.28.13-.38.07-.89,0-1.51-.2-.67-.17-1.15-.44-1.44-.79-.12-.14-.31-.66-.56-1.54-.34-1.16-.66-2.12-.96-2.87-.43.17-1.03.53-1.81,1.08-.78.55-1.27.98-1.48,1.29-.04.79-.1,1.78-.19,2.94,0,.25.01.5.01.72,0,.23-.07.43-.21.6-.03.04-.08.07-.15.08-.28.05-.79-.09-1.52-.41-.74-.33-1.13-.56-1.18-.7-.09-.24-.09-.87,0-1.89.12-1.48.18-2.39.18-2.72-.31-.33-.5-.68-.57-1.05-.02-.09-.03-.19-.04-.29-.01-.22.27-.66.86-1.33l.16-12.12c0-.22-.07-.61-.19-1.17-.11-.47-.13-.78-.06-.92.04-.1.17-.17.39-.21.55-.1,1.36-.02,2.45.22s1.76.52,2.02.82c.42,1.96,1.21,4.86,2.36,8.71,1.45,4.75,2.64,8,3.57,9.73ZM138.96,183.14c-.35-1.09-.57-1.81-.67-2.16-.34-1.17-.65-2.38-.92-3.65-.08.91-.14,2.16-.17,3.76-.05,1.67-.05,2.71,0,3.13.2-.18.79-.54,1.77-1.08Z"/><path class="cls-2" d="M152.76,168.99c.03.2.04.39.03.57-.03.32-.04.56-.03.74l3.13,17.54c0-.05.08.27.26.97.22.8.24,1.35.08,1.63-.17.29-.62.44-1.38.46-.43.02-.94-.06-1.54-.25-.77-.21-1.22-.5-1.36-.85-.03-.25-.12-.63-.26-1.13-1.12-2.51-2.39-5.25-3.81-8.23l1.4,7.87c.03.14.1.32.22.54.16.28.24.43.24.45.11.25.18.52.23.78.13.71-.02,1.1-.44,1.18-.41.07-1.01,0-1.82-.22-.76-.23-1.21-.43-1.33-.61-.19-.26-.25-.62-.19-1.09.06-.47.08-.75.06-.86l-2.97-16.67c-.02-.11-.07-.26-.14-.47-.07-.21-.11-.37-.11-.5,0-.62.16-1.07.46-1.34.05-.05.18-.09.37-.12.45-.08.93-.08,1.44.02.65.1,1.14.33,1.45.67.42.47,1.13,2.02,2.14,4.64,1.23,3.22,2.14,5.38,2.71,6.48l-1.86-10.45c-.03-.14-.08-.34-.18-.58-.09-.25-.15-.44-.18-.58-.02-.11-.02-.21-.02-.3,0-.31.19-.57.54-.78.28-.18.56-.27.85-.29.27-.01.61.03,1.01.12.58.15.9.38.97.68Z"/><path class="cls-2" d="M164.19,166.96c.03.2.04.39.03.57-.03.32-.04.56-.03.75l3.13,17.54c0-.05.08.27.26.97.22.8.24,1.35.08,1.63-.17.29-.62.44-1.38.46-.43.02-.94-.06-1.54-.25-.77-.21-1.22-.5-1.36-.86-.03-.25-.12-.63-.26-1.13-1.12-2.51-2.39-5.25-3.81-8.23l1.4,7.87c.03.14.1.32.22.54.16.28.24.43.24.45.11.26.18.52.23.78.13.71-.02,1.1-.44,1.18-.41.07-1.01,0-1.82-.22-.76-.23-1.21-.43-1.33-.61-.19-.26-.25-.62-.19-1.09.06-.47.08-.75.06-.86l-2.97-16.67c-.02-.11-.07-.26-.14-.47-.07-.21-.11-.37-.11-.5,0-.62.16-1.07.46-1.34.05-.04.18-.08.37-.12.45-.08.93-.08,1.44.02.65.1,1.14.33,1.45.67.42.47,1.13,2.02,2.14,4.64,1.23,3.22,2.14,5.38,2.7,6.48l-1.86-10.45c-.03-.14-.08-.34-.18-.59-.09-.25-.15-.44-.18-.58-.02-.11-.03-.21-.02-.3,0-.31.19-.57.54-.78.28-.18.56-.27.85-.29.27-.01.61.03,1.01.12.58.15.9.38.97.68Z"/><path class="cls-2" d="M176.67,182.83c.02.31-.02.65-.13,1.03-.11.38-.22.61-.33.7-.03.02-.1,0-.21-.06-.11-.06-.19-.09-.25-.08-.02,0-.04.02-.06.04-.33.22-.66.5-.97.83-.75.76-1.41,1.67-1.96,2.74-1.29-.52-2-.8-2.12-.86-.81-.35-1.23-.64-1.27-.87l-3.57-19.99c-.02-.12.08-.33.31-.61.23-.28.41-.42.54-.43.14,0,.45.08.91.26.46.18.83.25,1.1.2.35-.06.76-.38,1.23-.96.43-.55.71-.8.86-.75.3.09.8.48,1.5,1.17.69.69,1.09,1.2,1.2,1.53.05.16,0,.45-.18.88-.17.43-.33.66-.48.69-.13.02-.23.01-.29-.03-.07-.04-.11-.05-.13-.03-.39.22-.75.45-1.08.71-.78.6-1.32,1.22-1.63,1.88l.77,4.33c.35-.39.82-.82,1.41-1.27.18-.07.64.26,1.39.97.75.72,1.15,1.24,1.2,1.55.04.2,0,.44-.12.74-.12.29-.24.49-.38.59-.12.02-.32.07-.6.16-.42.2-1.1.91-2.03,2.12l.5,2.79c.29-.38.7-.84,1.22-1.38.52-.54.85-.82.99-.85.16-.03.64.28,1.44.94.79.65,1.2,1.09,1.21,1.3Z"/><path class="cls-2" d="M189.4,180.56c.02.31-.02.65-.13,1.03-.11.38-.22.61-.33.7-.03.02-.1,0-.21-.06-.11-.06-.19-.09-.25-.08-.02,0-.04.02-.06.04-.33.22-.66.5-.97.83-.75.76-1.41,1.67-1.96,2.74-1.29-.52-2-.8-2.12-.86-.81-.35-1.23-.64-1.27-.87l-3.57-19.99c-.02-.12.08-.33.31-.61.23-.28.41-.42.54-.43.14,0,.45.08.91.26.46.18.83.25,1.1.2.35-.06.76-.38,1.23-.96.43-.55.71-.8.86-.75.3.09.8.48,1.5,1.17.69.69,1.09,1.2,1.2,1.53.05.15,0,.45-.18.88-.17.43-.33.66-.48.69-.13.02-.23.01-.29-.03-.07-.04-.11-.05-.13-.03-.39.22-.75.45-1.08.71-.78.6-1.32,1.22-1.63,1.88l.77,4.33c.35-.39.82-.81,1.41-1.27.18-.07.64.25,1.39.97.75.72,1.15,1.23,1.2,1.55.04.2,0,.44-.12.74-.12.29-.24.49-.38.59-.12.02-.32.07-.6.16-.42.2-1.1.91-2.03,2.12l.5,2.79c.29-.38.7-.84,1.22-1.38.52-.54.85-.82.99-.85.16-.03.64.28,1.44.94.79.65,1.2,1.09,1.21,1.3Z"/><path class="cls-2" d="M200.33,178.39c.16.28.08,1.06-.22,2.33-.31,1.27-.64,1.93-.99,1.97-.38.05-.73-.2-1.05-.75-.07-.17-.2-.41-.4-.72l-4.62-4.58.88,4.92c.03.2.13.43.28.72.15.28.24.5.27.64.09.53-.08.86-.52,1-.34.12-.87.11-1.6-.02-.79-.12-1.21-.31-1.26-.6-.02-.09-.02-.21-.02-.37s-.02-.35-.06-.58l-3.31-18.55c-.02-.12-.06-.23-.11-.32-.05-.09-.08-.16-.09-.22-.07-.48.11-.81.55-.97.13-.06.46-.03,1,.08.53.12.9.15,1.1.09.19-.05.56-.37,1.08-.95.53-.58,1.02-.91,1.47-.99.17-.03.36-.04.56-.02.34.05.68.22,1.01.53.33.31.65.62.96.93.8.81,1.22,1.24,1.26,1.29.4.48.67,1.04.81,1.69.44,2.04-.24,4.89-2.04,8.54.61.59,1.98,2.03,4.1,4.34.11.04.28.11.51.24.13.07.29.18.47.33ZM193.83,164.22c-.55.1-1.36,1.14-2.43,3.12l.73,4.07c.45-.39.94-1.42,1.48-3.09.54-1.67.75-2.88.61-3.62-.06-.35-.19-.51-.39-.48Z"/><path class="cls-2" d="M213.25,175.62c.23,1.31.14,2.44-.28,3.38-.42.94-1.13,1.52-2.14,1.74-.26.05-.54.03-.85-.04-.58-.14-.88-.2-.9-.2-.29-.04-.59-.08-.9-.13-.3-.05-.58-.2-.85-.47-.39-.37-.77-1.01-1.14-1.93-.44-1.07-.75-1.74-.93-2-.12-.13-.27-.35-.46-.69-.08-.26-.1-.53-.04-.8.05-.27.14-.46.27-.56.06-.05.19-.09.37-.12.41-.07.92-.08,1.53-.04.61.04.97.12,1.06.24.09.11.3.73.62,1.86.29,1.04.56,1.61.79,1.7.05.03.11.04.17.03.22-.04.36-.35.42-.94.06-.59.02-1.23-.1-1.94-.27-1.54-.77-2.51-1.49-2.92-1.65-.93-2.86-1.85-3.62-2.75-.88-1.05-1.43-2.38-1.65-3.98-.18-1.34-.1-2.74.23-4.2.33-1.46.8-2.36,1.4-2.7.25-.14,1.14.11,2.65.73.37.13.75.28,1.13.43s.71.41,1,.78c.44.56.79,1.6,1.06,3.13.05.28.12.7.21,1.25.07.48.13.82.16,1.01.03.12.11.32.23.59.09.18.15.38.17.57.12.78-.02,1.26-.41,1.42-.22.09-.68.04-1.36-.17-.76-.21-1.26-.5-1.52-.85-.03-.05-.08-.22-.13-.53-.05-.27-.13-.87-.26-1.82-.13-.95-.23-1.63-.3-2.06-.14-.76-.26-1.12-.37-1.08-.35.1-.58.55-.69,1.34s-.07,1.67.1,2.63c.28,1.59.79,2.67,1.53,3.24.82.55,1.64,1.1,2.45,1.65.78.54,1.36,1.11,1.73,1.72.48.79.85,1.95,1.12,3.47Z"/><path class="cls-2" d="M220.27,157.77c-.02-.2.28,1.5.92,5.07,1.8,10.1,1.81,15.47.02,16.12-.32.11-.73.09-1.23-.05-.5-.15-.99-.3-1.48-.45-.41-.07-.82-.16-1.24-.26-.42-.1-.77-.31-1.06-.65-.62-.71-1.31-2.38-2.08-5-.7-2.42-1.31-5.12-1.85-8.12-.41-2.3-.69-4.35-.84-6.13-.05-.56.05-.94.32-1.15.12-.09.58-.05,1.4.13.82.18,1.31.38,1.48.59.08.1.13.23.16.41.04.23.04.56,0,.97-.05.42-.04.74.01.97,0,.35.15,1.33.43,2.94.56,3.12,1.15,5.93,1.79,8.43.81,3.22,1.44,4.75,1.86,4.6.54-.19.68-1.81.43-4.88-.19-2.36-.57-5.12-1.13-8.27-.37-2.07-.64-3.37-.82-3.89-.03-.31-.11-.59-.23-.86-.17-.37-.26-.57-.27-.61-.18-.59-.13-1.07.14-1.42.05-.06.14-.11.28-.13.35-.06.86-.02,1.54.14.68.15,1.08.31,1.22.47.09.11.16.45.22,1.03Z"/><path class="cls-2" d="M232.7,172.67c0,.86-.12,1.4-.39,1.63-.08.07-.21.1-.37.09-.16,0-.27.02-.34.09l-2.29,2.11c-.07.07-.13.23-.17.5-.04.26-.1.42-.18.47-.23.19-.79.15-1.69-.11-.9-.26-1.47-.55-1.7-.88-.18-.26-.3-.7-.36-1.31-.03-.29-.05-.51-.08-.67l-3.19-17.86c-.06-.17-.13-.32-.22-.43-.09-.11-.15-.21-.16-.3-.04-.34.12-.62.48-.85.23-.13.78-.09,1.66.12.99.24,1.54.64,1.65,1.19.03.14,0,.37-.08.67-.08.31-.1.53-.08.67l2.62,14.7,1.6-1.52c.08-.16.25-.36.51-.58.16-.06.66.23,1.51.9.85.66,1.27,1.12,1.27,1.38Z"/><path class="cls-2" d="M236.87,157.28c-.09.02-.23-.02-.41-.1-.18-.08-.32-.1-.42-.05l-1.66,1.06,2.49,13.98c.09.51.27,1.06.54,1.63.08.17.13.51.15,1.02.03.56-.02.93-.15,1.1-.02.02-.08.04-.17.06-.38.07-.94.05-1.67-.06-.82-.13-1.31-.31-1.5-.53-.22-.29-.29-.71-.21-1.28.07-.49.08-.84.05-1.05l-2.35-13.16-1.15.7c-.06.03-.14.12-.25.28-.11.16-.21.23-.31.21-.29-.06-.75-.52-1.38-1.39-.63-.86-.95-1.47-.95-1.82.02-.42.24-.78.65-1.08.11-.07.26-.11.45-.11.19,0,.34-.02.44-.08l5.65-3.45c.06-.03.2-.16.45-.41.16-.16.32-.23.48-.22.34.01.59.17.77.47.12.2.28.58.47,1.15.24.67.41,1.26.5,1.78.07.39.09.69.06.91-.03.22-.22.36-.56.44Z"/><path class="cls-2" d="M249.02,169.92c.02.31-.02.65-.13,1.03-.11.38-.22.61-.33.7-.03.02-.1,0-.21-.06-.11-.06-.19-.09-.25-.08-.02,0-.04.02-.07.04-.33.22-.65.5-.97.83-.75.76-1.41,1.67-1.96,2.74-1.29-.52-2-.8-2.11-.86-.81-.35-1.23-.64-1.27-.87l-3.57-19.99c-.02-.12.08-.32.31-.6.23-.28.41-.42.54-.43.14,0,.45.08.91.26.46.18.83.25,1.1.2.35-.06.76-.38,1.23-.96.43-.55.72-.8.86-.75.3.09.8.48,1.5,1.17.69.69,1.09,1.2,1.2,1.53.05.15,0,.45-.18.88-.17.43-.33.66-.48.69-.13.02-.23.01-.29-.03-.07-.04-.11-.05-.13-.03-.39.22-.75.45-1.08.71-.78.6-1.32,1.22-1.63,1.88l.77,4.33c.35-.39.82-.81,1.41-1.27.18-.07.64.25,1.39.97.75.72,1.15,1.23,1.2,1.55.03.2,0,.44-.12.74-.12.29-.24.49-.38.59-.12.02-.32.07-.6.16-.42.2-1.1.91-2.03,2.12l.5,2.79c.29-.38.7-.84,1.22-1.38s.85-.82.99-.85c.16-.03.64.28,1.44.94.79.65,1.2,1.09,1.21,1.3Z"/><path class="cls-2" d="M256.86,150.42c.04.2.04.39.03.57-.03.32-.04.56-.03.75l3.13,17.54c0-.05.08.27.26.97.22.8.24,1.35.08,1.63s-.62.44-1.38.46c-.43.02-.94-.06-1.54-.25-.77-.21-1.22-.5-1.36-.86-.03-.25-.12-.63-.26-1.13-1.12-2.51-2.39-5.25-3.81-8.23l1.4,7.87c.03.14.1.32.22.54.16.28.24.43.24.45.11.26.18.52.23.78.13.71-.02,1.1-.44,1.18-.41.07-1.01,0-1.82-.22-.76-.23-1.21-.43-1.33-.61-.19-.26-.26-.62-.19-1.09.06-.47.08-.75.06-.86l-2.97-16.67c-.02-.11-.07-.26-.14-.47-.07-.21-.11-.37-.11-.5,0-.62.16-1.07.46-1.34.05-.05.18-.09.37-.12.45-.08.93-.08,1.44.02.65.1,1.14.33,1.45.67.42.47,1.13,2.02,2.14,4.64,1.23,3.22,2.14,5.38,2.7,6.48l-1.86-10.45c-.03-.14-.08-.34-.18-.58-.09-.25-.15-.45-.18-.59-.02-.11-.03-.21-.02-.3,0-.31.19-.57.54-.78.28-.18.56-.27.85-.29.27-.01.61.03,1.01.12.58.15.9.38.97.68Z"/><path class="cls-2" d="M263.76,162.43c.09.66.05,1.04-.14,1.15-.06.03-.11.05-.17.06-.34.06-.8-.07-1.38-.38-.58-.32-1.09-.73-1.52-1.24-.18-.21-.26-.63-.23-1.28.03-.65.04-.98.04-1l-1.79-10.05c-.08-.46.04-.81.35-1.05.06-.05.16-.08.29-.11.33-.06.72-.02,1.17.12.46.14.76.32.91.55.03.05.13.53.29,1.43l1.94,10.84c.02.11.06.26.12.46.06.2.1.36.12.49ZM264.44,166.29c.06.15.14.59.23,1.3.12.93.2,1.5.23,1.71.13.71.2,1.26.22,1.66.02.4-.08.65-.31.77-.13.08-.56-.03-1.3-.32-.78-.32-1.26-.62-1.46-.92-.12-.18-.14-.51-.08-.97.04-.21.02-.54-.05-1.01-.09-.38-.23-1.13-.4-2.23-.07-.65.05-.99.36-1.02.33-.02.82.1,1.47.36.65.26,1.01.48,1.09.67Z"/></svg>