<?xml version="1.0" encoding="UTF-8"?><svg xmlns="http://www.w3.org/2000/svg" width="245" height="210" viewBox="0 0 245 210"><defs><style>.cls-1{mix-blend-mode:multiply;opacity:.57;}.cls-2{isolation:isolate;}.cls-3{fill:#ffc556;}.cls-4{fill:#93613d;}.cls-5{fill:#fff;}.cls-6{fill:#f7931e;}.cls-7{fill:#ffd956;}</style></defs><g class="cls-2"><g id="Layer_1"><path class="cls-7" d="M4.74,107.35c1.99,9.62,3.97,19.25,5.96,28.87.68-.4,1.51-.6,2.49-.49,6.98.83,13.66,5.95,13.45,14.58-.05,2.11-.51,4.05-1.28,5.78-.08.47-.17.93-.29,1.38-.96,3.58-3.45,6.56-6.45,7.32-.63.34-1.26.57-1.89.68,2.57,12.45,5.13,24.89,7.7,37.34l76.29-13.27c-.77-2.61-.87-5.36.11-8.09,1.37-3.78,4.4-6.31,7.78-7.55.94-.51,1.98-.93,3.14-1.23,4.1-1.06,8.64.06,12.08,3.02,2.73,2.36,4.38,5.48,5.31,8.91,37.06-6.45,74.13-12.89,111.19-19.34l-16.1-95.7L4.74,107.35Z"/><path d="M22.96,205l-8.47-41.05,1.9-.34c.44-.08.87-.24,1.34-.49l.2-.11.22-.06c2.24-.57,4.29-2.97,5.1-5.98.09-.34.17-.73.25-1.2l.04-.24.1-.22c.7-1.58,1.07-3.28,1.12-5.05.18-7.71-5.99-11.96-11.79-12.65-.51-.06-.95.02-1.32.24l-2.26,1.34-6.89-33.39,223.27-38.44,16.73,99.44-114.72,19.95-.45-1.66c-.91-3.37-2.5-6.05-4.71-7.96-2.96-2.56-6.85-3.54-10.39-2.63-.97.25-1.88.61-2.71,1.06l-.25.11c-1.87.68-5.21,2.43-6.66,6.42-.77,2.14-.8,4.46-.08,6.89l.61,2.05-80.17,13.94ZM18.91,166.76l6.99,33.87,72.54-12.62c-.41-2.5-.2-4.91.63-7.21,1.42-3.93,4.62-7.07,8.78-8.64,1.07-.57,2.23-1.02,3.45-1.33,4.73-1.22,9.87.06,13.76,3.42,2.41,2.08,4.22,4.83,5.39,8.2l107.72-18.74-15.47-91.96L6.98,108.89l5.14,24.94c.42-.04.85-.03,1.29.02,7.45.88,15.35,6.43,15.12,16.51-.05,2.19-.5,4.31-1.35,6.28-.09.49-.18.93-.29,1.33-1.15,4.26-4.11,7.61-7.58,8.6-.13.07-.26.13-.39.19Z"/><path class="cls-3" d="M4.74,107.35L155.12,7.22c-8.02-1.03,68.67-3.2,69.11,62.34"/><path d="M5.77,108.94l-2.07-3.17L152.72,6.55c.39-1.68,2.47-1.61,5.05-1.51,3.53.13,22.02,1.31,39.1,11.42,19.24,11.39,29.08,29.25,29.25,53.09l-3.76.03c-.13-18.57-6.55-33.36-19.08-43.96-17.2-14.54-40.99-16.82-46.97-16.82-.05,0-.09,0-.13,0h-.01S5.77,108.94,5.77,108.94Z"/><path class="cls-6" d="M40.83,124.22c3.69-9.15,17.56-12.86,24.47-7.24,5.95,4.83,5.69,15.72-.21,21.9-3.73,3.91-10.38,6.63-16.4,4.34-7.48-2.85-10.62-12.17-7.87-19Z"/><path d="M53.31,145.01c-1.64,0-3.31-.27-4.94-.9-3.57-1.36-6.44-4.19-8.08-7.96-1.71-3.95-1.83-8.54-.33-12.28h0c1.88-4.67,6.4-8.35,12.09-9.84,5.27-1.38,10.44-.55,13.84,2.21,2.75,2.23,4.4,5.73,4.66,9.84.31,4.97-1.48,10-4.78,13.46-2.83,2.97-7.52,5.47-12.46,5.47ZM41.7,124.58h0c-1.32,3.27-1.2,7.31.31,10.8,1.43,3.3,3.92,5.77,7.02,6.95,5.78,2.2,12.03-.59,15.39-4.11,2.94-3.08,4.53-7.58,4.25-12.02-.22-3.58-1.63-6.59-3.96-8.48-2.94-2.39-7.5-3.08-12.19-1.85-5.11,1.34-9.16,4.6-10.82,8.72Z"/><path class="cls-6" d="M184.03,94.44c2.68-8.15,13.4-11.19,18.9-5.99,4.73,4.47,4.76,14.26.3,19.69-2.82,3.43-7.94,5.74-12.67,3.55-5.89-2.72-8.52-11.17-6.52-17.25Z"/><path d="M194.42,113.97c-1.46,0-2.97-.3-4.45-.99-5.55-2.57-9.9-11-7.27-18.99h0c1.47-4.47,5.19-7.87,9.95-9.09,4.23-1.09,8.44-.15,11.25,2.51,5.17,4.89,5.37,15.6.42,21.63-2.22,2.7-5.91,4.92-9.89,4.92ZM196.09,87.31c-.9,0-1.82.12-2.75.36-3.77.97-6.82,3.74-7.97,7.23h0c-2.1,6.38,1.32,13.45,5.77,15.5,4.18,1.93,8.63-.28,11-3.16,4.03-4.9,3.94-13.85-.17-17.74-1.51-1.43-3.6-2.19-5.88-2.19Z"/><path class="cls-6" d="M158.01,149.56c3.69-9.15,17.56-12.86,24.47-7.24,5.95,4.83,5.69,15.72-.21,21.9-3.73,3.91-10.38,6.63-16.4,4.34-7.48-2.85-10.62-12.17-7.87-19Z"/><path d="M170.48,170.81c-1.69,0-3.41-.28-5.1-.93-3.69-1.41-6.66-4.32-8.34-8.22-1.76-4.07-1.89-8.8-.34-12.65h0c1.94-4.81,6.58-8.6,12.41-10.12,5.41-1.41,10.74-.55,14.25,2.3,2.85,2.32,4.57,5.93,4.83,10.19.32,5.1-1.52,10.26-4.91,13.81-2.91,3.05-7.72,5.61-12.81,5.61ZM159.31,150.09h0c-1.27,3.15-1.16,7.06.31,10.44,1.38,3.18,3.78,5.56,6.75,6.69,5.58,2.12,11.63-.58,14.88-4,2.85-2.99,4.39-7.35,4.12-11.66-.22-3.44-1.56-6.34-3.78-8.15-2.82-2.3-7.23-2.95-11.78-1.76-4.97,1.3-8.9,4.45-10.5,8.44Z"/><g class="cls-1"><path class="cls-4" d="M98.28,129.45c2.81.67,4.73,2.64,5.76,5.91.75,2.38.81,5.64.19,9.78-.69,4.62-2.05,7.23-4.08,7.81-.4.11-.9.04-1.52-.24-.61-.27-1.22-.54-1.81-.8l2.12,6.73c.11.34.29.72.56,1.13.37.58.62.99.75,1.21.12.22.17.68.12,1.37-.04.69-.28,1.12-.71,1.3-.43.18-1.5.13-3.22-.16-1.8-.29-2.97-.68-3.53-1.15-.34-.31-.51-.86-.52-1.66,0-.6-.05-1.06-.15-1.38l-7.69-24.47c-.05-.16-.23-.42-.53-.8-.31-.37-.48-.65-.51-.85-.25-1.31,0-2.07.74-2.28.12-.04.67-.03,1.65.03.98.05,1.73.02,2.26-.1.75-.19,1.64-.67,2.65-1.45,1.01-.78,1.78-1.24,2.3-1.39.3-.09.61-.13.93-.14.62,0,1.34.22,2.16.68.98.53,1.67.83,2.08.92ZM96.14,133.38c-.57.16-1.26.72-2.07,1.67-.81.95-1.37,1.9-1.66,2.85l3,9.54c1.2-.83,1.96-2.82,2.27-5.95.3-2.85.17-5.15-.39-6.92-.29-.92-.67-1.32-1.14-1.18Z"/><path class="cls-4" d="M128.98,148.31c.09,1.33-.14,2.21-.71,2.66-.17.14-.44.23-.79.27-.35.04-.59.13-.71.25l-4.75,4.03c-.15.13-.26.4-.33.83-.07.42-.18.69-.34.79-.48.37-1.7.5-3.65.39-1.96-.11-3.2-.37-3.74-.79-.41-.34-.7-.98-.88-1.9-.08-.44-.16-.77-.24-1.01l-8.37-26.61c-.13-.25-.3-.45-.51-.59-.21-.14-.33-.28-.37-.41-.11-.51.21-1.01.96-1.48.48-.28,1.67-.4,3.58-.37,2.15.05,3.37.48,3.65,1.29.07.21.03.57-.11,1.07-.14.5-.18.86-.11,1.07l6.88,21.9,3.32-2.89c.16-.28.5-.63,1.04-1.07.33-.15,1.44.14,3.32.89s2.84,1.31,2.85,1.71Z"/><path class="cls-4" d="M154.31,144.37c.05.24.18.83.39,1.75.12.48.14.87.04,1.15-.1.11-.3.21-.6.3-.82.23-1.91.3-3.27.2-1.45-.05-2.5-.29-3.16-.74-.27-.18-.72-.91-1.34-2.2-.83-1.69-1.6-3.07-2.31-4.13-.9.4-2.17,1.16-3.8,2.27-1.63,1.11-2.65,1.94-3.07,2.49-.02,1.24-.07,2.78-.17,4.62.04.39.07.76.09,1.12.02.35-.12.69-.4,1-.06.07-.16.13-.31.17-.6.17-1.7.12-3.31-.13-1.61-.26-2.48-.49-2.59-.69-.22-.34-.27-1.32-.15-2.93.13-2.34.18-3.76.16-4.27-.7-.41-1.13-.89-1.31-1.44-.04-.13-.07-.28-.1-.44-.05-.33.53-1.12,1.74-2.35l-.68-18.83c-.02-.34-.2-.92-.51-1.75-.27-.7-.34-1.17-.2-1.41.08-.17.36-.32.83-.45,1.17-.33,2.93-.49,5.29-.47s3.83.22,4.41.6c1.07,2.89,3.01,7.12,5.82,12.71,3.52,6.88,6.35,11.51,8.51,13.88ZM140.79,135.11c-.85-1.57-1.39-2.61-1.63-3.12-.83-1.69-1.59-3.47-2.29-5.35-.09,1.44-.11,3.4-.06,5.89.03,2.61.12,4.22.26,4.84.41-.34,1.64-1.1,3.71-2.27Z"/><path class="cls-4" d="M167.29,110.6c.58,1.33.56,2.29-.07,2.87-.36.33-.52.49-.5.49-.7,2.76-1.3,7.43-1.81,14.02-.45,6.23-.55,9.92-.29,11.09.04.22.21.57.5,1.07.29.49.48.91.56,1.26.42,1.84.3,2.92-.36,3.25-.33.15-1.26.2-2.78.14-1.52-.06-2.57-.17-3.14-.36-1.04-.39-1.67-.91-1.86-1.54-.1-.32-.12-.7-.08-1.14.02-1.13.09-3.45.21-6.96-3.48-3.93-5.85-6.64-7.11-8.15-2.52-3.02-4.42-5.54-5.71-7.56-.09-.12-.3-.27-.62-.47-.32-.2-.51-.4-.58-.61-.12-.4.17-1.13.89-2.2,1.53-2.28,2.7-3.47,3.5-3.59.41-.06.86.11,1.34.52.4.32.67.63.82.93.16.5.48,1.28.98,2.35,1.6,3.11,3.91,6.32,6.93,9.63.25-4.01.41-6.23.47-6.65.24-2.51.65-4.92,1.23-7.21-.03-.45-.03-1.04.01-1.77.31-.75.9-1.19,1.78-1.33.62-.09,1.68.11,3.18.61,1.49.49,2.33.93,2.5,1.31Z"/></g><path class="cls-5" d="M91.7,119.95c2.81.67,4.73,2.64,5.76,5.91.75,2.38.81,5.64.19,9.78-.69,4.62-2.05,7.23-4.08,7.81-.4.11-.9.04-1.52-.24-.61-.27-1.22-.54-1.81-.8l2.12,6.73c.11.34.29.72.56,1.13.37.58.62.99.75,1.21.12.22.17.68.12,1.37-.04.69-.28,1.12-.71,1.3-.43.18-1.5.13-3.22-.16-1.8-.29-2.97-.68-3.53-1.15-.34-.31-.51-.86-.52-1.66,0-.6-.05-1.06-.15-1.38l-7.69-24.47c-.05-.16-.23-.42-.53-.8-.31-.37-.48-.65-.51-.85-.25-1.31,0-2.07.74-2.28.12-.04.67-.03,1.65.03.98.05,1.73.02,2.26-.1.75-.19,1.64-.67,2.65-1.45,1.01-.78,1.78-1.24,2.3-1.39.3-.09.61-.13.93-.14.62,0,1.34.22,2.16.68.98.53,1.67.83,2.08.92ZM89.56,123.89c-.57.16-1.26.72-2.07,1.67-.81.95-1.37,1.9-1.66,2.85l3,9.54c1.2-.83,1.96-2.82,2.27-5.95.3-2.85.17-5.15-.39-6.92-.29-.92-.67-1.32-1.14-1.18Z"/><path class="cls-5" d="M122.4,138.82c.09,1.33-.14,2.21-.71,2.66-.17.14-.44.23-.79.27-.35.04-.59.13-.71.25l-4.75,4.03c-.15.13-.26.4-.33.83-.07.42-.18.69-.34.79-.48.37-1.7.5-3.65.39-1.96-.11-3.2-.37-3.74-.79-.41-.34-.7-.98-.88-1.9-.08-.44-.16-.77-.24-1.01l-8.37-26.61c-.13-.25-.3-.45-.51-.59-.21-.14-.33-.28-.37-.41-.11-.51.21-1.01.96-1.48.48-.28,1.67-.4,3.58-.37,2.15.05,3.37.48,3.65,1.29.07.21.03.57-.11,1.07-.14.5-.18.86-.11,1.07l6.88,21.9,3.32-2.89c.16-.28.5-.63,1.04-1.07.33-.15,1.44.14,3.32.89s2.84,1.31,2.85,1.71Z"/><path class="cls-5" d="M147.73,134.88c.05.24.18.83.39,1.75.12.48.14.87.04,1.15-.1.11-.3.21-.6.3-.82.23-1.91.3-3.27.2-1.45-.05-2.5-.29-3.16-.74-.27-.18-.72-.91-1.34-2.2-.83-1.69-1.6-3.07-2.31-4.13-.9.4-2.17,1.16-3.8,2.27-1.63,1.11-2.65,1.94-3.07,2.49-.02,1.24-.07,2.78-.17,4.62.04.39.07.76.09,1.12.02.35-.12.69-.4,1-.06.07-.16.13-.31.17-.6.17-1.7.12-3.31-.13-1.61-.26-2.48-.49-2.59-.69-.22-.34-.27-1.32-.15-2.93.13-2.34.18-3.76.16-4.27-.7-.41-1.13-.89-1.31-1.44-.04-.13-.07-.28-.1-.44-.05-.33.53-1.12,1.74-2.35l-.68-18.83c-.02-.34-.2-.92-.51-1.75-.27-.7-.34-1.17-.2-1.41.08-.17.36-.32.83-.45,1.17-.33,2.93-.49,5.29-.47s3.83.22,4.41.6c1.07,2.89,3.01,7.12,5.82,12.71,3.52,6.88,6.35,11.51,8.51,13.88ZM134.21,125.62c-.85-1.57-1.39-2.61-1.63-3.12-.83-1.69-1.59-3.47-2.29-5.35-.09,1.44-.11,3.4-.06,5.89.03,2.61.12,4.22.26,4.84.41-.34,1.64-1.1,3.71-2.27Z"/><path class="cls-5" d="M160.71,101.11c.58,1.33.56,2.29-.07,2.87-.36.33-.52.49-.5.49-.7,2.76-1.3,7.43-1.81,14.02-.45,6.23-.55,9.92-.29,11.09.04.22.21.57.5,1.07.29.49.48.91.56,1.26.42,1.84.3,2.92-.36,3.25-.33.15-1.26.2-2.78.14-1.52-.06-2.57-.17-3.14-.36-1.04-.39-1.67-.91-1.86-1.54-.1-.32-.12-.7-.08-1.14.02-1.13.09-3.45.21-6.96-3.48-3.93-5.85-6.64-7.11-8.15-2.52-3.02-4.42-5.54-5.71-7.56-.09-.12-.3-.27-.62-.47-.32-.2-.51-.4-.58-.61-.12-.4.17-1.13.89-2.2,1.53-2.28,2.7-3.47,3.5-3.59.41-.06.86.11,1.34.52.4.32.67.63.82.93.16.5.48,1.28.98,2.35,1.6,3.11,3.91,6.32,6.93,9.63.25-4.01.41-6.23.47-6.65.24-2.51.65-4.92,1.23-7.21-.03-.45-.03-1.04.01-1.77.31-.75.9-1.19,1.78-1.33.62-.09,1.68.11,3.18.61,1.49.49,2.33.93,2.5,1.31Z"/></g></g></svg>